<?xml version="1.0" encoding="UTF-8"?>
<svg xmlns="http://www.w3.org/2000/svg" xmlns:xlink="http://www.w3.org/1999/xlink" version="1.2" >
<font id="Liber Grotesque Family SemiBold">
<font-face  font-family="Liber Grotesque Family" units-per-em="1000" ascent="768" descent="-256" font-style="normal" font-weight="600" font-stretch="normal" cap-height="735" x-height="512" underline-position="-106" underline-thickness="73" />
<missing-glyph  horiz-adv-x="830" d="M93 768 L733 768 L733 0 L93 0 L93 768 Z M680 53 L680 715 L147 715 L147 53 L680 53 Z M366 360 L404 360 Q426 360 445 368.5 Q464 377 478.5 391.5 Q493 406 501.5 425 Q510 444 510 466 Q510 488 501.5 507 Q493 526 478.5 540.5 Q464 555 445 563.5 Q426 572 404 572 Q382 572 363 563.5 Q344 555 329.5 540.5 Q315 526 306.5 507 Q298 488 298 466 L230 466 Q230 502 243.5 534 Q257 566 280.5 589.5 Q304 613 336 626.5 Q368 640 404 640 Q440 640 472 626.5 Q504 613 527.5 589.5 Q551 566 564.5 534 Q578 502 578 466 Q578 430 564.5 398 Q551 366 527.5 342.5 Q504 319 472 305.5 Q440 292 404 292 L366 292 L366 360 Z M360 175 Q360 195 374 209 Q388 223 408 223 Q428 223 441.5 209 Q455 195 455 175 Q455 155 441.5 141.5 Q428 128 408 128 Q388 128 374 141.5 Q360 155 360 175 Z " />
<glyph glyph-name="null" d="" />
<glyph glyph-name="nonmarkingreturn" unicode="&#xd;" horiz-adv-x="342" d="" />
<glyph glyph-name="space" unicode="&#x20;" horiz-adv-x="300" d="" />
<glyph glyph-name="quotedbl" unicode="&#x22;" horiz-adv-x="344" d="M113 548 L75 548 L51 720 Q49 738 59.5 754 Q70 770 93 770 Q117 770 127.5 754 Q138 738 136 719 L113 548 Z M270 548 L232 548 L208 720 Q206 738 216.5 754 Q227 770 250 770 Q274 770 284.5 754 Q295 738 293 719 L270 548 Z " />
<glyph glyph-name="numbersign" unicode="&#x23;" horiz-adv-x="729" d="M451 439 L308 439 L268 291 L410 291 L451 439 Z M237 512 L296 732 L387 732 L327 512 L469 512 L530 732 L619 732 L559 512 L700 512 L681 441 L540 441 L501 293 L649 293 L629 223 L481 223 L420 0 L331 0 L391 223 L250 223 L188 0 L98 0 L158 223 L25 223 L44 293 L177 293 L218 441 L77 441 L96 512 L237 512 Z " />
<glyph glyph-name="dollar" unicode="&#x24;" horiz-adv-x="609" d="M257 876 L362 876 L362 745 Q408 735 443 713.5 Q478 692 501.5 662.5 Q525 633 537 599 Q549 565 549 530 L448 530 Q448 545 440 566.5 Q432 588 414 607.5 Q396 627 367.5 640.5 Q339 654 297 654 Q234 654 197 626 Q160 598 160 556 Q160 519 182.5 494.5 Q205 470 252 450 L394 388 Q482 350 523 299.5 Q564 249 564 179 Q564 136 548.5 102.5 Q533 69 505.5 45 Q478 21 441 6.5 Q404 -8 362 -13 L362 -128 L257 -128 L257 -11 Q188 -1 137 29 Q86 59 54 100 L131 163 Q164 128 210.5 106 Q257 84 315 84 Q381 84 418 110.5 Q455 137 455 179 Q455 215 432.5 241.5 Q410 268 359 289 L219 348 Q131 386 91 436.5 Q51 487 51 556 Q51 594 65.5 627 Q80 660 107 685.5 Q134 711 172 727 Q210 743 257 748 L257 876 Z " />
<glyph glyph-name="percent" unicode="&#x25;" horiz-adv-x="593" d="M543 678 L157 90 L50 90 L436 678 L543 678 Z M384 161 Q384 191 405 212 Q426 233 455 233 Q484 233 505 212 Q526 191 526 161 Q526 132 505 111 Q484 90 455 90 Q426 90 405 111 Q384 132 384 161 Z M54 607 Q54 636 75 657 Q96 678 125 678 Q154 678 175 657 Q196 636 196 607 Q196 577 175 556 Q154 535 125 535 Q96 535 75 556 Q54 577 54 607 Z " />
<glyph glyph-name="ampersand" unicode="&#x26;" horiz-adv-x="732" d="M683 404 L683 381 Q683 315 665 249 Q647 183 609 127 L714 10 L714 0 L603 0 L546 60 Q504 26 449 6.5 Q394 -13 323 -13 Q258 -13 205.5 6 Q153 25 116.5 57.5 Q80 90 60 134 Q40 178 40 228 Q40 268 54.5 301 Q69 334 92.5 359.5 Q116 385 146 402 Q176 419 208 427 L198 438 Q168 470 151 510 Q134 550 136 593 Q137 629 151 662.5 Q165 696 191.5 722.5 Q218 749 257 764.5 Q296 780 347 780 Q403 780 444.5 761 Q486 742 513.5 712 Q541 682 554.5 645.5 Q568 609 568 573 L466 573 Q466 593 459 613 Q452 633 438 649.5 Q424 666 401 676 Q378 686 347 686 Q298 686 268.5 658.5 Q239 631 238 591 Q237 566 248.5 541.5 Q260 517 280 495 L542 205 Q563 240 574.5 284 Q586 328 586 381 L586 404 L683 404 Z M323 81 Q416 81 482 132 L269 358 Q214 350 179.5 316 Q145 282 145 230 Q145 197 159 169.5 Q173 142 197 122.5 Q221 103 253.5 92 Q286 81 323 81 Z " />
<glyph glyph-name="quotesingle" unicode="&#x27;" horiz-adv-x="233" d="M61 517 L105 611 Q81 616 64 636 Q47 656 47 682 Q47 711 68 732 Q89 753 118 753 Q138 753 154 743.5 Q170 734 179 718.5 Q188 703 188.5 683.5 Q189 664 180 645 L109 494 L61 517 Z " />
<glyph glyph-name="parenleft" unicode="&#x28;" horiz-adv-x="351" d="M197 351 Q197 254 221.5 165.5 Q246 77 291 -1 L291 -186 Q198 -77 146.5 59.5 Q95 196 95 351 Q95 505 146.5 642 Q198 779 291 888 L291 702 Q246 625 221.5 536 Q197 447 197 351 Z " />
<glyph glyph-name="parenright" unicode="&#x29;" horiz-adv-x="351" d="M154 351 Q154 448 129.5 536.5 Q105 625 60 703 L60 888 Q153 779 204.5 642.5 Q256 506 256 351 Q256 197 204.5 60 Q153 -77 60 -186 L60 0 Q105 77 129.5 166 Q154 255 154 351 Z " />
<glyph glyph-name="asterisk" unicode="&#x2a;" horiz-adv-x="404" d="M209 565 L138 471 L87 515 L154 604 L45 646 L71 710 L174 670 L174 780 L243 780 L243 670 L347 710 L373 646 L263 604 L331 515 L279 471 L209 565 Z " />
<glyph glyph-name="plus" unicode="&#x2b;" horiz-adv-x="612" d="M70 207 L70 305 L262 305 L262 497 L361 497 L361 305 L553 305 L553 207 L361 207 L361 15 L262 15 L262 207 L70 207 Z " />
<glyph glyph-name="comma" unicode="&#x2c;" horiz-adv-x="245" d="M67 -89 L111 5 Q86 10 69.5 29.5 Q53 49 53 76 Q53 105 74 126 Q95 147 124 147 Q144 147 159.5 137.5 Q175 128 184 112.5 Q193 97 194 77.5 Q195 58 186 39 L114 -112 L67 -89 Z " />
<glyph glyph-name="hyphen" unicode="&#x2d;" horiz-adv-x="612" d="M50 207 L50 305 L562 305 L562 207 L50 207 Z " />
<glyph glyph-name="period" unicode="&#x2e;" horiz-adv-x="243" d="M50 71 Q50 101 71 122 Q92 143 121 143 Q151 143 172 122 Q193 101 193 71 Q193 42 172 21 Q151 0 121 0 Q92 0 71 21 Q50 42 50 71 Z " />
<glyph glyph-name="slash" unicode="&#x2f;" horiz-adv-x="265" d="M264 747 L72 -21 L-30 -21 L162 747 L264 747 Z " />
<glyph glyph-name="zero" unicode="0" horiz-adv-x="691" d="M55 378 Q55 456 72.5 527 Q90 598 126 652.5 Q162 707 216.5 739 Q271 771 345 771 Q419 771 473.5 739 Q528 707 564 653 Q600 599 618 527.5 Q636 456 636 378 Q636 300 618 228.5 Q600 157 564 102.5 Q528 48 473.5 16 Q419 -16 345 -16 Q271 -16 216.5 16 Q162 48 126 102.5 Q90 157 72.5 228.5 Q55 300 55 378 Z M346 84 Q387 84 420 105.5 Q453 127 476 166 Q499 205 511.5 259 Q524 313 524 378 Q524 442 511.5 496 Q499 550 475.5 589 Q452 628 419 650 Q386 672 345 672 Q304 672 270.5 650 Q237 628 214 589 Q191 550 178.5 496 Q166 442 166 378 Q166 313 178.5 259 Q191 205 214.5 166 Q238 127 271 105.5 Q304 84 346 84 Z " />
<glyph glyph-name="one" unicode="1" horiz-adv-x="474" d="M55 543 L55 629 L152 629 Q168 629 177.5 640.5 Q187 652 187 671 L187 757 L288 757 L288 91 L419 91 L419 0 L56 0 L56 91 L186 91 L186 543 L55 543 Z " />
<glyph glyph-name="two" unicode="2" horiz-adv-x="635" d="M575 0 L64 0 L64 70 L386 359 Q423 392 449.5 428.5 Q476 465 476 512 Q476 546 464.5 575 Q453 604 432.5 625 Q412 646 383.5 658 Q355 670 320 670 Q285 670 256 657.5 Q227 645 206.5 624 Q186 603 174.5 574 Q163 545 163 512 L64 512 Q64 564 83 611 Q102 658 136.5 692.5 Q171 727 217.5 747.5 Q264 768 320 768 Q377 768 424 748 Q471 728 505 693.5 Q539 659 557.5 612 Q576 565 576 512 Q576 477 567 446.5 Q558 416 541 388.5 Q524 361 499.5 334.5 Q475 308 444 281 L223 90 L575 90 L575 0 Z " />
<glyph glyph-name="three" unicode="3" horiz-adv-x="661" d="M86 560 Q86 605 104 644.5 Q122 684 153.5 713.5 Q185 743 229 760 Q273 777 325 777 Q380 777 424.5 760.5 Q469 744 500 715.5 Q531 687 547.5 647.5 Q564 608 564 563 Q564 509 540.5 466 Q517 423 477 403 Q505 393 527.5 375 Q550 357 566.5 334 Q583 311 592 283.5 Q601 256 601 228 Q601 173 582 127.5 Q563 82 527 49.5 Q491 17 440 -1 Q389 -19 325 -19 Q268 -19 217 0 Q166 19 127.5 52.5 Q89 86 67 132.5 Q45 179 45 234 L151 234 Q151 202 164 173.5 Q177 145 200.5 123.5 Q224 102 255.5 89.5 Q287 77 325 77 Q405 77 449 117 Q493 157 494 221 Q495 279 454 314 Q413 349 337 349 L246 349 L246 438 L323 438 Q387 438 424.5 472 Q462 506 462 557 Q462 609 425.5 644 Q389 679 326 679 Q295 679 270 669.5 Q245 660 228 643.5 Q211 627 201.5 605.5 Q192 584 192 560 L86 560 Z " />
<glyph glyph-name="four" unicode="4" horiz-adv-x="595" d="M575 142 L447 142 L447 0 L348 0 L348 142 L26 142 L10 168 L348 757 L447 757 L447 232 L575 232 L575 142 Z M153 232 L348 232 L348 567 L153 232 Z " />
<glyph glyph-name="five" unicode="5" horiz-adv-x="636" d="M319 93 Q352 93 381 105.5 Q410 118 431.5 139.5 Q453 161 466 190.5 Q479 220 479 253 Q479 286 467.5 316 Q456 346 435.5 368.5 Q415 391 386 404 Q357 417 322 417 Q270 417 232.5 392.5 Q195 368 173 331 L73 331 L113 757 L512 757 L512 667 L197 667 L175 444 Q200 471 238 491.5 Q276 512 329 512 Q384 512 429.5 492 Q475 472 507.5 436.5 Q540 401 558 354 Q576 307 576 253 Q576 201 556 154.5 Q536 108 501 73 Q466 38 419.5 17.5 Q373 -3 320 -3 Q275 -3 235 11.5 Q195 26 162.5 51.5 Q130 77 107 112 Q84 147 73 189 L177 189 Q194 144 232.5 118.5 Q271 93 319 93 Z " />
<glyph glyph-name="six" unicode="6" horiz-adv-x="639" d="M67 243 Q67 286 82 323.5 Q97 361 118 396 L333 758 L441 758 L279 477 Q337 490 392 478 Q431 469 465.5 448.5 Q500 428 525 397.5 Q550 367 564.5 328 Q579 289 579 243 Q579 190 559 143.5 Q539 97 504 62 Q469 27 422.5 7 Q376 -13 323 -13 Q270 -13 223.5 7 Q177 27 142 62 Q107 97 87 143.5 Q67 190 67 243 Z M480 243 Q480 276 468 304.5 Q456 333 435 354 Q414 375 386 387.5 Q358 400 325 400 Q293 400 264 388 Q235 376 213.5 355 Q192 334 179 305 Q166 276 166 243 Q166 211 178.5 182.5 Q191 154 212 132.5 Q233 111 261.5 98.5 Q290 86 323 86 Q355 86 383.5 98.5 Q412 111 433.5 132.5 Q455 154 467.5 182.5 Q480 211 480 243 Z " />
<glyph glyph-name="seven" unicode="7" horiz-adv-x="560" d="M142 0 L395 668 L30 668 L30 757 L515 757 L525 743 L247 0 L142 0 Z " />
<glyph glyph-name="eight" unicode="8" horiz-adv-x="625" d="M536 557 Q536 512 514 471.5 Q492 431 453 406 Q481 392 503.5 371 Q526 350 541.5 324.5 Q557 299 565.5 270.5 Q574 242 574 213 Q574 161 554 116 Q534 71 498.5 38 Q463 5 414 -13.5 Q365 -32 307 -32 Q249 -32 200 -13.5 Q151 5 115.5 38 Q80 71 60 116 Q40 161 40 213 Q40 242 48.5 270.5 Q57 299 72.5 324.5 Q88 350 110.5 371 Q133 392 161 406 Q121 431 99.5 471.5 Q78 512 78 557 Q78 601 96 639.5 Q114 678 144.5 706.5 Q175 735 217 751.5 Q259 768 307 768 Q355 768 397 751.5 Q439 735 469.5 706.5 Q500 678 518 639.5 Q536 601 536 557 Z M308 60 Q340 60 369 70 Q398 80 420.5 99 Q443 118 456.5 145.5 Q470 173 470 209 Q470 240 458.5 267 Q447 294 426 314.5 Q405 335 375 347 Q345 359 308 359 Q270 359 239.5 347 Q209 335 188 314.5 Q167 294 155.5 267 Q144 240 144 209 Q144 174 157.5 146.5 Q171 119 193.5 99.5 Q216 80 246 70 Q276 60 308 60 Z M307 443 Q332 443 355 452.5 Q378 462 395 478 Q412 494 422 515.5 Q432 537 432 560 Q432 584 422 605.5 Q412 627 395 642.5 Q378 658 355 667 Q332 676 307 676 Q279 676 256 666.5 Q233 657 217 641.5 Q201 626 192 605 Q183 584 183 560 Q183 537 192 516 Q201 495 217.5 478.5 Q234 462 257 452.5 Q280 443 307 443 Z " />
<glyph glyph-name="nine" unicode="9" horiz-adv-x="620" d="M576 512 Q576 469 561 431.5 Q546 394 525 359 L310 0 L202 0 L364 278 Q306 265 251 277 Q211 286 177 306.5 Q143 327 118 357.5 Q93 388 78.5 427 Q64 466 64 512 Q64 565 84 611.5 Q104 658 139 693 Q174 728 220.5 748 Q267 768 320 768 Q373 768 419.5 748 Q466 728 501 693 Q536 658 556 611.5 Q576 565 576 512 Z M163 512 Q163 479 175 450.5 Q187 422 208 401 Q229 380 257 367.5 Q285 355 318 355 Q350 355 379 367 Q408 379 429.5 400 Q451 421 464 450 Q477 479 477 512 Q477 544 464.5 572.5 Q452 601 431 622.5 Q410 644 381.5 656.5 Q353 669 320 669 Q288 669 259.5 656.5 Q231 644 209.5 622.5 Q188 601 175.5 572.5 Q163 544 163 512 Z " />
<glyph glyph-name="colon" unicode="&#x3a;" horiz-adv-x="243" d="M50 71 Q50 101 71 122 Q92 143 121 143 Q151 143 172 122 Q193 101 193 71 Q193 42 172 21 Q151 0 121 0 Q92 0 71 21 Q50 42 50 71 Z M50 367 Q50 397 71 418 Q92 439 121 439 Q151 439 172 418 Q193 397 193 367 Q193 338 172 317 Q151 296 121 296 Q92 296 71 317 Q50 338 50 367 Z " />
<glyph glyph-name="semicolon" unicode="&#x3b;" horiz-adv-x="245" d="M67 -89 L111 5 Q86 10 69.5 29.5 Q53 49 53 76 Q53 105 74 126 Q95 147 124 147 Q144 147 159.5 137.5 Q175 128 184 112.5 Q193 97 194 77.5 Q195 58 186 39 L114 -112 L67 -89 Z M51 367 Q51 397 72 418 Q93 439 123 439 Q152 439 173 418 Q194 397 194 367 Q194 338 173 317 Q152 296 123 296 Q93 296 72 317 Q51 338 51 367 Z " />
<glyph glyph-name="less" unicode="&#x3c;" horiz-adv-x="477" d="M306 512 L423 512 L427 501 L182 256 L427 11 L423 0 L306 0 L50 256 L306 512 Z " />
<glyph glyph-name="equal" unicode="&#x3d;" horiz-adv-x="612" d="M62 80 L62 178 L550 178 L550 80 L62 80 Z M62 335 L62 432 L550 432 L550 335 L62 335 Z " />
<glyph glyph-name="question" unicode="&#x3f;" horiz-adv-x="592" d="M213 348 L270 348 Q303 348 332 360.5 Q361 373 382.5 394.5 Q404 416 416.5 445 Q429 474 429 507 Q429 540 416.5 569 Q404 598 382.5 619.5 Q361 641 332 653.5 Q303 666 270 666 Q237 666 208 653.5 Q179 641 157.5 619.5 Q136 598 123.5 569 Q111 540 111 507 L9 507 Q9 561 29.5 609 Q50 657 85 692 Q120 727 168 747.5 Q216 768 270 768 Q324 768 372 747.5 Q420 727 455 692 Q490 657 510.5 609 Q531 561 531 507 Q531 453 510.5 405 Q490 357 455 322 Q420 287 372 266.5 Q324 246 270 246 L213 246 L213 348 Z M204 71 Q204 101 225.5 122 Q247 143 276 143 Q305 143 326 122 Q347 101 347 71 Q347 42 326 21 Q305 0 276 0 Q247 0 225.5 21 Q204 42 204 71 Z " />
<glyph glyph-name="at" unicode="&#x40;" horiz-adv-x="1133" d="M323 337 Q323 383 340.5 423.5 Q358 464 388.5 494 Q419 524 459.5 541.5 Q500 559 546 559 Q591 559 631 539 Q671 519 700 479 L710 547 L808 547 L784 331 Q776 253 802.5 219.5 Q829 186 872 186 Q894 186 913.5 198.5 Q933 211 947 238 Q961 265 968.5 307 Q976 349 975 407 Q974 480 945.5 540 Q917 600 865 643 Q813 686 740 710 Q667 734 576 734 Q480 734 402.5 704.5 Q325 675 270 621 Q215 567 185.5 491 Q156 415 158 322 Q159 251 186.5 184 Q214 117 269.5 66 Q325 15 408.5 -15.5 Q492 -46 605 -44 Q636 -43 668.5 -40 Q701 -37 736 -31 Q736 -54 736.5 -77.5 Q737 -101 737 -124 Q701 -130 668 -133.5 Q635 -137 601 -138 Q483 -141 383 -110.5 Q283 -80 209.5 -20 Q136 40 94 128.5 Q52 217 51 329 Q49 445 87.5 538.5 Q126 632 196 697.5 Q266 763 362.5 798.5 Q459 834 574 834 Q695 834 789 799.5 Q883 765 948 706.5 Q1013 648 1047 571 Q1081 494 1082 409 Q1083 323 1066.5 261.5 Q1050 200 1021 161 Q992 122 953.5 104 Q915 86 872 86 Q838 86 811 96 Q784 106 764 121.5 Q744 137 730.5 157 Q717 177 709 198 Q681 157 637 136.5 Q593 116 545 116 Q499 116 458.5 133 Q418 150 388 179.5 Q358 209 340.5 249.5 Q323 290 323 337 Z M427 337 Q427 277 462 243 Q497 209 554 209 Q612 209 648 244.5 Q684 280 684 337 Q684 362 674.5 385 Q665 408 648 426 Q631 444 607.5 454.5 Q584 465 555 465 Q526 465 502.5 454 Q479 443 462.5 425 Q446 407 436.5 384 Q427 361 427 337 Z " />
<glyph glyph-name="A" unicode="A" horiz-adv-x="722" d="M594 0 L534 149 L188 149 L127 0 L17 0 L309 735 L412 735 L705 0 L594 0 Z M361 595 L221 239 L501 239 L361 595 Z " />
<glyph glyph-name="B" unicode="B" horiz-adv-x="639" d="M83 0 L83 735 L351 735 Q396 735 434 719 Q472 703 499.5 675 Q527 647 543 609.5 Q559 572 559 529 Q559 486 539 447 Q519 408 484 385 Q537 359 568 311.5 Q599 264 599 209 Q599 166 583 128 Q567 90 539 61.5 Q511 33 472.5 16.5 Q434 0 390 0 L83 0 Z M182 93 L383 93 Q407 93 428 102 Q449 111 464.5 126.5 Q480 142 489 163 Q498 184 498 208 Q498 233 488.5 254.5 Q479 276 463 292 Q447 308 424.5 317 Q402 326 377 326 L182 326 L182 93 Z M181 418 L344 418 Q393 418 426 448.5 Q459 479 459 530 Q459 553 450.5 573.5 Q442 594 426.5 609 Q411 624 390 633 Q369 642 344 642 L181 642 L181 418 Z " />
<glyph glyph-name="C" unicode="C" horiz-adv-x="724" d="M151 367 Q151 308 172.5 257 Q194 206 231.5 168.5 Q269 131 320 110 Q371 89 429 89 Q486 89 535 111.5 Q584 134 623 171 L691 99 Q642 48 573.5 18.5 Q505 -11 424 -11 Q345 -11 276 18.5 Q207 48 156 99 Q105 150 75.5 219 Q46 288 46 367 Q46 447 75 516 Q104 585 155 636 Q206 687 275 716.5 Q344 746 424 746 Q505 746 573 716.5 Q641 687 691 636 L623 564 Q585 601 535.5 623 Q486 645 429 645 Q369 645 318.5 624 Q268 603 230.5 565.5 Q193 528 172 477 Q151 426 151 367 Z " />
<glyph glyph-name="D" unicode="D" horiz-adv-x="700" d="M90 0 L90 735 L297 735 Q373 735 439.5 706 Q506 677 556 627 Q606 577 635 510.5 Q664 444 664 368 Q664 292 635 225 Q606 158 556 108 Q506 58 439.5 29 Q373 0 297 0 L90 0 Z M196 637 L196 98 L291 98 Q348 98 397 119 Q446 140 482 176.5 Q518 213 538.5 262 Q559 311 559 368 Q559 425 538 474 Q517 523 481 559 Q445 595 396 616 Q347 637 291 637 L196 637 Z " />
<glyph glyph-name="E" unicode="E" horiz-adv-x="581" d="M90 735 L533 735 L533 644 L198 644 L198 416 L499 416 L499 327 L198 327 L198 91 L533 91 L533 0 L90 0 L90 735 Z " />
<glyph glyph-name="F" unicode="F" horiz-adv-x="556" d="M90 735 L522 735 L522 644 L196 644 L196 416 L488 416 L488 327 L196 327 L196 0 L90 0 L90 735 Z " />
<glyph glyph-name="G" unicode="G" horiz-adv-x="843" d="M147 368 Q147 309 169 258.5 Q191 208 229 170 Q267 132 317.5 110.5 Q368 89 425 89 Q480 89 527 104.5 Q574 120 609 150 Q644 180 665 223 Q686 266 690 321 L443 321 L443 416 L791 416 Q793 404 794 392 Q795 380 795 367 Q795 278 766 207.5 Q737 137 687 88.5 Q637 40 569.5 14.5 Q502 -11 426 -11 Q345 -11 275.5 18.5 Q206 48 155 99.5 Q104 151 75 220 Q46 289 46 368 Q46 448 74.5 516 Q103 584 153.5 633.5 Q204 683 273.5 711 Q343 739 425 739 Q501 739 567.5 712.5 Q634 686 685 638 L615 571 Q578 606 530.5 625.5 Q483 645 425 645 Q365 645 314 624 Q263 603 226 566.5 Q189 530 168 479 Q147 428 147 368 Z " />
<glyph glyph-name="H" unicode="H" horiz-adv-x="767" d="M83 0 L83 734 L191 734 L191 416 L575 416 L575 735 L684 735 L684 0 L575 0 L575 327 L191 327 L191 0 L83 0 Z " />
<glyph glyph-name="I" unicode="I" horiz-adv-x="475" d="M51 644 L51 735 L424 735 L424 644 L292 644 L292 91 L424 91 L424 0 L51 0 L51 91 L183 91 L183 644 L51 644 Z " />
<glyph glyph-name="J" unicode="J" horiz-adv-x="498" d="M127 188 Q127 168 134.5 150.5 Q142 133 155.5 119.5 Q169 106 186.5 98.5 Q204 91 224 91 Q244 91 261.5 98.5 Q279 106 292.5 119.5 Q306 133 313.5 150.5 Q321 168 321 188 L321 735 L422 735 L422 188 Q422 147 406.5 111 Q391 75 364 48 Q337 21 301 5.5 Q265 -10 224 -10 Q183 -10 147 5.5 Q111 21 84 48 Q57 75 41.5 111 Q26 147 26 188 L127 188 Z " />
<glyph glyph-name="K" unicode="K" horiz-adv-x="701" d="M186 327 L186 0 L83 0 L83 735 L186 735 L186 416 L355 416 L541 735 L657 735 L446 374 L661 0 L546 0 L359 327 L186 327 Z " />
<glyph glyph-name="L" unicode="L" horiz-adv-x="472" d="M452 0 L83 0 L83 735 L188 735 L188 91 L452 91 L452 0 Z " />
<glyph glyph-name="M" unicode="M" horiz-adv-x="874" d="M687 0 L687 507 L437 265 L187 507 L187 0 L83 0 L83 735 L93 739 L437 406 L780 739 L791 735 L791 0 L687 0 Z " />
<glyph glyph-name="N" unicode="N" horiz-adv-x="800" d="M613 735 L717 735 L717 5 L705 -1 L187 509 L187 0 L83 0 L83 730 L94 735 L613 225 L613 735 Z " />
<glyph glyph-name="O" unicode="O" horiz-adv-x="855" d="M48 368 Q48 446 78 515.5 Q108 585 159.5 636.5 Q211 688 280 718 Q349 748 427 748 Q506 748 575 718 Q644 688 695.5 636.5 Q747 585 777 515.5 Q807 446 807 368 Q807 290 777 220.5 Q747 151 695.5 99.5 Q644 48 575 18 Q506 -12 427 -12 Q349 -12 280 18 Q211 48 159.5 99.5 Q108 151 78 220.5 Q48 290 48 368 Z M154 368 Q154 312 175.5 262 Q197 212 234 175 Q271 138 321 116.5 Q371 95 427 95 Q484 95 533.5 116.5 Q583 138 620 175 Q657 212 678.5 262 Q700 312 700 368 Q700 424 678.5 474 Q657 524 620 561 Q583 598 533.5 619.5 Q484 641 427 641 Q371 641 321 619.5 Q271 598 234 561 Q197 524 175.5 474 Q154 424 154 368 Z " />
<glyph glyph-name="P" unicode="P" horiz-adv-x="608" d="M187 231 L187 0 L83 0 L83 735 L337 735 Q390 735 436.5 715.5 Q483 696 517 661.5 Q551 627 570.5 581 Q590 535 590 483 Q590 430 570.5 384.5 Q551 339 517 304.5 Q483 270 436.5 250.5 Q390 231 337 231 L187 231 Z M330 321 Q364 321 393.5 333.5 Q423 346 445 368 Q467 390 479.5 419.5 Q492 449 492 483 Q492 517 479.5 546.5 Q467 576 445 597.5 Q423 619 393.5 631.5 Q364 644 330 644 L187 644 L187 321 L330 321 Z " />
<glyph glyph-name="Q" unicode="Q" horiz-adv-x="853" d="M46 368 Q46 446 76 515.5 Q106 585 157.5 636.5 Q209 688 278.5 718 Q348 748 426 748 Q504 748 573 718 Q642 688 693.5 636.5 Q745 585 775 515.5 Q805 446 805 368 Q805 298 781 235.5 Q757 173 715 123.5 Q673 74 615.5 40.5 Q558 7 492 -4 L492 -19 Q492 -63 518.5 -92 Q545 -121 591 -121 Q639 -121 666 -94 Q693 -67 693 -19 L791 -19 Q791 -62 775.5 -98.5 Q760 -135 733 -162 Q706 -189 669.5 -204 Q633 -219 591 -219 Q549 -219 513 -203.5 Q477 -188 450.5 -161 Q424 -134 408.5 -97.5 Q393 -61 393 -19 L393 -9 Q320 -3 257 28.5 Q194 60 147 111 Q100 162 73 228 Q46 294 46 368 Z M153 368 Q153 312 174.5 262 Q196 212 233 175 Q270 138 320 116.5 Q370 95 426 95 Q482 95 532 116.5 Q582 138 619 175 Q656 212 677.5 262 Q699 312 699 368 Q699 424 677.5 474 Q656 524 619 561 Q582 598 532 619.5 Q482 641 426 641 Q370 641 320 619.5 Q270 598 233 561 Q196 524 174.5 474 Q153 424 153 368 Z " />
<glyph glyph-name="R" unicode="R" horiz-adv-x="671" d="M187 0 L83 0 L83 735 L393 735 Q441 735 483 717 Q525 699 556.5 667.5 Q588 636 606 594 Q624 552 624 504 Q624 432 587 377.5 Q550 323 489 295 L616 0 L506 0 L387 274 L187 274 L187 0 Z M382 364 Q412 364 438 375 Q464 386 482.5 405 Q501 424 512 449.5 Q523 475 523 504 Q523 533 512 558.5 Q501 584 482 603 Q463 622 437.5 633 Q412 644 382 644 L187 644 L187 364 L382 364 Z " />
<glyph glyph-name="S" unicode="S" horiz-adv-x="604" d="M317 -16 Q228 -16 159.5 17.5 Q91 51 54 100 L131 163 Q164 128 212 106 Q260 84 318 84 Q384 84 419.5 110.5 Q455 137 455 179 Q455 215 432.5 241.5 Q410 268 359 289 L219 348 Q131 386 91 436.5 Q51 487 51 556 Q51 598 69 634 Q87 670 119 696.5 Q151 723 196.5 737.5 Q242 752 297 752 Q359 752 406 732.5 Q453 713 485 681.5 Q517 650 533 610 Q549 570 549 530 L448 530 Q448 545 440 566.5 Q432 588 414 607.5 Q396 627 367.5 640.5 Q339 654 297 654 Q234 654 197 626 Q160 598 160 556 Q160 519 182.5 494.5 Q205 470 252 450 L394 388 Q482 350 523 299.5 Q564 249 564 179 Q564 131 544 94.5 Q524 58 490.5 33.5 Q457 9 412 -3.5 Q367 -16 317 -16 Z " />
<glyph glyph-name="T" unicode="T" horiz-adv-x="546" d="M528 734 L528 644 L325 644 L325 0 L221 0 L221 644 L18 644 L18 734 L528 734 Z " />
<glyph glyph-name="U" unicode="U" horiz-adv-x="763" d="M163 313 Q163 264 180 223 Q197 182 226 152 Q255 122 295 105.5 Q335 89 381 89 Q427 89 467.5 105.5 Q508 122 537 152 Q566 182 583 223 Q600 264 600 313 L600 735 L705 735 L705 313 Q705 246 680 187 Q655 128 611.5 84 Q568 40 508.5 14.5 Q449 -11 381 -11 Q313 -11 253.5 14.5 Q194 40 150.5 84 Q107 128 82 187 Q57 246 57 313 L57 735 L163 735 L163 313 Z " />
<glyph glyph-name="V" unicode="V" horiz-adv-x="703" d="M432 0 L271 0 L12 735 L122 735 L352 86 L582 735 L691 735 L432 0 Z " />
<glyph glyph-name="W" unicode="W" horiz-adv-x="917" d="M656 112 L666 112 L791 735 L898 735 L744 0 L585 0 L464 561 L453 561 L332 0 L173 0 L19 735 L127 735 L251 112 L261 112 L398 735 L519 735 L656 112 Z " />
<glyph glyph-name="X" unicode="X" horiz-adv-x="664" d="M139 0 L19 0 L270 386 L41 735 L161 735 L332 474 L502 735 L621 735 L393 386 L645 0 L526 0 L332 296 L139 0 Z " />
<glyph glyph-name="Y" unicode="Y" horiz-adv-x="577" d="M240 0 L240 212 L12 735 L123 735 L289 354 L455 735 L565 735 L338 212 L338 0 L240 0 Z " />
<glyph glyph-name="Z" unicode="Z" horiz-adv-x="614" d="M77 327 L77 416 L280 416 L423 644 L51 644 L51 735 L554 735 L569 709 L393 416 L537 416 L537 327 L342 327 L196 91 L563 91 L563 0 L60 0 L45 26 L229 327 L77 327 Z " />
<glyph glyph-name="bracketleft" unicode="&#x5b;" horiz-adv-x="411" d="M93 896 L349 896 L349 798 L192 798 L192 -30 L349 -30 L349 -128 L93 -128 L93 896 Z " />
<glyph glyph-name="bracketright" unicode="&#x5d;" horiz-adv-x="411" d="M349 -128 L93 -128 L93 -30 L251 -30 L251 798 L93 798 L93 896 L349 896 L349 -128 Z " />
<glyph glyph-name="asciicircum" unicode="&#x5e;" horiz-adv-x="372" d="M185 655 L95 564 L50 609 L186 745 L322 609 L277 564 L185 655 Z " />
<glyph glyph-name="underscore" unicode="&#x5f;" horiz-adv-x="612" d="M50 0 L50 98 L550 98 L550 0 L50 0 Z " />
<glyph glyph-name="a" unicode="a" horiz-adv-x="572" d="M402 88 Q380 46 334 18 Q288 -10 227 -10 Q184 -10 150 2.5 Q116 15 93 36.5 Q70 58 57.5 86.5 Q45 115 45 148 Q45 178 57 204.5 Q69 231 93.5 251.5 Q118 272 156 283.5 Q194 295 247 295 L402 295 L402 308 Q402 332 394.5 353.5 Q387 375 372 391.5 Q357 408 334.5 418 Q312 428 281 428 Q246 428 216 414.5 Q186 401 163 376 L97 433 Q130 469 177 493.5 Q224 518 281 519 Q335 519 375.5 502 Q416 485 443.5 455.5 Q471 426 485 388 Q499 350 499 308 L499 0 L402 0 L402 88 Z M145 148 Q145 115 173 94.5 Q201 74 246 74 Q274 74 302 84 Q330 94 352 112 Q374 130 388 156.5 Q402 183 402 216 L247 216 Q194 216 169.5 196.5 Q145 177 145 148 Z " />
<glyph glyph-name="b" unicode="b" horiz-adv-x="643" d="M591 256 Q591 203 572 156 Q553 109 519.5 74.5 Q486 40 440.5 20 Q395 0 341 0 Q290 0 248 22.5 Q206 45 182 77 L182 0 L83 0 L83 768 L182 768 L182 435 Q206 467 248.5 489.5 Q291 512 341 512 Q395 512 440.5 492 Q486 472 519.5 437.5 Q553 403 572 356 Q591 309 591 256 Z M164 256 Q164 221 176.5 191 Q189 161 211 138.5 Q233 116 262.5 103.5 Q292 91 327 91 Q361 91 391.5 103.5 Q422 116 444.5 138.5 Q467 161 480 191 Q493 221 493 256 Q493 291 480 321 Q467 351 444.5 373.5 Q422 396 391.5 409 Q361 422 327 422 Q292 422 262.5 409 Q233 396 211 373.5 Q189 351 176.5 321 Q164 291 164 256 Z " />
<glyph glyph-name="c" unicode="c" horiz-adv-x="534" d="M503 67 Q467 31 420.5 10.5 Q374 -10 316 -10 Q261 -10 212.5 11 Q164 32 128 68 Q92 104 71 152.5 Q50 201 50 256 Q50 311 71 359.5 Q92 408 128 444 Q164 480 212.5 501 Q261 522 316 522 Q376 522 424.5 499.5 Q473 477 508 440 L440 373 Q417 396 384.5 410 Q352 424 316 424 Q281 424 250.5 410.5 Q220 397 197 374.5 Q174 352 161 321 Q148 290 148 256 Q148 221 161 190.5 Q174 160 197 137 Q220 114 250.5 101 Q281 88 316 88 Q352 88 383 101 Q414 114 437 136 L503 67 Z " />
<glyph glyph-name="d" unicode="d" horiz-adv-x="643" d="M51 256 Q51 309 70 356 Q89 403 122.5 437.5 Q156 472 202 492 Q248 512 302 512 Q352 512 394.5 489.5 Q437 467 461 435 L461 768 L560 768 L560 0 L461 0 L461 77 Q437 45 395 22.5 Q353 0 302 0 Q248 0 202 20 Q156 40 122.5 74.5 Q89 109 70 156 Q51 203 51 256 Z M479 256 Q479 291 466.5 321 Q454 351 432 373.5 Q410 396 380 409 Q350 422 316 422 Q281 422 251 409 Q221 396 198.5 373.5 Q176 351 163 321 Q150 291 150 256 Q150 221 163 191 Q176 161 198.5 138.5 Q221 116 251 103.5 Q281 91 316 91 Q350 91 380 103.5 Q410 116 432 138.5 Q454 161 466.5 191 Q479 221 479 256 Z " />
<glyph glyph-name="e" unicode="e" horiz-adv-x="608" d="M566 252 Q566 244 565 233 Q564 222 562 215 L154 215 Q154 188 167 163.5 Q180 139 202 120.5 Q224 102 253 91.5 Q282 81 314 81 Q356 81 389.5 96 Q423 111 447 135 L519 77 Q481 35 428.5 12.5 Q376 -10 313 -10 Q265 -10 218.5 6.5 Q172 23 134.5 56.5 Q97 90 74 140 Q51 190 51 256 Q51 311 69.5 359.5 Q88 408 121.5 444 Q155 480 202 501 Q249 522 307 522 Q365 522 413 501 Q461 480 495 443.5 Q529 407 547.5 358 Q566 309 566 252 Z M308 433 Q272 433 243.5 421 Q215 409 195 389.5 Q175 370 164.5 345.5 Q154 321 154 295 L463 295 Q463 319 452 344 Q441 369 420.5 388.5 Q400 408 371.5 420.5 Q343 433 308 433 Z " />
<glyph glyph-name="f" unicode="f" horiz-adv-x="363" d="M292 675 Q259 675 237.5 652 Q216 629 216 590 L216 512 L346 512 L346 424 L216 424 L216 0 L117 0 L117 424 L34 424 L34 512 L117 512 L117 589 Q117 626 129.5 658.5 Q142 691 165.5 715.5 Q189 740 221 754 Q253 768 292 768 Q309 768 324.5 767 Q340 766 351 764 L351 675 L292 675 Z " />
<glyph glyph-name="g" unicode="g" horiz-adv-x="565" d="M74 333 Q74 375 90 412.5 Q106 450 133.5 478 Q161 506 198.5 522 Q236 538 279 538 Q321 538 357 522.5 Q393 507 420 479 Q449 496 479.5 504 Q510 512 546 512 L554 512 L554 424 L454 424 Q468 407 476 382.5 Q484 358 484 333 Q484 290 468 252.5 Q452 215 424 187.5 Q396 160 358.5 144 Q321 128 279 128 Q250 128 222 138 Q194 148 172 163 Q145 158 127.5 143 Q110 128 110 102 Q110 75 129 61 Q148 47 180 47 L341 47 Q432 47 481.5 6 Q531 -35 531 -107 Q531 -182 475 -224 Q419 -266 322 -266 Q269 -266 224 -251.5 Q179 -237 146 -212.5 Q113 -188 95 -154 Q77 -120 78 -81 L120 -46 Q72 -36 44 -2 Q16 32 18 80 Q19 125 47.5 159.5 Q76 194 118 207 Q98 233 86 265 Q74 297 74 333 Z M167 333 Q167 310 176 289.5 Q185 269 200 254 Q215 239 235.5 230 Q256 221 279 221 Q302 221 322 230 Q342 239 357 254 Q372 269 381 289.5 Q390 310 390 333 Q390 356 381 376 Q372 396 357 411 Q342 426 322 435 Q302 444 279 444 Q256 444 235.5 435 Q215 426 200 411 Q185 396 176 376 Q167 356 167 333 Z M322 -174 Q374 -174 402 -158 Q430 -142 430 -107 Q430 -80 408 -63 Q386 -46 341 -46 L160 -46 Q159 -73 171.5 -96 Q184 -119 205.5 -136.5 Q227 -154 257 -164 Q287 -174 322 -174 Z " />
<glyph glyph-name="h" unicode="h" horiz-adv-x="658" d="M593 0 L494 0 L494 266 Q494 298 482 326.5 Q470 355 449 376 Q428 397 399.5 409.5 Q371 422 339 422 Q307 422 279 409 Q251 396 229.5 374 Q208 352 195.5 322.5 Q183 293 183 260 L183 0 L83 0 L83 768 L183 768 L183 424 Q212 467 257 493.5 Q302 520 356 519 Q405 519 448 499 Q491 479 523 444.5 Q555 410 574 363.5 Q593 317 593 263 L593 0 Z " />
<glyph glyph-name="i" unicode="i" horiz-adv-x="286" d="M193 512 L193 0 L93 0 L93 512 L193 512 Z M73 708 Q73 737 93.5 757.5 Q114 778 143 778 Q172 778 192.5 757.5 Q213 737 213 708 Q213 679 192.5 658.5 Q172 638 143 638 Q114 638 93.5 658.5 Q73 679 73 708 Z " />
<glyph glyph-name="j" unicode="j" horiz-adv-x="286" d="M94 -251 L94 512 L192 512 L192 -251 L94 -251 Z M73 708 Q73 737 93.5 757.5 Q114 778 143 778 Q172 778 192.5 757.5 Q213 737 213 708 Q213 679 192.5 658.5 Q172 638 143 638 Q114 638 93.5 658.5 Q73 679 73 708 Z " />
<glyph glyph-name="k" unicode="k" horiz-adv-x="553" d="M182 768 L182 305 L291 305 L418 512 L527 512 L373 256 L527 0 L418 0 L291 207 L182 207 L182 0 L83 0 L83 768 L182 768 Z " />
<glyph glyph-name="l" unicode="l" horiz-adv-x="267" d="M83 0 L83 768 L184 768 L184 0 L83 0 Z " />
<glyph glyph-name="m" unicode="m" horiz-adv-x="954" d="M890 0 L787 0 L787 288 Q787 316 779 341 Q771 366 755.5 385 Q740 404 717 415 Q694 426 664 426 Q636 426 613 415 Q590 404 573.5 385 Q557 366 548 341 Q539 316 539 288 L539 0 L436 0 L436 288 Q436 315 427.5 339.5 Q419 364 402.5 383.5 Q386 403 363 414.5 Q340 426 310 426 Q281 426 257 414.5 Q233 403 216 382.5 Q199 362 190 335.5 Q181 309 181 279 L181 0 L83 0 L83 512 L181 512 L181 434 Q190 451 205.5 467 Q221 483 241 496 Q261 509 285 516.5 Q309 524 336 524 Q388 524 430 497.5 Q472 471 495 429 Q526 471 571.5 497.5 Q617 524 671 524 Q719 524 759.5 506 Q800 488 829 456 Q858 424 874 381 Q890 338 890 288 L890 0 Z " />
<glyph glyph-name="n" unicode="n" horiz-adv-x="652" d="M587 0 L489 0 L489 269 Q489 302 479 332 Q469 362 449.5 384 Q430 406 401.5 419 Q373 432 336 432 Q304 432 276 420 Q248 408 227.5 386 Q207 364 194.5 332.5 Q182 301 181 263 L181 0 L83 0 L83 512 L181 512 L181 427 Q192 444 209.5 461 Q227 478 250.5 491.5 Q274 505 301.5 513.5 Q329 522 359 522 Q408 522 450 503.5 Q492 485 522.5 451.5 Q553 418 570 370 Q587 322 587 264 L587 0 Z " />
<glyph glyph-name="o" unicode="o" horiz-adv-x="629" d="M50 256 Q50 311 70.5 359 Q91 407 127 443 Q163 479 211 499.5 Q259 520 314 520 Q369 520 417.5 499.5 Q466 479 502 443 Q538 407 558.5 359 Q579 311 579 256 Q579 201 558.5 152.5 Q538 104 502 68 Q466 32 417.5 11.5 Q369 -9 314 -9 Q259 -9 211 11.5 Q163 32 127 68 Q91 104 70.5 152.5 Q50 201 50 256 Z M147 256 Q147 220 160 189.5 Q173 159 195.5 136.5 Q218 114 248.5 101 Q279 88 314 88 Q349 88 380 101 Q411 114 433.5 136.5 Q456 159 469 189.5 Q482 220 482 256 Q482 291 469 322 Q456 353 433.5 375.5 Q411 398 380 411 Q349 424 314 424 Q279 424 248.5 411 Q218 398 195.5 375.5 Q173 353 160 322 Q147 291 147 256 Z " />
<glyph glyph-name="p" unicode="p" horiz-adv-x="641" d="M591 256 Q591 203 572 156 Q553 109 519.5 74.5 Q486 40 440.5 20 Q395 0 341 0 Q291 0 248.5 22.5 Q206 45 182 77 L182 -256 L83 -256 L83 512 L182 512 L182 434 Q206 467 248 489.5 Q290 512 341 512 Q395 512 440.5 492 Q486 472 519.5 437.5 Q553 403 572 356 Q591 309 591 256 Z M171 256 Q171 222 183.5 192.5 Q196 163 217.5 141 Q239 119 268 106.5 Q297 94 330 94 Q364 94 394 106.5 Q424 119 446 141 Q468 163 480.5 192.5 Q493 222 493 256 Q493 290 480.5 319.5 Q468 349 446 371 Q424 393 394 405.5 Q364 418 330 418 Q297 418 268 405.5 Q239 393 217.5 371 Q196 349 183.5 319.5 Q171 290 171 256 Z " />
<glyph glyph-name="q" unicode="q" horiz-adv-x="643" d="M51 256 Q51 309 70 356 Q89 403 122.5 437.5 Q156 472 202 492 Q248 512 302 512 Q353 512 395 489.5 Q437 467 461 434 L461 512 L560 512 L560 -256 L461 -256 L461 77 Q437 45 394.5 22.5 Q352 0 302 0 Q248 0 202 20 Q156 40 122.5 74.5 Q89 109 70 156 Q51 203 51 256 Z M472 256 Q472 290 459.5 319.5 Q447 349 425.5 371 Q404 393 375 405.5 Q346 418 313 418 Q279 418 249 405.5 Q219 393 197 371 Q175 349 162.5 319.5 Q150 290 150 256 Q150 222 162.5 192.5 Q175 163 197 141 Q219 119 249 106.5 Q279 94 313 94 Q346 94 375 106.5 Q404 119 425.5 141 Q447 163 459.5 192.5 Q472 222 472 256 Z " />
<glyph glyph-name="r" unicode="r" horiz-adv-x="369" d="M183 0 L83 0 L83 512 L169 512 L169 431 Q198 470 240 491 Q282 512 332 512 L359 512 L359 424 L332 424 Q299 424 272 413 Q245 402 225 382 Q205 362 194 335 Q183 308 183 275 L183 0 Z " />
<glyph glyph-name="s" unicode="s" horiz-adv-x="529" d="M153 375 Q153 333 216 315 L336 283 Q414 263 449 224 Q484 185 484 130 Q484 99 471.5 72.5 Q459 46 434 26.5 Q409 7 370.5 -4.5 Q332 -16 281 -16 Q242 -16 206.5 -8 Q171 0 141 14 Q111 28 88 46 Q65 64 51 85 L126 138 Q151 107 194.5 89.5 Q238 72 281 72 Q331 72 357 89 Q383 106 383 130 Q383 150 368.5 166 Q354 182 316 193 L205 223 Q127 244 90.5 282.5 Q54 321 54 375 Q54 405 67 432.5 Q80 460 106 481 Q132 502 170.5 514.5 Q209 527 259 527 Q305 527 344 513 Q383 499 411.5 476 Q440 453 456 421.5 Q472 390 472 356 L375 356 Q374 373 365 388.5 Q356 404 340.5 416 Q325 428 304.5 435.5 Q284 443 259 443 Q203 443 178 421.5 Q153 400 153 375 Z " />
<glyph glyph-name="t" unicode="t" horiz-adv-x="359" d="M128 0 L128 424 L10 424 L10 512 L128 512 L128 640 L228 640 L228 512 L346 512 L346 424 L228 424 L228 0 L128 0 Z " />
<glyph glyph-name="u" unicode="u" horiz-adv-x="652" d="M64 512 L163 512 L163 243 Q163 210 173 180 Q183 150 202.5 128 Q222 106 250.5 93 Q279 80 316 80 Q348 80 375.5 92 Q403 104 424 126 Q445 148 457.5 179.5 Q470 211 471 249 L471 512 L569 512 L569 0 L471 0 L471 85 Q460 68 442 51 Q424 34 401 20.5 Q378 7 350.5 -1.5 Q323 -10 293 -10 Q243 -10 201.5 8.5 Q160 27 129 60.5 Q98 94 81 141.5 Q64 189 64 248 L64 512 Z " />
<glyph glyph-name="v" unicode="v" horiz-adv-x="556" d="M281 91 L428 512 L539 512 L347 0 L208 0 L17 512 L128 512 L275 91 L281 91 Z " />
<glyph glyph-name="w" unicode="w" horiz-adv-x="783" d="M556 91 L561 91 L659 512 L765 512 L637 0 L490 0 L395 353 L387 353 L292 0 L144 0 L17 512 L122 512 L220 91 L225 91 L337 512 L444 512 L556 91 Z " />
<glyph glyph-name="x" unicode="x" horiz-adv-x="505" d="M488 0 L373 0 L252 170 L132 0 L17 0 L195 255 L17 512 L131 512 L252 340 L374 512 L488 512 L309 255 L488 0 Z " />
<glyph glyph-name="y" unicode="y" horiz-adv-x="571" d="M288 96 L443 512 L554 512 L335 -47 L335 -256 L237 -256 L237 -49 L17 512 L128 512 L283 96 L288 96 Z " />
<glyph glyph-name="z" unicode="z" horiz-adv-x="507" d="M457 88 L457 0 L60 0 L45 25 L312 424 L61 424 L61 512 L448 512 L462 487 L196 88 L457 88 Z " />
<glyph glyph-name="bar" unicode="&#x7c;" horiz-adv-x="289" d="M95 896 L194 896 L194 -128 L95 -128 L95 896 Z " />
<glyph glyph-name="cent" unicode="&#xa2;" horiz-adv-x="556" d="M150 256 Q150 223 162.5 194 Q175 165 196 144 Q217 123 246 110.5 Q275 98 308 98 Q348 98 378.5 114.5 Q409 131 432 157 L506 95 Q478 60 439.5 37 Q401 14 355 6 L357 6 L357 -128 L252 -128 L252 7 Q209 16 172 38.5 Q135 61 108 94 Q81 127 65.5 168 Q50 209 50 256 Q50 302 65.5 343.5 Q81 385 108 418 Q135 451 172 473.5 Q209 496 252 505 L252 640 L357 640 L357 506 L355 506 Q401 498 439.5 474.5 Q478 451 506 416 L432 355 Q409 381 378.5 397.5 Q348 414 308 414 Q275 414 246 401.5 Q217 389 196 368 Q175 347 162.5 318 Q150 289 150 256 Z " />
<glyph glyph-name="sterling" unicode="&#xa3;" horiz-adv-x="570" d="M48 422 L144 422 L144 576 Q144 616 159 651 Q174 686 200 712 Q226 738 261 753 Q296 768 336 768 Q376 768 411 753 Q446 738 472 712 Q498 686 513 651 Q528 616 528 576 L430 576 Q430 616 403 643.5 Q376 671 336 671 Q316 671 299 663.5 Q282 656 269.5 643 Q257 630 249.5 613 Q242 596 242 577 L242 422 L528 422 L528 332 L242 332 L242 90 L528 90 L528 0 L144 0 L144 332 L48 332 L48 422 Z " />
<glyph glyph-name="dieresis" unicode="&#xa8;" horiz-adv-x="446" d="M50 663 Q50 692 71 713 Q92 734 121 734 Q151 734 172 713 Q193 692 193 663 Q193 634 172 613 Q151 592 121 592 Q92 592 71 613 Q50 634 50 663 Z M253 663 Q253 692 274 713 Q295 734 324 734 Q354 734 375 713 Q396 692 396 663 Q396 634 375 613 Q354 592 324 592 Q295 592 274 613 Q253 634 253 663 Z " />
<glyph glyph-name="copyright" unicode="&#xa9;" horiz-adv-x="800" d="M30 359 Q30 436 59 503.5 Q88 571 138.5 621.5 Q189 672 256 701 Q323 730 399 730 Q476 730 543.5 701 Q611 672 661.5 621.5 Q712 571 741 503.5 Q770 436 770 359 Q770 283 741 216 Q712 149 661.5 98.5 Q611 48 543.5 19 Q476 -10 399 -10 Q323 -10 256 19 Q189 48 138.5 98.5 Q88 149 59 216 Q30 283 30 359 Z M100 359 Q100 297 123.5 242.5 Q147 188 187.5 147.5 Q228 107 282.5 83.5 Q337 60 399 60 Q462 60 516.5 83.5 Q571 107 612 147.5 Q653 188 676.5 242.5 Q700 297 700 359 Q700 422 676.5 476.5 Q653 531 612 572 Q571 613 516.5 636.5 Q462 660 399 660 Q337 660 282.5 636.5 Q228 613 187.5 572 Q147 531 123.5 476.5 Q100 422 100 359 Z M292 360 Q292 337 301 316.5 Q310 296 325 280.5 Q340 265 361 256 Q382 247 406 247 Q435 247 457 259 Q479 271 496 290 L548 245 Q523 214 486 195.5 Q449 177 405 177 Q367 177 333 191.5 Q299 206 274 230.5 Q249 255 234.5 288.5 Q220 322 220 360 Q220 401 234.5 435 Q249 469 274 493 Q299 517 333 530.5 Q367 544 405 544 Q449 544 486 526 Q523 508 548 476 L496 432 Q479 452 457 463.5 Q435 475 406 475 Q382 475 361 466.5 Q340 458 325 442.5 Q310 427 301 406 Q292 385 292 360 Z " />
<glyph glyph-name="macron" unicode="&#xaf;" horiz-adv-x="403" d="M353 592 L50 592 L50 654 L353 654 L353 592 Z " />
<glyph glyph-name="degree" unicode="&#xb0;" horiz-adv-x="348" d="M50 610 Q50 635 60 658 Q70 681 86.5 697.5 Q103 714 125.5 724 Q148 734 174 734 Q199 734 222 724 Q245 714 261.5 697.5 Q278 681 288 658 Q298 635 298 610 Q298 584 288 561.5 Q278 539 261.5 522.5 Q245 506 222 496 Q199 486 174 486 Q148 486 125.5 496 Q103 506 86.5 522.5 Q70 539 60 561.5 Q50 584 50 610 Z M121 610 Q121 587 136 572 Q151 557 174 557 Q197 557 211.5 572 Q226 587 226 610 Q226 633 211.5 647.5 Q197 662 174 662 Q151 662 136 647.5 Q121 633 121 610 Z " />
<glyph glyph-name="acute" unicode="&#xb4;" horiz-adv-x="286" d="M77 568 L50 595 L161 737 Q172 751 191 752 Q210 753 223 741 Q236 728 235 708.5 Q234 689 219 678 L77 568 Z " />
<glyph glyph-name="cedilla" unicode="&#xb8;" horiz-adv-x="264" d="M92 64 L144 64 L144 -4 Q173 -12 193.5 -36.5 Q214 -61 214 -96 Q214 -137 186 -164.5 Q158 -192 118 -192 Q98 -192 81 -184.5 Q64 -177 50 -164 L88 -128 Q102 -140 118 -140 Q136 -140 148.5 -127.5 Q161 -115 161 -96 Q161 -77 149 -64.5 Q137 -52 118 -52 Q98 -52 87 -65 L50 -28 Q68 -8 92 -4 L92 64 Z " />
<glyph glyph-name="multiply" unicode="&#xd7;" horiz-adv-x="511" d="M50 392 L119 462 L255 327 L391 462 L461 392 L326 256 L461 120 L392 50 L256 186 L120 50 L50 121 L185 257 L50 392 Z " />
<glyph glyph-name="germandbls" unicode="&#xdf;" horiz-adv-x="669" d="M523 375 Q571 355 600 311 Q629 267 629 212 Q629 173 615.5 135 Q602 97 572.5 67 Q543 37 497 18.5 Q451 0 385 0 L319 0 L319 91 L389 91 Q425 91 451.5 101 Q478 111 495 127.5 Q512 144 520.5 165.5 Q529 187 529 210 Q529 231 520.5 252 Q512 273 495 289.5 Q478 306 453 316.5 Q428 327 396 327 L319 327 L319 415 L392 415 Q417 415 438.5 424 Q460 433 476 449 Q492 465 500.5 486.5 Q509 508 509 533 Q509 560 500 585.5 Q491 611 472.5 631 Q454 651 424.5 663.5 Q395 676 353 676 Q315 676 285 663 Q255 650 234 627.5 Q213 605 202 573 Q191 541 191 504 L191 0 L87 0 L87 504 Q87 564 107 612.5 Q127 661 162 695.5 Q197 730 245 749 Q293 768 349 768 Q413 768 461.5 748.5 Q510 729 543 696.5 Q576 664 592.5 623 Q609 582 609 539 Q609 488 586 447 Q563 406 523 375 Z " />
<glyph glyph-name="divide" unicode="&#xf7;" horiz-adv-x="582" d="M50 207 L50 305 L532 305 L532 207 L50 207 Z M221 55 Q221 84 241.5 104.5 Q262 125 291 125 Q320 125 340.5 104.5 Q361 84 361 55 Q361 26 340.5 5.5 Q320 -15 291 -15 Q262 -15 241.5 5.5 Q221 26 221 55 Z M221 457 Q221 486 241.5 506.5 Q262 527 291 527 Q320 527 340.5 506.5 Q361 486 361 457 Q361 428 340.5 407 Q320 386 291 386 Q262 386 241.5 407 Q221 428 221 457 Z " />
<glyph glyph-name="circumflex" unicode="&#x2c6;" horiz-adv-x="372" d="M185 662 L87 564 L50 601 L186 737 L322 601 L284 564 L185 662 Z " />
<glyph glyph-name="caron" unicode="&#x2c7;" horiz-adv-x="372" d="M187 639 L284 737 L322 700 L186 564 L50 700 L87 737 L187 639 Z " />
<glyph glyph-name="breve" unicode="&#x2d8;" horiz-adv-x="334" d="M50 696 L112 696 L112 677 Q112 654 128 638 Q144 622 167 622 Q190 622 206 638 Q222 654 222 677 L222 696 L284 696 L284 681 Q284 657 275 635.5 Q266 614 250 598 Q234 582 212.5 573 Q191 564 167 564 Q143 564 121.5 573 Q100 582 84 598 Q68 614 59 635.5 Q50 657 50 681 L50 696 Z " />
<glyph glyph-name="dotaccent" unicode="&#x2d9;" horiz-adv-x="243" d="M50 663 Q50 692 71 713 Q92 734 121 734 Q151 734 172 713 Q193 692 193 663 Q193 634 172 613 Q151 592 121 592 Q92 592 71 613 Q50 634 50 663 Z " />
<glyph glyph-name="ring" unicode="&#x2da;" horiz-adv-x="292" d="M50 672 Q50 712 78 740 Q106 768 146 768 Q186 768 214 740 Q242 712 242 672 Q242 632 214 604 Q186 576 146 576 Q106 576 78 604 Q50 632 50 672 Z M102 672 Q102 653 114.5 640.5 Q127 628 146 628 Q165 628 177.5 640.5 Q190 653 190 672 Q190 691 177.5 703.5 Q165 716 146 716 Q127 716 114.5 703.5 Q102 691 102 672 Z " />
<glyph glyph-name="ogonek" unicode="&#x2db;" horiz-adv-x="342" d="M50 -70 Q50 -45 59.5 -22.5 Q69 0 85.5 17 Q102 34 124 43.5 Q146 53 171 53 L171 0 Q142 0 122.5 -20.5 Q103 -41 103 -70 Q103 -99 122.5 -119 Q142 -139 171 -139 Q199 -139 219 -119 Q239 -99 239 -70 L292 -70 Q292 -95 282.5 -117.5 Q273 -140 256.5 -156.5 Q240 -173 218 -182.5 Q196 -192 171 -192 Q146 -192 124 -182.5 Q102 -173 85.5 -156.5 Q69 -140 59.5 -117.5 Q50 -95 50 -70 Z " />
<glyph glyph-name="tilde" unicode="&#x2dc;" horiz-adv-x="414" d="M268 708 Q312 708 338 678 Q364 648 363 607 L307 607 Q307 629 296.5 642 Q286 655 268 655 Q253 655 241.5 645.5 Q230 636 217 624 Q204 612 187.5 602.5 Q171 593 146 593 Q101 593 75.5 622.5 Q50 652 50 693 L107 693 Q107 670 117 657.5 Q127 645 146 645 Q160 645 171.5 655 Q183 665 196 676.5 Q209 688 226 698 Q243 708 268 708 Z " />
<glyph glyph-name="endash" unicode="&#x2013;" horiz-adv-x="1124" d="M50 207 L50 305 L1074 305 L1074 207 L50 207 Z " />
<glyph glyph-name="emdash" unicode="&#x2014;" horiz-adv-x="1636" d="M50 305 L1586 305 L1586 207 L50 207 L50 305 Z " />
<glyph glyph-name="quotesinglbase" unicode="&#x201a;" horiz-adv-x="205" d="M47 23 L91 117 Q66 122 49.5 142 Q33 162 33 188 Q33 217 54 238 Q75 259 104 259 Q124 259 139.5 249.5 Q155 240 164 224.5 Q173 209 174 189.5 Q175 170 166 151 L94 0 L47 23 Z " />
<glyph glyph-name="quotedblleft" unicode="&#x201c;" horiz-adv-x="405" d="M358 712 L314 618 Q339 613 355.5 593.5 Q372 574 372 547 Q372 518 351 497 Q330 476 301 476 Q281 476 265.5 485.5 Q250 495 241 510.5 Q232 526 231 545.5 Q230 565 239 584 L311 735 L358 712 Z M158 712 L114 618 Q138 613 155 593.5 Q172 574 172 547 Q172 518 151 497 Q130 476 101 476 Q81 476 65.5 485.5 Q50 495 41 510.5 Q32 526 31 545.5 Q30 565 39 584 L110 735 L158 712 Z " />
<glyph glyph-name="quotedblbase" unicode="&#x201e;" horiz-adv-x="405" d="M47 23 L91 117 Q66 122 49.5 142 Q33 162 33 188 Q33 217 54 238 Q75 259 104 259 Q124 259 139.5 249.5 Q155 240 164 224.5 Q173 209 174 189.5 Q175 170 166 151 L94 0 L47 23 Z M247 23 L291 117 Q266 122 249.5 142 Q233 162 233 188 Q233 217 254 238 Q275 259 304 259 Q324 259 339.5 249.5 Q355 240 364 224.5 Q373 209 374 189.5 Q375 170 366 151 L294 0 L247 23 Z " />
<glyph glyph-name="bullet" unicode="&#x2022;" horiz-adv-x="243" d="M50 256 Q50 285 71 306 Q92 327 121 327 Q151 327 172 306 Q193 285 193 256 Q193 227 172 206 Q151 185 121 185 Q92 185 71 206 Q50 227 50 256 Z " />
<glyph glyph-name="minus" unicode="&#x2212;" horiz-adv-x="583" d="M50 207 L50 305 L533 305 L533 207 L50 207 Z " />
<glyph glyph-name="commaaccent" unicode="&#xf6c3;" horiz-adv-x="201" d="M60 -231 L93 -162 Q76 -158 64.5 -145 Q53 -132 53 -114 Q53 -93 67.5 -78.5 Q82 -64 102 -64 Q115 -64 126 -70.5 Q137 -77 143 -88 Q149 -99 149.5 -112.5 Q150 -126 144 -139 L93 -247 L60 -231 Z " />
<glyph glyph-name="longs" unicode="&#x17f;" horiz-adv-x="426" d="M398 625 Q398 659 374.5 684 Q351 709 315 709 Q280 709 256 686 Q232 663 232 625 L232 0 L134 0 L134 422 L37 422 L37 512 L134 512 L134 625 Q134 665 148.5 698.5 Q163 732 187.5 756.5 Q212 781 245 794.5 Q278 808 315 808 Q353 808 386 793.5 Q419 779 443.5 754 Q468 729 482 695.5 Q496 662 496 625 L398 625 Z " />
<glyph glyph-name="hungarumlaut" unicode="&#x2dd;" horiz-adv-x="471" d="M77 568 L50 595 L161 737 Q172 751 191 752 Q210 753 223 741 Q236 728 235 708.5 Q234 689 219 678 L77 568 Z M262 568 L235 595 L346 737 Q357 751 376 752 Q395 753 408 741 Q421 728 420 708.5 Q419 689 404 678 L262 568 Z " />
<glyph glyph-name="grave" unicode="&#x60;" horiz-adv-x="286" d="M66 678 Q52 689 51 708.5 Q50 728 63 741 Q76 753 95 752 Q114 751 125 737 L236 595 L208 568 L66 678 Z " />
<glyph glyph-name="AE" unicode="&#xc6;" horiz-adv-x="872" d="M823 644 L501 644 L501 415 L823 415 L823 325 L501 325 L501 91 L823 91 L823 0 L393 0 L393 149 L188 149 Q174 114 158 74.5 Q142 35 127 0 L17 0 L314 735 L823 735 L823 644 Z M393 239 L393 644 L380 644 L222 239 L393 239 Z " />
<glyph glyph-name="OE" unicode="&#x152;" horiz-adv-x="1004" d="M48 368 Q48 447 77.5 516 Q107 585 158.5 636.5 Q210 688 279.5 718 Q349 748 428 748 Q452 748 476 744.5 Q500 741 523 735 L955 735 L955 644 L630 644 L630 415 L955 415 L955 325 L630 325 L630 91 L955 91 L955 0 L523 0 Q500 -5 475.5 -8.5 Q451 -12 428 -12 Q349 -12 279.5 18 Q210 48 158.5 99.5 Q107 151 77.5 220.5 Q48 290 48 368 Z M428 642 Q371 642 321 620.5 Q271 599 234 561.5 Q197 524 175.5 474.5 Q154 425 154 368 Q154 311 175.5 261.5 Q197 212 234 174.5 Q271 137 321 115.5 Q371 94 428 94 Q450 94 474.5 98 Q499 102 521 110 L521 625 Q476 642 428 642 Z " />
<glyph glyph-name="eth" unicode="&#xf0;" horiz-adv-x="648" d="M579 243 Q579 190 559 143.5 Q539 97 504 62 Q469 27 422.5 7 Q376 -13 323 -13 Q270 -13 223.5 7 Q177 27 142 62 Q107 97 87 143.5 Q67 190 67 243 Q67 289 81.5 328 Q96 367 121 397.5 Q146 428 180 448.5 Q214 469 254 478 Q309 490 367 477 L302 589 L189 559 L173 617 L271 643 L205 758 L313 758 L366 668 L476 698 L492 640 L398 615 L528 396 Q549 361 564 323.5 Q579 286 579 243 Z M166 243 Q166 211 178.5 182.5 Q191 154 212.5 132.5 Q234 111 262.5 98.5 Q291 86 323 86 Q356 86 384.5 98.5 Q413 111 434 132.5 Q455 154 467.5 182.5 Q480 211 480 243 Q480 276 467 305 Q454 334 432.5 355 Q411 376 382 388 Q353 400 321 400 Q288 400 260 387.5 Q232 375 211 354 Q190 333 178 304.5 Q166 276 166 243 Z " />
<glyph glyph-name="quotedblright" unicode="&#x201d;" horiz-adv-x="405" d="M47 499 L91 593 Q66 598 49.5 618 Q33 638 33 664 Q33 693 54 714 Q75 735 104 735 Q124 735 139.5 725.5 Q155 716 164 700.5 Q173 685 174 665.5 Q175 646 166 627 L94 476 L47 499 Z M247 499 L291 593 Q266 598 249.5 618 Q233 638 233 664 Q233 693 254 714 Q275 735 304 735 Q324 735 339.5 725.5 Q355 716 364 700.5 Q373 685 374 665.5 Q375 646 366 627 L294 476 L247 499 Z " />
<glyph glyph-name="quoteright" unicode="&#x2019;" horiz-adv-x="205" d="M47 499 L91 593 Q66 598 49.5 618 Q33 638 33 664 Q33 693 54 714 Q75 735 104 735 Q124 735 139.5 725.5 Q155 716 164 700.5 Q173 685 174 665.5 Q175 646 166 627 L94 476 L47 499 Z " />
<glyph glyph-name="quoteleft" unicode="&#x2018;" horiz-adv-x="205" d="M158 712 L114 618 Q138 613 155 593.5 Q172 574 172 547 Q172 518 151 497 Q130 476 101 476 Q81 476 65.5 485.5 Q50 495 41 510.5 Q32 526 31 545.5 Q30 565 39 584 L110 735 L158 712 Z " />
<glyph glyph-name="questiondown" unicode="&#xbf;" horiz-adv-x="582" d="M348 420 L291 420 Q258 420 229 407.5 Q200 395 178.5 373.5 Q157 352 144.5 323 Q132 294 132 261 Q132 228 144.5 199 Q157 170 178.5 148.5 Q200 127 229 114.5 Q258 102 291 102 Q324 102 353 114.5 Q382 127 403.5 148.5 Q425 170 437.5 199 Q450 228 450 261 L552 261 Q552 207 531.5 159 Q511 111 476 76 Q441 41 393 20.5 Q345 0 291 0 Q237 0 189 20.5 Q141 41 106 76 Q71 111 50.5 159 Q30 207 30 261 Q30 315 50.5 363 Q71 411 106 446 Q141 481 189 501.5 Q237 522 291 522 L348 522 L348 420 Z M356 697 Q356 667 335 646 Q314 625 285 625 Q256 625 235 646 Q214 667 214 697 Q214 726 235 747 Q256 768 285 768 Q314 768 335 747 Q356 726 356 697 Z " />
<glyph glyph-name="exclamdown" unicode="&#xa1;" horiz-adv-x="344" d="M243 697 Q243 667 222 646 Q201 625 172 625 Q143 625 122 646 Q101 667 101 697 Q101 726 122 747 Q143 768 172 768 Q201 768 222 747 Q243 726 243 697 Z M223 525 L223 0 L122 0 L122 525 L223 525 Z " />
<glyph glyph-name="greater" unicode="&#x3e;" horiz-adv-x="477" d="M427 256 L171 0 L54 0 L50 11 L295 256 L50 501 L54 512 L171 512 L427 256 Z " />
<glyph glyph-name="guillemotleft" unicode="&#xab;" horiz-adv-x="795" d="M306 512 L423 512 L427 501 L182 256 L427 11 L423 0 L306 0 L50 256 L306 512 Z M624 512 L741 512 L745 501 L500 256 L745 11 L741 0 L624 0 L368 256 L624 512 Z " />
<glyph glyph-name="guilsinglleft" unicode="&#x2039;" horiz-adv-x="477" d="M306 512 L423 512 L427 501 L182 256 L427 11 L423 0 L306 0 L50 256 L306 512 Z " />
<glyph glyph-name="guilsinglright" unicode="&#x203a;" horiz-adv-x="477" d="M427 256 L171 0 L54 0 L50 11 L295 256 L50 501 L54 512 L171 512 L427 256 Z " />
<glyph glyph-name="estimated" unicode="&#x212e;" horiz-adv-x="602" d="M43 256 Q43 311 63.5 359.5 Q84 408 120 444 Q156 480 204.5 500.5 Q253 521 308 521 Q363 521 411.5 500.5 Q460 480 496 444 Q532 408 552.5 359.5 Q573 311 573 256 L207 256 L207 65 Q229 48 255 41 Q281 34 308 34 Q374 34 420 61.5 Q466 89 495 135 L544 135 Q512 69 449 30 Q386 -9 308 -9 Q253 -9 204.5 11.5 Q156 32 120 68 Q84 104 63.5 152.5 Q43 201 43 256 Z M207 295 L406 295 L406 447 Q384 463 359 470.5 Q334 478 308 478 Q281 478 255 470 Q229 462 207 445 L207 295 Z " />
<glyph glyph-name="backslash" unicode="&#x5c;" horiz-adv-x="265" d="M72 747 L264 -21 L162 -21 L-30 747 L72 747 Z " />
<glyph glyph-name="partialdiff" unicode="&#x2202;" horiz-adv-x="636" d="M602 242 Q602 189 582 142.5 Q562 96 527 61 Q492 26 445.5 6 Q399 -14 346 -14 Q293 -14 246.5 6 Q200 26 165 61 Q130 96 110 142.5 Q90 189 90 242 Q90 288 104.5 327 Q119 366 144 396 Q169 426 203 446.5 Q237 467 276 476 Q331 488 390 476 L228 754 L336 754 L551 395 Q572 360 587 322.5 Q602 285 602 242 Z M188 242 Q188 210 200.5 181.5 Q213 153 234.5 131.5 Q256 110 285 97.5 Q314 85 346 85 Q379 85 407.5 97.5 Q436 110 457 131.5 Q478 153 490.5 181.5 Q503 210 503 242 Q503 275 490 303.5 Q477 332 455.5 353 Q434 374 405 386 Q376 398 344 398 Q311 398 282.5 385.5 Q254 373 233 352 Q212 331 200 302.5 Q188 274 188 242 Z " />
<glyph glyph-name="braceleft" unicode="&#x7b;" horiz-adv-x="574" d="M420 -128 Q370 -128 326.5 -109 Q283 -90 251 -57 Q219 -24 201 20 Q183 64 183 114 L183 192 Q183 221 173 246.5 Q163 272 146 291 Q129 310 106 321.5 Q83 333 57 334 L52 334 L52 435 L57 435 Q111 438 147 475.5 Q183 513 183 574 L183 654 Q183 704 201 748 Q219 792 251 825 Q283 858 326.5 877 Q370 896 420 896 L420 795 Q391 795 366 784 Q341 773 322 754.5 Q303 736 292.5 710.5 Q282 685 282 656 L282 574 Q282 515 258.5 465 Q235 415 187 384 Q234 352 258 299.5 Q282 247 282 192 L282 112 Q282 83 292.5 57.5 Q303 32 322 13.5 Q341 -5 366 -16 Q391 -27 420 -27 L420 -128 Z " />
<glyph glyph-name="braceright" unicode="&#x7d;" horiz-adv-x="574" d="M52 -27 Q81 -27 106.5 -16 Q132 -5 150.5 13.5 Q169 32 180 57.5 Q191 83 191 112 L191 192 Q191 247 214.5 299.5 Q238 352 285 384 Q238 415 214.5 465 Q191 515 191 574 L191 656 Q191 685 180 710.5 Q169 736 150.5 754.5 Q132 773 106.5 784 Q81 795 52 795 L52 896 Q103 896 146 877 Q189 858 221 825 Q253 792 271 748 Q289 704 289 654 L289 574 Q289 513 325 475.5 Q361 438 416 435 L420 435 L420 334 L416 334 Q389 333 366 321.5 Q343 310 326 291 Q309 272 299 246.5 Q289 221 289 192 L289 114 Q289 64 271 20 Q253 -24 221 -57 Q189 -90 146 -109 Q103 -128 52 -128 L52 -27 Z " />
<glyph glyph-name="perthousand" unicode="&#x2030;" horiz-adv-x="804" d="M543 678 L157 90 L50 90 L436 678 L543 678 Z M384 161 Q384 191 405 212 Q426 233 455 233 Q484 233 505 212 Q526 191 526 161 Q526 132 505 111 Q484 90 455 90 Q426 90 405 111 Q384 132 384 161 Z M54 607 Q54 636 75 657 Q96 678 125 678 Q154 678 175 657 Q196 636 196 607 Q196 577 175 556 Q154 535 125 535 Q96 535 75 556 Q54 577 54 607 Z M584 161 Q584 191 605 212 Q626 233 655 233 Q684 233 705 212 Q726 191 726 161 Q726 132 705 111 Q684 90 655 90 Q626 90 605 111 Q584 132 584 161 Z " />
<glyph glyph-name="registered" unicode="&#xae;" horiz-adv-x="800" d="M30 359 Q30 436 59 503.5 Q88 571 138.5 621.5 Q189 672 256 701 Q323 730 399 730 Q476 730 543.5 701 Q611 672 661.5 621.5 Q712 571 741 503.5 Q770 436 770 359 Q770 283 741 216 Q712 149 661.5 98.5 Q611 48 543.5 19 Q476 -10 399 -10 Q323 -10 256 19 Q189 48 138.5 98.5 Q88 149 59 216 Q30 283 30 359 Z M100 359 Q100 297 123.5 242.5 Q147 188 187.5 147.5 Q228 107 282.5 83.5 Q337 60 399 60 Q462 60 516.5 83.5 Q571 107 612 147.5 Q653 188 676.5 242.5 Q700 297 700 359 Q700 422 676.5 476.5 Q653 531 612 572 Q571 613 516.5 636.5 Q462 660 399 660 Q337 660 282.5 636.5 Q228 613 187.5 572 Q147 531 123.5 476.5 Q100 422 100 359 Z M337 188 L276 188 L276 548 L428 548 Q452 548 472.5 539 Q493 530 508 515 Q523 500 532 479.5 Q541 459 541 435 Q541 400 523 373 Q505 346 475 332 L537 188 L473 188 L414 322 L337 322 L337 188 Z M421 375 Q447 375 465 392 Q483 409 483 435 Q483 460 465.5 477 Q448 494 423 494 L337 494 L337 375 L421 375 Z " />
<glyph glyph-name="exclam" unicode="&#x21;" horiz-adv-x="344" d="M101 71 Q101 101 122 122 Q143 143 172 143 Q201 143 222 122 Q243 101 243 71 Q243 42 222 21 Q201 0 172 0 Q143 0 122 21 Q101 42 101 71 Z M122 243 L122 768 L223 768 L223 243 L122 243 Z " />
<glyph glyph-name="asciitilde" unicode="&#x7e;" horiz-adv-x="571" d="M373 336 Q405 336 431 324 Q457 312 475.5 292 Q494 272 504 245 Q514 218 514 188 L434 188 Q434 222 417.5 242 Q401 262 373 262 Q350 262 333 247 Q316 232 297 214 Q278 196 253.5 181 Q229 166 193 166 Q160 166 134 177.5 Q108 189 89.5 209.5 Q71 230 61 257 Q51 284 51 314 L131 314 Q131 279 147.5 259.5 Q164 240 193 240 Q214 240 231 255 Q248 270 267.5 288 Q287 306 311.5 321 Q336 336 373 336 Z " />
<glyph glyph-name="dagger" unicode="&#x2020;" horiz-adv-x="580" d="M50 527 L50 625 L238 625 L238 832 L343 832 L343 625 L530 625 L530 527 L343 527 L343 -128 L238 -128 L238 527 L50 527 Z " />
<glyph glyph-name="brokenbar" unicode="&#xa6;" horiz-adv-x="289" d="M95 320 L194 320 L194 -128 L95 -128 L95 320 Z M194 448 L95 448 L95 896 L194 896 L194 448 Z " />
<glyph glyph-name="trademark" unicode="&#x2122;" horiz-adv-x="536" d="M163 768 L197 768 L238 714 L279 768 L311 768 L311 652 L279 652 L279 722 L238 667 L197 722 L197 652 L163 652 L163 768 Z M37 768 L144 768 L144 738 L106 738 L106 652 L74 652 L74 738 L37 738 L37 768 Z " />
<glyph glyph-name="Euro" unicode="&#x20ac;" horiz-adv-x="730" d="M-32 417 L-32 514 L82 514 Q103 565 137 608 Q171 651 216 681.5 Q261 712 315.5 729 Q370 746 431 746 Q512 746 579.5 716.5 Q647 687 698 636 L629 564 Q591 601 541.5 623 Q492 645 435 645 Q357 645 296.5 609.5 Q236 574 202 514 L435 514 L435 417 L161 417 Q157 394 157 367 Q157 340 161 320 L435 320 L435 222 L202 222 Q235 161 297 125 Q359 89 435 89 Q492 89 541.5 111.5 Q591 134 630 171 L698 99 Q648 48 580 18.5 Q512 -11 431 -11 Q371 -11 316.5 6 Q262 23 217 53.5 Q172 84 137.5 127 Q103 170 82 222 L-32 222 L-32 320 L56 320 Q53 342 53 367 Q53 391 56 417 L-32 417 Z " />
<glyph glyph-name="kgreenlandic" unicode="&#x138;" horiz-adv-x="581" d="M182 291 L299 291 Q325 291 347.5 300.5 Q370 310 387 327 Q404 344 414 367 Q424 390 424 416 L424 512 L523 512 L523 416 Q523 350 487 295 Q451 240 392 215 L534 0 L422 0 L292 194 L182 194 L182 0 L83 0 L83 512 L182 512 L182 291 Z " />
<glyph glyph-name="threequartersemdash" unicode="&#xf6de;" horiz-adv-x="1636" d="M50 305 L1586 305 L1586 207 L50 207 L50 305 Z " />
<glyph glyph-name="lira" unicode="&#x20a4;" horiz-adv-x="570" d="M48 300 L144 300 L144 403 L48 403 L48 493 L144 493 L144 576 Q144 616 159 651 Q174 686 200 712 Q226 738 261 753 Q296 768 336 768 Q376 768 411 753 Q446 738 472 712 Q498 686 513 651 Q528 616 528 576 L430 576 Q430 616 403 643.5 Q376 671 336 671 Q316 671 299 663.5 Q282 656 269.5 643 Q257 630 249.5 613 Q242 596 242 577 L242 493 L528 493 L528 403 L242 403 L242 300 L528 300 L528 210 L242 210 L242 90 L528 90 L528 0 L144 0 L144 210 L48 210 L48 300 Z " />
<glyph glyph-name="yen" unicode="&#xa5;" horiz-adv-x="593" d="M53 252 L53 350 L190 350 L19 735 L130 735 L296 354 L462 735 L572 735 L402 350 L541 350 L541 252 L345 252 L345 188 L541 188 L541 91 L345 91 L345 0 L247 0 L247 91 L53 91 L53 188 L247 188 L247 252 L53 252 Z " />
<glyph glyph-name="ae" unicode="&#xe6;" horiz-adv-x="950" d="M911 252 Q911 244 910 233 Q909 222 907 215 L499 215 Q499 188 512 163.5 Q525 139 547 120.5 Q569 102 598 91.5 Q627 81 659 81 Q700 81 733.5 96 Q767 111 792 135 L863 77 Q825 35 773 12.5 Q721 -10 658 -10 Q595 -10 536.5 19.5 Q478 49 444 107 Q406 45 350.5 17.5 Q295 -10 238 -10 Q194 -10 158 2.5 Q122 15 97 36 Q72 57 58.5 86 Q45 115 45 148 Q45 178 57 204.5 Q69 231 94 251 Q119 271 157 283 Q195 295 247 295 L402 295 L402 308 Q402 332 394.5 353.5 Q387 375 372 391.5 Q357 408 334.5 418 Q312 428 281 428 Q244 428 216 412.5 Q188 397 163 369 L97 426 Q112 445 132.5 462 Q153 479 177 491.5 Q201 504 227.5 511.5 Q254 519 281 519 Q345 519 390 493 Q435 467 460 425 Q489 467 538.5 494.5 Q588 522 651 522 Q710 522 758 501 Q806 480 840 443.5 Q874 407 892.5 358 Q911 309 911 252 Z M653 433 Q617 433 588.5 421.5 Q560 410 540 390.5 Q520 371 509.5 346 Q499 321 499 295 L808 295 Q808 319 797 344 Q786 369 765.5 388.5 Q745 408 716.5 420.5 Q688 433 653 433 Z M145 148 Q145 115 173 94.5 Q201 74 246 74 Q274 74 302 84 Q330 94 352 112 Q374 130 388 156.5 Q402 183 402 216 L247 216 Q194 216 169.5 196.5 Q145 177 145 148 Z " />
<glyph glyph-name="oe" unicode="&#x153;" horiz-adv-x="1044" d="M51 256 Q51 311 71.5 359 Q92 407 128 443 Q164 479 212.5 499.5 Q261 520 316 520 Q384 520 440 487.5 Q496 455 529 395 Q561 455 614.5 488.5 Q668 522 740 522 Q798 522 846 501 Q894 480 928 443.5 Q962 407 980.5 358 Q999 309 999 252 Q999 244 998 233 Q997 222 995 215 L587 215 Q587 189 599.5 165 Q612 141 633.5 122.5 Q655 104 684.5 92.5 Q714 81 747 81 Q789 81 822.5 96 Q856 111 880 135 L951 77 Q913 35 861 12.5 Q809 -10 746 -10 Q715 -10 684 -2.5 Q653 5 624.5 20.5 Q596 36 572 60 Q548 84 530 116 Q495 56 439 23.5 Q383 -9 316 -9 Q261 -9 212.5 11.5 Q164 32 128 68 Q92 104 71.5 152.5 Q51 201 51 256 Z M149 256 Q149 222 162.5 191.5 Q176 161 198.5 138.5 Q221 116 251.5 102.5 Q282 89 316 89 Q350 89 380.5 102.5 Q411 116 433.5 138.5 Q456 161 469.5 191.5 Q483 222 483 256 Q483 290 469.5 320.5 Q456 351 433.5 373.5 Q411 396 380.5 409.5 Q350 423 316 423 Q282 423 251.5 409.5 Q221 396 198.5 373.5 Q176 351 162.5 320.5 Q149 290 149 256 Z M741 433 Q705 433 676.5 421 Q648 409 628 389.5 Q608 370 597.5 345.5 Q587 321 587 295 L896 295 Q896 319 885 344 Q874 369 853.5 388.5 Q833 408 804.5 420.5 Q776 433 741 433 Z " />
<glyph glyph-name="Oslash" unicode="&#xd8;" horiz-adv-x="852" d="M46 368 Q46 446 76 515.5 Q106 585 157.5 636.5 Q209 688 278.5 718 Q348 748 426 748 Q491 748 549.5 727 Q608 706 656 668 L722 734 L791 665 L725 599 Q763 551 784 492.5 Q805 434 805 368 Q805 290 775 220.5 Q745 151 693.5 99.5 Q642 48 573 18 Q504 -12 426 -12 Q360 -12 301 9 Q242 30 194 68 L130 4 L60 73 L125 137 Q87 185 66.5 243.5 Q46 302 46 368 Z M426 95 Q482 95 532 116.5 Q582 138 619 175 Q656 212 677.5 262 Q699 312 699 368 Q699 411 685.5 450.5 Q672 490 648 522 L271 145 Q303 121 342.5 108 Q382 95 426 95 Z M153 368 Q153 325 166 286 Q179 247 202 215 L578 591 Q546 614 507 627.5 Q468 641 426 641 Q370 641 320 619.5 Q270 598 233 561 Q196 524 174.5 474 Q153 424 153 368 Z " />
<glyph glyph-name="oslash" unicode="&#xf8;" horiz-adv-x="629" d="M50 256 Q50 311 70.5 359 Q91 407 127 443 Q163 479 211 499.5 Q259 520 314 520 Q359 520 398.5 506.5 Q438 493 471 469 L514 511 L570 455 L527 413 Q551 380 565 340.5 Q579 301 579 256 Q579 201 558.5 152.5 Q538 104 502 68 Q466 32 417.5 11.5 Q369 -9 314 -9 Q269 -9 229.5 4.5 Q190 18 158 43 L115 1 L59 57 L102 99 Q77 131 63.5 171 Q50 211 50 256 Z M314 88 Q349 88 380 101 Q411 114 433.5 136.5 Q456 159 469 189.5 Q482 220 482 256 Q482 279 474.5 301 Q467 323 456 341 L228 113 Q267 88 314 88 Z M147 256 Q147 232 154 210 Q161 188 173 170 L400 398 Q382 410 360 417 Q338 424 314 424 Q279 424 248.5 411 Q218 398 195.5 375.5 Q173 353 160 322 Q147 291 147 256 Z " />
<glyph glyph-name="ellipsis" unicode="&#x2026;" horiz-adv-x="822" d="M66 71 Q66 101 87 122 Q108 143 137 143 Q166 143 187 122 Q208 101 208 71 Q208 42 187 21 Q166 0 137 0 Q108 0 87 21 Q66 42 66 71 Z M340 71 Q340 101 361 122 Q382 143 411 143 Q440 143 461 122 Q482 101 482 71 Q482 42 461 21 Q440 0 411 0 Q382 0 361 21 Q340 42 340 71 Z M614 71 Q614 101 635 122 Q656 143 685 143 Q714 143 735 122 Q756 101 756 71 Q756 42 735 21 Q714 0 685 0 Q656 0 635 21 Q614 42 614 71 Z " />
<glyph glyph-name="guillemotright" unicode="&#xbb;" horiz-adv-x="795" d="M745 256 L489 0 L372 0 L368 11 L613 256 L368 501 L372 512 L489 512 L745 256 Z M427 256 L171 0 L54 0 L50 11 L295 256 L50 501 L54 512 L171 512 L427 256 Z " />
<glyph glyph-name="paragraph" unicode="&#xb6;" horiz-adv-x="848" d="M273 231 Q220 231 173.5 250.5 Q127 270 93 304.5 Q59 339 39.5 384.5 Q20 430 20 483 Q20 535 39.5 581 Q59 627 93 661.5 Q127 696 173.5 715.5 Q220 735 273 735 L768 735 L768 0 L660 0 L660 644 L527 644 L527 0 L423 0 L423 231 L273 231 Z M423 321 L423 644 L280 644 Q246 644 216.5 631.5 Q187 619 165.5 597.5 Q144 576 131.5 546.5 Q119 517 119 483 Q119 449 131.5 419.5 Q144 390 165.5 368 Q187 346 216.5 333.5 Q246 321 280 321 L423 321 Z " />
<glyph glyph-name="Aacute" unicode="&#xc1;" horiz-adv-x="722" d="M594 0 L534 149 L188 149 L127 0 L17 0 L309 735 L412 735 L705 0 L594 0 Z M361 595 L221 239 L501 239 L361 595 Z M373 791 L346 818 L457 960 Q468 974 487 975 Q506 976 519 964 Q532 951 531 931.5 Q530 912 515 901 L373 791 Z " />
<glyph glyph-name="Abreve" unicode="&#x102;" horiz-adv-x="722" d="M594 0 L534 149 L188 149 L127 0 L17 0 L309 735 L412 735 L705 0 L594 0 Z M361 595 L221 239 L501 239 L361 595 Z M244 919 L306 919 L306 900 Q306 877 322 861 Q338 845 361 845 Q384 845 399.5 861 Q415 877 415 900 L415 919 L478 919 L478 904 Q478 880 469 858.5 Q460 837 444 821 Q428 805 406.5 796 Q385 787 361 787 Q337 787 315.5 796 Q294 805 278 821 Q262 837 253 858.5 Q244 880 244 904 L244 919 Z " />
<glyph glyph-name="Acircumflex" unicode="&#xc2;" horiz-adv-x="722" d="M594 0 L534 149 L188 149 L127 0 L17 0 L309 735 L412 735 L705 0 L594 0 Z M361 595 L221 239 L501 239 L361 595 Z M360 885 L262 787 L225 824 L361 960 L497 824 L459 787 L360 885 Z " />
<glyph glyph-name="Agrave" unicode="&#xc0;" horiz-adv-x="722" d="M594 0 L534 149 L188 149 L127 0 L17 0 L309 735 L412 735 L705 0 L594 0 Z M361 595 L221 239 L501 239 L361 595 Z M206 901 Q192 912 191 931.5 Q190 951 203 964 Q216 976 235 975 Q254 974 265 960 L376 818 L348 791 L206 901 Z " />
<glyph glyph-name="Adieresis" unicode="&#xc4;" horiz-adv-x="722" d="M594 0 L534 149 L188 149 L127 0 L17 0 L309 735 L412 735 L705 0 L594 0 Z M361 595 L221 239 L501 239 L361 595 Z M188 886 Q188 915 209 936 Q230 957 259 957 Q289 957 310 936 Q331 915 331 886 Q331 857 310 836 Q289 815 259 815 Q230 815 209 836 Q188 857 188 886 Z M391 886 Q391 915 412 936 Q433 957 462 957 Q492 957 513 936 Q534 915 534 886 Q534 857 513 836 Q492 815 462 815 Q433 815 412 836 Q391 857 391 886 Z " />
<glyph glyph-name="Amacron" unicode="&#x100;" horiz-adv-x="722" d="M594 0 L534 149 L188 149 L127 0 L17 0 L309 735 L412 735 L705 0 L594 0 Z M361 595 L221 239 L501 239 L361 595 Z M512 815 L209 815 L209 877 L512 877 L512 815 Z " />
<glyph glyph-name="Aogonek" unicode="&#x104;" horiz-adv-x="722" d="M473 -70 Q473 -23 502 10 Q531 43 573 50 L534 149 L188 149 L127 0 L17 0 L309 735 L412 735 L705 0 L594 0 Q565 0 545.5 -20.5 Q526 -41 526 -70 Q526 -99 545.5 -119 Q565 -139 594 -139 Q622 -139 642 -119 Q662 -99 662 -70 L715 -70 Q715 -95 705.5 -117.5 Q696 -140 679.5 -156.5 Q663 -173 641 -182.5 Q619 -192 594 -192 Q569 -192 547 -182.5 Q525 -173 508.5 -156.5 Q492 -140 482.5 -117.5 Q473 -95 473 -70 Z M361 595 L221 239 L501 239 L361 595 Z " />
<glyph glyph-name="Aring" unicode="&#xc5;" horiz-adv-x="722" d="M594 0 L534 149 L188 149 L127 0 L17 0 L309 735 L412 735 L705 0 L594 0 Z M361 595 L221 239 L501 239 L361 595 Z M265 895 Q265 935 293 963 Q321 991 361 991 Q401 991 429 963 Q457 935 457 895 Q457 855 429 827 Q401 799 361 799 Q321 799 293 827 Q265 855 265 895 Z M317 895 Q317 876 329.5 863.5 Q342 851 361 851 Q379 851 392 863.5 Q405 876 405 895 Q405 914 392 926.5 Q379 939 361 939 Q342 939 329.5 926.5 Q317 914 317 895 Z " />
<glyph glyph-name="Atilde" unicode="&#xc3;" horiz-adv-x="722" d="M594 0 L534 149 L188 149 L127 0 L17 0 L309 735 L412 735 L705 0 L594 0 Z M361 595 L221 239 L501 239 L361 595 Z M421 931 Q465 931 491.5 901 Q518 871 517 830 L461 830 Q461 852 450 865 Q439 878 421 878 Q406 878 394.5 868.5 Q383 859 370.5 847 Q358 835 341.5 825.5 Q325 816 300 816 Q255 816 229.5 845.5 Q204 875 204 916 L260 916 Q260 893 270.5 880.5 Q281 868 300 868 Q314 868 325.5 878 Q337 888 350 899.5 Q363 911 379.5 921 Q396 931 421 931 Z " />
<glyph glyph-name="AEacute" unicode="&#x1fc;" horiz-adv-x="872" d="M823 644 L501 644 L501 415 L823 415 L823 325 L501 325 L501 91 L823 91 L823 0 L393 0 L393 149 L188 149 Q174 114 158 74.5 Q142 35 127 0 L17 0 L314 735 L823 735 L823 644 Z M393 239 L393 644 L380 644 L222 239 L393 239 Z M448 791 L421 818 L532 960 Q543 974 562 975 Q581 976 594 964 Q607 951 606 931.5 Q605 912 590 901 L448 791 Z " />
<glyph glyph-name="Cacute" unicode="&#x106;" horiz-adv-x="724" d="M151 367 Q151 308 172.5 257 Q194 206 231.5 168.5 Q269 131 320 110 Q371 89 429 89 Q486 89 535 111.5 Q584 134 623 171 L691 99 Q642 48 573.5 18.5 Q505 -11 424 -11 Q345 -11 276 18.5 Q207 48 156 99 Q105 150 75.5 219 Q46 288 46 367 Q46 447 75 516 Q104 585 155 636 Q206 687 275 716.5 Q344 746 424 746 Q505 746 573 716.5 Q641 687 691 636 L623 564 Q585 601 535.5 623 Q486 645 429 645 Q369 645 318.5 624 Q268 603 230.5 565.5 Q193 528 172 477 Q151 426 151 367 Z M374 791 L347 818 L458 960 Q469 974 488 975 Q507 976 520 964 Q533 951 532 931.5 Q531 912 517 901 L374 791 Z " />
<glyph glyph-name="Ccaron" unicode="&#x10c;" horiz-adv-x="724" d="M151 367 Q151 308 172.5 257 Q194 206 231.5 168.5 Q269 131 320 110 Q371 89 429 89 Q486 89 535 111.5 Q584 134 623 171 L691 99 Q642 48 573.5 18.5 Q505 -11 424 -11 Q345 -11 276 18.5 Q207 48 156 99 Q105 150 75.5 219 Q46 288 46 367 Q46 447 75 516 Q104 585 155 636 Q206 687 275 716.5 Q344 746 424 746 Q505 746 573 716.5 Q641 687 691 636 L623 564 Q585 601 535.5 623 Q486 645 429 645 Q369 645 318.5 624 Q268 603 230.5 565.5 Q193 528 172 477 Q151 426 151 367 Z M416 862 L514 960 L551 923 L415 787 L279 923 L317 960 L416 862 Z " />
<glyph glyph-name="Ccedilla" unicode="&#xc7;" horiz-adv-x="724" d="M151 367 Q151 308 172.5 257 Q194 206 231.5 168.5 Q269 131 320 110 Q371 89 429 89 Q486 89 535 111.5 Q584 134 623 171 L691 99 Q645 51 582 22.5 Q519 -6 446 -10 L446 -48 Q475 -56 495.5 -80.5 Q516 -105 516 -140 Q516 -181 488 -208.5 Q460 -236 420 -236 Q400 -236 383 -228.5 Q366 -221 352 -208 L389 -172 Q403 -184 420 -184 Q438 -184 450.5 -171.5 Q463 -159 463 -140 Q463 -121 450.5 -108.5 Q438 -96 419 -96 Q401 -96 388 -109 L352 -72 Q368 -53 394 -48 L394 -9 Q320 -3 256 28 Q192 59 145.5 109 Q99 159 72.5 225.5 Q46 292 46 367 Q46 447 75 516 Q104 585 155 636 Q206 687 275 716.5 Q344 746 424 746 Q505 746 573 716.5 Q641 687 691 636 L623 564 Q585 601 535.5 623 Q486 645 429 645 Q369 645 318.5 624 Q268 603 230.5 565.5 Q193 528 172 477 Q151 426 151 367 Z " />
<glyph glyph-name="Ccircumflex" unicode="&#x108;" horiz-adv-x="724" d="M151 367 Q151 308 172.5 257 Q194 206 231.5 168.5 Q269 131 320 110 Q371 89 429 89 Q486 89 535 111.5 Q584 134 623 171 L691 99 Q642 48 573.5 18.5 Q505 -11 424 -11 Q345 -11 276 18.5 Q207 48 156 99 Q105 150 75.5 219 Q46 288 46 367 Q46 447 75 516 Q104 585 155 636 Q206 687 275 716.5 Q344 746 424 746 Q505 746 573 716.5 Q641 687 691 636 L623 564 Q585 601 535.5 623 Q486 645 429 645 Q369 645 318.5 624 Q268 603 230.5 565.5 Q193 528 172 477 Q151 426 151 367 Z M421 885 L324 787 L286 824 L422 960 L558 824 L521 787 L421 885 Z " />
<glyph glyph-name="Cdotaccent" unicode="&#x10a;" horiz-adv-x="724" d="M151 367 Q151 308 172.5 257 Q194 206 231.5 168.5 Q269 131 320 110 Q371 89 429 89 Q486 89 535 111.5 Q584 134 623 171 L691 99 Q642 48 573.5 18.5 Q505 -11 424 -11 Q345 -11 276 18.5 Q207 48 156 99 Q105 150 75.5 219 Q46 288 46 367 Q46 447 75 516 Q104 585 155 636 Q206 687 275 716.5 Q344 746 424 746 Q505 746 573 716.5 Q641 687 691 636 L623 564 Q585 601 535.5 623 Q486 645 429 645 Q369 645 318.5 624 Q268 603 230.5 565.5 Q193 528 172 477 Q151 426 151 367 Z M351 886 Q351 915 372 936 Q393 957 422 957 Q451 957 472 936 Q493 915 493 886 Q493 857 472 836 Q451 815 422 815 Q393 815 372 836 Q351 857 351 886 Z " />
<glyph glyph-name="Dcaron" unicode="&#x10e;" horiz-adv-x="700" d="M90 0 L90 735 L297 735 Q373 735 439.5 706 Q506 677 556 627 Q606 577 635 510.5 Q664 444 664 368 Q664 292 635 225 Q606 158 556 108 Q506 58 439.5 29 Q373 0 297 0 L90 0 Z M196 637 L196 98 L291 98 Q348 98 397 119 Q446 140 482 176.5 Q518 213 538.5 262 Q559 311 559 368 Q559 425 538 474 Q517 523 481 559 Q445 595 396 616 Q347 637 291 637 L196 637 Z M291 862 L388 960 L425 923 L289 787 L153 923 L191 960 L291 862 Z " />
<glyph glyph-name="Eacute" unicode="&#xc9;" horiz-adv-x="581" d="M90 735 L533 735 L533 644 L198 644 L198 416 L499 416 L499 327 L198 327 L198 91 L533 91 L533 0 L90 0 L90 735 Z M286 791 L258 818 L369 960 Q380 974 399 975 Q418 976 431 964 Q444 951 443 931.5 Q442 912 428 901 L286 791 Z " />
<glyph glyph-name="Ebreve" unicode="&#x114;" horiz-adv-x="581" d="M90 735 L533 735 L533 644 L198 644 L198 416 L499 416 L499 327 L198 327 L198 91 L533 91 L533 0 L90 0 L90 735 Z M196 919 L259 919 L259 900 Q259 877 274.5 861 Q290 845 313 845 Q336 845 352 861 Q368 877 368 900 L368 919 L430 919 L430 904 Q430 880 421 858.5 Q412 837 396 821 Q380 805 358.5 796 Q337 787 313 787 Q289 787 267.5 796 Q246 805 230 821 Q214 837 205 858.5 Q196 880 196 904 L196 919 Z " />
<glyph glyph-name="Ecaron" unicode="&#x11a;" horiz-adv-x="581" d="M90 735 L533 735 L533 644 L198 644 L198 416 L499 416 L499 327 L198 327 L198 91 L533 91 L533 0 L90 0 L90 735 Z M312 862 L409 960 L446 923 L310 787 L174 923 L212 960 L312 862 Z " />
<glyph glyph-name="Ecircumflex" unicode="&#xca;" horiz-adv-x="581" d="M90 735 L533 735 L533 644 L198 644 L198 416 L499 416 L499 327 L198 327 L198 91 L533 91 L533 0 L90 0 L90 735 Z M309 885 L212 787 L174 824 L310 960 L446 824 L409 787 L309 885 Z " />
<glyph glyph-name="Edieresis" unicode="&#xcb;" horiz-adv-x="581" d="M90 735 L533 735 L533 644 L198 644 L198 416 L499 416 L499 327 L198 327 L198 91 L533 91 L533 0 L90 0 L90 735 Z M137 886 Q137 915 158 936 Q179 957 209 957 Q238 957 259 936 Q280 915 280 886 Q280 857 259 836 Q238 815 209 815 Q179 815 158 836 Q137 857 137 886 Z M340 886 Q340 915 361 936 Q382 957 412 957 Q441 957 462 936 Q483 915 483 886 Q483 857 462 836 Q441 815 412 815 Q382 815 361 836 Q340 857 340 886 Z " />
<glyph glyph-name="Edotaccent" unicode="&#x116;" horiz-adv-x="581" d="M90 735 L533 735 L533 644 L198 644 L198 416 L499 416 L499 327 L198 327 L198 91 L533 91 L533 0 L90 0 L90 735 Z M239 886 Q239 915 260 936 Q281 957 310 957 Q340 957 361 936 Q382 915 382 886 Q382 857 361 836 Q340 815 310 815 Q281 815 260 836 Q239 857 239 886 Z " />
<glyph glyph-name="Egrave" unicode="&#xc8;" horiz-adv-x="581" d="M90 735 L533 735 L533 644 L198 644 L198 416 L499 416 L499 327 L198 327 L198 91 L533 91 L533 0 L90 0 L90 735 Z M166 901 Q151 912 150 931.5 Q149 951 162 964 Q175 976 194 975 Q213 974 224 960 L335 818 L308 791 L166 901 Z " />
<glyph glyph-name="Emacron" unicode="&#x112;" horiz-adv-x="581" d="M90 735 L533 735 L533 644 L198 644 L198 416 L499 416 L499 327 L198 327 L198 91 L533 91 L533 0 L90 0 L90 735 Z M455 815 L152 815 L152 877 L455 877 L455 815 Z " />
<glyph glyph-name="Eogonek" unicode="&#x118;" horiz-adv-x="581" d="M291 -70 Q291 -50 297 -32 Q303 -14 314 0 L90 0 L90 735 L533 735 L533 644 L198 644 L198 416 L499 416 L499 327 L198 327 L198 91 L413 91 L415 91 L533 91 L533 0 L412 0 Q383 0 363.5 -20.5 Q344 -41 344 -70 Q344 -99 363.5 -119 Q383 -139 412 -139 Q440 -139 460 -119 Q480 -99 480 -70 L533 -70 Q533 -95 523.5 -117.5 Q514 -140 497.5 -156.5 Q481 -173 459 -182.5 Q437 -192 412 -192 Q387 -192 365 -182.5 Q343 -173 326.5 -156.5 Q310 -140 300.5 -117.5 Q291 -95 291 -70 Z " />
<glyph glyph-name="Gbreve" unicode="&#x11e;" horiz-adv-x="843" d="M147 368 Q147 309 169 258.5 Q191 208 229 170 Q267 132 317.5 110.5 Q368 89 425 89 Q480 89 527 104.5 Q574 120 609 150 Q644 180 665 223 Q686 266 690 321 L443 321 L443 416 L791 416 Q793 404 794 392 Q795 380 795 367 Q795 278 766 207.5 Q737 137 687 88.5 Q637 40 569.5 14.5 Q502 -11 426 -11 Q345 -11 275.5 18.5 Q206 48 155 99.5 Q104 151 75 220 Q46 289 46 368 Q46 448 74.5 516 Q103 584 153.5 633.5 Q204 683 273.5 711 Q343 739 425 739 Q501 739 567.5 712.5 Q634 686 685 638 L615 571 Q578 606 530.5 625.5 Q483 645 425 645 Q365 645 314 624 Q263 603 226 566.5 Q189 530 168 479 Q147 428 147 368 Z M304 919 L367 919 L367 900 Q367 877 382.5 861 Q398 845 421 845 Q444 845 460 861 Q476 877 476 900 L476 919 L538 919 L538 904 Q538 880 529 858.5 Q520 837 504 821 Q488 805 466.5 796 Q445 787 421 787 Q397 787 375.5 796 Q354 805 338 821 Q322 837 313 858.5 Q304 880 304 904 L304 919 Z " />
<glyph glyph-name="Gcircumflex" unicode="&#x11c;" horiz-adv-x="843" d="M147 368 Q147 309 169 258.5 Q191 208 229 170 Q267 132 317.5 110.5 Q368 89 425 89 Q480 89 527 104.5 Q574 120 609 150 Q644 180 665 223 Q686 266 690 321 L443 321 L443 416 L791 416 Q793 404 794 392 Q795 380 795 367 Q795 278 766 207.5 Q737 137 687 88.5 Q637 40 569.5 14.5 Q502 -11 426 -11 Q345 -11 275.5 18.5 Q206 48 155 99.5 Q104 151 75 220 Q46 289 46 368 Q46 448 74.5 516 Q103 584 153.5 633.5 Q204 683 273.5 711 Q343 739 425 739 Q501 739 567.5 712.5 Q634 686 685 638 L615 571 Q578 606 530.5 625.5 Q483 645 425 645 Q365 645 314 624 Q263 603 226 566.5 Q189 530 168 479 Q147 428 147 368 Z M420 885 L323 787 L285 824 L421 960 L557 824 L520 787 L420 885 Z " />
<glyph glyph-name="Gdotaccent" unicode="&#x120;" horiz-adv-x="843" d="M147 368 Q147 309 169 258.5 Q191 208 229 170 Q267 132 317.5 110.5 Q368 89 425 89 Q480 89 527 104.5 Q574 120 609 150 Q644 180 665 223 Q686 266 690 321 L443 321 L443 416 L791 416 Q793 404 794 392 Q795 380 795 367 Q795 278 766 207.5 Q737 137 687 88.5 Q637 40 569.5 14.5 Q502 -11 426 -11 Q345 -11 275.5 18.5 Q206 48 155 99.5 Q104 151 75 220 Q46 289 46 368 Q46 448 74.5 516 Q103 584 153.5 633.5 Q204 683 273.5 711 Q343 739 425 739 Q501 739 567.5 712.5 Q634 686 685 638 L615 571 Q578 606 530.5 625.5 Q483 645 425 645 Q365 645 314 624 Q263 603 226 566.5 Q189 530 168 479 Q147 428 147 368 Z M350 886 Q350 915 371 936 Q392 957 421 957 Q451 957 472 936 Q493 915 493 886 Q493 857 472 836 Q451 815 421 815 Q392 815 371 836 Q350 857 350 886 Z " />
<glyph glyph-name="Gcommaaccent" unicode="&#x122;" horiz-adv-x="843" d="M147 368 Q147 309 169 258.5 Q191 208 229 170 Q267 132 317.5 110.5 Q368 89 425 89 Q480 89 527 104.5 Q574 120 609 150 Q644 180 665 223 Q686 266 690 321 L443 321 L443 416 L791 416 Q793 404 794 392 Q795 380 795 367 Q795 278 766 207.5 Q737 137 687 88.5 Q637 40 569.5 14.5 Q502 -11 426 -11 Q345 -11 275.5 18.5 Q206 48 155 99.5 Q104 151 75 220 Q46 289 46 368 Q46 448 74.5 516 Q103 584 153.5 633.5 Q204 683 273.5 711 Q343 739 425 739 Q501 739 567.5 712.5 Q634 686 685 638 L615 571 Q578 606 530.5 625.5 Q483 645 425 645 Q365 645 314 624 Q263 603 226 566.5 Q189 530 168 479 Q147 428 147 368 Z M376 -231 L409 -162 Q392 -158 380.5 -145 Q369 -132 369 -114 Q369 -93 383 -78.5 Q397 -64 417 -64 Q431 -64 442 -70.5 Q453 -77 459 -88 Q465 -99 465.5 -112.5 Q466 -126 460 -139 L409 -247 L376 -231 Z " />
<glyph glyph-name="Hbar" unicode="&#x126;" horiz-adv-x="767" d="M756 521 L684 521 L684 0 L575 0 L575 327 L191 327 L191 0 L83 0 L83 521 L11 521 L11 583 L83 583 L83 734 L191 734 L191 583 L575 583 L575 735 L684 735 L684 583 L756 583 L756 521 Z M575 416 L575 521 L191 521 L191 416 L575 416 Z " />
<glyph glyph-name="Hcircumflex" unicode="&#x124;" horiz-adv-x="767" d="M83 0 L83 734 L191 734 L191 416 L575 416 L575 735 L684 735 L684 0 L575 0 L575 327 L191 327 L191 0 L83 0 Z M382 885 L285 787 L247 824 L383 960 L519 824 L482 787 L382 885 Z " />
<glyph glyph-name="Iacute" unicode="&#xcd;" horiz-adv-x="475" d="M51 644 L51 735 L424 735 L424 644 L292 644 L292 91 L424 91 L424 0 L51 0 L51 91 L183 91 L183 644 L51 644 Z M240 791 L212 818 L323 960 Q334 974 353.5 975 Q373 976 386 964 Q398 951 397 931.5 Q396 912 382 901 L240 791 Z " />
<glyph glyph-name="Ibreve" unicode="&#x12c;" horiz-adv-x="475" d="M51 644 L51 735 L424 735 L424 644 L292 644 L292 91 L424 91 L424 0 L51 0 L51 91 L183 91 L183 644 L51 644 Z M120 919 L183 919 L183 900 Q183 877 198.5 861 Q214 845 237 845 Q260 845 276 861 Q292 877 292 900 L292 919 L354 919 L354 904 Q354 880 345 858.5 Q336 837 320 821 Q304 805 282.5 796 Q261 787 237 787 Q213 787 191.5 796 Q170 805 154 821 Q138 837 129 858.5 Q120 880 120 904 L120 919 Z " />
<glyph glyph-name="Icircumflex" unicode="&#xce;" horiz-adv-x="475" d="M51 644 L51 735 L424 735 L424 644 L292 644 L292 91 L424 91 L424 0 L51 0 L51 91 L183 91 L183 644 L51 644 Z M236 885 L139 787 L101 824 L237 960 L373 824 L336 787 L236 885 Z " />
<glyph glyph-name="Idieresis" unicode="&#xcf;" horiz-adv-x="475" d="M51 644 L51 735 L424 735 L424 644 L292 644 L292 91 L424 91 L424 0 L51 0 L51 91 L183 91 L183 644 L51 644 Z M64 886 Q64 915 85.5 936 Q107 957 136 957 Q165 957 186 936 Q207 915 207 886 Q207 857 186 836 Q165 815 136 815 Q107 815 85.5 836 Q64 857 64 886 Z M267 886 Q267 915 288.5 936 Q310 957 339 957 Q368 957 389 936 Q410 915 410 886 Q410 857 389 836 Q368 815 339 815 Q310 815 288.5 836 Q267 857 267 886 Z " />
<glyph glyph-name="Idotaccent" unicode="&#x130;" horiz-adv-x="475" d="M51 644 L51 735 L424 735 L424 644 L292 644 L292 91 L424 91 L424 0 L51 0 L51 91 L183 91 L183 644 L51 644 Z M166 886 Q166 915 187 936 Q208 957 237 957 Q267 957 288 936 Q309 915 309 886 Q309 857 288 836 Q267 815 237 815 Q208 815 187 836 Q166 857 166 886 Z " />
<glyph glyph-name="Igrave" unicode="&#xcc;" horiz-adv-x="475" d="M51 644 L51 735 L424 735 L424 644 L292 644 L292 91 L424 91 L424 0 L51 0 L51 91 L183 91 L183 644 L51 644 Z M93 901 Q78 912 77 931.5 Q76 951 89 964 Q102 976 121 975 Q140 974 151 960 L262 818 L235 791 L93 901 Z " />
<glyph glyph-name="Imacron" unicode="&#x12a;" horiz-adv-x="475" d="M51 644 L51 735 L424 735 L424 644 L292 644 L292 91 L424 91 L424 0 L51 0 L51 91 L183 91 L183 644 L51 644 Z M389 815 L86 815 L86 877 L389 877 L389 815 Z " />
<glyph glyph-name="Iogonek" unicode="&#x12e;" horiz-adv-x="475" d="M182 -70 Q182 -50 188 -32 Q194 -14 205 0 L51 0 L51 91 L183 91 L183 644 L51 644 L51 735 L424 735 L424 644 L292 644 L292 91 L424 91 L424 0 L299 0 Q272 -1 253.5 -21.5 Q235 -42 235 -70 Q235 -99 254.5 -119 Q274 -139 303 -139 Q331 -139 351 -119 Q371 -99 371 -70 L424 -70 Q424 -95 414.5 -117.5 Q405 -140 388.5 -156.5 Q372 -173 350 -182.5 Q328 -192 303 -192 Q278 -192 256 -182.5 Q234 -173 217.5 -156.5 Q201 -140 191.5 -117.5 Q182 -95 182 -70 Z " />
<glyph glyph-name="Itilde" unicode="&#x128;" horiz-adv-x="475" d="M51 644 L51 735 L424 735 L424 644 L292 644 L292 91 L424 91 L424 0 L51 0 L51 91 L183 91 L183 644 L51 644 Z M298 931 Q342 931 368.5 901 Q395 871 394 830 L338 830 Q338 852 327 865 Q316 878 298 878 Q283 878 271.5 868.5 Q260 859 247 847 Q234 835 218 825.5 Q202 816 177 816 Q132 816 106 845.5 Q80 875 81 916 L137 916 Q137 893 147 880.5 Q157 868 177 868 Q191 868 202.5 878 Q214 888 227 899.5 Q240 911 256.5 921 Q273 931 298 931 Z " />
<glyph glyph-name="Jcircumflex" unicode="&#x134;" horiz-adv-x="498" d="M127 188 Q127 168 134.5 150.5 Q142 133 155.5 119.5 Q169 106 186.5 98.5 Q204 91 224 91 Q244 91 261.5 98.5 Q279 106 292.5 119.5 Q306 133 313.5 150.5 Q321 168 321 188 L321 735 L422 735 L422 188 Q422 147 406.5 111 Q391 75 364 48 Q337 21 301 5.5 Q265 -10 224 -10 Q183 -10 147 5.5 Q111 21 84 48 Q57 75 41.5 111 Q26 147 26 188 L127 188 Z M369 885 L271 787 L234 824 L370 960 L506 824 L468 787 L369 885 Z " />
<glyph glyph-name="Kcommaaccent" unicode="&#x136;" horiz-adv-x="701" d="M186 327 L186 0 L83 0 L83 735 L186 735 L186 416 L355 416 L541 735 L657 735 L446 374 L661 0 L546 0 L359 327 L186 327 Z M305 -231 L338 -162 Q321 -158 309.5 -145 Q298 -132 298 -114 Q298 -93 312.5 -78.5 Q327 -64 347 -64 Q360 -64 371 -70.5 Q382 -77 388 -88 Q394 -99 394.5 -112.5 Q395 -126 389 -139 L338 -247 L305 -231 Z " />
<glyph glyph-name="Lacute" unicode="&#x139;" horiz-adv-x="472" d="M452 0 L83 0 L83 735 L188 735 L188 91 L452 91 L452 0 Z M168 791 L141 818 L252 960 Q263 974 282 975 Q301 976 314 964 Q327 951 326 931.5 Q325 912 311 901 L168 791 Z " />
<glyph glyph-name="Lcaron" unicode="&#x13d;" horiz-adv-x="472" d="M452 2 L83 2 L83 736 L188 736 L188 92 L452 92 L452 2 Z M321 562 L365 657 Q340 662 323.5 681.5 Q307 701 307 727 Q307 757 328 778 Q349 799 378 799 Q398 799 413.5 789.5 Q429 780 438 764 Q447 748 448 728.5 Q449 709 440 690 L368 539 L321 562 Z " />
<glyph glyph-name="Lcommaaccent" unicode="&#x13b;" horiz-adv-x="472" d="M452 0 L83 0 L83 735 L188 735 L188 91 L452 91 L452 0 Z M224 -231 L256 -162 Q239 -158 227.5 -145 Q216 -132 216 -114 Q216 -93 230.5 -78.5 Q245 -64 265 -64 Q279 -64 290 -70.5 Q301 -77 307 -88 Q313 -99 313.5 -112.5 Q314 -126 308 -139 L257 -247 L224 -231 Z " />
<glyph glyph-name="Ldot" unicode="&#x13f;" horiz-adv-x="472" d="M452 0 L83 0 L83 735 L188 735 L188 91 L452 91 L452 0 Z M281 367 Q281 397 302 418 Q323 439 352 439 Q382 439 403 418 Q424 397 424 367 Q424 338 403 317 Q382 296 352 296 Q323 296 302 317 Q281 338 281 367 Z " />
<glyph glyph-name="Lslash" unicode="&#x141;" horiz-adv-x="472" d="M452 0 L83 0 L83 299 L-1 277 L-17 335 L83 361 L83 735 L188 735 L188 389 L286 416 L302 358 L188 326 L188 91 L452 91 L452 0 Z " />
<glyph glyph-name="Nacute" unicode="&#x143;" horiz-adv-x="800" d="M613 735 L717 735 L717 5 L705 -1 L187 509 L187 0 L83 0 L83 730 L94 735 L613 225 L613 735 Z M385 791 L358 818 L468 960 Q479 974 498.5 975 Q518 976 531 964 Q543 951 542 931.5 Q541 912 527 901 L385 791 Z " />
<glyph glyph-name="Ncaron" unicode="&#x147;" horiz-adv-x="800" d="M613 735 L717 735 L717 5 L705 -1 L187 509 L187 0 L83 0 L83 730 L94 735 L613 225 L613 735 Z M401 862 L498 960 L535 923 L399 787 L263 923 L301 960 L401 862 Z " />
<glyph glyph-name="Ncommaaccent" unicode="&#x145;" horiz-adv-x="800" d="M613 735 L717 735 L717 5 L705 -1 L187 509 L187 0 L83 0 L83 730 L94 735 L613 225 L613 735 Z M371 -231 L404 -162 Q387 -158 375.5 -145 Q364 -132 364 -114 Q364 -93 378.5 -78.5 Q393 -64 413 -64 Q426 -64 437 -70.5 Q448 -77 454 -88 Q460 -99 460.5 -112.5 Q461 -126 455 -139 L404 -247 L371 -231 Z " />
<glyph glyph-name="Ntilde" unicode="&#xd1;" horiz-adv-x="800" d="M613 735 L717 735 L717 5 L705 -1 L187 509 L187 0 L83 0 L83 730 L94 735 L613 225 L613 735 Z M460 931 Q504 931 530.5 901 Q557 871 556 830 L500 830 Q500 852 489 865 Q478 878 460 878 Q445 878 433.5 868.5 Q422 859 409 847 Q396 835 380 825.5 Q364 816 339 816 Q294 816 268.5 845.5 Q243 875 243 916 L299 916 Q299 893 309.5 880.5 Q320 868 339 868 Q353 868 364.5 878 Q376 888 389 899.5 Q402 911 418.5 921 Q435 931 460 931 Z " />
<glyph glyph-name="Oacute" unicode="&#xd3;" horiz-adv-x="855" d="M48 368 Q48 446 78 515.5 Q108 585 159.5 636.5 Q211 688 280 718 Q349 748 427 748 Q506 748 575 718 Q644 688 695.5 636.5 Q747 585 777 515.5 Q807 446 807 368 Q807 290 777 220.5 Q747 151 695.5 99.5 Q644 48 575 18 Q506 -12 427 -12 Q349 -12 280 18 Q211 48 159.5 99.5 Q108 151 78 220.5 Q48 290 48 368 Z M154 368 Q154 312 175.5 262 Q197 212 234 175 Q271 138 321 116.5 Q371 95 427 95 Q484 95 533.5 116.5 Q583 138 620 175 Q657 212 678.5 262 Q700 312 700 368 Q700 424 678.5 474 Q657 524 620 561 Q583 598 533.5 619.5 Q484 641 427 641 Q371 641 321 619.5 Q271 598 234 561 Q197 524 175.5 474 Q154 424 154 368 Z M430 791 L402 818 L513 960 Q524 974 543 975 Q562 976 575 964 Q588 951 587 931.5 Q586 912 572 901 L430 791 Z " />
<glyph glyph-name="Obreve" unicode="&#x14e;" horiz-adv-x="855" d="M48 368 Q48 446 78 515.5 Q108 585 159.5 636.5 Q211 688 280 718 Q349 748 427 748 Q506 748 575 718 Q644 688 695.5 636.5 Q747 585 777 515.5 Q807 446 807 368 Q807 290 777 220.5 Q747 151 695.5 99.5 Q644 48 575 18 Q506 -12 427 -12 Q349 -12 280 18 Q211 48 159.5 99.5 Q108 151 78 220.5 Q48 290 48 368 Z M154 368 Q154 312 175.5 262 Q197 212 234 175 Q271 138 321 116.5 Q371 95 427 95 Q484 95 533.5 116.5 Q583 138 620 175 Q657 212 678.5 262 Q700 312 700 368 Q700 424 678.5 474 Q657 524 620 561 Q583 598 533.5 619.5 Q484 641 427 641 Q371 641 321 619.5 Q271 598 234 561 Q197 524 175.5 474 Q154 424 154 368 Z M310 919 L373 919 L373 900 Q373 877 388.5 861 Q404 845 427 845 Q450 845 466 861 Q482 877 482 900 L482 919 L544 919 L544 904 Q544 880 535 858.5 Q526 837 510 821 Q494 805 472.5 796 Q451 787 427 787 Q403 787 381.5 796 Q360 805 344 821 Q328 837 319 858.5 Q310 880 310 904 L310 919 Z " />
<glyph glyph-name="Ocircumflex" unicode="&#xd4;" horiz-adv-x="855" d="M48 368 Q48 446 78 515.5 Q108 585 159.5 636.5 Q211 688 280 718 Q349 748 427 748 Q506 748 575 718 Q644 688 695.5 636.5 Q747 585 777 515.5 Q807 446 807 368 Q807 290 777 220.5 Q747 151 695.5 99.5 Q644 48 575 18 Q506 -12 427 -12 Q349 -12 280 18 Q211 48 159.5 99.5 Q108 151 78 220.5 Q48 290 48 368 Z M154 368 Q154 312 175.5 262 Q197 212 234 175 Q271 138 321 116.5 Q371 95 427 95 Q484 95 533.5 116.5 Q583 138 620 175 Q657 212 678.5 262 Q700 312 700 368 Q700 424 678.5 474 Q657 524 620 561 Q583 598 533.5 619.5 Q484 641 427 641 Q371 641 321 619.5 Q271 598 234 561 Q197 524 175.5 474 Q154 424 154 368 Z M426 885 L329 787 L291 824 L427 960 L563 824 L526 787 L426 885 Z " />
<glyph glyph-name="Odieresis" unicode="&#xd6;" horiz-adv-x="855" d="M48 368 Q48 446 78 515.5 Q108 585 159.5 636.5 Q211 688 280 718 Q349 748 427 748 Q506 748 575 718 Q644 688 695.5 636.5 Q747 585 777 515.5 Q807 446 807 368 Q807 290 777 220.5 Q747 151 695.5 99.5 Q644 48 575 18 Q506 -12 427 -12 Q349 -12 280 18 Q211 48 159.5 99.5 Q108 151 78 220.5 Q48 290 48 368 Z M154 368 Q154 312 175.5 262 Q197 212 234 175 Q271 138 321 116.5 Q371 95 427 95 Q484 95 533.5 116.5 Q583 138 620 175 Q657 212 678.5 262 Q700 312 700 368 Q700 424 678.5 474 Q657 524 620 561 Q583 598 533.5 619.5 Q484 641 427 641 Q371 641 321 619.5 Q271 598 234 561 Q197 524 175.5 474 Q154 424 154 368 Z M254 886 Q254 915 275 936 Q296 957 326 957 Q355 957 376 936 Q397 915 397 886 Q397 857 376 836 Q355 815 326 815 Q296 815 275 836 Q254 857 254 886 Z M457 886 Q457 915 478 936 Q499 957 529 957 Q558 957 579 936 Q600 915 600 886 Q600 857 579 836 Q558 815 529 815 Q499 815 478 836 Q457 857 457 886 Z " />
<glyph glyph-name="Ograve" unicode="&#xd2;" horiz-adv-x="855" d="M48 368 Q48 446 78 515.5 Q108 585 159.5 636.5 Q211 688 280 718 Q349 748 427 748 Q506 748 575 718 Q644 688 695.5 636.5 Q747 585 777 515.5 Q807 446 807 368 Q807 290 777 220.5 Q747 151 695.5 99.5 Q644 48 575 18 Q506 -12 427 -12 Q349 -12 280 18 Q211 48 159.5 99.5 Q108 151 78 220.5 Q48 290 48 368 Z M154 368 Q154 312 175.5 262 Q197 212 234 175 Q271 138 321 116.5 Q371 95 427 95 Q484 95 533.5 116.5 Q583 138 620 175 Q657 212 678.5 262 Q700 312 700 368 Q700 424 678.5 474 Q657 524 620 561 Q583 598 533.5 619.5 Q484 641 427 641 Q371 641 321 619.5 Q271 598 234 561 Q197 524 175.5 474 Q154 424 154 368 Z M283 901 Q268 912 267 931.5 Q266 951 279 964 Q292 976 311 975 Q330 974 341 960 L452 818 L425 791 L283 901 Z " />
<glyph glyph-name="Ohungarumlaut" unicode="&#x150;" horiz-adv-x="855" d="M48 368 Q48 446 78 515.5 Q108 585 159.5 636.5 Q211 688 280 718 Q349 748 427 748 Q506 748 575 718 Q644 688 695.5 636.5 Q747 585 777 515.5 Q807 446 807 368 Q807 290 777 220.5 Q747 151 695.5 99.5 Q644 48 575 18 Q506 -12 427 -12 Q349 -12 280 18 Q211 48 159.5 99.5 Q108 151 78 220.5 Q48 290 48 368 Z M154 368 Q154 312 175.5 262 Q197 212 234 175 Q271 138 321 116.5 Q371 95 427 95 Q484 95 533.5 116.5 Q583 138 620 175 Q657 212 678.5 262 Q700 312 700 368 Q700 424 678.5 474 Q657 524 620 561 Q583 598 533.5 619.5 Q484 641 427 641 Q371 641 321 619.5 Q271 598 234 561 Q197 524 175.5 474 Q154 424 154 368 Z M337 791 L310 818 L421 960 Q432 974 451 975 Q470 976 483 964 Q496 951 495 931.5 Q494 912 479 901 L337 791 Z M522 791 L495 818 L606 960 Q617 974 636 975 Q655 976 668 964 Q681 951 680 931.5 Q679 912 664 901 L522 791 Z " />
<glyph glyph-name="Omacron" unicode="&#x14c;" horiz-adv-x="855" d="M48 368 Q48 446 78 515.5 Q108 585 159.5 636.5 Q211 688 280 718 Q349 748 427 748 Q506 748 575 718 Q644 688 695.5 636.5 Q747 585 777 515.5 Q807 446 807 368 Q807 290 777 220.5 Q747 151 695.5 99.5 Q644 48 575 18 Q506 -12 427 -12 Q349 -12 280 18 Q211 48 159.5 99.5 Q108 151 78 220.5 Q48 290 48 368 Z M154 368 Q154 312 175.5 262 Q197 212 234 175 Q271 138 321 116.5 Q371 95 427 95 Q484 95 533.5 116.5 Q583 138 620 175 Q657 212 678.5 262 Q700 312 700 368 Q700 424 678.5 474 Q657 524 620 561 Q583 598 533.5 619.5 Q484 641 427 641 Q371 641 321 619.5 Q271 598 234 561 Q197 524 175.5 474 Q154 424 154 368 Z M579 815 L276 815 L276 877 L579 877 L579 815 Z " />
<glyph glyph-name="Oslashacute" unicode="&#x1fe;" horiz-adv-x="855" d="M46 368 Q46 446 76 515.5 Q106 585 157.5 636.5 Q209 688 278.5 718 Q348 748 426 748 Q491 748 549.5 727 Q608 706 656 668 L722 734 L791 665 L725 599 Q763 551 784 492.5 Q805 434 805 368 Q805 290 775 220.5 Q745 151 693.5 99.5 Q642 48 573 18 Q504 -12 426 -12 Q360 -12 301 9 Q242 30 194 68 L130 4 L60 73 L125 137 Q87 185 66.5 243.5 Q46 302 46 368 Z M426 95 Q482 95 532 116.5 Q582 138 619 175 Q656 212 677.5 262 Q699 312 699 368 Q699 411 685.5 450.5 Q672 490 648 522 L271 145 Q303 121 342.5 108 Q382 95 426 95 Z M153 368 Q153 325 166 286 Q179 247 202 215 L578 591 Q546 614 507 627.5 Q468 641 426 641 Q370 641 320 619.5 Q270 598 233 561 Q196 524 174.5 474 Q153 424 153 368 Z M430 791 L402 818 L513 960 Q524 974 543 975 Q562 976 575 964 Q588 951 587 931.5 Q586 912 572 901 L430 791 Z " />
<glyph glyph-name="Otilde" unicode="&#xd5;" horiz-adv-x="855" d="M48 368 Q48 446 78 515.5 Q108 585 159.5 636.5 Q211 688 280 718 Q349 748 427 748 Q506 748 575 718 Q644 688 695.5 636.5 Q747 585 777 515.5 Q807 446 807 368 Q807 290 777 220.5 Q747 151 695.5 99.5 Q644 48 575 18 Q506 -12 427 -12 Q349 -12 280 18 Q211 48 159.5 99.5 Q108 151 78 220.5 Q48 290 48 368 Z M154 368 Q154 312 175.5 262 Q197 212 234 175 Q271 138 321 116.5 Q371 95 427 95 Q484 95 533.5 116.5 Q583 138 620 175 Q657 212 678.5 262 Q700 312 700 368 Q700 424 678.5 474 Q657 524 620 561 Q583 598 533.5 619.5 Q484 641 427 641 Q371 641 321 619.5 Q271 598 234 561 Q197 524 175.5 474 Q154 424 154 368 Z M488 931 Q532 931 558 901 Q584 871 584 830 L528 830 Q528 852 517 865 Q506 878 488 878 Q473 878 461.5 868.5 Q450 859 437 847 Q424 835 408 825.5 Q392 816 367 816 Q322 816 296 845.5 Q270 875 271 916 L327 916 Q327 893 337 880.5 Q347 868 367 868 Q381 868 392.5 878 Q404 888 417 899.5 Q430 911 446.5 921 Q463 931 488 931 Z " />
<glyph glyph-name="Racute" unicode="&#x154;" horiz-adv-x="671" d="M187 0 L83 0 L83 735 L393 735 Q441 735 483 717 Q525 699 556.5 667.5 Q588 636 606 594 Q624 552 624 504 Q624 432 587 377.5 Q550 323 489 295 L616 0 L506 0 L387 274 L187 274 L187 0 Z M382 364 Q412 364 438 375 Q464 386 482.5 405 Q501 424 512 449.5 Q523 475 523 504 Q523 533 512 558.5 Q501 584 482 603 Q463 622 437.5 633 Q412 644 382 644 L187 644 L187 364 L382 364 Z M267 791 L240 818 L351 960 Q362 974 381 975 Q400 976 413 964 Q426 951 425 931.5 Q424 912 409 901 L267 791 Z " />
<glyph glyph-name="Rcaron" unicode="&#x158;" horiz-adv-x="671" d="M187 0 L83 0 L83 735 L393 735 Q441 735 483 717 Q525 699 556.5 667.5 Q588 636 606 594 Q624 552 624 504 Q624 432 587 377.5 Q550 323 489 295 L616 0 L506 0 L387 274 L187 274 L187 0 Z M382 364 Q412 364 438 375 Q464 386 482.5 405 Q501 424 512 449.5 Q523 475 523 504 Q523 533 512 558.5 Q501 584 482 603 Q463 622 437.5 633 Q412 644 382 644 L187 644 L187 364 L382 364 Z M336 862 L433 960 L471 923 L335 787 L199 923 L236 960 L336 862 Z " />
<glyph glyph-name="Rcommaaccent" unicode="&#x156;" horiz-adv-x="671" d="M187 0 L83 0 L83 735 L393 735 Q441 735 483 717 Q525 699 556.5 667.5 Q588 636 606 594 Q624 552 624 504 Q624 432 587 377.5 Q550 323 489 295 L616 0 L506 0 L387 274 L187 274 L187 0 Z M382 364 Q412 364 438 375 Q464 386 482.5 405 Q501 424 512 449.5 Q523 475 523 504 Q523 533 512 558.5 Q501 584 482 603 Q463 622 437.5 633 Q412 644 382 644 L187 644 L187 364 L382 364 Z M290 -231 L322 -162 Q305 -158 293.5 -145 Q282 -132 282 -114 Q282 -93 296.5 -78.5 Q311 -64 331 -64 Q345 -64 356 -70.5 Q367 -77 373 -88 Q379 -99 379.5 -112.5 Q380 -126 374 -139 L323 -247 L290 -231 Z " />
<glyph glyph-name="Sacute" unicode="&#x15a;" horiz-adv-x="604" d="M317 -16 Q228 -16 159.5 17.5 Q91 51 54 100 L131 163 Q164 128 212 106 Q260 84 318 84 Q384 84 419.5 110.5 Q455 137 455 179 Q455 215 432.5 241.5 Q410 268 359 289 L219 348 Q131 386 91 436.5 Q51 487 51 556 Q51 598 69 634 Q87 670 119 696.5 Q151 723 196.5 737.5 Q242 752 297 752 Q359 752 406 732.5 Q453 713 485 681.5 Q517 650 533 610 Q549 570 549 530 L448 530 Q448 545 440 566.5 Q432 588 414 607.5 Q396 627 367.5 640.5 Q339 654 297 654 Q234 654 197 626 Q160 598 160 556 Q160 519 182.5 494.5 Q205 470 252 450 L394 388 Q482 350 523 299.5 Q564 249 564 179 Q564 131 544 94.5 Q524 58 490.5 33.5 Q457 9 412 -3.5 Q367 -16 317 -16 Z M294 791 L267 818 L378 960 Q389 974 408 975 Q427 976 440 964 Q453 951 452 931.5 Q451 912 437 901 L294 791 Z " />
<glyph glyph-name="Scaron" unicode="&#x160;" horiz-adv-x="604" d="M317 -16 Q228 -16 159.5 17.5 Q91 51 54 100 L131 163 Q164 128 212 106 Q260 84 318 84 Q384 84 419.5 110.5 Q455 137 455 179 Q455 215 432.5 241.5 Q410 268 359 289 L219 348 Q131 386 91 436.5 Q51 487 51 556 Q51 598 69 634 Q87 670 119 696.5 Q151 723 196.5 737.5 Q242 752 297 752 Q359 752 406 732.5 Q453 713 485 681.5 Q517 650 533 610 Q549 570 549 530 L448 530 Q448 545 440 566.5 Q432 588 414 607.5 Q396 627 367.5 640.5 Q339 654 297 654 Q234 654 197 626 Q160 598 160 556 Q160 519 182.5 494.5 Q205 470 252 450 L394 388 Q482 350 523 299.5 Q564 249 564 179 Q564 131 544 94.5 Q524 58 490.5 33.5 Q457 9 412 -3.5 Q367 -16 317 -16 Z M303 862 L401 960 L438 923 L302 787 L166 923 L204 960 L303 862 Z " />
<glyph glyph-name="Scedilla" unicode="&#x15e;" horiz-adv-x="604" d="M413 -130 Q413 -171 385 -198.5 Q357 -226 317 -226 Q297 -226 280 -218.5 Q263 -211 249 -198 L287 -162 Q301 -174 317 -174 Q335 -174 347.5 -161.5 Q360 -149 360 -130 Q360 -111 348 -99 Q336 -87 317 -87 Q296 -87 286 -99 L249 -62 Q257 -54 267.5 -47 Q278 -40 291 -38 L291 -15 Q211 -9 150 22.5 Q89 54 54 100 L131 163 Q164 128 212 106 Q260 84 318 84 Q384 84 419.5 110.5 Q455 137 455 179 Q455 215 432.5 241.5 Q410 268 359 289 L219 348 Q131 386 91 436.5 Q51 487 51 556 Q51 598 69 634 Q87 670 119 696.5 Q151 723 196.5 737.5 Q242 752 297 752 Q359 752 406 732.5 Q453 713 485 681.5 Q517 650 533 610 Q549 570 549 530 L448 530 Q448 545 440 566.5 Q432 588 414 607.5 Q396 627 367.5 640.5 Q339 654 297 654 Q234 654 197 626 Q160 598 160 556 Q160 519 182.5 494.5 Q205 470 252 450 L394 388 Q482 350 523 299.5 Q564 249 564 179 Q564 134 547 99 Q530 64 500 39.5 Q470 15 429.5 1.5 Q389 -12 343 -15 L343 -38 Q372 -46 392.5 -71 Q413 -96 413 -130 Z " />
<glyph glyph-name="Scircumflex" unicode="&#x15c;" horiz-adv-x="604" d="M317 -16 Q228 -16 159.5 17.5 Q91 51 54 100 L131 163 Q164 128 212 106 Q260 84 318 84 Q384 84 419.5 110.5 Q455 137 455 179 Q455 215 432.5 241.5 Q410 268 359 289 L219 348 Q131 386 91 436.5 Q51 487 51 556 Q51 598 69 634 Q87 670 119 696.5 Q151 723 196.5 737.5 Q242 752 297 752 Q359 752 406 732.5 Q453 713 485 681.5 Q517 650 533 610 Q549 570 549 530 L448 530 Q448 545 440 566.5 Q432 588 414 607.5 Q396 627 367.5 640.5 Q339 654 297 654 Q234 654 197 626 Q160 598 160 556 Q160 519 182.5 494.5 Q205 470 252 450 L394 388 Q482 350 523 299.5 Q564 249 564 179 Q564 131 544 94.5 Q524 58 490.5 33.5 Q457 9 412 -3.5 Q367 -16 317 -16 Z M301 885 L204 787 L166 824 L302 960 L438 824 L401 787 L301 885 Z " />
<glyph glyph-name="Scommaaccent" unicode="&#x218;" horiz-adv-x="604" d="M317 -16 Q228 -16 159.5 17.5 Q91 51 54 100 L131 163 Q164 128 212 106 Q260 84 318 84 Q384 84 419.5 110.5 Q455 137 455 179 Q455 215 432.5 241.5 Q410 268 359 289 L219 348 Q131 386 91 436.5 Q51 487 51 556 Q51 598 69 634 Q87 670 119 696.5 Q151 723 196.5 737.5 Q242 752 297 752 Q359 752 406 732.5 Q453 713 485 681.5 Q517 650 533 610 Q549 570 549 530 L448 530 Q448 545 440 566.5 Q432 588 414 607.5 Q396 627 367.5 640.5 Q339 654 297 654 Q234 654 197 626 Q160 598 160 556 Q160 519 182.5 494.5 Q205 470 252 450 L394 388 Q482 350 523 299.5 Q564 249 564 179 Q564 131 544 94.5 Q524 58 490.5 33.5 Q457 9 412 -3.5 Q367 -16 317 -16 Z M262 -231 L295 -162 Q278 -158 266.5 -145 Q255 -132 255 -114 Q255 -93 269.5 -78.5 Q284 -64 304 -64 Q317 -64 328 -70.5 Q339 -77 345 -88 Q351 -99 351.5 -112.5 Q352 -126 346 -139 L295 -247 L262 -231 Z " />
<glyph glyph-name="Tbar" unicode="&#x166;" horiz-adv-x="546" d="M528 734 L528 644 L325 644 L325 487 L417 512 L433 454 L325 424 L325 0 L221 0 L221 397 L130 373 L114 431 L221 459 L221 644 L18 644 L18 734 L528 734 Z " />
<glyph glyph-name="Tcaron" unicode="&#x164;" horiz-adv-x="546" d="M528 734 L528 644 L325 644 L325 0 L221 0 L221 644 L18 644 L18 734 L528 734 Z M274 862 L371 960 L409 923 L273 787 L137 923 L174 960 L274 862 Z " />
<glyph glyph-name="Tcommaaccent" unicode="&#x162;" horiz-adv-x="546" d="M528 734 L528 644 L325 644 L325 0 L221 0 L221 644 L18 644 L18 734 L528 734 Z M228 -231 L260 -162 Q243 -158 231.5 -145 Q220 -132 220 -114 Q220 -93 234.5 -78.5 Q249 -64 269 -64 Q282 -64 293 -70.5 Q304 -77 310 -88 Q316 -99 317 -112.5 Q318 -126 312 -139 L261 -247 L228 -231 Z " />
<glyph glyph-name="Uacute" unicode="&#xda;" horiz-adv-x="763" d="M163 313 Q163 264 180 223 Q197 182 226 152 Q255 122 295 105.5 Q335 89 381 89 Q427 89 467.5 105.5 Q508 122 537 152 Q566 182 583 223 Q600 264 600 313 L600 735 L705 735 L705 313 Q705 246 680 187 Q655 128 611.5 84 Q568 40 508.5 14.5 Q449 -11 381 -11 Q313 -11 253.5 14.5 Q194 40 150.5 84 Q107 128 82 187 Q57 246 57 313 L57 735 L163 735 L163 313 Z M374 791 L347 818 L457 960 Q468 974 487.5 975 Q507 976 520 964 Q532 951 531 931.5 Q530 912 516 901 L374 791 Z " />
<glyph glyph-name="Ubreve" unicode="&#x16c;" horiz-adv-x="763" d="M163 313 Q163 264 180 223 Q197 182 226 152 Q255 122 295 105.5 Q335 89 381 89 Q427 89 467.5 105.5 Q508 122 537 152 Q566 182 583 223 Q600 264 600 313 L600 735 L705 735 L705 313 Q705 246 680 187 Q655 128 611.5 84 Q568 40 508.5 14.5 Q449 -11 381 -11 Q313 -11 253.5 14.5 Q194 40 150.5 84 Q107 128 82 187 Q57 246 57 313 L57 735 L163 735 L163 313 Z M264 919 L327 919 L327 900 Q327 877 342.5 861 Q358 845 381 845 Q404 845 420 861 Q436 877 436 900 L436 919 L498 919 L498 904 Q498 880 489 858.5 Q480 837 464 821 Q448 805 426.5 796 Q405 787 381 787 Q357 787 335.5 796 Q314 805 298 821 Q282 837 273 858.5 Q264 880 264 904 L264 919 Z " />
<glyph glyph-name="Ucircumflex" unicode="&#xdb;" horiz-adv-x="763" d="M163 313 Q163 264 180 223 Q197 182 226 152 Q255 122 295 105.5 Q335 89 381 89 Q427 89 467.5 105.5 Q508 122 537 152 Q566 182 583 223 Q600 264 600 313 L600 735 L705 735 L705 313 Q705 246 680 187 Q655 128 611.5 84 Q568 40 508.5 14.5 Q449 -11 381 -11 Q313 -11 253.5 14.5 Q194 40 150.5 84 Q107 128 82 187 Q57 246 57 313 L57 735 L163 735 L163 313 Z M380 885 L283 787 L245 824 L381 960 L517 824 L480 787 L380 885 Z " />
<glyph glyph-name="Udieresis" unicode="&#xdc;" horiz-adv-x="763" d="M163 313 Q163 264 180 223 Q197 182 226 152 Q255 122 295 105.5 Q335 89 381 89 Q427 89 467.5 105.5 Q508 122 537 152 Q566 182 583 223 Q600 264 600 313 L600 735 L705 735 L705 313 Q705 246 680 187 Q655 128 611.5 84 Q568 40 508.5 14.5 Q449 -11 381 -11 Q313 -11 253.5 14.5 Q194 40 150.5 84 Q107 128 82 187 Q57 246 57 313 L57 735 L163 735 L163 313 Z M209 886 Q209 915 230 936 Q251 957 280 957 Q309 957 330 936 Q351 915 351 886 Q351 857 330 836 Q309 815 280 815 Q251 815 230 836 Q209 857 209 886 Z M412 886 Q412 915 433 936 Q454 957 483 957 Q512 957 533 936 Q554 915 554 886 Q554 857 533 836 Q512 815 483 815 Q454 815 433 836 Q412 857 412 886 Z " />
<glyph glyph-name="Ugrave" unicode="&#xd9;" horiz-adv-x="763" d="M163 313 Q163 264 180 223 Q197 182 226 152 Q255 122 295 105.5 Q335 89 381 89 Q427 89 467.5 105.5 Q508 122 537 152 Q566 182 583 223 Q600 264 600 313 L600 735 L705 735 L705 313 Q705 246 680 187 Q655 128 611.5 84 Q568 40 508.5 14.5 Q449 -11 381 -11 Q313 -11 253.5 14.5 Q194 40 150.5 84 Q107 128 82 187 Q57 246 57 313 L57 735 L163 735 L163 313 Z M247 901 Q233 912 232 931.5 Q231 951 243 964 Q256 976 275.5 975 Q295 974 306 960 L416 818 L389 791 L247 901 Z " />
<glyph glyph-name="Uhungarumlaut" unicode="&#x170;" horiz-adv-x="763" d="M163 313 Q163 264 180 223 Q197 182 226 152 Q255 122 295 105.5 Q335 89 381 89 Q427 89 467.5 105.5 Q508 122 537 152 Q566 182 583 223 Q600 264 600 313 L600 735 L705 735 L705 313 Q705 246 680 187 Q655 128 611.5 84 Q568 40 508.5 14.5 Q449 -11 381 -11 Q313 -11 253.5 14.5 Q194 40 150.5 84 Q107 128 82 187 Q57 246 57 313 L57 735 L163 735 L163 313 Z M281 791 L254 818 L365 960 Q376 974 395 975 Q414 976 427 964 Q440 951 439 931.5 Q438 912 423 901 L281 791 Z M466 791 L439 818 L550 960 Q561 974 580 975 Q599 976 612 964 Q625 951 624 931.5 Q623 912 608 901 L466 791 Z " />
<glyph glyph-name="Umacron" unicode="&#x16a;" horiz-adv-x="763" d="M163 313 Q163 264 180 223 Q197 182 226 152 Q255 122 295 105.5 Q335 89 381 89 Q427 89 467.5 105.5 Q508 122 537 152 Q566 182 583 223 Q600 264 600 313 L600 735 L705 735 L705 313 Q705 246 680 187 Q655 128 611.5 84 Q568 40 508.5 14.5 Q449 -11 381 -11 Q313 -11 253.5 14.5 Q194 40 150.5 84 Q107 128 82 187 Q57 246 57 313 L57 735 L163 735 L163 313 Z M533 815 L230 815 L230 877 L533 877 L533 815 Z " />
<glyph glyph-name="Uogonek" unicode="&#x172;" horiz-adv-x="763" d="M261 -81 Q261 -57 269.5 -35.5 Q278 -14 292 1 Q240 15 197 44.5 Q154 74 123 115 Q92 156 74.5 206.5 Q57 257 57 313 L57 735 L163 735 L163 313 Q163 264 180 223 Q197 182 226 152 Q255 122 295 105.5 Q335 89 381 89 Q427 89 467.5 105.5 Q508 122 537 152 Q566 182 583 223 Q600 264 600 313 L600 735 L705 735 L705 313 Q705 246 680 187 Q655 128 611.5 84 Q568 40 508.5 14.5 Q449 -11 381 -11 Q352 -11 332.5 -31.5 Q313 -52 313 -81 Q313 -110 332.5 -130 Q352 -150 381 -150 Q410 -150 430 -130 Q450 -110 450 -81 L502 -81 Q502 -106 492.5 -128.5 Q483 -151 466.5 -167.5 Q450 -184 428 -193.5 Q406 -203 381 -203 Q356 -203 334.5 -193.5 Q313 -184 296.5 -167.5 Q280 -151 270.5 -128.5 Q261 -106 261 -81 Z " />
<glyph glyph-name="Uring" unicode="&#x16e;" horiz-adv-x="763" d="M163 313 Q163 264 180 223 Q197 182 226 152 Q255 122 295 105.5 Q335 89 381 89 Q427 89 467.5 105.5 Q508 122 537 152 Q566 182 583 223 Q600 264 600 313 L600 735 L705 735 L705 313 Q705 246 680 187 Q655 128 611.5 84 Q568 40 508.5 14.5 Q449 -11 381 -11 Q313 -11 253.5 14.5 Q194 40 150.5 84 Q107 128 82 187 Q57 246 57 313 L57 735 L163 735 L163 313 Z M285 895 Q285 935 313 963 Q341 991 381 991 Q421 991 449 963 Q477 935 477 895 Q477 855 449 827 Q421 799 381 799 Q341 799 313 827 Q285 855 285 895 Z M338 895 Q338 876 350.5 863.5 Q363 851 381 851 Q400 851 412.5 863.5 Q425 876 425 895 Q425 914 412.5 926.5 Q400 939 381 939 Q363 939 350.5 926.5 Q338 914 338 895 Z " />
<glyph glyph-name="Utilde" unicode="&#x168;" horiz-adv-x="763" d="M163 313 Q163 264 180 223 Q197 182 226 152 Q255 122 295 105.5 Q335 89 381 89 Q427 89 467.5 105.5 Q508 122 537 152 Q566 182 583 223 Q600 264 600 313 L600 735 L705 735 L705 313 Q705 246 680 187 Q655 128 611.5 84 Q568 40 508.5 14.5 Q449 -11 381 -11 Q313 -11 253.5 14.5 Q194 40 150.5 84 Q107 128 82 187 Q57 246 57 313 L57 735 L163 735 L163 313 Z M442 931 Q486 931 512 901 Q538 871 538 830 L482 830 Q482 852 471 865 Q460 878 442 878 Q427 878 415.5 868.5 Q404 859 391 847 Q378 835 362 825.5 Q346 816 321 816 Q276 816 250 845.5 Q224 875 225 916 L281 916 Q281 893 291 880.5 Q301 868 321 868 Q335 868 346.5 878 Q358 888 371 899.5 Q384 911 400.5 921 Q417 931 442 931 Z " />
<glyph glyph-name="Yacute" unicode="&#xdd;" horiz-adv-x="577" d="M240 0 L240 212 L12 735 L123 735 L289 354 L455 735 L565 735 L338 212 L338 0 L240 0 Z M290 791 L263 818 L374 960 Q385 974 404 975 Q423 976 436 964 Q449 951 448 931.5 Q447 912 433 901 L290 791 Z " />
<glyph glyph-name="Ycircumflex" unicode="&#x176;" horiz-adv-x="577" d="M240 0 L240 212 L12 735 L123 735 L289 354 L455 735 L565 735 L338 212 L338 0 L240 0 Z M287 885 L190 787 L152 824 L288 960 L424 824 L387 787 L287 885 Z " />
<glyph glyph-name="Ydieresis" unicode="&#x178;" horiz-adv-x="577" d="M240 0 L240 212 L12 735 L123 735 L289 354 L455 735 L565 735 L338 212 L338 0 L240 0 Z M115 886 Q115 915 136 936 Q157 957 187 957 Q216 957 237 936 Q258 915 258 886 Q258 857 237 836 Q216 815 187 815 Q157 815 136 836 Q115 857 115 886 Z M318 886 Q318 915 339 936 Q360 957 390 957 Q419 957 440 936 Q461 915 461 886 Q461 857 440 836 Q419 815 390 815 Q360 815 339 836 Q318 857 318 886 Z " />
<glyph glyph-name="Ygrave" unicode="&#x1ef2;" horiz-adv-x="577" d="M240 0 L240 212 L12 735 L123 735 L289 354 L455 735 L565 735 L338 212 L338 0 L240 0 Z M144 901 Q129 912 128 931.5 Q127 951 140 964 Q153 976 172 975 Q191 974 202 960 L313 818 L286 791 L144 901 Z " />
<glyph glyph-name="Zacute" unicode="&#x179;" horiz-adv-x="614" d="M77 327 L77 416 L280 416 L423 644 L51 644 L51 735 L554 735 L569 709 L393 416 L537 416 L537 327 L342 327 L196 91 L563 91 L563 0 L60 0 L45 26 L229 327 L77 327 Z M309 791 L282 818 L392 960 Q403 974 422.5 975 Q442 976 455 964 Q467 951 466 931.5 Q465 912 451 901 L309 791 Z " />
<glyph glyph-name="Zcaron" unicode="&#x17d;" horiz-adv-x="614" d="M77 327 L77 416 L280 416 L423 644 L51 644 L51 735 L554 735 L569 709 L393 416 L537 416 L537 327 L342 327 L196 91 L563 91 L563 0 L60 0 L45 26 L229 327 L77 327 Z M308 862 L405 960 L442 923 L306 787 L170 923 L208 960 L308 862 Z " />
<glyph glyph-name="Zdotaccent" unicode="&#x17b;" horiz-adv-x="614" d="M77 327 L77 416 L280 416 L423 644 L51 644 L51 735 L554 735 L569 709 L393 416 L537 416 L537 327 L342 327 L196 91 L563 91 L563 0 L60 0 L45 26 L229 327 L77 327 Z M235 886 Q235 915 256 936 Q277 957 306 957 Q336 957 357 936 Q378 915 378 886 Q378 857 357 836 Q336 815 306 815 Q277 815 256 836 Q235 857 235 886 Z " />
<glyph glyph-name="aacute" unicode="&#xe1;" horiz-adv-x="572" d="M402 88 Q380 46 334 18 Q288 -10 227 -10 Q184 -10 150 2.5 Q116 15 93 36.5 Q70 58 57.5 86.5 Q45 115 45 148 Q45 178 57 204.5 Q69 231 93.5 251.5 Q118 272 156 283.5 Q194 295 247 295 L402 295 L402 308 Q402 332 394.5 353.5 Q387 375 372 391.5 Q357 408 334.5 418 Q312 428 281 428 Q246 428 216 414.5 Q186 401 163 376 L97 433 Q130 469 177 493.5 Q224 518 281 519 Q335 519 375.5 502 Q416 485 443.5 455.5 Q471 426 485 388 Q499 350 499 308 L499 0 L402 0 L402 88 Z M145 148 Q145 115 173 94.5 Q201 74 246 74 Q274 74 302 84 Q330 94 352 112 Q374 130 388 156.5 Q402 183 402 216 L247 216 Q194 216 169.5 196.5 Q145 177 145 148 Z M288 568 L261 595 L372 737 Q383 751 402 752 Q421 753 434 741 Q447 728 446 708.5 Q445 689 430 678 L288 568 Z " />
<glyph glyph-name="abreve" unicode="&#x103;" horiz-adv-x="572" d="M402 88 Q380 46 334 18 Q288 -10 227 -10 Q184 -10 150 2.5 Q116 15 93 36.5 Q70 58 57.5 86.5 Q45 115 45 148 Q45 178 57 204.5 Q69 231 93.5 251.5 Q118 272 156 283.5 Q194 295 247 295 L402 295 L402 308 Q402 332 394.5 353.5 Q387 375 372 391.5 Q357 408 334.5 418 Q312 428 281 428 Q246 428 216 414.5 Q186 401 163 376 L97 433 Q130 469 177 493.5 Q224 518 281 519 Q335 519 375.5 502 Q416 485 443.5 455.5 Q471 426 485 388 Q499 350 499 308 L499 0 L402 0 L402 88 Z M145 148 Q145 115 173 94.5 Q201 74 246 74 Q274 74 302 84 Q330 94 352 112 Q374 130 388 156.5 Q402 183 402 216 L247 216 Q194 216 169.5 196.5 Q145 177 145 148 Z M169 696 L231 696 L231 677 Q231 654 247 638 Q263 622 286 622 Q309 622 324.5 638 Q340 654 340 677 L340 696 L403 696 L403 681 Q403 657 394 635.5 Q385 614 369 598 Q353 582 331.5 573 Q310 564 286 564 Q262 564 240.5 573 Q219 582 203 598 Q187 614 178 635.5 Q169 657 169 681 L169 696 Z " />
<glyph glyph-name="acircumflex" unicode="&#xe2;" horiz-adv-x="572" d="M402 88 Q380 46 334 18 Q288 -10 227 -10 Q184 -10 150 2.5 Q116 15 93 36.5 Q70 58 57.5 86.5 Q45 115 45 148 Q45 178 57 204.5 Q69 231 93.5 251.5 Q118 272 156 283.5 Q194 295 247 295 L402 295 L402 308 Q402 332 394.5 353.5 Q387 375 372 391.5 Q357 408 334.5 418 Q312 428 281 428 Q246 428 216 414.5 Q186 401 163 376 L97 433 Q130 469 177 493.5 Q224 518 281 519 Q335 519 375.5 502 Q416 485 443.5 455.5 Q471 426 485 388 Q499 350 499 308 L499 0 L402 0 L402 88 Z M145 148 Q145 115 173 94.5 Q201 74 246 74 Q274 74 302 84 Q330 94 352 112 Q374 130 388 156.5 Q402 183 402 216 L247 216 Q194 216 169.5 196.5 Q145 177 145 148 Z M285 662 L187 564 L150 601 L286 737 L422 601 L384 564 L285 662 Z " />
<glyph glyph-name="adieresis" unicode="&#xe4;" horiz-adv-x="572" d="M402 88 Q380 46 334 18 Q288 -10 227 -10 Q184 -10 150 2.5 Q116 15 93 36.5 Q70 58 57.5 86.5 Q45 115 45 148 Q45 178 57 204.5 Q69 231 93.5 251.5 Q118 272 156 283.5 Q194 295 247 295 L402 295 L402 308 Q402 332 394.5 353.5 Q387 375 372 391.5 Q357 408 334.5 418 Q312 428 281 428 Q246 428 216 414.5 Q186 401 163 376 L97 433 Q130 469 177 493.5 Q224 518 281 519 Q335 519 375.5 502 Q416 485 443.5 455.5 Q471 426 485 388 Q499 350 499 308 L499 0 L402 0 L402 88 Z M145 148 Q145 115 173 94.5 Q201 74 246 74 Q274 74 302 84 Q330 94 352 112 Q374 130 388 156.5 Q402 183 402 216 L247 216 Q194 216 169.5 196.5 Q145 177 145 148 Z M113 663 Q113 692 134 713 Q155 734 184 734 Q214 734 235 713 Q256 692 256 663 Q256 634 235 613 Q214 592 184 592 Q155 592 134 613 Q113 634 113 663 Z M316 663 Q316 692 337 713 Q358 734 387 734 Q417 734 438 713 Q459 692 459 663 Q459 634 438 613 Q417 592 387 592 Q358 592 337 613 Q316 634 316 663 Z " />
<glyph glyph-name="agrave" unicode="&#xe0;" horiz-adv-x="572" d="M402 88 Q380 46 334 18 Q288 -10 227 -10 Q184 -10 150 2.5 Q116 15 93 36.5 Q70 58 57.5 86.5 Q45 115 45 148 Q45 178 57 204.5 Q69 231 93.5 251.5 Q118 272 156 283.5 Q194 295 247 295 L402 295 L402 308 Q402 332 394.5 353.5 Q387 375 372 391.5 Q357 408 334.5 418 Q312 428 281 428 Q246 428 216 414.5 Q186 401 163 376 L97 433 Q130 469 177 493.5 Q224 518 281 519 Q335 519 375.5 502 Q416 485 443.5 455.5 Q471 426 485 388 Q499 350 499 308 L499 0 L402 0 L402 88 Z M145 148 Q145 115 173 94.5 Q201 74 246 74 Q274 74 302 84 Q330 94 352 112 Q374 130 388 156.5 Q402 183 402 216 L247 216 Q194 216 169.5 196.5 Q145 177 145 148 Z M148 678 Q134 689 133 708.5 Q132 728 145 741 Q158 753 177 752 Q196 751 207 737 L318 595 L290 568 L148 678 Z " />
<glyph glyph-name="amacron" unicode="&#x101;" horiz-adv-x="572" d="M402 88 Q380 46 334 18 Q288 -10 227 -10 Q184 -10 150 2.5 Q116 15 93 36.5 Q70 58 57.5 86.5 Q45 115 45 148 Q45 178 57 204.5 Q69 231 93.5 251.5 Q118 272 156 283.5 Q194 295 247 295 L402 295 L402 308 Q402 332 394.5 353.5 Q387 375 372 391.5 Q357 408 334.5 418 Q312 428 281 428 Q246 428 216 414.5 Q186 401 163 376 L97 433 Q130 469 177 493.5 Q224 518 281 519 Q335 519 375.5 502 Q416 485 443.5 455.5 Q471 426 485 388 Q499 350 499 308 L499 0 L402 0 L402 88 Z M145 148 Q145 115 173 94.5 Q201 74 246 74 Q274 74 302 84 Q330 94 352 112 Q374 130 388 156.5 Q402 183 402 216 L247 216 Q194 216 169.5 196.5 Q145 177 145 148 Z M437 592 L134 592 L134 654 L437 654 L437 592 Z " />
<glyph glyph-name="aogonek" unicode="&#x105;" horiz-adv-x="572" d="M402 88 Q380 46 334 18 Q288 -10 227 -10 L222 -10 Q193 -11 174 -31 Q155 -51 155 -80 Q155 -109 174.5 -129 Q194 -149 223 -149 Q251 -149 271 -129 Q291 -109 291 -80 L344 -80 Q344 -106 334.5 -128 Q325 -150 308.5 -166.5 Q292 -183 270 -192.5 Q248 -202 223 -202 Q198 -202 176 -192.5 Q154 -183 137.5 -166.5 Q121 -150 111.5 -128 Q102 -106 102 -80 Q102 -54 112 -31.5 Q122 -9 139 8 Q94 28 69.5 65 Q45 102 45 148 Q45 178 57 204.5 Q69 231 93.5 251.5 Q118 272 156 283.5 Q194 295 247 295 L402 295 L402 303 Q402 328 395 350.5 Q388 373 373.5 390 Q359 407 336 417.5 Q313 428 281 428 Q246 428 216 414.5 Q186 401 163 376 L97 433 Q129 469 176.5 494 Q224 519 281 519 Q335 519 375.5 502 Q416 485 443.5 455.5 Q471 426 485 388 Q499 350 499 308 L499 0 L402 0 L402 88 Z M145 148 Q145 115 173 94.5 Q201 74 246 74 Q274 74 302 84 Q330 94 352 112 Q374 130 388 156.5 Q402 183 402 216 L247 216 Q194 216 169.5 196.5 Q145 177 145 148 Z " />
<glyph glyph-name="aring" unicode="&#xe5;" horiz-adv-x="572" d="M402 88 Q380 46 334 18 Q288 -10 227 -10 Q184 -10 150 2.5 Q116 15 93 36.5 Q70 58 57.5 86.5 Q45 115 45 148 Q45 178 57 204.5 Q69 231 93.5 251.5 Q118 272 156 283.5 Q194 295 247 295 L402 295 L402 308 Q402 332 394.5 353.5 Q387 375 372 391.5 Q357 408 334.5 418 Q312 428 281 428 Q246 428 216 414.5 Q186 401 163 376 L97 433 Q130 469 177 493.5 Q224 518 281 519 Q335 519 375.5 502 Q416 485 443.5 455.5 Q471 426 485 388 Q499 350 499 308 L499 0 L402 0 L402 88 Z M145 148 Q145 115 173 94.5 Q201 74 246 74 Q274 74 302 84 Q330 94 352 112 Q374 130 388 156.5 Q402 183 402 216 L247 216 Q194 216 169.5 196.5 Q145 177 145 148 Z M190 672 Q190 712 218 740 Q246 768 286 768 Q326 768 354 740 Q382 712 382 672 Q382 632 354 604 Q326 576 286 576 Q246 576 218 604 Q190 632 190 672 Z M242 672 Q242 653 254.5 640.5 Q267 628 286 628 Q304 628 317 640.5 Q330 653 330 672 Q330 691 317 703.5 Q304 716 286 716 Q267 716 254.5 703.5 Q242 691 242 672 Z " />
<glyph glyph-name="atilde" unicode="&#xe3;" horiz-adv-x="572" d="M402 88 Q380 46 334 18 Q288 -10 227 -10 Q184 -10 150 2.5 Q116 15 93 36.5 Q70 58 57.5 86.5 Q45 115 45 148 Q45 178 57 204.5 Q69 231 93.5 251.5 Q118 272 156 283.5 Q194 295 247 295 L402 295 L402 308 Q402 332 394.5 353.5 Q387 375 372 391.5 Q357 408 334.5 418 Q312 428 281 428 Q246 428 216 414.5 Q186 401 163 376 L97 433 Q130 469 177 493.5 Q224 518 281 519 Q335 519 375.5 502 Q416 485 443.5 455.5 Q471 426 485 388 Q499 350 499 308 L499 0 L402 0 L402 88 Z M145 148 Q145 115 173 94.5 Q201 74 246 74 Q274 74 302 84 Q330 94 352 112 Q374 130 388 156.5 Q402 183 402 216 L247 216 Q194 216 169.5 196.5 Q145 177 145 148 Z M346 708 Q390 708 416.5 678 Q443 648 442 607 L386 607 Q386 629 375 642 Q364 655 346 655 Q331 655 319.5 645.5 Q308 636 295.5 624 Q283 612 266.5 602.5 Q250 593 225 593 Q180 593 154.5 622.5 Q129 652 129 693 L185 693 Q185 670 195.5 657.5 Q206 645 225 645 Q239 645 250.5 655 Q262 665 275 676.5 Q288 688 304.5 698 Q321 708 346 708 Z " />
<glyph glyph-name="aeacute" unicode="&#x1fd;" horiz-adv-x="950" d="M911 252 Q911 244 910 233 Q909 222 907 215 L499 215 Q499 188 512 163.5 Q525 139 547 120.5 Q569 102 598 91.5 Q627 81 659 81 Q700 81 733.5 96 Q767 111 792 135 L863 77 Q825 35 773 12.5 Q721 -10 658 -10 Q595 -10 536.5 19.5 Q478 49 444 107 Q406 45 350.5 17.5 Q295 -10 238 -10 Q194 -10 158 2.5 Q122 15 97 36 Q72 57 58.5 86 Q45 115 45 148 Q45 178 57 204.5 Q69 231 94 251 Q119 271 157 283 Q195 295 247 295 L402 295 L402 308 Q402 332 394.5 353.5 Q387 375 372 391.5 Q357 408 334.5 418 Q312 428 281 428 Q244 428 216 412.5 Q188 397 163 369 L97 426 Q112 445 132.5 462 Q153 479 177 491.5 Q201 504 227.5 511.5 Q254 519 281 519 Q345 519 390 493 Q435 467 460 425 Q489 467 538.5 494.5 Q588 522 651 522 Q710 522 758 501 Q806 480 840 443.5 Q874 407 892.5 358 Q911 309 911 252 Z M653 433 Q617 433 588.5 421.5 Q560 410 540 390.5 Q520 371 509.5 346 Q499 321 499 295 L808 295 Q808 319 797 344 Q786 369 765.5 388.5 Q745 408 716.5 420.5 Q688 433 653 433 Z M145 148 Q145 115 173 94.5 Q201 74 246 74 Q274 74 302 84 Q330 94 352 112 Q374 130 388 156.5 Q402 183 402 216 L247 216 Q194 216 169.5 196.5 Q145 177 145 148 Z M407 568 L380 595 L483 729 Q496 745 516.5 750.5 Q537 756 553 741 Q565 728 564 708.5 Q563 689 549 678 L407 568 Z " />
<glyph glyph-name="cacute" unicode="&#x107;" horiz-adv-x="534" d="M503 67 Q467 31 420.5 10.5 Q374 -10 316 -10 Q261 -10 212.5 11 Q164 32 128 68 Q92 104 71 152.5 Q50 201 50 256 Q50 311 71 359.5 Q92 408 128 444 Q164 480 212.5 501 Q261 522 316 522 Q376 522 424.5 499.5 Q473 477 508 440 L440 373 Q417 396 384.5 410 Q352 424 316 424 Q281 424 250.5 410.5 Q220 397 197 374.5 Q174 352 161 321 Q148 290 148 256 Q148 221 161 190.5 Q174 160 197 137 Q220 114 250.5 101 Q281 88 316 88 Q352 88 383 101 Q414 114 437 136 L503 67 Z M299 568 L272 595 L383 737 Q394 751 413 752 Q432 753 445 741 Q458 728 457 708.5 Q456 689 441 678 L299 568 Z " />
<glyph glyph-name="ccaron" unicode="&#x10d;" horiz-adv-x="534" d="M503 67 Q467 31 420.5 10.5 Q374 -10 316 -10 Q261 -10 212.5 11 Q164 32 128 68 Q92 104 71 152.5 Q50 201 50 256 Q50 311 71 359.5 Q92 408 128 444 Q164 480 212.5 501 Q261 522 316 522 Q376 522 424.5 499.5 Q473 477 508 440 L440 373 Q417 396 384.5 410 Q352 424 316 424 Q281 424 250.5 410.5 Q220 397 197 374.5 Q174 352 161 321 Q148 290 148 256 Q148 221 161 190.5 Q174 160 197 137 Q220 114 250.5 101 Q281 88 316 88 Q352 88 383 101 Q414 114 437 136 L503 67 Z M268 639 L365 737 L403 700 L267 564 L131 700 L168 737 L268 639 Z " />
<glyph glyph-name="ccedilla" unicode="&#xe7;" horiz-adv-x="534" d="M503 67 Q471 35 430 15 Q389 -5 340 -9 L340 -38 Q369 -46 389.5 -71 Q410 -96 410 -130 Q410 -171 382 -198.5 Q354 -226 314 -226 Q294 -226 277 -218.5 Q260 -211 246 -198 L283 -162 Q297 -174 314 -174 Q332 -174 344.5 -161.5 Q357 -149 357 -130 Q357 -111 344.5 -99 Q332 -87 313 -87 Q294 -87 282 -99 L246 -62 Q254 -54 264.5 -47 Q275 -40 288 -38 L288 -8 Q238 -3 194.5 19.5 Q151 42 119 77.5 Q87 113 68.5 159 Q50 205 50 256 Q50 311 71 359.5 Q92 408 128 444 Q164 480 212.5 501 Q261 522 316 522 Q376 522 424.5 499.5 Q473 477 508 440 L440 373 Q417 396 384.5 410 Q352 424 316 424 Q281 424 250.5 410.5 Q220 397 197 374.5 Q174 352 161 321 Q148 290 148 256 Q148 222 161 191.5 Q174 161 196 138.5 Q218 116 248 102.5 Q278 89 312 88 L312 89 L319 89 L319 88 Q354 89 384 102 Q414 115 437 136 L503 67 Z " />
<glyph glyph-name="ccircumflex" unicode="&#x109;" horiz-adv-x="534" d="M503 67 Q467 31 420.5 10.5 Q374 -10 316 -10 Q261 -10 212.5 11 Q164 32 128 68 Q92 104 71 152.5 Q50 201 50 256 Q50 311 71 359.5 Q92 408 128 444 Q164 480 212.5 501 Q261 522 316 522 Q376 522 424.5 499.5 Q473 477 508 440 L440 373 Q417 396 384.5 410 Q352 424 316 424 Q281 424 250.5 410.5 Q220 397 197 374.5 Q174 352 161 321 Q148 290 148 256 Q148 221 161 190.5 Q174 160 197 137 Q220 114 250.5 101 Q281 88 316 88 Q352 88 383 101 Q414 114 437 136 L503 67 Z M306 662 L208 564 L171 601 L307 737 L443 601 L405 564 L306 662 Z " />
<glyph glyph-name="cdotaccent" unicode="&#x10b;" horiz-adv-x="534" d="M503 67 Q467 31 420.5 10.5 Q374 -10 316 -10 Q261 -10 212.5 11 Q164 32 128 68 Q92 104 71 152.5 Q50 201 50 256 Q50 311 71 359.5 Q92 408 128 444 Q164 480 212.5 501 Q261 522 316 522 Q376 522 424.5 499.5 Q473 477 508 440 L440 373 Q417 396 384.5 410 Q352 424 316 424 Q281 424 250.5 410.5 Q220 397 197 374.5 Q174 352 161 321 Q148 290 148 256 Q148 221 161 190.5 Q174 160 197 137 Q220 114 250.5 101 Q281 88 316 88 Q352 88 383 101 Q414 114 437 136 L503 67 Z M235 663 Q235 692 256.5 713 Q278 734 307 734 Q336 734 357 713 Q378 692 378 663 Q378 634 357 613 Q336 592 307 592 Q278 592 256.5 613 Q235 634 235 663 Z " />
<glyph glyph-name="eacute" unicode="&#xe9;" horiz-adv-x="608" d="M566 252 Q566 244 565 233 Q564 222 562 215 L154 215 Q154 188 167 163.5 Q180 139 202 120.5 Q224 102 253 91.5 Q282 81 314 81 Q356 81 389.5 96 Q423 111 447 135 L519 77 Q481 35 428.5 12.5 Q376 -10 313 -10 Q265 -10 218.5 6.5 Q172 23 134.5 56.5 Q97 90 74 140 Q51 190 51 256 Q51 311 69.5 359.5 Q88 408 121.5 444 Q155 480 202 501 Q249 522 307 522 Q365 522 413 501 Q461 480 495 443.5 Q529 407 547.5 358 Q566 309 566 252 Z M308 433 Q272 433 243.5 421 Q215 409 195 389.5 Q175 370 164.5 345.5 Q154 321 154 295 L463 295 Q463 319 452 344 Q441 369 420.5 388.5 Q400 408 371.5 420.5 Q343 433 308 433 Z M306 568 L279 595 L383 729 Q395 745 415.5 750.5 Q436 756 452 741 Q465 728 464 708.5 Q463 689 448 678 L306 568 Z " />
<glyph glyph-name="ebreve" unicode="&#x115;" horiz-adv-x="608" d="M566 252 Q566 244 565 233 Q564 222 562 215 L154 215 Q154 188 167 163.5 Q180 139 202 120.5 Q224 102 253 91.5 Q282 81 314 81 Q356 81 389.5 96 Q423 111 447 135 L519 77 Q481 35 428.5 12.5 Q376 -10 313 -10 Q265 -10 218.5 6.5 Q172 23 134.5 56.5 Q97 90 74 140 Q51 190 51 256 Q51 311 69.5 359.5 Q88 408 121.5 444 Q155 480 202 501 Q249 522 307 522 Q365 522 413 501 Q461 480 495 443.5 Q529 407 547.5 358 Q566 309 566 252 Z M187 696 L249 696 L249 677 Q249 654 265 638 Q281 622 304 622 Q327 622 342.5 637.5 Q358 653 358 677 L358 696 L421 696 L421 681 Q421 657 412 635.5 Q403 614 387 598 Q371 582 349.5 573 Q328 564 304 564 Q280 564 258.5 573 Q237 582 221 598 Q205 614 196 635.5 Q187 657 187 681 L187 696 Z M308 433 Q272 433 243.5 421 Q215 409 195 389.5 Q175 370 164.5 345.5 Q154 321 154 295 L463 295 Q463 319 452 344 Q441 369 420.5 388.5 Q400 408 371.5 420.5 Q343 433 308 433 Z " />
<glyph glyph-name="ecaron" unicode="&#x11b;" horiz-adv-x="608" d="M566 252 Q566 244 565 233 Q564 222 562 215 L154 215 Q154 188 167 163.5 Q180 139 202 120.5 Q224 102 253 91.5 Q282 81 314 81 Q356 81 389.5 96 Q423 111 447 135 L519 77 Q481 35 428.5 12.5 Q376 -10 313 -10 Q265 -10 218.5 6.5 Q172 23 134.5 56.5 Q97 90 74 140 Q51 190 51 256 Q51 311 69.5 359.5 Q88 408 121.5 444 Q155 480 202 501 Q249 522 307 522 Q365 522 413 501 Q461 480 495 443.5 Q529 407 547.5 358 Q566 309 566 252 Z M305 639 L402 737 L440 700 L304 564 L168 700 L205 737 L305 639 Z M308 433 Q272 433 243.5 421 Q215 409 195 389.5 Q175 370 164.5 345.5 Q154 321 154 295 L463 295 Q463 319 452 344 Q441 369 420.5 388.5 Q400 408 371.5 420.5 Q343 433 308 433 Z " />
<glyph glyph-name="ecircumflex" unicode="&#xea;" horiz-adv-x="608" d="M566 252 Q566 244 565 233 Q564 222 562 215 L154 215 Q154 188 167 163.5 Q180 139 202 120.5 Q224 102 253 91.5 Q282 81 314 81 Q356 81 389.5 96 Q423 111 447 135 L519 77 Q481 35 428.5 12.5 Q376 -10 313 -10 Q265 -10 218.5 6.5 Q172 23 134.5 56.5 Q97 90 74 140 Q51 190 51 256 Q51 311 69.5 359.5 Q88 408 121.5 444 Q155 480 202 501 Q249 522 307 522 Q365 522 413 501 Q461 480 495 443.5 Q529 407 547.5 358 Q566 309 566 252 Z M303 662 L205 564 L168 601 L304 737 L440 601 L402 564 L303 662 Z M308 433 Q272 433 243.5 421 Q215 409 195 389.5 Q175 370 164.5 345.5 Q154 321 154 295 L463 295 Q463 319 452 344 Q441 369 420.5 388.5 Q400 408 371.5 420.5 Q343 433 308 433 Z " />
<glyph glyph-name="edieresis" unicode="&#xeb;" horiz-adv-x="608" d="M566 252 Q566 244 565 233 Q564 222 562 215 L154 215 Q154 188 167 163.5 Q180 139 202 120.5 Q224 102 253 91.5 Q282 81 314 81 Q356 81 389.5 96 Q423 111 447 135 L519 77 Q481 35 428.5 12.5 Q376 -10 313 -10 Q265 -10 218.5 6.5 Q172 23 134.5 56.5 Q97 90 74 140 Q51 190 51 256 Q51 311 69.5 359.5 Q88 408 121.5 444 Q155 480 202 501 Q249 522 307 522 Q365 522 413 501 Q461 480 495 443.5 Q529 407 547.5 358 Q566 309 566 252 Z M334 663 Q334 692 355 713 Q376 734 405 734 Q435 734 456 713 Q477 692 477 663 Q477 634 456 613 Q435 592 405 592 Q376 592 355 613 Q334 634 334 663 Z M131 663 Q131 692 152 713 Q173 734 202 734 Q232 734 253 713 Q274 692 274 663 Q274 634 253 613 Q232 592 202 592 Q173 592 152 613 Q131 634 131 663 Z M308 433 Q272 433 243.5 421 Q215 409 195 389.5 Q175 370 164.5 345.5 Q154 321 154 295 L463 295 Q463 319 452 344 Q441 369 420.5 388.5 Q400 408 371.5 420.5 Q343 433 308 433 Z " />
<glyph glyph-name="edotaccent" unicode="&#x117;" horiz-adv-x="608" d="M566 252 Q566 244 565 233 Q564 222 562 215 L154 215 Q154 188 167 163.5 Q180 139 202 120.5 Q224 102 253 91.5 Q282 81 314 81 Q356 81 389.5 96 Q423 111 447 135 L519 77 Q481 35 428.5 12.5 Q376 -10 313 -10 Q265 -10 218.5 6.5 Q172 23 134.5 56.5 Q97 90 74 140 Q51 190 51 256 Q51 311 69.5 359.5 Q88 408 121.5 444 Q155 480 202 501 Q249 522 307 522 Q365 522 413 501 Q461 480 495 443.5 Q529 407 547.5 358 Q566 309 566 252 Z M232 663 Q232 692 253.5 713 Q275 734 304 734 Q333 734 354 713 Q375 692 375 663 Q375 634 354 613 Q333 592 304 592 Q275 592 253.5 613 Q232 634 232 663 Z M308 433 Q272 433 243.5 421 Q215 409 195 389.5 Q175 370 164.5 345.5 Q154 321 154 295 L463 295 Q463 319 452 344 Q441 369 420.5 388.5 Q400 408 371.5 420.5 Q343 433 308 433 Z " />
<glyph glyph-name="egrave" unicode="&#xe8;" horiz-adv-x="608" d="M566 252 Q566 244 565 233 Q564 222 562 215 L154 215 Q154 188 167 163.5 Q180 139 202 120.5 Q224 102 253 91.5 Q282 81 314 81 Q356 81 389.5 96 Q423 111 447 135 L519 77 Q481 35 428.5 12.5 Q376 -10 313 -10 Q265 -10 218.5 6.5 Q172 23 134.5 56.5 Q97 90 74 140 Q51 190 51 256 Q51 311 69.5 359.5 Q88 408 121.5 444 Q155 480 202 501 Q249 522 307 522 Q365 522 413 501 Q461 480 495 443.5 Q529 407 547.5 358 Q566 309 566 252 Z M308 433 Q272 433 243.5 421 Q215 409 195 389.5 Q175 370 164.5 345.5 Q154 321 154 295 L463 295 Q463 319 452 344 Q441 369 420.5 388.5 Q400 408 371.5 420.5 Q343 433 308 433 Z M159 678 Q145 689 144 708.5 Q143 728 156 741 Q165 750 178.5 752 Q192 754 203 748 Q215 742 224 730 L329 595 L301 568 L159 678 Z " />
<glyph glyph-name="emacron" unicode="&#x113;" horiz-adv-x="608" d="M566 252 Q566 244 565 233 Q564 222 562 215 L154 215 Q154 188 167 163.5 Q180 139 202 120.5 Q224 102 253 91.5 Q282 81 314 81 Q356 81 389.5 96 Q423 111 447 135 L519 77 Q481 35 428.5 12.5 Q376 -10 313 -10 Q265 -10 218.5 6.5 Q172 23 134.5 56.5 Q97 90 74 140 Q51 190 51 256 Q51 311 69.5 359.5 Q88 408 121.5 444 Q155 480 202 501 Q249 522 307 522 Q365 522 413 501 Q461 480 495 443.5 Q529 407 547.5 358 Q566 309 566 252 Z M455 592 L152 592 L152 654 L455 654 L455 592 Z M308 433 Q272 433 243.5 421 Q215 409 195 389.5 Q175 370 164.5 345.5 Q154 321 154 295 L463 295 Q463 319 452 344 Q441 369 420.5 388.5 Q400 408 371.5 420.5 Q343 433 308 433 Z " />
<glyph glyph-name="eogonek" unicode="&#x119;" horiz-adv-x="608" d="M192 -80 Q192 -55 201 -33 Q210 -11 226 4 Q190 16 158.5 37.5 Q127 59 103 90.5 Q79 122 65 163.5 Q51 205 51 256 Q51 311 69.5 359.5 Q88 408 121.5 444 Q155 480 202 501 Q249 522 307 522 Q365 522 413 501 Q461 480 495 443.5 Q529 407 547.5 358 Q566 309 566 252 Q566 244 565 233 Q564 222 562 215 L154 215 Q154 188 167 163.5 Q180 139 202 120.5 Q224 102 253 91.5 Q282 81 314 81 Q356 81 389.5 96 Q423 111 447 135 L519 77 Q481 35 428.5 12.5 Q376 -10 313 -10 L308 -10 Q281 -12 263 -32 Q245 -52 245 -80 Q245 -109 264.5 -129 Q284 -149 313 -149 Q341 -149 361 -129 Q381 -109 381 -80 L434 -80 Q434 -105 424.5 -127.5 Q415 -150 398.5 -166.5 Q382 -183 360 -192.5 Q338 -202 313 -202 Q288 -202 266 -192.5 Q244 -183 227.5 -166.5 Q211 -150 201.5 -127.5 Q192 -105 192 -80 Z M308 433 Q272 433 243.5 421 Q215 409 195 389.5 Q175 370 164.5 345.5 Q154 321 154 295 L463 295 Q463 319 452 344 Q441 369 420.5 388.5 Q400 408 371.5 420.5 Q343 433 308 433 Z " />
<glyph glyph-name="fi" unicode="&#xfb01;" horiz-adv-x="656" d="M463 581 Q463 609 456 633.5 Q449 658 434 676 Q419 694 395.5 704.5 Q372 715 339 715 Q285 715 250.5 679.5 Q216 644 216 581 L216 512 L377 512 L377 424 L216 424 L216 0 L117 0 L117 424 L20 424 L20 512 L117 512 L117 581 Q117 628 133.5 669.5 Q150 711 179 741.5 Q208 772 249 790 Q290 808 340 808 Q392 808 433 790.5 Q474 773 503 742 Q532 711 547.5 670 Q563 629 563 581 L463 581 Z M563 512 L563 0 L463 0 L463 512 L563 512 Z " />
<glyph glyph-name="dotlessi" unicode="&#x131;" horiz-adv-x="286" d="M193 512 L193 0 L93 0 L93 512 L193 512 Z " />
<glyph glyph-name="iacute" unicode="&#xed;" horiz-adv-x="286" d="M193 512 L193 0 L93 0 L93 512 L193 512 Z M145 568 L118 595 L229 737 Q240 751 259 752 Q278 753 291 741 Q304 728 303 708.5 Q302 689 287 678 L145 568 Z " />
<glyph glyph-name="ibreve" unicode="&#x12d;" horiz-adv-x="286" d="M193 512 L193 0 L93 0 L93 512 L193 512 Z M26 696 L88 696 L88 677 Q88 654 104 638 Q120 622 143 622 Q166 622 181.5 638 Q197 654 197 677 L197 696 L260 696 L260 681 Q260 657 251 635.5 Q242 614 226 598 Q210 582 188.5 573 Q167 564 143 564 Q119 564 97.5 573 Q76 582 60 598 Q44 614 35 635.5 Q26 657 26 681 L26 696 Z " />
<glyph glyph-name="icircumflex" unicode="&#xee;" horiz-adv-x="286" d="M193 512 L193 0 L93 0 L93 512 L193 512 Z M142 662 L44 564 L7 601 L143 737 L279 601 L241 564 L142 662 Z " />
<glyph glyph-name="idieresis" unicode="&#xef;" horiz-adv-x="286" d="M193 512 L193 0 L93 0 L93 512 L193 512 Z M-30 663 Q-30 692 -9 713 Q12 734 41 734 Q71 734 92 713 Q113 692 113 663 Q113 634 92 613 Q71 592 41 592 Q12 592 -9 613 Q-30 634 -30 663 Z M173 663 Q173 692 194 713 Q215 734 244 734 Q274 734 295 713 Q316 692 316 663 Q316 634 295 613 Q274 592 244 592 Q215 592 194 613 Q173 634 173 663 Z " />
<glyph glyph-name="igrave" unicode="&#xec;" horiz-adv-x="286" d="M193 512 L193 0 L93 0 L93 512 L193 512 Z M-2 678 Q-16 689 -17 708.5 Q-18 728 -5 741 Q8 753 27 752 Q46 751 57 737 L168 595 L140 568 L-2 678 Z " />
<glyph glyph-name="imacron" unicode="&#x12b;" horiz-adv-x="286" d="M193 512 L193 0 L93 0 L93 512 L193 512 Z M294 592 L-9 592 L-9 654 L294 654 L294 592 Z " />
<glyph glyph-name="iogonek" unicode="&#x12f;" horiz-adv-x="286" d="M22 -70 Q22 -32 41.5 -3 Q61 26 93 40 L93 512 L193 512 L193 0 L138 0 Q111 -2 93 -22 Q75 -42 75 -70 Q75 -99 94.5 -119 Q114 -139 143 -139 Q171 -139 191 -119 Q211 -99 211 -70 L264 -70 Q264 -95 254.5 -117.5 Q245 -140 228.5 -156.5 Q212 -173 190 -182.5 Q168 -192 143 -192 Q118 -192 96 -182.5 Q74 -173 57.5 -156.5 Q41 -140 31.5 -117.5 Q22 -95 22 -70 Z M73 708 Q73 737 93.5 757.5 Q114 778 143 778 Q172 778 192.5 757.5 Q213 737 213 708 Q213 679 192.5 658.5 Q172 638 143 638 Q114 638 93.5 658.5 Q73 679 73 708 Z " />
<glyph glyph-name="itilde" unicode="&#x129;" horiz-adv-x="286" d="M193 512 L193 0 L93 0 L93 512 L193 512 Z M204 708 Q248 708 274 678 Q300 648 299 607 L243 607 Q243 629 232.5 642 Q222 655 204 655 Q189 655 177.5 645.5 Q166 636 153 624 Q140 612 123.5 602.5 Q107 593 82 593 Q37 593 11.5 622.5 Q-14 652 -14 693 L43 693 Q43 670 53 657.5 Q63 645 82 645 Q96 645 107.5 655 Q119 665 132 676.5 Q145 688 162 698 Q179 708 204 708 Z " />
<glyph glyph-name="ij" unicode="&#x133;" horiz-adv-x="586" d="M193 512 L193 0 L93 0 L93 512 L193 512 Z M73 708 Q73 737 93.5 757.5 Q114 778 143 778 Q172 778 192.5 757.5 Q213 737 213 708 Q213 679 192.5 658.5 Q172 638 143 638 Q114 638 93.5 658.5 Q73 679 73 708 Z M386 -251 L386 512 L485 512 L485 -251 L386 -251 Z M366 708 Q366 737 386.5 757.5 Q407 778 436 778 Q465 778 485.5 757.5 Q506 737 506 708 Q506 679 485.5 658.5 Q465 638 436 638 Q407 638 386.5 658.5 Q366 679 366 708 Z " />
<glyph glyph-name="lacute" unicode="&#x13a;" horiz-adv-x="267" d="M83 0 L83 768 L184 768 L184 0 L83 0 Z M139 791 L112 818 L223 960 Q234 974 253 975 Q272 976 285 964 Q298 951 297 931.5 Q296 912 282 901 L139 791 Z " />
<glyph glyph-name="lcaron" unicode="&#x13e;" horiz-adv-x="472" d="M83 0 L83 768 L184 768 L184 0 L83 0 Z M314 499 L358 593 Q333 598 316.5 618 Q300 638 300 664 Q300 693 321 714 Q342 735 371 735 Q391 735 406.5 725.5 Q422 716 431 700.5 Q440 685 441 665.5 Q442 646 433 627 L361 476 L314 499 Z " />
<glyph glyph-name="lcommaaccent" unicode="&#x13c;" horiz-adv-x="267" d="M83 0 L83 768 L184 768 L184 0 L83 0 Z M88 -231 L121 -162 Q104 -158 92.5 -145 Q81 -132 81 -114 Q81 -93 95 -78.5 Q109 -64 129 -64 Q143 -64 154 -70.5 Q165 -77 171 -88 Q177 -99 177.5 -112.5 Q178 -126 172 -139 L121 -247 L88 -231 Z " />
<glyph glyph-name="ldot" unicode="&#x140;" horiz-adv-x="447" d="M281 367 Q281 397 302 418 Q323 439 352 439 Q382 439 403 418 Q424 397 424 367 Q424 338 403 317 Q382 296 352 296 Q323 296 302 317 Q281 338 281 367 Z M83 0 L83 768 L184 768 L184 0 L83 0 Z " />
<glyph glyph-name="lslash" unicode="&#x142;" horiz-adv-x="267" d="M83 0 L83 301 L-9 277 L-25 335 L83 364 L83 768 L184 768 L184 390 L278 416 L294 358 L184 328 L184 0 L83 0 Z " />
<glyph glyph-name="kcommaaccent" unicode="&#x137;" horiz-adv-x="553" d="M182 768 L182 305 L291 305 L418 512 L527 512 L373 256 L527 0 L418 0 L291 207 L182 207 L182 0 L83 0 L83 768 L182 768 Z M231 -231 L263 -162 Q246 -158 234.5 -145 Q223 -132 223 -114 Q223 -93 237.5 -78.5 Q252 -64 272 -64 Q286 -64 297 -70.5 Q308 -77 314 -88 Q320 -99 320.5 -112.5 Q321 -126 315 -139 L264 -247 L231 -231 Z " />
<glyph glyph-name="hbar" unicode="&#x127;" horiz-adv-x="658" d="M593 0 L494 0 L494 266 Q494 298 482 326.5 Q470 355 449 376 Q428 397 399.5 409.5 Q371 422 339 422 Q307 422 279 409 Q251 396 229.5 374 Q208 352 195.5 322.5 Q183 293 183 260 L183 0 L83 0 L83 573 L-8 549 L-24 607 L83 635 L83 768 L183 768 L183 662 L279 688 L295 630 L183 599 L183 424 Q212 467 257 493.5 Q302 520 356 519 Q405 519 448 499 Q491 479 523 444.5 Q555 410 574 363.5 Q593 317 593 263 L593 0 Z " />
<glyph glyph-name="hcircumflex" unicode="&#x125;" horiz-adv-x="658" d="M593 0 L494 0 L494 266 Q494 298 482 326.5 Q470 355 449 376 Q428 397 399.5 409.5 Q371 422 339 422 Q307 422 279 409 Q251 396 229.5 374 Q208 352 195.5 322.5 Q183 293 183 260 L183 0 L83 0 L83 768 L183 768 L183 424 Q212 467 257 493.5 Q302 520 356 519 Q405 519 448 499 Q491 479 523 444.5 Q555 410 574 363.5 Q593 317 593 263 L593 0 Z M368 662 L271 564 L234 601 L370 737 L506 601 L468 564 L368 662 Z " />
<glyph glyph-name="dcaron" unicode="&#x10f;" horiz-adv-x="848" d="M51 256 Q51 309 70 356 Q89 403 122.5 437.5 Q156 472 202 492 Q248 512 302 512 Q352 512 394.5 489.5 Q437 467 461 435 L461 768 L560 768 L560 0 L461 0 L461 77 Q437 45 395 22.5 Q353 0 302 0 Q248 0 202 20 Q156 40 122.5 74.5 Q89 109 70 156 Q51 203 51 256 Z M479 256 Q479 291 466.5 321 Q454 351 432 373.5 Q410 396 380 409 Q350 422 316 422 Q281 422 251 409 Q221 396 198.5 373.5 Q176 351 163 321 Q150 291 150 256 Q150 221 163 191 Q176 161 198.5 138.5 Q221 116 251 103.5 Q281 91 316 91 Q350 91 380 103.5 Q410 116 432 138.5 Q454 161 466.5 191 Q479 221 479 256 Z M690 499 L734 593 Q709 598 692.5 618 Q676 638 676 664 Q676 693 697 714 Q718 735 747 735 Q767 735 782.5 725.5 Q798 716 807 700.5 Q816 685 816.5 665.5 Q817 646 808 627 L737 476 L690 499 Z " />
<glyph glyph-name="nacute" unicode="&#x144;" horiz-adv-x="652" d="M587 0 L489 0 L489 269 Q489 302 479 332 Q469 362 449.5 384 Q430 406 401.5 419 Q373 432 336 432 Q304 432 276 420 Q248 408 227.5 386 Q207 364 194.5 332.5 Q182 301 181 263 L181 0 L83 0 L83 512 L181 512 L181 427 Q192 444 209.5 461 Q227 478 250.5 491.5 Q274 505 301.5 513.5 Q329 522 359 522 Q408 522 450 503.5 Q492 485 522.5 451.5 Q553 418 570 370 Q587 322 587 264 L587 0 Z M332 568 L305 595 L415 737 Q426 751 445.5 752 Q465 753 478 741 Q490 728 489 708.5 Q488 689 474 678 L332 568 Z " />
<glyph glyph-name="napostrophe" unicode="&#x149;" horiz-adv-x="652" d="M587 0 L489 0 L489 269 Q489 302 479 332 Q469 362 449.5 384 Q430 406 401.5 419 Q373 432 336 432 Q304 432 276 420 Q248 408 227.5 386 Q207 364 194.5 332.5 Q182 301 181 263 L181 0 L83 0 L83 512 L181 512 L181 427 Q192 444 209.5 461 Q227 478 250.5 491.5 Q274 505 301.5 513.5 Q329 522 359 522 Q408 522 450 503.5 Q492 485 522.5 451.5 Q553 418 570 370 Q587 322 587 264 L587 0 Z M77 602 L121 696 Q96 701 79.5 721 Q63 741 63 767 Q63 796 84 817 Q105 838 134 838 Q154 838 169.5 828.5 Q185 819 194 803.5 Q203 788 204 768.5 Q205 749 196 730 L124 579 L77 602 Z " />
<glyph glyph-name="ncaron" unicode="&#x148;" horiz-adv-x="652" d="M587 0 L489 0 L489 269 Q489 302 479 332 Q469 362 449.5 384 Q430 406 401.5 419 Q373 432 336 432 Q304 432 276 420 Q248 408 227.5 386 Q207 364 194.5 332.5 Q182 301 181 263 L181 0 L83 0 L83 512 L181 512 L181 427 Q192 444 209.5 461 Q227 478 250.5 491.5 Q274 505 301.5 513.5 Q329 522 359 522 Q408 522 450 503.5 Q492 485 522.5 451.5 Q553 418 570 370 Q587 322 587 264 L587 0 Z M351 639 L448 737 L485 700 L349 564 L213 700 L251 737 L351 639 Z " />
<glyph glyph-name="ncommaaccent" unicode="&#x146;" horiz-adv-x="652" d="M587 0 L489 0 L489 269 Q489 302 479 332 Q469 362 449.5 384 Q430 406 401.5 419 Q373 432 336 432 Q304 432 276 420 Q248 408 227.5 386 Q207 364 194.5 332.5 Q182 301 181 263 L181 0 L83 0 L83 512 L181 512 L181 427 Q192 444 209.5 461 Q227 478 250.5 491.5 Q274 505 301.5 513.5 Q329 522 359 522 Q408 522 450 503.5 Q492 485 522.5 451.5 Q553 418 570 370 Q587 322 587 264 L587 0 Z M284 -231 L317 -162 Q300 -158 288.5 -145 Q277 -132 277 -114 Q277 -93 291.5 -78.5 Q306 -64 326 -64 Q339 -64 350 -70.5 Q361 -77 367 -88 Q373 -99 373.5 -112.5 Q374 -126 368 -139 L317 -247 L284 -231 Z " />
<glyph glyph-name="ntilde" unicode="&#xf1;" horiz-adv-x="652" d="M587 0 L489 0 L489 269 Q489 302 479 332 Q469 362 449.5 384 Q430 406 401.5 419 Q373 432 336 432 Q304 432 276 420 Q248 408 227.5 386 Q207 364 194.5 332.5 Q182 301 181 263 L181 0 L83 0 L83 512 L181 512 L181 427 Q192 444 209.5 461 Q227 478 250.5 491.5 Q274 505 301.5 513.5 Q329 522 359 522 Q408 522 450 503.5 Q492 485 522.5 451.5 Q553 418 570 370 Q587 322 587 264 L587 0 Z M390 708 Q434 708 460 678 Q486 648 486 607 L430 607 Q430 629 419 642 Q408 655 390 655 Q375 655 363.5 645.5 Q352 636 339 624 Q326 612 310 602.5 Q294 593 269 593 Q224 593 198 622.5 Q172 652 173 693 L229 693 Q229 670 239 657.5 Q249 645 269 645 Q283 645 294.5 655 Q306 665 319 676.5 Q332 688 348.5 698 Q365 708 390 708 Z " />
<glyph glyph-name="oacute" unicode="&#xf3;" horiz-adv-x="629" d="M50 256 Q50 311 70.5 359 Q91 407 127 443 Q163 479 211 499.5 Q259 520 314 520 Q369 520 417.5 499.5 Q466 479 502 443 Q538 407 558.5 359 Q579 311 579 256 Q579 201 558.5 152.5 Q538 104 502 68 Q466 32 417.5 11.5 Q369 -9 314 -9 Q259 -9 211 11.5 Q163 32 127 68 Q91 104 70.5 152.5 Q50 201 50 256 Z M147 256 Q147 220 160 189.5 Q173 159 195.5 136.5 Q218 114 248.5 101 Q279 88 314 88 Q349 88 380 101 Q411 114 433.5 136.5 Q456 159 469 189.5 Q482 220 482 256 Q482 291 469 322 Q456 353 433.5 375.5 Q411 398 380 411 Q349 424 314 424 Q279 424 248.5 411 Q218 398 195.5 375.5 Q173 353 160 322 Q147 291 147 256 Z M317 568 L290 595 L400 737 Q411 751 430.5 752 Q450 753 463 741 Q475 728 474 708.5 Q473 689 459 678 L317 568 Z " />
<glyph glyph-name="obreve" unicode="&#x14f;" horiz-adv-x="629" d="M50 256 Q50 311 70.5 359 Q91 407 127 443 Q163 479 211 499.5 Q259 520 314 520 Q369 520 417.5 499.5 Q466 479 502 443 Q538 407 558.5 359 Q579 311 579 256 Q579 201 558.5 152.5 Q538 104 502 68 Q466 32 417.5 11.5 Q369 -9 314 -9 Q259 -9 211 11.5 Q163 32 127 68 Q91 104 70.5 152.5 Q50 201 50 256 Z M147 256 Q147 220 160 189.5 Q173 159 195.5 136.5 Q218 114 248.5 101 Q279 88 314 88 Q349 88 380 101 Q411 114 433.5 136.5 Q456 159 469 189.5 Q482 220 482 256 Q482 291 469 322 Q456 353 433.5 375.5 Q411 398 380 411 Q349 424 314 424 Q279 424 248.5 411 Q218 398 195.5 375.5 Q173 353 160 322 Q147 291 147 256 Z M197 696 L260 696 L260 677 Q260 654 275.5 638 Q291 622 314 622 Q337 622 353 638 Q369 654 369 677 L369 696 L431 696 L431 681 Q431 657 422 635.5 Q413 614 397 598 Q381 582 359.5 573 Q338 564 314 564 Q290 564 268.5 573 Q247 582 231 598 Q215 614 206 635.5 Q197 657 197 681 L197 696 Z " />
<glyph glyph-name="ocircumflex" unicode="&#xf4;" horiz-adv-x="629" d="M50 256 Q50 311 70.5 359 Q91 407 127 443 Q163 479 211 499.5 Q259 520 314 520 Q369 520 417.5 499.5 Q466 479 502 443 Q538 407 558.5 359 Q579 311 579 256 Q579 201 558.5 152.5 Q538 104 502 68 Q466 32 417.5 11.5 Q369 -9 314 -9 Q259 -9 211 11.5 Q163 32 127 68 Q91 104 70.5 152.5 Q50 201 50 256 Z M147 256 Q147 220 160 189.5 Q173 159 195.5 136.5 Q218 114 248.5 101 Q279 88 314 88 Q349 88 380 101 Q411 114 433.5 136.5 Q456 159 469 189.5 Q482 220 482 256 Q482 291 469 322 Q456 353 433.5 375.5 Q411 398 380 411 Q349 424 314 424 Q279 424 248.5 411 Q218 398 195.5 375.5 Q173 353 160 322 Q147 291 147 256 Z M313 662 L216 564 L178 601 L314 737 L450 601 L413 564 L313 662 Z " />
<glyph glyph-name="odieresis" unicode="&#xf6;" horiz-adv-x="629" d="M50 256 Q50 311 70.5 359 Q91 407 127 443 Q163 479 211 499.5 Q259 520 314 520 Q369 520 417.5 499.5 Q466 479 502 443 Q538 407 558.5 359 Q579 311 579 256 Q579 201 558.5 152.5 Q538 104 502 68 Q466 32 417.5 11.5 Q369 -9 314 -9 Q259 -9 211 11.5 Q163 32 127 68 Q91 104 70.5 152.5 Q50 201 50 256 Z M147 256 Q147 220 160 189.5 Q173 159 195.5 136.5 Q218 114 248.5 101 Q279 88 314 88 Q349 88 380 101 Q411 114 433.5 136.5 Q456 159 469 189.5 Q482 220 482 256 Q482 291 469 322 Q456 353 433.5 375.5 Q411 398 380 411 Q349 424 314 424 Q279 424 248.5 411 Q218 398 195.5 375.5 Q173 353 160 322 Q147 291 147 256 Z M142 663 Q142 692 163 713 Q184 734 213 734 Q242 734 263 713 Q284 692 284 663 Q284 634 263 613 Q242 592 213 592 Q184 592 163 613 Q142 634 142 663 Z M345 663 Q345 692 366 713 Q387 734 416 734 Q445 734 466 713 Q487 692 487 663 Q487 634 466 613 Q445 592 416 592 Q387 592 366 613 Q345 634 345 663 Z " />
<glyph glyph-name="ograve" unicode="&#xf2;" horiz-adv-x="629" d="M50 256 Q50 311 70.5 359 Q91 407 127 443 Q163 479 211 499.5 Q259 520 314 520 Q369 520 417.5 499.5 Q466 479 502 443 Q538 407 558.5 359 Q579 311 579 256 Q579 201 558.5 152.5 Q538 104 502 68 Q466 32 417.5 11.5 Q369 -9 314 -9 Q259 -9 211 11.5 Q163 32 127 68 Q91 104 70.5 152.5 Q50 201 50 256 Z M147 256 Q147 220 160 189.5 Q173 159 195.5 136.5 Q218 114 248.5 101 Q279 88 314 88 Q349 88 380 101 Q411 114 433.5 136.5 Q456 159 469 189.5 Q482 220 482 256 Q482 291 469 322 Q456 353 433.5 375.5 Q411 398 380 411 Q349 424 314 424 Q279 424 248.5 411 Q218 398 195.5 375.5 Q173 353 160 322 Q147 291 147 256 Z M170 678 Q156 689 155 708.5 Q154 728 166 741 Q179 753 198.5 752 Q218 751 229 737 L339 595 L312 568 L170 678 Z " />
<glyph glyph-name="ohungarumlaut" unicode="&#x151;" horiz-adv-x="629" d="M50 256 Q50 311 70.5 359 Q91 407 127 443 Q163 479 211 499.5 Q259 520 314 520 Q369 520 417.5 499.5 Q466 479 502 443 Q538 407 558.5 359 Q579 311 579 256 Q579 201 558.5 152.5 Q538 104 502 68 Q466 32 417.5 11.5 Q369 -9 314 -9 Q259 -9 211 11.5 Q163 32 127 68 Q91 104 70.5 152.5 Q50 201 50 256 Z M147 256 Q147 220 160 189.5 Q173 159 195.5 136.5 Q218 114 248.5 101 Q279 88 314 88 Q349 88 380 101 Q411 114 433.5 136.5 Q456 159 469 189.5 Q482 220 482 256 Q482 291 469 322 Q456 353 433.5 375.5 Q411 398 380 411 Q349 424 314 424 Q279 424 248.5 411 Q218 398 195.5 375.5 Q173 353 160 322 Q147 291 147 256 Z M224 568 L197 595 L308 737 Q319 751 338 752 Q357 753 370 741 Q383 728 382 708.5 Q381 689 366 678 L224 568 Z M409 568 L382 595 L493 737 Q504 751 523 752 Q542 753 555 741 Q568 728 567 708.5 Q566 689 551 678 L409 568 Z " />
<glyph glyph-name="omacron" unicode="&#x14d;" horiz-adv-x="629" d="M50 256 Q50 311 70.5 359 Q91 407 127 443 Q163 479 211 499.5 Q259 520 314 520 Q369 520 417.5 499.5 Q466 479 502 443 Q538 407 558.5 359 Q579 311 579 256 Q579 201 558.5 152.5 Q538 104 502 68 Q466 32 417.5 11.5 Q369 -9 314 -9 Q259 -9 211 11.5 Q163 32 127 68 Q91 104 70.5 152.5 Q50 201 50 256 Z M147 256 Q147 220 160 189.5 Q173 159 195.5 136.5 Q218 114 248.5 101 Q279 88 314 88 Q349 88 380 101 Q411 114 433.5 136.5 Q456 159 469 189.5 Q482 220 482 256 Q482 291 469 322 Q456 353 433.5 375.5 Q411 398 380 411 Q349 424 314 424 Q279 424 248.5 411 Q218 398 195.5 375.5 Q173 353 160 322 Q147 291 147 256 Z M466 592 L163 592 L163 654 L466 654 L466 592 Z " />
<glyph glyph-name="gbreve" unicode="&#x11f;" horiz-adv-x="565" d="M74 333 Q74 375 90 412.5 Q106 450 133.5 478 Q161 506 198.5 522 Q236 538 279 538 Q321 538 357 522.5 Q393 507 420 479 Q449 496 479.5 504 Q510 512 546 512 L554 512 L554 424 L454 424 Q468 407 476 382.5 Q484 358 484 333 Q484 290 468 252.5 Q452 215 424 187.5 Q396 160 358.5 144 Q321 128 279 128 Q250 128 222 138 Q194 148 172 163 Q145 158 127.5 143 Q110 128 110 102 Q110 75 129 61 Q148 47 180 47 L341 47 Q432 47 481.5 6 Q531 -35 531 -107 Q531 -182 475 -224 Q419 -266 322 -266 Q269 -266 224 -251.5 Q179 -237 146 -212.5 Q113 -188 95 -154 Q77 -120 78 -81 L120 -46 Q72 -36 44 -2 Q16 32 18 80 Q19 125 47.5 159.5 Q76 194 118 207 Q98 233 86 265 Q74 297 74 333 Z M167 333 Q167 310 176 289.5 Q185 269 200 254 Q215 239 235.5 230 Q256 221 279 221 Q302 221 322 230 Q342 239 357 254 Q372 269 381 289.5 Q390 310 390 333 Q390 356 381 376 Q372 396 357 411 Q342 426 322 435 Q302 444 279 444 Q256 444 235.5 435 Q215 426 200 411 Q185 396 176 376 Q167 356 167 333 Z M322 -174 Q374 -174 402 -158 Q430 -142 430 -107 Q430 -80 408 -63 Q386 -46 341 -46 L160 -46 Q159 -73 171.5 -96 Q184 -119 205.5 -136.5 Q227 -154 257 -164 Q287 -174 322 -174 Z M166 696 L228 696 L228 677 Q228 654 244 638 Q260 622 283 622 Q306 622 322 638 Q338 654 338 677 L338 696 L400 696 L400 681 Q400 657 391 635.5 Q382 614 366 598 Q350 582 328.5 573 Q307 564 283 564 Q259 564 237.5 573 Q216 582 200 598 Q184 614 175 635.5 Q166 657 166 681 L166 696 Z " />
<glyph glyph-name="gcircumflex" unicode="&#x11d;" horiz-adv-x="565" d="M74 333 Q74 375 90 412.5 Q106 450 133.5 478 Q161 506 198.5 522 Q236 538 279 538 Q321 538 357 522.5 Q393 507 420 479 Q449 496 479.5 504 Q510 512 546 512 L554 512 L554 424 L454 424 Q468 407 476 382.5 Q484 358 484 333 Q484 290 468 252.5 Q452 215 424 187.5 Q396 160 358.5 144 Q321 128 279 128 Q250 128 222 138 Q194 148 172 163 Q145 158 127.5 143 Q110 128 110 102 Q110 75 129 61 Q148 47 180 47 L341 47 Q432 47 481.5 6 Q531 -35 531 -107 Q531 -182 475 -224 Q419 -266 322 -266 Q269 -266 224 -251.5 Q179 -237 146 -212.5 Q113 -188 95 -154 Q77 -120 78 -81 L120 -46 Q72 -36 44 -2 Q16 32 18 80 Q19 125 47.5 159.5 Q76 194 118 207 Q98 233 86 265 Q74 297 74 333 Z M167 333 Q167 310 176 289.5 Q185 269 200 254 Q215 239 235.5 230 Q256 221 279 221 Q302 221 322 230 Q342 239 357 254 Q372 269 381 289.5 Q390 310 390 333 Q390 356 381 376 Q372 396 357 411 Q342 426 322 435 Q302 444 279 444 Q256 444 235.5 435 Q215 426 200 411 Q185 396 176 376 Q167 356 167 333 Z M322 -174 Q374 -174 402 -158 Q430 -142 430 -107 Q430 -80 408 -63 Q386 -46 341 -46 L160 -46 Q159 -73 171.5 -96 Q184 -119 205.5 -136.5 Q227 -154 257 -164 Q287 -174 322 -174 Z M282 662 L184 564 L147 601 L283 737 L419 601 L381 564 L282 662 Z " />
<glyph glyph-name="gcommaaccent" unicode="&#x123;" horiz-adv-x="565" d="M74 333 Q74 375 90 412.5 Q106 450 133.5 478 Q161 506 198.5 522 Q236 538 279 538 Q321 538 357 522.5 Q393 507 420 479 Q449 496 479.5 504 Q510 512 546 512 L554 512 L554 424 L454 424 Q468 407 476 382.5 Q484 358 484 333 Q484 290 468 252.5 Q452 215 424 187.5 Q396 160 358.5 144 Q321 128 279 128 Q250 128 222 138 Q194 148 172 163 Q145 158 127.5 143 Q110 128 110 102 Q110 75 129 61 Q148 47 180 47 L341 47 Q432 47 481.5 6 Q531 -35 531 -107 Q531 -182 475 -224 Q419 -266 322 -266 Q269 -266 224 -251.5 Q179 -237 146 -212.5 Q113 -188 95 -154 Q77 -120 78 -81 L120 -46 Q72 -36 44 -2 Q16 32 18 80 Q19 125 47.5 159.5 Q76 194 118 207 Q98 233 86 265 Q74 297 74 333 Z M167 333 Q167 310 176 289.5 Q185 269 200 254 Q215 239 235.5 230 Q256 221 279 221 Q302 221 322 230 Q342 239 357 254 Q372 269 381 289.5 Q390 310 390 333 Q390 356 381 376 Q372 396 357 411 Q342 426 322 435 Q302 444 279 444 Q256 444 235.5 435 Q215 426 200 411 Q185 396 176 376 Q167 356 167 333 Z M322 -174 Q374 -174 402 -158 Q430 -142 430 -107 Q430 -80 408 -63 Q386 -46 341 -46 L160 -46 Q159 -73 171.5 -96 Q184 -119 205.5 -136.5 Q227 -154 257 -164 Q287 -174 322 -174 Z M349 832 L305 738 Q330 733 346.5 713.5 Q363 694 363 667 Q363 638 342 617 Q321 596 292 596 Q272 596 256.5 605.5 Q241 615 232 630.5 Q223 646 222 665.5 Q221 685 230 704 L302 855 L349 832 Z " />
<glyph glyph-name="gdotaccent" unicode="&#x121;" horiz-adv-x="565" d="M74 333 Q74 375 90 412.5 Q106 450 133.5 478 Q161 506 198.5 522 Q236 538 279 538 Q321 538 357 522.5 Q393 507 420 479 Q449 496 479.5 504 Q510 512 546 512 L554 512 L554 424 L454 424 Q468 407 476 382.5 Q484 358 484 333 Q484 290 468 252.5 Q452 215 424 187.5 Q396 160 358.5 144 Q321 128 279 128 Q250 128 222 138 Q194 148 172 163 Q145 158 127.5 143 Q110 128 110 102 Q110 75 129 61 Q148 47 180 47 L341 47 Q432 47 481.5 6 Q531 -35 531 -107 Q531 -182 475 -224 Q419 -266 322 -266 Q269 -266 224 -251.5 Q179 -237 146 -212.5 Q113 -188 95 -154 Q77 -120 78 -81 L120 -46 Q72 -36 44 -2 Q16 32 18 80 Q19 125 47.5 159.5 Q76 194 118 207 Q98 233 86 265 Q74 297 74 333 Z M167 333 Q167 310 176 289.5 Q185 269 200 254 Q215 239 235.5 230 Q256 221 279 221 Q302 221 322 230 Q342 239 357 254 Q372 269 381 289.5 Q390 310 390 333 Q390 356 381 376 Q372 396 357 411 Q342 426 322 435 Q302 444 279 444 Q256 444 235.5 435 Q215 426 200 411 Q185 396 176 376 Q167 356 167 333 Z M322 -174 Q374 -174 402 -158 Q430 -142 430 -107 Q430 -80 408 -63 Q386 -46 341 -46 L160 -46 Q159 -73 171.5 -96 Q184 -119 205.5 -136.5 Q227 -154 257 -164 Q287 -174 322 -174 Z M212 663 Q212 692 233 713 Q254 734 283 734 Q312 734 333 713 Q354 692 354 663 Q354 634 333 613 Q312 592 283 592 Q254 592 233 613 Q212 634 212 663 Z " />
<glyph glyph-name="racute" unicode="&#x155;" horiz-adv-x="369" d="M183 0 L83 0 L83 512 L169 512 L169 431 Q198 470 240 491 Q282 512 332 512 L359 512 L359 424 L332 424 Q299 424 272 413 Q245 402 225 382 Q205 362 194 335 Q183 308 183 275 L183 0 Z M147 568 L119 595 L230 737 Q241 751 260.5 752 Q280 753 293 741 Q305 728 304 708.5 Q303 689 289 678 L147 568 Z " />
<glyph glyph-name="rcaron" unicode="&#x159;" horiz-adv-x="369" d="M183 0 L83 0 L83 512 L169 512 L169 431 Q198 470 240 491 Q282 512 332 512 L359 512 L359 424 L332 424 Q299 424 272 413 Q245 402 225 382 Q205 362 194 335 Q183 308 183 275 L183 0 Z M193 639 L290 737 L327 700 L191 564 L55 700 L93 737 L193 639 Z " />
<glyph glyph-name="rcommaaccent" unicode="&#x157;" horiz-adv-x="369" d="M183 0 L83 0 L83 512 L169 512 L169 431 Q198 470 240 491 Q282 512 332 512 L359 512 L359 424 L332 424 Q299 424 272 413 Q245 402 225 382 Q205 362 194 335 Q183 308 183 275 L183 0 Z M90 -231 L122 -162 Q105 -158 94 -145 Q83 -132 83 -114 Q83 -93 97 -78.5 Q111 -64 131 -64 Q145 -64 156 -70.5 Q167 -77 173 -88 Q179 -99 179.5 -112.5 Q180 -126 174 -139 L123 -247 L90 -231 Z " />
<glyph glyph-name="sacute" unicode="&#x15b;" horiz-adv-x="529" d="M153 375 Q153 333 216 315 L336 283 Q414 263 449 224 Q484 185 484 130 Q484 99 471.5 72.5 Q459 46 434 26.5 Q409 7 370.5 -4.5 Q332 -16 281 -16 Q242 -16 206.5 -8 Q171 0 141 14 Q111 28 88 46 Q65 64 51 85 L126 138 Q151 107 194.5 89.5 Q238 72 281 72 Q331 72 357 89 Q383 106 383 130 Q383 150 368.5 166 Q354 182 316 193 L205 223 Q127 244 90.5 282.5 Q54 321 54 375 Q54 405 67 432.5 Q80 460 106 481 Q132 502 170.5 514.5 Q209 527 259 527 Q305 527 344 513 Q383 499 411.5 476 Q440 453 456 421.5 Q472 390 472 356 L375 356 Q374 373 365 388.5 Q356 404 340.5 416 Q325 428 304.5 435.5 Q284 443 259 443 Q203 443 178 421.5 Q153 400 153 375 Z M269 568 L241 595 L352 737 Q363 751 382 752 Q401 753 414 741 Q427 728 426 708.5 Q425 689 411 678 L269 568 Z " />
<glyph glyph-name="scaron" unicode="&#x161;" horiz-adv-x="529" d="M153 375 Q153 333 216 315 L336 283 Q414 263 449 224 Q484 185 484 130 Q484 99 471.5 72.5 Q459 46 434 26.5 Q409 7 370.5 -4.5 Q332 -16 281 -16 Q242 -16 206.5 -8 Q171 0 141 14 Q111 28 88 46 Q65 64 51 85 L126 138 Q151 107 194.5 89.5 Q238 72 281 72 Q331 72 357 89 Q383 106 383 130 Q383 150 368.5 166 Q354 182 316 193 L205 223 Q127 244 90.5 282.5 Q54 321 54 375 Q54 405 67 432.5 Q80 460 106 481 Q132 502 170.5 514.5 Q209 527 259 527 Q305 527 344 513 Q383 499 411.5 476 Q440 453 456 421.5 Q472 390 472 356 L375 356 Q374 373 365 388.5 Q356 404 340.5 416 Q325 428 304.5 435.5 Q284 443 259 443 Q203 443 178 421.5 Q153 400 153 375 Z M267 639 L365 737 L402 700 L266 564 L130 700 L168 737 L267 639 Z " />
<glyph glyph-name="scedilla" unicode="&#x15f;" horiz-adv-x="529" d="M153 375 Q153 333 216 315 L336 283 Q414 263 449 224 Q484 185 484 130 Q484 71 439 30.5 Q394 -10 300 -15 L300 -44 Q329 -52 349.5 -76.5 Q370 -101 370 -136 Q370 -177 342 -204.5 Q314 -232 274 -232 Q254 -232 237 -224.5 Q220 -217 206 -204 L244 -168 Q258 -180 274 -180 Q292 -180 304.5 -167.5 Q317 -155 317 -136 Q317 -117 305 -104.5 Q293 -92 274 -92 Q254 -92 243 -105 L206 -68 Q224 -48 248 -44 L248 -14 Q181 -7 128.5 20.5 Q76 48 51 85 L126 138 Q151 107 194.5 89.5 Q238 72 281 72 Q331 72 357 89 Q383 106 383 130 Q383 150 368.5 166 Q354 182 316 193 L205 223 Q127 244 90.5 282.5 Q54 321 54 375 Q54 405 67 432.5 Q80 460 106 481 Q132 502 170.5 514.5 Q209 527 259 527 Q305 527 344 513 Q383 499 411.5 476 Q440 453 456 421.5 Q472 390 472 356 L375 356 Q374 373 365 388.5 Q356 404 340.5 416 Q325 428 304.5 435.5 Q284 443 259 443 Q203 443 178 421.5 Q153 400 153 375 Z " />
<glyph glyph-name="scircumflex" unicode="&#x15d;" horiz-adv-x="529" d="M153 375 Q153 333 216 315 L336 283 Q414 263 449 224 Q484 185 484 130 Q484 99 471.5 72.5 Q459 46 434 26.5 Q409 7 370.5 -4.5 Q332 -16 281 -16 Q242 -16 206.5 -8 Q171 0 141 14 Q111 28 88 46 Q65 64 51 85 L126 138 Q151 107 194.5 89.5 Q238 72 281 72 Q331 72 357 89 Q383 106 383 130 Q383 150 368.5 166 Q354 182 316 193 L205 223 Q127 244 90.5 282.5 Q54 321 54 375 Q54 405 67 432.5 Q80 460 106 481 Q132 502 170.5 514.5 Q209 527 259 527 Q305 527 344 513 Q383 499 411.5 476 Q440 453 456 421.5 Q472 390 472 356 L375 356 Q374 373 365 388.5 Q356 404 340.5 416 Q325 428 304.5 435.5 Q284 443 259 443 Q203 443 178 421.5 Q153 400 153 375 Z M265 662 L168 564 L130 601 L266 737 L402 601 L365 564 L265 662 Z " />
<glyph glyph-name="scommaaccent" unicode="&#x219;" horiz-adv-x="529" d="M153 375 Q153 333 216 315 L336 283 Q414 263 449 224 Q484 185 484 130 Q484 99 471.5 72.5 Q459 46 434 26.5 Q409 7 370.5 -4.5 Q332 -16 281 -16 Q242 -16 206.5 -8 Q171 0 141 14 Q111 28 88 46 Q65 64 51 85 L126 138 Q151 107 194.5 89.5 Q238 72 281 72 Q331 72 357 89 Q383 106 383 130 Q383 150 368.5 166 Q354 182 316 193 L205 223 Q127 244 90.5 282.5 Q54 321 54 375 Q54 405 67 432.5 Q80 460 106 481 Q132 502 170.5 514.5 Q209 527 259 527 Q305 527 344 513 Q383 499 411.5 476 Q440 453 456 421.5 Q472 390 472 356 L375 356 Q374 373 365 388.5 Q356 404 340.5 416 Q325 428 304.5 435.5 Q284 443 259 443 Q203 443 178 421.5 Q153 400 153 375 Z M221 -231 L253 -162 Q236 -158 225 -145 Q214 -132 214 -114 Q214 -93 228 -78.5 Q242 -64 262 -64 Q276 -64 287 -70.5 Q298 -77 304 -88 Q310 -99 310.5 -112.5 Q311 -126 305 -139 L254 -247 L221 -231 Z " />
<glyph glyph-name="tbar" unicode="&#x167;" horiz-adv-x="359" d="M128 0 L128 230 L34 205 L19 263 L128 292 L128 424 L10 424 L10 512 L128 512 L128 640 L228 640 L228 512 L346 512 L346 424 L228 424 L228 319 L322 344 L337 286 L228 256 L228 0 L128 0 Z " />
<glyph glyph-name="tcaron" unicode="&#x165;" horiz-adv-x="564" d="M128 0 L128 424 L10 424 L10 512 L128 512 L128 640 L228 640 L228 512 L346 512 L346 424 L228 424 L228 0 L128 0 Z M406 499 L450 593 Q425 598 408.5 618 Q392 638 392 664 Q392 693 413 714 Q434 735 463 735 Q483 735 498.5 725.5 Q514 716 523 700.5 Q532 685 533 665.5 Q534 646 525 627 L453 476 L406 499 Z " />
<glyph glyph-name="tcommaaccent" unicode="&#x163;" horiz-adv-x="359" d="M128 0 L128 424 L10 424 L10 512 L128 512 L128 640 L228 640 L228 512 L346 512 L346 424 L228 424 L228 0 L128 0 Z M134 -231 L167 -162 Q150 -158 138.5 -145 Q127 -132 127 -114 Q127 -93 141.5 -78.5 Q156 -64 176 -64 Q198 -64 211 -80.5 Q224 -97 222 -118 Q221 -125 220 -131.5 Q219 -138 215 -145 L167 -247 L134 -231 Z " />
<glyph glyph-name="uacute" unicode="&#xfa;" horiz-adv-x="652" d="M64 512 L163 512 L163 243 Q163 210 173 180 Q183 150 202.5 128 Q222 106 250.5 93 Q279 80 316 80 Q348 80 375.5 92 Q403 104 424 126 Q445 148 457.5 179.5 Q470 211 471 249 L471 512 L569 512 L569 0 L471 0 L471 85 Q460 68 442 51 Q424 34 401 20.5 Q378 7 350.5 -1.5 Q323 -10 293 -10 Q243 -10 201.5 8.5 Q160 27 129 60.5 Q98 94 81 141.5 Q64 189 64 248 L64 512 Z M305 568 L278 595 L388 737 Q399 751 418.5 752 Q438 753 451 741 Q463 728 462 708.5 Q461 689 447 678 L305 568 Z " />
<glyph glyph-name="ubreve" unicode="&#x16d;" horiz-adv-x="652" d="M64 512 L163 512 L163 243 Q163 210 173 180 Q183 150 202.5 128 Q222 106 250.5 93 Q279 80 316 80 Q348 80 375.5 92 Q403 104 424 126 Q445 148 457.5 179.5 Q470 211 471 249 L471 512 L569 512 L569 0 L471 0 L471 85 Q460 68 442 51 Q424 34 401 20.5 Q378 7 350.5 -1.5 Q323 -10 293 -10 Q243 -10 201.5 8.5 Q160 27 129 60.5 Q98 94 81 141.5 Q64 189 64 248 L64 512 Z M205 696 L268 696 L268 677 Q268 654 283.5 638 Q299 622 322 622 Q345 622 361 638 Q377 654 377 677 L377 696 L439 696 L439 681 Q439 657 430 635.5 Q421 614 405 598 Q389 582 367.5 573 Q346 564 322 564 Q298 564 276.5 573 Q255 582 239 598 Q223 614 214 635.5 Q205 657 205 681 L205 696 Z " />
<glyph glyph-name="ucircumflex" unicode="&#xfb;" horiz-adv-x="652" d="M64 512 L163 512 L163 243 Q163 210 173 180 Q183 150 202.5 128 Q222 106 250.5 93 Q279 80 316 80 Q348 80 375.5 92 Q403 104 424 126 Q445 148 457.5 179.5 Q470 211 471 249 L471 512 L569 512 L569 0 L471 0 L471 85 Q460 68 442 51 Q424 34 401 20.5 Q378 7 350.5 -1.5 Q323 -10 293 -10 Q243 -10 201.5 8.5 Q160 27 129 60.5 Q98 94 81 141.5 Q64 189 64 248 L64 512 Z M321 662 L224 564 L186 601 L322 737 L458 601 L421 564 L321 662 Z " />
<glyph glyph-name="udieresis" unicode="&#xfc;" horiz-adv-x="652" d="M64 512 L163 512 L163 243 Q163 210 173 180 Q183 150 202.5 128 Q222 106 250.5 93 Q279 80 316 80 Q348 80 375.5 92 Q403 104 424 126 Q445 148 457.5 179.5 Q470 211 471 249 L471 512 L569 512 L569 0 L471 0 L471 85 Q460 68 442 51 Q424 34 401 20.5 Q378 7 350.5 -1.5 Q323 -10 293 -10 Q243 -10 201.5 8.5 Q160 27 129 60.5 Q98 94 81 141.5 Q64 189 64 248 L64 512 Z M150 663 Q150 692 171 713 Q192 734 221 734 Q250 734 271 713 Q292 692 292 663 Q292 634 271 613 Q250 592 221 592 Q192 592 171 613 Q150 634 150 663 Z M353 663 Q353 692 374 713 Q395 734 424 734 Q453 734 474 713 Q495 692 495 663 Q495 634 474 613 Q453 592 424 592 Q395 592 374 613 Q353 634 353 663 Z " />
<glyph glyph-name="uhungarumlaut" unicode="&#x171;" horiz-adv-x="652" d="M64 512 L163 512 L163 243 Q163 210 173 180 Q183 150 202.5 128 Q222 106 250.5 93 Q279 80 316 80 Q348 80 375.5 92 Q403 104 424 126 Q445 148 457.5 179.5 Q470 211 471 249 L471 512 L569 512 L569 0 L471 0 L471 85 Q460 68 442 51 Q424 34 401 20.5 Q378 7 350.5 -1.5 Q323 -10 293 -10 Q243 -10 201.5 8.5 Q160 27 129 60.5 Q98 94 81 141.5 Q64 189 64 248 L64 512 Z M212 568 L185 595 L296 737 Q307 751 326 752 Q345 753 358 741 Q371 728 370 708.5 Q369 689 354 678 L212 568 Z M397 568 L370 595 L481 737 Q492 751 511 752 Q530 753 543 741 Q556 728 555 708.5 Q554 689 539 678 L397 568 Z " />
<glyph glyph-name="ugrave" unicode="&#xf9;" horiz-adv-x="652" d="M64 512 L163 512 L163 243 Q163 210 173 180 Q183 150 202.5 128 Q222 106 250.5 93 Q279 80 316 80 Q348 80 375.5 92 Q403 104 424 126 Q445 148 457.5 179.5 Q470 211 471 249 L471 512 L569 512 L569 0 L471 0 L471 85 Q460 68 442 51 Q424 34 401 20.5 Q378 7 350.5 -1.5 Q323 -10 293 -10 Q243 -10 201.5 8.5 Q160 27 129 60.5 Q98 94 81 141.5 Q64 189 64 248 L64 512 Z M198 678 Q184 689 183 708.5 Q182 728 194 741 Q207 753 226.5 752 Q246 751 257 737 L367 595 L340 568 L198 678 Z " />
<glyph glyph-name="umacron" unicode="&#x16b;" horiz-adv-x="652" d="M64 512 L163 512 L163 243 Q163 210 173 180 Q183 150 202.5 128 Q222 106 250.5 93 Q279 80 316 80 Q348 80 375.5 92 Q403 104 424 126 Q445 148 457.5 179.5 Q470 211 471 249 L471 512 L569 512 L569 0 L471 0 L471 85 Q460 68 442 51 Q424 34 401 20.5 Q378 7 350.5 -1.5 Q323 -10 293 -10 Q243 -10 201.5 8.5 Q160 27 129 60.5 Q98 94 81 141.5 Q64 189 64 248 L64 512 Z M474 592 L171 592 L171 654 L474 654 L474 592 Z " />
<glyph glyph-name="uogonek" unicode="&#x173;" horiz-adv-x="652" d="M172 -80 Q172 -54 181.5 -32 Q191 -10 207 6 Q142 32 103 95 Q64 158 64 248 L64 512 L163 512 L163 243 Q163 209 173 179.5 Q183 150 202.5 128 Q222 106 250.5 93 Q279 80 316 80 Q348 80 376 92 Q404 104 424.5 126 Q445 148 457 179 Q469 210 471 249 L471 512 L569 512 L569 0 L471 0 L471 85 Q460 68 442 51 Q424 34 401 20.5 Q378 7 350.5 -1.5 Q323 -10 293 -10 L288 -10 Q261 -12 243 -32 Q225 -52 225 -80 Q225 -109 244.5 -129 Q264 -149 293 -149 Q321 -149 341 -129 Q361 -109 361 -80 L414 -80 Q414 -105 404.5 -127.5 Q395 -150 378.5 -166.5 Q362 -183 340 -192.5 Q318 -202 293 -202 Q268 -202 246 -192.5 Q224 -183 207.5 -166.5 Q191 -150 181.5 -127.5 Q172 -105 172 -80 Z " />
<glyph glyph-name="uring" unicode="&#x16f;" horiz-adv-x="652" d="M64 512 L163 512 L163 243 Q163 210 173 180 Q183 150 202.5 128 Q222 106 250.5 93 Q279 80 316 80 Q348 80 375.5 92 Q403 104 424 126 Q445 148 457.5 179.5 Q470 211 471 249 L471 512 L569 512 L569 0 L471 0 L471 85 Q460 68 442 51 Q424 34 401 20.5 Q378 7 350.5 -1.5 Q323 -10 293 -10 Q243 -10 201.5 8.5 Q160 27 129 60.5 Q98 94 81 141.5 Q64 189 64 248 L64 512 Z M226 672 Q226 712 254 740 Q282 768 322 768 Q362 768 390 740 Q418 712 418 672 Q418 632 390 604 Q362 576 322 576 Q282 576 254 604 Q226 632 226 672 Z M279 672 Q279 653 291.5 640.5 Q304 628 322 628 Q341 628 353.5 640.5 Q366 653 366 672 Q366 691 353.5 703.5 Q341 716 322 716 Q304 716 291.5 703.5 Q279 691 279 672 Z " />
<glyph glyph-name="utilde" unicode="&#x169;" horiz-adv-x="652" d="M64 512 L163 512 L163 243 Q163 210 173 180 Q183 150 202.5 128 Q222 106 250.5 93 Q279 80 316 80 Q348 80 375.5 92 Q403 104 424 126 Q445 148 457.5 179.5 Q470 211 471 249 L471 512 L569 512 L569 0 L471 0 L471 85 Q460 68 442 51 Q424 34 401 20.5 Q378 7 350.5 -1.5 Q323 -10 293 -10 Q243 -10 201.5 8.5 Q160 27 129 60.5 Q98 94 81 141.5 Q64 189 64 248 L64 512 Z M383 708 Q427 708 453.5 678 Q480 648 479 607 L423 607 Q423 629 412 642 Q401 655 383 655 Q368 655 356.5 645.5 Q345 636 332 624 Q319 612 303 602.5 Q287 593 262 593 Q217 593 191.5 622.5 Q166 652 166 693 L222 693 Q222 670 232.5 657.5 Q243 645 262 645 Q276 645 287.5 655 Q299 665 312 676.5 Q325 688 341.5 698 Q358 708 383 708 Z " />
<glyph glyph-name="wacute" unicode="&#x1e83;" horiz-adv-x="783" d="M556 91 L561 91 L659 512 L765 512 L637 0 L490 0 L395 353 L387 353 L292 0 L144 0 L17 512 L122 512 L220 91 L225 91 L337 512 L444 512 L556 91 Z M394 568 L366 595 L477 737 Q488 751 507 752 Q526 753 539 741 Q552 728 551 708.5 Q550 689 536 678 L394 568 Z " />
<glyph glyph-name="wcircumflex" unicode="&#x175;" horiz-adv-x="783" d="M556 91 L561 91 L659 512 L765 512 L637 0 L490 0 L395 353 L387 353 L292 0 L144 0 L17 512 L122 512 L220 91 L225 91 L337 512 L444 512 L556 91 Z M390 662 L293 564 L255 601 L391 737 L527 601 L490 564 L390 662 Z " />
<glyph glyph-name="wdieresis" unicode="&#x1e85;" horiz-adv-x="783" d="M556 91 L561 91 L659 512 L765 512 L637 0 L490 0 L395 353 L387 353 L292 0 L144 0 L17 512 L122 512 L220 91 L225 91 L337 512 L444 512 L556 91 Z M218 663 Q218 692 239 713 Q260 734 290 734 Q319 734 340 713 Q361 692 361 663 Q361 634 340 613 Q319 592 290 592 Q260 592 239 613 Q218 634 218 663 Z M421 663 Q421 692 442 713 Q463 734 493 734 Q522 734 543 713 Q564 692 564 663 Q564 634 543 613 Q522 592 493 592 Q463 592 442 613 Q421 634 421 663 Z " />
<glyph glyph-name="wgrave" unicode="&#x1e81;" horiz-adv-x="783" d="M556 91 L561 91 L659 512 L765 512 L637 0 L490 0 L395 353 L387 353 L292 0 L144 0 L17 512 L122 512 L220 91 L225 91 L337 512 L444 512 L556 91 Z M247 678 Q232 689 231 708.5 Q230 728 243 741 Q256 753 275 752 Q294 751 305 737 L416 595 L389 568 L247 678 Z " />
<glyph glyph-name="yacute" unicode="&#xfd;" horiz-adv-x="571" d="M288 96 L443 512 L554 512 L335 -47 L335 -256 L237 -256 L237 -49 L17 512 L128 512 L283 96 L288 96 Z M277 568 L250 595 L361 737 Q372 751 391 752 Q410 753 423 741 Q436 728 435 708.5 Q434 689 420 678 L277 568 Z " />
<glyph glyph-name="ycircumflex" unicode="&#x177;" horiz-adv-x="571" d="M288 96 L443 512 L554 512 L335 -47 L335 -256 L237 -256 L237 -49 L17 512 L128 512 L283 96 L288 96 Z M284 662 L187 564 L149 601 L285 737 L421 601 L384 564 L284 662 Z " />
<glyph glyph-name="ydieresis" unicode="&#xff;" horiz-adv-x="571" d="M288 96 L443 512 L554 512 L335 -47 L335 -256 L237 -256 L237 -49 L17 512 L128 512 L283 96 L288 96 Z M112 663 Q112 692 133 713 Q154 734 184 734 Q213 734 234 713 Q255 692 255 663 Q255 634 234 613 Q213 592 184 592 Q154 592 133 613 Q112 634 112 663 Z M315 663 Q315 692 336 713 Q357 734 387 734 Q416 734 437 713 Q458 692 458 663 Q458 634 437 613 Q416 592 387 592 Q357 592 336 613 Q315 634 315 663 Z " />
<glyph glyph-name="ygrave" unicode="&#x1ef3;" horiz-adv-x="571" d="M288 96 L443 512 L554 512 L335 -47 L335 -256 L237 -256 L237 -49 L17 512 L128 512 L283 96 L288 96 Z M151 678 Q136 689 135 708.5 Q134 728 147 741 Q160 753 179 752 Q198 751 209 737 L320 595 L293 568 L151 678 Z " />
<glyph glyph-name="oslashacute" unicode="&#x1ff;" horiz-adv-x="629" d="M50 256 Q50 311 70.5 359 Q91 407 127 443 Q163 479 211 499.5 Q259 520 314 520 Q359 520 398.5 506.5 Q438 493 471 469 L514 511 L570 455 L527 413 Q551 380 565 340.5 Q579 301 579 256 Q579 201 558.5 152.5 Q538 104 502 68 Q466 32 417.5 11.5 Q369 -9 314 -9 Q269 -9 229.5 4.5 Q190 18 158 43 L115 1 L59 57 L102 99 Q77 131 63.5 171 Q50 211 50 256 Z M314 88 Q349 88 380 101 Q411 114 433.5 136.5 Q456 159 469 189.5 Q482 220 482 256 Q482 279 474.5 301 Q467 323 456 341 L228 113 Q267 88 314 88 Z M147 256 Q147 232 154 210 Q161 188 173 170 L400 398 Q382 410 360 417 Q338 424 314 424 Q279 424 248.5 411 Q218 398 195.5 375.5 Q173 353 160 322 Q147 291 147 256 Z M317 568 L290 595 L400 737 Q411 751 430.5 752 Q450 753 463 741 Q475 728 474 708.5 Q473 689 459 678 L317 568 Z " />
<glyph glyph-name="otilde" unicode="&#xf5;" horiz-adv-x="629" d="M50 256 Q50 311 70.5 359 Q91 407 127 443 Q163 479 211 499.5 Q259 520 314 520 Q369 520 417.5 499.5 Q466 479 502 443 Q538 407 558.5 359 Q579 311 579 256 Q579 201 558.5 152.5 Q538 104 502 68 Q466 32 417.5 11.5 Q369 -9 314 -9 Q259 -9 211 11.5 Q163 32 127 68 Q91 104 70.5 152.5 Q50 201 50 256 Z M147 256 Q147 220 160 189.5 Q173 159 195.5 136.5 Q218 114 248.5 101 Q279 88 314 88 Q349 88 380 101 Q411 114 433.5 136.5 Q456 159 469 189.5 Q482 220 482 256 Q482 291 469 322 Q456 353 433.5 375.5 Q411 398 380 411 Q349 424 314 424 Q279 424 248.5 411 Q218 398 195.5 375.5 Q173 353 160 322 Q147 291 147 256 Z M375 708 Q419 708 445 678 Q471 648 471 607 L415 607 Q415 629 404 642 Q393 655 375 655 Q360 655 348.5 645.5 Q337 636 324 624 Q311 612 295 602.5 Q279 593 254 593 Q209 593 183 622.5 Q157 652 158 693 L214 693 Q214 670 224 657.5 Q234 645 254 645 Q268 645 279.5 655 Q291 665 304 676.5 Q317 688 333.5 698 Q350 708 375 708 Z " />
<glyph glyph-name="approxequal" unicode="&#x2248;" horiz-adv-x="571" d="M373 446 Q405 446 431 434 Q457 422 475.5 402 Q494 382 504 355 Q514 328 514 298 L434 298 Q434 332 417.5 352 Q401 372 373 372 Q350 372 333 357 Q316 342 297 324 Q278 306 253.5 291 Q229 276 193 276 Q160 276 134 287.5 Q108 299 89.5 319.5 Q71 340 61 367 Q51 394 51 424 L131 424 Q131 389 147.5 369.5 Q164 350 193 350 Q214 350 231 365 Q248 380 267.5 398 Q287 416 311.5 431 Q336 446 373 446 Z M376 226 Q408 226 434 214 Q460 202 478.5 182 Q497 162 507 135 Q517 108 517 78 L437 78 Q437 112 420.5 132 Q404 152 376 152 Q353 152 336 137 Q319 122 300 104 Q281 86 256.5 71 Q232 56 196 56 Q163 56 137 67.5 Q111 79 92.5 99.5 Q74 120 64 147 Q54 174 54 204 L134 204 Q134 169 150.5 149.5 Q167 130 196 130 Q217 130 234 145 Q251 160 270.5 178 Q290 196 314.5 211 Q339 226 376 226 Z " />
<glyph glyph-name="fraction" unicode="&#x2044;" horiz-adv-x="831" d="M712 734 L781 665 L119 4 L50 73 L712 734 Z " />
<glyph glyph-name="section" unicode="&#xa7;" horiz-adv-x="542" d="M158 619 Q158 575 224 557 L348 524 Q429 502 465.5 461.5 Q502 421 502 364 Q502 329 485 300 Q468 271 433 251 Q470 228 486 199 Q502 170 502 132 Q502 100 489 72.5 Q476 45 449.5 24.5 Q423 4 383.5 -7.5 Q344 -19 291 -19 Q251 -19 214 -10.5 Q177 -2 145.5 12 Q114 26 90 45 Q66 64 51 85 L130 142 Q156 109 201 91 Q246 73 291 73 Q342 73 369 90 Q396 107 396 132 Q396 154 380.5 170 Q365 186 327 198 L212 230 Q130 252 92 292 Q54 332 54 387 Q54 422 71.5 451.5 Q89 481 125 501 Q54 545 54 619 Q54 650 68 679 Q82 708 109 730 Q136 752 175.5 765 Q215 778 267 778 Q315 778 356 763.5 Q397 749 427 724.5 Q457 700 474 667.5 Q491 635 491 599 L388 599 Q387 617 377.5 633 Q368 649 352 661.5 Q336 674 314.5 681.5 Q293 689 267 689 Q210 689 184 667 Q158 645 158 619 Z M158 387 Q158 345 224 325 L303 303 Q350 305 373 322.5 Q396 340 396 364 Q396 385 380.5 401.5 Q365 418 327 429 L237 453 Q201 448 179.5 429.5 Q158 411 158 387 Z " />
<glyph glyph-name="Eng" unicode="&#x14a;" horiz-adv-x="800" d="M422 0 Q422 -20 429.5 -37.5 Q437 -55 450.5 -68.5 Q464 -82 481.5 -89.5 Q499 -97 519 -97 Q539 -97 556.5 -89.5 Q574 -82 587.5 -68.5 Q601 -55 608.5 -37.5 Q616 -20 616 0 L616 80 L187 509 L187 0 L83 0 L83 730 L94 735 L613 225 L613 735 L717 735 L717 0 Q717 -41 701.5 -77 Q686 -113 659 -140 Q632 -167 596 -182.5 Q560 -198 519 -198 Q478 -198 442 -182.5 Q406 -167 379 -140 Q352 -113 336.5 -77 Q321 -41 321 0 L422 0 Z " />
<glyph glyph-name="eng" unicode="&#x14b;" horiz-adv-x="659" d="M324 -83 Q324 -118 347 -142.5 Q370 -167 406 -167 Q441 -167 465 -144 Q489 -121 489 -83 L489 269 Q489 302 479 332 Q469 362 449.5 384 Q430 406 401.5 419 Q373 432 336 432 Q304 432 276 420 Q248 408 227.5 386 Q207 364 194.5 332.5 Q182 301 181 263 L181 0 L83 0 L83 512 L181 512 L181 427 Q192 444 209.5 461 Q227 478 250.5 491.5 Q274 505 301.5 513.5 Q329 522 359 522 Q408 522 450 503.5 Q492 485 522.5 451.5 Q553 418 570 370 Q587 322 587 264 L587 -83 Q587 -123 572.5 -156.5 Q558 -190 533.5 -214.5 Q509 -239 476 -252.5 Q443 -266 406 -266 Q368 -266 335 -251.5 Q302 -237 277.5 -212 Q253 -187 239 -153.5 Q225 -120 225 -83 L324 -83 Z " />
<glyph glyph-name="Eth" unicode="&#xd0;" horiz-adv-x="700" d="M90 0 L90 301 L-1 277 L-17 335 L90 363 L90 735 L297 735 Q373 735 439.5 706 Q506 677 556 627 Q606 577 635 510.5 Q664 444 664 368 Q664 292 635 225 Q606 158 556 108 Q506 58 439.5 29 Q373 0 297 0 L90 0 Z M286 416 L302 358 L196 329 L196 98 L291 98 Q348 98 397 119 Q446 140 482 176.5 Q518 213 538.5 262 Q559 311 559 368 Q559 425 538 474 Q517 523 481 559 Q445 595 396 616 Q347 637 291 637 L196 637 L196 391 L286 416 Z " />
<glyph glyph-name="Dcroat" unicode="&#x110;" horiz-adv-x="700" d="M90 0 L90 301 L-1 277 L-17 335 L90 363 L90 735 L297 735 Q373 735 439.5 706 Q506 677 556 627 Q606 577 635 510.5 Q664 444 664 368 Q664 292 635 225 Q606 158 556 108 Q506 58 439.5 29 Q373 0 297 0 L90 0 Z M286 416 L302 358 L196 329 L196 98 L291 98 Q348 98 397 119 Q446 140 482 176.5 Q518 213 538.5 262 Q559 311 559 368 Q559 425 538 474 Q517 523 481 559 Q445 595 396 616 Q347 637 291 637 L196 637 L196 391 L286 416 Z " />
<glyph glyph-name="dcroat" unicode="&#x111;" horiz-adv-x="643" d="M51 256 Q51 309 70 356 Q89 403 122.5 437.5 Q156 472 202 492 Q248 512 302 512 Q352 512 394.5 489.5 Q437 467 461 435 L461 574 L365 549 L349 607 L461 637 L461 768 L560 768 L560 663 L652 688 L668 630 L560 601 L560 0 L461 0 L461 77 Q437 45 395 22.5 Q353 0 302 0 Q248 0 202 20 Q156 40 122.5 74.5 Q89 109 70 156 Q51 203 51 256 Z M479 256 Q479 291 466.5 321 Q454 351 432 373.5 Q410 396 380 409 Q350 422 316 422 Q281 422 251 409 Q221 396 198.5 373.5 Q176 351 163 321 Q150 291 150 256 Q150 221 163 191 Q176 161 198.5 138.5 Q221 116 251 103.5 Q281 91 316 91 Q350 91 380 103.5 Q410 116 432 138.5 Q454 161 466.5 191 Q479 221 479 256 Z " />
<glyph glyph-name="zacute" unicode="&#x17a;" horiz-adv-x="507" d="M457 88 L457 0 L60 0 L45 25 L312 424 L61 424 L61 512 L448 512 L462 487 L196 88 L457 88 Z M256 568 L228 595 L339 737 Q350 751 369 752 Q388 753 401 741 Q414 728 413 708.5 Q412 689 398 678 L256 568 Z " />
<glyph glyph-name="zcaron" unicode="&#x17e;" horiz-adv-x="507" d="M457 88 L457 0 L60 0 L45 25 L312 424 L61 424 L61 512 L448 512 L462 487 L196 88 L457 88 Z M255 639 L352 737 L389 700 L253 564 L117 700 L155 737 L255 639 Z " />
<glyph glyph-name="zdotaccent" unicode="&#x17c;" horiz-adv-x="507" d="M457 88 L457 0 L60 0 L45 25 L312 424 L61 424 L61 512 L448 512 L462 487 L196 88 L457 88 Z M182 663 Q182 692 203 713 Q224 734 253 734 Q283 734 304 713 Q325 692 325 663 Q325 634 304 613 Q283 592 253 592 Q224 592 203 613 Q182 634 182 663 Z " />
<glyph glyph-name="Thorn" unicode="&#xde;" horiz-adv-x="608" d="M187 115 L187 0 L83 0 L83 735 L187 735 L187 619 L337 619 Q390 619 436.5 599.5 Q483 580 517 545.5 Q551 511 570.5 465 Q590 419 590 367 Q590 314 570.5 268.5 Q551 223 517 188.5 Q483 154 436.5 134.5 Q390 115 337 115 L187 115 Z M330 206 Q364 206 393.5 218.5 Q423 231 445 252.5 Q467 274 479.5 303.5 Q492 333 492 367 Q492 401 479.5 430.5 Q467 460 445 481.5 Q423 503 393.5 515.5 Q364 528 330 528 L187 528 L187 206 L330 206 Z " />
<glyph glyph-name="dotlessj" unicode="&#x237;" horiz-adv-x="286" d="M94 -251 L94 512 L192 512 L192 -251 L94 -251 Z " />
<glyph glyph-name="jcircumflex" unicode="&#x135;" horiz-adv-x="286" d="M94 -251 L94 512 L192 512 L192 -251 L94 -251 Z M142 662 L44 564 L7 601 L143 737 L279 601 L241 564 L142 662 Z " />
<glyph glyph-name="Wacute" unicode="&#x1e82;" horiz-adv-x="917" d="M656 112 L666 112 L791 735 L898 735 L744 0 L585 0 L464 561 L453 561 L332 0 L173 0 L19 735 L127 735 L251 112 L261 112 L398 735 L519 735 L656 112 Z M461 791 L433 818 L544 960 Q555 974 574.5 975 Q594 976 607 964 Q619 951 618 931.5 Q617 912 603 901 L461 791 Z " />
<glyph glyph-name="Wcircumflex" unicode="&#x174;" horiz-adv-x="917" d="M656 112 L666 112 L791 735 L898 735 L744 0 L585 0 L464 561 L453 561 L332 0 L173 0 L19 735 L127 735 L251 112 L261 112 L398 735 L519 735 L656 112 Z M457 885 L360 787 L322 824 L458 960 L594 824 L557 787 L457 885 Z " />
<glyph glyph-name="Wdieresis" unicode="&#x1e84;" horiz-adv-x="917" d="M656 112 L666 112 L791 735 L898 735 L744 0 L585 0 L464 561 L453 561 L332 0 L173 0 L19 735 L127 735 L251 112 L261 112 L398 735 L519 735 L656 112 Z M285 886 Q285 915 306.5 936 Q328 957 357 957 Q386 957 407 936 Q428 915 428 886 Q428 857 407 836 Q386 815 357 815 Q328 815 306.5 836 Q285 857 285 886 Z M488 886 Q488 915 509.5 936 Q531 957 560 957 Q589 957 610 936 Q631 915 631 886 Q631 857 610 836 Q589 815 560 815 Q531 815 509.5 836 Q488 857 488 886 Z " />
<glyph glyph-name="Wgrave" unicode="&#x1e80;" horiz-adv-x="917" d="M656 112 L666 112 L791 735 L898 735 L744 0 L585 0 L464 561 L453 561 L332 0 L173 0 L19 735 L127 735 L251 112 L261 112 L398 735 L519 735 L656 112 Z M314 901 Q299 912 298 931.5 Q297 951 310 964 Q323 976 342 975 Q361 974 372 960 L483 818 L456 791 L314 901 Z " />
</font>
</svg>
