<?xml version="1.0" encoding="iso-8859-1"?>
<!-- Generator: Adobe Illustrator 27.0.0, SVG Export Plug-In . SVG Version: 6.00 Build 0)  -->
<svg version="1.1" baseProfile="basic" id="Layer_1"
	 xmlns="http://www.w3.org/2000/svg" xmlns:xlink="http://www.w3.org/1999/xlink" x="0px" y="0px" viewBox="0 0 48 48"
	 xml:space="preserve">
<g>
	<path style="opacity:0.05;fill:#0363EB;" d="M35.789,26.256c0.376-0.498,0.234-1.212-0.304-1.528l-2.287-1.343
		c-0.402-0.236-0.599-0.71-0.481-1.162l0.668-2.566c0.157-0.604-0.248-1.209-0.866-1.295l-2.626-0.365
		c-0.462-0.064-0.825-0.427-0.889-0.889l-0.365-2.626c-0.086-0.618-0.692-1.023-1.295-0.866l-2.566,0.668
		c-0.451,0.117-0.926-0.079-1.162-0.481l-1.343-2.287c-0.316-0.538-1.03-0.68-1.528-0.304l-2.115,1.599
		c-0.372,0.281-0.885,0.281-1.258,0l-1.812-1.369C12.739,14.475,11,18.53,11,23c0,9.389,7.611,17,17,17
		c1.838,0,3.601-0.306,5.256-0.85c0.144-0.233,0.203-0.519,0.128-0.807l-0.668-2.566c-0.117-0.451,0.079-0.926,0.481-1.162
		l2.287-1.343c0.538-0.316,0.68-1.03,0.304-1.528l-1.599-2.115c-0.281-0.372-0.281-0.885,0-1.258L35.789,26.256z"/>
	<path style="opacity:0.1;fill:#0363EB;" d="M35.212,26.345c0.364-0.482,0.227-1.173-0.294-1.478l-2.213-1.299
		c-0.389-0.228-0.579-0.687-0.466-1.124l0.646-2.483c0.152-0.584-0.24-1.17-0.837-1.253l-2.541-0.353
		c-0.447-0.062-0.798-0.413-0.86-0.86l-0.353-2.541c-0.083-0.598-0.669-0.989-1.253-0.837l-2.483,0.646
		c-0.437,0.114-0.896-0.077-1.124-0.466l-1.299-2.213c-0.306-0.521-0.997-0.658-1.478-0.294l-2.047,1.547
		c-0.36,0.272-0.857,0.272-1.217,0l-2.047-1.547c-0.022-0.016-0.048-0.018-0.071-0.033C12.623,14.753,11,18.683,11,23
		c0,9.389,7.611,17,17,17c0.305,0,0.607-0.017,0.908-0.033c0.155-0.168,0.361-0.287,0.599-0.32l2.541-0.353
		c0.598-0.083,0.989-0.669,0.837-1.253l-0.646-2.483c-0.114-0.437,0.077-0.896,0.466-1.124l2.213-1.299
		c0.521-0.306,0.658-0.997,0.294-1.478l-1.547-2.047c-0.272-0.36-0.272-0.857,0-1.217L35.212,26.345z"/>
	<path style="opacity:0.2;fill:#0363EB;" d="M34.636,26.434c0.352-0.465,0.219-1.134-0.284-1.429l-2.139-1.256
		c-0.376-0.221-0.56-0.664-0.45-1.086l0.624-2.4c0.147-0.565-0.232-1.131-0.809-1.211l-2.456-0.342
		c-0.432-0.06-0.771-0.4-0.832-0.832l-0.342-2.456c-0.08-0.578-0.647-0.956-1.211-0.809l-2.4,0.624
		c-0.422,0.11-0.866-0.074-1.086-0.45l-1.256-2.139c-0.295-0.503-0.964-0.636-1.429-0.284l-1.978,1.495
		c-0.348,0.263-0.828,0.263-1.176,0l-1.978-1.495c-0.167-0.126-0.36-0.17-0.553-0.176C12.456,15.126,11,18.893,11,23
		c0,9.389,7.611,17,17,17c0.112,0,0.221-0.01,0.332-0.012c0.106-0.364,0.406-0.644,0.79-0.698l2.456-0.342
		c0.578-0.08,0.956-0.647,0.809-1.211l-0.624-2.4c-0.11-0.422,0.074-0.866,0.45-1.086l2.139-1.256
		c0.503-0.295,0.636-0.964,0.284-1.429l-1.495-1.978c-0.263-0.348-0.263-0.828,0-1.176L34.636,26.434z"/>
	<path style="opacity:0.3;fill:#0363EB;" d="M34.06,26.523c0.34-0.449,0.211-1.094-0.274-1.379l-2.064-1.212
		c-0.363-0.213-0.54-0.641-0.434-1.049l0.603-2.317c0.142-0.545-0.224-1.092-0.781-1.169l-2.371-0.33
		c-0.417-0.058-0.745-0.386-0.803-0.803l-0.33-2.371c-0.078-0.558-0.624-0.923-1.169-0.781l-2.317,0.603
		c-0.407,0.106-0.836-0.071-1.049-0.434l-1.212-2.064c-0.285-0.486-0.93-0.614-1.379-0.274l-1.91,1.443
		c-0.336,0.254-0.799,0.254-1.135,0l-1.91-1.443c-0.449-0.34-1.094-0.211-1.379,0.274l-1.212,2.064
		c-0.041,0.07-0.096,0.126-0.151,0.181C11.651,17.735,11,20.289,11,23c0,9.354,7.557,16.939,16.898,16.995l0.036-0.258
		c0.058-0.417,0.386-0.745,0.803-0.803l2.371-0.33c0.558-0.078,0.923-0.624,0.781-1.169l-0.603-2.317
		c-0.106-0.407,0.071-0.836,0.434-1.049l2.064-1.212c0.486-0.285,0.614-0.93,0.274-1.379l-1.443-1.91
		c-0.254-0.336-0.254-0.799,0-1.135L34.06,26.523z"/>
	<path style="opacity:0.4;fill:#0363EB;" d="M33.483,26.612c0.327-0.433,0.204-1.055-0.265-1.33l-1.99-1.169
		c-0.35-0.206-0.521-0.618-0.419-1.011l0.581-2.234c0.137-0.526-0.216-1.053-0.753-1.127l-2.286-0.318
		c-0.402-0.056-0.718-0.372-0.774-0.774l-0.318-2.286c-0.075-0.538-0.602-0.89-1.127-0.753l-2.234,0.581
		c-0.393,0.102-0.806-0.069-1.011-0.419l-1.169-1.99c-0.275-0.468-0.897-0.592-1.33-0.265l-1.841,1.392
		c-0.324,0.245-0.771,0.245-1.094,0l-1.841-1.392c-0.433-0.327-1.055-0.204-1.33,0.265l-1.169,1.99
		c-0.15,0.256-0.412,0.413-0.695,0.441C11.51,18.293,11,20.586,11,23c0,9.217,7.339,16.702,16.49,16.974l0.087-0.623
		c0.056-0.402,0.372-0.718,0.774-0.774l2.286-0.318c0.538-0.075,0.89-0.602,0.753-1.127l-0.581-2.234
		c-0.102-0.393,0.069-0.806,0.419-1.011l1.99-1.169c0.468-0.275,0.592-0.897,0.265-1.33l-1.392-1.841
		c-0.245-0.324-0.245-0.771,0-1.094L33.483,26.612z"/>
	<path style="opacity:0.5;fill:#0363EB;" d="M32.906,26.7c0.315-0.417,0.196-1.016-0.255-1.28l-1.916-1.125
		c-0.337-0.198-0.502-0.595-0.403-0.974l0.56-2.151c0.132-0.506-0.208-1.013-0.725-1.085l-2.201-0.306
		c-0.387-0.054-0.691-0.358-0.745-0.745l-0.306-2.201c-0.072-0.518-0.58-0.857-1.085-0.725l-2.151,0.56
		c-0.378,0.098-0.776-0.066-0.974-0.403l-1.125-1.916c-0.265-0.451-0.863-0.57-1.28-0.255l-1.773,1.34
		c-0.312,0.236-0.742,0.236-1.054,0l-1.773-1.34c-0.417-0.315-1.016-0.196-1.28,0.255l-1.125,1.916
		c-0.198,0.337-0.595,0.502-0.974,0.403l-0.082-0.021C11.447,18.611,11,20.752,11,23c0,9.079,7.123,16.475,16.083,16.954
		l0.137-0.988c0.054-0.387,0.358-0.691,0.745-0.745l2.201-0.306c0.518-0.072,0.857-0.58,0.725-1.085l-0.56-2.151
		c-0.098-0.378,0.066-0.776,0.403-0.974l1.916-1.125c0.451-0.265,0.57-0.863,0.255-1.28l-1.34-1.773
		c-0.236-0.312-0.236-0.742,0-1.054L32.906,26.7z"/>
	<path style="opacity:0.6;fill:#0363EB;" d="M26.864,19.42l-0.294-2.116c-0.069-0.498-0.557-0.824-1.043-0.697l-2.067,0.538
		c-0.364,0.095-0.746-0.064-0.936-0.388l-1.081-1.842c-0.254-0.433-0.83-0.548-1.231-0.245l-1.704,1.288
		c-0.3,0.227-0.713,0.227-1.013,0l-1.704-1.288c-0.401-0.303-0.976-0.189-1.231,0.245l-1.082,1.842
		c-0.19,0.324-0.572,0.482-0.936,0.388l-0.442-0.115C11.4,18.89,11,20.896,11,23c0,8.942,6.908,16.255,15.676,16.933l0.188-1.353
		c0.052-0.372,0.344-0.665,0.716-0.716l2.116-0.294c0.498-0.069,0.824-0.557,0.697-1.044l-0.538-2.067
		c-0.095-0.364,0.064-0.746,0.388-0.936l1.842-1.082c0.433-0.254,0.548-0.83,0.245-1.231l-1.288-1.704
		c-0.227-0.3-0.227-0.713,0-1.013l1.288-1.704c0.303-0.401,0.189-0.976-0.245-1.231l-1.842-1.081
		c-0.324-0.19-0.482-0.572-0.388-0.936l0.538-2.067c0.127-0.486-0.199-0.974-0.697-1.043l-2.116-0.294
		C27.208,20.084,26.916,19.792,26.864,19.42z"/>
</g>
<path style="opacity:0.8;fill:#005BC9;" d="M17.494,15.958l-1.704-1.288c-0.401-0.303-0.976-0.189-1.231,0.245l-1.082,1.842
	c-0.19,0.324-0.572,0.482-0.936,0.388l-0.455-0.118C11.388,18.885,11,20.896,11,23c0,8.942,6.908,16.255,15.676,16.933l0.188-1.353
	c0.052-0.372,0.344-0.665,0.716-0.716l2.116-0.294c0.498-0.069,0.824-0.557,0.697-1.044l-0.538-2.067
	c-0.095-0.364,0.064-0.746,0.388-0.936l1.842-1.082c0.433-0.254,0.548-0.83,0.245-1.231l-1.288-1.704
	c-0.227-0.3-0.227-0.713,0-1.013l1.288-1.704c0.303-0.401,0.189-0.976-0.245-1.231l-1.842-1.081
	c-0.324-0.19-0.482-0.572-0.388-0.936l0.538-2.067c0.127-0.486-0.199-0.974-0.697-1.043l-2.116-0.294
	c-0.372-0.052-0.665-0.344-0.716-0.716l-0.294-2.116c-0.069-0.498-0.557-0.824-1.043-0.697l-2.067,0.538
	c-0.364,0.095-0.746-0.064-0.936-0.388l-1.081-1.842c-0.254-0.433-0.83-0.548-1.231-0.245l-1.704,1.288
	C18.207,16.185,17.793,16.185,17.494,15.958z"/>
<linearGradient id="SVGID_1_" gradientUnits="userSpaceOnUse" x1="18" y1="46.6925" x2="18" y2="9.5318">
	<stop  offset="0" style="stop-color:#009CFC"/>
	<stop  offset="0.1203" style="stop-color:#18ABFC"/>
	<stop  offset="0.4164" style="stop-color:#4ECCFE"/>
	<stop  offset="0.6723" style="stop-color:#76E4FE"/>
	<stop  offset="0.8753" style="stop-color:#8EF3FF"/>
	<stop  offset="1" style="stop-color:#97F8FF"/>
</linearGradient>
<path style="fill:url(#SVGID_1_);" d="M18.506,15.958l1.704-1.288c0.401-0.303,0.976-0.189,1.231,0.245l1.082,1.842
	c0.19,0.324,0.572,0.482,0.936,0.388l2.067-0.538c0.486-0.127,0.974,0.199,1.043,0.697l0.294,2.116
	c0.052,0.372,0.344,0.665,0.716,0.716l2.116,0.294c0.498,0.069,0.824,0.557,0.697,1.043l-0.538,2.067
	c-0.095,0.364,0.064,0.746,0.388,0.936l1.842,1.082c0.433,0.254,0.548,0.83,0.245,1.231l-1.288,1.704
	c-0.226,0.3-0.226,0.713,0,1.013l1.288,1.704c0.303,0.401,0.189,0.976-0.245,1.231l-1.842,1.082
	c-0.324,0.19-0.482,0.572-0.388,0.936l0.538,2.067c0.127,0.486-0.199,0.974-0.697,1.043l-2.116,0.294
	c-0.372,0.052-0.665,0.344-0.716,0.716l-0.294,2.116c-0.069,0.498-0.557,0.824-1.043,0.697l-2.067-0.538
	c-0.364-0.095-0.746,0.064-0.936,0.388l-1.082,1.842c-0.254,0.433-0.83,0.548-1.231,0.245l-1.704-1.288
	c-0.3-0.226-0.713-0.226-1.013,0l-1.704,1.288c-0.401,0.303-0.976,0.189-1.231-0.245l-1.082-1.842
	c-0.19-0.324-0.572-0.482-0.936-0.388l-2.067,0.538C9.987,41.52,9.5,41.194,9.43,40.696L9.136,38.58
	c-0.052-0.372-0.344-0.665-0.716-0.716L6.304,37.57C5.806,37.5,5.48,37.013,5.607,36.526l0.538-2.067
	c0.095-0.364-0.064-0.746-0.388-0.936l-1.842-1.082c-0.433-0.254-0.548-0.83-0.245-1.231l1.288-1.704c0.226-0.3,0.226-0.713,0-1.013
	L3.67,26.789c-0.303-0.401-0.189-0.976,0.245-1.231l1.842-1.082c0.324-0.19,0.482-0.572,0.388-0.936l-0.538-2.067
	C5.48,20.987,5.806,20.5,6.304,20.43l2.116-0.294c0.372-0.052,0.665-0.344,0.716-0.716l0.294-2.116
	c0.069-0.498,0.557-0.824,1.043-0.697l2.067,0.538c0.364,0.095,0.746-0.064,0.936-0.388l1.082-1.842
	c0.254-0.433,0.83-0.548,1.231-0.245l1.704,1.288C17.793,16.185,18.207,16.185,18.506,15.958z"/>
<radialGradient id="SVGID_00000160908784694695372660000012421632463458588559_" cx="28.9239" cy="22.4258" r="20.8026" gradientUnits="userSpaceOnUse">
	<stop  offset="0.8" style="stop-color:#0262EB"/>
	<stop  offset="1" style="stop-color:#0666FD;stop-opacity:0"/>
</radialGradient>
<path style="fill:url(#SVGID_00000160908784694695372660000012421632463458588559_);" d="M22.025,42.091l0.498-0.848
	c0.19-0.324,0.572-0.482,0.936-0.388l2.067,0.538c0.486,0.127,0.974-0.199,1.043-0.697l0.294-2.116
	c0.052-0.372,0.344-0.665,0.716-0.716l2.116-0.294c0.498-0.069,0.824-0.557,0.697-1.044l-0.538-2.067
	c-0.095-0.364,0.064-0.746,0.388-0.936l1.842-1.082c0.433-0.254,0.548-0.83,0.245-1.231l-1.288-1.704
	c-0.227-0.3-0.227-0.713,0-1.013l1.288-1.704c0.303-0.401,0.189-0.976-0.245-1.231l-1.842-1.081
	c-0.324-0.19-0.482-0.572-0.388-0.936l0.538-2.067c0.127-0.486-0.199-0.974-0.697-1.043l-2.116-0.294
	c-0.372-0.052-0.665-0.344-0.716-0.716l-0.294-2.116c-0.069-0.498-0.557-0.824-1.043-0.697l-2.067,0.538
	c-0.364,0.095-0.746-0.064-0.936-0.388l-1.081-1.842c-0.254-0.433-0.83-0.548-1.231-0.245l-1.704,1.288
	c-0.3,0.227-0.713,0.227-1.013,0l-1.704-1.288c-0.401-0.303-0.976-0.189-1.231,0.245l-1.082,1.842
	c-0.19,0.324-0.572,0.482-0.936,0.388l-2.067-0.538C9.987,16.48,9.5,16.806,9.43,17.304L9.136,19.42
	c-0.052,0.372-0.344,0.665-0.716,0.716l-0.196,0.027C8.092,21.092,8,22.034,8,23C8,31.964,13.898,39.55,22.025,42.091z"/>
<path style="fill:#0262EB;" d="M32.33,26.789c0.303-0.401,0.189-0.976-0.245-1.231l-1.842-1.081
	c-0.324-0.19-0.482-0.572-0.388-0.936l0.538-2.067c0.127-0.486-0.199-0.974-0.697-1.043l-2.116-0.294
	c-0.372-0.052-0.665-0.344-0.716-0.716l-0.294-2.116c-0.069-0.498-0.557-0.824-1.043-0.697l-2.067,0.538
	c-0.364,0.095-0.746-0.064-0.936-0.388l-1.081-1.842c-0.254-0.433-0.83-0.548-1.231-0.245l-1.704,1.288
	c-0.3,0.227-0.713,0.227-1.013,0l-1.704-1.288c-0.401-0.303-0.976-0.189-1.231,0.245l-1.082,1.842
	c-0.19,0.324-0.572,0.482-0.936,0.388l-0.442-0.115C11.4,18.89,11,20.896,11,23c0,8.942,6.908,16.255,15.676,16.933l0.188-1.353
	c0.052-0.372,0.344-0.665,0.716-0.716l2.116-0.294c0.498-0.069,0.824-0.557,0.697-1.044l-0.538-2.067
	c-0.095-0.364,0.064-0.746,0.388-0.936l1.842-1.082c0.433-0.254,0.548-0.83,0.245-1.231l-1.288-1.704
	c-0.227-0.3-0.227-0.713,0-1.013L32.33,26.789z"/>
<linearGradient id="SVGID_00000183240857041307797960000006843893756115889028_" gradientUnits="userSpaceOnUse" x1="7.8728" y1="35.1038" x2="33.4799" y2="19.7046">
	<stop  offset="0" style="stop-color:#CCFBFF;stop-opacity:0.4"/>
	<stop  offset="1" style="stop-color:#DAA6FF;stop-opacity:0.5"/>
</linearGradient>
<path style="fill:url(#SVGID_00000183240857041307797960000006843893756115889028_);" d="M28,6c-9.389,0-17,7.611-17,17
	s7.611,17,17,17s17-7.611,17-17S37.389,6,28,6z"/>
<linearGradient id="SVGID_00000178925826091423956920000000791794062795654330_" gradientUnits="userSpaceOnUse" x1="7.9711" y1="36.9503" x2="35.8731" y2="17.5163">
	<stop  offset="0" style="stop-color:#FFFFFF;stop-opacity:0.2"/>
	<stop  offset="1" style="stop-color:#1676EE;stop-opacity:0.2"/>
</linearGradient>
<path style="fill:url(#SVGID_00000178925826091423956920000000791794062795654330_);" d="M28,6.425
	c9.139,0,16.575,7.436,16.575,16.575S37.139,39.575,28,39.575S11.425,32.139,11.425,23S18.861,6.425,28,6.425L28,6.425z M28,6
	c-9.389,0-17,7.611-17,17s7.611,17,17,17s17-7.611,17-17S37.389,6,28,6L28,6z"/>
<g>
	<path style="opacity:0.05;fill:#0161EB;" d="M36.729,12.953L36.729,12.953c-0.793-0.768-2.062-0.746-2.829,0.044l-5.936,6.125
		C25.458,18.484,23,20.393,23,23c0,2.653,2.546,4.582,5.095,3.839l4.185,3.512c0.918,0.771,2.326,0.695,3.14-0.274
		c0.791-0.943,0.67-2.348-0.275-3.139l-4.172-3.502c0.069-0.576-0.004-1.096-0.133-1.532l5.933-6.122
		C37.541,14.988,37.523,13.724,36.729,12.953z"/>
	<path style="opacity:0.1;fill:#0161EB;" d="M36.554,13.133C36.554,13.133,36.554,13.132,36.554,13.133
		c-0.436-0.422-1.045-0.556-1.573-0.406c-0.332,0.039-0.86,0.401-1.109,0.659l-5.771,5.955c-0.115-0.029-0.297,0.019-0.411,0.003
		c-2.264-0.468-4.44,1.289-4.44,3.656c0,2.527,2.47,4.356,4.894,3.554l4.073,3.418c0.26,0.218,0.796,0.534,1.117,0.569
		c0.659,0.167,1.406-0.042,1.895-0.625c0.455-0.543,0.551-1.268,0.315-1.865c-0.076-0.348-0.534-0.902-0.829-1.148l-3.728-3.129
		c0.004-0.015-0.271-0.294-0.263-0.348c0.065-0.517,0.011-1.034-0.142-1.508c-0.009-0.023,0.14-0.212,0.128-0.237l5.642-5.822
		c0.271-0.28,0.655-0.888,0.666-1.249C37.124,14.103,36.969,13.535,36.554,13.133z"/>
	<path style="opacity:0.15;fill:#0161EB;" d="M36.38,13.312C36.38,13.312,36.38,13.311,36.38,13.312
		c-0.423-0.41-1.04-0.495-1.52-0.263c-0.221,0.026-0.85,0.553-1.016,0.724l-5.607,5.785c-0.077-0.019-0.289,0.106-0.365,0.096
		C25.684,19.032,23.5,20.712,23.5,23c0,2.401,2.395,4.131,4.692,3.268l3.961,3.324c0.173,0.145,0.829,0.606,1.043,0.63
		c0.613,0.257,1.369,0.094,1.84-0.467c0.449-0.535,0.49-1.276,0.159-1.82c-0.051-0.232-0.717-0.903-0.913-1.068l-3.668-3.079
		c0.009-0.031-0.158-0.266-0.143-0.374c0.06-0.459,0.027-0.972-0.151-1.484c-0.018-0.047,0.067-0.205,0.043-0.254l5.564-5.741
		c0.181-0.187,0.76-0.926,0.767-1.167C36.895,14.298,36.789,13.708,36.38,13.312z"/>
	<path style="opacity:0.2;fill:#0161EB;" d="M36.206,13.492C36.206,13.491,36.206,13.491,36.206,13.492
		c-0.41-0.397-1.035-0.435-1.467-0.121c-0.111,0.013-0.84,0.705-0.923,0.79l-5.442,5.615c-0.038-0.01-0.28,0.193-0.318,0.188
		C25.942,19.189,23.75,20.792,23.75,23c0,2.275,2.319,3.905,4.491,2.983l3.849,3.229c0.087,0.073,0.863,0.679,0.97,0.691
		c0.566,0.347,1.331,0.231,1.785-0.309c0.442-0.527,0.429-1.285,0.004-1.775c-0.025-0.116-0.899-0.905-0.997-0.988l-3.608-3.028
		c0.013-0.046-0.046-0.238-0.022-0.401c0.055-0.4,0.042-0.91-0.16-1.46c-0.027-0.07-0.005-0.197-0.042-0.271l5.486-5.661
		c0.09-0.093,0.866-0.964,0.869-1.084C36.667,14.493,36.609,13.882,36.206,13.492z"/>
	<path style="opacity:0.4;fill:#0161EB;" d="M36.032,13.671c-0.397-0.384-1.03-0.374-1.414,0.022l-6.379,6.582
		C26.2,19.345,24,20.872,24,23c0,2.149,2.243,3.679,4.29,2.698l4.633,3.887c0.52,0.436,1.294,0.368,1.73-0.151
		c0.436-0.52,0.368-1.294-0.151-1.73l-4.629-3.884c0.049-0.172,0.351-1.052-0.198-2.151l6.38-6.583
		C36.439,14.688,36.429,14.055,36.032,13.671z"/>
</g>
<path style="fill:#FFFFFF;" d="M36.032,13.671c-0.397-0.384-1.03-0.374-1.414,0.022l-6.379,6.582C27.861,20.102,27.443,20,27,20
	c-1.657,0-3,1.343-3,3s1.343,3,3,3c0.464,0,0.898-0.114,1.29-0.302l4.633,3.887c0.52,0.436,1.294,0.368,1.73-0.151
	c0.436-0.52,0.368-1.294-0.151-1.73l-4.629-3.884C29.947,23.557,30,23.286,30,23c0-0.481-0.124-0.929-0.325-1.332l6.38-6.583
	C36.439,14.688,36.429,14.055,36.032,13.671z M27,24c-0.552,0-1-0.448-1-1c0-0.552,0.448-1,1-1c0.552,0,1,0.448,1,1
	C28,23.552,27.552,24,27,24z"/>
</svg>