<?xml version="1.0" encoding="UTF-8"?>
<svg xmlns="http://www.w3.org/2000/svg" xmlns:xlink="http://www.w3.org/1999/xlink" version="1.2" >
<font id="Liber Grotesque Family Blk Obl">
<font-face  font-family="Liber Grotesque Family" units-per-em="1000" ascent="768" descent="-256" font-style="italic" font-weight="900" font-stretch="normal" cap-height="735" x-height="512" underline-position="-106" underline-thickness="73" />
<missing-glyph  horiz-adv-x="830" d="M203 768 L843 768 L735 0 L95 0 L203 768 Z M680 64 L770 704 L258 704 L168 64 L680 64 Z M420 381 L458 381 Q493 381 521.5 406 Q550 431 554 466 Q559 501 537.5 526 Q516 551 481 551 Q446 551 417.5 526 Q389 501 384 466 L295 466 Q301 502 319 534 Q337 566 363.5 589.5 Q390 613 424 626.5 Q458 640 494 640 Q530 640 560 626.5 Q590 613 610.5 589.5 Q631 566 640 534 Q649 502 643 466 Q638 430 620 398 Q602 366 575.5 342.5 Q549 319 515 305.5 Q481 292 445 292 L407 292 L420 381 Z M377 186 Q381 210 400 227 Q419 244 443 244 Q467 244 482 227 Q497 210 493 186 Q490 162 470.5 145 Q451 128 427 128 Q403 128 388.5 145 Q374 162 377 186 Z " />
<glyph glyph-name="null" d="" />
<glyph glyph-name="nonmarkingreturn" unicode="&#xd;" horiz-adv-x="342" d="" />
<glyph glyph-name="space" unicode="&#x20;" horiz-adv-x="300" d="" />
<glyph glyph-name="quotedbl" unicode="&#x22;" horiz-adv-x="357" d="M201 548 L154 548 L152 716 Q152 737 167 755.5 Q182 774 209 774 Q237 774 246.5 755.5 Q256 737 249 715 L201 548 Z M358 548 L311 548 L309 716 Q309 737 324 755.5 Q339 774 366 774 Q394 774 403.5 755.5 Q413 737 406 715 L358 548 Z " />
<glyph glyph-name="numbersign" unicode="&#x23;" horiz-adv-x="729" d="M499 428 L392 428 L334 297 L440 297 L499 428 Z M315 520 L408 732 L524 732 L430 520 L536 520 L631 732 L746 732 L652 520 L793 520 L755 430 L614 430 L557 300 L708 300 L670 210 L519 210 L425 0 L310 0 L403 210 L298 210 L203 0 L88 0 L181 210 L48 210 L85 300 L218 300 L277 430 L133 430 L171 520 L315 520 Z " />
<glyph glyph-name="dollar" unicode="&#x24;" horiz-adv-x="612" d="M367 876 L504 876 L485 742 Q528 730 557.5 707 Q587 684 604.5 654.5 Q622 625 628 591 Q634 557 630 524 L497 524 Q497 530 494.5 546.5 Q492 563 481 580 Q470 597 448 610 Q426 623 388 623 Q337 623 305.5 601.5 Q274 580 269 548 Q265 519 282.5 500 Q300 481 329 466 L456 404 Q538 364 573.5 313 Q609 262 598 187 Q592 144 573 110.5 Q554 77 524.5 52 Q495 27 457.5 11.5 Q420 -4 379 -11 L363 -128 L226 -128 L243 -9 Q175 3 129.5 35 Q84 67 66 105 L178 187 Q198 158 238.5 136.5 Q279 115 334 115 Q390 115 420.5 136 Q451 157 455 187 Q459 215 445.5 235 Q432 255 392 273 L269 332 Q183 373 150 425.5 Q117 478 127 548 Q132 586 150.5 619 Q169 652 198 678 Q227 704 265.5 722 Q304 740 349 747 L367 876 Z " />
<glyph glyph-name="percent" unicode="&#x25;" horiz-adv-x="631" d="M676 678 L202 90 L63 90 L537 678 L676 678 Z M418 177 Q423 213 452 238.5 Q481 264 517 264 Q553 264 575 238.5 Q597 213 592 177 Q587 141 558 115.5 Q529 90 493 90 Q457 90 435 115.5 Q413 141 418 177 Z M137 591 Q142 627 171 652.5 Q200 678 236 678 Q272 678 294 652.5 Q316 627 311 591 Q306 555 277 529.5 Q248 504 212 504 Q176 504 154 529.5 Q132 555 137 591 Z " />
<glyph glyph-name="ampersand" unicode="&#x26;" horiz-adv-x="732" d="M739 404 L736 381 Q727 319 702 255.5 Q677 192 633 137 L722 12 L720 0 L576 0 L539 50 Q494 21 438.5 4 Q383 -13 315 -13 Q247 -13 196.5 6 Q146 25 113 58 Q80 91 66 136 Q52 181 60 232 Q65 272 84.5 305 Q104 338 131 363.5 Q158 389 190.5 407 Q223 425 256 434 L245 449 Q222 480 215 516.5 Q208 553 215 591 Q221 627 240 661.5 Q259 696 288.5 722 Q318 748 359.5 764 Q401 780 452 780 Q507 780 545 761 Q583 742 606.5 712 Q630 682 638.5 645.5 Q647 609 642 573 L510 573 Q512 589 509 604 Q506 619 497 631 Q488 643 472.5 650 Q457 657 434 657 Q399 657 376.5 637 Q354 617 348 589 Q344 572 348.5 555 Q353 538 364 521 L561 240 Q596 300 608 381 L611 404 L739 404 Z M332 109 Q409 109 469 144 L321 345 Q274 337 239 310 Q204 283 197 235 Q193 209 200.5 186 Q208 163 225.5 146 Q243 129 270 119 Q297 109 332 109 Z " />
<glyph glyph-name="quotesingle" unicode="&#x27;" horiz-adv-x="233" d="M124 495 L185 595 Q155 601 138 625 Q121 649 126 681 Q131 717 160 742.5 Q189 768 225 768 Q249 768 266.5 756 Q284 744 292 725.5 Q300 707 298 683.5 Q296 660 281 636 L178 467 L124 495 Z " />
<glyph glyph-name="parenleft" unicode="&#x28;" horiz-adv-x="351" d="M277 351 Q266 273 272 200 Q278 127 299 60 L265 -186 Q187 -77 155 59.5 Q123 196 144 351 Q166 505 236.5 642 Q307 779 416 888 L381 641 Q341 575 314.5 502 Q288 429 277 351 Z " />
<glyph glyph-name="parenright" unicode="&#x29;" horiz-adv-x="351" d="M172 351 Q183 429 177.5 502 Q172 575 150 642 L185 888 Q262 779 294.5 642.5 Q327 506 305 351 Q284 197 213 60 Q142 -77 34 -186 L69 61 Q109 127 135 200 Q161 273 172 351 Z " />
<glyph glyph-name="asterisk" unicode="&#x2a;" horiz-adv-x="404" d="M278 543 L199 454 L143 509 L217 593 L119 633 L163 713 L254 676 L268 779 L354 779 L340 676 L441 713 L463 633 L353 593 L405 509 L333 454 L278 543 Z " />
<glyph glyph-name="plus" unicode="&#x2b;" horiz-adv-x="612" d="M77 192 L95 320 L287 320 L314 512 L442 512 L415 320 L607 320 L589 192 L397 192 L370 0 L242 0 L269 192 L77 192 Z " />
<glyph glyph-name="comma" unicode="&#x2c;" horiz-adv-x="273" d="M60 -99 L121 1 Q92 7 75 31 Q58 55 62 87 Q67 123 96 148.5 Q125 174 161 174 Q185 174 202.5 162 Q220 150 228.5 131.5 Q237 113 234.5 89.5 Q232 66 218 42 L114 -127 L60 -99 Z " />
<glyph glyph-name="hyphen" unicode="&#x2d;" horiz-adv-x="612" d="M77 192 L95 320 L607 320 L589 192 L77 192 Z " />
<glyph glyph-name="period" unicode="&#x2e;" horiz-adv-x="274" d="M62 87 Q67 123 96 148.5 Q125 174 161 174 Q197 174 219 148.5 Q241 123 236 87 Q231 51 202 25.5 Q173 0 137 0 Q101 0 79 25.5 Q57 51 62 87 Z " />
<glyph glyph-name="slash" unicode="&#x2f;" horiz-adv-x="265" d="M401 751 L101 -17 L-32 -17 L268 751 L401 751 Z " />
<glyph glyph-name="zero" unicode="0" horiz-adv-x="697" d="M108 377 Q119 458 147.5 530 Q176 602 220 656 Q264 710 323.5 741.5 Q383 773 457 773 Q531 773 581.5 742 Q632 711 661.5 657 Q691 603 699 531 Q707 459 695 377 Q684 296 655.5 224 Q627 152 582.5 98 Q538 44 478.5 12.5 Q419 -19 345 -19 Q271 -19 220.5 12.5 Q170 44 141 98 Q112 152 104.5 224 Q97 296 108 377 Z M365 112 Q398 112 427.5 131.5 Q457 151 481.5 186.5 Q506 222 523.5 270.5 Q541 319 549 377 Q557 435 553 484 Q549 533 534.5 568.5 Q520 604 495.5 623.5 Q471 643 438 643 Q405 643 375.5 623.5 Q346 604 321.5 568.5 Q297 533 279.5 484 Q262 435 254 377 Q246 318 249.5 269.5 Q253 221 267.5 186 Q282 151 307 131.5 Q332 112 365 112 Z " />
<glyph glyph-name="one" unicode="1" horiz-adv-x="494" d="M127 515 L143 626 L230 626 Q247 626 260 639.5 Q273 653 276 674 L287 757 L419 757 L330 118 L456 118 L439 0 L56 0 L73 118 L198 118 L253 515 L127 515 Z " />
<glyph glyph-name="two" unicode="2" horiz-adv-x="635" d="M575 0 L64 0 L77 96 L431 388 Q460 413 486.5 443.5 Q513 474 518 512 Q526 567 497.5 603.5 Q469 640 410 640 Q350 640 311 603.5 Q272 567 264 512 L136 512 Q143 564 168 611 Q193 658 232 692.5 Q271 727 321 747.5 Q371 768 428 768 Q486 768 530.5 747.5 Q575 727 603.5 692.5 Q632 658 643.5 611 Q655 564 648 512 Q643 477 631 448 Q619 419 599 392 Q579 365 552 339 Q525 313 491 286 L280 117 L591 117 L575 0 Z " />
<glyph glyph-name="three" unicode="3" horiz-adv-x="661" d="M167 559 Q173 604 196.5 643.5 Q220 683 255.5 712.5 Q291 742 337.5 759 Q384 776 436 776 Q491 776 532.5 759 Q574 742 601 713 Q628 684 638.5 644.5 Q649 605 643 559 Q635 503 613 465 Q591 427 559 402 Q576 391 591.5 373.5 Q607 356 617.5 334.5 Q628 313 633 287 Q638 261 634 233 Q626 178 600.5 131.5 Q575 85 535 51.5 Q495 18 441.5 -1 Q388 -20 324 -20 Q267 -20 218.5 -1 Q170 18 136 51.5 Q102 85 86 131.5 Q70 178 78 233 L217 233 Q213 207 221 184 Q229 161 245.5 144 Q262 127 287 116.5 Q312 106 342 106 Q404 106 444 139.5 Q484 173 492 224 Q501 275 471 303 Q441 331 389 331 L290 331 L306 448 L385 448 Q434 448 468 476.5 Q502 505 508 551 Q514 592 490.5 620 Q467 648 418 648 Q396 648 376.5 640.5 Q357 633 342 621 Q327 609 317 593 Q307 577 305 559 L167 559 Z " />
<glyph glyph-name="four" unicode="4" horiz-adv-x="612" d="M610 128 L482 128 L464 0 L336 0 L354 128 L44 128 L32 154 L442 757 L570 757 L499 246 L627 246 L610 128 Z M234 246 L371 246 L407 505 L234 246 Z " />
<glyph glyph-name="five" unicode="5" horiz-adv-x="636" d="M338 125 Q365 125 390 135.5 Q415 146 435 164 Q455 182 468.5 205.5 Q482 229 486 256 Q490 283 483.5 307 Q477 331 461.5 348.5 Q446 366 424 376.5 Q402 387 375 387 Q331 387 298 367.5 Q265 348 242 320 L117 320 L213 757 L618 757 L602 639 L307 639 L271 470 Q296 487 328.5 499.5 Q361 512 403 512 Q457 512 499 492 Q541 472 569 437.5 Q597 403 608 356 Q619 309 612 256 Q605 203 577.5 156.5 Q550 110 511 75.5 Q472 41 422 20.5 Q372 0 320 0 Q276 0 237.5 14.5 Q199 29 170 54.5 Q141 80 122.5 115.5 Q104 151 99 192 L234 192 Q246 161 273 143 Q300 125 338 125 Z " />
<glyph glyph-name="six" unicode="6" horiz-adv-x="636" d="M98 242 Q104 285 124.5 322.5 Q145 360 171 395 L436 757 L577 757 L386 488 Q441 488 485 470 Q550 444 586 384.5 Q622 325 610 242 Q603 189 576 142.5 Q549 96 509.5 61 Q470 26 420.5 6 Q371 -14 318 -14 Q265 -14 221.5 6 Q178 26 147.5 61 Q117 96 104 142.5 Q91 189 98 242 Z M482 242 Q486 268 479 291.5 Q472 315 457 332.5 Q442 350 420.5 360 Q399 370 372 370 Q346 370 321 360 Q296 350 276 332.5 Q256 315 243 291.5 Q230 268 226 242 Q222 216 229 192.5 Q236 169 251 151.5 Q266 134 287.5 124 Q309 114 336 114 Q362 114 387 124 Q412 134 432 151.5 Q452 169 465 192.5 Q478 216 482 242 Z " />
<glyph glyph-name="seven" unicode="7" horiz-adv-x="560" d="M131 0 L444 640 L120 640 L136 757 L621 757 L629 743 L269 0 L131 0 Z " />
<glyph glyph-name="eight" unicode="8" horiz-adv-x="631" d="M619 550 Q614 510 595 475 Q576 440 548 410 Q585 376 602 327 Q619 278 611 222 Q604 169 577 123 Q550 77 509 42.5 Q468 8 416 -12 Q364 -32 307 -32 Q249 -32 202 -12 Q155 8 123.5 42.5 Q92 77 78 123 Q64 169 71 222 Q79 278 110.5 327 Q142 376 189 410 Q168 440 159 475 Q150 510 155 550 Q162 595 186 634.5 Q210 674 246 704 Q282 734 326.5 751 Q371 768 419 768 Q466 768 505.5 751 Q545 734 572.5 704 Q600 674 613 634.5 Q626 595 619 550 Z M324 88 Q349 88 374.5 96.5 Q400 105 420.5 121.5 Q441 138 455.5 162 Q470 186 474 217 Q478 244 472 268 Q466 292 451 310 Q436 328 413.5 338.5 Q391 349 361 349 Q331 349 304.5 338.5 Q278 328 258 310 Q238 292 224.5 268 Q211 244 207 217 Q203 187 211.5 163.5 Q220 140 236.5 123 Q253 106 275.5 97 Q298 88 324 88 Z M376 459 Q394 459 412.5 467 Q431 475 445.5 488 Q460 501 470.5 518 Q481 535 484 554 Q487 573 481 590 Q475 607 464 620 Q453 633 436.5 640.5 Q420 648 402 648 Q381 648 362.5 640.5 Q344 633 329.5 620 Q315 607 306 590 Q297 573 294 554 Q291 535 295.5 518 Q300 501 311 488 Q322 475 338.5 467 Q355 459 376 459 Z " />
<glyph glyph-name="nine" unicode="9" horiz-adv-x="620" d="M648 512 Q642 469 621.5 431.5 Q601 394 575 359 L310 0 L169 0 L360 266 Q304 266 261 284 Q196 310 160 369.5 Q124 429 136 512 Q143 565 169.5 611.5 Q196 658 236 693 Q276 728 325.5 748 Q375 768 428 768 Q481 768 524.5 748 Q568 728 598 693 Q628 658 641.5 611.5 Q655 565 648 512 Z M264 512 Q260 486 267 462.5 Q274 439 289 421.5 Q304 404 325.5 394 Q347 384 374 384 Q400 384 425 394 Q450 404 470 421.5 Q490 439 503 462.5 Q516 486 520 512 Q524 538 517 561.5 Q510 585 495 602.5 Q480 620 458.5 630 Q437 640 410 640 Q384 640 359 630 Q334 620 314 602.5 Q294 585 281 561.5 Q268 538 264 512 Z " />
<glyph glyph-name="colon" unicode="&#x3a;" horiz-adv-x="274" d="M62 87 Q67 123 96 148.5 Q125 174 161 174 Q197 174 219 148.5 Q241 123 236 87 Q231 51 202 25.5 Q173 0 137 0 Q101 0 79 25.5 Q57 51 62 87 Z M101 365 Q106 401 135.5 426.5 Q165 452 201 452 Q237 452 258.5 426.5 Q280 401 275 365 Q270 329 241 303.5 Q212 278 176 278 Q140 278 118 303.5 Q96 329 101 365 Z " />
<glyph glyph-name="semicolon" unicode="&#x3b;" horiz-adv-x="274" d="M60 -99 L121 1 Q92 7 75 31 Q58 55 62 87 Q67 123 96 148.5 Q125 174 161 174 Q185 174 202.5 162 Q220 150 228.5 131.5 Q237 113 234.5 89.5 Q232 66 218 42 L114 -127 L60 -99 Z M101 365 Q106 401 135.5 426.5 Q165 452 201 452 Q237 452 258.5 426.5 Q280 401 275 365 Q270 329 241 303.5 Q212 278 176 278 Q140 278 118 303.5 Q96 329 101 365 Z " />
<glyph glyph-name="less" unicode="&#x3c;" horiz-adv-x="517" d="M378 512 L535 512 L537 501 L258 256 L469 11 L463 0 L306 0 L86 256 L378 512 Z " />
<glyph glyph-name="equal" unicode="&#x3d;" horiz-adv-x="612" d="M59 64 L77 192 L589 192 L571 64 L59 64 Z M95 320 L113 448 L625 448 L607 320 L95 320 Z " />
<glyph glyph-name="question" unicode="&#x3f;" horiz-adv-x="592" d="M257 379 L314 379 Q341 379 365.5 389 Q390 399 410 416.5 Q430 434 443 457 Q456 480 460 507 Q464 534 457.5 557 Q451 580 435.5 597.5 Q420 615 398.5 625 Q377 635 350 635 Q323 635 298.5 625 Q274 615 254.5 597.5 Q235 580 221.5 557 Q208 534 204 507 L71 507 Q79 561 106 609 Q133 657 173 692 Q213 727 264 747.5 Q315 768 369 768 Q423 768 468 747.5 Q513 727 543 692 Q573 657 587 609 Q601 561 593 507 Q586 453 558.5 405 Q531 357 491 322 Q451 287 400.5 266.5 Q350 246 296 246 L239 246 L257 379 Z M194 87 Q199 123 228 148.5 Q257 174 293 174 Q329 174 351 148.5 Q373 123 368 87 Q363 51 334 25.5 Q305 0 269 0 Q233 0 211 25.5 Q189 51 194 87 Z " />
<glyph glyph-name="at" unicode="&#x40;" horiz-adv-x="1161" d="M370 331 Q376 380 400.5 423 Q425 466 461 498 Q497 530 543 548.5 Q589 567 637 567 Q679 567 713 551 Q747 535 772 507 L787 555 L916 555 L858 324 Q849 291 850 268 Q851 245 859.5 230 Q868 215 882.5 208.5 Q897 202 914 202 Q953 202 983 250 Q1013 298 1027 403 Q1035 472 1017 529.5 Q999 587 956.5 628.5 Q914 670 847 692.5 Q780 715 691 715 Q599 715 520.5 686 Q442 657 382.5 604.5 Q323 552 284.5 478 Q246 404 235 314 Q227 248 243.5 184 Q260 120 306 70 Q352 20 429.5 -9.5 Q507 -39 620 -36 Q685 -34 762 -21 Q758 -52 754 -82 Q750 -112 746 -142 Q707 -149 669.5 -153 Q632 -157 596 -159 Q478 -164 379.5 -135 Q281 -106 213 -44.5 Q145 17 113 109 Q81 201 96 323 Q111 442 164 539 Q217 636 298.5 704.5 Q380 773 484 810 Q588 847 707 847 Q830 847 921.5 812.5 Q1013 778 1071.5 718.5 Q1130 659 1154 578.5 Q1178 498 1167 406 Q1156 318 1130 254.5 Q1104 191 1067.5 150 Q1031 109 987 89.5 Q943 70 896 70 Q863 70 837.5 78 Q812 86 793 99.5 Q774 113 760.5 130.5 Q747 148 738 166 Q704 131 660 114 Q616 97 571 97 Q523 97 482.5 115.5 Q442 134 415 165.5 Q388 197 375.5 240 Q363 283 370 331 Z M505 331 Q497 280 523.5 249.5 Q550 219 601 219 Q652 219 687 249.5 Q722 280 730 331 Q732 352 727 372.5 Q722 393 709.5 409 Q697 425 677 434.5 Q657 444 632 444 Q607 444 585.5 434.5 Q564 425 546.5 409 Q529 393 518 372.5 Q507 352 505 331 Z " />
<glyph glyph-name="A" unicode="A" horiz-adv-x="744" d="M582 0 L545 138 L237 138 L162 0 L17 0 L411 735 L538 735 L727 0 L582 0 Z M448 543 L297 256 L520 256 L448 543 Z " />
<glyph glyph-name="B" unicode="B" horiz-adv-x="653" d="M80 0 L183 735 L463 735 Q508 735 545 718 Q582 701 606.5 672 Q631 643 642 604 Q653 565 647 521 Q642 483 621.5 448.5 Q601 414 572 386 Q610 356 630.5 311.5 Q651 267 643 214 Q637 170 614.5 131 Q592 92 559 63 Q526 34 484.5 17 Q443 0 398 0 L80 0 Z M225 122 L405 122 Q424 122 442 129.5 Q460 137 474.5 149.5 Q489 162 498 178.5 Q507 195 510 214 Q513 233 508.5 250 Q504 267 493 280 Q482 293 466 300.5 Q450 308 431 308 L251 308 L225 122 Z M268 429 L410 429 Q447 429 478.5 455 Q510 481 515 521 Q518 540 513.5 556.5 Q509 573 498 585.5 Q487 598 471 605 Q455 612 436 612 L294 612 L268 429 Z " />
<glyph glyph-name="C" unicode="C" horiz-adv-x="720" d="M233 367 Q225 314 237.5 269 Q250 224 279 191 Q308 158 350.5 139 Q393 120 446 120 Q496 120 542.5 140.5 Q589 161 628 194 L704 99 Q648 48 575 18.5 Q502 -11 421 -11 Q342 -11 277.5 18.5 Q213 48 169 99 Q125 150 105 219 Q85 288 97 367 Q108 448 146.5 517 Q185 586 243.5 637 Q302 688 375 717 Q448 746 528 746 Q609 746 673 716.5 Q737 687 779 636 L676 541 Q647 573 606 593.5 Q565 614 515 614 Q461 614 413 595.5 Q365 577 327.5 544 Q290 511 265 465.5 Q240 420 233 367 Z " />
<glyph glyph-name="D" unicode="D" horiz-adv-x="699" d="M90 0 L193 735 L405 735 Q481 735 543.5 706 Q606 677 649 627 Q692 577 711.5 510.5 Q731 444 721 368 Q710 292 671.5 225 Q633 158 576 108 Q519 58 448.5 29 Q378 0 302 0 L90 0 Z M313 607 L246 128 L312 128 Q363 128 409.5 146.5 Q456 165 492.5 197.5 Q529 230 553.5 273.5 Q578 317 585 368 Q592 419 579.5 463 Q567 507 539 538.5 Q511 570 470 588.5 Q429 607 379 607 L313 607 Z " />
<glyph glyph-name="E" unicode="E" horiz-adv-x="593" d="M193 735 L646 735 L630 617 L319 617 L292 430 L563 430 L547 313 L276 313 L249 118 L560 118 L543 0 L90 0 L193 735 Z " />
<glyph glyph-name="F" unicode="F" horiz-adv-x="578" d="M193 735 L641 735 L625 617 L315 617 L288 430 L558 430 L542 313 L272 313 L228 0 L90 0 L193 735 Z " />
<glyph glyph-name="G" unicode="G" horiz-adv-x="838" d="M228 368 Q221 317 234 272 Q247 227 275.5 193.5 Q304 160 346.5 140.5 Q389 121 440 121 Q486 121 527.5 133 Q569 145 603.5 168 Q638 191 663 225.5 Q688 260 699 304 L471 304 L488 430 L848 430 Q849 414 848 399 Q847 384 845 367 Q832 280 794 210.5 Q756 141 699 91.5 Q642 42 570.5 15.5 Q499 -11 422 -11 Q342 -11 277.5 18.5 Q213 48 169 99 Q125 150 105 219 Q85 288 97 368 Q108 449 146 516 Q184 583 241.5 632 Q299 681 372 708 Q445 735 527 735 Q605 735 670 705.5 Q735 676 780 625 L675 538 Q646 571 603.5 591 Q561 611 510 611 Q455 611 407 593 Q359 575 321.5 542.5 Q284 510 259.5 465.5 Q235 421 228 368 Z " />
<glyph glyph-name="H" unicode="H" horiz-adv-x="787" d="M80 0 L183 734 L325 734 L282 430 L625 430 L668 735 L810 735 L707 0 L565 0 L609 313 L266 313 L222 0 L80 0 Z " />
<glyph glyph-name="I" unicode="I" horiz-adv-x="518" d="M147 617 L163 735 L561 735 L545 617 L417 617 L347 118 L475 118 L458 0 L60 0 L77 118 L205 118 L275 617 L147 617 Z " />
<glyph glyph-name="J" unicode="J" horiz-adv-x="496" d="M188 188 Q185 161 201.5 141.5 Q218 122 245 122 Q272 122 294.5 141.5 Q317 161 320 188 L397 735 L529 735 L452 188 Q447 147 426.5 111 Q406 75 375 48 Q344 21 306 5.5 Q268 -10 227 -10 Q186 -10 152 5.5 Q118 21 95 48 Q72 75 61.5 111 Q51 147 56 188 L188 188 Z " />
<glyph glyph-name="K" unicode="K" horiz-adv-x="736" d="M259 313 L215 0 L80 0 L183 735 L318 735 L275 430 L422 430 L641 735 L792 735 L534 374 L696 0 L545 0 L411 313 L259 313 Z " />
<glyph glyph-name="L" unicode="L" horiz-adv-x="486" d="M466 0 L80 0 L183 735 L320 735 L234 118 L483 118 L466 0 Z " />
<glyph glyph-name="M" unicode="M" horiz-adv-x="886" d="M670 0 L731 433 L474 221 L277 433 L216 0 L80 0 L183 735 L194 739 L500 406 L899 739 L909 735 L806 0 L670 0 Z " />
<glyph glyph-name="N" unicode="N" horiz-adv-x="803" d="M690 735 L826 735 L724 5 L711 -1 L278 441 L216 0 L80 0 L183 730 L194 735 L628 293 L690 735 Z " />
<glyph glyph-name="O" unicode="O" horiz-adv-x="848" d="M97 368 Q108 446 147.5 515 Q187 584 246 635.5 Q305 687 378 717 Q451 747 529 747 Q607 747 672 717 Q737 687 781 635.5 Q825 584 845.5 515 Q866 446 855 368 Q844 290 804 221 Q764 152 705.5 100.5 Q647 49 573.5 19 Q500 -11 422 -11 Q344 -11 279.5 19 Q215 49 170.5 100.5 Q126 152 106 221 Q86 290 97 368 Z M236 368 Q229 318 241.5 274.5 Q254 231 282 198.5 Q310 166 351 147 Q392 128 442 128 Q491 128 537.5 147 Q584 166 621 198.5 Q658 231 683.5 274.5 Q709 318 716 368 Q723 417 710 461 Q697 505 669 537.5 Q641 570 599.5 589 Q558 608 509 608 Q459 608 413 589 Q367 570 330 537.5 Q293 505 268 461 Q243 417 236 368 Z " />
<glyph glyph-name="P" unicode="P" horiz-adv-x="615" d="M247 223 L216 0 L80 0 L183 735 L445 735 Q498 735 542.5 715 Q587 695 616.5 660.5 Q646 626 659.5 579 Q673 532 665 479 Q658 426 631.5 379 Q605 332 565.5 297.5 Q526 263 476 243 Q426 223 373 223 L247 223 Z M380 341 Q408 341 435 352 Q462 363 483 381.5 Q504 400 518.5 425 Q533 450 537 479 Q541 507 533.5 532.5 Q526 558 510.5 576.5 Q495 595 471 606 Q447 617 419 617 L303 617 L264 341 L380 341 Z " />
<glyph glyph-name="Q" unicode="Q" horiz-adv-x="849" d="M97 368 Q108 446 147.5 515 Q187 584 246 635.5 Q305 687 378 717 Q451 747 529 747 Q607 747 672 717 Q737 687 781 635.5 Q825 584 845.5 515 Q866 446 855 368 Q845 300 814 239.5 Q783 179 737.5 130.5 Q692 82 633.5 48 Q575 14 510 -1 L508 -14 Q503 -48 521 -72.5 Q539 -97 577 -97 Q618 -97 643.5 -73.5 Q669 -50 674 -14 L802 -14 Q796 -58 773.5 -96 Q751 -134 718 -163 Q685 -192 643.5 -208.5 Q602 -225 559 -225 Q515 -225 479.5 -208.5 Q444 -192 420 -163 Q396 -134 385 -96 Q374 -58 380 -14 L381 -8 Q311 -1 254 31.5 Q197 64 158.5 114.5 Q120 165 103 230 Q86 295 97 368 Z M236 368 Q229 318 241.5 274.5 Q254 231 282 198.5 Q310 166 351 147 Q392 128 442 128 Q491 128 537.5 147 Q584 166 621 198.5 Q658 231 683.5 274.5 Q709 318 716 368 Q723 417 710 461 Q697 505 669 537.5 Q641 570 599.5 589 Q558 608 509 608 Q459 608 413 589 Q367 570 330 537.5 Q293 505 268 461 Q243 417 236 368 Z " />
<glyph glyph-name="R" unicode="R" horiz-adv-x="671" d="M216 0 L80 0 L183 735 L498 735 Q546 735 585.5 717 Q625 699 652 667.5 Q679 636 691.5 594 Q704 552 697 504 Q688 438 648 384.5 Q608 331 549 301 L618 0 L474 0 L413 274 L255 274 L216 0 Z M435 391 Q459 391 480.5 400 Q502 409 519.5 424.5 Q537 440 549 460.5 Q561 481 564 504 Q567 528 561 548.5 Q555 569 542 584 Q529 599 510 608 Q491 617 467 617 L303 617 L271 391 L435 391 Z " />
<glyph glyph-name="S" unicode="S" horiz-adv-x="612" d="M315 -16 Q268 -16 228 -6 Q188 4 155.5 21 Q123 38 100 59.5 Q77 81 66 105 L178 187 Q198 158 238.5 136.5 Q279 115 334 115 Q390 115 420.5 136 Q451 157 455 187 Q459 215 445.5 235 Q432 255 392 273 L269 332 Q183 373 150 425.5 Q117 478 127 548 Q133 592 156.5 629.5 Q180 667 216.5 694 Q253 721 301.5 736.5 Q350 752 406 752 Q471 752 516 731.5 Q561 711 588.5 678.5 Q616 646 625.5 605 Q635 564 630 524 L497 524 Q497 530 494.5 546.5 Q492 563 481 580 Q470 597 448 610 Q426 623 388 623 Q337 623 305.5 601.5 Q274 580 269 548 Q265 519 282.5 500 Q300 481 329 466 L456 404 Q538 364 573.5 313 Q609 262 598 187 Q591 136 565 98 Q539 60 500.5 34.5 Q462 9 414 -3.5 Q366 -16 315 -16 Z " />
<glyph glyph-name="T" unicode="T" horiz-adv-x="562" d="M648 734 L632 617 L436 617 L349 0 L213 0 L300 617 L104 617 L120 734 L648 734 Z " />
<glyph glyph-name="U" unicode="U" horiz-adv-x="760" d="M233 319 Q227 275 236.5 238 Q246 201 268.5 175 Q291 149 324 134.5 Q357 120 397 120 Q437 120 474 134.5 Q511 149 540.5 175 Q570 201 590.5 238 Q611 275 617 319 L675 735 L813 735 L755 319 Q745 250 710.5 190 Q676 130 625 85.5 Q574 41 510 15 Q446 -11 378 -11 Q310 -11 254 15 Q198 41 159 85.5 Q120 130 102.5 190 Q85 250 95 319 L153 735 L291 735 L233 319 Z " />
<glyph glyph-name="V" unicode="V" horiz-adv-x="720" d="M465 0 L255 0 L113 735 L257 735 L376 116 L669 735 L813 735 L465 0 Z " />
<glyph glyph-name="W" unicode="W" horiz-adv-x="930" d="M679 148 L691 148 L873 735 L1013 735 L772 0 L565 0 L542 499 L528 499 L365 0 L158 0 L123 735 L264 735 L281 148 L293 148 L490 735 L646 735 L679 148 Z " />
<glyph glyph-name="X" unicode="X" horiz-adv-x="702" d="M177 0 L20 0 L325 385 L144 735 L301 735 L422 502 L605 735 L762 735 L485 385 L682 0 L525 0 L389 267 L177 0 Z " />
<glyph glyph-name="Y" unicode="Y" horiz-adv-x="573" d="M223 0 L253 212 L113 735 L258 735 L343 400 L522 735 L666 735 L381 212 L351 0 L223 0 Z " />
<glyph glyph-name="Z" unicode="Z" horiz-adv-x="617" d="M116 313 L132 430 L332 430 L464 617 L139 617 L155 735 L659 735 L672 709 L478 430 L605 430 L589 313 L397 313 L263 118 L582 118 L565 0 L61 0 L49 26 L250 313 L116 313 Z " />
<glyph glyph-name="bracketleft" unicode="&#x5b;" horiz-adv-x="411" d="M221 896 L477 896 L459 768 L331 768 L223 0 L351 0 L333 -128 L77 -128 L221 896 Z " />
<glyph glyph-name="bracketright" unicode="&#x5d;" horiz-adv-x="411" d="M333 -128 L77 -128 L95 0 L223 0 L331 768 L203 768 L221 896 L477 896 L333 -128 Z " />
<glyph glyph-name="asciicircum" unicode="&#x5e;" horiz-adv-x="372" d="M277 655 L174 564 L136 609 L291 745 L408 609 L356 564 L277 655 Z " />
<glyph glyph-name="underscore" unicode="&#x5f;" horiz-adv-x="612" d="M50 0 L68 128 L580 128 L562 0 L50 0 Z " />
<glyph glyph-name="a" unicode="a" horiz-adv-x="582" d="M395 64 Q366 31 322.5 10 Q279 -11 227 -11 Q183 -11 151 2 Q119 15 98.5 37.5 Q78 60 70 90 Q62 120 67 153 Q71 185 87.5 213 Q104 241 133 262 Q162 283 203 295.5 Q244 308 299 308 L429 308 L430 313 Q436 353 415.5 378 Q395 403 347 403 Q315 403 285 389.5 Q255 376 231 351 L155 425 Q192 464 246 492.5 Q300 521 363 522 Q417 522 456.5 505.5 Q496 489 520 460.5 Q544 432 553 394 Q562 356 556 313 L512 0 L386 0 L395 64 Z M198 153 Q194 128 214.5 112.5 Q235 97 270 97 Q293 97 317 105 Q341 113 362 127.5 Q383 142 397.5 162 Q412 182 415 206 L285 206 Q243 206 222 191 Q201 176 198 153 Z " />
<glyph glyph-name="b" unicode="b" horiz-adv-x="642" d="M628 256 Q621 203 595.5 156 Q570 109 532.5 74.5 Q495 40 447 20 Q399 0 346 0 Q307 0 272.5 14.5 Q238 29 216 55 L208 0 L80 0 L188 768 L316 768 L272 457 Q302 483 340.5 497.5 Q379 512 418 512 Q471 512 513 492 Q555 472 583.5 437.5 Q612 403 623.5 356 Q635 309 628 256 Z M224 256 Q220 227 227 202 Q234 177 250.5 158 Q267 139 290.5 128.5 Q314 118 343 118 Q372 118 398.5 128.5 Q425 139 446.5 158 Q468 177 482 202 Q496 227 500 256 Q504 285 497 310 Q490 335 473.5 354 Q457 373 433.5 383.5 Q410 394 381 394 Q352 394 325.5 383.5 Q299 373 277.5 354 Q256 335 242 310 Q228 285 224 256 Z " />
<glyph glyph-name="c" unicode="c" horiz-adv-x="533" d="M512 67 Q471 32 423 11 Q375 -10 315 -10 Q260 -10 214 11 Q168 32 137.5 68 Q107 104 92.5 152.5 Q78 201 86 256 Q94 311 121.5 359.5 Q149 408 190 444 Q231 480 282.5 501 Q334 522 389 522 Q451 522 496 499 Q541 476 570 440 L468 352 Q452 372 426 383 Q400 394 371 394 Q342 394 315.5 383 Q289 372 268 353.5 Q247 335 232.5 309.5 Q218 284 214 256 Q210 227 217.5 202 Q225 177 241 158.5 Q257 140 280.5 129 Q304 118 333 118 Q362 118 390 129 Q418 140 439 158 L512 67 Z " />
<glyph glyph-name="d" unicode="d" horiz-adv-x="642" d="M86 256 Q93 309 118.5 356 Q144 403 181.5 437.5 Q219 472 267 492 Q315 512 368 512 Q407 512 441.5 497.5 Q476 483 498 457 L542 768 L670 768 L562 0 L434 0 L442 55 Q412 29 373.5 14.5 Q335 0 296 0 Q243 0 201 20 Q159 40 130.5 74.5 Q102 109 90.5 156 Q79 203 86 256 Z M490 256 Q494 285 487 310 Q480 335 463.5 354 Q447 373 423.5 383.5 Q400 394 371 394 Q342 394 315.5 383.5 Q289 373 267.5 354 Q246 335 232 310 Q218 285 214 256 Q210 227 217 202 Q224 177 240.5 158 Q257 139 280.5 128.5 Q304 118 333 118 Q362 118 388.5 128.5 Q415 139 436.5 158 Q458 177 472 202 Q486 227 490 256 Z " />
<glyph glyph-name="e" unicode="e" horiz-adv-x="612" d="M607 251 Q606 240 602 226.5 Q598 213 595 205 L213 205 Q210 188 218 170.5 Q226 153 242 139.5 Q258 126 280.5 117.5 Q303 109 332 109 Q369 109 403 124 Q437 139 462 164 L547 89 Q502 42 442 16 Q382 -10 315 -10 Q267 -10 221.5 6 Q176 22 142.5 55 Q109 88 92.5 138 Q76 188 86 256 Q94 311 119 359.5 Q144 408 183 444 Q222 480 272.5 501 Q323 522 381 522 Q439 522 485.5 501.5 Q532 481 561 445 Q590 409 603 359.5 Q616 310 607 251 Z M367 407 Q336 407 311.5 397.5 Q287 388 268.5 373.5 Q250 359 240 341.5 Q230 324 227 308 L480 308 Q482 323 476 340 Q470 357 455.5 372 Q441 387 419 397 Q397 407 367 407 Z " />
<glyph glyph-name="f" unicode="f" horiz-adv-x="384" d="M400 647 Q371 647 351 628 Q331 609 326 576 L317 512 L436 512 L420 398 L301 398 L245 0 L117 0 L173 398 L96 398 L112 512 L189 512 L198 576 Q204 617 223 652 Q242 687 271 713 Q300 739 337.5 753.5 Q375 768 417 768 Q457 768 481 763 L465 647 L400 647 Z " />
<glyph glyph-name="g" unicode="g" horiz-adv-x="572" d="M126 335 Q132 377 153 414 Q174 451 205 478.5 Q236 506 275.5 522 Q315 538 357 538 Q402 538 437.5 520.5 Q473 503 496 472 Q528 492 559.5 502 Q591 512 626 512 L634 512 L618 398 L529 398 Q532 385 532.5 368 Q533 351 531 335 Q525 293 504 256 Q483 219 451.5 192 Q420 165 381 149 Q342 133 300 133 Q275 133 252.5 140 Q230 147 211 158 Q190 157 173 147.5 Q156 138 153 115 Q150 93 166 82.5 Q182 72 207 72 L343 72 Q438 72 485.5 29 Q533 -14 522 -95 Q510 -175 444 -220.5 Q378 -266 272 -266 Q218 -266 174 -252.5 Q130 -239 100.5 -216 Q71 -193 57 -161.5 Q43 -130 48 -95 L105 -49 Q60 -35 40 2 Q20 39 29 85 Q38 133 71.5 168.5 Q105 204 148 215 Q134 240 127.5 270.5 Q121 301 126 335 Z M247 335 Q242 301 262.5 277.5 Q283 254 317 254 Q351 254 377.5 277.5 Q404 301 409 335 Q414 369 393.5 392.5 Q373 416 339 416 Q305 416 278.5 392.5 Q252 369 247 335 Z M288 -147 Q336 -147 361 -135 Q386 -123 390 -95 Q392 -75 376.5 -62 Q361 -49 326 -49 L161 -49 Q158 -69 166.5 -86.5 Q175 -104 192.5 -117.5 Q210 -131 234 -139 Q258 -147 288 -147 Z " />
<glyph glyph-name="h" unicode="h" horiz-adv-x="654" d="M594 0 L466 0 L503 266 Q507 293 500.5 316 Q494 339 479 356.5 Q464 374 442 384 Q420 394 393 394 Q367 394 343 384.5 Q319 375 299 358.5 Q279 342 265.5 319.5 Q252 297 248 271 L210 0 L80 0 L188 768 L318 768 L275 460 Q309 489 348.5 505.5 Q388 522 431 522 Q480 522 520.5 502 Q561 482 588 447.5 Q615 413 627 366 Q639 319 631 266 L594 0 Z " />
<glyph glyph-name="i" unicode="i" horiz-adv-x="314" d="M294 512 L222 0 L92 0 L164 512 L294 512 Z M169 703 Q174 739 203 764.5 Q232 790 268 790 Q304 790 326 764.5 Q348 739 343 703 Q338 667 309 641.5 Q280 616 244 616 Q208 616 186 641.5 Q164 667 169 703 Z " />
<glyph glyph-name="j" unicode="j" horiz-adv-x="314" d="M57 -257 L165 512 L293 512 L185 -257 L57 -257 Z M169 703 Q174 739 203 764.5 Q232 790 268 790 Q304 790 326 764.5 Q348 739 343 703 Q338 667 309 641.5 Q280 616 244 616 Q208 616 186 641.5 Q164 667 169 703 Z " />
<glyph glyph-name="k" unicode="k" horiz-adv-x="571" d="M316 768 L253 320 L336 320 L480 512 L623 512 L433 256 L551 0 L408 0 L318 192 L235 192 L208 0 L80 0 L188 768 L316 768 Z " />
<glyph glyph-name="l" unicode="l" horiz-adv-x="292" d="M80 0 L188 768 L320 768 L212 0 L80 0 Z " />
<glyph glyph-name="m" unicode="m" horiz-adv-x="950" d="M890 0 L756 0 L795 278 Q798 301 795 322 Q792 343 782 359 Q772 375 754 384.5 Q736 394 710 394 Q663 394 631.5 361 Q600 328 593 278 L554 0 L420 0 L459 278 Q466 327 441.5 360.5 Q417 394 369 394 Q320 394 287 361 Q254 328 247 278 L208 0 L80 0 L152 512 L280 512 L272 454 Q296 480 336.5 501 Q377 522 424 522 Q468 522 503.5 502 Q539 482 560 450 Q600 484 645 503 Q690 522 738 522 Q788 522 827 503 Q866 484 891 451 Q916 418 926 373.5 Q936 329 929 278 L890 0 Z " />
<glyph glyph-name="n" unicode="n" horiz-adv-x="652" d="M592 0 L464 0 L501 263 Q505 292 501 317.5 Q497 343 484.5 362.5 Q472 382 449 393.5 Q426 405 393 405 Q339 405 298 368 Q257 331 245 263 L208 0 L80 0 L152 512 L280 512 L272 455 Q302 482 347.5 502 Q393 522 441 522 Q490 522 528.5 504 Q567 486 592.5 452 Q618 418 627.5 369.5 Q637 321 629 260 L592 0 Z " />
<glyph glyph-name="o" unicode="o" horiz-adv-x="632" d="M86 256 Q94 311 121 359.5 Q148 408 189 444 Q230 480 281.5 501 Q333 522 389 522 Q444 522 489.5 501 Q535 480 566 444 Q597 408 611.5 359.5 Q626 311 618 256 Q610 200 582 151.5 Q554 103 513 67 Q472 31 421 10.5 Q370 -10 315 -10 Q259 -10 213 10.5 Q167 31 136 67 Q105 103 91.5 151.5 Q78 200 86 256 Z M212 256 Q208 226 215 200 Q222 174 238 155 Q254 136 278 125.5 Q302 115 332 115 Q362 115 389 125.5 Q416 136 437 155 Q458 174 473 200 Q488 226 492 256 Q496 286 489 312 Q482 338 466 357 Q450 376 426 386.5 Q402 397 372 397 Q342 397 315 386.5 Q288 376 267 357 Q246 338 231 312 Q216 286 212 256 Z " />
<glyph glyph-name="p" unicode="p" horiz-adv-x="642" d="M628 256 Q621 203 595.5 156 Q570 109 532.5 74.5 Q495 40 447 20 Q399 0 346 0 Q307 0 272.5 14.5 Q238 29 216 55 L172 -256 L44 -256 L152 512 L280 512 L272 457 Q302 483 340.5 497.5 Q379 512 418 512 Q471 512 513 492 Q555 472 583.5 437.5 Q612 403 623.5 356 Q635 309 628 256 Z M234 256 Q230 228 237 204 Q244 180 259.5 162 Q275 144 297.5 133.5 Q320 123 348 123 Q376 123 401.5 133.5 Q427 144 447.5 162 Q468 180 482 204 Q496 228 500 256 Q504 284 497 308 Q490 332 474.5 350 Q459 368 436.5 378.5 Q414 389 386 389 Q358 389 332.5 378.5 Q307 368 286.5 350 Q266 332 252 308 Q238 284 234 256 Z " />
<glyph glyph-name="q" unicode="q" horiz-adv-x="642" d="M86 256 Q93 309 118.5 356 Q144 403 181.5 437.5 Q219 472 267 492 Q315 512 368 512 Q407 512 441.5 497.5 Q476 483 498 457 L506 512 L634 512 L526 -256 L398 -256 L442 55 Q412 29 373.5 14.5 Q335 0 296 0 Q243 0 201 20 Q159 40 130.5 74.5 Q102 109 90.5 156 Q79 203 86 256 Z M480 256 Q484 284 477 308 Q470 332 454.5 350 Q439 368 416.5 378.5 Q394 389 366 389 Q338 389 312.5 378.5 Q287 368 266.5 350 Q246 332 232 308 Q218 284 214 256 Q210 228 217 204 Q224 180 239.5 162 Q255 144 277.5 133.5 Q300 123 328 123 Q356 123 381.5 133.5 Q407 144 427.5 162 Q448 180 462 204 Q476 228 480 256 Z " />
<glyph glyph-name="r" unicode="r" horiz-adv-x="389" d="M210 0 L80 0 L152 512 L264 512 L255 446 Q291 477 333 494.5 Q375 512 421 512 L451 512 L435 398 L405 398 Q374 398 347 387.5 Q320 377 299 358.5 Q278 340 264.5 314.5 Q251 289 246 259 L210 0 Z " />
<glyph glyph-name="s" unicode="s" horiz-adv-x="537" d="M231 368 Q228 351 239.5 341 Q251 331 269 326 L382 298 Q457 279 488.5 238 Q520 197 511 138 Q507 105 490 76.5 Q473 48 444 27.5 Q415 7 374.5 -5 Q334 -17 281 -17 Q240 -17 204 -8.5 Q168 0 139.5 15 Q111 30 91.5 49.5 Q72 69 63 90 L169 158 Q186 129 221.5 112.5 Q257 96 296 96 Q331 96 354 108 Q377 120 379 138 Q381 152 373 163.5 Q365 175 340 181 L239 207 Q157 228 125.5 269.5 Q94 311 102 368 Q106 400 124 429 Q142 458 172 479.5 Q202 501 243.5 514 Q285 527 335 527 Q377 527 415 514.5 Q453 502 480 479 Q507 456 520.5 423.5 Q534 391 528 351 L400 351 Q402 363 397 374.5 Q392 386 381.5 396 Q371 406 355.5 412 Q340 418 320 418 Q277 418 255 402 Q233 386 231 368 Z " />
<glyph glyph-name="t" unicode="t" horiz-adv-x="386" d="M128 0 L184 398 L66 398 L82 512 L200 512 L218 640 L348 640 L330 512 L448 512 L432 398 L314 398 L258 0 L128 0 Z " />
<glyph glyph-name="u" unicode="u" horiz-adv-x="652" d="M132 512 L260 512 L223 249 Q219 220 223 194.5 Q227 169 239.5 149.5 Q252 130 275 118.5 Q298 107 331 107 Q385 107 426 144 Q467 181 479 249 L516 512 L644 512 L572 0 L444 0 L452 57 Q422 30 376.5 10 Q331 -10 283 -10 Q234 -10 195.5 8 Q157 26 131.5 60 Q106 94 96.5 142.5 Q87 191 95 252 L132 512 Z " />
<glyph glyph-name="v" unicode="v" horiz-adv-x="573" d="M306 118 L483 512 L628 512 L376 0 L197 0 L89 512 L234 512 L301 118 L306 118 Z " />
<glyph glyph-name="w" unicode="w" horiz-adv-x="788" d="M570 118 L576 118 L705 512 L843 512 L659 0 L467 0 L441 296 L431 296 L321 0 L129 0 L89 512 L227 512 L246 118 L252 118 L398 512 L534 512 L570 118 Z " />
<glyph glyph-name="x" unicode="x" horiz-adv-x="529" d="M512 0 L363 0 L284 144 L166 0 L17 0 L227 255 L89 512 L237 512 L315 366 L436 512 L584 512 L373 255 L512 0 Z " />
<glyph glyph-name="y" unicode="y" horiz-adv-x="573" d="M308 138 L483 512 L628 512 L344 -47 L315 -256 L187 -256 L216 -50 L89 512 L234 512 L303 138 L308 138 Z " />
<glyph glyph-name="z" unicode="z" horiz-adv-x="506" d="M472 114 L456 0 L60 0 L49 25 L319 398 L117 398 L133 512 L519 512 L529 487 L260 114 L472 114 Z " />
<glyph glyph-name="bar" unicode="&#x7c;" horiz-adv-x="318" d="M221 896 L349 896 L205 -128 L77 -128 L221 896 Z " />
<glyph glyph-name="cent" unicode="&#xa2;" horiz-adv-x="556" d="M221 256 Q217 229 224 206 Q231 183 246 165.5 Q261 148 282.5 138 Q304 128 331 128 Q361 128 389 141 Q417 154 438 176 L524 95 Q494 63 457 41 Q420 19 376 8 L378 8 L359 -128 L222 -128 L241 10 Q203 21 172.5 44.5 Q142 68 122 100 Q102 132 93.5 172 Q85 212 91 256 Q97 300 116.5 339.5 Q136 379 165 411 Q194 443 231.5 466.5 Q269 490 311 502 L330 640 L467 640 L448 504 L446 504 Q486 493 517 470.5 Q548 448 569 416 L460 336 Q445 358 421 370.5 Q397 383 367 383 Q340 383 315.5 373 Q291 363 271 346 Q251 329 238 306 Q225 283 221 256 Z " />
<glyph glyph-name="sterling" unicode="&#xa3;" horiz-adv-x="570" d="M107 438 L203 438 L222 576 Q228 616 247.5 651 Q267 686 297 712 Q327 738 364 753 Q401 768 441 768 Q481 768 514 753 Q547 738 569 712 Q591 686 601.5 651 Q612 616 606 576 L478 576 Q482 602 465.5 621 Q449 640 423 640 Q397 640 375.5 621 Q354 602 350 576 L331 438 L587 438 L570 320 L314 320 L285 117 L541 117 L525 0 L141 0 L186 320 L90 320 L107 438 Z " />
<glyph glyph-name="dieresis" unicode="&#xa8;" horiz-adv-x="492" d="M143 663 Q148 699 177 724.5 Q206 750 242 750 Q278 750 300 724.5 Q322 699 317 663 Q312 627 283 601.5 Q254 576 218 576 Q182 576 160 601.5 Q138 627 143 663 Z M361 663 Q366 699 395 724.5 Q424 750 460 750 Q496 750 518 724.5 Q540 699 535 663 Q530 627 501 601.5 Q472 576 436 576 Q400 576 378 601.5 Q356 627 361 663 Z " />
<glyph glyph-name="copyright" unicode="&#xa9;" horiz-adv-x="796" d="M80 357 Q91 433 129.5 500.5 Q168 568 225 618 Q282 668 352.5 697 Q423 726 499 726 Q575 726 638.5 697 Q702 668 745 618 Q788 568 807.5 500.5 Q827 433 816 357 Q805 281 767 214.5 Q729 148 672 98 Q615 48 543.5 19 Q472 -10 396 -10 Q320 -10 257.5 19 Q195 48 152 98 Q109 148 89 214.5 Q69 281 80 357 Z M168 357 Q160 299 175 248.5 Q190 198 222.5 160 Q255 122 302.5 100 Q350 78 408 78 Q466 78 520.5 100 Q575 122 618.5 160 Q662 198 691 248.5 Q720 299 728 357 Q736 415 721.5 466.5 Q707 518 674 556 Q641 594 593 616 Q545 638 487 638 Q429 638 375 616 Q321 594 278 556 Q235 518 205.5 466.5 Q176 415 168 357 Z M365 358 Q360 320 382.5 294 Q405 268 443 268 Q464 268 483 277.5 Q502 287 517 302 L577 245 Q549 215 510 197 Q471 179 429 179 Q391 179 360.5 193 Q330 207 309 231.5 Q288 256 278.5 288.5 Q269 321 274 358 Q280 398 298.5 431.5 Q317 465 345 488 Q373 511 407 524 Q441 537 479 537 Q521 537 555 519 Q589 501 609 470 L533 415 Q511 448 468 448 Q430 448 400.5 423.5 Q371 399 365 358 Z " />
<glyph glyph-name="macron" unicode="&#xaf;" horiz-adv-x="412" d="M443 576 L131 576 L142 654 L454 654 L443 576 Z " />
<glyph glyph-name="degree" unicode="&#xb0;" horiz-adv-x="372" d="M134 598 Q138 626 152 651 Q166 676 187 694.5 Q208 713 234.5 723.5 Q261 734 289 734 Q317 734 340.5 723.5 Q364 713 380 694.5 Q396 676 403 651 Q410 626 406 598 Q402 570 388 545 Q374 520 353 501.5 Q332 483 305.5 472.5 Q279 462 251 462 Q223 462 199.5 472.5 Q176 483 160 501.5 Q144 520 137 545 Q130 570 134 598 Z M225 598 Q222 578 233 565.5 Q244 553 264 553 Q284 553 298 565.5 Q312 578 315 598 Q318 618 307 630.5 Q296 643 276 643 Q256 643 242 630.5 Q228 618 225 598 Z " />
<glyph glyph-name="acute" unicode="&#xb4;" horiz-adv-x="295" d="M162 565 L134 598 L260 741 Q276 758 299 759 Q322 760 335 745 Q348 730 343.5 707 Q339 684 320 671 L162 565 Z " />
<glyph glyph-name="cedilla" unicode="&#xb8;" horiz-adv-x="264" d="M95 64 L159 64 L149 -5 Q176 -15 190.5 -39.5 Q205 -64 201 -96 Q195 -136 163 -164 Q131 -192 91 -192 Q71 -192 55 -184.5 Q39 -177 27 -164 L79 -120 Q88 -128 100 -128 Q114 -128 124.5 -119 Q135 -110 137 -96 Q138 -82 130.5 -73 Q123 -64 109 -64 Q95 -64 85 -73 L46 -28 Q64 -11 85 -5 L95 64 Z " />
<glyph glyph-name="multiply" unicode="&#xd7;" horiz-adv-x="552" d="M105 392 L208 482 L325 347 L480 482 L557 392 L403 256 L519 120 L416 30 L299 165 L144 30 L67 120 L221 256 L105 392 Z " />
<glyph glyph-name="germandbls" unicode="&#xdf;" horiz-adv-x="672" d="M600 375 Q635 355 652.5 312.5 Q670 270 663 218 Q657 179 638.5 140 Q620 101 587 70 Q554 39 506 19.5 Q458 0 392 0 L322 0 L339 118 L414 118 Q441 118 462 126.5 Q483 135 497.5 149 Q512 163 521 180.5 Q530 198 532 216 Q535 233 530.5 250.5 Q526 268 515 282 Q504 296 486.5 304.5 Q469 313 446 313 L366 313 L382 427 L457 427 Q494 427 524 455.5 Q554 484 560 524 Q563 548 558.5 570.5 Q554 593 541 610.5 Q528 628 505 638 Q482 648 448 648 Q384 648 345 608.5 Q306 569 298 512 L226 0 L90 0 L162 512 Q170 569 196.5 616 Q223 663 263.5 697 Q304 731 354 749.5 Q404 768 459 768 Q523 768 569 748.5 Q615 729 644 696 Q673 663 684.5 620.5 Q696 578 690 533 Q678 448 600 375 Z " />
<glyph glyph-name="divide" unicode="&#xf7;" horiz-adv-x="612" d="M77 192 L95 320 L607 320 L589 192 L77 192 Z M227 55 Q232 91 261 116.5 Q290 142 326 142 Q362 142 384 116.5 Q406 91 401 55 Q396 19 367 -6.5 Q338 -32 302 -32 Q266 -32 244 -6.5 Q222 19 227 55 Z M283 457 Q288 493 317 518.5 Q346 544 382 544 Q418 544 440 518.5 Q462 493 457 457 Q452 421 423 395.5 Q394 370 358 370 Q322 370 300 395.5 Q278 421 283 457 Z " />
<glyph glyph-name="circumflex" unicode="&#x2c6;" horiz-adv-x="372" d="M277 655 L174 564 L136 609 L291 745 L408 609 L356 564 L277 655 Z " />
<glyph glyph-name="caron" unicode="&#x2c7;" horiz-adv-x="372" d="M279 654 L382 745 L420 700 L265 564 L148 700 L200 745 L279 654 Z " />
<glyph glyph-name="breve" unicode="&#x2d8;" horiz-adv-x="334" d="M148 696 L226 696 L223 675 Q220 658 229.5 647 Q239 636 256 636 Q273 636 285.5 647 Q298 658 301 675 L304 696 L382 696 L380 681 Q376 657 364 635.5 Q352 614 334 598 Q316 582 293 573 Q270 564 246 564 Q222 564 202 573 Q182 582 168 598 Q154 614 148 635.5 Q142 657 146 681 L148 696 Z " />
<glyph glyph-name="dotaccent" unicode="&#x2d9;" horiz-adv-x="274" d="M143 663 Q148 699 177 724.5 Q206 750 242 750 Q278 750 300 724.5 Q322 699 317 663 Q312 627 283 601.5 Q254 576 218 576 Q182 576 160 601.5 Q138 627 143 663 Z " />
<glyph glyph-name="ring" unicode="&#x2da;" horiz-adv-x="292" d="M144 672 Q150 712 182 740 Q214 768 254 768 Q294 768 318 740 Q342 712 336 672 Q331 632 299 604 Q267 576 227 576 Q187 576 163 604 Q139 632 144 672 Z M208 672 Q206 658 214 649 Q222 640 236 640 Q250 640 260 649 Q270 658 272 672 Q274 686 266.5 695 Q259 704 245 704 Q231 704 220.5 695 Q210 686 208 672 Z " />
<glyph glyph-name="ogonek" unicode="&#x2db;" horiz-adv-x="356" d="M41 -64 Q45 -37 58 -14 Q71 9 91 26.5 Q111 44 135.5 54 Q160 64 187 64 L178 0 Q151 0 130 -19 Q109 -38 105 -64 Q101 -91 117 -109.5 Q133 -128 160 -128 Q186 -128 207.5 -109.5 Q229 -91 233 -64 L297 -64 Q293 -91 280 -114 Q267 -137 247 -154.5 Q227 -172 202.5 -182 Q178 -192 151 -192 Q124 -192 102.5 -182 Q81 -172 66 -154.5 Q51 -137 44 -114 Q37 -91 41 -64 Z " />
<glyph glyph-name="tilde" unicode="&#x2dc;" horiz-adv-x="424" d="M369 708 Q393 708 410.5 699 Q428 690 440 675 Q452 660 456.5 641 Q461 622 458 601 L388 601 Q391 619 383.5 631 Q376 643 359 643 Q347 643 335.5 634.5 Q324 626 310.5 616.5 Q297 607 280 598.5 Q263 590 238 590 Q214 590 195.5 599 Q177 608 166 622.5 Q155 637 150 656 Q145 675 148 696 L218 696 Q215 678 222.5 666 Q230 654 247 654 Q259 654 270.5 662.5 Q282 671 295.5 681 Q309 691 326.5 699.5 Q344 708 369 708 Z " />
<glyph glyph-name="endash" unicode="&#x2013;" horiz-adv-x="1124" d="M77 192 L95 320 L1119 320 L1101 192 L77 192 Z " />
<glyph glyph-name="emdash" unicode="&#x2014;" horiz-adv-x="1636" d="M95 320 L1631 320 L1613 192 L77 192 L95 320 Z " />
<glyph glyph-name="quotesinglbase" unicode="&#x201a;" horiz-adv-x="233" d="M58 28 L119 128 Q90 134 73 158 Q56 182 60 214 Q65 250 94 275.5 Q123 301 159 301 Q183 301 200.5 289 Q218 277 226.5 258.5 Q235 240 232.5 216.5 Q230 193 216 169 L112 0 L58 28 Z " />
<glyph glyph-name="quotedblleft" unicode="&#x201c;" horiz-adv-x="459" d="M504 707 L443 607 Q472 601 489.5 577 Q507 553 502 521 Q497 485 468 459.5 Q439 434 403 434 Q379 434 361.5 446 Q344 458 336 476.5 Q328 495 330 518.5 Q332 542 347 566 L450 735 L504 707 Z M278 707 L217 607 Q246 601 263.5 577 Q281 553 276 521 Q271 485 242 459.5 Q213 434 177 434 Q153 434 135.5 446 Q118 458 110 476.5 Q102 495 104 518.5 Q106 542 121 566 L224 735 L278 707 Z " />
<glyph glyph-name="quotedblbase" unicode="&#x201e;" horiz-adv-x="459" d="M58 28 L119 128 Q90 134 73 158 Q56 182 60 214 Q65 250 94 275.5 Q123 301 159 301 Q183 301 200.5 289 Q218 277 226.5 258.5 Q235 240 232.5 216.5 Q230 193 216 169 L112 0 L58 28 Z M284 28 L345 128 Q316 134 299 158 Q282 182 286 214 Q291 250 320 275.5 Q349 301 385 301 Q409 301 426.5 289 Q444 277 452.5 258.5 Q461 240 458.5 216.5 Q456 193 442 169 L338 0 L284 28 Z " />
<glyph glyph-name="bullet" unicode="&#x2022;" horiz-adv-x="274" d="M86 256 Q91 292 120 317.5 Q149 343 185 343 Q221 343 243 317.5 Q265 292 260 256 Q255 220 226 194.5 Q197 169 161 169 Q125 169 103 194.5 Q81 220 86 256 Z " />
<glyph glyph-name="minus" unicode="&#x2212;" horiz-adv-x="612" d="M77 192 L95 320 L607 320 L589 192 L77 192 Z " />
<glyph glyph-name="commaaccent" unicode="&#xf6c3;" horiz-adv-x="210" d="M32 -238 L71 -174 Q51 -170 40.5 -155 Q30 -140 33 -120 Q36 -97 54.5 -80.5 Q73 -64 96 -64 Q111 -64 122.5 -71.5 Q134 -79 139 -91 Q144 -103 142.5 -118 Q141 -133 132 -148 L66 -256 L32 -238 Z " />
<glyph glyph-name="longs" unicode="&#x17f;" horiz-adv-x="426" d="M470 616 Q473 642 457 661 Q441 680 415 680 Q389 680 367 661 Q345 642 342 616 L255 0 L127 0 L182 394 L85 394 L102 512 L199 512 L214 616 Q219 656 239 691 Q259 726 288.5 752 Q318 778 355.5 793 Q393 808 433 808 Q473 808 505.5 793 Q538 778 560.5 752 Q583 726 593 691 Q603 656 598 616 L470 616 Z " />
<glyph glyph-name="hungarumlaut" unicode="&#x2dd;" horiz-adv-x="489" d="M162 565 L134 598 L260 741 Q276 758 299 759 Q322 760 335 745 Q348 730 343.5 707 Q339 684 320 671 L162 565 Z M356 565 L328 598 L454 741 Q470 758 493 759 Q516 760 529 745 Q542 730 537.5 707 Q533 684 514 671 L356 565 Z " />
<glyph glyph-name="grave" unicode="&#x60;" horiz-adv-x="295" d="M163 671 Q148 684 150.5 707 Q153 730 170 745 Q187 760 210 759 Q233 758 243 741 L329 598 L291 565 L163 671 Z " />
<glyph glyph-name="AE" unicode="&#xc6;" horiz-adv-x="920" d="M957 617 L646 617 L619 428 L930 428 L914 310 L603 310 L576 118 L887 118 L870 0 L417 0 L436 138 L238 138 Q219 103 199.5 69 Q180 35 161 0 L17 0 L417 735 L973 735 L957 617 Z M453 256 L504 617 L489 617 L299 256 L453 256 Z " />
<glyph glyph-name="OE" unicode="&#x152;" horiz-adv-x="1018" d="M97 368 Q108 446 147.5 515 Q187 584 246 635.5 Q305 687 378 717 Q451 747 529 747 Q552 747 574.5 743.5 Q597 740 618 735 L1071 735 L1055 617 L744 617 L717 428 L1028 428 L1012 310 L701 310 L674 118 L985 118 L968 0 L515 0 Q467 -11 422 -11 Q344 -11 279.5 19 Q215 49 170.5 100.5 Q126 152 106 221 Q86 290 97 368 Z M509 608 Q459 608 413 589 Q367 570 330 537.5 Q293 505 268 461 Q243 417 236 368 Q229 318 241.5 274.5 Q254 231 282 198.5 Q310 166 351 147 Q392 128 442 128 Q491 128 536 146 L598 590 Q578 598 555.5 603 Q533 608 509 608 Z " />
<glyph glyph-name="eth" unicode="&#xf0;" horiz-adv-x="648" d="M610 242 Q603 189 576 142.5 Q549 96 509.5 61 Q470 26 420.5 6 Q371 -14 318 -14 Q265 -14 221.5 6 Q178 26 147.5 61 Q117 96 104 142.5 Q91 189 98 242 Q110 325 162 384.5 Q214 444 287 470 Q336 488 392 488 L354 575 L251 549 L242 623 L324 644 L275 757 L416 757 L452 677 L556 704 L566 630 L484 609 L581 395 Q597 360 606.5 322.5 Q616 285 610 242 Z M226 242 Q222 216 229 192.5 Q236 169 251 151.5 Q266 134 288 124 Q310 114 336 114 Q363 114 387.5 124 Q412 134 432 151.5 Q452 169 465 192.5 Q478 216 482 242 Q486 268 479 291.5 Q472 315 457 332.5 Q442 350 420 360 Q398 370 372 370 Q345 370 320.5 360 Q296 350 276 332.5 Q256 315 243 291.5 Q230 268 226 242 Z " />
<glyph glyph-name="quotedblright" unicode="&#x201d;" horiz-adv-x="459" d="M119 462 L180 562 Q151 568 134 592 Q117 616 121 648 Q126 684 155 709.5 Q184 735 220 735 Q244 735 261.5 723 Q279 711 287.5 692.5 Q296 674 293.5 650.5 Q291 627 277 603 L173 434 L119 462 Z M345 462 L406 562 Q377 568 360 592 Q343 616 347 648 Q352 684 381 709.5 Q410 735 446 735 Q470 735 487.5 723 Q505 711 513.5 692.5 Q522 674 519.5 650.5 Q517 627 503 603 L399 434 L345 462 Z " />
<glyph glyph-name="quoteright" unicode="&#x2019;" horiz-adv-x="233" d="M119 462 L180 562 Q151 568 134 592 Q117 616 121 648 Q126 684 155 709.5 Q184 735 220 735 Q244 735 261.5 723 Q279 711 287.5 692.5 Q296 674 293.5 650.5 Q291 627 277 603 L173 434 L119 462 Z " />
<glyph glyph-name="quoteleft" unicode="&#x2018;" horiz-adv-x="233" d="M278 707 L217 607 Q246 601 263.5 577 Q281 553 276 521 Q271 485 242 459.5 Q213 434 177 434 Q153 434 135.5 446 Q118 458 110 476.5 Q102 495 104 518.5 Q106 542 121 566 L224 735 L278 707 Z " />
<glyph glyph-name="questiondown" unicode="&#xbf;" horiz-adv-x="582" d="M403 389 L346 389 Q319 389 294.5 379 Q270 369 250 351.5 Q230 334 216.5 311 Q203 288 200 261 Q196 234 202.5 211 Q209 188 224.5 170.5 Q240 153 261.5 143 Q283 133 310 133 Q337 133 361.5 143 Q386 153 405.5 170.5 Q425 188 438.5 211 Q452 234 456 261 L589 261 Q581 207 554 159 Q527 111 487 76 Q447 41 396 20.5 Q345 0 291 0 Q237 0 192 20.5 Q147 41 117 76 Q87 111 73 159 Q59 207 67 261 Q74 315 101.5 363 Q129 411 169 446 Q209 481 259.5 501.5 Q310 522 364 522 L421 522 L403 389 Z M466 681 Q461 645 431.5 619.5 Q402 594 366 594 Q330 594 308.5 619.5 Q287 645 292 681 Q297 717 326 742.5 Q355 768 391 768 Q427 768 449 742.5 Q471 717 466 681 Z " />
<glyph glyph-name="exclamdown" unicode="&#xa1;" horiz-adv-x="344" d="M355 681 Q350 645 320.5 619.5 Q291 594 255 594 Q219 594 197.5 619.5 Q176 645 181 681 Q186 717 215 742.5 Q244 768 280 768 Q316 768 338 742.5 Q360 717 355 681 Z M311 522 L238 0 L106 0 L179 522 L311 522 Z " />
<glyph glyph-name="greater" unicode="&#x3e;" horiz-adv-x="517" d="M503 256 L211 0 L54 0 L52 11 L331 256 L120 501 L126 512 L283 512 L503 256 Z " />
<glyph glyph-name="guillemotleft" unicode="&#xab;" horiz-adv-x="871" d="M378 512 L535 512 L537 501 L258 256 L469 11 L463 0 L306 0 L86 256 L378 512 Z M732 512 L889 512 L891 501 L612 256 L823 11 L817 0 L660 0 L440 256 L732 512 Z " />
<glyph glyph-name="guilsinglleft" unicode="&#x2039;" horiz-adv-x="517" d="M378 512 L535 512 L537 501 L258 256 L469 11 L463 0 L306 0 L86 256 L378 512 Z " />
<glyph glyph-name="guilsinglright" unicode="&#x203a;" horiz-adv-x="517" d="M503 256 L211 0 L54 0 L52 11 L331 256 L120 501 L126 512 L283 512 L503 256 Z " />
<glyph glyph-name="estimated" unicode="&#x212e;" horiz-adv-x="602" d="M79 256 Q87 311 114 359.5 Q141 408 182 444 Q223 480 274.5 500.5 Q326 521 381 521 Q436 521 481.5 500.5 Q527 480 558 444 Q589 408 603 359.5 Q617 311 609 256 L243 256 L216 65 Q236 48 261 41 Q286 34 313 34 Q379 34 429 61.5 Q479 89 514 135 L563 135 Q522 69 453.5 30 Q385 -9 307 -9 Q252 -9 206 11.5 Q160 32 129.5 68 Q99 104 85 152.5 Q71 201 79 256 Z M248 295 L447 295 L469 447 Q449 463 425 470.5 Q401 478 375 478 Q348 478 321 470 Q294 462 270 445 L248 295 Z " />
<glyph glyph-name="backslash" unicode="&#x5c;" horiz-adv-x="265" d="M209 751 L293 -17 L160 -17 L76 751 L209 751 Z " />
<glyph glyph-name="partialdiff" unicode="&#x2202;" horiz-adv-x="636" d="M610 242 Q603 189 576 142.5 Q549 96 509.5 61 Q470 26 420.5 6 Q371 -14 318 -14 Q265 -14 221.5 6 Q178 26 147.5 61 Q117 96 104 142.5 Q91 189 98 242 Q110 325 162 384.5 Q214 444 287 470 Q336 488 392 488 L275 754 L416 754 L581 395 Q597 360 606.5 322.5 Q616 285 610 242 Z M226 242 Q222 216 229 192.5 Q236 169 251 151.5 Q266 134 288 124 Q310 114 336 114 Q363 114 387.5 124 Q412 134 432 151.5 Q452 169 465 192.5 Q478 216 482 242 Q486 268 479 291.5 Q472 315 457 332.5 Q442 350 420 360 Q398 370 372 370 Q345 370 320.5 360 Q296 350 276 332.5 Q256 315 243 291.5 Q230 268 226 242 Z " />
<glyph glyph-name="braceleft" unicode="&#x7b;" horiz-adv-x="574" d="M461 -128 Q407 -128 363 -107.5 Q319 -87 289.5 -52 Q260 -17 247 31 Q234 79 242 133 L250 190 Q253 216 247 238.5 Q241 261 227 278.5 Q213 296 192 306.5 Q171 317 146 318 L140 318 L158 451 L164 451 Q190 452 213.5 462.5 Q237 473 256 490 Q275 507 288 530 Q301 553 304 579 L312 635 Q320 689 346 737 Q372 785 411.5 820 Q451 855 501 875.5 Q551 896 605 896 L586 763 Q559 763 534.5 753 Q510 743 490.5 725.5 Q471 708 457.5 685 Q444 662 440 635 L432 579 Q424 520 394.5 470 Q365 420 321 384 Q355 349 370.5 298.5 Q386 248 378 190 L370 133 Q366 106 372.5 83 Q379 60 394.5 42.5 Q410 25 431.5 15 Q453 5 480 5 L461 -128 Z " />
<glyph glyph-name="braceright" unicode="&#x7d;" horiz-adv-x="574" d="M96 5 Q123 5 147.5 15 Q172 25 191.5 42.5 Q211 60 224.5 83 Q238 106 242 133 L250 190 Q258 248 287.5 298.5 Q317 349 361 384 Q327 420 311.5 470 Q296 520 304 579 L312 635 Q316 662 309.5 685 Q303 708 287.5 725.5 Q272 743 250.5 753 Q229 763 202 763 L221 896 Q275 896 319 875.5 Q363 855 392.5 820 Q422 785 435 737 Q448 689 440 635 L432 579 Q429 553 435 530 Q441 507 455 490 Q469 473 490 462.5 Q511 452 536 451 L542 451 L524 318 L518 318 Q492 317 468.5 306.5 Q445 296 426 278.5 Q407 261 394 238.5 Q381 216 378 190 L370 133 Q362 79 336 31 Q310 -17 270.5 -52 Q231 -87 181 -107.5 Q131 -128 77 -128 L96 5 Z " />
<glyph glyph-name="perthousand" unicode="&#x2030;" horiz-adv-x="804" d="M676 678 L202 90 L63 90 L537 678 L676 678 Z M418 177 Q423 213 452 238.5 Q481 264 517 264 Q553 264 575 238.5 Q597 213 592 177 Q587 141 558 115.5 Q529 90 493 90 Q457 90 435 115.5 Q413 141 418 177 Z M137 591 Q142 627 171 652.5 Q200 678 236 678 Q272 678 294 652.5 Q316 627 311 591 Q306 555 277 529.5 Q248 504 212 504 Q176 504 154 529.5 Q132 555 137 591 Z M648 177 Q653 213 682 238.5 Q711 264 747 264 Q783 264 805 238.5 Q827 213 822 177 Q817 141 788 115.5 Q759 90 723 90 Q687 90 665 115.5 Q643 141 648 177 Z " />
<glyph glyph-name="registered" unicode="&#xae;" horiz-adv-x="796" d="M80 357 Q91 433 129.5 500.5 Q168 568 225 618 Q282 668 352.5 697 Q423 726 499 726 Q575 726 638.5 697 Q702 668 745 618 Q788 568 807.5 500.5 Q827 433 816 357 Q805 281 767 214.5 Q729 148 672 98 Q615 48 543.5 19 Q472 -10 396 -10 Q320 -10 257.5 19 Q195 48 152 98 Q109 148 89 214.5 Q69 281 80 357 Z M168 357 Q160 299 175 248.5 Q190 198 222.5 160 Q255 122 302.5 100 Q350 78 408 78 Q466 78 520.5 100 Q575 122 618.5 160 Q662 198 691 248.5 Q720 299 728 357 Q736 415 721.5 466.5 Q707 518 674 556 Q641 594 593 616 Q545 638 487 638 Q429 638 375 616 Q321 594 278 556 Q235 518 205.5 466.5 Q176 415 168 357 Z M378 188 L301 188 L352 548 L507 548 Q531 548 550 539 Q569 530 582 515 Q595 500 601.5 479.5 Q608 459 604 435 Q600 403 580 376.5 Q560 350 532 335 L565 188 L485 188 L455 322 L397 322 L378 188 Z M478 388 Q498 388 513 401.5 Q528 415 531 435 Q534 455 522.5 468 Q511 481 491 481 L420 481 L407 388 L478 388 Z " />
<glyph glyph-name="exclam" unicode="&#x21;" horiz-adv-x="344" d="M97 87 Q102 123 131 148.5 Q160 174 196 174 Q232 174 254 148.5 Q276 123 271 87 Q266 51 237 25.5 Q208 0 172 0 Q136 0 114 25.5 Q92 51 97 87 Z M141 246 L214 768 L346 768 L273 246 L141 246 Z " />
<glyph glyph-name="asciitilde" unicode="&#x7e;" horiz-adv-x="571" d="M416 337 Q450 337 476.5 324 Q503 311 520 289.5 Q537 268 544 240 Q551 212 547 182 L445 182 Q448 208 437 225.5 Q426 243 403 243 Q385 243 368.5 231 Q352 219 332.5 204 Q313 189 287.5 177 Q262 165 226 165 Q191 165 165 178 Q139 191 122 212.5 Q105 234 98 262 Q91 290 95 320 L197 320 Q193 294 204 276.5 Q215 259 239 259 Q257 259 273.5 271 Q290 283 310 298 Q330 313 355 325 Q380 337 416 337 Z " />
<glyph glyph-name="dagger" unicode="&#x2020;" horiz-adv-x="612" d="M122 512 L140 640 L328 640 L355 832 L492 832 L465 640 L652 640 L634 512 L447 512 L357 -128 L220 -128 L310 512 L122 512 Z " />
<glyph glyph-name="brokenbar" unicode="&#xa6;" horiz-adv-x="318" d="M140 320 L268 320 L205 -128 L77 -128 L140 320 Z M286 448 L158 448 L221 896 L349 896 L286 448 Z " />
<glyph glyph-name="trademark" unicode="&#x2122;" horiz-adv-x="536" d="M272 768 L311 768 L341 719 L385 768 L423 768 L407 652 L369 652 L378 716 L333 664 L304 716 L295 652 L256 652 L272 768 Z M141 768 L251 768 L246 734 L210 734 L199 652 L161 652 L172 734 L136 734 L141 768 Z " />
<glyph glyph-name="Euro" unicode="&#x20ac;" horiz-adv-x="730" d="M26 402 L44 530 L164 530 Q193 578 233 618 Q273 658 321 686.5 Q369 715 424 730.5 Q479 746 538 746 Q619 746 683 716.5 Q747 687 789 636 L686 541 Q657 573 616 593.5 Q575 614 525 614 Q465 614 413.5 591.5 Q362 569 322 530 L526 530 L508 402 L249 402 Q246 393 245 384.5 Q244 376 243 367 Q241 358 240 350 Q239 342 240 334 L499 334 L481 206 L277 206 Q305 165 351 142.5 Q397 120 456 120 Q506 120 552.5 140.5 Q599 161 638 194 L714 99 Q658 48 585 18.5 Q512 -11 431 -11 Q374 -11 324 5 Q274 21 233.5 49.5 Q193 78 163.5 118 Q134 158 119 206 L-1 206 L17 334 L103 334 Q103 342 104 350.5 Q105 359 107 367 Q108 376 109 384.5 Q110 393 112 402 L26 402 Z " />
<glyph glyph-name="kgreenlandic" unicode="&#x138;" horiz-adv-x="601" d="M253 320 L361 320 Q401 320 433 348 Q465 376 470 416 L484 512 L612 512 L598 416 Q589 351 549 298.5 Q509 246 451 218 L551 0 L408 0 L318 192 L235 192 L208 0 L80 0 L152 512 L280 512 L253 320 Z " />
<glyph glyph-name="threequartersemdash" unicode="&#xf6de;" horiz-adv-x="1636" d="M95 320 L1631 320 L1613 192 L77 192 L95 320 Z " />
<glyph glyph-name="lira" unicode="&#x20a4;" horiz-adv-x="570" d="M90 317 L186 317 L196 393 L100 393 L117 511 L213 511 L222 576 Q228 616 247.5 651 Q267 686 297 712 Q327 738 364 753 Q401 768 441 768 Q481 768 514 753 Q547 738 569 712 Q591 686 601.5 651 Q612 616 606 576 L478 576 Q482 602 465.5 621 Q449 640 423 640 Q397 640 375.5 621 Q354 602 350 576 L341 511 L597 511 L580 393 L324 393 L314 317 L570 317 L553 199 L297 199 L285 117 L541 117 L525 0 L141 0 L169 199 L73 199 L90 317 Z " />
<glyph glyph-name="yen" unicode="&#xa5;" horiz-adv-x="593" d="M78 266 L96 394 L214 394 L123 735 L268 735 L353 400 L532 735 L676 735 L490 394 L608 394 L590 266 L398 266 L391 212 L583 212 L565 84 L373 84 L361 0 L233 0 L245 84 L53 84 L71 212 L263 212 L270 266 L78 266 Z " />
<glyph glyph-name="ae" unicode="&#xe6;" horiz-adv-x="937" d="M935 251 Q934 240 930 226.5 Q926 213 923 205 L541 205 Q538 188 546 170.5 Q554 153 570 139.5 Q586 126 608.5 117.5 Q631 109 660 109 Q697 109 731 124 Q765 139 790 164 L875 89 Q830 42 770 16 Q710 -10 643 -10 Q586 -10 534.5 12.5 Q483 35 452 82 Q425 55 397 37 Q369 19 342 8.5 Q315 -2 289.5 -6.5 Q264 -11 242 -11 Q197 -11 162.5 2 Q128 15 104.5 37 Q81 59 71.5 89 Q62 119 66 152 Q71 184 87.5 212.5 Q104 241 133 262 Q162 283 203.5 295.5 Q245 308 299 308 L429 308 L430 313 Q436 353 415.5 378 Q395 403 347 403 Q312 403 284.5 386.5 Q257 370 230 341 L153 415 Q170 436 194 455.5 Q218 475 245.5 489.5 Q273 504 303 513 Q333 522 363 522 Q420 522 460 504 Q500 486 525 454 Q561 486 608 504 Q655 522 709 522 Q767 522 813.5 501.5 Q860 481 889 445 Q918 409 931 359.5 Q944 310 935 251 Z M695 407 Q664 407 639.5 397.5 Q615 388 596.5 373.5 Q578 359 568 341.5 Q558 324 555 308 L808 308 Q810 323 804 340 Q798 357 783.5 372 Q769 387 747 397 Q725 407 695 407 Z M198 153 Q194 128 214.5 112.5 Q235 97 270 97 Q293 97 317 105 Q341 113 362 127.5 Q383 142 397.5 162 Q412 182 415 206 L285 206 Q243 206 222 191 Q201 176 198 153 Z " />
<glyph glyph-name="oe" unicode="&#x153;" horiz-adv-x="1024" d="M86 256 Q94 311 121 359.5 Q148 408 189 444 Q230 480 281.5 501 Q333 522 389 522 Q449 522 497.5 496.5 Q546 471 575 421 Q659 522 788 522 Q846 522 892.5 501.5 Q939 481 968 445 Q997 409 1010 359.5 Q1023 310 1014 251 Q1013 240 1009 226.5 Q1005 213 1002 205 L620 205 Q617 188 625 170.5 Q633 153 649 139.5 Q665 126 687.5 117.5 Q710 109 739 109 Q776 109 810 124 Q844 139 869 164 L954 89 Q909 42 849 16 Q789 -10 722 -10 Q665 -10 613 13.5 Q561 37 530 91 Q486 41 430.5 15.5 Q375 -10 315 -10 Q259 -10 213 10.5 Q167 31 136 67 Q105 103 91.5 151.5 Q78 200 86 256 Z M212 256 Q208 227 215.5 202 Q223 177 239.5 157.5 Q256 138 279.5 127 Q303 116 332 116 Q360 116 387 127 Q414 138 436.5 157.5 Q459 177 473.5 202 Q488 227 492 256 Q496 284 488.5 309.5 Q481 335 464.5 354.5 Q448 374 424 385 Q400 396 372 396 Q343 396 316.5 385 Q290 374 267.5 354.5 Q245 335 230.5 309.5 Q216 284 212 256 Z M774 407 Q743 407 718.5 397.5 Q694 388 675.5 373.5 Q657 359 647 341.5 Q637 324 634 308 L887 308 Q889 323 883 340 Q877 357 862.5 372 Q848 387 826 397 Q804 407 774 407 Z " />
<glyph glyph-name="Oslash" unicode="&#xd8;" horiz-adv-x="848" d="M97 368 Q108 446 147.5 515 Q187 584 246 635.5 Q305 687 378 717 Q451 747 529 747 Q590 747 642.5 728.5 Q695 710 737 677 L815 745 L892 655 L814 587 Q842 540 852.5 485 Q863 430 855 368 Q844 290 804 221 Q764 152 705.5 100.5 Q647 49 573.5 19 Q500 -11 422 -11 Q360 -11 307.5 7.5 Q255 26 212 59 L137 -7 L60 83 L135 149 Q109 196 98.5 251 Q88 306 97 368 Z M442 128 Q491 128 537.5 147 Q584 166 621 198.5 Q658 231 683.5 274.5 Q709 318 716 368 Q720 400 716 430.5 Q712 461 700 487 L327 160 Q376 128 442 128 Z M236 368 Q227 304 250 250 L622 576 Q598 591 569.5 599.5 Q541 608 509 608 Q459 608 413 589 Q367 570 330 537.5 Q293 505 268 461 Q243 417 236 368 Z " />
<glyph glyph-name="oslash" unicode="&#xf8;" horiz-adv-x="632" d="M86 256 Q94 311 121 359.5 Q148 408 189 444 Q230 480 281.5 501 Q333 522 389 522 Q431 522 467 510 Q503 498 532 477 L582 521 L644 449 L594 405 Q610 373 617 335.5 Q624 298 618 256 Q610 200 582 151.5 Q554 103 513 67 Q472 31 421 10.5 Q370 -10 315 -10 Q231 -10 172 35 L122 -9 L60 63 L110 107 Q74 172 86 256 Z M332 115 Q362 115 389 125.5 Q416 136 437 155 Q458 174 473 200 Q488 226 492 256 Q494 271 492.5 285 Q491 299 488 312 L276 126 Q302 115 332 115 Z M212 256 Q208 226 215 199 L427 385 Q403 397 372 397 Q342 397 315 386.5 Q288 376 267 357 Q246 338 231 312 Q216 286 212 256 Z " />
<glyph glyph-name="ellipsis" unicode="&#x2026;" horiz-adv-x="822" d="M62 87 Q67 123 96 148.5 Q125 174 161 174 Q197 174 219 148.5 Q241 123 236 87 Q231 51 202 25.5 Q173 0 137 0 Q101 0 79 25.5 Q57 51 62 87 Z M336 87 Q341 123 370 148.5 Q399 174 435 174 Q471 174 493 148.5 Q515 123 510 87 Q505 51 476 25.5 Q447 0 411 0 Q375 0 353 25.5 Q331 51 336 87 Z M610 87 Q615 123 644 148.5 Q673 174 709 174 Q745 174 767 148.5 Q789 123 784 87 Q779 51 750 25.5 Q721 0 685 0 Q649 0 627 25.5 Q605 51 610 87 Z " />
<glyph glyph-name="guillemotright" unicode="&#xbb;" horiz-adv-x="871" d="M857 256 L565 0 L408 0 L406 11 L685 256 L474 501 L480 512 L637 512 L857 256 Z M503 256 L211 0 L54 0 L52 11 L331 256 L120 501 L126 512 L283 512 L503 256 Z " />
<glyph glyph-name="paragraph" unicode="&#xb6;" horiz-adv-x="888" d="M307 223 Q254 223 210 243 Q166 263 136.5 297.5 Q107 332 93.5 379 Q80 426 87 479 Q95 532 121.5 579 Q148 626 187.5 660.5 Q227 695 276.5 715 Q326 735 379 735 L911 735 L808 0 L666 0 L753 617 L625 617 L538 0 L402 0 L433 223 L307 223 Z M450 341 L489 617 L373 617 Q344 617 317.5 606 Q291 595 269.5 576.5 Q248 558 233.5 532.5 Q219 507 215 479 Q211 450 218.5 425 Q226 400 242 381.5 Q258 363 281.5 352 Q305 341 334 341 L450 341 Z " />
<glyph glyph-name="Aacute" unicode="&#xc1;" horiz-adv-x="744" d="M582 0 L545 138 L237 138 L162 0 L17 0 L411 735 L538 735 L727 0 L582 0 Z M448 543 L297 256 L520 256 L448 543 Z M496 788 L467 821 L593 964 Q609 981 632 982 Q655 983 668 968 Q681 953 676.5 930 Q672 907 654 894 L496 788 Z " />
<glyph glyph-name="Abreve" unicode="&#x102;" horiz-adv-x="744" d="M582 0 L545 138 L237 138 L162 0 L17 0 L411 735 L538 735 L727 0 L582 0 Z M448 543 L297 256 L520 256 L448 543 Z M384 919 L462 919 L459 898 Q457 881 466.5 870 Q476 859 493 859 Q510 859 522.5 870 Q535 881 537 898 L540 919 L618 919 L616 904 Q613 880 601 858.5 Q589 837 570.5 821 Q552 805 529.5 796 Q507 787 483 787 Q459 787 438.5 796 Q418 805 404.5 821 Q391 837 385 858.5 Q379 880 382 904 L384 919 Z " />
<glyph glyph-name="Acircumflex" unicode="&#xc2;" horiz-adv-x="744" d="M582 0 L545 138 L237 138 L162 0 L17 0 L411 735 L538 735 L727 0 L582 0 Z M448 543 L297 256 L520 256 L448 543 Z M494 878 L392 787 L353 832 L508 968 L625 832 L574 787 L494 878 Z " />
<glyph glyph-name="Agrave" unicode="&#xc0;" horiz-adv-x="744" d="M582 0 L545 138 L237 138 L162 0 L17 0 L411 735 L538 735 L727 0 L582 0 Z M448 543 L297 256 L520 256 L448 543 Z M342 894 Q326 907 328.5 930 Q331 953 348 968 Q365 983 388 982 Q411 981 421 964 L507 821 L470 788 L342 894 Z " />
<glyph glyph-name="Adieresis" unicode="&#xc4;" horiz-adv-x="744" d="M582 0 L545 138 L237 138 L162 0 L17 0 L411 735 L538 735 L727 0 L582 0 Z M448 543 L297 256 L520 256 L448 543 Z M301 886 Q306 922 335 947.5 Q364 973 400 973 Q436 973 458 947.5 Q480 922 475 886 Q469 850 440 824.5 Q411 799 375 799 Q339 799 317 824.5 Q295 850 301 886 Z M519 886 Q524 922 553 947.5 Q582 973 618 973 Q654 973 676 947.5 Q698 922 693 886 Q687 850 658 824.5 Q629 799 593 799 Q557 799 535 824.5 Q513 850 519 886 Z " />
<glyph glyph-name="Amacron" unicode="&#x100;" horiz-adv-x="744" d="M582 0 L545 138 L237 138 L162 0 L17 0 L411 735 L538 735 L727 0 L582 0 Z M448 543 L297 256 L520 256 L448 543 Z M640 799 L328 799 L339 877 L651 877 L640 799 Z " />
<glyph glyph-name="Aogonek" unicode="&#x104;" horiz-adv-x="744" d="M445 -64 Q452 -16 485.5 18.5 Q519 53 566 61 L545 138 L237 138 L162 0 L17 0 L411 735 L538 735 L727 0 L582 0 Q555 0 534 -19 Q513 -38 509 -64 Q505 -91 521 -109.5 Q537 -128 564 -128 Q590 -128 611.5 -109.5 Q633 -91 637 -64 L701 -64 Q697 -91 684 -114 Q671 -137 651 -154.5 Q631 -172 606.5 -182 Q582 -192 555 -192 Q528 -192 506.5 -182 Q485 -172 470 -154.5 Q455 -137 448 -114 Q441 -91 445 -64 Z M448 543 L297 256 L520 256 L448 543 Z " />
<glyph glyph-name="Aring" unicode="&#xc5;" horiz-adv-x="744" d="M582 0 L545 138 L237 138 L162 0 L17 0 L411 735 L538 735 L727 0 L582 0 Z M448 543 L297 256 L520 256 L448 543 Z M402 895 Q407 935 439 963 Q471 991 511 991 Q551 991 575 963 Q599 935 594 895 Q588 855 556 827 Q524 799 484 799 Q444 799 420 827 Q396 855 402 895 Z M466 895 Q464 881 471.5 872 Q479 863 493 863 Q507 863 517.5 872 Q528 881 530 895 Q532 909 524 918 Q516 927 502 927 Q488 927 478 918 Q468 909 466 895 Z " />
<glyph glyph-name="Atilde" unicode="&#xc3;" horiz-adv-x="744" d="M582 0 L545 138 L237 138 L162 0 L17 0 L411 735 L538 735 L727 0 L582 0 Z M448 543 L297 256 L520 256 L448 543 Z M560 931 Q584 931 601.5 922 Q619 913 631 898 Q643 883 648 864 Q653 845 650 824 L580 824 Q582 842 575 854 Q568 866 551 866 Q539 866 527 857.5 Q515 849 502 839.5 Q489 830 471.5 821.5 Q454 813 429 813 Q405 813 387 822 Q369 831 357.5 845.5 Q346 860 341 879 Q336 898 339 919 L409 919 Q407 901 414 889 Q421 877 438 877 Q450 877 462 885.5 Q474 894 487 904 Q500 914 517.5 922.5 Q535 931 560 931 Z " />
<glyph glyph-name="AEacute" unicode="&#x1fc;" horiz-adv-x="920" d="M957 617 L646 617 L619 428 L930 428 L914 310 L603 310 L576 118 L887 118 L870 0 L417 0 L436 138 L238 138 Q219 103 199.5 69 Q180 35 161 0 L17 0 L417 735 L973 735 L957 617 Z M453 256 L504 617 L489 617 L299 256 L453 256 Z M584 788 L555 821 L681 964 Q697 981 720 982 Q743 983 756 968 Q769 953 764.5 930 Q760 907 742 894 L584 788 Z " />
<glyph glyph-name="Cacute" unicode="&#x106;" horiz-adv-x="720" d="M233 367 Q225 314 237.5 269 Q250 224 279 191 Q308 158 350.5 139 Q393 120 446 120 Q496 120 542.5 140.5 Q589 161 628 194 L704 99 Q648 48 575 18.5 Q502 -11 421 -11 Q342 -11 277.5 18.5 Q213 48 169 99 Q125 150 105 219 Q85 288 97 367 Q108 448 146.5 517 Q185 586 243.5 637 Q302 688 375 717 Q448 746 528 746 Q609 746 673 716.5 Q737 687 779 636 L676 541 Q647 573 606 593.5 Q565 614 515 614 Q461 614 413 595.5 Q365 577 327.5 544 Q290 511 265 465.5 Q240 420 233 367 Z M484 788 L455 821 L581 964 Q597 981 620 982 Q643 983 656 968 Q669 953 664.5 930 Q660 907 642 894 L484 788 Z " />
<glyph glyph-name="Ccaron" unicode="&#x10c;" horiz-adv-x="720" d="M233 367 Q225 314 237.5 269 Q250 224 279 191 Q308 158 350.5 139 Q393 120 446 120 Q496 120 542.5 140.5 Q589 161 628 194 L704 99 Q648 48 575 18.5 Q502 -11 421 -11 Q342 -11 277.5 18.5 Q213 48 169 99 Q125 150 105 219 Q85 288 97 367 Q108 448 146.5 517 Q185 586 243.5 637 Q302 688 375 717 Q448 746 528 746 Q609 746 673 716.5 Q737 687 779 636 L676 541 Q647 573 606 593.5 Q565 614 515 614 Q461 614 413 595.5 Q365 577 327.5 544 Q290 511 265 465.5 Q240 420 233 367 Z M534 877 L637 968 L676 923 L521 787 L404 923 L455 968 L534 877 Z " />
<glyph glyph-name="Ccedilla" unicode="&#xc7;" horiz-adv-x="720" d="M233 367 Q225 314 237.5 269 Q250 224 279 191 Q308 158 350.5 139 Q393 120 446 120 Q496 120 542.5 140.5 Q589 161 628 194 L704 99 Q652 51 586 23 Q520 -5 447 -10 L441 -49 Q468 -59 482.5 -83.5 Q497 -108 492 -140 Q487 -180 455 -208 Q423 -236 383 -236 Q363 -236 347 -228.5 Q331 -221 319 -208 L371 -164 Q380 -172 392 -172 Q406 -172 416 -163 Q426 -154 428 -140 Q430 -126 422.5 -117 Q415 -108 401 -108 Q387 -108 377 -117 L338 -72 Q356 -55 377 -49 L383 -9 Q312 -2 254.5 30 Q197 62 158.5 112 Q120 162 103 227.5 Q86 293 97 367 Q108 448 146.5 517 Q185 586 243.5 637 Q302 688 375 717 Q448 746 528 746 Q609 746 673 716.5 Q737 687 779 636 L676 541 Q647 573 606 593.5 Q565 614 515 614 Q461 614 413 595.5 Q365 577 327.5 544 Q290 511 265 465.5 Q240 420 233 367 Z " />
<glyph glyph-name="Ccircumflex" unicode="&#x108;" horiz-adv-x="720" d="M233 367 Q225 314 237.5 269 Q250 224 279 191 Q308 158 350.5 139 Q393 120 446 120 Q496 120 542.5 140.5 Q589 161 628 194 L704 99 Q648 48 575 18.5 Q502 -11 421 -11 Q342 -11 277.5 18.5 Q213 48 169 99 Q125 150 105 219 Q85 288 97 367 Q108 448 146.5 517 Q185 586 243.5 637 Q302 688 375 717 Q448 746 528 746 Q609 746 673 716.5 Q737 687 779 636 L676 541 Q647 573 606 593.5 Q565 614 515 614 Q461 614 413 595.5 Q365 577 327.5 544 Q290 511 265 465.5 Q240 420 233 367 Z M542 878 L440 787 L401 832 L556 968 L673 832 L622 787 L542 878 Z " />
<glyph glyph-name="Cdotaccent" unicode="&#x10a;" horiz-adv-x="720" d="M233 367 Q225 314 237.5 269 Q250 224 279 191 Q308 158 350.5 139 Q393 120 446 120 Q496 120 542.5 140.5 Q589 161 628 194 L704 99 Q648 48 575 18.5 Q502 -11 421 -11 Q342 -11 277.5 18.5 Q213 48 169 99 Q125 150 105 219 Q85 288 97 367 Q108 448 146.5 517 Q185 586 243.5 637 Q302 688 375 717 Q448 746 528 746 Q609 746 673 716.5 Q737 687 779 636 L676 541 Q647 573 606 593.5 Q565 614 515 614 Q461 614 413 595.5 Q365 577 327.5 544 Q290 511 265 465.5 Q240 420 233 367 Z M458 886 Q463 922 492 947.5 Q521 973 557 973 Q593 973 615 947.5 Q637 922 632 886 Q626 850 597 824.5 Q568 799 532 799 Q496 799 474 824.5 Q452 850 458 886 Z " />
<glyph glyph-name="Dcaron" unicode="&#x10e;" horiz-adv-x="699" d="M90 0 L193 735 L405 735 Q481 735 543.5 706 Q606 677 649 627 Q692 577 711.5 510.5 Q731 444 721 368 Q710 292 671.5 225 Q633 158 576 108 Q519 58 448.5 29 Q378 0 302 0 L90 0 Z M313 607 L246 128 L312 128 Q363 128 409.5 146.5 Q456 165 492.5 197.5 Q529 230 553.5 273.5 Q578 317 585 368 Q592 419 579.5 463 Q567 507 539 538.5 Q511 570 470 588.5 Q429 607 379 607 L313 607 Z M413 877 L516 968 L555 923 L400 787 L283 923 L334 968 L413 877 Z " />
<glyph glyph-name="Eacute" unicode="&#xc9;" horiz-adv-x="593" d="M193 735 L646 735 L630 617 L319 617 L292 430 L563 430 L547 313 L276 313 L249 118 L560 118 L543 0 L90 0 L193 735 Z M400 788 L371 821 L497 964 Q513 981 536 982 Q559 983 572 968 Q585 953 580.5 930 Q576 907 558 894 L400 788 Z " />
<glyph glyph-name="Ebreve" unicode="&#x114;" horiz-adv-x="593" d="M193 735 L646 735 L630 617 L319 617 L292 430 L563 430 L547 313 L276 313 L249 118 L560 118 L543 0 L90 0 L193 735 Z M328 919 L406 919 L403 898 Q401 881 410.5 870 Q420 859 437 859 Q454 859 466.5 870 Q479 881 481 898 L484 919 L562 919 L560 904 Q557 880 545 858.5 Q533 837 514.5 821 Q496 805 473.5 796 Q451 787 427 787 Q403 787 382.5 796 Q362 805 348.5 821 Q335 837 329 858.5 Q323 880 326 904 L328 919 Z " />
<glyph glyph-name="Ecaron" unicode="&#x11a;" horiz-adv-x="593" d="M193 735 L646 735 L630 617 L319 617 L292 430 L563 430 L547 313 L276 313 L249 118 L560 118 L543 0 L90 0 L193 735 Z M440 877 L543 968 L582 923 L427 787 L310 923 L361 968 L440 877 Z " />
<glyph glyph-name="Ecircumflex" unicode="&#xca;" horiz-adv-x="593" d="M193 735 L646 735 L630 617 L319 617 L292 430 L563 430 L547 313 L276 313 L249 118 L560 118 L543 0 L90 0 L193 735 Z M438 878 L336 787 L297 832 L452 968 L569 832 L518 787 L438 878 Z " />
<glyph glyph-name="Edieresis" unicode="&#xcb;" horiz-adv-x="593" d="M193 735 L646 735 L630 617 L319 617 L292 430 L563 430 L547 313 L276 313 L249 118 L560 118 L543 0 L90 0 L193 735 Z M245 886 Q250 922 279 947.5 Q308 973 344 973 Q380 973 402 947.5 Q424 922 419 886 Q413 850 384 824.5 Q355 799 319 799 Q283 799 261 824.5 Q239 850 245 886 Z M463 886 Q468 922 497 947.5 Q526 973 562 973 Q598 973 620 947.5 Q642 922 637 886 Q631 850 602 824.5 Q573 799 537 799 Q501 799 479 824.5 Q457 850 463 886 Z " />
<glyph glyph-name="Edotaccent" unicode="&#x116;" horiz-adv-x="593" d="M193 735 L646 735 L630 617 L319 617 L292 430 L563 430 L547 313 L276 313 L249 118 L560 118 L543 0 L90 0 L193 735 Z M354 886 Q359 922 388 947.5 Q417 973 453 973 Q489 973 511 947.5 Q533 922 528 886 Q522 850 493 824.5 Q464 799 428 799 Q392 799 370 824.5 Q348 850 354 886 Z " />
<glyph glyph-name="Egrave" unicode="&#xc8;" horiz-adv-x="593" d="M193 735 L646 735 L630 617 L319 617 L292 430 L563 430 L547 313 L276 313 L249 118 L560 118 L543 0 L90 0 L193 735 Z M296 894 Q280 907 282.5 930 Q285 953 302 968 Q319 983 342 982 Q365 981 375 964 L461 821 L424 788 L296 894 Z " />
<glyph glyph-name="Emacron" unicode="&#x112;" horiz-adv-x="593" d="M193 735 L646 735 L630 617 L319 617 L292 430 L563 430 L547 313 L276 313 L249 118 L560 118 L543 0 L90 0 L193 735 Z M574 799 L262 799 L273 877 L585 877 L574 799 Z " />
<glyph glyph-name="Eogonek" unicode="&#x118;" horiz-adv-x="593" d="M278 -64 Q283 -29 304 0 L90 0 L193 735 L646 735 L630 617 L319 617 L292 430 L563 430 L547 313 L276 313 L249 118 L436 118 L560 118 L543 0 L415 0 Q388 0 367 -19 Q346 -38 342 -64 Q338 -91 354 -109.5 Q370 -128 397 -128 Q423 -128 444.5 -109.5 Q466 -91 470 -64 L534 -64 Q530 -91 517 -114 Q504 -137 484 -154.5 Q464 -172 439.5 -182 Q415 -192 388 -192 Q361 -192 339.5 -182 Q318 -172 303 -154.5 Q288 -137 281 -114 Q274 -91 278 -64 Z " />
<glyph glyph-name="Gbreve" unicode="&#x11e;" horiz-adv-x="838" d="M228 368 Q221 317 234 272 Q247 227 275.5 193.5 Q304 160 346.5 140.5 Q389 121 440 121 Q486 121 527.5 133 Q569 145 603.5 168 Q638 191 663 225.5 Q688 260 699 304 L471 304 L488 430 L848 430 Q849 414 848 399 Q847 384 845 367 Q832 280 794 210.5 Q756 141 699 91.5 Q642 42 570.5 15.5 Q499 -11 422 -11 Q342 -11 277.5 18.5 Q213 48 169 99 Q125 150 105 219 Q85 288 97 368 Q108 449 146 516 Q184 583 241.5 632 Q299 681 372 708 Q445 735 527 735 Q605 735 670 705.5 Q735 676 780 625 L675 538 Q646 571 603.5 591 Q561 611 510 611 Q455 611 407 593 Q359 575 321.5 542.5 Q284 510 259.5 465.5 Q235 421 228 368 Z M431 919 L509 919 L506 898 Q504 881 513.5 870 Q523 859 540 859 Q557 859 569.5 870 Q582 881 584 898 L587 919 L665 919 L663 904 Q660 880 648 858.5 Q636 837 617.5 821 Q599 805 576.5 796 Q554 787 530 787 Q506 787 485.5 796 Q465 805 451.5 821 Q438 837 432 858.5 Q426 880 429 904 L431 919 Z " />
<glyph glyph-name="Gcircumflex" unicode="&#x11c;" horiz-adv-x="838" d="M228 368 Q221 317 234 272 Q247 227 275.5 193.5 Q304 160 346.5 140.5 Q389 121 440 121 Q486 121 527.5 133 Q569 145 603.5 168 Q638 191 663 225.5 Q688 260 699 304 L471 304 L488 430 L848 430 Q849 414 848 399 Q847 384 845 367 Q832 280 794 210.5 Q756 141 699 91.5 Q642 42 570.5 15.5 Q499 -11 422 -11 Q342 -11 277.5 18.5 Q213 48 169 99 Q125 150 105 219 Q85 288 97 368 Q108 449 146 516 Q184 583 241.5 632 Q299 681 372 708 Q445 735 527 735 Q605 735 670 705.5 Q735 676 780 625 L675 538 Q646 571 603.5 591 Q561 611 510 611 Q455 611 407 593 Q359 575 321.5 542.5 Q284 510 259.5 465.5 Q235 421 228 368 Z M541 878 L439 787 L400 832 L555 968 L672 832 L621 787 L541 878 Z " />
<glyph glyph-name="Gdotaccent" unicode="&#x120;" horiz-adv-x="838" d="M228 368 Q221 317 234 272 Q247 227 275.5 193.5 Q304 160 346.5 140.5 Q389 121 440 121 Q486 121 527.5 133 Q569 145 603.5 168 Q638 191 663 225.5 Q688 260 699 304 L471 304 L488 430 L848 430 Q849 414 848 399 Q847 384 845 367 Q832 280 794 210.5 Q756 141 699 91.5 Q642 42 570.5 15.5 Q499 -11 422 -11 Q342 -11 277.5 18.5 Q213 48 169 99 Q125 150 105 219 Q85 288 97 368 Q108 449 146 516 Q184 583 241.5 632 Q299 681 372 708 Q445 735 527 735 Q605 735 670 705.5 Q735 676 780 625 L675 538 Q646 571 603.5 591 Q561 611 510 611 Q455 611 407 593 Q359 575 321.5 542.5 Q284 510 259.5 465.5 Q235 421 228 368 Z M457 886 Q462 922 491 947.5 Q520 973 556 973 Q592 973 614 947.5 Q636 922 631 886 Q625 850 596 824.5 Q567 799 531 799 Q495 799 473 824.5 Q451 850 457 886 Z " />
<glyph glyph-name="Gcommaaccent" unicode="&#x122;" horiz-adv-x="838" d="M228 368 Q221 317 234 272 Q247 227 275.5 193.5 Q304 160 346.5 140.5 Q389 121 440 121 Q486 121 527.5 133 Q569 145 603.5 168 Q638 191 663 225.5 Q688 260 699 304 L471 304 L488 430 L848 430 Q849 414 848 399 Q847 384 845 367 Q832 280 794 210.5 Q756 141 699 91.5 Q642 42 570.5 15.5 Q499 -11 422 -11 Q342 -11 277.5 18.5 Q213 48 169 99 Q125 150 105 219 Q85 288 97 368 Q108 449 146 516 Q184 583 241.5 632 Q299 681 372 708 Q445 735 527 735 Q605 735 670 705.5 Q735 676 780 625 L675 538 Q646 571 603.5 591 Q561 611 510 611 Q455 611 407 593 Q359 575 321.5 542.5 Q284 510 259.5 465.5 Q235 421 228 368 Z M340 -238 L379 -174 Q359 -170 348.5 -155 Q338 -140 341 -120 Q344 -97 362.5 -80.5 Q381 -64 404 -64 Q419 -64 430.5 -71.5 Q442 -79 447 -91 Q452 -103 450.5 -118 Q449 -133 440 -148 L374 -256 L340 -238 Z " />
<glyph glyph-name="Hbar" unicode="&#x126;" horiz-adv-x="787" d="M842 512 L779 512 L707 0 L565 0 L609 313 L266 313 L222 0 L80 0 L152 512 L90 512 L101 590 L163 590 L183 734 L325 734 L305 590 L648 590 L668 735 L810 735 L790 590 L853 590 L842 512 Z M625 430 L637 512 L294 512 L282 430 L625 430 Z " />
<glyph glyph-name="Hcircumflex" unicode="&#x124;" horiz-adv-x="787" d="M80 0 L183 734 L325 734 L282 430 L625 430 L668 735 L810 735 L707 0 L565 0 L609 313 L266 313 L222 0 L80 0 Z M515 878 L413 787 L374 832 L529 968 L646 832 L595 787 L515 878 Z " />
<glyph glyph-name="Iacute" unicode="&#xcd;" horiz-adv-x="518" d="M147 617 L163 735 L561 735 L545 617 L417 617 L347 118 L475 118 L458 0 L60 0 L77 118 L205 118 L275 617 L147 617 Z M373 788 L344 821 L470 964 Q486 981 509 982 Q532 983 545 968 Q558 953 553.5 930 Q549 907 531 894 L373 788 Z " />
<glyph glyph-name="Ibreve" unicode="&#x12c;" horiz-adv-x="518" d="M147 617 L163 735 L561 735 L545 617 L417 617 L347 118 L475 118 L458 0 L60 0 L77 118 L205 118 L275 617 L147 617 Z M271 919 L349 919 L346 898 Q344 881 353.5 870 Q363 859 380 859 Q397 859 409.5 870 Q422 881 424 898 L427 919 L505 919 L503 904 Q500 880 488 858.5 Q476 837 457.5 821 Q439 805 416.5 796 Q394 787 370 787 Q346 787 325.5 796 Q305 805 291.5 821 Q278 837 272 858.5 Q266 880 269 904 L271 919 Z " />
<glyph glyph-name="Icircumflex" unicode="&#xce;" horiz-adv-x="518" d="M147 617 L163 735 L561 735 L545 617 L417 617 L347 118 L475 118 L458 0 L60 0 L77 118 L205 118 L275 617 L147 617 Z M381 878 L279 787 L240 832 L395 968 L512 832 L461 787 L381 878 Z " />
<glyph glyph-name="Idieresis" unicode="&#xcf;" horiz-adv-x="518" d="M147 617 L163 735 L561 735 L545 617 L417 617 L347 118 L475 118 L458 0 L60 0 L77 118 L205 118 L275 617 L147 617 Z M188 886 Q193 922 222 947.5 Q251 973 287 973 Q323 973 345 947.5 Q367 922 362 886 Q356 850 327 824.5 Q298 799 262 799 Q226 799 204 824.5 Q182 850 188 886 Z M406 886 Q411 922 440 947.5 Q469 973 505 973 Q541 973 563 947.5 Q585 922 580 886 Q574 850 545 824.5 Q516 799 480 799 Q444 799 422 824.5 Q400 850 406 886 Z " />
<glyph glyph-name="Idotaccent" unicode="&#x130;" horiz-adv-x="518" d="M147 617 L163 735 L561 735 L545 617 L417 617 L347 118 L475 118 L458 0 L60 0 L77 118 L205 118 L275 617 L147 617 Z M297 886 Q302 922 331 947.5 Q360 973 396 973 Q432 973 454 947.5 Q476 922 471 886 Q465 850 436 824.5 Q407 799 371 799 Q335 799 313 824.5 Q291 850 297 886 Z " />
<glyph glyph-name="Igrave" unicode="&#xcc;" horiz-adv-x="518" d="M147 617 L163 735 L561 735 L545 617 L417 617 L347 118 L475 118 L458 0 L60 0 L77 118 L205 118 L275 617 L147 617 Z M239 894 Q223 907 225.5 930 Q228 953 245 968 Q262 983 285 982 Q308 981 318 964 L404 821 L367 788 L239 894 Z " />
<glyph glyph-name="Imacron" unicode="&#x12a;" horiz-adv-x="518" d="M147 617 L163 735 L561 735 L545 617 L417 617 L347 118 L475 118 L458 0 L60 0 L77 118 L205 118 L275 617 L147 617 Z M527 799 L215 799 L226 877 L538 877 L527 799 Z " />
<glyph glyph-name="Iogonek" unicode="&#x12e;" horiz-adv-x="518" d="M193 -64 Q198 -29 219 0 L60 0 L77 118 L205 118 L275 617 L147 617 L163 735 L561 735 L545 617 L417 617 L347 118 L475 118 L458 0 L324 0 Q299 -2 280 -20.5 Q261 -39 257 -64 Q253 -91 269 -109.5 Q285 -128 312 -128 Q338 -128 359.5 -109.5 Q381 -91 385 -64 L449 -64 Q445 -91 432 -114 Q419 -137 399 -154.5 Q379 -172 354.5 -182 Q330 -192 303 -192 Q276 -192 254.5 -182 Q233 -172 218 -154.5 Q203 -137 196 -114 Q189 -91 193 -64 Z " />
<glyph glyph-name="Itilde" unicode="&#x128;" horiz-adv-x="518" d="M147 617 L163 735 L561 735 L545 617 L417 617 L347 118 L475 118 L458 0 L60 0 L77 118 L205 118 L275 617 L147 617 Z M447 931 Q471 931 488.5 922 Q506 913 518 898 Q530 883 535 864 Q540 845 537 824 L467 824 Q469 842 462 854 Q455 866 438 866 Q426 866 414 857.5 Q402 849 389 839.5 Q376 830 358.5 821.5 Q341 813 316 813 Q292 813 274 822 Q256 831 244.5 845.5 Q233 860 228 879 Q223 898 226 919 L296 919 Q294 901 301 889 Q308 877 325 877 Q337 877 349 885.5 Q361 894 374 904 Q387 914 404.5 922.5 Q422 931 447 931 Z " />
<glyph glyph-name="Jcircumflex" unicode="&#x134;" horiz-adv-x="496" d="M188 188 Q185 161 201.5 141.5 Q218 122 245 122 Q272 122 294.5 141.5 Q317 161 320 188 L397 735 L529 735 L452 188 Q447 147 426.5 111 Q406 75 375 48 Q344 21 306 5.5 Q268 -10 227 -10 Q186 -10 152 5.5 Q118 21 95 48 Q72 75 61.5 111 Q51 147 56 188 L188 188 Z M480 878 L378 787 L339 832 L494 968 L611 832 L560 787 L480 878 Z " />
<glyph glyph-name="Kcommaaccent" unicode="&#x136;" horiz-adv-x="736" d="M259 313 L215 0 L80 0 L183 735 L318 735 L275 430 L422 430 L641 735 L792 735 L534 374 L696 0 L545 0 L411 313 L259 313 Z M289 -238 L328 -174 Q308 -170 297.5 -155 Q287 -140 290 -120 Q293 -97 311.5 -80.5 Q330 -64 353 -64 Q368 -64 379.5 -71.5 Q391 -79 396 -91 Q401 -103 399.5 -118 Q398 -133 389 -148 L323 -256 L289 -238 Z " />
<glyph glyph-name="Lacute" unicode="&#x139;" horiz-adv-x="486" d="M466 0 L80 0 L183 735 L320 735 L234 118 L483 118 L466 0 Z M287 788 L258 821 L384 964 Q400 981 423 982 Q446 983 459 968 Q472 953 467.5 930 Q463 907 445 894 L287 788 Z " />
<glyph glyph-name="Lcaron" unicode="&#x13d;" horiz-adv-x="486" d="M466 0 L80 0 L183 735 L320 735 L234 118 L483 118 L466 0 Z M408 545 L469 645 Q439 651 422 675 Q405 699 410 731 Q415 767 444 792.5 Q473 818 509 818 Q533 818 550.5 806 Q568 794 576 775.5 Q584 757 582 733.5 Q580 710 565 686 L462 517 L408 545 Z " />
<glyph glyph-name="Lcommaaccent" unicode="&#x13b;" horiz-adv-x="486" d="M466 0 L80 0 L183 735 L320 735 L234 118 L483 118 L466 0 Z M194 -238 L233 -174 Q213 -170 202.5 -155 Q192 -140 195 -120 Q198 -97 216.5 -80.5 Q235 -64 258 -64 Q273 -64 284.5 -71.5 Q296 -79 301 -91 Q306 -103 304.5 -118 Q303 -133 294 -148 L228 -256 L194 -238 Z " />
<glyph glyph-name="Ldot" unicode="&#x13f;" horiz-adv-x="486" d="M466 0 L80 0 L183 735 L320 735 L234 118 L483 118 L466 0 Z M341 365 Q346 401 375.5 426.5 Q405 452 441 452 Q477 452 498.5 426.5 Q520 401 515 365 Q510 329 481 303.5 Q452 278 416 278 Q380 278 358 303.5 Q336 329 341 365 Z " />
<glyph glyph-name="Lslash" unicode="&#x141;" horiz-adv-x="486" d="M466 0 L80 0 L120 288 L50 270 L40 344 L132 367 L183 735 L320 735 L274 404 L355 425 L364 351 L263 324 L234 118 L483 118 L466 0 Z " />
<glyph glyph-name="Nacute" unicode="&#x143;" horiz-adv-x="803" d="M690 735 L826 735 L724 5 L711 -1 L278 441 L216 0 L80 0 L183 730 L194 735 L628 293 L690 735 Z M495 788 L466 821 L592 964 Q608 981 631 982 Q654 983 667 968 Q680 953 675.5 930 Q671 907 653 894 L495 788 Z " />
<glyph glyph-name="Ncaron" unicode="&#x147;" horiz-adv-x="803" d="M690 735 L826 735 L724 5 L711 -1 L278 441 L216 0 L80 0 L183 730 L194 735 L628 293 L690 735 Z M525 877 L628 968 L667 923 L512 787 L395 923 L446 968 L525 877 Z " />
<glyph glyph-name="Ncommaaccent" unicode="&#x145;" horiz-adv-x="803" d="M690 735 L826 735 L724 5 L711 -1 L278 441 L216 0 L80 0 L183 730 L194 735 L628 293 L690 735 Z M342 -238 L381 -174 Q361 -170 350.5 -155 Q340 -140 343 -120 Q346 -97 364.5 -80.5 Q383 -64 406 -64 Q421 -64 432.5 -71.5 Q444 -79 449 -91 Q454 -103 452.5 -118 Q451 -133 442 -148 L376 -256 L342 -238 Z " />
<glyph glyph-name="Ntilde" unicode="&#xd1;" horiz-adv-x="803" d="M690 735 L826 735 L724 5 L711 -1 L278 441 L216 0 L80 0 L183 730 L194 735 L628 293 L690 735 Z M589 931 Q613 931 630.5 922 Q648 913 660 898 Q672 883 677 864 Q682 845 679 824 L609 824 Q611 842 604 854 Q597 866 580 866 Q568 866 556 857.5 Q544 849 531 839.5 Q518 830 500.5 821.5 Q483 813 458 813 Q434 813 416 822 Q398 831 386.5 845.5 Q375 860 370 879 Q365 898 368 919 L438 919 Q436 901 443 889 Q450 877 467 877 Q479 877 491 885.5 Q503 894 516 904 Q529 914 546.5 922.5 Q564 931 589 931 Z " />
<glyph glyph-name="Oacute" unicode="&#xd3;" horiz-adv-x="848" d="M97 368 Q108 446 147.5 515 Q187 584 246 635.5 Q305 687 378 717 Q451 747 529 747 Q607 747 672 717 Q737 687 781 635.5 Q825 584 845.5 515 Q866 446 855 368 Q844 290 804 221 Q764 152 705.5 100.5 Q647 49 573.5 19 Q500 -11 422 -11 Q344 -11 279.5 19 Q215 49 170.5 100.5 Q126 152 106 221 Q86 290 97 368 Z M236 368 Q229 318 241.5 274.5 Q254 231 282 198.5 Q310 166 351 147 Q392 128 442 128 Q491 128 537.5 147 Q584 166 621 198.5 Q658 231 683.5 274.5 Q709 318 716 368 Q723 417 710 461 Q697 505 669 537.5 Q641 570 599.5 589 Q558 608 509 608 Q459 608 413 589 Q367 570 330 537.5 Q293 505 268 461 Q243 417 236 368 Z M538 788 L509 821 L635 964 Q651 981 674 982 Q697 983 710 968 Q723 953 718.5 930 Q714 907 696 894 L538 788 Z " />
<glyph glyph-name="Obreve" unicode="&#x14e;" horiz-adv-x="848" d="M97 368 Q108 446 147.5 515 Q187 584 246 635.5 Q305 687 378 717 Q451 747 529 747 Q607 747 672 717 Q737 687 781 635.5 Q825 584 845.5 515 Q866 446 855 368 Q844 290 804 221 Q764 152 705.5 100.5 Q647 49 573.5 19 Q500 -11 422 -11 Q344 -11 279.5 19 Q215 49 170.5 100.5 Q126 152 106 221 Q86 290 97 368 Z M236 368 Q229 318 241.5 274.5 Q254 231 282 198.5 Q310 166 351 147 Q392 128 442 128 Q491 128 537.5 147 Q584 166 621 198.5 Q658 231 683.5 274.5 Q709 318 716 368 Q723 417 710 461 Q697 505 669 537.5 Q641 570 599.5 589 Q558 608 509 608 Q459 608 413 589 Q367 570 330 537.5 Q293 505 268 461 Q243 417 236 368 Z M436 919 L514 919 L511 898 Q509 881 518.5 870 Q528 859 545 859 Q562 859 574.5 870 Q587 881 589 898 L592 919 L670 919 L668 904 Q665 880 653 858.5 Q641 837 622.5 821 Q604 805 581.5 796 Q559 787 535 787 Q511 787 490.5 796 Q470 805 456.5 821 Q443 837 437 858.5 Q431 880 434 904 L436 919 Z " />
<glyph glyph-name="Ocircumflex" unicode="&#xd4;" horiz-adv-x="848" d="M97 368 Q108 446 147.5 515 Q187 584 246 635.5 Q305 687 378 717 Q451 747 529 747 Q607 747 672 717 Q737 687 781 635.5 Q825 584 845.5 515 Q866 446 855 368 Q844 290 804 221 Q764 152 705.5 100.5 Q647 49 573.5 19 Q500 -11 422 -11 Q344 -11 279.5 19 Q215 49 170.5 100.5 Q126 152 106 221 Q86 290 97 368 Z M236 368 Q229 318 241.5 274.5 Q254 231 282 198.5 Q310 166 351 147 Q392 128 442 128 Q491 128 537.5 147 Q584 166 621 198.5 Q658 231 683.5 274.5 Q709 318 716 368 Q723 417 710 461 Q697 505 669 537.5 Q641 570 599.5 589 Q558 608 509 608 Q459 608 413 589 Q367 570 330 537.5 Q293 505 268 461 Q243 417 236 368 Z M546 878 L444 787 L405 832 L560 968 L677 832 L626 787 L546 878 Z " />
<glyph glyph-name="Odieresis" unicode="&#xd6;" horiz-adv-x="848" d="M97 368 Q108 446 147.5 515 Q187 584 246 635.5 Q305 687 378 717 Q451 747 529 747 Q607 747 672 717 Q737 687 781 635.5 Q825 584 845.5 515 Q866 446 855 368 Q844 290 804 221 Q764 152 705.5 100.5 Q647 49 573.5 19 Q500 -11 422 -11 Q344 -11 279.5 19 Q215 49 170.5 100.5 Q126 152 106 221 Q86 290 97 368 Z M236 368 Q229 318 241.5 274.5 Q254 231 282 198.5 Q310 166 351 147 Q392 128 442 128 Q491 128 537.5 147 Q584 166 621 198.5 Q658 231 683.5 274.5 Q709 318 716 368 Q723 417 710 461 Q697 505 669 537.5 Q641 570 599.5 589 Q558 608 509 608 Q459 608 413 589 Q367 570 330 537.5 Q293 505 268 461 Q243 417 236 368 Z M353 886 Q358 922 387 947.5 Q416 973 452 973 Q488 973 510 947.5 Q532 922 527 886 Q521 850 492 824.5 Q463 799 427 799 Q391 799 369 824.5 Q347 850 353 886 Z M571 886 Q576 922 605 947.5 Q634 973 670 973 Q706 973 728 947.5 Q750 922 745 886 Q739 850 710 824.5 Q681 799 645 799 Q609 799 587 824.5 Q565 850 571 886 Z " />
<glyph glyph-name="Ograve" unicode="&#xd2;" horiz-adv-x="848" d="M97 368 Q108 446 147.5 515 Q187 584 246 635.5 Q305 687 378 717 Q451 747 529 747 Q607 747 672 717 Q737 687 781 635.5 Q825 584 845.5 515 Q866 446 855 368 Q844 290 804 221 Q764 152 705.5 100.5 Q647 49 573.5 19 Q500 -11 422 -11 Q344 -11 279.5 19 Q215 49 170.5 100.5 Q126 152 106 221 Q86 290 97 368 Z M236 368 Q229 318 241.5 274.5 Q254 231 282 198.5 Q310 166 351 147 Q392 128 442 128 Q491 128 537.5 147 Q584 166 621 198.5 Q658 231 683.5 274.5 Q709 318 716 368 Q723 417 710 461 Q697 505 669 537.5 Q641 570 599.5 589 Q558 608 509 608 Q459 608 413 589 Q367 570 330 537.5 Q293 505 268 461 Q243 417 236 368 Z M404 894 Q388 907 390.5 930 Q393 953 410 968 Q427 983 450 982 Q473 981 483 964 L569 821 L532 788 L404 894 Z " />
<glyph glyph-name="Ohungarumlaut" unicode="&#x150;" horiz-adv-x="848" d="M97 368 Q108 446 147.5 515 Q187 584 246 635.5 Q305 687 378 717 Q451 747 529 747 Q607 747 672 717 Q737 687 781 635.5 Q825 584 845.5 515 Q866 446 855 368 Q844 290 804 221 Q764 152 705.5 100.5 Q647 49 573.5 19 Q500 -11 422 -11 Q344 -11 279.5 19 Q215 49 170.5 100.5 Q126 152 106 221 Q86 290 97 368 Z M236 368 Q229 318 241.5 274.5 Q254 231 282 198.5 Q310 166 351 147 Q392 128 442 128 Q491 128 537.5 147 Q584 166 621 198.5 Q658 231 683.5 274.5 Q709 318 716 368 Q723 417 710 461 Q697 505 669 537.5 Q641 570 599.5 589 Q558 608 509 608 Q459 608 413 589 Q367 570 330 537.5 Q293 505 268 461 Q243 417 236 368 Z M441 788 L412 821 L538 964 Q554 981 577 982 Q600 983 613 968 Q626 953 621.5 930 Q617 907 599 894 L441 788 Z M635 788 L606 821 L732 964 Q748 981 771 982 Q794 983 807 968 Q820 953 815.5 930 Q811 907 793 894 L635 788 Z " />
<glyph glyph-name="Omacron" unicode="&#x14c;" horiz-adv-x="848" d="M97 368 Q108 446 147.5 515 Q187 584 246 635.5 Q305 687 378 717 Q451 747 529 747 Q607 747 672 717 Q737 687 781 635.5 Q825 584 845.5 515 Q866 446 855 368 Q844 290 804 221 Q764 152 705.5 100.5 Q647 49 573.5 19 Q500 -11 422 -11 Q344 -11 279.5 19 Q215 49 170.5 100.5 Q126 152 106 221 Q86 290 97 368 Z M236 368 Q229 318 241.5 274.5 Q254 231 282 198.5 Q310 166 351 147 Q392 128 442 128 Q491 128 537.5 147 Q584 166 621 198.5 Q658 231 683.5 274.5 Q709 318 716 368 Q723 417 710 461 Q697 505 669 537.5 Q641 570 599.5 589 Q558 608 509 608 Q459 608 413 589 Q367 570 330 537.5 Q293 505 268 461 Q243 417 236 368 Z M692 799 L380 799 L391 877 L703 877 L692 799 Z " />
<glyph glyph-name="Oslashacute" unicode="&#x1fe;" horiz-adv-x="848" d="M97 368 Q108 446 147.5 515 Q187 584 246 635.5 Q305 687 378 717 Q451 747 529 747 Q590 747 642.5 728.5 Q695 710 737 677 L815 745 L892 655 L814 587 Q842 540 852.5 485 Q863 430 855 368 Q844 290 804 221 Q764 152 705.5 100.5 Q647 49 573.5 19 Q500 -11 422 -11 Q360 -11 307.5 7.5 Q255 26 212 59 L137 -7 L60 83 L135 149 Q109 196 98.5 251 Q88 306 97 368 Z M442 128 Q491 128 537.5 147 Q584 166 621 198.5 Q658 231 683.5 274.5 Q709 318 716 368 Q720 400 716 430.5 Q712 461 700 487 L327 160 Q376 128 442 128 Z M236 368 Q227 304 250 250 L622 576 Q598 591 569.5 599.5 Q541 608 509 608 Q459 608 413 589 Q367 570 330 537.5 Q293 505 268 461 Q243 417 236 368 Z M538 788 L509 821 L635 964 Q651 981 674 982 Q697 983 710 968 Q723 953 718.5 930 Q714 907 696 894 L538 788 Z " />
<glyph glyph-name="Otilde" unicode="&#xd5;" horiz-adv-x="848" d="M97 368 Q108 446 147.5 515 Q187 584 246 635.5 Q305 687 378 717 Q451 747 529 747 Q607 747 672 717 Q737 687 781 635.5 Q825 584 845.5 515 Q866 446 855 368 Q844 290 804 221 Q764 152 705.5 100.5 Q647 49 573.5 19 Q500 -11 422 -11 Q344 -11 279.5 19 Q215 49 170.5 100.5 Q126 152 106 221 Q86 290 97 368 Z M236 368 Q229 318 241.5 274.5 Q254 231 282 198.5 Q310 166 351 147 Q392 128 442 128 Q491 128 537.5 147 Q584 166 621 198.5 Q658 231 683.5 274.5 Q709 318 716 368 Q723 417 710 461 Q697 505 669 537.5 Q641 570 599.5 589 Q558 608 509 608 Q459 608 413 589 Q367 570 330 537.5 Q293 505 268 461 Q243 417 236 368 Z M612 931 Q636 931 653.5 922 Q671 913 683 898 Q695 883 700 864 Q705 845 702 824 L632 824 Q634 842 627 854 Q620 866 603 866 Q591 866 579 857.5 Q567 849 554 839.5 Q541 830 523.5 821.5 Q506 813 481 813 Q457 813 439 822 Q421 831 409.5 845.5 Q398 860 393 879 Q388 898 391 919 L461 919 Q459 901 466 889 Q473 877 490 877 Q502 877 514 885.5 Q526 894 539 904 Q552 914 569.5 922.5 Q587 931 612 931 Z " />
<glyph glyph-name="Racute" unicode="&#x154;" horiz-adv-x="671" d="M216 0 L80 0 L183 735 L498 735 Q546 735 585.5 717 Q625 699 652 667.5 Q679 636 691.5 594 Q704 552 697 504 Q688 438 648 384.5 Q608 331 549 301 L618 0 L474 0 L413 274 L255 274 L216 0 Z M435 391 Q459 391 480.5 400 Q502 409 519.5 424.5 Q537 440 549 460.5 Q561 481 564 504 Q567 528 561 548.5 Q555 569 542 584 Q529 599 510 608 Q491 617 467 617 L303 617 L271 391 L435 391 Z M379 788 L350 821 L476 964 Q492 981 515 982 Q538 983 551 968 Q564 953 559.5 930 Q555 907 537 894 L379 788 Z " />
<glyph glyph-name="Rcaron" unicode="&#x158;" horiz-adv-x="671" d="M216 0 L80 0 L183 735 L498 735 Q546 735 585.5 717 Q625 699 652 667.5 Q679 636 691.5 594 Q704 552 697 504 Q688 438 648 384.5 Q608 331 549 301 L618 0 L474 0 L413 274 L255 274 L216 0 Z M435 391 Q459 391 480.5 400 Q502 409 519.5 424.5 Q537 440 549 460.5 Q561 481 564 504 Q567 528 561 548.5 Q555 569 542 584 Q529 599 510 608 Q491 617 467 617 L303 617 L271 391 L435 391 Z M459 877 L562 968 L601 923 L446 787 L329 923 L380 968 L459 877 Z " />
<glyph glyph-name="Rcommaaccent" unicode="&#x156;" horiz-adv-x="671" d="M216 0 L80 0 L183 735 L498 735 Q546 735 585.5 717 Q625 699 652 667.5 Q679 636 691.5 594 Q704 552 697 504 Q688 438 648 384.5 Q608 331 549 301 L618 0 L474 0 L413 274 L255 274 L216 0 Z M435 391 Q459 391 480.5 400 Q502 409 519.5 424.5 Q537 440 549 460.5 Q561 481 564 504 Q567 528 561 548.5 Q555 569 542 584 Q529 599 510 608 Q491 617 467 617 L303 617 L271 391 L435 391 Z M256 -238 L295 -174 Q275 -170 264.5 -155 Q254 -140 257 -120 Q260 -97 278.5 -80.5 Q297 -64 320 -64 Q335 -64 346.5 -71.5 Q358 -79 363 -91 Q368 -103 366.5 -118 Q365 -133 356 -148 L290 -256 L256 -238 Z " />
<glyph glyph-name="Sacute" unicode="&#x15a;" horiz-adv-x="612" d="M315 -16 Q268 -16 228 -6 Q188 4 155.5 21 Q123 38 100 59.5 Q77 81 66 105 L178 187 Q198 158 238.5 136.5 Q279 115 334 115 Q390 115 420.5 136 Q451 157 455 187 Q459 215 445.5 235 Q432 255 392 273 L269 332 Q183 373 150 425.5 Q117 478 127 548 Q133 592 156.5 629.5 Q180 667 216.5 694 Q253 721 301.5 736.5 Q350 752 406 752 Q471 752 516 731.5 Q561 711 588.5 678.5 Q616 646 625.5 605 Q635 564 630 524 L497 524 Q497 530 494.5 546.5 Q492 563 481 580 Q470 597 448 610 Q426 623 388 623 Q337 623 305.5 601.5 Q274 580 269 548 Q265 519 282.5 500 Q300 481 329 466 L456 404 Q538 364 573.5 313 Q609 262 598 187 Q591 136 565 98 Q539 60 500.5 34.5 Q462 9 414 -3.5 Q366 -16 315 -16 Z M410 788 L381 821 L507 964 Q523 981 546 982 Q569 983 582 968 Q595 953 590.5 930 Q586 907 568 894 L410 788 Z " />
<glyph glyph-name="Scaron" unicode="&#x160;" horiz-adv-x="612" d="M315 -16 Q268 -16 228 -6 Q188 4 155.5 21 Q123 38 100 59.5 Q77 81 66 105 L178 187 Q198 158 238.5 136.5 Q279 115 334 115 Q390 115 420.5 136 Q451 157 455 187 Q459 215 445.5 235 Q432 255 392 273 L269 332 Q183 373 150 425.5 Q117 478 127 548 Q133 592 156.5 629.5 Q180 667 216.5 694 Q253 721 301.5 736.5 Q350 752 406 752 Q471 752 516 731.5 Q561 711 588.5 678.5 Q616 646 625.5 605 Q635 564 630 524 L497 524 Q497 530 494.5 546.5 Q492 563 481 580 Q470 597 448 610 Q426 623 388 623 Q337 623 305.5 601.5 Q274 580 269 548 Q265 519 282.5 500 Q300 481 329 466 L456 404 Q538 364 573.5 313 Q609 262 598 187 Q591 136 565 98 Q539 60 500.5 34.5 Q462 9 414 -3.5 Q366 -16 315 -16 Z M430 877 L533 968 L572 923 L417 787 L300 923 L351 968 L430 877 Z " />
<glyph glyph-name="Scedilla" unicode="&#x15e;" horiz-adv-x="612" d="M395 -126 Q390 -166 358 -194 Q326 -222 286 -222 Q266 -222 250 -214.5 Q234 -207 222 -194 L274 -150 Q283 -158 295 -158 Q309 -158 319 -149 Q329 -140 331 -126 Q333 -112 325.5 -103 Q318 -94 304 -94 Q290 -94 280 -103 L241 -58 Q259 -41 280 -35 L283 -14 Q201 -7 144 27 Q87 61 66 105 L178 187 Q198 158 238.5 136.5 Q279 115 334 115 Q390 115 420.5 136 Q451 157 455 187 Q459 215 445.5 235 Q432 255 392 273 L269 332 Q183 373 150 425.5 Q117 478 127 548 Q133 592 156.5 629.5 Q180 667 216.5 694 Q253 721 301.5 736.5 Q350 752 406 752 Q471 752 516 731.5 Q561 711 588.5 678.5 Q616 646 625.5 605 Q635 564 630 524 L497 524 Q497 530 494.5 546.5 Q492 563 481 580 Q470 597 448 610 Q426 623 388 623 Q337 623 305.5 601.5 Q274 580 269 548 Q265 519 282.5 500 Q300 481 329 466 L456 404 Q538 364 573.5 313 Q609 262 598 187 Q592 140 569.5 104 Q547 68 513 43 Q479 18 436 3.5 Q393 -11 347 -15 L344 -35 Q371 -45 385.5 -69.5 Q400 -94 395 -126 Z " />
<glyph glyph-name="Scircumflex" unicode="&#x15c;" horiz-adv-x="612" d="M315 -16 Q268 -16 228 -6 Q188 4 155.5 21 Q123 38 100 59.5 Q77 81 66 105 L178 187 Q198 158 238.5 136.5 Q279 115 334 115 Q390 115 420.5 136 Q451 157 455 187 Q459 215 445.5 235 Q432 255 392 273 L269 332 Q183 373 150 425.5 Q117 478 127 548 Q133 592 156.5 629.5 Q180 667 216.5 694 Q253 721 301.5 736.5 Q350 752 406 752 Q471 752 516 731.5 Q561 711 588.5 678.5 Q616 646 625.5 605 Q635 564 630 524 L497 524 Q497 530 494.5 546.5 Q492 563 481 580 Q470 597 448 610 Q426 623 388 623 Q337 623 305.5 601.5 Q274 580 269 548 Q265 519 282.5 500 Q300 481 329 466 L456 404 Q538 364 573.5 313 Q609 262 598 187 Q591 136 565 98 Q539 60 500.5 34.5 Q462 9 414 -3.5 Q366 -16 315 -16 Z M428 878 L326 787 L287 832 L442 968 L559 832 L508 787 L428 878 Z " />
<glyph glyph-name="Scommaaccent" unicode="&#x218;" horiz-adv-x="612" d="M315 -16 Q268 -16 228 -6 Q188 4 155.5 21 Q123 38 100 59.5 Q77 81 66 105 L178 187 Q198 158 238.5 136.5 Q279 115 334 115 Q390 115 420.5 136 Q451 157 455 187 Q459 215 445.5 235 Q432 255 392 273 L269 332 Q183 373 150 425.5 Q117 478 127 548 Q133 592 156.5 629.5 Q180 667 216.5 694 Q253 721 301.5 736.5 Q350 752 406 752 Q471 752 516 731.5 Q561 711 588.5 678.5 Q616 646 625.5 605 Q635 564 630 524 L497 524 Q497 530 494.5 546.5 Q492 563 481 580 Q470 597 448 610 Q426 623 388 623 Q337 623 305.5 601.5 Q274 580 269 548 Q265 519 282.5 500 Q300 481 329 466 L456 404 Q538 364 573.5 313 Q609 262 598 187 Q591 136 565 98 Q539 60 500.5 34.5 Q462 9 414 -3.5 Q366 -16 315 -16 Z M233 -238 L272 -174 Q252 -170 241.5 -155 Q231 -140 234 -120 Q237 -97 255.5 -80.5 Q274 -64 297 -64 Q312 -64 323.5 -71.5 Q335 -79 340 -91 Q345 -103 343.5 -118 Q342 -133 333 -148 L267 -256 L233 -238 Z " />
<glyph glyph-name="Tbar" unicode="&#x166;" horiz-adv-x="562" d="M648 734 L632 617 L436 617 L418 490 L496 510 L505 436 L407 410 L349 0 L213 0 L266 374 L191 355 L181 429 L277 453 L300 617 L104 617 L120 734 L648 734 Z " />
<glyph glyph-name="Tcaron" unicode="&#x164;" horiz-adv-x="562" d="M648 734 L632 617 L436 617 L349 0 L213 0 L300 617 L104 617 L120 734 L648 734 Z M405 877 L508 968 L547 923 L392 787 L275 923 L326 968 L405 877 Z " />
<glyph glyph-name="Tcommaaccent" unicode="&#x162;" horiz-adv-x="562" d="M648 734 L632 617 L436 617 L349 0 L213 0 L300 617 L104 617 L120 734 L648 734 Z M202 -238 L241 -174 Q221 -170 210.5 -155 Q200 -140 203 -120 Q206 -97 224.5 -80.5 Q243 -64 266 -64 Q281 -64 292.5 -71.5 Q304 -79 309 -91 Q314 -103 312.5 -118 Q311 -133 302 -148 L236 -256 L202 -238 Z " />
<glyph glyph-name="Uacute" unicode="&#xda;" horiz-adv-x="760" d="M233 319 Q227 275 236.5 238 Q246 201 268.5 175 Q291 149 324 134.5 Q357 120 397 120 Q437 120 474 134.5 Q511 149 540.5 175 Q570 201 590.5 238 Q611 275 617 319 L675 735 L813 735 L755 319 Q745 250 710.5 190 Q676 130 625 85.5 Q574 41 510 15 Q446 -11 378 -11 Q310 -11 254 15 Q198 41 159 85.5 Q120 130 102.5 190 Q85 250 95 319 L153 735 L291 735 L233 319 Z M484 788 L455 821 L581 964 Q597 981 620 982 Q643 983 656 968 Q669 953 664.5 930 Q660 907 642 894 L484 788 Z " />
<glyph glyph-name="Ubreve" unicode="&#x16c;" horiz-adv-x="760" d="M233 319 Q227 275 236.5 238 Q246 201 268.5 175 Q291 149 324 134.5 Q357 120 397 120 Q437 120 474 134.5 Q511 149 540.5 175 Q570 201 590.5 238 Q611 275 617 319 L675 735 L813 735 L755 319 Q745 250 710.5 190 Q676 130 625 85.5 Q574 41 510 15 Q446 -11 378 -11 Q310 -11 254 15 Q198 41 159 85.5 Q120 130 102.5 190 Q85 250 95 319 L153 735 L291 735 L233 319 Z M392 919 L470 919 L467 898 Q465 881 474.5 870 Q484 859 501 859 Q518 859 530.5 870 Q543 881 545 898 L548 919 L626 919 L624 904 Q621 880 609 858.5 Q597 837 578.5 821 Q560 805 537.5 796 Q515 787 491 787 Q467 787 446.5 796 Q426 805 412.5 821 Q399 837 393 858.5 Q387 880 390 904 L392 919 Z " />
<glyph glyph-name="Ucircumflex" unicode="&#xdb;" horiz-adv-x="760" d="M233 319 Q227 275 236.5 238 Q246 201 268.5 175 Q291 149 324 134.5 Q357 120 397 120 Q437 120 474 134.5 Q511 149 540.5 175 Q570 201 590.5 238 Q611 275 617 319 L675 735 L813 735 L755 319 Q745 250 710.5 190 Q676 130 625 85.5 Q574 41 510 15 Q446 -11 378 -11 Q310 -11 254 15 Q198 41 159 85.5 Q120 130 102.5 190 Q85 250 95 319 L153 735 L291 735 L233 319 Z M502 878 L400 787 L361 832 L516 968 L633 832 L582 787 L502 878 Z " />
<glyph glyph-name="Udieresis" unicode="&#xdc;" horiz-adv-x="760" d="M233 319 Q227 275 236.5 238 Q246 201 268.5 175 Q291 149 324 134.5 Q357 120 397 120 Q437 120 474 134.5 Q511 149 540.5 175 Q570 201 590.5 238 Q611 275 617 319 L675 735 L813 735 L755 319 Q745 250 710.5 190 Q676 130 625 85.5 Q574 41 510 15 Q446 -11 378 -11 Q310 -11 254 15 Q198 41 159 85.5 Q120 130 102.5 190 Q85 250 95 319 L153 735 L291 735 L233 319 Z M309 886 Q314 922 343 947.5 Q372 973 408 973 Q444 973 466 947.5 Q488 922 483 886 Q477 850 448 824.5 Q419 799 383 799 Q347 799 325 824.5 Q303 850 309 886 Z M527 886 Q532 922 561 947.5 Q590 973 626 973 Q662 973 684 947.5 Q706 922 701 886 Q695 850 666 824.5 Q637 799 601 799 Q565 799 543 824.5 Q521 850 527 886 Z " />
<glyph glyph-name="Ugrave" unicode="&#xd9;" horiz-adv-x="760" d="M233 319 Q227 275 236.5 238 Q246 201 268.5 175 Q291 149 324 134.5 Q357 120 397 120 Q437 120 474 134.5 Q511 149 540.5 175 Q570 201 590.5 238 Q611 275 617 319 L675 735 L813 735 L755 319 Q745 250 710.5 190 Q676 130 625 85.5 Q574 41 510 15 Q446 -11 378 -11 Q310 -11 254 15 Q198 41 159 85.5 Q120 130 102.5 190 Q85 250 95 319 L153 735 L291 735 L233 319 Z M370 894 Q354 907 356.5 930 Q359 953 376 968 Q393 983 416 982 Q439 981 449 964 L535 821 L498 788 L370 894 Z " />
<glyph glyph-name="Uhungarumlaut" unicode="&#x170;" horiz-adv-x="760" d="M233 319 Q227 275 236.5 238 Q246 201 268.5 175 Q291 149 324 134.5 Q357 120 397 120 Q437 120 474 134.5 Q511 149 540.5 175 Q570 201 590.5 238 Q611 275 617 319 L675 735 L813 735 L755 319 Q745 250 710.5 190 Q676 130 625 85.5 Q574 41 510 15 Q446 -11 378 -11 Q310 -11 254 15 Q198 41 159 85.5 Q120 130 102.5 190 Q85 250 95 319 L153 735 L291 735 L233 319 Z M387 788 L358 821 L484 964 Q500 981 523 982 Q546 983 559 968 Q572 953 567.5 930 Q563 907 545 894 L387 788 Z M581 788 L552 821 L678 964 Q694 981 717 982 Q740 983 753 968 Q766 953 761.5 930 Q757 907 739 894 L581 788 Z " />
<glyph glyph-name="Umacron" unicode="&#x16a;" horiz-adv-x="760" d="M233 319 Q227 275 236.5 238 Q246 201 268.5 175 Q291 149 324 134.5 Q357 120 397 120 Q437 120 474 134.5 Q511 149 540.5 175 Q570 201 590.5 238 Q611 275 617 319 L675 735 L813 735 L755 319 Q745 250 710.5 190 Q676 130 625 85.5 Q574 41 510 15 Q446 -11 378 -11 Q310 -11 254 15 Q198 41 159 85.5 Q120 130 102.5 190 Q85 250 95 319 L153 735 L291 735 L233 319 Z M648 799 L336 799 L347 877 L659 877 L648 799 Z " />
<glyph glyph-name="Uogonek" unicode="&#x172;" horiz-adv-x="760" d="M241 -75 Q248 -29 280 4 Q232 20 194 50.5 Q156 81 131.5 122 Q107 163 97 213 Q87 263 95 319 L153 735 L291 735 L233 319 Q227 275 236.5 238 Q246 201 268.5 175 Q291 149 324 134.5 Q357 120 397 120 Q437 120 474 134.5 Q511 149 540.5 175 Q570 201 590.5 238 Q611 275 617 319 L675 735 L813 735 L755 319 Q745 250 710.5 190 Q676 130 625 85.5 Q574 41 510 15 Q446 -11 378 -11 Q351 -11 330 -30 Q309 -49 305 -75 Q302 -102 317.5 -120.5 Q333 -139 360 -139 Q386 -139 408 -120.5 Q430 -102 433 -75 L497 -75 Q494 -102 480.5 -125 Q467 -148 447 -165.5 Q427 -183 402.5 -193 Q378 -203 351 -203 Q324 -203 302.5 -193 Q281 -183 266 -165.5 Q251 -148 244.5 -125 Q238 -102 241 -75 Z " />
<glyph glyph-name="Uring" unicode="&#x16e;" horiz-adv-x="760" d="M233 319 Q227 275 236.5 238 Q246 201 268.5 175 Q291 149 324 134.5 Q357 120 397 120 Q437 120 474 134.5 Q511 149 540.5 175 Q570 201 590.5 238 Q611 275 617 319 L675 735 L813 735 L755 319 Q745 250 710.5 190 Q676 130 625 85.5 Q574 41 510 15 Q446 -11 378 -11 Q310 -11 254 15 Q198 41 159 85.5 Q120 130 102.5 190 Q85 250 95 319 L153 735 L291 735 L233 319 Z M410 895 Q415 935 447 963 Q479 991 519 991 Q559 991 583 963 Q607 935 602 895 Q596 855 564 827 Q532 799 492 799 Q452 799 428 827 Q404 855 410 895 Z M474 895 Q472 881 479.5 872 Q487 863 501 863 Q515 863 525.5 872 Q536 881 538 895 Q540 909 532 918 Q524 927 510 927 Q496 927 486 918 Q476 909 474 895 Z " />
<glyph glyph-name="Utilde" unicode="&#x168;" horiz-adv-x="760" d="M233 319 Q227 275 236.5 238 Q246 201 268.5 175 Q291 149 324 134.5 Q357 120 397 120 Q437 120 474 134.5 Q511 149 540.5 175 Q570 201 590.5 238 Q611 275 617 319 L675 735 L813 735 L755 319 Q745 250 710.5 190 Q676 130 625 85.5 Q574 41 510 15 Q446 -11 378 -11 Q310 -11 254 15 Q198 41 159 85.5 Q120 130 102.5 190 Q85 250 95 319 L153 735 L291 735 L233 319 Z M568 931 Q592 931 609.5 922 Q627 913 639 898 Q651 883 656 864 Q661 845 658 824 L588 824 Q590 842 583 854 Q576 866 559 866 Q547 866 535 857.5 Q523 849 510 839.5 Q497 830 479.5 821.5 Q462 813 437 813 Q413 813 395 822 Q377 831 365.5 845.5 Q354 860 349 879 Q344 898 347 919 L417 919 Q415 901 422 889 Q429 877 446 877 Q458 877 470 885.5 Q482 894 495 904 Q508 914 525.5 922.5 Q543 931 568 931 Z " />
<glyph glyph-name="Yacute" unicode="&#xdd;" horiz-adv-x="573" d="M223 0 L253 212 L113 735 L258 735 L343 400 L522 735 L666 735 L381 212 L351 0 L223 0 Z M400 788 L371 821 L497 964 Q513 981 536 982 Q559 983 572 968 Q585 953 580.5 930 Q576 907 558 894 L400 788 Z " />
<glyph glyph-name="Ycircumflex" unicode="&#x176;" horiz-adv-x="573" d="M223 0 L253 212 L113 735 L258 735 L343 400 L522 735 L666 735 L381 212 L351 0 L223 0 Z M408 878 L306 787 L267 832 L422 968 L539 832 L488 787 L408 878 Z " />
<glyph glyph-name="Ydieresis" unicode="&#x178;" horiz-adv-x="573" d="M223 0 L253 212 L113 735 L258 735 L343 400 L522 735 L666 735 L381 212 L351 0 L223 0 Z M215 886 Q220 922 249 947.5 Q278 973 314 973 Q350 973 372 947.5 Q394 922 389 886 Q383 850 354 824.5 Q325 799 289 799 Q253 799 231 824.5 Q209 850 215 886 Z M433 886 Q438 922 467 947.5 Q496 973 532 973 Q568 973 590 947.5 Q612 922 607 886 Q601 850 572 824.5 Q543 799 507 799 Q471 799 449 824.5 Q427 850 433 886 Z " />
<glyph glyph-name="Ygrave" unicode="&#x1ef2;" horiz-adv-x="573" d="M223 0 L253 212 L113 735 L258 735 L343 400 L522 735 L666 735 L381 212 L351 0 L223 0 Z M266 894 Q250 907 252.5 930 Q255 953 272 968 Q289 983 312 982 Q335 981 345 964 L431 821 L394 788 L266 894 Z " />
<glyph glyph-name="Zacute" unicode="&#x179;" horiz-adv-x="617" d="M116 313 L132 430 L332 430 L464 617 L139 617 L155 735 L659 735 L672 709 L478 430 L605 430 L589 313 L397 313 L263 118 L582 118 L565 0 L61 0 L49 26 L250 313 L116 313 Z M422 788 L393 821 L519 964 Q535 981 558 982 Q581 983 594 968 Q607 953 602.5 930 Q598 907 580 894 L422 788 Z " />
<glyph glyph-name="Zcaron" unicode="&#x17d;" horiz-adv-x="617" d="M116 313 L132 430 L332 430 L464 617 L139 617 L155 735 L659 735 L672 709 L478 430 L605 430 L589 313 L397 313 L263 118 L582 118 L565 0 L61 0 L49 26 L250 313 L116 313 Z M432 877 L535 968 L574 923 L419 787 L302 923 L353 968 L432 877 Z " />
<glyph glyph-name="Zdotaccent" unicode="&#x17b;" horiz-adv-x="617" d="M116 313 L132 430 L332 430 L464 617 L139 617 L155 735 L659 735 L672 709 L478 430 L605 430 L589 313 L397 313 L263 118 L582 118 L565 0 L61 0 L49 26 L250 313 L116 313 Z M346 886 Q351 922 380 947.5 Q409 973 445 973 Q481 973 503 947.5 Q525 922 520 886 Q514 850 485 824.5 Q456 799 420 799 Q384 799 362 824.5 Q340 850 346 886 Z " />
<glyph glyph-name="aacute" unicode="&#xe1;" horiz-adv-x="582" d="M395 64 Q366 31 322.5 10 Q279 -11 227 -11 Q183 -11 151 2 Q119 15 98.5 37.5 Q78 60 70 90 Q62 120 67 153 Q71 185 87.5 213 Q104 241 133 262 Q162 283 203 295.5 Q244 308 299 308 L429 308 L430 313 Q436 353 415.5 378 Q395 403 347 403 Q315 403 285 389.5 Q255 376 231 351 L155 425 Q192 464 246 492.5 Q300 521 363 522 Q417 522 456.5 505.5 Q496 489 520 460.5 Q544 432 553 394 Q562 356 556 313 L512 0 L386 0 L395 64 Z M198 153 Q194 128 214.5 112.5 Q235 97 270 97 Q293 97 317 105 Q341 113 362 127.5 Q383 142 397.5 162 Q412 182 415 206 L285 206 Q243 206 222 191 Q201 176 198 153 Z M373 565 L345 598 L471 741 Q487 758 510 759 Q533 760 546 745 Q559 730 554.5 707 Q550 684 531 671 L373 565 Z " />
<glyph glyph-name="abreve" unicode="&#x103;" horiz-adv-x="582" d="M395 64 Q366 31 322.5 10 Q279 -11 227 -11 Q183 -11 151 2 Q119 15 98.5 37.5 Q78 60 70 90 Q62 120 67 153 Q71 185 87.5 213 Q104 241 133 262 Q162 283 203 295.5 Q244 308 299 308 L429 308 L430 313 Q436 353 415.5 378 Q395 403 347 403 Q315 403 285 389.5 Q255 376 231 351 L155 425 Q192 464 246 492.5 Q300 521 363 522 Q417 522 456.5 505.5 Q496 489 520 460.5 Q544 432 553 394 Q562 356 556 313 L512 0 L386 0 L395 64 Z M198 153 Q194 128 214.5 112.5 Q235 97 270 97 Q293 97 317 105 Q341 113 362 127.5 Q383 142 397.5 162 Q412 182 415 206 L285 206 Q243 206 222 191 Q201 176 198 153 Z M272 696 L350 696 L347 675 Q344 658 353.5 647 Q363 636 380 636 Q397 636 409.5 647 Q422 658 425 675 L428 696 L506 696 L504 681 Q500 657 488 635.5 Q476 614 458 598 Q440 582 417 573 Q394 564 370 564 Q346 564 326 573 Q306 582 292 598 Q278 614 272 635.5 Q266 657 270 681 L272 696 Z " />
<glyph glyph-name="acircumflex" unicode="&#xe2;" horiz-adv-x="582" d="M395 64 Q366 31 322.5 10 Q279 -11 227 -11 Q183 -11 151 2 Q119 15 98.5 37.5 Q78 60 70 90 Q62 120 67 153 Q71 185 87.5 213 Q104 241 133 262 Q162 283 203 295.5 Q244 308 299 308 L429 308 L430 313 Q436 353 415.5 378 Q395 403 347 403 Q315 403 285 389.5 Q255 376 231 351 L155 425 Q192 464 246 492.5 Q300 521 363 522 Q417 522 456.5 505.5 Q496 489 520 460.5 Q544 432 553 394 Q562 356 556 313 L512 0 L386 0 L395 64 Z M198 153 Q194 128 214.5 112.5 Q235 97 270 97 Q293 97 317 105 Q341 113 362 127.5 Q383 142 397.5 162 Q412 182 415 206 L285 206 Q243 206 222 191 Q201 176 198 153 Z M382 655 L279 564 L241 609 L396 745 L513 609 L461 564 L382 655 Z " />
<glyph glyph-name="adieresis" unicode="&#xe4;" horiz-adv-x="582" d="M395 64 Q366 31 322.5 10 Q279 -11 227 -11 Q183 -11 151 2 Q119 15 98.5 37.5 Q78 60 70 90 Q62 120 67 153 Q71 185 87.5 213 Q104 241 133 262 Q162 283 203 295.5 Q244 308 299 308 L429 308 L430 313 Q436 353 415.5 378 Q395 403 347 403 Q315 403 285 389.5 Q255 376 231 351 L155 425 Q192 464 246 492.5 Q300 521 363 522 Q417 522 456.5 505.5 Q496 489 520 460.5 Q544 432 553 394 Q562 356 556 313 L512 0 L386 0 L395 64 Z M198 153 Q194 128 214.5 112.5 Q235 97 270 97 Q293 97 317 105 Q341 113 362 127.5 Q383 142 397.5 162 Q412 182 415 206 L285 206 Q243 206 222 191 Q201 176 198 153 Z M188 663 Q193 699 222 724.5 Q251 750 287 750 Q323 750 345 724.5 Q367 699 362 663 Q357 627 328 601.5 Q299 576 263 576 Q227 576 205 601.5 Q183 627 188 663 Z M406 663 Q411 699 440 724.5 Q469 750 505 750 Q541 750 563 724.5 Q585 699 580 663 Q575 627 546 601.5 Q517 576 481 576 Q445 576 423 601.5 Q401 627 406 663 Z " />
<glyph glyph-name="agrave" unicode="&#xe0;" horiz-adv-x="582" d="M395 64 Q366 31 322.5 10 Q279 -11 227 -11 Q183 -11 151 2 Q119 15 98.5 37.5 Q78 60 70 90 Q62 120 67 153 Q71 185 87.5 213 Q104 241 133 262 Q162 283 203 295.5 Q244 308 299 308 L429 308 L430 313 Q436 353 415.5 378 Q395 403 347 403 Q315 403 285 389.5 Q255 376 231 351 L155 425 Q192 464 246 492.5 Q300 521 363 522 Q417 522 456.5 505.5 Q496 489 520 460.5 Q544 432 553 394 Q562 356 556 313 L512 0 L386 0 L395 64 Z M198 153 Q194 128 214.5 112.5 Q235 97 270 97 Q293 97 317 105 Q341 113 362 127.5 Q383 142 397.5 162 Q412 182 415 206 L285 206 Q243 206 222 191 Q201 176 198 153 Z M249 671 Q234 684 236.5 707 Q239 730 256 745 Q273 760 296 759 Q319 758 329 741 L415 598 L377 565 L249 671 Z " />
<glyph glyph-name="amacron" unicode="&#x101;" horiz-adv-x="582" d="M395 64 Q366 31 322.5 10 Q279 -11 227 -11 Q183 -11 151 2 Q119 15 98.5 37.5 Q78 60 70 90 Q62 120 67 153 Q71 185 87.5 213 Q104 241 133 262 Q162 283 203 295.5 Q244 308 299 308 L429 308 L430 313 Q436 353 415.5 378 Q395 403 347 403 Q315 403 285 389.5 Q255 376 231 351 L155 425 Q192 464 246 492.5 Q300 521 363 522 Q417 522 456.5 505.5 Q496 489 520 460.5 Q544 432 553 394 Q562 356 556 313 L512 0 L386 0 L395 64 Z M198 153 Q194 128 214.5 112.5 Q235 97 270 97 Q293 97 317 105 Q341 113 362 127.5 Q383 142 397.5 162 Q412 182 415 206 L285 206 Q243 206 222 191 Q201 176 198 153 Z M528 576 L216 576 L227 654 L539 654 L528 576 Z " />
<glyph glyph-name="aogonek" unicode="&#x105;" horiz-adv-x="582" d="M395 64 Q366 31 322.5 10 Q279 -11 227 -11 L221 -11 Q194 -11 173 -30 Q152 -49 148 -75 Q145 -102 160.5 -120.5 Q176 -139 203 -139 Q229 -139 251 -120.5 Q273 -102 276 -75 L340 -75 Q337 -102 323.5 -125 Q310 -148 290 -165.5 Q270 -183 245.5 -193 Q221 -203 194 -203 Q167 -203 145.5 -193 Q124 -183 109 -165.5 Q94 -148 87.5 -125 Q81 -102 84 -75 Q88 -49 100 -27 Q112 -5 131 12 Q93 34 76.5 71 Q60 108 67 153 Q71 185 87.5 213 Q104 241 133 262 Q162 283 203 295.5 Q244 308 299 308 L429 308 L430 313 Q436 353 415.5 378 Q395 403 347 403 Q315 403 285 389.5 Q255 376 231 351 L155 425 Q172 444 195.5 461.5 Q219 479 246 492.5 Q273 506 302.5 514 Q332 522 363 522 Q417 522 456.5 505.5 Q496 489 520 460.5 Q544 432 553 394 Q562 356 556 313 L512 0 L386 0 L395 64 Z M198 153 Q194 128 214.5 112.5 Q235 97 270 97 Q293 97 317 105 Q341 113 362 127.5 Q383 142 397.5 162 Q412 182 415 206 L285 206 Q243 206 222 191 Q201 176 198 153 Z " />
<glyph glyph-name="aring" unicode="&#xe5;" horiz-adv-x="582" d="M395 64 Q366 31 322.5 10 Q279 -11 227 -11 Q183 -11 151 2 Q119 15 98.5 37.5 Q78 60 70 90 Q62 120 67 153 Q71 185 87.5 213 Q104 241 133 262 Q162 283 203 295.5 Q244 308 299 308 L429 308 L430 313 Q436 353 415.5 378 Q395 403 347 403 Q315 403 285 389.5 Q255 376 231 351 L155 425 Q192 464 246 492.5 Q300 521 363 522 Q417 522 456.5 505.5 Q496 489 520 460.5 Q544 432 553 394 Q562 356 556 313 L512 0 L386 0 L395 64 Z M198 153 Q194 128 214.5 112.5 Q235 97 270 97 Q293 97 317 105 Q341 113 362 127.5 Q383 142 397.5 162 Q412 182 415 206 L285 206 Q243 206 222 191 Q201 176 198 153 Z M289 672 Q295 712 327 740 Q359 768 399 768 Q439 768 463 740 Q487 712 481 672 Q476 632 444 604 Q412 576 372 576 Q332 576 308 604 Q284 632 289 672 Z M353 672 Q351 658 359 649 Q367 640 381 640 Q395 640 405 649 Q415 658 417 672 Q419 686 411.5 695 Q404 704 390 704 Q376 704 365.5 695 Q355 686 353 672 Z " />
<glyph glyph-name="atilde" unicode="&#xe3;" horiz-adv-x="582" d="M395 64 Q366 31 322.5 10 Q279 -11 227 -11 Q183 -11 151 2 Q119 15 98.5 37.5 Q78 60 70 90 Q62 120 67 153 Q71 185 87.5 213 Q104 241 133 262 Q162 283 203 295.5 Q244 308 299 308 L429 308 L430 313 Q436 353 415.5 378 Q395 403 347 403 Q315 403 285 389.5 Q255 376 231 351 L155 425 Q192 464 246 492.5 Q300 521 363 522 Q417 522 456.5 505.5 Q496 489 520 460.5 Q544 432 553 394 Q562 356 556 313 L512 0 L386 0 L395 64 Z M198 153 Q194 128 214.5 112.5 Q235 97 270 97 Q293 97 317 105 Q341 113 362 127.5 Q383 142 397.5 162 Q412 182 415 206 L285 206 Q243 206 222 191 Q201 176 198 153 Z M448 708 Q472 708 489.5 699 Q507 690 519 675 Q531 660 535.5 641 Q540 622 537 601 L467 601 Q470 619 462.5 631 Q455 643 438 643 Q426 643 414.5 634.5 Q403 626 389.5 616.5 Q376 607 359 598.5 Q342 590 317 590 Q293 590 274.5 599 Q256 608 245 622.5 Q234 637 229 656 Q224 675 227 696 L297 696 Q294 678 301.5 666 Q309 654 326 654 Q338 654 349.5 662.5 Q361 671 374.5 681 Q388 691 405.5 699.5 Q423 708 448 708 Z " />
<glyph glyph-name="aeacute" unicode="&#x1fd;" horiz-adv-x="937" d="M935 251 Q934 240 930 226.5 Q926 213 923 205 L541 205 Q538 188 546 170.5 Q554 153 570 139.5 Q586 126 608.5 117.5 Q631 109 660 109 Q697 109 731 124 Q765 139 790 164 L875 89 Q830 42 770 16 Q710 -10 643 -10 Q586 -10 534.5 12.5 Q483 35 452 82 Q425 55 397 37 Q369 19 342 8.5 Q315 -2 289.5 -6.5 Q264 -11 242 -11 Q197 -11 162.5 2 Q128 15 104.5 37 Q81 59 71.5 89 Q62 119 66 152 Q71 184 87.5 212.5 Q104 241 133 262 Q162 283 203.5 295.5 Q245 308 299 308 L429 308 L430 313 Q436 353 415.5 378 Q395 403 347 403 Q312 403 284.5 386.5 Q257 370 230 341 L153 415 Q170 436 194 455.5 Q218 475 245.5 489.5 Q273 504 303 513 Q333 522 363 522 Q420 522 460 504 Q500 486 525 454 Q561 486 608 504 Q655 522 709 522 Q767 522 813.5 501.5 Q860 481 889 445 Q918 409 931 359.5 Q944 310 935 251 Z M695 407 Q664 407 639.5 397.5 Q615 388 596.5 373.5 Q578 359 568 341.5 Q558 324 555 308 L808 308 Q810 323 804 340 Q798 357 783.5 372 Q769 387 747 397 Q725 407 695 407 Z M198 153 Q194 128 214.5 112.5 Q235 97 270 97 Q293 97 317 105 Q341 113 362 127.5 Q383 142 397.5 162 Q412 182 415 206 L285 206 Q243 206 222 191 Q201 176 198 153 Z M480 565 L452 598 L578 741 Q594 758 617 759 Q640 760 653 745 Q666 730 661.5 707 Q657 684 638 671 L480 565 Z " />
<glyph glyph-name="cacute" unicode="&#x107;" horiz-adv-x="533" d="M512 67 Q471 32 423 11 Q375 -10 315 -10 Q260 -10 214 11 Q168 32 137.5 68 Q107 104 92.5 152.5 Q78 201 86 256 Q94 311 121.5 359.5 Q149 408 190 444 Q231 480 282.5 501 Q334 522 389 522 Q451 522 496 499 Q541 476 570 440 L468 352 Q452 372 426 383 Q400 394 371 394 Q342 394 315.5 383 Q289 372 268 353.5 Q247 335 232.5 309.5 Q218 284 214 256 Q210 227 217.5 202 Q225 177 241 158.5 Q257 140 280.5 129 Q304 118 333 118 Q362 118 390 129 Q418 140 439 158 L512 67 Z M378 565 L350 598 L476 741 Q492 758 515 759 Q538 760 551 745 Q564 730 559.5 707 Q555 684 536 671 L378 565 Z " />
<glyph glyph-name="ccaron" unicode="&#x10d;" horiz-adv-x="533" d="M512 67 Q471 32 423 11 Q375 -10 315 -10 Q260 -10 214 11 Q168 32 137.5 68 Q107 104 92.5 152.5 Q78 201 86 256 Q94 311 121.5 359.5 Q149 408 190 444 Q231 480 282.5 501 Q334 522 389 522 Q451 522 496 499 Q541 476 570 440 L468 352 Q452 372 426 383 Q400 394 371 394 Q342 394 315.5 383 Q289 372 268 353.5 Q247 335 232.5 309.5 Q218 284 214 256 Q210 227 217.5 202 Q225 177 241 158.5 Q257 140 280.5 129 Q304 118 333 118 Q362 118 390 129 Q418 140 439 158 L512 67 Z M359 654 L462 745 L500 700 L345 564 L228 700 L280 745 L359 654 Z " />
<glyph glyph-name="ccedilla" unicode="&#xe7;" horiz-adv-x="533" d="M512 67 Q476 36 435 16.5 Q394 -3 344 -8 L340 -35 Q367 -45 381.5 -69.5 Q396 -94 391 -126 Q386 -166 354 -194 Q322 -222 282 -222 Q262 -222 246 -214.5 Q230 -207 218 -194 L270 -150 Q279 -158 291 -158 Q305 -158 315 -149 Q325 -140 327 -126 Q329 -112 321.5 -103 Q314 -94 300 -94 Q286 -94 276 -103 L237 -58 Q255 -41 276 -35 L280 -7 Q232 -1 192.5 22 Q153 45 127 80 Q101 115 90 160 Q79 205 86 256 Q94 311 121.5 359.5 Q149 408 190 444 Q231 480 282.5 501 Q334 522 389 522 Q451 522 496 499 Q541 476 570 440 L468 352 Q452 372 426 383 Q400 394 371 394 Q342 394 315.5 383 Q289 372 268 353.5 Q247 335 232.5 309.5 Q218 284 214 256 Q210 227 217.5 202 Q225 177 241 158.5 Q257 140 280.5 129 Q304 118 333 118 Q362 118 390 129 Q418 140 439 158 L512 67 Z " />
<glyph glyph-name="ccircumflex" unicode="&#x109;" horiz-adv-x="533" d="M512 67 Q471 32 423 11 Q375 -10 315 -10 Q260 -10 214 11 Q168 32 137.5 68 Q107 104 92.5 152.5 Q78 201 86 256 Q94 311 121.5 359.5 Q149 408 190 444 Q231 480 282.5 501 Q334 522 389 522 Q451 522 496 499 Q541 476 570 440 L468 352 Q452 372 426 383 Q400 394 371 394 Q342 394 315.5 383 Q289 372 268 353.5 Q247 335 232.5 309.5 Q218 284 214 256 Q210 227 217.5 202 Q225 177 241 158.5 Q257 140 280.5 129 Q304 118 333 118 Q362 118 390 129 Q418 140 439 158 L512 67 Z M397 655 L294 564 L256 609 L411 745 L528 609 L476 564 L397 655 Z " />
<glyph glyph-name="cdotaccent" unicode="&#x10b;" horiz-adv-x="533" d="M512 67 Q471 32 423 11 Q375 -10 315 -10 Q260 -10 214 11 Q168 32 137.5 68 Q107 104 92.5 152.5 Q78 201 86 256 Q94 311 121.5 359.5 Q149 408 190 444 Q231 480 282.5 501 Q334 522 389 522 Q451 522 496 499 Q541 476 570 440 L468 352 Q452 372 426 383 Q400 394 371 394 Q342 394 315.5 383 Q289 372 268 353.5 Q247 335 232.5 309.5 Q218 284 214 256 Q210 227 217.5 202 Q225 177 241 158.5 Q257 140 280.5 129 Q304 118 333 118 Q362 118 390 129 Q418 140 439 158 L512 67 Z M312 663 Q317 699 346 724.5 Q375 750 411 750 Q447 750 469 724.5 Q491 699 486 663 Q481 627 452 601.5 Q423 576 387 576 Q351 576 329 601.5 Q307 627 312 663 Z " />
<glyph glyph-name="eacute" unicode="&#xe9;" horiz-adv-x="612" d="M607 251 Q606 240 602 226.5 Q598 213 595 205 L213 205 Q210 188 218 170.5 Q226 153 242 139.5 Q258 126 280.5 117.5 Q303 109 332 109 Q369 109 403 124 Q437 139 462 164 L547 89 Q502 42 442 16 Q382 -10 315 -10 Q267 -10 221.5 6 Q176 22 142.5 55 Q109 88 92.5 138 Q76 188 86 256 Q94 311 119 359.5 Q144 408 183 444 Q222 480 272.5 501 Q323 522 381 522 Q439 522 485.5 501.5 Q532 481 561 445 Q590 409 603 359.5 Q616 310 607 251 Z M367 407 Q336 407 311.5 397.5 Q287 388 268.5 373.5 Q250 359 240 341.5 Q230 324 227 308 L480 308 Q482 323 476 340 Q470 357 455.5 372 Q441 387 419 397 Q397 407 367 407 Z M388 565 L360 598 L486 741 Q502 758 525 759 Q548 760 561 745 Q574 730 569.5 707 Q565 684 546 671 L388 565 Z " />
<glyph glyph-name="ebreve" unicode="&#x115;" horiz-adv-x="612" d="M607 251 Q606 240 602 226.5 Q598 213 595 205 L213 205 Q210 188 218 170.5 Q226 153 242 139.5 Q258 126 280.5 117.5 Q303 109 332 109 Q369 109 403 124 Q437 139 462 164 L547 89 Q502 42 442 16 Q382 -10 315 -10 Q267 -10 221.5 6 Q176 22 142.5 55 Q109 88 92.5 138 Q76 188 86 256 Q94 311 119 359.5 Q144 408 183 444 Q222 480 272.5 501 Q323 522 381 522 Q439 522 485.5 501.5 Q532 481 561 445 Q590 409 603 359.5 Q616 310 607 251 Z M287 696 L365 696 L362 675 Q359 658 368.5 647 Q378 636 395 636 Q412 636 424.5 647 Q437 658 440 675 L443 696 L521 696 L519 681 Q515 657 503 635.5 Q491 614 473 598 Q455 582 432 573 Q409 564 385 564 Q361 564 341 573 Q321 582 307 598 Q293 614 287 635.5 Q281 657 285 681 L287 696 Z M367 407 Q336 407 311.5 397.5 Q287 388 268.5 373.5 Q250 359 240 341.5 Q230 324 227 308 L480 308 Q482 323 476 340 Q470 357 455.5 372 Q441 387 419 397 Q397 407 367 407 Z " />
<glyph glyph-name="ecaron" unicode="&#x11b;" horiz-adv-x="612" d="M607 251 Q606 240 602 226.5 Q598 213 595 205 L213 205 Q210 188 218 170.5 Q226 153 242 139.5 Q258 126 280.5 117.5 Q303 109 332 109 Q369 109 403 124 Q437 139 462 164 L547 89 Q502 42 442 16 Q382 -10 315 -10 Q267 -10 221.5 6 Q176 22 142.5 55 Q109 88 92.5 138 Q76 188 86 256 Q94 311 119 359.5 Q144 408 183 444 Q222 480 272.5 501 Q323 522 381 522 Q439 522 485.5 501.5 Q532 481 561 445 Q590 409 603 359.5 Q616 310 607 251 Z M399 654 L502 745 L540 700 L385 564 L268 700 L320 745 L399 654 Z M367 407 Q336 407 311.5 397.5 Q287 388 268.5 373.5 Q250 359 240 341.5 Q230 324 227 308 L480 308 Q482 323 476 340 Q470 357 455.5 372 Q441 387 419 397 Q397 407 367 407 Z " />
<glyph glyph-name="ecircumflex" unicode="&#xea;" horiz-adv-x="612" d="M607 251 Q606 240 602 226.5 Q598 213 595 205 L213 205 Q210 188 218 170.5 Q226 153 242 139.5 Q258 126 280.5 117.5 Q303 109 332 109 Q369 109 403 124 Q437 139 462 164 L547 89 Q502 42 442 16 Q382 -10 315 -10 Q267 -10 221.5 6 Q176 22 142.5 55 Q109 88 92.5 138 Q76 188 86 256 Q94 311 119 359.5 Q144 408 183 444 Q222 480 272.5 501 Q323 522 381 522 Q439 522 485.5 501.5 Q532 481 561 445 Q590 409 603 359.5 Q616 310 607 251 Z M397 655 L294 564 L256 609 L411 745 L528 609 L476 564 L397 655 Z M367 407 Q336 407 311.5 397.5 Q287 388 268.5 373.5 Q250 359 240 341.5 Q230 324 227 308 L480 308 Q482 323 476 340 Q470 357 455.5 372 Q441 387 419 397 Q397 407 367 407 Z " />
<glyph glyph-name="edieresis" unicode="&#xeb;" horiz-adv-x="612" d="M607 251 Q606 240 602 226.5 Q598 213 595 205 L213 205 Q210 188 218 170.5 Q226 153 242 139.5 Q258 126 280.5 117.5 Q303 109 332 109 Q369 109 403 124 Q437 139 462 164 L547 89 Q502 42 442 16 Q382 -10 315 -10 Q267 -10 221.5 6 Q176 22 142.5 55 Q109 88 92.5 138 Q76 188 86 256 Q94 311 119 359.5 Q144 408 183 444 Q222 480 272.5 501 Q323 522 381 522 Q439 522 485.5 501.5 Q532 481 561 445 Q590 409 603 359.5 Q616 310 607 251 Z M421 663 Q426 699 455 724.5 Q484 750 520 750 Q556 750 578 724.5 Q600 699 595 663 Q590 627 561 601.5 Q532 576 496 576 Q460 576 438 601.5 Q416 627 421 663 Z M203 663 Q208 699 237 724.5 Q266 750 302 750 Q338 750 360 724.5 Q382 699 377 663 Q372 627 343 601.5 Q314 576 278 576 Q242 576 220 601.5 Q198 627 203 663 Z M367 407 Q336 407 311.5 397.5 Q287 388 268.5 373.5 Q250 359 240 341.5 Q230 324 227 308 L480 308 Q482 323 476 340 Q470 357 455.5 372 Q441 387 419 397 Q397 407 367 407 Z " />
<glyph glyph-name="edotaccent" unicode="&#x117;" horiz-adv-x="612" d="M607 251 Q606 240 602 226.5 Q598 213 595 205 L213 205 Q210 188 218 170.5 Q226 153 242 139.5 Q258 126 280.5 117.5 Q303 109 332 109 Q369 109 403 124 Q437 139 462 164 L547 89 Q502 42 442 16 Q382 -10 315 -10 Q267 -10 221.5 6 Q176 22 142.5 55 Q109 88 92.5 138 Q76 188 86 256 Q94 311 119 359.5 Q144 408 183 444 Q222 480 272.5 501 Q323 522 381 522 Q439 522 485.5 501.5 Q532 481 561 445 Q590 409 603 359.5 Q616 310 607 251 Z M312 663 Q317 699 346 724.5 Q375 750 411 750 Q447 750 469 724.5 Q491 699 486 663 Q481 627 452 601.5 Q423 576 387 576 Q351 576 329 601.5 Q307 627 312 663 Z M367 407 Q336 407 311.5 397.5 Q287 388 268.5 373.5 Q250 359 240 341.5 Q230 324 227 308 L480 308 Q482 323 476 340 Q470 357 455.5 372 Q441 387 419 397 Q397 407 367 407 Z " />
<glyph glyph-name="egrave" unicode="&#xe8;" horiz-adv-x="612" d="M607 251 Q606 240 602 226.5 Q598 213 595 205 L213 205 Q210 188 218 170.5 Q226 153 242 139.5 Q258 126 280.5 117.5 Q303 109 332 109 Q369 109 403 124 Q437 139 462 164 L547 89 Q502 42 442 16 Q382 -10 315 -10 Q267 -10 221.5 6 Q176 22 142.5 55 Q109 88 92.5 138 Q76 188 86 256 Q94 311 119 359.5 Q144 408 183 444 Q222 480 272.5 501 Q323 522 381 522 Q439 522 485.5 501.5 Q532 481 561 445 Q590 409 603 359.5 Q616 310 607 251 Z M367 407 Q336 407 311.5 397.5 Q287 388 268.5 373.5 Q250 359 240 341.5 Q230 324 227 308 L480 308 Q482 323 476 340 Q470 357 455.5 372 Q441 387 419 397 Q397 407 367 407 Z M254 671 Q239 684 241.5 707 Q244 730 261 745 Q272 755 287 758.5 Q302 762 314 757 Q327 753 334 741 L420 598 L382 565 L254 671 Z " />
<glyph glyph-name="emacron" unicode="&#x113;" horiz-adv-x="612" d="M607 251 Q606 240 602 226.5 Q598 213 595 205 L213 205 Q210 188 218 170.5 Q226 153 242 139.5 Q258 126 280.5 117.5 Q303 109 332 109 Q369 109 403 124 Q437 139 462 164 L547 89 Q502 42 442 16 Q382 -10 315 -10 Q267 -10 221.5 6 Q176 22 142.5 55 Q109 88 92.5 138 Q76 188 86 256 Q94 311 119 359.5 Q144 408 183 444 Q222 480 272.5 501 Q323 522 381 522 Q439 522 485.5 501.5 Q532 481 561 445 Q590 409 603 359.5 Q616 310 607 251 Z M543 576 L231 576 L242 654 L554 654 L543 576 Z M367 407 Q336 407 311.5 397.5 Q287 388 268.5 373.5 Q250 359 240 341.5 Q230 324 227 308 L480 308 Q482 323 476 340 Q470 357 455.5 372 Q441 387 419 397 Q397 407 367 407 Z " />
<glyph glyph-name="eogonek" unicode="&#x119;" horiz-adv-x="612" d="M178 -74 Q181 -51 191.5 -30 Q202 -9 218 7 Q185 20 158 41.5 Q131 63 112.5 94 Q94 125 86.5 165.5 Q79 206 86 256 Q94 311 119 359.5 Q144 408 183 444 Q222 480 272.5 501 Q323 522 381 522 Q439 522 485.5 501.5 Q532 481 561 445 Q590 409 603 359.5 Q616 310 607 251 Q606 240 602 226.5 Q598 213 595 205 L213 205 Q210 188 218 170.5 Q226 153 242 139.5 Q258 126 280.5 117.5 Q303 109 332 109 Q369 109 403 124 Q437 139 462 164 L547 89 Q502 42 442 16 Q382 -10 315 -10 L309 -10 Q283 -12 264 -30.5 Q245 -49 242 -74 Q238 -101 254 -119.5 Q270 -138 297 -138 Q323 -138 344.5 -119.5 Q366 -101 370 -74 L434 -74 Q430 -101 416.5 -124 Q403 -147 383 -164.5 Q363 -182 339 -192 Q315 -202 288 -202 Q261 -202 239 -192 Q217 -182 202 -164.5 Q187 -147 180.5 -124 Q174 -101 178 -74 Z M367 407 Q336 407 311.5 397.5 Q287 388 268.5 373.5 Q250 359 240 341.5 Q230 324 227 308 L480 308 Q482 323 476 340 Q470 357 455.5 372 Q441 387 419 397 Q397 407 367 407 Z " />
<glyph glyph-name="fi" unicode="&#xfb01;" horiz-adv-x="714" d="M570 555 Q578 615 552.5 651 Q527 687 465 687 Q410 687 371 652 Q332 617 323 555 L317 512 L476 512 L460 398 L301 398 L245 0 L117 0 L173 398 L76 398 L92 512 L189 512 L195 555 Q203 609 228 655.5 Q253 702 291.5 735.5 Q330 769 379 788.5 Q428 808 484 808 Q541 808 584.5 788.5 Q628 769 656.5 735.5 Q685 702 696.5 655.5 Q708 609 700 555 L570 555 Z M694 512 L622 0 L492 0 L564 512 L694 512 Z " />
<glyph glyph-name="dotlessi" unicode="&#x131;" horiz-adv-x="314" d="M294 512 L222 0 L92 0 L164 512 L294 512 Z " />
<glyph glyph-name="iacute" unicode="&#xed;" horiz-adv-x="314" d="M294 512 L222 0 L92 0 L164 512 L294 512 Z M239 565 L211 598 L337 741 Q353 758 376 759 Q399 760 412 745 Q425 730 420.5 707 Q416 684 397 671 L239 565 Z " />
<glyph glyph-name="ibreve" unicode="&#x12d;" horiz-adv-x="314" d="M294 512 L222 0 L92 0 L164 512 L294 512 Z M138 696 L216 696 L213 675 Q210 658 219.5 647 Q229 636 246 636 Q263 636 275.5 647 Q288 658 291 675 L294 696 L372 696 L370 681 Q366 657 354 635.5 Q342 614 324 598 Q306 582 283 573 Q260 564 236 564 Q212 564 192 573 Q172 582 158 598 Q144 614 138 635.5 Q132 657 136 681 L138 696 Z " />
<glyph glyph-name="icircumflex" unicode="&#xee;" horiz-adv-x="314" d="M294 512 L222 0 L92 0 L164 512 L294 512 Z M248 655 L145 564 L107 609 L262 745 L379 609 L327 564 L248 655 Z " />
<glyph glyph-name="idieresis" unicode="&#xef;" horiz-adv-x="314" d="M294 512 L222 0 L92 0 L164 512 L294 512 Z M54 663 Q59 699 88 724.5 Q117 750 153 750 Q189 750 211 724.5 Q233 699 228 663 Q223 627 194 601.5 Q165 576 129 576 Q93 576 71 601.5 Q49 627 54 663 Z M272 663 Q277 699 306 724.5 Q335 750 371 750 Q407 750 429 724.5 Q451 699 446 663 Q441 627 412 601.5 Q383 576 347 576 Q311 576 289 601.5 Q267 627 272 663 Z " />
<glyph glyph-name="igrave" unicode="&#xec;" horiz-adv-x="314" d="M294 512 L222 0 L92 0 L164 512 L294 512 Z M105 671 Q90 684 92.5 707 Q95 730 112 745 Q129 760 152 759 Q175 758 185 741 L271 598 L233 565 L105 671 Z " />
<glyph glyph-name="imacron" unicode="&#x12b;" horiz-adv-x="314" d="M294 512 L222 0 L92 0 L164 512 L294 512 Z M394 576 L82 576 L93 654 L405 654 L394 576 Z " />
<glyph glyph-name="iogonek" unicode="&#x12f;" horiz-adv-x="314" d="M20 -64 Q25 -29 46 0 Q67 29 98 46 L164 512 L294 512 L222 0 L151 0 Q126 -2 107 -20.5 Q88 -39 84 -64 Q80 -91 96 -109.5 Q112 -128 139 -128 Q165 -128 186.5 -109.5 Q208 -91 212 -64 L276 -64 Q272 -91 259 -114 Q246 -137 226 -154.5 Q206 -172 181.5 -182 Q157 -192 130 -192 Q103 -192 81.5 -182 Q60 -172 45 -154.5 Q30 -137 23 -114 Q16 -91 20 -64 Z M169 703 Q174 739 203 764.5 Q232 790 268 790 Q304 790 326 764.5 Q348 739 343 703 Q338 667 309 641.5 Q280 616 244 616 Q208 616 186 641.5 Q164 667 169 703 Z " />
<glyph glyph-name="itilde" unicode="&#x129;" horiz-adv-x="314" d="M294 512 L222 0 L92 0 L164 512 L294 512 Z M314 708 Q338 708 355.5 699 Q373 690 385 675 Q397 660 401.5 641 Q406 622 403 601 L333 601 Q336 619 328.5 631 Q321 643 304 643 Q292 643 280.5 634.5 Q269 626 255.5 616.5 Q242 607 225 598.5 Q208 590 183 590 Q159 590 140.5 599 Q122 608 111 622.5 Q100 637 95 656 Q90 675 93 696 L163 696 Q160 678 167.5 666 Q175 654 192 654 Q204 654 215.5 662.5 Q227 671 240.5 681 Q254 691 271.5 699.5 Q289 708 314 708 Z " />
<glyph glyph-name="ij" unicode="&#x133;" horiz-adv-x="648" d="M294 512 L222 0 L92 0 L164 512 L294 512 Z M169 703 Q174 739 203 764.5 Q232 790 268 790 Q304 790 326 764.5 Q348 739 343 703 Q338 667 309 641.5 Q280 616 244 616 Q208 616 186 641.5 Q164 667 169 703 Z M381 -257 L489 512 L617 512 L509 -257 L381 -257 Z M493 703 Q498 739 527 764.5 Q556 790 592 790 Q628 790 650 764.5 Q672 739 667 703 Q662 667 633 641.5 Q604 616 568 616 Q532 616 510 641.5 Q488 667 493 703 Z " />
<glyph glyph-name="lacute" unicode="&#x13a;" horiz-adv-x="292" d="M80 0 L188 768 L320 768 L212 0 L80 0 Z M267 788 L238 821 L364 964 Q380 981 403 982 Q426 983 439 968 Q452 953 447.5 930 Q443 907 425 894 L267 788 Z " />
<glyph glyph-name="lcaron" unicode="&#x13e;" horiz-adv-x="525" d="M80 0 L188 768 L320 768 L212 0 L80 0 Z M411 462 L472 562 Q443 568 426 592 Q409 616 413 648 Q418 684 447 709.5 Q476 735 512 735 Q536 735 553.5 723 Q571 711 579.5 692.5 Q588 674 585.5 650.5 Q583 627 569 603 L465 434 L411 462 Z " />
<glyph glyph-name="lcommaaccent" unicode="&#x13c;" horiz-adv-x="292" d="M80 0 L188 768 L320 768 L212 0 L80 0 Z M67 -238 L106 -174 Q86 -170 75.5 -155 Q65 -140 68 -120 Q71 -97 89.5 -80.5 Q108 -64 131 -64 Q146 -64 157.5 -71.5 Q169 -79 174 -91 Q179 -103 177.5 -118 Q176 -133 167 -148 L101 -256 L67 -238 Z " />
<glyph glyph-name="ldot" unicode="&#x140;" horiz-adv-x="484" d="M341 365 Q346 401 375.5 426.5 Q405 452 441 452 Q477 452 498.5 426.5 Q520 401 515 365 Q510 329 481 303.5 Q452 278 416 278 Q380 278 358 303.5 Q336 329 341 365 Z M80 0 L188 768 L320 768 L212 0 L80 0 Z " />
<glyph glyph-name="lslash" unicode="&#x142;" horiz-adv-x="292" d="M80 0 L121 289 L45 270 L35 344 L132 369 L188 768 L320 768 L269 404 L350 425 L359 351 L258 325 L212 0 L80 0 Z " />
<glyph glyph-name="kcommaaccent" unicode="&#x137;" horiz-adv-x="571" d="M316 768 L253 320 L336 320 L480 512 L623 512 L433 256 L551 0 L408 0 L318 192 L235 192 L208 0 L80 0 L188 768 L316 768 Z M206 -238 L245 -174 Q225 -170 214.5 -155 Q204 -140 207 -120 Q210 -97 228.5 -80.5 Q247 -64 270 -64 Q285 -64 296.5 -71.5 Q308 -79 313 -91 Q318 -103 316.5 -118 Q315 -133 306 -148 L240 -256 L206 -238 Z " />
<glyph glyph-name="hbar" unicode="&#x127;" horiz-adv-x="654" d="M594 0 L466 0 L503 266 Q507 293 500.5 316 Q494 339 479 356.5 Q464 374 442 384 Q420 394 393 394 Q367 394 343 384.5 Q319 375 299 358.5 Q279 342 265.5 319.5 Q252 297 248 271 L210 0 L80 0 L159 565 L83 545 L73 619 L171 644 L188 768 L318 768 L305 679 L387 700 L397 626 L294 599 L275 460 Q309 489 348.5 505.5 Q388 522 431 522 Q480 522 520.5 502 Q561 482 588 447.5 Q615 413 627 366 Q639 319 631 266 L594 0 Z " />
<glyph glyph-name="hcircumflex" unicode="&#x125;" horiz-adv-x="654" d="M594 0 L466 0 L503 266 Q507 293 500.5 316 Q494 339 479 356.5 Q464 374 442 384 Q420 394 393 394 Q367 394 343 384.5 Q319 375 299 358.5 Q279 342 265.5 319.5 Q252 297 248 271 L210 0 L80 0 L188 768 L318 768 L275 460 Q309 489 348.5 505.5 Q388 522 431 522 Q480 522 520.5 502 Q561 482 588 447.5 Q615 413 627 366 Q639 319 631 266 L594 0 Z M468 655 L365 564 L327 609 L482 745 L599 609 L547 564 L468 655 Z " />
<glyph glyph-name="dcaron" unicode="&#x10f;" horiz-adv-x="875" d="M86 256 Q93 309 118.5 356 Q144 403 181.5 437.5 Q219 472 267 492 Q315 512 368 512 Q407 512 441.5 497.5 Q476 483 498 457 L542 768 L670 768 L562 0 L434 0 L442 55 Q412 29 373.5 14.5 Q335 0 296 0 Q243 0 201 20 Q159 40 130.5 74.5 Q102 109 90.5 156 Q79 203 86 256 Z M490 256 Q494 285 487 310 Q480 335 463.5 354 Q447 373 423.5 383.5 Q400 394 371 394 Q342 394 315.5 383.5 Q289 373 267.5 354 Q246 335 232 310 Q218 285 214 256 Q210 227 217 202 Q224 177 240.5 158 Q257 139 280.5 128.5 Q304 118 333 118 Q362 118 388.5 128.5 Q415 139 436.5 158 Q458 177 472 202 Q486 227 490 256 Z M761 462 L822 562 Q793 568 776 592 Q759 616 763 648 Q768 684 797 709.5 Q826 735 862 735 Q886 735 903.5 723 Q921 711 929.5 692.5 Q938 674 935.5 650.5 Q933 627 919 603 L815 434 L761 462 Z " />
<glyph glyph-name="nacute" unicode="&#x144;" horiz-adv-x="652" d="M592 0 L464 0 L501 263 Q505 292 501 317.5 Q497 343 484.5 362.5 Q472 382 449 393.5 Q426 405 393 405 Q339 405 298 368 Q257 331 245 263 L208 0 L80 0 L152 512 L280 512 L272 455 Q302 482 347.5 502 Q393 522 441 522 Q490 522 528.5 504 Q567 486 592.5 452 Q618 418 627.5 369.5 Q637 321 629 260 L592 0 Z M413 565 L385 598 L511 741 Q527 758 550 759 Q573 760 586 745 Q599 730 594.5 707 Q590 684 571 671 L413 565 Z " />
<glyph glyph-name="napostrophe" unicode="&#x149;" horiz-adv-x="652" d="M592 0 L464 0 L501 263 Q505 292 501 317.5 Q497 343 484.5 362.5 Q472 382 449 393.5 Q426 405 393 405 Q339 405 298 368 Q257 331 245 263 L208 0 L80 0 L152 512 L280 512 L272 455 Q302 482 347.5 502 Q393 522 441 522 Q490 522 528.5 504 Q567 486 592.5 452 Q618 418 627.5 369.5 Q637 321 629 260 L592 0 Z M152 592 L213 692 Q184 698 167 722 Q150 746 154 778 Q159 814 188.5 839.5 Q218 865 254 865 Q278 865 295 853 Q312 841 320.5 822.5 Q329 804 326.5 780.5 Q324 757 310 733 L206 564 L152 592 Z " />
<glyph glyph-name="ncaron" unicode="&#x148;" horiz-adv-x="652" d="M592 0 L464 0 L501 263 Q505 292 501 317.5 Q497 343 484.5 362.5 Q472 382 449 393.5 Q426 405 393 405 Q339 405 298 368 Q257 331 245 263 L208 0 L80 0 L152 512 L280 512 L272 455 Q302 482 347.5 502 Q393 522 441 522 Q490 522 528.5 504 Q567 486 592.5 452 Q618 418 627.5 369.5 Q637 321 629 260 L592 0 Z M444 654 L547 745 L585 700 L430 564 L313 700 L365 745 L444 654 Z " />
<glyph glyph-name="ncommaaccent" unicode="&#x146;" horiz-adv-x="652" d="M592 0 L464 0 L501 263 Q505 292 501 317.5 Q497 343 484.5 362.5 Q472 382 449 393.5 Q426 405 393 405 Q339 405 298 368 Q257 331 245 263 L208 0 L80 0 L152 512 L280 512 L272 455 Q302 482 347.5 502 Q393 522 441 522 Q490 522 528.5 504 Q567 486 592.5 452 Q618 418 627.5 369.5 Q637 321 629 260 L592 0 Z M252 -238 L291 -174 Q271 -170 260.5 -155 Q250 -140 253 -120 Q256 -97 274.5 -80.5 Q293 -64 316 -64 Q331 -64 342.5 -71.5 Q354 -79 359 -91 Q364 -103 362.5 -118 Q361 -133 352 -148 L286 -256 L252 -238 Z " />
<glyph glyph-name="ntilde" unicode="&#xf1;" horiz-adv-x="652" d="M592 0 L464 0 L501 263 Q505 292 501 317.5 Q497 343 484.5 362.5 Q472 382 449 393.5 Q426 405 393 405 Q339 405 298 368 Q257 331 245 263 L208 0 L80 0 L152 512 L280 512 L272 455 Q302 482 347.5 502 Q393 522 441 522 Q490 522 528.5 504 Q567 486 592.5 452 Q618 418 627.5 369.5 Q637 321 629 260 L592 0 Z M488 708 Q512 708 529.5 699 Q547 690 559 675 Q571 660 575.5 641 Q580 622 577 601 L507 601 Q510 619 502.5 631 Q495 643 478 643 Q466 643 454.5 634.5 Q443 626 429.5 616.5 Q416 607 399 598.5 Q382 590 357 590 Q333 590 314.5 599 Q296 608 285 622.5 Q274 637 269 656 Q264 675 267 696 L337 696 Q334 678 341.5 666 Q349 654 366 654 Q378 654 389.5 662.5 Q401 671 414.5 681 Q428 691 445.5 699.5 Q463 708 488 708 Z " />
<glyph glyph-name="oacute" unicode="&#xf3;" horiz-adv-x="632" d="M86 256 Q94 311 121 359.5 Q148 408 189 444 Q230 480 281.5 501 Q333 522 389 522 Q444 522 489.5 501 Q535 480 566 444 Q597 408 611.5 359.5 Q626 311 618 256 Q610 200 582 151.5 Q554 103 513 67 Q472 31 421 10.5 Q370 -10 315 -10 Q259 -10 213 10.5 Q167 31 136 67 Q105 103 91.5 151.5 Q78 200 86 256 Z M212 256 Q208 226 215 200 Q222 174 238 155 Q254 136 278 125.5 Q302 115 332 115 Q362 115 389 125.5 Q416 136 437 155 Q458 174 473 200 Q488 226 492 256 Q496 286 489 312 Q482 338 466 357 Q450 376 426 386.5 Q402 397 372 397 Q342 397 315 386.5 Q288 376 267 357 Q246 338 231 312 Q216 286 212 256 Z M398 565 L370 598 L496 741 Q512 758 535 759 Q558 760 571 745 Q584 730 579.5 707 Q575 684 556 671 L398 565 Z " />
<glyph glyph-name="obreve" unicode="&#x14f;" horiz-adv-x="632" d="M86 256 Q94 311 121 359.5 Q148 408 189 444 Q230 480 281.5 501 Q333 522 389 522 Q444 522 489.5 501 Q535 480 566 444 Q597 408 611.5 359.5 Q626 311 618 256 Q610 200 582 151.5 Q554 103 513 67 Q472 31 421 10.5 Q370 -10 315 -10 Q259 -10 213 10.5 Q167 31 136 67 Q105 103 91.5 151.5 Q78 200 86 256 Z M212 256 Q208 226 215 200 Q222 174 238 155 Q254 136 278 125.5 Q302 115 332 115 Q362 115 389 125.5 Q416 136 437 155 Q458 174 473 200 Q488 226 492 256 Q496 286 489 312 Q482 338 466 357 Q450 376 426 386.5 Q402 397 372 397 Q342 397 315 386.5 Q288 376 267 357 Q246 338 231 312 Q216 286 212 256 Z M297 696 L375 696 L372 675 Q369 658 378.5 647 Q388 636 405 636 Q422 636 434.5 647 Q447 658 450 675 L453 696 L531 696 L529 681 Q525 657 513 635.5 Q501 614 483 598 Q465 582 442 573 Q419 564 395 564 Q371 564 351 573 Q331 582 317 598 Q303 614 297 635.5 Q291 657 295 681 L297 696 Z " />
<glyph glyph-name="ocircumflex" unicode="&#xf4;" horiz-adv-x="632" d="M86 256 Q94 311 121 359.5 Q148 408 189 444 Q230 480 281.5 501 Q333 522 389 522 Q444 522 489.5 501 Q535 480 566 444 Q597 408 611.5 359.5 Q626 311 618 256 Q610 200 582 151.5 Q554 103 513 67 Q472 31 421 10.5 Q370 -10 315 -10 Q259 -10 213 10.5 Q167 31 136 67 Q105 103 91.5 151.5 Q78 200 86 256 Z M212 256 Q208 226 215 200 Q222 174 238 155 Q254 136 278 125.5 Q302 115 332 115 Q362 115 389 125.5 Q416 136 437 155 Q458 174 473 200 Q488 226 492 256 Q496 286 489 312 Q482 338 466 357 Q450 376 426 386.5 Q402 397 372 397 Q342 397 315 386.5 Q288 376 267 357 Q246 338 231 312 Q216 286 212 256 Z M407 655 L304 564 L266 609 L421 745 L538 609 L486 564 L407 655 Z " />
<glyph glyph-name="odieresis" unicode="&#xf6;" horiz-adv-x="632" d="M86 256 Q94 311 121 359.5 Q148 408 189 444 Q230 480 281.5 501 Q333 522 389 522 Q444 522 489.5 501 Q535 480 566 444 Q597 408 611.5 359.5 Q626 311 618 256 Q610 200 582 151.5 Q554 103 513 67 Q472 31 421 10.5 Q370 -10 315 -10 Q259 -10 213 10.5 Q167 31 136 67 Q105 103 91.5 151.5 Q78 200 86 256 Z M212 256 Q208 226 215 200 Q222 174 238 155 Q254 136 278 125.5 Q302 115 332 115 Q362 115 389 125.5 Q416 136 437 155 Q458 174 473 200 Q488 226 492 256 Q496 286 489 312 Q482 338 466 357 Q450 376 426 386.5 Q402 397 372 397 Q342 397 315 386.5 Q288 376 267 357 Q246 338 231 312 Q216 286 212 256 Z M213 663 Q218 699 247 724.5 Q276 750 312 750 Q348 750 370 724.5 Q392 699 387 663 Q382 627 353 601.5 Q324 576 288 576 Q252 576 230 601.5 Q208 627 213 663 Z M431 663 Q436 699 465 724.5 Q494 750 530 750 Q566 750 588 724.5 Q610 699 605 663 Q600 627 571 601.5 Q542 576 506 576 Q470 576 448 601.5 Q426 627 431 663 Z " />
<glyph glyph-name="ograve" unicode="&#xf2;" horiz-adv-x="632" d="M86 256 Q94 311 121 359.5 Q148 408 189 444 Q230 480 281.5 501 Q333 522 389 522 Q444 522 489.5 501 Q535 480 566 444 Q597 408 611.5 359.5 Q626 311 618 256 Q610 200 582 151.5 Q554 103 513 67 Q472 31 421 10.5 Q370 -10 315 -10 Q259 -10 213 10.5 Q167 31 136 67 Q105 103 91.5 151.5 Q78 200 86 256 Z M212 256 Q208 226 215 200 Q222 174 238 155 Q254 136 278 125.5 Q302 115 332 115 Q362 115 389 125.5 Q416 136 437 155 Q458 174 473 200 Q488 226 492 256 Q496 286 489 312 Q482 338 466 357 Q450 376 426 386.5 Q402 397 372 397 Q342 397 315 386.5 Q288 376 267 357 Q246 338 231 312 Q216 286 212 256 Z M264 671 Q249 684 251.5 707 Q254 730 271 745 Q288 760 311 759 Q334 758 344 741 L430 598 L392 565 L264 671 Z " />
<glyph glyph-name="ohungarumlaut" unicode="&#x151;" horiz-adv-x="632" d="M86 256 Q94 311 121 359.5 Q148 408 189 444 Q230 480 281.5 501 Q333 522 389 522 Q444 522 489.5 501 Q535 480 566 444 Q597 408 611.5 359.5 Q626 311 618 256 Q610 200 582 151.5 Q554 103 513 67 Q472 31 421 10.5 Q370 -10 315 -10 Q259 -10 213 10.5 Q167 31 136 67 Q105 103 91.5 151.5 Q78 200 86 256 Z M212 256 Q208 226 215 200 Q222 174 238 155 Q254 136 278 125.5 Q302 115 332 115 Q362 115 389 125.5 Q416 136 437 155 Q458 174 473 200 Q488 226 492 256 Q496 286 489 312 Q482 338 466 357 Q450 376 426 386.5 Q402 397 372 397 Q342 397 315 386.5 Q288 376 267 357 Q246 338 231 312 Q216 286 212 256 Z M301 565 L273 598 L399 741 Q415 758 438 759 Q461 760 474 745 Q487 730 482.5 707 Q478 684 459 671 L301 565 Z M495 565 L467 598 L593 741 Q609 758 632 759 Q655 760 668 745 Q681 730 676.5 707 Q672 684 653 671 L495 565 Z " />
<glyph glyph-name="omacron" unicode="&#x14d;" horiz-adv-x="632" d="M86 256 Q94 311 121 359.5 Q148 408 189 444 Q230 480 281.5 501 Q333 522 389 522 Q444 522 489.5 501 Q535 480 566 444 Q597 408 611.5 359.5 Q626 311 618 256 Q610 200 582 151.5 Q554 103 513 67 Q472 31 421 10.5 Q370 -10 315 -10 Q259 -10 213 10.5 Q167 31 136 67 Q105 103 91.5 151.5 Q78 200 86 256 Z M212 256 Q208 226 215 200 Q222 174 238 155 Q254 136 278 125.5 Q302 115 332 115 Q362 115 389 125.5 Q416 136 437 155 Q458 174 473 200 Q488 226 492 256 Q496 286 489 312 Q482 338 466 357 Q450 376 426 386.5 Q402 397 372 397 Q342 397 315 386.5 Q288 376 267 357 Q246 338 231 312 Q216 286 212 256 Z M553 576 L241 576 L252 654 L564 654 L553 576 Z " />
<glyph glyph-name="gbreve" unicode="&#x11f;" horiz-adv-x="572" d="M126 335 Q132 377 153 414 Q174 451 205 478.5 Q236 506 275.5 522 Q315 538 357 538 Q402 538 437.5 520.5 Q473 503 496 472 Q528 492 559.5 502 Q591 512 626 512 L634 512 L618 398 L529 398 Q532 385 532.5 368 Q533 351 531 335 Q525 293 504 256 Q483 219 451.5 192 Q420 165 381 149 Q342 133 300 133 Q275 133 252.5 140 Q230 147 211 158 Q190 157 173 147.5 Q156 138 153 115 Q150 93 166 82.5 Q182 72 207 72 L343 72 Q438 72 485.5 29 Q533 -14 522 -95 Q510 -175 444 -220.5 Q378 -266 272 -266 Q218 -266 174 -252.5 Q130 -239 100.5 -216 Q71 -193 57 -161.5 Q43 -130 48 -95 L105 -49 Q60 -35 40 2 Q20 39 29 85 Q38 133 71.5 168.5 Q105 204 148 215 Q134 240 127.5 270.5 Q121 301 126 335 Z M247 335 Q242 301 262.5 277.5 Q283 254 317 254 Q351 254 377.5 277.5 Q404 301 409 335 Q414 369 393.5 392.5 Q373 416 339 416 Q305 416 278.5 392.5 Q252 369 247 335 Z M288 -147 Q336 -147 361 -135 Q386 -123 390 -95 Q392 -75 376.5 -62 Q361 -49 326 -49 L161 -49 Q158 -69 166.5 -86.5 Q175 -104 192.5 -117.5 Q210 -131 234 -139 Q258 -147 288 -147 Z M267 696 L345 696 L342 675 Q339 658 348.5 647 Q358 636 375 636 Q392 636 404.5 647 Q417 658 420 675 L423 696 L501 696 L499 681 Q495 657 483 635.5 Q471 614 453 598 Q435 582 412 573 Q389 564 365 564 Q341 564 321 573 Q301 582 287 598 Q273 614 267 635.5 Q261 657 265 681 L267 696 Z " />
<glyph glyph-name="gcircumflex" unicode="&#x11d;" horiz-adv-x="572" d="M126 335 Q132 377 153 414 Q174 451 205 478.5 Q236 506 275.5 522 Q315 538 357 538 Q402 538 437.5 520.5 Q473 503 496 472 Q528 492 559.5 502 Q591 512 626 512 L634 512 L618 398 L529 398 Q532 385 532.5 368 Q533 351 531 335 Q525 293 504 256 Q483 219 451.5 192 Q420 165 381 149 Q342 133 300 133 Q275 133 252.5 140 Q230 147 211 158 Q190 157 173 147.5 Q156 138 153 115 Q150 93 166 82.5 Q182 72 207 72 L343 72 Q438 72 485.5 29 Q533 -14 522 -95 Q510 -175 444 -220.5 Q378 -266 272 -266 Q218 -266 174 -252.5 Q130 -239 100.5 -216 Q71 -193 57 -161.5 Q43 -130 48 -95 L105 -49 Q60 -35 40 2 Q20 39 29 85 Q38 133 71.5 168.5 Q105 204 148 215 Q134 240 127.5 270.5 Q121 301 126 335 Z M247 335 Q242 301 262.5 277.5 Q283 254 317 254 Q351 254 377.5 277.5 Q404 301 409 335 Q414 369 393.5 392.5 Q373 416 339 416 Q305 416 278.5 392.5 Q252 369 247 335 Z M288 -147 Q336 -147 361 -135 Q386 -123 390 -95 Q392 -75 376.5 -62 Q361 -49 326 -49 L161 -49 Q158 -69 166.5 -86.5 Q175 -104 192.5 -117.5 Q210 -131 234 -139 Q258 -147 288 -147 Z M377 655 L274 564 L236 609 L391 745 L508 609 L456 564 L377 655 Z " />
<glyph glyph-name="gcommaaccent" unicode="&#x123;" horiz-adv-x="572" d="M126 335 Q132 377 153 414 Q174 451 205 478.5 Q236 506 275.5 522 Q315 538 357 538 Q402 538 437.5 520.5 Q473 503 496 472 Q528 492 559.5 502 Q591 512 626 512 L634 512 L618 398 L529 398 Q532 385 532.5 368 Q533 351 531 335 Q525 293 504 256 Q483 219 451.5 192 Q420 165 381 149 Q342 133 300 133 Q275 133 252.5 140 Q230 147 211 158 Q190 157 173 147.5 Q156 138 153 115 Q150 93 166 82.5 Q182 72 207 72 L343 72 Q438 72 485.5 29 Q533 -14 522 -95 Q510 -175 444 -220.5 Q378 -266 272 -266 Q218 -266 174 -252.5 Q130 -239 100.5 -216 Q71 -193 57 -161.5 Q43 -130 48 -95 L105 -49 Q60 -35 40 2 Q20 39 29 85 Q38 133 71.5 168.5 Q105 204 148 215 Q134 240 127.5 270.5 Q121 301 126 335 Z M247 335 Q242 301 262.5 277.5 Q283 254 317 254 Q351 254 377.5 277.5 Q404 301 409 335 Q414 369 393.5 392.5 Q373 416 339 416 Q305 416 278.5 392.5 Q252 369 247 335 Z M288 -147 Q336 -147 361 -135 Q386 -123 390 -95 Q392 -75 376.5 -62 Q361 -49 326 -49 L161 -49 Q158 -69 166.5 -86.5 Q175 -104 192.5 -117.5 Q210 -131 234 -139 Q258 -147 288 -147 Z M479 860 L418 760 Q447 754 464 730 Q481 706 477 674 Q472 638 442.5 612.5 Q413 587 377 587 Q353 587 336 599 Q319 611 310.5 629.5 Q302 648 304.5 671.5 Q307 695 321 719 L425 888 L479 860 Z " />
<glyph glyph-name="gdotaccent" unicode="&#x121;" horiz-adv-x="572" d="M126 335 Q132 377 153 414 Q174 451 205 478.5 Q236 506 275.5 522 Q315 538 357 538 Q402 538 437.5 520.5 Q473 503 496 472 Q528 492 559.5 502 Q591 512 626 512 L634 512 L618 398 L529 398 Q532 385 532.5 368 Q533 351 531 335 Q525 293 504 256 Q483 219 451.5 192 Q420 165 381 149 Q342 133 300 133 Q275 133 252.5 140 Q230 147 211 158 Q190 157 173 147.5 Q156 138 153 115 Q150 93 166 82.5 Q182 72 207 72 L343 72 Q438 72 485.5 29 Q533 -14 522 -95 Q510 -175 444 -220.5 Q378 -266 272 -266 Q218 -266 174 -252.5 Q130 -239 100.5 -216 Q71 -193 57 -161.5 Q43 -130 48 -95 L105 -49 Q60 -35 40 2 Q20 39 29 85 Q38 133 71.5 168.5 Q105 204 148 215 Q134 240 127.5 270.5 Q121 301 126 335 Z M247 335 Q242 301 262.5 277.5 Q283 254 317 254 Q351 254 377.5 277.5 Q404 301 409 335 Q414 369 393.5 392.5 Q373 416 339 416 Q305 416 278.5 392.5 Q252 369 247 335 Z M288 -147 Q336 -147 361 -135 Q386 -123 390 -95 Q392 -75 376.5 -62 Q361 -49 326 -49 L161 -49 Q158 -69 166.5 -86.5 Q175 -104 192.5 -117.5 Q210 -131 234 -139 Q258 -147 288 -147 Z M292 663 Q297 699 326 724.5 Q355 750 391 750 Q427 750 449 724.5 Q471 699 466 663 Q461 627 432 601.5 Q403 576 367 576 Q331 576 309 601.5 Q287 627 292 663 Z " />
<glyph glyph-name="racute" unicode="&#x155;" horiz-adv-x="389" d="M210 0 L80 0 L152 512 L264 512 L255 446 Q291 477 333 494.5 Q375 512 421 512 L451 512 L435 398 L405 398 Q374 398 347 387.5 Q320 377 299 358.5 Q278 340 264.5 314.5 Q251 289 246 259 L210 0 Z M236 565 L208 598 L334 741 Q350 758 373 759 Q396 760 409 745 Q422 730 417.5 707 Q413 684 394 671 L236 565 Z " />
<glyph glyph-name="rcaron" unicode="&#x159;" horiz-adv-x="389" d="M210 0 L80 0 L152 512 L264 512 L255 446 Q291 477 333 494.5 Q375 512 421 512 L451 512 L435 398 L405 398 Q374 398 347 387.5 Q320 377 299 358.5 Q278 340 264.5 314.5 Q251 289 246 259 L210 0 Z M297 654 L400 745 L438 700 L283 564 L166 700 L218 745 L297 654 Z " />
<glyph glyph-name="rcommaaccent" unicode="&#x157;" horiz-adv-x="389" d="M210 0 L80 0 L152 512 L264 512 L255 446 Q291 477 333 494.5 Q375 512 421 512 L451 512 L435 398 L405 398 Q374 398 347 387.5 Q320 377 299 358.5 Q278 340 264.5 314.5 Q251 289 246 259 L210 0 Z M70 -238 L109 -174 Q89 -170 78.5 -155 Q68 -140 71 -120 Q74 -97 92.5 -80.5 Q111 -64 134 -64 Q149 -64 160.5 -71.5 Q172 -79 177 -91 Q182 -103 180.5 -118 Q179 -133 170 -148 L104 -256 L70 -238 Z " />
<glyph glyph-name="sacute" unicode="&#x15b;" horiz-adv-x="537" d="M231 368 Q228 351 239.5 341 Q251 331 269 326 L382 298 Q457 279 488.5 238 Q520 197 511 138 Q507 105 490 76.5 Q473 48 444 27.5 Q415 7 374.5 -5 Q334 -17 281 -17 Q240 -17 204 -8.5 Q168 0 139.5 15 Q111 30 91.5 49.5 Q72 69 63 90 L169 158 Q186 129 221.5 112.5 Q257 96 296 96 Q331 96 354 108 Q377 120 379 138 Q381 152 373 163.5 Q365 175 340 181 L239 207 Q157 228 125.5 269.5 Q94 311 102 368 Q106 400 124 429 Q142 458 172 479.5 Q202 501 243.5 514 Q285 527 335 527 Q377 527 415 514.5 Q453 502 480 479 Q507 456 520.5 423.5 Q534 391 528 351 L400 351 Q402 363 397 374.5 Q392 386 381.5 396 Q371 406 355.5 412 Q340 418 320 418 Q277 418 255 402 Q233 386 231 368 Z M353 565 L325 598 L451 741 Q467 758 490 759 Q513 760 526 745 Q539 730 534.5 707 Q530 684 511 671 L353 565 Z " />
<glyph glyph-name="scaron" unicode="&#x161;" horiz-adv-x="537" d="M231 368 Q228 351 239.5 341 Q251 331 269 326 L382 298 Q457 279 488.5 238 Q520 197 511 138 Q507 105 490 76.5 Q473 48 444 27.5 Q415 7 374.5 -5 Q334 -17 281 -17 Q240 -17 204 -8.5 Q168 0 139.5 15 Q111 30 91.5 49.5 Q72 69 63 90 L169 158 Q186 129 221.5 112.5 Q257 96 296 96 Q331 96 354 108 Q377 120 379 138 Q381 152 373 163.5 Q365 175 340 181 L239 207 Q157 228 125.5 269.5 Q94 311 102 368 Q106 400 124 429 Q142 458 172 479.5 Q202 501 243.5 514 Q285 527 335 527 Q377 527 415 514.5 Q453 502 480 479 Q507 456 520.5 423.5 Q534 391 528 351 L400 351 Q402 363 397 374.5 Q392 386 381.5 396 Q371 406 355.5 412 Q340 418 320 418 Q277 418 255 402 Q233 386 231 368 Z M364 654 L467 745 L505 700 L350 564 L233 700 L285 745 L364 654 Z " />
<glyph glyph-name="scedilla" unicode="&#x15f;" horiz-adv-x="537" d="M231 368 Q228 351 239.5 341 Q251 331 269 326 L382 298 Q457 279 488.5 238 Q520 197 511 138 Q503 76 451.5 33 Q400 -10 307 -16 L303 -45 Q329 -55 343.5 -79.5 Q358 -104 354 -136 Q348 -176 316 -204 Q284 -232 244 -232 Q224 -232 208.5 -224.5 Q193 -217 180 -204 L233 -160 Q241 -168 253 -168 Q267 -168 277.5 -159 Q288 -150 290 -136 Q292 -122 284 -113 Q276 -104 262 -104 Q248 -104 238 -113 L199 -68 Q218 -51 239 -45 L243 -15 Q174 -7 126.5 22.5 Q79 52 63 90 L169 158 Q186 129 221.5 112.5 Q257 96 296 96 Q331 96 354 108 Q377 120 379 138 Q381 152 373 163.5 Q365 175 340 181 L239 207 Q157 228 125.5 269.5 Q94 311 102 368 Q106 400 124 429 Q142 458 172 479.5 Q202 501 243.5 514 Q285 527 335 527 Q377 527 415 514.5 Q453 502 480 479 Q507 456 520.5 423.5 Q534 391 528 351 L400 351 Q402 363 397 374.5 Q392 386 381.5 396 Q371 406 355.5 412 Q340 418 320 418 Q277 418 255 402 Q233 386 231 368 Z " />
<glyph glyph-name="scircumflex" unicode="&#x15d;" horiz-adv-x="537" d="M231 368 Q228 351 239.5 341 Q251 331 269 326 L382 298 Q457 279 488.5 238 Q520 197 511 138 Q507 105 490 76.5 Q473 48 444 27.5 Q415 7 374.5 -5 Q334 -17 281 -17 Q240 -17 204 -8.5 Q168 0 139.5 15 Q111 30 91.5 49.5 Q72 69 63 90 L169 158 Q186 129 221.5 112.5 Q257 96 296 96 Q331 96 354 108 Q377 120 379 138 Q381 152 373 163.5 Q365 175 340 181 L239 207 Q157 228 125.5 269.5 Q94 311 102 368 Q106 400 124 429 Q142 458 172 479.5 Q202 501 243.5 514 Q285 527 335 527 Q377 527 415 514.5 Q453 502 480 479 Q507 456 520.5 423.5 Q534 391 528 351 L400 351 Q402 363 397 374.5 Q392 386 381.5 396 Q371 406 355.5 412 Q340 418 320 418 Q277 418 255 402 Q233 386 231 368 Z M362 655 L259 564 L221 609 L376 745 L493 609 L441 564 L362 655 Z " />
<glyph glyph-name="scommaaccent" unicode="&#x219;" horiz-adv-x="537" d="M231 368 Q228 351 239.5 341 Q251 331 269 326 L382 298 Q457 279 488.5 238 Q520 197 511 138 Q507 105 490 76.5 Q473 48 444 27.5 Q415 7 374.5 -5 Q334 -17 281 -17 Q240 -17 204 -8.5 Q168 0 139.5 15 Q111 30 91.5 49.5 Q72 69 63 90 L169 158 Q186 129 221.5 112.5 Q257 96 296 96 Q331 96 354 108 Q377 120 379 138 Q381 152 373 163.5 Q365 175 340 181 L239 207 Q157 228 125.5 269.5 Q94 311 102 368 Q106 400 124 429 Q142 458 172 479.5 Q202 501 243.5 514 Q285 527 335 527 Q377 527 415 514.5 Q453 502 480 479 Q507 456 520.5 423.5 Q534 391 528 351 L400 351 Q402 363 397 374.5 Q392 386 381.5 396 Q371 406 355.5 412 Q340 418 320 418 Q277 418 255 402 Q233 386 231 368 Z M192 -238 L231 -174 Q211 -170 200.5 -155 Q190 -140 193 -120 Q196 -97 214.5 -80.5 Q233 -64 256 -64 Q271 -64 282.5 -71.5 Q294 -79 299 -91 Q304 -103 302.5 -118 Q301 -133 292 -148 L226 -256 L192 -238 Z " />
<glyph glyph-name="tbar" unicode="&#x167;" horiz-adv-x="386" d="M128 0 L156 201 L75 180 L66 254 L167 280 L184 398 L66 398 L82 512 L200 512 L218 640 L348 640 L330 512 L448 512 L432 398 L314 398 L302 315 L380 335 L390 261 L291 235 L258 0 L128 0 Z " />
<glyph glyph-name="tcaron" unicode="&#x165;" horiz-adv-x="619" d="M128 0 L184 398 L66 398 L82 512 L200 512 L218 640 L348 640 L330 512 L448 512 L432 398 L314 398 L258 0 L128 0 Z M505 462 L566 562 Q537 568 520 592 Q503 616 507 648 Q512 684 541 709.5 Q570 735 606 735 Q630 735 647.5 723 Q665 711 673.5 692.5 Q682 674 679.5 650.5 Q677 627 663 603 L559 434 L505 462 Z " />
<glyph glyph-name="tcommaaccent" unicode="&#x163;" horiz-adv-x="386" d="M128 0 L184 398 L66 398 L82 512 L200 512 L218 640 L348 640 L330 512 L448 512 L432 398 L314 398 L258 0 L128 0 Z M114 -238 L153 -174 Q133 -170 122.5 -155 Q112 -140 115 -120 Q118 -97 136.5 -80.5 Q155 -64 178 -64 Q201 -64 214 -80 Q227 -96 224 -118 Q223 -126 221 -133 Q219 -140 214 -148 L148 -256 L114 -238 Z " />
<glyph glyph-name="uacute" unicode="&#xfa;" horiz-adv-x="652" d="M132 512 L260 512 L223 249 Q219 220 223 194.5 Q227 169 239.5 149.5 Q252 130 275 118.5 Q298 107 331 107 Q385 107 426 144 Q467 181 479 249 L516 512 L644 512 L572 0 L444 0 L452 57 Q422 30 376.5 10 Q331 -10 283 -10 Q234 -10 195.5 8 Q157 26 131.5 60 Q106 94 96.5 142.5 Q87 191 95 252 L132 512 Z M383 565 L355 598 L481 741 Q497 758 520 759 Q543 760 556 745 Q569 730 564.5 707 Q560 684 541 671 L383 565 Z " />
<glyph glyph-name="ubreve" unicode="&#x16d;" horiz-adv-x="652" d="M132 512 L260 512 L223 249 Q219 220 223 194.5 Q227 169 239.5 149.5 Q252 130 275 118.5 Q298 107 331 107 Q385 107 426 144 Q467 181 479 249 L516 512 L644 512 L572 0 L444 0 L452 57 Q422 30 376.5 10 Q331 -10 283 -10 Q234 -10 195.5 8 Q157 26 131.5 60 Q106 94 96.5 142.5 Q87 191 95 252 L132 512 Z M302 696 L380 696 L377 675 Q374 658 383.5 647 Q393 636 410 636 Q427 636 439.5 647 Q452 658 455 675 L458 696 L536 696 L534 681 Q530 657 518 635.5 Q506 614 488 598 Q470 582 447 573 Q424 564 400 564 Q376 564 356 573 Q336 582 322 598 Q308 614 302 635.5 Q296 657 300 681 L302 696 Z " />
<glyph glyph-name="ucircumflex" unicode="&#xfb;" horiz-adv-x="652" d="M132 512 L260 512 L223 249 Q219 220 223 194.5 Q227 169 239.5 149.5 Q252 130 275 118.5 Q298 107 331 107 Q385 107 426 144 Q467 181 479 249 L516 512 L644 512 L572 0 L444 0 L452 57 Q422 30 376.5 10 Q331 -10 283 -10 Q234 -10 195.5 8 Q157 26 131.5 60 Q106 94 96.5 142.5 Q87 191 95 252 L132 512 Z M412 655 L309 564 L271 609 L426 745 L543 609 L491 564 L412 655 Z " />
<glyph glyph-name="udieresis" unicode="&#xfc;" horiz-adv-x="652" d="M132 512 L260 512 L223 249 Q219 220 223 194.5 Q227 169 239.5 149.5 Q252 130 275 118.5 Q298 107 331 107 Q385 107 426 144 Q467 181 479 249 L516 512 L644 512 L572 0 L444 0 L452 57 Q422 30 376.5 10 Q331 -10 283 -10 Q234 -10 195.5 8 Q157 26 131.5 60 Q106 94 96.5 142.5 Q87 191 95 252 L132 512 Z M218 663 Q223 699 252 724.5 Q281 750 317 750 Q353 750 375 724.5 Q397 699 392 663 Q387 627 358 601.5 Q329 576 293 576 Q257 576 235 601.5 Q213 627 218 663 Z M436 663 Q441 699 470 724.5 Q499 750 535 750 Q571 750 593 724.5 Q615 699 610 663 Q605 627 576 601.5 Q547 576 511 576 Q475 576 453 601.5 Q431 627 436 663 Z " />
<glyph glyph-name="uhungarumlaut" unicode="&#x171;" horiz-adv-x="652" d="M132 512 L260 512 L223 249 Q219 220 223 194.5 Q227 169 239.5 149.5 Q252 130 275 118.5 Q298 107 331 107 Q385 107 426 144 Q467 181 479 249 L516 512 L644 512 L572 0 L444 0 L452 57 Q422 30 376.5 10 Q331 -10 283 -10 Q234 -10 195.5 8 Q157 26 131.5 60 Q106 94 96.5 142.5 Q87 191 95 252 L132 512 Z M286 565 L258 598 L384 741 Q400 758 423 759 Q446 760 459 745 Q472 730 467.5 707 Q463 684 444 671 L286 565 Z M480 565 L452 598 L578 741 Q594 758 617 759 Q640 760 653 745 Q666 730 661.5 707 Q657 684 638 671 L480 565 Z " />
<glyph glyph-name="ugrave" unicode="&#xf9;" horiz-adv-x="652" d="M132 512 L260 512 L223 249 Q219 220 223 194.5 Q227 169 239.5 149.5 Q252 130 275 118.5 Q298 107 331 107 Q385 107 426 144 Q467 181 479 249 L516 512 L644 512 L572 0 L444 0 L452 57 Q422 30 376.5 10 Q331 -10 283 -10 Q234 -10 195.5 8 Q157 26 131.5 60 Q106 94 96.5 142.5 Q87 191 95 252 L132 512 Z M289 671 Q274 684 276.5 707 Q279 730 296 745 Q313 760 336 759 Q359 758 369 741 L455 598 L417 565 L289 671 Z " />
<glyph glyph-name="umacron" unicode="&#x16b;" horiz-adv-x="652" d="M132 512 L260 512 L223 249 Q219 220 223 194.5 Q227 169 239.5 149.5 Q252 130 275 118.5 Q298 107 331 107 Q385 107 426 144 Q467 181 479 249 L516 512 L644 512 L572 0 L444 0 L452 57 Q422 30 376.5 10 Q331 -10 283 -10 Q234 -10 195.5 8 Q157 26 131.5 60 Q106 94 96.5 142.5 Q87 191 95 252 L132 512 Z M558 576 L246 576 L257 654 L569 654 L558 576 Z " />
<glyph glyph-name="uogonek" unicode="&#x173;" horiz-adv-x="652" d="M146 -74 Q149 -49 160.5 -28 Q172 -7 188 10 Q134 38 108.5 100 Q83 162 95 252 L132 512 L260 512 L223 249 Q219 220 223 194.5 Q227 169 239.5 149.5 Q252 130 275 118.5 Q298 107 331 107 Q385 107 426 144 Q467 181 479 249 L516 512 L644 512 L572 0 L444 0 L452 57 Q422 29 377 9.5 Q332 -10 283 -10 L277 -10 Q251 -12 232 -30.5 Q213 -49 210 -74 Q206 -101 222 -119.5 Q238 -138 265 -138 Q291 -138 312.5 -119.5 Q334 -101 338 -74 L402 -74 Q398 -101 384.5 -124 Q371 -147 351 -164.5 Q331 -182 307 -192 Q283 -202 256 -202 Q229 -202 207 -192 Q185 -182 170 -164.5 Q155 -147 148.5 -124 Q142 -101 146 -74 Z " />
<glyph glyph-name="uring" unicode="&#x16f;" horiz-adv-x="652" d="M132 512 L260 512 L223 249 Q219 220 223 194.5 Q227 169 239.5 149.5 Q252 130 275 118.5 Q298 107 331 107 Q385 107 426 144 Q467 181 479 249 L516 512 L644 512 L572 0 L444 0 L452 57 Q422 30 376.5 10 Q331 -10 283 -10 Q234 -10 195.5 8 Q157 26 131.5 60 Q106 94 96.5 142.5 Q87 191 95 252 L132 512 Z M319 672 Q325 712 357 740 Q389 768 429 768 Q469 768 493 740 Q517 712 511 672 Q506 632 474 604 Q442 576 402 576 Q362 576 338 604 Q314 632 319 672 Z M383 672 Q381 658 389 649 Q397 640 411 640 Q425 640 435 649 Q445 658 447 672 Q449 686 441.5 695 Q434 704 420 704 Q406 704 395.5 695 Q385 686 383 672 Z " />
<glyph glyph-name="utilde" unicode="&#x169;" horiz-adv-x="652" d="M132 512 L260 512 L223 249 Q219 220 223 194.5 Q227 169 239.5 149.5 Q252 130 275 118.5 Q298 107 331 107 Q385 107 426 144 Q467 181 479 249 L516 512 L644 512 L572 0 L444 0 L452 57 Q422 30 376.5 10 Q331 -10 283 -10 Q234 -10 195.5 8 Q157 26 131.5 60 Q106 94 96.5 142.5 Q87 191 95 252 L132 512 Z M478 708 Q502 708 519.5 699 Q537 690 549 675 Q561 660 565.5 641 Q570 622 567 601 L497 601 Q500 619 492.5 631 Q485 643 468 643 Q456 643 444.5 634.5 Q433 626 419.5 616.5 Q406 607 389 598.5 Q372 590 347 590 Q323 590 304.5 599 Q286 608 275 622.5 Q264 637 259 656 Q254 675 257 696 L327 696 Q324 678 331.5 666 Q339 654 356 654 Q368 654 379.5 662.5 Q391 671 404.5 681 Q418 691 435.5 699.5 Q453 708 478 708 Z " />
<glyph glyph-name="wacute" unicode="&#x1e83;" horiz-adv-x="788" d="M570 118 L576 118 L705 512 L843 512 L659 0 L467 0 L441 296 L431 296 L321 0 L129 0 L89 512 L227 512 L246 118 L252 118 L398 512 L534 512 L570 118 Z M476 565 L448 598 L574 741 Q590 758 613 759 Q636 760 649 745 Q662 730 657.5 707 Q653 684 634 671 L476 565 Z " />
<glyph glyph-name="wcircumflex" unicode="&#x175;" horiz-adv-x="788" d="M570 118 L576 118 L705 512 L843 512 L659 0 L467 0 L441 296 L431 296 L321 0 L129 0 L89 512 L227 512 L246 118 L252 118 L398 512 L534 512 L570 118 Z M485 655 L382 564 L344 609 L499 745 L616 609 L564 564 L485 655 Z " />
<glyph glyph-name="wdieresis" unicode="&#x1e85;" horiz-adv-x="788" d="M570 118 L576 118 L705 512 L843 512 L659 0 L467 0 L441 296 L431 296 L321 0 L129 0 L89 512 L227 512 L246 118 L252 118 L398 512 L534 512 L570 118 Z M291 663 Q296 699 325 724.5 Q354 750 390 750 Q426 750 448 724.5 Q470 699 465 663 Q460 627 431 601.5 Q402 576 366 576 Q330 576 308 601.5 Q286 627 291 663 Z M509 663 Q514 699 543 724.5 Q572 750 608 750 Q644 750 666 724.5 Q688 699 683 663 Q678 627 649 601.5 Q620 576 584 576 Q548 576 526 601.5 Q504 627 509 663 Z " />
<glyph glyph-name="wgrave" unicode="&#x1e81;" horiz-adv-x="788" d="M570 118 L576 118 L705 512 L843 512 L659 0 L467 0 L441 296 L431 296 L321 0 L129 0 L89 512 L227 512 L246 118 L252 118 L398 512 L534 512 L570 118 Z M342 671 Q327 684 329.5 707 Q332 730 349 745 Q366 760 389 759 Q412 758 422 741 L508 598 L470 565 L342 671 Z " />
<glyph glyph-name="yacute" unicode="&#xfd;" horiz-adv-x="573" d="M308 138 L483 512 L628 512 L344 -47 L315 -256 L187 -256 L216 -50 L89 512 L234 512 L303 138 L308 138 Z M358 565 L330 598 L456 741 Q472 758 495 759 Q518 760 531 745 Q544 730 539.5 707 Q535 684 516 671 L358 565 Z " />
<glyph glyph-name="ycircumflex" unicode="&#x177;" horiz-adv-x="573" d="M308 138 L483 512 L628 512 L344 -47 L315 -256 L187 -256 L216 -50 L89 512 L234 512 L303 138 L308 138 Z M377 655 L274 564 L236 609 L391 745 L508 609 L456 564 L377 655 Z " />
<glyph glyph-name="ydieresis" unicode="&#xff;" horiz-adv-x="573" d="M308 138 L483 512 L628 512 L344 -47 L315 -256 L187 -256 L216 -50 L89 512 L234 512 L303 138 L308 138 Z M183 663 Q188 699 217 724.5 Q246 750 282 750 Q318 750 340 724.5 Q362 699 357 663 Q352 627 323 601.5 Q294 576 258 576 Q222 576 200 601.5 Q178 627 183 663 Z M401 663 Q406 699 435 724.5 Q464 750 500 750 Q536 750 558 724.5 Q580 699 575 663 Q570 627 541 601.5 Q512 576 476 576 Q440 576 418 601.5 Q396 627 401 663 Z " />
<glyph glyph-name="ygrave" unicode="&#x1ef3;" horiz-adv-x="573" d="M308 138 L483 512 L628 512 L344 -47 L315 -256 L187 -256 L216 -50 L89 512 L234 512 L303 138 L308 138 Z M244 671 Q229 684 231.5 707 Q234 730 251 745 Q268 760 291 759 Q314 758 324 741 L410 598 L372 565 L244 671 Z " />
<glyph glyph-name="oslashacute" unicode="&#x1ff;" horiz-adv-x="632" d="M86 256 Q94 311 121 359.5 Q148 408 189 444 Q230 480 281.5 501 Q333 522 389 522 Q431 522 467 510 Q503 498 532 477 L582 521 L644 449 L594 405 Q610 373 617 335.5 Q624 298 618 256 Q610 200 582 151.5 Q554 103 513 67 Q472 31 421 10.5 Q370 -10 315 -10 Q231 -10 172 35 L122 -9 L60 63 L110 107 Q74 172 86 256 Z M332 115 Q362 115 389 125.5 Q416 136 437 155 Q458 174 473 200 Q488 226 492 256 Q494 271 492.5 285 Q491 299 488 312 L276 126 Q302 115 332 115 Z M212 256 Q208 226 215 199 L427 385 Q403 397 372 397 Q342 397 315 386.5 Q288 376 267 357 Q246 338 231 312 Q216 286 212 256 Z M398 565 L370 598 L496 741 Q512 758 535 759 Q558 760 571 745 Q584 730 579.5 707 Q575 684 556 671 L398 565 Z " />
<glyph glyph-name="otilde" unicode="&#xf5;" horiz-adv-x="632" d="M86 256 Q94 311 121 359.5 Q148 408 189 444 Q230 480 281.5 501 Q333 522 389 522 Q444 522 489.5 501 Q535 480 566 444 Q597 408 611.5 359.5 Q626 311 618 256 Q610 200 582 151.5 Q554 103 513 67 Q472 31 421 10.5 Q370 -10 315 -10 Q259 -10 213 10.5 Q167 31 136 67 Q105 103 91.5 151.5 Q78 200 86 256 Z M212 256 Q208 226 215 200 Q222 174 238 155 Q254 136 278 125.5 Q302 115 332 115 Q362 115 389 125.5 Q416 136 437 155 Q458 174 473 200 Q488 226 492 256 Q496 286 489 312 Q482 338 466 357 Q450 376 426 386.5 Q402 397 372 397 Q342 397 315 386.5 Q288 376 267 357 Q246 338 231 312 Q216 286 212 256 Z M473 708 Q497 708 514.5 699 Q532 690 544 675 Q556 660 560.5 641 Q565 622 562 601 L492 601 Q495 619 487.5 631 Q480 643 463 643 Q451 643 439.5 634.5 Q428 626 414.5 616.5 Q401 607 384 598.5 Q367 590 342 590 Q318 590 299.5 599 Q281 608 270 622.5 Q259 637 254 656 Q249 675 252 696 L322 696 Q319 678 326.5 666 Q334 654 351 654 Q363 654 374.5 662.5 Q386 671 399.5 681 Q413 691 430.5 699.5 Q448 708 473 708 Z " />
<glyph glyph-name="approxequal" unicode="&#x2248;" horiz-adv-x="571" d="M432 447 Q466 447 492 434 Q518 421 535 399.5 Q552 378 559 350 Q566 322 562 292 L460 292 Q464 318 453 335.5 Q442 353 419 353 Q401 353 384 341 Q367 329 347.5 314 Q328 299 303 287 Q278 275 242 275 Q207 275 180.5 288 Q154 301 137 322.5 Q120 344 113 372 Q106 400 110 430 L212 430 Q209 404 220 386.5 Q231 369 255 369 Q273 369 289 381 Q305 393 325 408 Q345 423 370.5 435 Q396 447 432 447 Z M401 227 Q435 227 461 214 Q487 201 504 179.5 Q521 158 528 130 Q535 102 531 72 L429 72 Q433 98 422 115.5 Q411 133 388 133 Q370 133 353 121 Q336 109 316.5 94 Q297 79 272 67 Q247 55 211 55 Q176 55 149.5 68 Q123 81 106 102.5 Q89 124 82 152 Q75 180 80 210 L182 210 Q178 184 189 166.5 Q200 149 224 149 Q242 149 258 161 Q274 173 294.5 188 Q315 203 340 215 Q365 227 401 227 Z " />
<glyph glyph-name="fraction" unicode="&#x2044;" horiz-adv-x="852" d="M817 745 L894 655 L139 -7 L62 83 L817 745 Z " />
<glyph glyph-name="section" unicode="&#xa7;" horiz-adv-x="556" d="M272 609 Q269 592 281 581 Q293 570 312 565 L431 535 Q509 515 542.5 472 Q576 429 568 367 Q563 335 547 306.5 Q531 278 504 256 Q546 212 536 143 Q531 108 513.5 78.5 Q496 49 465.5 27 Q435 5 391.5 -7.5 Q348 -20 293 -20 Q249 -20 212 -11 Q175 -2 145 14 Q115 30 94 50 Q73 70 63 93 L176 165 Q194 133 231 116 Q268 99 310 99 Q347 99 370.5 111.5 Q394 124 397 143 Q399 158 390 170 Q381 182 356 189 L249 217 Q163 239 129.5 282.5 Q96 326 104 386 Q109 417 125 445 Q141 473 170 496 Q147 519 139 547 Q131 575 136 609 Q140 643 159.5 673.5 Q179 704 210.5 727 Q242 750 285 763.5 Q328 777 381 777 Q426 777 466 764 Q506 751 534.5 726.5 Q563 702 577.5 667.5 Q592 633 586 591 L451 591 Q453 603 447.5 616 Q442 629 430.5 639 Q419 649 402.5 655.5 Q386 662 365 662 Q320 662 297 645.5 Q274 629 272 609 Z M240 386 Q238 369 250 357.5 Q262 346 281 341 L354 322 Q387 325 406.5 337 Q426 349 429 367 Q431 381 421.5 393.5 Q412 406 387 413 L299 435 Q271 428 256.5 414 Q242 400 240 386 Z " />
<glyph glyph-name="Eng" unicode="&#x14a;" horiz-adv-x="803" d="M459 0 Q455 -27 472 -46.5 Q489 -66 516 -66 Q543 -66 565 -46.5 Q587 -27 591 0 L606 106 L278 441 L216 0 L80 0 L183 730 L194 735 L628 293 L690 735 L826 735 L723 0 Q717 -41 696.5 -77 Q676 -113 645.5 -140 Q615 -167 576.5 -182.5 Q538 -198 497 -198 Q456 -198 422.5 -182.5 Q389 -167 365.5 -140 Q342 -113 331.5 -77 Q321 -41 327 0 L459 0 Z " />
<glyph glyph-name="eng" unicode="&#x14b;" horiz-adv-x="662" d="M326 -74 Q322 -100 338.5 -119 Q355 -138 381 -138 Q407 -138 428.5 -119 Q450 -100 454 -74 L501 263 Q505 292 501 317.5 Q497 343 484.5 362.5 Q472 382 449 393.5 Q426 405 393 405 Q339 405 298 368 Q257 331 245 263 L208 0 L80 0 L152 512 L280 512 L272 455 Q302 482 347.5 502 Q393 522 441 522 Q490 522 528.5 504 Q567 486 592.5 452 Q618 418 627.5 369.5 Q637 321 629 260 L582 -74 Q576 -114 556 -149 Q536 -184 506.5 -210 Q477 -236 440 -251 Q403 -266 363 -266 Q323 -266 290 -251 Q257 -236 234.5 -210 Q212 -184 202 -149 Q192 -114 198 -74 L326 -74 Z " />
<glyph glyph-name="Eth" unicode="&#xd0;" horiz-adv-x="699" d="M90 0 L131 291 L50 270 L40 344 L142 370 L193 735 L405 735 Q481 735 543.5 706 Q606 677 649 627 Q692 577 711.5 510.5 Q731 444 721 368 Q710 292 671.5 225 Q633 158 576 108 Q519 58 448.5 29 Q378 0 302 0 L90 0 Z M355 425 L364 351 L274 328 L246 128 L312 128 Q363 128 409.5 146.5 Q456 165 492.5 197.5 Q529 230 553.5 273.5 Q578 317 585 368 Q592 419 579.5 463 Q567 507 539 538.5 Q511 570 470 588.5 Q429 607 379 607 L313 607 L285 407 L355 425 Z " />
<glyph glyph-name="Dcroat" unicode="&#x110;" horiz-adv-x="699" d="M90 0 L131 291 L50 270 L40 344 L142 370 L193 735 L405 735 Q481 735 543.5 706 Q606 677 649 627 Q692 577 711.5 510.5 Q731 444 721 368 Q710 292 671.5 225 Q633 158 576 108 Q519 58 448.5 29 Q378 0 302 0 L90 0 Z M355 425 L364 351 L274 328 L246 128 L312 128 Q363 128 409.5 146.5 Q456 165 492.5 197.5 Q529 230 553.5 273.5 Q578 317 585 368 Q592 419 579.5 463 Q567 507 539 538.5 Q511 570 470 588.5 Q429 607 379 607 L313 607 L285 407 L355 425 Z " />
<glyph glyph-name="dcroat" unicode="&#x111;" horiz-adv-x="642" d="M86 256 Q93 309 118.5 356 Q144 403 181.5 437.5 Q219 472 267 492 Q315 512 368 512 Q407 512 441.5 497.5 Q476 483 498 457 L513 565 L434 545 L424 619 L525 645 L542 768 L670 768 L657 679 L738 700 L748 626 L646 600 L562 0 L434 0 L442 55 Q412 29 373.5 14.5 Q335 0 296 0 Q243 0 201 20 Q159 40 130.5 74.5 Q102 109 90.5 156 Q79 203 86 256 Z M490 256 Q494 285 487 310 Q480 335 463.5 354 Q447 373 423.5 383.5 Q400 394 371 394 Q342 394 315.5 383.5 Q289 373 267.5 354 Q246 335 232 310 Q218 285 214 256 Q210 227 217 202 Q224 177 240.5 158 Q257 139 280.5 128.5 Q304 118 333 118 Q362 118 388.5 128.5 Q415 139 436.5 158 Q458 177 472 202 Q486 227 490 256 Z " />
<glyph glyph-name="zacute" unicode="&#x17a;" horiz-adv-x="506" d="M472 114 L456 0 L60 0 L49 25 L319 398 L117 398 L133 512 L519 512 L529 487 L260 114 L472 114 Z M335 565 L307 598 L433 741 Q449 758 472 759 Q495 760 508 745 Q521 730 516.5 707 Q512 684 493 671 L335 565 Z " />
<glyph glyph-name="zcaron" unicode="&#x17e;" horiz-adv-x="506" d="M472 114 L456 0 L60 0 L49 25 L319 398 L117 398 L133 512 L519 512 L529 487 L260 114 L472 114 Z M346 654 L449 745 L487 700 L332 564 L215 700 L267 745 L346 654 Z " />
<glyph glyph-name="zdotaccent" unicode="&#x17c;" horiz-adv-x="506" d="M472 114 L456 0 L60 0 L49 25 L319 398 L117 398 L133 512 L519 512 L529 487 L260 114 L472 114 Z M259 663 Q264 699 293 724.5 Q322 750 358 750 Q394 750 416 724.5 Q438 699 433 663 Q428 627 399 601.5 Q370 576 334 576 Q298 576 276 601.5 Q254 627 259 663 Z " />
<glyph glyph-name="Thorn" unicode="&#xde;" horiz-adv-x="615" d="M231 109 L216 0 L80 0 L183 735 L319 735 L303 621 L429 621 Q482 621 526.5 601 Q571 581 600.5 546.5 Q630 512 643.5 465 Q657 418 649 365 Q642 312 615.5 265 Q589 218 549.5 183.5 Q510 149 460 129 Q410 109 357 109 L231 109 Z M364 227 Q392 227 419 238 Q446 249 467 267.5 Q488 286 502.5 311 Q517 336 521 365 Q525 393 517.5 418.5 Q510 444 494.5 462.5 Q479 481 455 492 Q431 503 403 503 L287 503 L248 227 L364 227 Z " />
<glyph glyph-name="dotlessj" unicode="&#x237;" horiz-adv-x="314" d="M57 -257 L165 512 L293 512 L185 -257 L57 -257 Z " />
<glyph glyph-name="jcircumflex" unicode="&#x135;" horiz-adv-x="314" d="M57 -257 L165 512 L293 512 L185 -257 L57 -257 Z M248 655 L145 564 L107 609 L262 745 L379 609 L327 564 L248 655 Z " />
<glyph glyph-name="Wacute" unicode="&#x1e82;" horiz-adv-x="930" d="M679 148 L691 148 L873 735 L1013 735 L772 0 L565 0 L542 499 L528 499 L365 0 L158 0 L123 735 L264 735 L281 148 L293 148 L490 735 L646 735 L679 148 Z M579 788 L550 821 L676 964 Q692 981 715 982 Q738 983 751 968 Q764 953 759.5 930 Q755 907 737 894 L579 788 Z " />
<glyph glyph-name="Wcircumflex" unicode="&#x174;" horiz-adv-x="930" d="M679 148 L691 148 L873 735 L1013 735 L772 0 L565 0 L542 499 L528 499 L365 0 L158 0 L123 735 L264 735 L281 148 L293 148 L490 735 L646 735 L679 148 Z M587 878 L485 787 L446 832 L601 968 L718 832 L667 787 L587 878 Z " />
<glyph glyph-name="Wdieresis" unicode="&#x1e84;" horiz-adv-x="930" d="M679 148 L691 148 L873 735 L1013 735 L772 0 L565 0 L542 499 L528 499 L365 0 L158 0 L123 735 L264 735 L281 148 L293 148 L490 735 L646 735 L679 148 Z M394 886 Q399 922 428 947.5 Q457 973 493 973 Q529 973 551 947.5 Q573 922 568 886 Q562 850 533 824.5 Q504 799 468 799 Q432 799 410 824.5 Q388 850 394 886 Z M612 886 Q617 922 646 947.5 Q675 973 711 973 Q747 973 769 947.5 Q791 922 786 886 Q780 850 751 824.5 Q722 799 686 799 Q650 799 628 824.5 Q606 850 612 886 Z " />
<glyph glyph-name="Wgrave" unicode="&#x1e80;" horiz-adv-x="930" d="M679 148 L691 148 L873 735 L1013 735 L772 0 L565 0 L542 499 L528 499 L365 0 L158 0 L123 735 L264 735 L281 148 L293 148 L490 735 L646 735 L679 148 Z M445 894 Q429 907 431.5 930 Q434 953 451 968 Q468 983 491 982 Q514 981 524 964 L610 821 L573 788 L445 894 Z " />
</font>
</svg>
