<?xml version="1.0" encoding="UTF-8"?>
<svg xmlns="http://www.w3.org/2000/svg" xmlns:xlink="http://www.w3.org/1999/xlink" version="1.2" >
<font id="Liber Grotesque Family Lt Obl">
<font-face  font-family="Liber Grotesque Family" units-per-em="1000" ascent="768" descent="-256" font-style="italic" font-weight="300" font-stretch="normal" cap-height="735" x-height="512" underline-position="-106" underline-thickness="73" />
<missing-glyph  horiz-adv-x="830" d="M199 768 L839 768 L731 0 L91 0 L199 768 Z M696 38 L793 729 L234 729 L137 38 L696 38 Z M413 333 L451 333 Q479 333 504.5 343.5 Q530 354 550.5 372 Q571 390 585 414 Q599 438 602 466 Q606 494 599 518 Q592 542 576.5 560 Q561 578 538.5 588.5 Q516 599 488 599 Q460 599 434.5 588.5 Q409 578 388.5 560 Q368 542 354 518 Q340 494 336 466 L295 466 Q301 502 319 534 Q337 566 363.5 589.5 Q390 613 424 626.5 Q458 640 494 640 Q530 640 560 626.5 Q590 613 610.5 589.5 Q631 566 640 534 Q649 502 643 466 Q638 430 620 398 Q602 366 575.5 342.5 Q549 319 515 305.5 Q481 292 445 292 L407 292 L413 333 Z M395 161 Q397 175 408.5 185.5 Q420 196 434 196 Q448 196 456.5 185.5 Q465 175 463 161 Q461 147 449.5 137.5 Q438 128 424 128 Q410 128 401.5 137.5 Q393 147 395 161 Z " />
<glyph glyph-name="null" d="" />
<glyph glyph-name="nonmarkingreturn" unicode="&#xd;" horiz-adv-x="342" d="" />
<glyph glyph-name="space" unicode="&#x20;" horiz-adv-x="300" d="" />
<glyph glyph-name="quotedbl" unicode="&#x22;" horiz-adv-x="326" d="M176 548 L148 548 L153 725 Q153 739 163.5 752 Q174 765 193 765 Q212 765 218 752 Q224 739 220 724 L176 548 Z M333 548 L305 548 L310 725 Q310 739 320.5 752 Q331 765 350 765 Q369 765 375 752 Q381 739 377 724 L333 548 Z " />
<glyph glyph-name="numbersign" unicode="&#x23;" horiz-adv-x="729" d="M531 455 L340 455 L276 284 L466 284 L531 455 Z M301 500 L388 732 L444 732 L357 500 L547 500 L635 732 L691 732 L603 500 L744 500 L727 455 L586 455 L523 285 L667 285 L649 239 L505 239 L414 0 L359 0 L449 239 L260 239 L168 0 L112 0 L202 239 L69 239 L86 285 L219 285 L284 455 L147 455 L164 500 L301 500 Z " />
<glyph glyph-name="dollar" unicode="&#x24;" horiz-adv-x="605" d="M398 876 L461 876 L443 748 Q490 742 525 722 Q560 702 582 673 Q604 644 613 609 Q622 574 616 537 L556 537 Q560 565 552 593 Q544 621 524 643.5 Q504 666 471 680 Q438 694 392 694 Q352 694 318 684.5 Q284 675 258 658.5 Q232 642 216 618 Q200 594 197 566 Q190 518 212 486 Q234 454 295 428 L439 366 Q522 330 554.5 281 Q587 232 577 167 Q572 125 550 92.5 Q528 60 495.5 37.5 Q463 15 421.5 1.5 Q380 -12 336 -15 L320 -128 L257 -128 L273 -13 Q205 -8 156 19.5 Q107 47 71 92 L121 131 Q160 86 207.5 65 Q255 44 317 44 Q357 44 392 53 Q427 62 452.5 78 Q478 94 494.5 117 Q511 140 514 167 Q521 216 495 250 Q469 284 409 309 L268 369 Q188 403 155.5 451 Q123 499 133 566 Q138 605 158.5 637.5 Q179 670 211.5 694.5 Q244 719 287 733.5 Q330 748 380 750 L398 876 Z " />
<glyph glyph-name="percent" unicode="&#x25;" horiz-adv-x="543" d="M588 678 L128 90 L63 90 L523 678 L588 678 Z M391 141 Q394 161 411 176 Q428 191 449 191 Q470 191 482.5 176 Q495 161 492 141 Q489 120 472.5 105 Q456 90 435 90 Q414 90 401 105 Q388 120 391 141 Z M141 627 Q144 648 161 663 Q178 678 199 678 Q220 678 232.5 663 Q245 648 242 627 Q239 607 222.5 592 Q206 577 185 577 Q164 577 151 592 Q138 607 141 627 Z " />
<glyph glyph-name="ampersand" unicode="&#x26;" horiz-adv-x="732" d="M742 404 L739 381 Q728 309 698 239.5 Q668 170 617 115 L707 7 L706 0 L640 0 L574 74 Q527 34 465.5 10.5 Q404 -13 329 -13 Q268 -13 220 5.5 Q172 24 141 56.5 Q110 89 96 131.5 Q82 174 89 222 Q95 263 114 296.5 Q133 330 160.5 354.5 Q188 379 220.5 395.5 Q253 412 285 418 L280 424 Q250 458 233.5 502 Q217 546 225 596 Q230 632 248.5 665 Q267 698 297.5 723.5 Q328 749 370 764.5 Q412 780 463 780 Q520 780 558.5 761 Q597 742 621 712 Q645 682 653.5 645.5 Q662 609 657 573 L597 573 Q600 599 594.5 626 Q589 653 572.5 674.5 Q556 696 527 710 Q498 724 455 724 Q422 724 393 714 Q364 704 341.5 687 Q319 670 304.5 646.5 Q290 623 286 595 Q281 559 293.5 524.5 Q306 490 331 461 L583 159 Q621 202 646.5 257.5 Q672 313 682 381 L685 404 L742 404 Z M337 43 Q394 43 446 62 Q498 81 541 117 L318 376 Q247 366 203 323.5 Q159 281 151 223 Q145 180 158.5 146.5 Q172 113 198 90 Q224 67 260.5 55 Q297 43 337 43 Z " />
<glyph glyph-name="quotesingle" unicode="&#x27;" horiz-adv-x="233" d="M148 546 L200 633 Q184 637 174 650.5 Q164 664 167 683 Q170 704 186.5 719 Q203 734 223 734 Q237 734 247 727 Q257 720 262 709 Q267 698 265.5 684 Q264 670 256 657 L178 530 L148 546 Z " />
<glyph glyph-name="parenleft" unicode="&#x28;" horiz-adv-x="351" d="M205 351 Q188 230 208 120 Q228 10 280 -81 L265 -186 Q187 -77 155 59.5 Q123 196 144 351 Q166 505 236.5 642 Q307 779 416 888 L401 783 Q324 692 273 582 Q222 472 205 351 Z " />
<glyph glyph-name="parenright" unicode="&#x29;" horiz-adv-x="351" d="M244 351 Q261 472 241 582 Q221 692 170 783 L185 888 Q262 779 294.5 642.5 Q327 506 305 351 Q284 197 213 60 Q142 -77 34 -186 L49 -81 Q125 10 176 120 Q227 230 244 351 Z " />
<glyph glyph-name="asterisk" unicode="&#x2a;" horiz-adv-x="404" d="M302 595 L213 495 L183 524 L269 620 L158 664 L181 705 L288 663 L305 782 L351 782 L334 663 L453 705 L464 664 L342 620 L401 524 L363 495 L302 595 Z " />
<glyph glyph-name="plus" unicode="&#x2b;" horiz-adv-x="612" d="M130 228 L138 284 L330 284 L357 476 L416 476 L389 284 L581 284 L573 228 L381 228 L354 36 L295 36 L322 228 L130 228 Z " />
<glyph glyph-name="comma" unicode="&#x2c;" horiz-adv-x="207" d="M46 -77 L99 10 Q83 14 73 28 Q63 42 65 60 Q68 81 85 96 Q102 111 123 111 Q137 111 147 104 Q157 97 162 86 Q167 75 165.5 61.5 Q164 48 155 34 L78 -93 L46 -77 Z " />
<glyph glyph-name="hyphen" unicode="&#x2d;" horiz-adv-x="612" d="M82 228 L90 284 L602 284 L594 228 L82 228 Z " />
<glyph glyph-name="period" unicode="&#x2e;" horiz-adv-x="201" d="M57 51 Q60 71 77 86 Q94 101 115 101 Q135 101 148 86 Q161 71 158 51 Q155 30 138 15 Q121 0 101 0 Q80 0 67 15 Q54 30 57 51 Z " />
<glyph glyph-name="slash" unicode="&#x2f;" horiz-adv-x="265" d="M326 742 L26 -26 L-34 -26 L266 742 L326 742 Z " />
<glyph glyph-name="zero" unicode="0" horiz-adv-x="682" d="M108 379 Q119 453 145 523 Q171 593 214 648 Q257 703 315.5 736 Q374 769 448 769 Q522 769 571.5 736 Q621 703 648.5 648.5 Q676 594 683.5 523.5 Q691 453 680 379 Q670 305 643 234.5 Q616 164 573 109.5 Q530 55 471 21.5 Q412 -12 338 -12 Q264 -12 215 21.5 Q166 55 138.5 109.5 Q111 164 104.5 234.5 Q98 305 108 379 Z M347 46 Q399 46 444 71 Q489 96 523.5 140 Q558 184 581.5 245.5 Q605 307 615 379 Q626 452 619.5 513 Q613 574 590.5 618.5 Q568 663 530.5 687.5 Q493 712 440 712 Q387 712 343 687.5 Q299 663 264.5 618.5 Q230 574 207 513 Q184 452 173 379 Q163 306 169 245 Q175 184 197 139.5 Q219 95 256.5 70.5 Q294 46 347 46 Z " />
<glyph glyph-name="one" unicode="1" horiz-adv-x="448" d="M137 581 L144 633 L255 633 Q268 633 277.5 642.5 Q287 652 289 667 L301 757 L360 757 L262 54 L401 54 L393 0 L55 0 L63 54 L202 54 L276 581 L137 581 Z " />
<glyph glyph-name="two" unicode="2" horiz-adv-x="635" d="M575 0 L64 0 L69 36 L443 321 Q502 366 541 410.5 Q580 455 588 512 Q594 555 584 591.5 Q574 628 552 654 Q530 680 496 694.5 Q462 709 420 709 Q378 709 339.5 693.5 Q301 678 271 651 Q241 624 221 588 Q201 552 195 512 L136 512 Q143 564 169 611 Q195 658 234.5 692.5 Q274 727 324 747.5 Q374 768 428 768 Q484 768 528 748 Q572 728 601.5 693.5 Q631 659 643.5 612.5 Q656 566 648 512 Q643 476 628 444.5 Q613 413 590 384 Q567 355 537 328.5 Q507 302 473 275 L174 53 L582 53 L575 0 Z " />
<glyph glyph-name="three" unicode="3" horiz-adv-x="661" d="M163 560 Q169 605 192.5 644.5 Q216 684 251.5 713.5 Q287 743 333.5 760 Q380 777 432 777 Q487 777 529.5 761 Q572 745 599.5 717 Q627 689 638.5 650.5 Q650 612 644 567 Q640 542 628 516 Q616 490 597.5 467.5 Q579 445 554 428.5 Q529 412 500 405 Q539 396 566 377 Q593 358 609 332.5 Q625 307 630.5 277.5 Q636 248 632 220 Q624 165 598 121 Q572 77 531.5 46 Q491 15 437 -2 Q383 -19 320 -19 Q263 -19 215 0 Q167 19 134 52.5 Q101 86 85.5 132.5 Q70 179 78 234 L141 234 Q135 195 146 159.5 Q157 124 182 97 Q207 70 244 54 Q281 38 328 38 Q432 38 493.5 87.5 Q555 137 569 218 Q574 251 566 279 Q558 307 535.5 327.5 Q513 348 474.5 360 Q436 372 382 372 L301 372 L309 426 L384 426 Q426 426 461 437 Q496 448 521.5 467 Q547 486 562.5 511 Q578 536 582 565 Q587 598 578.5 626.5 Q570 655 550 676 Q530 697 498.5 709 Q467 721 427 721 Q383 721 348 708 Q313 695 287 672.5 Q261 650 245 621 Q229 592 225 560 L163 560 Z " />
<glyph glyph-name="four" unicode="4" horiz-adv-x="571" d="M573 160 L445 160 L423 0 L364 0 L386 160 L48 160 L36 186 L470 757 L529 757 L453 214 L581 214 L573 160 Z M121 214 L394 214 L455 651 L121 214 Z " />
<glyph glyph-name="five" unicode="5" horiz-adv-x="635" d="M326 50 Q366 50 404 65 Q442 80 473 107 Q504 134 525 170.5 Q546 207 552 250 Q558 292 550 329.5 Q542 367 520.5 395 Q499 423 465.5 439.5 Q432 456 386 456 Q323 456 272.5 425.5 Q222 395 191 346 L123 346 L228 757 L617 757 L610 704 L270 704 L191 408 Q224 450 277.5 481 Q331 512 397 512 Q454 512 497.5 491.5 Q541 471 568.5 435.5 Q596 400 607 352.5 Q618 305 610 250 Q603 198 576.5 151.5 Q550 105 510.5 70 Q471 35 421 14.5 Q371 -6 318 -6 Q273 -6 235.5 8 Q198 22 169.5 47.5 Q141 73 123.5 108.5 Q106 144 101 186 L163 186 Q168 154 182.5 129 Q197 104 218.5 86.5 Q240 69 267.5 59.5 Q295 50 326 50 Z " />
<glyph glyph-name="six" unicode="6" horiz-adv-x="643" d="M105 245 Q111 288 131.5 325.5 Q152 363 178 398 L444 760 L508 760 L292 463 Q326 478 360 484 Q394 490 426 488 Q471 485 509.5 466 Q548 447 574.5 415 Q601 383 613 340 Q625 297 617 245 Q610 192 583.5 145.5 Q557 99 517 64 Q477 29 427.5 9 Q378 -11 325 -11 Q272 -11 228.5 9 Q185 29 155 64 Q125 99 111.5 145.5 Q98 192 105 245 Z M558 245 Q564 285 554.5 320.5 Q545 356 522.5 382.5 Q500 409 467.5 424 Q435 439 394 439 Q354 439 315.5 425 Q277 411 245.5 385.5 Q214 360 192 324 Q170 288 164 245 Q159 205 169.5 169.5 Q180 134 202.5 107 Q225 80 259 64.5 Q293 49 334 49 Q374 49 412 64.5 Q450 80 481 107 Q512 134 532.5 169.5 Q553 205 558 245 Z " />
<glyph glyph-name="seven" unicode="7" horiz-adv-x="560" d="M156 0 L550 705 L129 705 L136 757 L621 757 L629 743 L219 0 L156 0 Z " />
<glyph glyph-name="eight" unicode="8" horiz-adv-x="617" d="M608 566 Q604 540 592 514.5 Q580 489 561 466.5 Q542 444 516.5 426.5 Q491 409 461 400 Q498 391 525 370 Q552 349 568.5 321.5 Q585 294 591.5 262.5 Q598 231 594 200 Q587 148 561.5 105.5 Q536 63 496.5 32.5 Q457 2 406.5 -15 Q356 -32 299 -32 Q241 -32 194.5 -15 Q148 2 118 32.5 Q88 63 74.5 105.5 Q61 148 68 200 Q72 231 87.5 262.5 Q103 294 127.5 321.5 Q152 349 185 370 Q218 391 257 400 Q228 409 208 426.5 Q188 444 175.5 466.5 Q163 489 158.5 514.5 Q154 540 158 566 Q164 609 186 645.5 Q208 682 241.5 709 Q275 736 318.5 751.5 Q362 767 411 767 Q460 767 498.5 751.5 Q537 736 563.5 709 Q590 682 602 645.5 Q614 609 608 566 Z M306 22 Q346 22 384.5 33.5 Q423 45 454.5 67.5 Q486 90 507 123 Q528 156 534 199 Q539 234 529.5 265.5 Q520 297 497 320.5 Q474 344 438.5 358 Q403 372 355 372 Q307 372 267.5 358 Q228 344 199 320.5 Q170 297 152 265.5 Q134 234 129 199 Q123 157 134.5 124 Q146 91 170.5 68.5 Q195 46 230 34 Q265 22 306 22 Z M362 422 Q396 422 428.5 434 Q461 446 485.5 466 Q510 486 527 512 Q544 538 548 567 Q552 600 543 627 Q534 654 514.5 673.5 Q495 693 466 703.5 Q437 714 403 714 Q365 714 333 702.5 Q301 691 277 671 Q253 651 238 624.5 Q223 598 219 567 Q215 539 223 513 Q231 487 250.5 466.5 Q270 446 298 434 Q326 422 362 422 Z " />
<glyph glyph-name="nine" unicode="9" horiz-adv-x="620" d="M648 511 Q642 468 621.5 430.5 Q601 393 575 358 L310 -1 L246 -1 L461 293 Q392 264 328 269 Q282 272 243.5 290.5 Q205 309 178.5 341 Q152 373 140.5 416.5 Q129 460 136 511 Q143 564 169.5 610.5 Q196 657 236 692 Q276 727 325.5 747 Q375 767 428 767 Q481 767 524.5 747 Q568 727 598 692 Q628 657 641.5 610.5 Q655 564 648 511 Z M195 511 Q189 470 198.5 435 Q208 400 230.5 373.5 Q253 347 286 332 Q319 317 360 317 Q400 317 438.5 331.5 Q477 346 508.5 371.5 Q540 397 561.5 432.5 Q583 468 589 511 Q594 551 584 587 Q574 623 551 650 Q528 677 494.5 692.5 Q461 708 420 708 Q379 708 341 692.5 Q303 677 272.5 650 Q242 623 221 587 Q200 551 195 511 Z " />
<glyph glyph-name="colon" unicode="&#x3a;" horiz-adv-x="201" d="M57 51 Q60 71 77 86 Q94 101 115 101 Q135 101 148 86 Q161 71 158 51 Q155 30 138 15 Q121 0 101 0 Q80 0 67 15 Q54 30 57 51 Z M102 371 Q105 391 122 406 Q139 421 160 421 Q180 421 193 406 Q206 391 203 371 Q200 350 183 335 Q166 320 146 320 Q125 320 112 335 Q99 350 102 371 Z " />
<glyph glyph-name="semicolon" unicode="&#x3b;" horiz-adv-x="207" d="M46 -77 L99 10 Q83 14 73 28 Q63 42 65 60 Q68 81 85 96 Q102 111 123 111 Q137 111 147 104 Q157 97 162 86 Q167 75 165.5 61.5 Q164 48 155 34 L78 -93 L46 -77 Z M105 371 Q108 391 125 406 Q142 421 162 421 Q183 421 196 406 Q209 391 206 371 Q203 350 186 335 Q169 320 148 320 Q128 320 115 335 Q102 350 105 371 Z " />
<glyph glyph-name="less" unicode="&#x3c;" horiz-adv-x="424" d="M378 512 L442 512 L444 501 L165 256 L376 11 L370 0 L306 0 L86 256 L378 512 Z " />
<glyph glyph-name="equal" unicode="&#x3d;" horiz-adv-x="612" d="M92 102 L100 158 L556 158 L548 102 L92 102 Z M128 354 L136 411 L592 411 L584 354 L128 354 Z " />
<glyph glyph-name="question" unicode="&#x3f;" horiz-adv-x="592" d="M268 307 L325 307 Q367 307 406 322.5 Q445 338 475.5 365 Q506 392 526.5 428.5 Q547 465 553 507 Q559 549 548.5 585.5 Q538 622 515 649 Q492 676 457.5 691.5 Q423 707 381 707 Q339 707 300.5 691.5 Q262 676 231 649 Q200 622 179.5 585.5 Q159 549 153 507 L92 507 Q100 561 127 609 Q154 657 194 692 Q234 727 285 747.5 Q336 768 390 768 Q444 768 489 747.5 Q534 727 564 692 Q594 657 608 609 Q622 561 614 507 Q607 453 579.5 405 Q552 357 512 322 Q472 287 421.5 266.5 Q371 246 317 246 L260 246 L268 307 Z M241 51 Q244 71 261 86 Q278 101 299 101 Q320 101 333 86 Q346 71 343 51 Q340 30 323 15 Q306 0 285 0 Q264 0 251 15 Q238 30 241 51 Z " />
<glyph glyph-name="at" unicode="&#x40;" horiz-adv-x="1095" d="M372 344 Q378 386 400 423 Q422 460 453.5 487.5 Q485 515 525.5 531 Q566 547 608 547 Q658 547 699.5 522 Q741 497 762 443 L787 535 L844 535 L794 341 Q783 294 785 260.5 Q787 227 798.5 206 Q810 185 830 175 Q850 165 877 165 Q903 165 928.5 179 Q954 193 976.5 223 Q999 253 1015.5 299.5 Q1032 346 1040 411 Q1049 488 1026.5 552 Q1004 616 954 661.5 Q904 707 830 732.5 Q756 758 663 758 Q562 758 475.5 727.5 Q389 697 322.5 641 Q256 585 214 507 Q172 429 160 334 Q150 256 170.5 185 Q191 114 242 60.5 Q293 7 375 -24.5 Q457 -56 571 -55 Q600 -55 630.5 -52.5 Q661 -50 692 -45 Q690 -59 688.5 -72.5 Q687 -86 685 -99 Q650 -104 621.5 -107 Q593 -110 561 -111 Q444 -113 351.5 -80 Q259 -47 198.5 12 Q138 71 111 154 Q84 237 97 336 Q113 448 163 537 Q213 626 288.5 688 Q364 750 462 783 Q560 816 670 816 Q788 816 874.5 781.5 Q961 747 1015 690 Q1069 633 1091.5 560.5 Q1114 488 1103 412 Q1091 329 1067 270.5 Q1043 212 1011.5 175.5 Q980 139 943 122.5 Q906 106 869 106 Q832 106 806.5 118.5 Q781 131 765.5 150.5 Q750 170 743 194 Q736 218 736 242 Q702 192 650.5 167 Q599 142 550 142 Q507 142 471.5 156.5 Q436 171 412 198 Q388 225 377 262 Q366 299 372 344 Z M433 344 Q424 274 460 235.5 Q496 197 562 197 Q595 197 624.5 207.5 Q654 218 676.5 237.5 Q699 257 714.5 284 Q730 311 734 344 Q739 374 731.5 401 Q724 428 706.5 448 Q689 468 663 480 Q637 492 604 492 Q571 492 542 479.5 Q513 467 490 446 Q467 425 452 398.5 Q437 372 433 344 Z " />
<glyph glyph-name="A" unicode="A" horiz-adv-x="692" d="M611 0 L567 163 L171 163 L81 0 L17 0 L414 735 L483 735 L675 0 L611 0 Z M439 665 L199 217 L554 217 L439 665 Z " />
<glyph glyph-name="B" unicode="B" horiz-adv-x="621" d="M87 0 L190 735 L442 735 Q486 735 521 719.5 Q556 704 578.5 677.5 Q601 651 611.5 616 Q622 581 616 541 Q613 516 602.5 491.5 Q592 467 576 446 Q560 425 539 409 Q518 393 494 384 Q526 375 549 356 Q572 337 587 312.5 Q602 288 607.5 259.5 Q613 231 609 201 Q603 159 583 122.5 Q563 86 532 59 Q501 32 462 16 Q423 0 380 0 L87 0 Z M154 55 L385 55 Q416 55 444 66 Q472 77 493.5 96.5 Q515 116 530 142.5 Q545 169 549 199 Q553 231 545 258.5 Q537 286 519 306.5 Q501 327 473.5 338.5 Q446 350 412 350 L195 350 L154 55 Z M203 404 L392 404 Q458 404 503.5 441 Q549 478 558 541 Q562 569 555 594.5 Q548 620 531.5 639.5 Q515 659 489.5 670 Q464 681 431 681 L242 681 L203 404 Z " />
<glyph glyph-name="C" unicode="C" horiz-adv-x="730" d="M162 367 Q152 299 169 240.5 Q186 182 223 139 Q260 96 314.5 71.5 Q369 47 435 47 Q502 47 562 72.5 Q622 98 673 141 L707 99 Q649 48 576.5 18.5 Q504 -11 424 -11 Q344 -11 279.5 18.5 Q215 48 171 99 Q127 150 107.5 219 Q88 288 100 367 Q111 446 149 515 Q187 584 245.5 635.5 Q304 687 377 716.5 Q450 746 531 746 Q612 746 675.5 716.5 Q739 687 782 636 L736 594 Q700 637 645.5 662 Q591 687 525 687 Q457 687 395.5 662.5 Q334 638 285 594.5 Q236 551 203.5 492.5 Q171 434 162 367 Z " />
<glyph glyph-name="D" unicode="D" horiz-adv-x="700" d="M90 0 L193 735 L392 735 Q468 735 530.5 706 Q593 677 636 627 Q679 577 698.5 510.5 Q718 444 708 368 Q697 292 658.5 225 Q620 158 563 108 Q506 58 435.5 29 Q365 0 289 0 L90 0 Z M247 678 L160 57 L295 57 Q360 57 419.5 81.5 Q479 106 526.5 148 Q574 190 606 246.5 Q638 303 647 368 Q656 432 640 488.5 Q624 545 588 587 Q552 629 499 653.5 Q446 678 382 678 L247 678 Z " />
<glyph glyph-name="E" unicode="E" horiz-adv-x="566" d="M193 735 L622 735 L615 681 L250 681 L210 398 L549 398 L542 346 L203 346 L162 54 L527 54 L519 0 L90 0 L193 735 Z " />
<glyph glyph-name="F" unicode="F" horiz-adv-x="526" d="M193 735 L603 735 L596 681 L248 681 L208 398 L530 398 L523 346 L201 346 L152 0 L90 0 L193 735 Z " />
<glyph glyph-name="G" unicode="G" horiz-adv-x="849" d="M160 368 Q150 299 167 240 Q184 181 222 138.5 Q260 96 315.5 71.5 Q371 47 436 47 Q503 47 561.5 67.5 Q620 88 666 126 Q712 164 742.5 219 Q773 274 784 343 L510 343 L518 398 L852 398 Q852 390 851 382.5 Q850 375 849 367 Q836 274 797 203.5 Q758 133 701 85 Q644 37 573.5 12.5 Q503 -12 427 -12 Q345 -12 280 18 Q215 48 171 100 Q127 152 108 221 Q89 290 100 368 Q111 448 149 517 Q187 586 245 636.5 Q303 687 376.5 716 Q450 745 532 745 Q605 745 664 722 Q723 699 767 655 L723 616 Q685 651 637.5 670 Q590 689 524 689 Q455 689 393.5 664.5 Q332 640 283 597 Q234 554 201.5 495.5 Q169 437 160 368 Z " />
<glyph glyph-name="H" unicode="H" horiz-adv-x="740" d="M87 0 L190 734 L254 734 L207 398 L645 398 L692 735 L756 735 L653 0 L589 0 L638 346 L200 346 L151 0 L87 0 Z " />
<glyph glyph-name="I" unicode="I" horiz-adv-x="418" d="M135 681 L142 735 L482 735 L475 681 L337 681 L249 54 L387 54 L379 0 L39 0 L47 54 L185 54 L273 681 L135 681 Z " />
<glyph glyph-name="J" unicode="J" horiz-adv-x="501" d="M107 188 Q103 160 110.5 135 Q118 110 134.5 91.5 Q151 73 174.5 62 Q198 51 226 51 Q254 51 280.5 62 Q307 73 328 91.5 Q349 110 363.5 135 Q378 160 382 188 L459 735 L520 735 L443 188 Q438 147 417.5 111 Q397 75 366 48 Q335 21 297 5.5 Q259 -10 218 -10 Q177 -10 143 5.5 Q109 21 86 48 Q63 75 52.5 111 Q42 147 47 188 L107 188 Z " />
<glyph glyph-name="K" unicode="K" horiz-adv-x="655" d="M197 346 L148 0 L87 0 L190 735 L251 735 L204 398 L403 398 L648 735 L716 735 L453 374 L615 0 L547 0 L397 346 L197 346 Z " />
<glyph glyph-name="L" unicode="L" horiz-adv-x="454" d="M434 0 L87 0 L190 735 L252 735 L157 54 L442 54 L434 0 Z " />
<glyph glyph-name="M" unicode="M" horiz-adv-x="858" d="M710 0 L795 605 L474 323 L233 605 L148 0 L87 0 L190 735 L201 739 L486 406 L864 739 L874 735 L771 0 L710 0 Z " />
<glyph glyph-name="N" unicode="N" horiz-adv-x="796" d="M750 735 L812 735 L710 5 L697 -1 L233 601 L149 0 L87 0 L190 730 L201 735 L666 134 L750 735 Z " />
<glyph glyph-name="O" unicode="O" horiz-adv-x="864" d="M104 368 Q115 446 154.5 515.5 Q194 585 253 636.5 Q312 688 385.5 718 Q459 748 537 748 Q615 748 680.5 718 Q746 688 790 636.5 Q834 585 854.5 515.5 Q875 446 864 368 Q853 290 813 220.5 Q773 151 714.5 99.5 Q656 48 582 18 Q508 -12 430 -12 Q352 -12 287 18 Q222 48 177.5 99.5 Q133 151 113 220.5 Q93 290 104 368 Z M167 368 Q158 303 174.5 245 Q191 187 228 144 Q265 101 319.5 76 Q374 51 439 51 Q504 51 565.5 76 Q627 101 676 144 Q725 187 758.5 245 Q792 303 801 368 Q810 433 793 491 Q776 549 739 592 Q702 635 647.5 660 Q593 685 528 685 Q463 685 401.5 660 Q340 635 291 592 Q242 549 209 491 Q176 433 167 368 Z " />
<glyph glyph-name="P" unicode="P" horiz-adv-x="599" d="M183 242 L149 0 L87 0 L190 735 L434 735 Q487 735 530 715.5 Q573 696 601.5 662.5 Q630 629 643 584 Q656 539 649 488 Q641 437 616 392 Q591 347 552.5 313.5 Q514 280 466 261 Q418 242 365 242 L183 242 Z M369 295 Q410 295 448 309.5 Q486 324 515 349.5 Q544 375 563.5 410.5 Q583 446 589 488 Q594 530 584.5 565.5 Q575 601 553.5 626.5 Q532 652 498.5 666.5 Q465 681 424 681 L245 681 L190 295 L369 295 Z " />
<glyph glyph-name="Q" unicode="Q" horiz-adv-x="857" d="M100 368 Q111 446 150.5 515.5 Q190 585 249 636.5 Q308 688 381.5 718 Q455 748 533 748 Q612 748 677 718 Q742 688 786.5 636.5 Q831 585 851.5 515.5 Q872 446 861 368 Q850 294 814.5 229 Q779 164 726 113.5 Q673 63 606 30.5 Q539 -2 467 -9 L464 -25 Q456 -82 485 -117.5 Q514 -153 570 -153 Q626 -153 665 -120 Q704 -87 712 -25 L771 -25 Q765 -68 746.5 -102.5 Q728 -137 700 -161.5 Q672 -186 636 -199 Q600 -212 561 -212 Q522 -212 491 -198 Q460 -184 439 -159 Q418 -134 409 -99.5 Q400 -65 405 -25 L407 -11 Q333 -7 271.5 24 Q210 55 168 106 Q126 157 107.5 224.5 Q89 292 100 368 Z M163 368 Q154 303 170.5 245 Q187 187 224 144 Q261 101 315.5 76 Q370 51 435 51 Q501 51 562 76 Q623 101 672 144 Q721 187 754.5 245 Q788 303 797 368 Q806 433 789 491 Q772 549 735 592 Q698 635 644 660 Q590 685 524 685 Q459 685 397.5 660 Q336 635 287 592 Q238 549 205 491 Q172 433 163 368 Z " />
<glyph glyph-name="R" unicode="R" horiz-adv-x="671" d="M149 0 L87 0 L190 735 L494 735 Q542 735 581.5 717 Q621 699 648 667.5 Q675 636 687.5 594 Q700 552 693 504 Q682 425 631 368 Q580 311 504 286 L614 0 L548 0 L442 274 L188 274 L149 0 Z M432 327 Q470 327 504.5 341 Q539 355 566 379 Q593 403 610.5 435.5 Q628 468 633 504 Q638 541 629 573 Q620 605 599.5 629 Q579 653 549 667 Q519 681 482 681 L245 681 L195 327 L432 327 Z " />
<glyph glyph-name="S" unicode="S" horiz-adv-x="594" d="M315 -16 Q234 -16 172.5 13.5 Q111 43 71 92 L121 131 Q201 44 324 44 Q405 44 456 78 Q507 112 514 167 Q521 216 495 250 Q469 284 409 309 L268 369 Q188 403 155.5 451 Q123 499 133 566 Q138 607 160.5 641 Q183 675 218 700 Q253 725 299.5 738.5 Q346 752 400 752 Q458 752 500.5 733.5 Q543 715 571 685 Q599 655 610.5 616.5 Q622 578 616 537 L556 537 Q560 565 552 593 Q544 621 524 643.5 Q504 666 471 680 Q438 694 392 694 Q352 694 318 684.5 Q284 675 258 658.5 Q232 642 216 618 Q200 594 197 566 Q190 518 212 486 Q234 454 295 428 L439 366 Q522 330 554.5 281 Q587 232 577 167 Q571 122 548 88 Q525 54 489 30.5 Q453 7 408.5 -4.5 Q364 -16 315 -16 Z " />
<glyph glyph-name="T" unicode="T" horiz-adv-x="525" d="M609 735 L602 681 L390 681 L294 0 L232 0 L328 681 L115 681 L122 735 L609 735 Z " />
<glyph glyph-name="U" unicode="U" horiz-adv-x="767" d="M173 305 Q165 251 177.5 204 Q190 157 219 122.5 Q248 88 292 68.5 Q336 49 390 49 Q445 49 494 68.5 Q543 88 582 122.5 Q621 157 646.5 204 Q672 251 680 305 L740 735 L802 735 L742 305 Q733 239 700.5 181.5 Q668 124 620 81.5 Q572 39 510.5 14 Q449 -11 381 -11 Q313 -11 258.5 14 Q204 39 168 81.5 Q132 124 116.5 181.5 Q101 239 110 305 L170 735 L233 735 L173 305 Z " />
<glyph glyph-name="V" unicode="V" horiz-adv-x="681" d="M388 0 L293 0 L118 735 L181 735 L346 46 L705 735 L769 735 L388 0 Z " />
<glyph glyph-name="W" unicode="W" horiz-adv-x="900" d="M663 63 L670 63 L922 735 L985 735 L706 0 L611 0 L544 644 L538 644 L289 0 L194 0 L121 735 L184 735 L248 63 L254 63 L515 735 L591 735 L663 63 Z " />
<glyph glyph-name="X" unicode="X" horiz-adv-x="614" d="M87 0 L17 0 L324 387 L145 735 L215 735 L368 438 L604 735 L674 735 L397 387 L597 0 L526 0 L353 336 L87 0 Z " />
<glyph glyph-name="Y" unicode="Y" horiz-adv-x="583" d="M262 0 L292 212 L118 735 L183 735 L333 292 L607 735 L671 735 L352 212 L322 0 L262 0 Z " />
<glyph glyph-name="Z" unicode="Z" horiz-adv-x="610" d="M132 346 L139 398 L347 398 L579 681 L145 681 L152 735 L655 735 L665 709 L415 398 L583 398 L576 346 L376 346 L138 54 L569 54 L561 0 L58 0 L49 26 L308 346 L132 346 Z " />
<glyph glyph-name="bracketleft" unicode="&#x5b;" horiz-adv-x="411" d="M217 896 L473 896 L465 839 L269 839 L141 -71 L337 -71 L329 -128 L73 -128 L217 896 Z " />
<glyph glyph-name="bracketright" unicode="&#x5d;" horiz-adv-x="411" d="M329 -128 L73 -128 L81 -71 L278 -71 L406 839 L209 839 L217 896 L473 896 L329 -128 Z " />
<glyph glyph-name="asciicircum" unicode="&#x5e;" horiz-adv-x="372" d="M277 655 L174 564 L136 609 L291 745 L408 609 L356 564 L277 655 Z " />
<glyph glyph-name="underscore" unicode="&#x5f;" horiz-adv-x="612" d="M50 0 L58 57 L542 57 L534 0 L50 0 Z " />
<glyph glyph-name="a" unicode="a" horiz-adv-x="558" d="M441 121 Q427 94 405 70.5 Q383 47 355 29 Q327 11 293.5 1 Q260 -9 224 -9 Q182 -9 150 2.5 Q118 14 97.5 34.5 Q77 55 68.5 82.5 Q60 110 65 142 Q69 169 83.5 194 Q98 219 124 237.5 Q150 256 187 267 Q224 278 273 278 L461 278 L464 300 Q468 330 463.5 359 Q459 388 443.5 410.5 Q428 433 401.5 447 Q375 461 335 461 Q296 461 261 447 Q226 433 196 408 L164 445 Q201 477 247 496 Q293 515 342 515 Q394 515 431.5 497 Q469 479 491 449 Q513 419 521 380.5 Q529 342 523 301 L481 0 L424 0 L441 121 Z M125 142 Q119 98 150.5 70 Q182 42 239 42 Q274 42 309.5 54 Q345 66 375 90 Q405 114 426.5 149 Q448 184 454 230 L266 230 Q199 230 164.5 204.5 Q130 179 125 142 Z " />
<glyph glyph-name="b" unicode="b" horiz-adv-x="644" d="M627 256 Q620 203 593.5 156 Q567 109 528 74.5 Q489 40 438.5 20 Q388 0 333 0 Q300 0 272.5 9 Q245 18 223 33 Q201 48 185 67.5 Q169 87 161 107 L146 0 L87 0 L195 768 L254 768 L203 406 Q217 427 238.5 446 Q260 465 286.5 479.5 Q313 494 343.5 503 Q374 512 405 512 Q460 512 504.5 492 Q549 472 579 437.5 Q609 403 621.5 356 Q634 309 627 256 Z M169 256 Q163 213 173 176 Q183 139 205 112 Q227 85 260.5 69.5 Q294 54 335 54 Q378 54 417 69.5 Q456 85 487.5 112 Q519 139 540 176 Q561 213 567 256 Q573 299 562 336 Q551 373 527.5 400 Q504 427 469 442.5 Q434 458 391 458 Q350 458 312.5 442.5 Q275 427 245 400 Q215 373 195 336 Q175 299 169 256 Z " />
<glyph glyph-name="c" unicode="c" horiz-adv-x="536" d="M512 67 Q471 30 421.5 10 Q372 -10 315 -10 Q260 -10 214 11 Q168 32 137.5 68 Q107 104 92.5 152.5 Q78 201 86 256 Q94 311 121.5 359.5 Q149 408 190 444 Q231 480 282.5 501 Q334 522 389 522 Q448 522 494 500 Q540 478 570 440 L523 400 Q499 430 463 446.5 Q427 463 381 463 Q338 463 297.5 446.5 Q257 430 225.5 402 Q194 374 172.5 336.5 Q151 299 145 256 Q139 213 149.5 175 Q160 137 184 109 Q208 81 244 65 Q280 49 323 49 Q369 49 407.5 64.5 Q446 80 479 108 L512 67 Z " />
<glyph glyph-name="d" unicode="d" horiz-adv-x="644" d="M89 256 Q96 309 122.5 356 Q149 403 188 437.5 Q227 472 277.5 492 Q328 512 383 512 Q414 512 441.5 503 Q469 494 491.5 479.5 Q514 465 530.5 446 Q547 427 555 406 L606 768 L665 768 L557 0 L498 0 L513 107 Q499 87 478 67.5 Q457 48 431 33 Q405 18 374.5 9 Q344 0 311 0 Q256 0 211.5 20 Q167 40 137 74.5 Q107 109 94.5 156 Q82 203 89 256 Z M547 256 Q553 299 543 336 Q533 373 511 400 Q489 427 455.5 442.5 Q422 458 381 458 Q338 458 299 442.5 Q260 427 228.5 400 Q197 373 176 336 Q155 299 149 256 Q143 213 154 176 Q165 139 188.5 112 Q212 85 247 69.5 Q282 54 325 54 Q366 54 403.5 69.5 Q441 85 471 112 Q501 139 521 176 Q541 213 547 256 Z " />
<glyph glyph-name="e" unicode="e" horiz-adv-x="602" d="M595 254 Q594 249 592.5 241.5 Q591 234 589 229 L147 229 Q141 188 153.5 154 Q166 120 190 96 Q214 72 247 58.5 Q280 45 317 45 Q364 45 402 59.5 Q440 74 473 97 L506 60 Q465 27 416 8.5 Q367 -10 309 -10 Q262 -10 218 7 Q174 24 142.5 58 Q111 92 95.5 141.5 Q80 191 89 256 Q97 311 121.5 359.5 Q146 408 184 444 Q222 480 271.5 500.5 Q321 521 378 521 Q437 521 481 499 Q525 477 553 440.5 Q581 404 591.5 355.5 Q602 307 595 254 Z M372 468 Q329 468 292 453 Q255 438 226 412.5 Q197 387 178.5 352 Q160 317 154 278 L537 278 Q542 315 533 349.5 Q524 384 502 410 Q480 436 447.5 452 Q415 468 372 468 Z " />
<glyph glyph-name="f" unicode="f" horiz-adv-x="335" d="M369 713 Q331 713 299.5 684.5 Q268 656 262 610 L248 512 L394 512 L387 460 L241 460 L176 0 L117 0 L182 460 L91 460 L98 512 L189 512 L202 607 Q207 639 221.5 668.5 Q236 698 259 720 Q282 742 312.5 755 Q343 768 378 768 Q392 768 405 767 Q418 766 426 764 L419 713 L369 713 Z " />
<glyph glyph-name="g" unicode="g" horiz-adv-x="557" d="M114 329 Q120 372 142 410 Q164 448 196 476.5 Q228 505 268 521.5 Q308 538 351 538 Q389 538 421 525 Q453 512 477 489 Q508 502 539 507 Q570 512 607 512 L615 512 L608 460 L494 460 Q515 435 525.5 401 Q536 367 530 329 Q524 286 502.5 248.5 Q481 211 448.5 183 Q416 155 375.5 138.5 Q335 122 292 122 Q258 122 226 135.5 Q194 149 174 170 Q136 158 113.5 136.5 Q91 115 87 84 Q82 51 100.5 33 Q119 15 158 15 L355 15 Q441 15 479 -23 Q517 -61 509 -124 Q504 -157 486.5 -183.5 Q469 -210 442 -228 Q415 -246 380 -256 Q345 -266 303 -266 Q250 -266 207.5 -250.5 Q165 -235 137 -208 Q109 -181 96.5 -143.5 Q84 -106 93 -62 L125 -41 Q75 -37 48 -7.5 Q21 22 29 73 Q36 115 68.5 148.5 Q101 182 145 197 Q125 224 117 257.5 Q109 291 114 329 Z M169 329 Q165 297 173 269.5 Q181 242 198.5 221.5 Q216 201 242 189 Q268 177 300 177 Q332 177 361.5 189 Q391 201 414.5 221.5 Q438 242 454 269.5 Q470 297 474 329 Q479 361 471 389 Q463 417 445 437.5 Q427 458 401 470 Q375 482 343 482 Q311 482 281.5 470 Q252 458 229 437.5 Q206 417 190 389 Q174 361 169 329 Z M310 -211 Q367 -211 405 -189.5 Q443 -168 450 -124 Q455 -86 429 -63.5 Q403 -41 347 -41 L144 -41 Q137 -78 146.5 -109 Q156 -140 178.5 -162.5 Q201 -185 234.5 -198 Q268 -211 310 -211 Z " />
<glyph glyph-name="h" unicode="h" horiz-adv-x="662" d="M592 0 L532 0 L569 266 Q575 306 565 341 Q555 376 532.5 402 Q510 428 477 443 Q444 458 404 458 Q365 458 328 441 Q291 424 260 395 Q229 366 208 327 Q187 288 181 244 L147 0 L87 0 L195 768 L255 768 L200 375 Q217 406 241 432 Q265 458 295 477 Q325 496 358 506 Q391 516 425 515 Q474 515 515 495 Q556 475 583.5 440.5 Q611 406 623.5 359.5 Q636 313 628 259 L592 0 Z " />
<glyph glyph-name="i" unicode="i" horiz-adv-x="248" d="M226 512 L154 0 L94 0 L166 512 L226 512 Z M178 716 Q180 736 195.5 749.5 Q211 763 231 763 Q251 763 262.5 749.5 Q274 736 272 716 Q269 696 253.5 682 Q238 668 218 668 Q198 668 186.5 682 Q175 696 178 716 Z " />
<glyph glyph-name="j" unicode="j" horiz-adv-x="248" d="M60 -242 L166 512 L226 512 L120 -242 L60 -242 Z M178 716 Q180 736 195.5 749.5 Q211 763 231 763 Q251 763 262.5 749.5 Q274 736 272 716 Q269 696 253.5 682 Q238 668 218 668 Q198 668 186.5 682 Q175 696 178 716 Z " />
<glyph glyph-name="k" unicode="k" horiz-adv-x="528" d="M254 768 L186 284 L332 284 L502 512 L566 512 L376 256 L494 0 L430 0 L324 228 L178 228 L146 0 L87 0 L195 768 L254 768 Z " />
<glyph glyph-name="l" unicode="l" horiz-adv-x="234" d="M87 0 L195 768 L255 768 L147 0 L87 0 Z " />
<glyph glyph-name="m" unicode="m" horiz-adv-x="960" d="M889 0 L828 0 L870 301 Q875 335 869 365.5 Q863 396 846 419 Q829 442 803 455 Q777 468 741 468 Q708 468 677.5 454.5 Q647 441 622.5 417.5 Q598 394 582.5 364 Q567 334 562 301 L520 0 L458 0 L500 301 Q504 330 498.5 360 Q493 390 477 414 Q461 438 434 453 Q407 468 370 468 Q334 468 302.5 452.5 Q271 437 246.5 411.5 Q222 386 206.5 351.5 Q191 317 185 280 L146 0 L87 0 L159 512 L218 512 L203 407 Q213 429 232 450 Q251 471 275 488 Q299 505 328 515.5 Q357 526 389 526 Q453 526 494.5 490.5 Q536 455 549 401 Q565 428 587.5 451 Q610 474 636.5 490.5 Q663 507 693 516.5 Q723 526 754 526 Q800 526 836 509 Q872 492 895.5 461.5 Q919 431 928.5 390 Q938 349 931 301 L889 0 Z " />
<glyph glyph-name="n" unicode="n" horiz-adv-x="652" d="M581 0 L522 0 L561 276 Q566 316 557.5 351 Q549 386 529 412 Q509 438 477 453 Q445 468 403 468 Q364 468 327 452.5 Q290 437 261 410 Q232 383 211 345.5 Q190 308 183 264 L146 0 L87 0 L159 512 L218 512 L201 390 Q212 412 233 435 Q254 458 283 477.5 Q312 497 346.5 509.5 Q381 522 419 522 Q470 522 511 503.5 Q552 485 578.5 451 Q605 417 616 370.5 Q627 324 619 268 L581 0 Z " />
<glyph glyph-name="o" unicode="o" horiz-adv-x="625" d="M86 256 Q94 311 121 358.5 Q148 406 188.5 441.5 Q229 477 280 497.5 Q331 518 385 518 Q440 518 485 497.5 Q530 477 560.5 441.5 Q591 406 605 358.5 Q619 311 611 256 Q603 201 576 153 Q549 105 508.5 69.5 Q468 34 417 13.5 Q366 -7 311 -7 Q257 -7 212 13.5 Q167 34 136.5 69.5 Q106 105 92 153 Q78 201 86 256 Z M145 256 Q139 214 150 176.5 Q161 139 185 111.5 Q209 84 243 68 Q277 52 319 52 Q361 52 400.5 68 Q440 84 472 111.5 Q504 139 525 176.5 Q546 214 552 256 Q558 298 547 335 Q536 372 512 400 Q488 428 453.5 444 Q419 460 377 460 Q335 460 296 444 Q257 428 225 400 Q193 372 172 335 Q151 298 145 256 Z " />
<glyph glyph-name="p" unicode="p" horiz-adv-x="641" d="M627 256 Q620 203 593.5 156 Q567 109 528 74.5 Q489 40 438.5 20 Q388 0 333 0 Q302 0 274.5 9 Q247 18 224.5 32.5 Q202 47 185.5 66 Q169 85 161 106 L110 -256 L51 -256 L159 512 L218 512 L203 404 Q217 425 238 444.5 Q259 464 285 479 Q311 494 341.5 503 Q372 512 405 512 Q460 512 504.5 492 Q549 472 579 437.5 Q609 403 621.5 356 Q634 309 627 256 Z M172 256 Q166 214 176 177 Q186 140 208 113 Q230 86 263 70.5 Q296 55 337 55 Q379 55 418 70.5 Q457 86 488 113 Q519 140 540 177 Q561 214 567 256 Q573 298 562 334.5 Q551 371 528 398 Q505 425 470 440.5 Q435 456 393 456 Q352 456 315 440.5 Q278 425 248 398 Q218 371 198 334.5 Q178 298 172 256 Z " />
<glyph glyph-name="q" unicode="q" horiz-adv-x="644" d="M89 256 Q96 309 122.5 356 Q149 403 188 437.5 Q227 472 277.5 492 Q328 512 383 512 Q416 512 443.5 503 Q471 494 493 479 Q515 464 531 444.5 Q547 425 555 404 L570 512 L629 512 L521 -256 L462 -256 L513 106 Q499 85 477.5 66 Q456 47 429.5 32.5 Q403 18 372.5 9 Q342 0 311 0 Q256 0 211.5 20 Q167 40 137 74.5 Q107 109 94.5 156 Q82 203 89 256 Z M544 256 Q550 298 540 334.5 Q530 371 508 398 Q486 425 453 440.5 Q420 456 379 456 Q337 456 298 440.5 Q259 425 228 398 Q197 371 176 334.5 Q155 298 149 256 Q143 214 154 177 Q165 140 188 113 Q211 86 246 70.5 Q281 55 323 55 Q364 55 401 70.5 Q438 86 468 113 Q498 140 518 177 Q538 214 544 256 Z " />
<glyph glyph-name="r" unicode="r" horiz-adv-x="343" d="M147 0 L87 0 L159 512 L211 512 L197 412 Q229 461 277.5 486.5 Q326 512 382 512 L405 512 L398 460 L375 460 Q340 460 308 448 Q276 436 251.5 414 Q227 392 210.5 362.5 Q194 333 189 297 L147 0 Z " />
<glyph glyph-name="s" unicode="s" horiz-adv-x="519" d="M172 385 Q168 358 186 336.5 Q204 315 250 300 L367 264 Q442 241 470 205 Q498 169 491 120 Q487 92 471.5 68 Q456 44 429.5 26 Q403 8 364.5 -2.5 Q326 -13 276 -13 Q241 -13 208.5 -6 Q176 1 148.5 13 Q121 25 99 41.5 Q77 58 64 77 L114 112 Q126 95 145.5 82 Q165 69 187.5 59.5 Q210 50 235 45 Q260 40 284 40 Q354 40 389.5 63.5 Q425 87 430 120 Q434 149 416.5 170.5 Q399 192 347 209 L233 245 Q166 265 135.5 301 Q105 337 112 385 Q116 413 131.5 438.5 Q147 464 175 484 Q203 504 242 516 Q281 528 331 528 Q382 528 418.5 512 Q455 496 478 472 Q501 448 510 419 Q519 390 515 363 L457 363 Q459 411 422.5 443 Q386 475 324 475 Q288 475 260.5 467.5 Q233 460 214 447 Q195 434 184.5 418 Q174 402 172 385 Z " />
<glyph glyph-name="t" unicode="t" horiz-adv-x="323" d="M128 0 L193 460 L75 460 L82 512 L200 512 L218 640 L278 640 L260 512 L378 512 L371 460 L253 460 L188 0 L128 0 Z " />
<glyph glyph-name="u" unicode="u" horiz-adv-x="653" d="M142 512 L202 512 L163 236 Q158 196 166.5 161 Q175 126 195 100 Q215 74 247 59 Q279 44 321 44 Q360 44 397 59.5 Q434 75 463 102 Q492 129 513 166.5 Q534 204 541 248 L578 512 L638 512 L566 0 L506 0 L523 122 Q512 100 491 77 Q470 54 441 34.5 Q412 15 377.5 2.5 Q343 -10 305 -10 Q254 -10 213 8.5 Q172 27 145 61 Q118 95 107 141.5 Q96 188 104 244 L142 512 Z " />
<glyph glyph-name="v" unicode="v" horiz-adv-x="532" d="M277 54 L522 512 L587 512 L309 0 L223 0 L89 512 L154 512 L271 54 L277 54 Z " />
<glyph glyph-name="w" unicode="w" horiz-adv-x="775" d="M569 54 L573 54 L767 512 L828 512 L609 0 L520 0 L449 429 L444 429 L253 0 L165 0 L89 512 L151 512 L217 54 L221 54 L425 512 L493 512 L569 54 Z " />
<glyph glyph-name="x" unicode="x" horiz-adv-x="474" d="M457 0 L387 0 L266 205 L86 0 L17 0 L237 255 L90 512 L159 512 L280 305 L459 512 L528 512 L308 255 L457 0 Z " />
<glyph glyph-name="y" unicode="y" horiz-adv-x="569" d="M292 39 L559 512 L624 512 L307 -47 L278 -256 L219 -256 L248 -48 L89 512 L154 512 L287 39 L292 39 Z " />
<glyph glyph-name="z" unicode="z" horiz-adv-x="508" d="M465 53 L458 0 L60 0 L49 25 L443 460 L126 460 L133 512 L521 512 L531 487 L138 53 L465 53 Z " />
<glyph glyph-name="bar" unicode="&#x7c;" horiz-adv-x="249" d="M221 896 L280 896 L136 -128 L77 -128 L221 896 Z " />
<glyph glyph-name="cent" unicode="&#xa2;" horiz-adv-x="556" d="M140 257 Q134 215 144.5 178.5 Q155 142 177.5 115 Q200 88 234 72.5 Q268 57 309 57 Q363 57 403 79 Q443 101 477 133 L513 95 Q477 57 429.5 32 Q382 7 329 2 L330 2 L312 -128 L250 -128 L268 3 Q221 9 183 30.5 Q145 52 120 86 Q95 120 84 163.5 Q73 207 80 256 Q87 305 110 348 Q133 391 168 425 Q203 459 247 480.5 Q291 502 339 508 L358 640 L420 640 L402 509 L401 509 Q452 504 492.5 479 Q533 454 558 416 L512 381 Q487 413 453 434 Q419 455 365 455 Q324 455 286 439.5 Q248 424 217.5 397 Q187 370 166.5 334 Q146 298 140 257 Z " />
<glyph glyph-name="sterling" unicode="&#xa3;" horiz-adv-x="570" d="M107 402 L203 402 L228 576 Q234 616 253.5 651 Q273 686 303 712 Q333 738 370 753 Q407 768 447 768 Q488 768 521.5 753 Q555 738 576.5 712 Q598 686 608 651 Q618 616 612 576 L556 576 Q560 605 553 629.5 Q546 654 530.5 672 Q515 690 491.5 700.5 Q468 711 439 711 Q412 711 386.5 700.5 Q361 690 340.5 672 Q320 654 306 630 Q292 606 288 579 L263 402 L587 402 L580 348 L256 348 L215 54 L539 54 L531 0 L147 0 L196 348 L100 348 L107 402 Z " />
<glyph glyph-name="dieresis" unicode="&#xa8;" horiz-adv-x="384" d="M143 663 Q146 684 163 699 Q180 714 201 714 Q221 714 234 699 Q247 684 244 663 Q241 642 224 627 Q207 612 187 612 Q166 612 153 627 Q140 642 143 663 Z M326 663 Q329 684 346 699 Q363 714 384 714 Q404 714 417 699 Q430 684 427 663 Q424 642 407 627 Q390 612 370 612 Q349 612 336 627 Q323 642 326 663 Z " />
<glyph glyph-name="copyright" unicode="&#xa9;" horiz-adv-x="806" d="M81 362 Q92 440 131 508 Q170 576 227.5 626.5 Q285 677 356.5 706.5 Q428 736 505 736 Q583 736 647 706.5 Q711 677 754.5 626.5 Q798 576 818 508 Q838 440 827 362 Q816 285 777 217.5 Q738 150 680.5 99.5 Q623 49 551 19.5 Q479 -10 401 -10 Q324 -10 260.5 19.5 Q197 49 153.5 99.5 Q110 150 90 217.5 Q70 285 81 362 Z M127 362 Q117 295 135 235.5 Q153 176 190.5 132 Q228 88 284 62 Q340 36 407 36 Q475 36 538.5 62 Q602 88 653 132 Q704 176 737.5 235.5 Q771 295 781 362 Q790 430 773 490 Q756 550 718 594.5 Q680 639 623.5 664.5 Q567 690 499 690 Q432 690 369 664.5 Q306 639 255.5 594.5 Q205 550 170.5 490 Q136 430 127 362 Z M312 364 Q308 334 315.5 307.5 Q323 281 340 261 Q357 241 382 229.5 Q407 218 437 218 Q478 218 507 234.5 Q536 251 562 274 L589 245 Q559 213 518 194 Q477 175 432 175 Q392 175 359.5 190 Q327 205 304.5 230.5 Q282 256 272 290.5 Q262 325 267 364 Q273 404 293 439 Q313 474 342.5 499.5 Q372 525 408.5 539.5 Q445 554 485 554 Q530 554 565.5 534.5 Q601 515 623 483 L587 456 Q568 479 543.5 495 Q519 511 478 511 Q448 511 420 499.5 Q392 488 369.5 468 Q347 448 332 421.5 Q317 395 312 364 Z " />
<glyph glyph-name="macron" unicode="&#xaf;" horiz-adv-x="391" d="M427 613 L136 613 L142 654 L433 654 L427 613 Z " />
<glyph glyph-name="degree" unicode="&#xb0;" horiz-adv-x="316" d="M138 626 Q141 648 152.5 668 Q164 688 180.5 702.5 Q197 717 217.5 725.5 Q238 734 261 734 Q283 734 302 725.5 Q321 717 333.5 702.5 Q346 688 351.5 668 Q357 648 354 626 Q351 603 339.5 583.5 Q328 564 311.5 549.5 Q295 535 274 526.5 Q253 518 231 518 Q208 518 189.5 526.5 Q171 535 158.5 549.5 Q146 564 140.5 583.5 Q135 603 138 626 Z M183 626 Q179 600 195 581.5 Q211 563 237 563 Q263 563 283.5 581.5 Q304 600 308 626 Q312 652 296.5 670 Q281 688 255 688 Q229 688 208 670 Q187 652 183 626 Z " />
<glyph glyph-name="acute" unicode="&#xb4;" horiz-adv-x="273" d="M150 571 L133 591 L270 732 Q280 743 294.5 743.5 Q309 744 317 735 Q325 725 322.5 711 Q320 697 308 688 L150 571 Z " />
<glyph glyph-name="cedilla" unicode="&#xb8;" horiz-adv-x="265" d="M109 64 L145 64 L136 -2 Q166 -7 186.5 -32.5 Q207 -58 202 -96 Q196 -138 163.5 -165 Q131 -192 91 -192 Q71 -192 55 -184.5 Q39 -177 27 -164 L56 -139 Q63 -146 73.5 -150.5 Q84 -155 96 -155 Q120 -155 140 -138.5 Q160 -122 164 -96 Q167 -70 152.5 -53.5 Q138 -37 112 -37 Q98 -37 87.5 -41.5 Q77 -46 68 -53 L46 -28 Q55 -19 69 -11.5 Q83 -4 100 -2 L109 64 Z " />
<glyph glyph-name="multiply" unicode="&#xd7;" horiz-adv-x="457" d="M105 393 L153 435 L270 299 L425 435 L462 391 L307 255 L424 120 L376 78 L259 213 L104 78 L67 121 L222 257 L105 393 Z " />
<glyph glyph-name="germandbls" unicode="&#xdf;" horiz-adv-x="665" d="M544 375 Q601 356 631.5 309.5 Q662 263 654 203 Q648 164 629 127.5 Q610 91 576 62.5 Q542 34 492.5 17 Q443 0 377 0 L316 0 L324 54 L386 54 Q434 54 470.5 66 Q507 78 533.5 98.5 Q560 119 574.5 146 Q589 173 593 202 Q597 228 589.5 253.5 Q582 279 562.5 299.5 Q543 320 512 333 Q481 346 436 346 L364 346 L371 398 L442 398 Q477 398 507 409.5 Q537 421 560.5 440.5 Q584 460 598.5 487 Q613 514 617 544 Q622 574 615 604 Q608 634 588.5 658 Q569 682 534 697 Q499 712 448 712 Q401 712 361.5 696.5 Q322 681 291.5 652.5 Q261 624 241 583.5 Q221 543 214 494 L145 0 L83 0 L152 494 Q161 557 188 608 Q215 659 255.5 694.5 Q296 730 346.5 749 Q397 768 454 768 Q518 768 563 748.5 Q608 729 635.5 697.5 Q663 666 672.5 626.5 Q682 587 677 547 Q669 488 632.5 443 Q596 398 544 375 Z " />
<glyph glyph-name="divide" unicode="&#xf7;" horiz-adv-x="542" d="M82 228 L90 284 L532 284 L524 228 L82 228 Z M231 55 Q234 75 249.5 89 Q265 103 285 103 Q305 103 317.5 89 Q330 75 327 55 Q324 35 308 21 Q292 7 272 7 Q252 7 240 21 Q228 35 231 55 Z M287 456 Q290 476 306 490 Q322 504 342 504 Q362 504 374 490 Q386 476 383 456 Q380 436 364 422 Q348 408 328 408 Q308 408 296 422 Q284 436 287 456 Z " />
<glyph glyph-name="circumflex" unicode="&#x2c6;" horiz-adv-x="372" d="M278 672 L156 564 L133 591 L288 727 L405 591 L373 564 L278 672 Z " />
<glyph glyph-name="caron" unicode="&#x2c7;" horiz-adv-x="372" d="M275 618 L396 727 L420 700 L265 564 L148 700 L179 727 L275 618 Z " />
<glyph glyph-name="breve" unicode="&#x2d8;" horiz-adv-x="334" d="M148 696 L190 696 L187 679 Q183 647 201.5 625.5 Q220 604 252 604 Q284 604 308.5 625.5 Q333 647 337 679 L340 696 L382 696 L380 681 Q376 657 364 635.5 Q352 614 334 598 Q316 582 293 573 Q270 564 246 564 Q222 564 202 573 Q182 582 168 598 Q154 614 148 635.5 Q142 657 146 681 L148 696 Z " />
<glyph glyph-name="dotaccent" unicode="&#x2d9;" horiz-adv-x="201" d="M143 663 Q146 684 163 699 Q180 714 201 714 Q221 714 234 699 Q247 684 244 663 Q241 642 224 627 Q207 612 187 612 Q166 612 153 627 Q140 642 143 663 Z " />
<glyph glyph-name="ring" unicode="&#x2da;" horiz-adv-x="292" d="M144 672 Q150 712 182 740 Q214 768 254 768 Q294 768 318 740 Q342 712 336 672 Q331 632 299 604 Q267 576 227 576 Q187 576 163 604 Q139 632 144 672 Z M181 672 Q178 647 192.5 630 Q207 613 232 613 Q257 613 276.5 630 Q296 647 299 672 Q303 697 288.5 714 Q274 731 249 731 Q224 731 204.5 714 Q185 697 181 672 Z " />
<glyph glyph-name="ogonek" unicode="&#x2db;" horiz-adv-x="322" d="M39 -77 Q43 -53 54.5 -32 Q66 -11 83.5 4.5 Q101 20 122 29 Q143 38 166 38 L161 0 Q130 0 105.5 -22.5 Q81 -45 76 -77 Q72 -109 90 -131.5 Q108 -154 139 -154 Q169 -154 194.5 -131.5 Q220 -109 224 -77 L261 -77 Q258 -101 246 -122 Q234 -143 217 -158.5 Q200 -174 178.5 -183 Q157 -192 134 -192 Q111 -192 92.5 -183 Q74 -174 61 -158.5 Q48 -143 42 -122 Q36 -101 39 -77 Z " />
<glyph glyph-name="tilde" unicode="&#x2dc;" horiz-adv-x="400" d="M366 708 Q404 708 423.5 682 Q443 656 436 616 L399 616 Q402 643 391 657 Q380 671 360 671 Q342 671 327 659.5 Q312 648 296 633.5 Q280 619 262 607.5 Q244 596 219 596 Q180 596 160.5 622 Q141 648 148 688 L186 688 Q178 633 224 633 Q241 633 255.5 644.5 Q270 656 286 670.5 Q302 685 321.5 696.5 Q341 708 366 708 Z " />
<glyph glyph-name="endash" unicode="&#x2013;" horiz-adv-x="1124" d="M82 228 L90 284 L1114 284 L1106 228 L82 228 Z " />
<glyph glyph-name="emdash" unicode="&#x2014;" horiz-adv-x="1636" d="M90 284 L1626 284 L1618 228 L82 228 L90 284 Z " />
<glyph glyph-name="quotesinglbase" unicode="&#x201a;" horiz-adv-x="167" d="M39 16 L92 103 Q76 107 66 120.5 Q56 134 59 153 Q61 174 78 189 Q95 204 116 204 Q130 204 140 197 Q150 190 155 179 Q160 168 158.5 154 Q157 140 148 127 L71 0 L39 16 Z " />
<glyph glyph-name="quotedblleft" unicode="&#x201c;" horiz-adv-x="333" d="M397 720 L344 633 Q360 629 370 615 Q380 601 378 583 Q375 562 358.5 547 Q342 532 321 532 Q307 532 297 539 Q287 546 282 557 Q277 568 278.5 581.5 Q280 595 289 609 L365 736 L397 720 Z M231 720 L178 633 Q194 629 204 615 Q214 601 212 583 Q209 562 192.5 547 Q176 532 155 532 Q141 532 131 539 Q121 546 116.5 557 Q112 568 113 581.5 Q114 595 123 609 L199 736 L231 720 Z " />
<glyph glyph-name="quotedblbase" unicode="&#x201e;" horiz-adv-x="333" d="M39 16 L92 103 Q76 107 66 120.5 Q56 134 59 153 Q61 174 78 189 Q95 204 116 204 Q130 204 140 197 Q150 190 155 179 Q160 168 158.5 154 Q157 140 148 127 L71 0 L39 16 Z M205 16 L258 103 Q241 107 231.5 120.5 Q222 134 225 153 Q227 174 244 189 Q261 204 282 204 Q296 204 306 197 Q316 190 320.5 179 Q325 168 324 154 Q323 140 314 127 L236 0 L205 16 Z " />
<glyph glyph-name="bullet" unicode="&#x2022;" horiz-adv-x="201" d="M86 256 Q89 277 106 292 Q123 307 144 307 Q164 307 177 292 Q190 277 187 256 Q184 235 167 220 Q150 205 130 205 Q109 205 96 220 Q83 235 86 256 Z " />
<glyph glyph-name="minus" unicode="&#x2212;" horiz-adv-x="543" d="M82 228 L90 284 L533 284 L525 228 L82 228 Z " />
<glyph glyph-name="commaaccent" unicode="&#xf6c3;" horiz-adv-x="188" d="M23 -222 L69 -146 Q56 -143 48 -131.5 Q40 -120 42 -105 Q45 -88 58 -76 Q71 -64 88 -64 Q100 -64 108 -69.5 Q116 -75 120 -84 Q124 -93 123 -104 Q122 -115 115 -126 L49 -235 L23 -222 Z " />
<glyph glyph-name="longs" unicode="&#x17f;" horiz-adv-x="426" d="M507 637 Q510 659 505 679.5 Q500 700 488.5 715.5 Q477 731 458.5 740 Q440 749 415 749 Q368 749 333.5 720 Q299 691 292 637 L202 0 L143 0 L207 458 L110 458 L118 512 L215 512 L233 637 Q238 677 256 709 Q274 741 300 763 Q326 785 358 796.5 Q390 808 424 808 Q460 808 488.5 794 Q517 780 536 756.5 Q555 733 563 702 Q571 671 567 637 L507 637 Z " />
<glyph glyph-name="hungarumlaut" unicode="&#x2dd;" horiz-adv-x="446" d="M150 571 L133 591 L270 732 Q280 743 294.5 743.5 Q309 744 317 735 Q325 725 322.5 711 Q320 697 308 688 L150 571 Z M323 571 L306 591 L443 732 Q453 743 467.5 743.5 Q482 744 490 735 Q498 725 495.5 711 Q493 697 481 688 L323 571 Z " />
<glyph glyph-name="grave" unicode="&#x60;" horiz-adv-x="273" d="M160 688 Q150 697 151 711 Q152 725 162 735 Q174 744 188 743.5 Q202 743 209 732 L306 591 L284 571 L160 688 Z " />
<glyph glyph-name="AE" unicode="&#xc6;" horiz-adv-x="807" d="M857 681 L520 681 L480 399 L817 399 L809 345 L472 345 L432 54 L769 54 L761 0 L360 0 L383 163 L171 163 Q160 145 149 124.5 Q138 104 126.5 82.5 Q115 61 103.5 39.5 Q92 18 82 0 L17 1 L416 736 L864 735 L857 681 Z M390 217 L456 681 L448 681 L198 217 L390 217 Z " />
<glyph glyph-name="OE" unicode="&#x152;" horiz-adv-x="985" d="M104 368 Q115 447 154 516.5 Q193 586 252 637.5 Q311 689 384.5 718.5 Q458 748 537 748 Q563 748 588 744.5 Q613 741 637 735 L1042 735 L1035 681 L691 681 L651 399 L995 399 L987 345 L643 345 L603 54 L947 54 L939 0 L534 0 Q508 -5 480.5 -8.5 Q453 -12 430 -12 Q351 -12 286 18 Q221 48 176.5 99.5 Q132 151 112.5 220 Q93 289 104 368 Z M529 688 Q463 688 401.5 663 Q340 638 291 594.5 Q242 551 209 492.5 Q176 434 167 368 Q157 302 174 243.5 Q191 185 227.5 141.5 Q264 98 318.5 73 Q373 48 439 48 Q459 48 486.5 51.5 Q514 55 538 63 L624 673 Q602 681 577.5 684.5 Q553 688 529 688 Z " />
<glyph glyph-name="eth" unicode="&#xf0;" horiz-adv-x="648" d="M617 245 Q610 192 583.5 145.5 Q557 99 517 64 Q477 29 427.5 9 Q378 -11 325 -11 Q272 -11 228.5 9 Q185 29 155 64 Q125 99 111.5 145.5 Q98 192 105 245 Q113 297 137 340 Q161 383 196.5 415 Q232 447 275.5 466 Q319 485 366 488 Q398 490 430 484 Q462 478 492 463 L427 607 L288 572 L284 609 L412 642 L360 760 L424 760 L470 657 L598 690 L603 653 L487 623 L588 398 Q604 363 613.5 325.5 Q623 288 617 245 Z M164 245 Q159 205 169.5 169.5 Q180 134 203 107 Q226 80 259.5 64.5 Q293 49 334 49 Q375 49 413 64.5 Q451 80 481.5 107 Q512 134 532.5 169.5 Q553 205 558 245 Q564 288 553 324 Q542 360 517.5 385.5 Q493 411 458.5 425 Q424 439 384 439 Q343 439 305.5 424 Q268 409 238.5 382.5 Q209 356 189.5 320.5 Q170 285 164 245 Z " />
<glyph glyph-name="quotedblright" unicode="&#x201d;" horiz-adv-x="333" d="M114 548 L167 635 Q151 639 141 652.5 Q131 666 133 685 Q136 706 152.5 721 Q169 736 190 736 Q204 736 214 729 Q224 722 229 711 Q234 700 232.5 686 Q231 672 223 659 L146 532 L114 548 Z M280 548 L333 635 Q316 639 306.5 652.5 Q297 666 299 685 Q302 706 318.5 721 Q335 736 356 736 Q370 736 380 729 Q390 722 394.5 711 Q399 700 398 686 Q397 672 389 659 L311 532 L280 548 Z " />
<glyph glyph-name="quoteright" unicode="&#x2019;" horiz-adv-x="167" d="M114 548 L167 635 Q151 639 141 652.5 Q131 666 133 685 Q136 706 152.5 721 Q169 736 190 736 Q204 736 214 729 Q224 722 229 711 Q234 700 232.5 686 Q231 672 223 659 L146 532 L114 548 Z " />
<glyph glyph-name="quoteleft" unicode="&#x2018;" horiz-adv-x="167" d="M231 720 L178 633 Q194 629 204 615 Q214 601 212 583 Q209 562 192.5 547 Q176 532 155 532 Q141 532 131 539 Q121 546 116.5 557 Q112 568 113 581.5 Q114 595 123 609 L199 736 L231 720 Z " />
<glyph glyph-name="questiondown" unicode="&#xbf;" horiz-adv-x="582" d="M413 461 L356 461 Q314 461 275 445.5 Q236 430 205.5 403 Q175 376 154.5 339.5 Q134 303 128 261 Q122 219 132.5 182.5 Q143 146 166 119 Q189 92 223.5 76.5 Q258 61 300 61 Q342 61 380.5 76.5 Q419 92 450 119 Q481 146 501.5 182.5 Q522 219 528 261 L589 261 Q581 207 554 159 Q527 111 487 76 Q447 41 396 20.5 Q345 0 291 0 Q237 0 192 20.5 Q147 41 117 76 Q87 111 73 159 Q59 207 67 261 Q74 315 101.5 363 Q129 411 169 446 Q209 481 259.5 501.5 Q310 522 364 522 L421 522 L413 461 Z M439 717 Q436 697 419.5 682 Q403 667 382 667 Q361 667 348 682 Q335 697 338 717 Q341 738 358 753 Q375 768 396 768 Q417 768 429.5 753 Q442 738 439 717 Z " />
<glyph glyph-name="exclamdown" unicode="&#xa1;" horiz-adv-x="344" d="M324 717 Q321 697 304 682 Q287 667 266 667 Q245 667 232 682 Q219 697 222 717 Q225 738 242 753 Q259 768 280 768 Q301 768 314 753 Q327 738 324 717 Z M276 529 L202 0 L142 0 L216 529 L276 529 Z " />
<glyph glyph-name="greater" unicode="&#x3e;" horiz-adv-x="424" d="M410 256 L118 0 L54 0 L52 11 L331 256 L120 501 L126 512 L190 512 L410 256 Z " />
<glyph glyph-name="guillemotleft" unicode="&#xab;" horiz-adv-x="694" d="M378 512 L442 512 L444 501 L165 256 L376 11 L370 0 L306 0 L86 256 L378 512 Z M648 512 L712 512 L714 501 L435 256 L646 11 L640 0 L576 0 L356 256 L648 512 Z " />
<glyph glyph-name="guilsinglleft" unicode="&#x2039;" horiz-adv-x="424" d="M378 512 L442 512 L444 501 L165 256 L376 11 L370 0 L306 0 L86 256 L378 512 Z " />
<glyph glyph-name="guilsinglright" unicode="&#x203a;" horiz-adv-x="424" d="M410 256 L118 0 L54 0 L52 11 L331 256 L120 501 L126 512 L190 512 L410 256 Z " />
<glyph glyph-name="estimated" unicode="&#x212e;" horiz-adv-x="602" d="M79 256 Q87 311 114 359.5 Q141 408 182 444 Q223 480 274.5 500.5 Q326 521 381 521 Q436 521 481.5 500.5 Q527 480 558 444 Q589 408 603 359.5 Q617 311 609 256 L243 256 L216 65 Q236 48 261 41 Q286 34 313 34 Q379 34 429 61.5 Q479 89 514 135 L563 135 Q522 69 453.5 30 Q385 -9 307 -9 Q252 -9 206 11.5 Q160 32 129.5 68 Q99 104 85 152.5 Q71 201 79 256 Z M248 295 L447 295 L469 447 Q449 463 425 470.5 Q401 478 375 478 Q348 478 321 470 Q294 462 270 445 L248 295 Z " />
<glyph glyph-name="backslash" unicode="&#x5c;" horiz-adv-x="265" d="M134 742 L218 -26 L158 -26 L74 742 L134 742 Z " />
<glyph glyph-name="partialdiff" unicode="&#x2202;" horiz-adv-x="636" d="M670 242 Q663 189 636 142.5 Q609 96 569.5 61 Q530 26 480.5 6 Q431 -14 378 -14 Q325 -14 281.5 6 Q238 26 207.5 61 Q177 96 164 142.5 Q151 189 158 242 Q165 294 189 337 Q213 380 248.5 412 Q284 444 328 463 Q372 482 418 485 Q450 487 482.5 481 Q515 475 545 460 L412 754 L476 754 L641 395 Q657 360 666.5 322.5 Q676 285 670 242 Z M218 242 Q212 201 222.5 165.5 Q233 130 256 103 Q279 76 312 60.5 Q345 45 386 45 Q427 45 465.5 60.5 Q504 76 534 103 Q564 130 584.5 165.5 Q605 201 611 242 Q617 285 605.5 320.5 Q594 356 569.5 381.5 Q545 407 510.5 421.5 Q476 436 436 436 Q395 436 358 421 Q321 406 292 379.5 Q263 353 243.5 317.5 Q224 282 218 242 Z " />
<glyph glyph-name="braceleft" unicode="&#x7b;" horiz-adv-x="574" d="M324 -128 Q279 -128 242.5 -111 Q206 -94 181.5 -65 Q157 -36 146.5 4 Q136 44 143 89 L157 194 Q162 227 156 256.5 Q150 286 135 307.5 Q120 329 97.5 342 Q75 355 47 355 L45 355 L53 413 L55 413 Q116 417 158 456 Q200 495 210 568 L225 679 Q232 724 253.5 764 Q275 804 307.5 833 Q340 862 381.5 879 Q423 896 468 896 L460 837 Q428 837 398 825 Q368 813 344.5 792.5 Q321 772 305.5 744 Q290 716 285 684 L269 568 Q260 508 227.5 457.5 Q195 407 135 384 Q162 370 179.5 348 Q197 326 206.5 300.5 Q216 275 218 247 Q220 219 216 194 L201 84 Q196 52 204 24 Q212 -4 230 -24.5 Q248 -45 274 -57 Q300 -69 332 -69 L324 -128 Z " />
<glyph glyph-name="braceright" unicode="&#x7d;" horiz-adv-x="574" d="M-15 -69 Q17 -69 47 -57 Q77 -45 100 -24.5 Q123 -4 139 24 Q155 52 160 84 L175 194 Q179 219 189 247 Q199 275 215.5 300.5 Q232 326 255.5 348 Q279 370 310 384 Q256 407 237.5 457.5 Q219 508 228 568 L244 684 Q249 716 240.5 744 Q232 772 214.5 792.5 Q197 813 171 825 Q145 837 113 837 L121 896 Q166 896 202 879 Q238 862 262.5 833 Q287 804 298 764 Q309 724 302 679 L287 568 Q277 495 308 456 Q339 417 398 413 L400 413 L392 355 L390 355 Q362 355 336 342 Q310 329 289 307.5 Q268 286 253.5 256.5 Q239 227 234 194 L220 89 Q213 44 191 4 Q169 -36 136.5 -65 Q104 -94 63 -111 Q22 -128 -23 -128 L-15 -69 Z " />
<glyph glyph-name="perthousand" unicode="&#x2030;" horiz-adv-x="804" d="M588 678 L128 90 L63 90 L523 678 L588 678 Z M391 141 Q394 161 411 176 Q428 191 449 191 Q470 191 482.5 176 Q495 161 492 141 Q489 120 472.5 105 Q456 90 435 90 Q414 90 401 105 Q388 120 391 141 Z M141 627 Q144 648 161 663 Q178 678 199 678 Q220 678 232.5 663 Q245 648 242 627 Q239 607 222.5 592 Q206 577 185 577 Q164 577 151 592 Q138 607 141 627 Z M551 141 Q554 161 571 176 Q588 191 609 191 Q630 191 642.5 176 Q655 161 652 141 Q649 120 632.5 105 Q616 90 595 90 Q574 90 561 105 Q548 120 551 141 Z " />
<glyph glyph-name="registered" unicode="&#xae;" horiz-adv-x="806" d="M81 362 Q92 440 131 508 Q170 576 227.5 626.5 Q285 677 356.5 706.5 Q428 736 505 736 Q583 736 647 706.5 Q711 677 754.5 626.5 Q798 576 818 508 Q838 440 827 362 Q816 285 777 217.5 Q738 150 680.5 99.5 Q623 49 551 19.5 Q479 -10 401 -10 Q324 -10 260.5 19.5 Q197 49 153.5 99.5 Q110 150 90 217.5 Q70 285 81 362 Z M127 362 Q117 295 135 235.5 Q153 176 190.5 132 Q228 88 284 62 Q340 36 407 36 Q475 36 538.5 62 Q602 88 653 132 Q704 176 737.5 235.5 Q771 295 781 362 Q790 430 773 490 Q756 550 718 594.5 Q680 639 623.5 664.5 Q567 690 499 690 Q432 690 369 664.5 Q306 639 255.5 594.5 Q205 550 170.5 490 Q136 430 127 362 Z M344 188 L303 188 L354 548 L503 548 Q527 548 546 539 Q565 530 578 515 Q591 500 597.5 479.5 Q604 459 600 435 Q595 397 570 368.5 Q545 340 508 328 L561 188 L517 188 L465 322 L363 322 L344 188 Z M469 357 Q504 357 531 380 Q558 403 562 435 Q567 467 547 489.5 Q527 512 495 512 L390 512 L368 357 L469 357 Z " />
<glyph glyph-name="exclam" unicode="&#x21;" horiz-adv-x="344" d="M128 51 Q131 71 148 86 Q165 101 186 101 Q207 101 220 86 Q233 71 230 51 Q227 30 210 15 Q193 0 172 0 Q151 0 138 15 Q125 30 128 51 Z M176 239 L250 768 L310 768 L236 239 L176 239 Z " />
<glyph glyph-name="asciitilde" unicode="&#x7e;" horiz-adv-x="571" d="M426 336 Q454 336 476 325.5 Q498 315 512 296 Q526 277 531.5 251.5 Q537 226 532 196 L482 196 Q488 240 470.5 263.5 Q453 287 419 287 Q390 287 367 268 Q344 249 320 226.5 Q296 204 267.5 185 Q239 166 202 166 Q173 166 150.5 176.5 Q128 187 114 205.5 Q100 224 95.5 250 Q91 276 96 306 L146 306 Q133 215 209 215 Q235 215 258.5 234 Q282 253 306.5 275.5 Q331 298 359.5 317 Q388 336 426 336 Z " />
<glyph glyph-name="dagger" unicode="&#x2020;" horiz-adv-x="537" d="M127 548 L135 604 L323 604 L355 832 L417 832 L385 604 L572 604 L564 548 L377 548 L282 -128 L220 -128 L315 548 L127 548 Z " />
<glyph glyph-name="brokenbar" unicode="&#xa6;" horiz-adv-x="249" d="M140 320 L199 320 L136 -128 L77 -128 L140 320 Z M217 448 L158 448 L221 896 L280 896 L217 448 Z " />
<glyph glyph-name="trademark" unicode="&#x2122;" horiz-adv-x="536" d="M271 768 L296 768 L335 708 L390 768 L415 768 L399 652 L374 652 L385 731 L329 670 L291 731 L280 652 L255 652 L271 768 Z M151 768 L252 768 L249 744 L211 744 L198 652 L173 652 L186 744 L148 744 L151 768 Z " />
<glyph glyph-name="Euro" unicode="&#x20ac;" horiz-adv-x="730" d="M25 436 L33 493 L140 493 Q167 548 207.5 594.5 Q248 641 299 674.5 Q350 708 409.5 727 Q469 746 533 746 Q614 746 677.5 716.5 Q741 687 784 636 L738 594 Q701 637 647 662 Q593 687 527 687 Q477 687 429.5 673 Q382 659 340.5 633.5 Q299 608 265.5 572 Q232 536 210 493 L480 493 L472 436 L180 436 Q169 405 164 367 Q159 331 161 300 L453 300 L445 244 L174 244 Q184 200 208 164 Q232 128 266.5 102 Q301 76 344.5 61.5 Q388 47 437 47 Q504 47 563.5 72.5 Q623 98 675 141 L709 99 Q651 48 578.5 18.5 Q506 -11 426 -11 Q363 -11 309 7.5 Q255 26 213 60 Q171 94 143.5 141 Q116 188 105 244 L-2 244 L6 300 L98 300 Q97 333 102 367 Q107 405 118 436 L25 436 Z " />
<glyph glyph-name="kgreenlandic" unicode="&#x138;" horiz-adv-x="553" d="M182 253 L313 253 Q347 253 378.5 265.5 Q410 278 435 300 Q460 322 477 351.5 Q494 381 498 416 L512 512 L571 512 L557 416 Q553 383 538 350.5 Q523 318 500.5 291 Q478 264 448 243 Q418 222 384 211 L510 0 L442 0 L322 197 L174 197 L146 0 L87 0 L159 512 L218 512 L182 253 Z " />
<glyph glyph-name="threequartersemdash" unicode="&#xf6de;" horiz-adv-x="1636" d="M90 284 L1626 284 L1618 228 L82 228 L90 284 Z " />
<glyph glyph-name="lira" unicode="&#x20a4;" horiz-adv-x="570" d="M90 278 L186 278 L205 416 L109 416 L117 470 L213 470 L228 576 Q234 616 253.5 651 Q273 686 303 712 Q333 738 370 753 Q407 768 447 768 Q488 768 521.5 753 Q555 738 576.5 712 Q598 686 608 651 Q618 616 612 576 L556 576 Q560 605 553 629.5 Q546 654 530.5 672 Q515 690 491.5 700.5 Q468 711 439 711 Q412 711 386.5 700.5 Q361 690 340.5 672 Q320 654 306 630 Q292 606 288 579 L273 470 L597 470 L589 416 L265 416 L246 278 L570 278 L563 225 L239 225 L215 54 L539 54 L531 0 L147 0 L179 225 L83 225 L90 278 Z " />
<glyph glyph-name="yen" unicode="&#xa5;" horiz-adv-x="593" d="M102 234 L110 290 L272 290 L121 735 L186 735 L336 292 L610 735 L674 735 L400 290 L566 290 L558 234 L358 234 L347 156 L547 156 L539 99 L339 99 L325 0 L265 0 L279 99 L83 99 L91 156 L287 156 L298 234 L102 234 Z " />
<glyph glyph-name="ae" unicode="&#xe6;" horiz-adv-x="968" d="M961 254 Q960 249 958.5 241.5 Q957 234 955 229 L513 229 Q507 188 519.5 154 Q532 120 556 96 Q580 72 613.5 58.5 Q647 45 683 45 Q730 45 768.5 59.5 Q807 74 839 97 L873 60 Q832 27 782.5 8.5 Q733 -10 675 -10 Q641 -10 607.5 0 Q574 10 546.5 29 Q519 48 498.5 76 Q478 104 468 141 Q432 69 367 30 Q302 -9 228 -9 Q186 -9 153.5 2.5 Q121 14 100 34.5 Q79 55 69.5 82.5 Q60 110 65 142 Q69 169 83.5 194 Q98 219 124 237.5 Q150 256 187 267 Q224 278 273 278 L461 278 L464 300 Q468 330 463.5 359 Q459 388 443.5 410.5 Q428 433 401.5 447 Q375 461 335 461 Q294 461 260 446 Q226 431 196 405 L163 442 Q200 475 247 495 Q294 515 342 515 Q415 515 457.5 478 Q500 441 512 386 Q529 414 553.5 439 Q578 464 608 482 Q638 500 672.5 510.5 Q707 521 745 521 Q803 521 847 499 Q891 477 919 440.5 Q947 404 957.5 355.5 Q968 307 961 254 Z M738 468 Q695 468 658 453 Q621 438 592 412.5 Q563 387 544.5 352 Q526 317 520 278 L903 278 Q908 315 899 349.5 Q890 384 868.5 410 Q847 436 814 452 Q781 468 738 468 Z M125 142 Q119 98 150.5 70 Q182 42 239 42 Q274 42 309.5 54 Q345 66 375 90 Q405 114 426.5 149 Q448 184 454 230 L266 230 Q199 230 164.5 204.5 Q130 179 125 142 Z " />
<glyph glyph-name="oe" unicode="&#x153;" horiz-adv-x="1071" d="M89 256 Q97 311 124 358.5 Q151 406 191.5 441.5 Q232 477 283 497.5 Q334 518 389 518 Q427 518 461 507 Q495 496 522.5 475.5 Q550 455 569.5 426 Q589 397 598 361 Q636 436 700 478.5 Q764 521 845 521 Q904 521 948 499 Q992 477 1020 440.5 Q1048 404 1058.5 355.5 Q1069 307 1062 254 Q1061 249 1059.5 241.5 Q1058 234 1056 229 L614 229 Q609 192 620 158.5 Q631 125 654.5 100 Q678 75 711 60 Q744 45 784 45 Q831 45 869 59.5 Q907 74 940 97 L973 60 Q933 27 883.5 8.5 Q834 -10 776 -10 Q741 -10 707 0 Q673 10 645.5 29.5 Q618 49 597 79 Q576 109 567 150 Q527 77 459 35 Q391 -7 315 -7 Q260 -7 215 13.5 Q170 34 139.5 69.5 Q109 105 95 153 Q81 201 89 256 Z M148 256 Q142 214 153.5 177 Q165 140 188.5 112.5 Q212 85 246.5 68.5 Q281 52 323 52 Q365 52 404.5 68.5 Q444 85 475.5 112.5 Q507 140 528.5 177 Q550 214 556 256 Q562 298 550.5 335 Q539 372 515.5 399.5 Q492 427 457.5 443.5 Q423 460 381 460 Q339 460 299.5 443.5 Q260 427 228.5 399.5 Q197 372 175.5 335 Q154 298 148 256 Z M839 468 Q796 468 759 453 Q722 438 693 412.5 Q664 387 645.5 352 Q627 317 621 278 L1004 278 Q1009 315 1000 349.5 Q991 384 969.5 410 Q948 436 915 452 Q882 468 839 468 Z " />
<glyph glyph-name="Oslash" unicode="&#xd8;" horiz-adv-x="857" d="M100 368 Q111 446 150.5 515.5 Q190 585 249 636.5 Q308 688 381.5 718 Q455 748 533 748 Q604 748 663 723.5 Q722 699 766 657 L839 720 L875 679 L802 615 Q838 565 854.5 502 Q871 439 861 368 Q850 290 810 220.5 Q770 151 711 99.5 Q652 48 578.5 18 Q505 -12 426 -12 Q355 -12 295.5 12.5 Q236 37 192 80 L120 17 L85 59 L156 122 Q121 172 105.5 234.5 Q90 297 100 368 Z M435 51 Q501 51 562 76 Q623 101 672 144 Q721 187 754.5 245 Q788 303 797 368 Q805 426 792 477 Q779 528 750 570 L245 126 Q280 91 328.5 71 Q377 51 435 51 Z M163 368 Q155 310 167 259 Q179 208 208 167 L714 611 Q678 646 629.5 665.5 Q581 685 524 685 Q459 685 397.5 660 Q336 635 287 592 Q238 549 205 491 Q172 433 163 368 Z " />
<glyph glyph-name="oslash" unicode="&#xf8;" horiz-adv-x="625" d="M86 256 Q94 311 121 358.5 Q148 406 188.5 441.5 Q229 477 280 497.5 Q331 518 385 518 Q433 518 473.5 502 Q514 486 544 458 L590 499 L620 464 L574 423 Q598 389 608 346.5 Q618 304 611 256 Q603 201 576 153 Q549 105 508.5 69.5 Q468 34 417 13.5 Q366 -7 311 -7 Q263 -7 223 9 Q183 25 153 54 L107 13 L77 48 L123 89 Q98 123 88.5 165.5 Q79 208 86 256 Z M319 52 Q361 52 400.5 68 Q440 84 472 111.5 Q504 139 525 176.5 Q546 214 552 256 Q557 291 549.5 322.5 Q542 354 524 380 L202 97 Q225 76 254.5 64 Q284 52 319 52 Z M145 256 Q135 185 172 132 L495 415 Q472 436 442 448 Q412 460 377 460 Q335 460 296 444 Q257 428 225 400 Q193 372 172 335 Q151 298 145 256 Z " />
<glyph glyph-name="ellipsis" unicode="&#x2026;" horiz-adv-x="822" d="M93 51 Q96 71 113 86 Q130 101 151 101 Q172 101 185 86 Q198 71 195 51 Q192 30 175 15 Q158 0 137 0 Q116 0 103 15 Q90 30 93 51 Z M367 51 Q370 71 387 86 Q404 101 425 101 Q446 101 459 86 Q472 71 469 51 Q466 30 449 15 Q432 0 411 0 Q390 0 377 15 Q364 30 367 51 Z M641 51 Q644 71 661 86 Q678 101 699 101 Q720 101 733 86 Q746 71 743 51 Q740 30 723 15 Q706 0 685 0 Q664 0 651 15 Q638 30 641 51 Z " />
<glyph glyph-name="guillemotright" unicode="&#xbb;" horiz-adv-x="694" d="M680 256 L388 0 L324 0 L322 11 L601 256 L390 501 L396 512 L460 512 L680 256 Z M410 256 L118 0 L54 0 L52 11 L331 256 L120 501 L126 512 L190 512 L410 256 Z " />
<glyph glyph-name="paragraph" unicode="&#xb6;" horiz-adv-x="795" d="M302 242 Q249 242 206.5 261 Q164 280 135.5 313.5 Q107 347 94 392 Q81 437 89 488 Q96 539 121 584 Q146 629 184.5 662.5 Q223 696 270.5 715.5 Q318 735 371 735 L818 735 L715 0 L651 0 L747 681 L609 681 L513 0 L451 0 L485 242 L302 242 Z M492 295 L547 681 L367 681 Q326 681 289 666.5 Q252 652 222 626.5 Q192 601 172.5 565.5 Q153 530 148 488 Q142 446 151.5 410.5 Q161 375 183.5 349.5 Q206 324 238.5 309.5 Q271 295 312 295 L492 295 Z " />
<glyph glyph-name="Aacute" unicode="&#xc1;" horiz-adv-x="692" d="M611 0 L567 163 L171 163 L81 0 L17 0 L414 735 L483 735 L675 0 L611 0 Z M439 665 L199 217 L554 217 L439 665 Z M470 794 L452 814 L589 955 Q600 966 614 966.5 Q628 967 637 958 Q644 948 641.5 934 Q639 920 627 911 L470 794 Z " />
<glyph glyph-name="Abreve" unicode="&#x102;" horiz-adv-x="692" d="M611 0 L567 163 L171 163 L81 0 L17 0 L414 735 L483 735 L675 0 L611 0 Z M439 665 L199 217 L554 217 L439 665 Z M358 919 L400 919 L398 902 Q393 870 411.5 848.5 Q430 827 462 827 Q494 827 518.5 848.5 Q543 870 548 902 L550 919 L592 919 L590 904 Q587 880 575 858.5 Q563 837 544.5 821 Q526 805 503.5 796 Q481 787 457 787 Q433 787 412.5 796 Q392 805 378.5 821 Q365 837 359 858.5 Q353 880 356 904 L358 919 Z " />
<glyph glyph-name="Acircumflex" unicode="&#xc2;" horiz-adv-x="692" d="M611 0 L567 163 L171 163 L81 0 L17 0 L414 735 L483 735 L675 0 L611 0 Z M439 665 L199 217 L554 217 L439 665 Z M470 895 L349 787 L324 814 L480 950 L596 814 L566 787 L470 895 Z " />
<glyph glyph-name="Agrave" unicode="&#xc0;" horiz-adv-x="692" d="M611 0 L567 163 L171 163 L81 0 L17 0 L414 735 L483 735 L675 0 L611 0 Z M439 665 L199 217 L554 217 L439 665 Z M322 911 Q312 920 313 934 Q314 948 325 958 Q336 967 350.5 966.5 Q365 966 371 955 L468 814 L446 794 L322 911 Z " />
<glyph glyph-name="Adieresis" unicode="&#xc4;" horiz-adv-x="692" d="M611 0 L567 163 L171 163 L81 0 L17 0 L414 735 L483 735 L675 0 L611 0 Z M439 665 L199 217 L554 217 L439 665 Z M329 886 Q331 907 348.5 922 Q366 937 387 937 Q407 937 419.5 922 Q432 907 430 886 Q427 865 409.5 850 Q392 835 372 835 Q351 835 338.5 850 Q326 865 329 886 Z M512 886 Q514 907 531.5 922 Q549 937 570 937 Q590 937 602.5 922 Q615 907 613 886 Q610 865 592.5 850 Q575 835 555 835 Q534 835 521.5 850 Q509 865 512 886 Z " />
<glyph glyph-name="Amacron" unicode="&#x100;" horiz-adv-x="692" d="M611 0 L567 163 L171 163 L81 0 L17 0 L414 735 L483 735 L675 0 L611 0 Z M439 665 L199 217 L554 217 L439 665 Z M609 836 L318 836 L324 877 L615 877 L609 836 Z " />
<glyph glyph-name="Aogonek" unicode="&#x104;" horiz-adv-x="692" d="M488 -77 Q495 -32 526.5 -0.5 Q558 31 600 36 L567 163 L171 163 L81 0 L17 0 L414 735 L483 735 L675 0 L611 0 Q580 0 555.5 -22.5 Q531 -45 526 -77 Q522 -109 540 -131.5 Q558 -154 589 -154 Q619 -154 644 -131.5 Q669 -109 673 -77 L711 -77 Q708 -101 696 -122 Q684 -143 667 -158.5 Q650 -174 628.5 -183 Q607 -192 584 -192 Q561 -192 542 -183 Q523 -174 510 -158.5 Q497 -143 491 -122 Q485 -101 488 -77 Z M439 665 L199 217 L554 217 L439 665 Z " />
<glyph glyph-name="Aring" unicode="&#xc5;" horiz-adv-x="692" d="M611 0 L567 163 L171 163 L81 0 L17 0 L414 735 L483 735 L675 0 L611 0 Z M439 665 L199 217 L554 217 L439 665 Z M376 895 Q381 935 413 963 Q445 991 485 991 Q525 991 549 963 Q573 935 568 895 Q562 855 530 827 Q498 799 458 799 Q418 799 394 827 Q370 855 376 895 Z M413 895 Q409 870 423.5 853 Q438 836 463 836 Q488 836 507.5 853 Q527 870 531 895 Q534 920 519.5 937 Q505 954 480 954 Q455 954 435.5 937 Q416 920 413 895 Z " />
<glyph glyph-name="Atilde" unicode="&#xc3;" horiz-adv-x="692" d="M611 0 L567 163 L171 163 L81 0 L17 0 L414 735 L483 735 L675 0 L611 0 Z M439 665 L199 217 L554 217 L439 665 Z M542 931 Q581 931 600.5 905 Q620 879 613 839 L575 839 Q579 866 568 880 Q557 894 537 894 Q519 894 503.5 882.5 Q488 871 472.5 856.5 Q457 842 438.5 830.5 Q420 819 395 819 Q356 819 336.5 845 Q317 871 324 911 L362 911 Q354 856 400 856 Q417 856 432 867.5 Q447 879 463.5 893.5 Q480 908 498.5 919.5 Q517 931 542 931 Z " />
<glyph glyph-name="AEacute" unicode="&#x1fc;" horiz-adv-x="807" d="M857 681 L520 681 L480 399 L817 399 L809 345 L472 345 L432 54 L769 54 L761 0 L360 0 L383 163 L171 163 Q160 145 149 124.5 Q138 104 126.5 82.5 Q115 61 103.5 39.5 Q92 18 82 0 L17 1 L416 736 L864 735 L857 681 Z M390 217 L456 681 L448 681 L198 217 L390 217 Z M527 794 L509 814 L646 955 Q657 966 671 966.5 Q685 967 694 958 Q701 948 698.5 934 Q696 920 684 911 L527 794 Z " />
<glyph glyph-name="Cacute" unicode="&#x106;" horiz-adv-x="730" d="M162 367 Q152 299 169 240.5 Q186 182 223 139 Q260 96 314.5 71.5 Q369 47 435 47 Q502 47 562 72.5 Q622 98 673 141 L707 99 Q649 48 576.5 18.5 Q504 -11 424 -11 Q344 -11 279.5 18.5 Q215 48 171 99 Q127 150 107.5 219 Q88 288 100 367 Q111 446 149 515 Q187 584 245.5 635.5 Q304 687 377 716.5 Q450 746 531 746 Q612 746 675.5 716.5 Q739 687 782 636 L736 594 Q700 637 645.5 662 Q591 687 525 687 Q457 687 395.5 662.5 Q334 638 285 594.5 Q236 551 203.5 492.5 Q171 434 162 367 Z M488 794 L471 814 L608 955 Q618 966 632.5 966.5 Q647 967 656 958 Q663 948 660 934 Q657 920 645 911 L488 794 Z " />
<glyph glyph-name="Ccaron" unicode="&#x10c;" horiz-adv-x="730" d="M162 367 Q152 299 169 240.5 Q186 182 223 139 Q260 96 314.5 71.5 Q369 47 435 47 Q502 47 562 72.5 Q622 98 673 141 L707 99 Q649 48 576.5 18.5 Q504 -11 424 -11 Q344 -11 279.5 18.5 Q215 48 171 99 Q127 150 107.5 219 Q88 288 100 367 Q111 446 149 515 Q187 584 245.5 635.5 Q304 687 377 716.5 Q450 746 531 746 Q612 746 675.5 716.5 Q739 687 782 636 L736 594 Q700 637 645.5 662 Q591 687 525 687 Q457 687 395.5 662.5 Q334 638 285 594.5 Q236 551 203.5 492.5 Q171 434 162 367 Z M542 841 L664 950 L688 923 L533 787 L416 923 L447 950 L542 841 Z " />
<glyph glyph-name="Ccedilla" unicode="&#xc7;" horiz-adv-x="730" d="M162 367 Q152 299 169 240.5 Q186 182 223 139 Q260 96 314.5 71.5 Q369 47 435 47 Q502 47 562 72.5 Q622 98 673 141 L707 99 Q652 50 584 21 Q516 -8 440 -11 L436 -46 Q467 -51 487 -76.5 Q507 -102 501 -140 Q495 -182 463 -209 Q431 -236 391 -236 Q371 -236 355 -228.5 Q339 -221 327 -208 L357 -183 Q364 -190 374 -194.5 Q384 -199 396 -199 Q420 -199 440 -182.5 Q460 -166 463 -140 Q467 -114 453 -97.5 Q439 -81 413 -81 Q399 -81 387.5 -85.5 Q376 -90 368 -97 L346 -72 Q356 -63 369.5 -55.5 Q383 -48 400 -46 L405 -10 Q329 -6 268 24.5 Q207 55 166 105.5 Q125 156 107 223 Q89 290 100 367 Q111 446 149 515 Q187 584 245.5 635.5 Q304 687 377 716.5 Q450 746 531 746 Q612 746 675.5 716.5 Q739 687 782 636 L736 594 Q700 637 645.5 662 Q591 687 525 687 Q457 687 395.5 662.5 Q334 638 285 594.5 Q236 551 203.5 492.5 Q171 434 162 367 Z " />
<glyph glyph-name="Ccircumflex" unicode="&#x108;" horiz-adv-x="730" d="M162 367 Q152 299 169 240.5 Q186 182 223 139 Q260 96 314.5 71.5 Q369 47 435 47 Q502 47 562 72.5 Q622 98 673 141 L707 99 Q649 48 576.5 18.5 Q504 -11 424 -11 Q344 -11 279.5 18.5 Q215 48 171 99 Q127 150 107.5 219 Q88 288 100 367 Q111 446 149 515 Q187 584 245.5 635.5 Q304 687 377 716.5 Q450 746 531 746 Q612 746 675.5 716.5 Q739 687 782 636 L736 594 Q700 637 645.5 662 Q591 687 525 687 Q457 687 395.5 662.5 Q334 638 285 594.5 Q236 551 203.5 492.5 Q171 434 162 367 Z M549 895 L427 787 L403 814 L559 950 L675 814 L644 787 L549 895 Z " />
<glyph glyph-name="Cdotaccent" unicode="&#x10a;" horiz-adv-x="730" d="M162 367 Q152 299 169 240.5 Q186 182 223 139 Q260 96 314.5 71.5 Q369 47 435 47 Q502 47 562 72.5 Q622 98 673 141 L707 99 Q649 48 576.5 18.5 Q504 -11 424 -11 Q344 -11 279.5 18.5 Q215 48 171 99 Q127 150 107.5 219 Q88 288 100 367 Q111 446 149 515 Q187 584 245.5 635.5 Q304 687 377 716.5 Q450 746 531 746 Q612 746 675.5 716.5 Q739 687 782 636 L736 594 Q700 637 645.5 662 Q591 687 525 687 Q457 687 395.5 662.5 Q334 638 285 594.5 Q236 551 203.5 492.5 Q171 434 162 367 Z M499 886 Q501 907 518.5 922 Q536 937 557 937 Q578 937 590 922 Q602 907 600 886 Q597 865 580 850 Q563 835 542 835 Q521 835 508.5 850 Q496 865 499 886 Z " />
<glyph glyph-name="Dcaron" unicode="&#x10e;" horiz-adv-x="700" d="M90 0 L193 735 L392 735 Q468 735 530.5 706 Q593 677 636 627 Q679 577 698.5 510.5 Q718 444 708 368 Q697 292 658.5 225 Q620 158 563 108 Q506 58 435.5 29 Q365 0 289 0 L90 0 Z M247 678 L160 57 L295 57 Q360 57 419.5 81.5 Q479 106 526.5 148 Q574 190 606 246.5 Q638 303 647 368 Q656 432 640 488.5 Q624 545 588 587 Q552 629 499 653.5 Q446 678 382 678 L247 678 Z M409 841 L532 950 L556 923 L401 787 L284 923 L315 950 L409 841 Z " />
<glyph glyph-name="Eacute" unicode="&#xc9;" horiz-adv-x="566" d="M193 735 L622 735 L615 681 L250 681 L210 398 L549 398 L542 346 L203 346 L162 54 L527 54 L519 0 L90 0 L193 735 Z M393 794 L376 814 L513 955 Q523 966 537 966.5 Q551 967 560 958 Q568 948 565 934 Q562 920 550 911 L393 794 Z " />
<glyph glyph-name="Ebreve" unicode="&#x114;" horiz-adv-x="566" d="M193 735 L622 735 L615 681 L250 681 L210 398 L549 398 L542 346 L203 346 L162 54 L527 54 L519 0 L90 0 L193 735 Z M322 919 L363 919 L361 902 Q356 870 375 848.5 Q394 827 426 827 Q458 827 482.5 848.5 Q507 870 512 902 L514 919 L556 919 L554 904 Q551 880 539 858.5 Q527 837 508.5 821 Q490 805 467.5 796 Q445 787 421 787 Q397 787 376.5 796 Q356 805 342.5 821 Q329 837 323 858.5 Q317 880 320 904 L322 919 Z " />
<glyph glyph-name="Ecaron" unicode="&#x11a;" horiz-adv-x="566" d="M193 735 L622 735 L615 681 L250 681 L210 398 L549 398 L542 346 L203 346 L162 54 L527 54 L519 0 L90 0 L193 735 Z M422 841 L545 950 L569 923 L414 787 L297 923 L328 950 L422 841 Z " />
<glyph glyph-name="Ecircumflex" unicode="&#xca;" horiz-adv-x="566" d="M193 735 L622 735 L615 681 L250 681 L210 398 L549 398 L542 346 L203 346 L162 54 L527 54 L519 0 L90 0 L193 735 Z M427 895 L305 787 L281 814 L437 950 L553 814 L522 787 L427 895 Z " />
<glyph glyph-name="Edieresis" unicode="&#xcb;" horiz-adv-x="566" d="M193 735 L622 735 L615 681 L250 681 L210 398 L549 398 L542 346 L203 346 L162 54 L527 54 L519 0 L90 0 L193 735 Z M286 886 Q288 907 305 922 Q322 937 343 937 Q364 937 376.5 922 Q389 907 387 886 Q384 865 366.5 850 Q349 835 328 835 Q307 835 295 850 Q283 865 286 886 Z M469 886 Q471 907 488 922 Q505 937 526 937 Q547 937 559.5 922 Q572 907 570 886 Q567 865 549.5 850 Q532 835 511 835 Q490 835 478 850 Q466 865 469 886 Z " />
<glyph glyph-name="Edotaccent" unicode="&#x116;" horiz-adv-x="566" d="M193 735 L622 735 L615 681 L250 681 L210 398 L549 398 L542 346 L203 346 L162 54 L527 54 L519 0 L90 0 L193 735 Z M377 886 Q379 907 396.5 922 Q414 937 435 937 Q455 937 467.5 922 Q480 907 478 886 Q475 865 457.5 850 Q440 835 420 835 Q399 835 386.5 850 Q374 865 377 886 Z " />
<glyph glyph-name="Egrave" unicode="&#xc8;" horiz-adv-x="566" d="M193 735 L622 735 L615 681 L250 681 L210 398 L549 398 L542 346 L203 346 L162 54 L527 54 L519 0 L90 0 L193 735 Z M288 911 Q278 920 279.5 934 Q281 948 292 958 Q303 967 317 966.5 Q331 966 338 955 L435 814 L413 794 L288 911 Z " />
<glyph glyph-name="Emacron" unicode="&#x112;" horiz-adv-x="566" d="M193 735 L622 735 L615 681 L250 681 L210 398 L549 398 L542 346 L203 346 L162 54 L527 54 L519 0 L90 0 L193 735 Z M562 836 L271 836 L277 877 L568 877 L562 836 Z " />
<glyph glyph-name="Eogonek" unicode="&#x118;" horiz-adv-x="566" d="M286 -77 Q289 -54 299.5 -34.5 Q310 -15 326 0 L90 0 L193 735 L622 735 L615 681 L250 681 L210 398 L549 398 L542 346 L203 346 L162 54 L414 54 L417 54 L527 54 L519 0 L408 0 Q377 0 352.5 -22.5 Q328 -45 323 -77 Q319 -109 337 -131.5 Q355 -154 386 -154 Q416 -154 441.5 -131.5 Q467 -109 471 -77 L508 -77 Q505 -101 493 -122 Q481 -143 464 -158.5 Q447 -174 425.5 -183 Q404 -192 381 -192 Q358 -192 339.5 -183 Q321 -174 308 -158.5 Q295 -143 289 -122 Q283 -101 286 -77 Z " />
<glyph glyph-name="Gbreve" unicode="&#x11e;" horiz-adv-x="849" d="M160 368 Q150 299 167 240 Q184 181 222 138.5 Q260 96 315.5 71.5 Q371 47 436 47 Q503 47 561.5 67.5 Q620 88 666 126 Q712 164 742.5 219 Q773 274 784 343 L510 343 L518 398 L852 398 Q852 390 851 382.5 Q850 375 849 367 Q836 274 797 203.5 Q758 133 701 85 Q644 37 573.5 12.5 Q503 -12 427 -12 Q345 -12 280 18 Q215 48 171 100 Q127 152 108 221 Q89 290 100 368 Q111 448 149 517 Q187 586 245 636.5 Q303 687 376.5 716 Q450 745 532 745 Q605 745 664 722 Q723 699 767 655 L723 616 Q685 651 637.5 670 Q590 689 524 689 Q455 689 393.5 664.5 Q332 640 283 597 Q234 554 201.5 495.5 Q169 437 160 368 Z M437 919 L478 919 L476 902 Q471 870 490 848.5 Q509 827 541 827 Q573 827 597.5 848.5 Q622 870 627 902 L629 919 L671 919 L669 904 Q666 880 654 858.5 Q642 837 623.5 821 Q605 805 582.5 796 Q560 787 536 787 Q512 787 491.5 796 Q471 805 457.5 821 Q444 837 438 858.5 Q432 880 435 904 L437 919 Z " />
<glyph glyph-name="Gcircumflex" unicode="&#x11c;" horiz-adv-x="849" d="M160 368 Q150 299 167 240 Q184 181 222 138.5 Q260 96 315.5 71.5 Q371 47 436 47 Q503 47 561.5 67.5 Q620 88 666 126 Q712 164 742.5 219 Q773 274 784 343 L510 343 L518 398 L852 398 Q852 390 851 382.5 Q850 375 849 367 Q836 274 797 203.5 Q758 133 701 85 Q644 37 573.5 12.5 Q503 -12 427 -12 Q345 -12 280 18 Q215 48 171 100 Q127 152 108 221 Q89 290 100 368 Q111 448 149 517 Q187 586 245 636.5 Q303 687 376.5 716 Q450 745 532 745 Q605 745 664 722 Q723 699 767 655 L723 616 Q685 651 637.5 670 Q590 689 524 689 Q455 689 393.5 664.5 Q332 640 283 597 Q234 554 201.5 495.5 Q169 437 160 368 Z M549 895 L427 787 L403 814 L559 950 L675 814 L644 787 L549 895 Z " />
<glyph glyph-name="Gdotaccent" unicode="&#x120;" horiz-adv-x="849" d="M160 368 Q150 299 167 240 Q184 181 222 138.5 Q260 96 315.5 71.5 Q371 47 436 47 Q503 47 561.5 67.5 Q620 88 666 126 Q712 164 742.5 219 Q773 274 784 343 L510 343 L518 398 L852 398 Q852 390 851 382.5 Q850 375 849 367 Q836 274 797 203.5 Q758 133 701 85 Q644 37 573.5 12.5 Q503 -12 427 -12 Q345 -12 280 18 Q215 48 171 100 Q127 152 108 221 Q89 290 100 368 Q111 448 149 517 Q187 586 245 636.5 Q303 687 376.5 716 Q450 745 532 745 Q605 745 664 722 Q723 699 767 655 L723 616 Q685 651 637.5 670 Q590 689 524 689 Q455 689 393.5 664.5 Q332 640 283 597 Q234 554 201.5 495.5 Q169 437 160 368 Z M499 886 Q501 907 518.5 922 Q536 937 557 937 Q577 937 589.5 922 Q602 907 600 886 Q597 865 579.5 850 Q562 835 542 835 Q521 835 508.5 850 Q496 865 499 886 Z " />
<glyph glyph-name="Gcommaaccent" unicode="&#x122;" horiz-adv-x="849" d="M160 368 Q150 299 167 240 Q184 181 222 138.5 Q260 96 315.5 71.5 Q371 47 436 47 Q503 47 561.5 67.5 Q620 88 666 126 Q712 164 742.5 219 Q773 274 784 343 L510 343 L518 398 L852 398 Q852 390 851 382.5 Q850 375 849 367 Q836 274 797 203.5 Q758 133 701 85 Q644 37 573.5 12.5 Q503 -12 427 -12 Q345 -12 280 18 Q215 48 171 100 Q127 152 108 221 Q89 290 100 368 Q111 448 149 517 Q187 586 245 636.5 Q303 687 376.5 716 Q450 745 532 745 Q605 745 664 722 Q723 699 767 655 L723 616 Q685 651 637.5 670 Q590 689 524 689 Q455 689 393.5 664.5 Q332 640 283 597 Q234 554 201.5 495.5 Q169 437 160 368 Z M350 -222 L395 -146 Q382 -143 374 -131.5 Q366 -120 368 -105 Q371 -88 384 -76 Q397 -64 414 -64 Q426 -64 434 -69.5 Q442 -75 446 -84 Q450 -93 449 -104 Q448 -115 441 -126 L375 -235 L350 -222 Z " />
<glyph glyph-name="Hbar" unicode="&#x126;" horiz-adv-x="740" d="M813 533 L728 533 L653 0 L589 0 L638 346 L200 346 L151 0 L87 0 L162 533 L78 533 L84 574 L168 574 L190 734 L254 734 L232 574 L670 574 L692 735 L756 735 L734 574 L819 574 L813 533 Z M645 398 L664 533 L226 533 L207 398 L645 398 Z " />
<glyph glyph-name="Hcircumflex" unicode="&#x124;" horiz-adv-x="740" d="M87 0 L190 734 L254 734 L207 398 L645 398 L692 735 L756 735 L653 0 L589 0 L638 346 L200 346 L151 0 L87 0 Z M494 895 L372 787 L348 814 L504 950 L620 814 L589 787 L494 895 Z " />
<glyph glyph-name="Iacute" unicode="&#xcd;" horiz-adv-x="418" d="M135 681 L142 735 L482 735 L475 681 L337 681 L249 54 L387 54 L379 0 L39 0 L47 54 L185 54 L273 681 L135 681 Z M322 794 L304 814 L442 955 Q452 966 466 966.5 Q480 967 489 958 Q497 948 494 934 Q491 920 479 911 L322 794 Z " />
<glyph glyph-name="Ibreve" unicode="&#x12c;" horiz-adv-x="418" d="M135 681 L142 735 L482 735 L475 681 L337 681 L249 54 L387 54 L379 0 L39 0 L47 54 L185 54 L273 681 L135 681 Z M221 919 L262 919 L260 902 Q255 870 274 848.5 Q293 827 325 827 Q357 827 381.5 848.5 Q406 870 411 902 L413 919 L455 919 L453 904 Q450 880 438 858.5 Q426 837 407.5 821 Q389 805 366.5 796 Q344 787 320 787 Q296 787 275.5 796 Q255 805 241.5 821 Q228 837 222 858.5 Q216 880 219 904 L221 919 Z " />
<glyph glyph-name="Icircumflex" unicode="&#xce;" horiz-adv-x="418" d="M135 681 L142 735 L482 735 L475 681 L337 681 L249 54 L387 54 L379 0 L39 0 L47 54 L185 54 L273 681 L135 681 Z M333 895 L211 787 L187 814 L343 950 L459 814 L428 787 L333 895 Z " />
<glyph glyph-name="Idieresis" unicode="&#xcf;" horiz-adv-x="418" d="M135 681 L142 735 L482 735 L475 681 L337 681 L249 54 L387 54 L379 0 L39 0 L47 54 L185 54 L273 681 L135 681 Z M191 886 Q193 907 210.5 922 Q228 937 249 937 Q270 937 282.5 922 Q295 907 293 886 Q290 865 272.5 850 Q255 835 234 835 Q213 835 200.5 850 Q188 865 191 886 Z M374 886 Q376 907 393.5 922 Q411 937 432 937 Q453 937 465.5 922 Q478 907 476 886 Q473 865 455.5 850 Q438 835 417 835 Q396 835 383.5 850 Q371 865 374 886 Z " />
<glyph glyph-name="Idotaccent" unicode="&#x130;" horiz-adv-x="418" d="M135 681 L142 735 L482 735 L475 681 L337 681 L249 54 L387 54 L379 0 L39 0 L47 54 L185 54 L273 681 L135 681 Z M283 886 Q285 907 302.5 922 Q320 937 341 937 Q361 937 373.5 922 Q386 907 384 886 Q381 865 363.5 850 Q346 835 326 835 Q305 835 292.5 850 Q280 865 283 886 Z " />
<glyph glyph-name="Igrave" unicode="&#xcc;" horiz-adv-x="418" d="M135 681 L142 735 L482 735 L475 681 L337 681 L249 54 L387 54 L379 0 L39 0 L47 54 L185 54 L273 681 L135 681 Z M194 911 Q184 920 185 934 Q186 948 198 958 Q209 967 223 966.5 Q237 966 243 955 L341 814 L319 794 L194 911 Z " />
<glyph glyph-name="Imacron" unicode="&#x12a;" horiz-adv-x="418" d="M135 681 L142 735 L482 735 L475 681 L337 681 L249 54 L387 54 L379 0 L39 0 L47 54 L185 54 L273 681 L135 681 Z M472 836 L181 836 L187 877 L478 877 L472 836 Z " />
<glyph glyph-name="Iogonek" unicode="&#x12e;" horiz-adv-x="418" d="M145 -77 Q148 -54 159 -34.5 Q170 -15 186 0 L39 0 L47 54 L185 54 L273 681 L135 681 L142 735 L482 735 L475 681 L337 681 L249 54 L387 54 L379 0 L266 0 Q236 -1 212 -23.5 Q188 -46 183 -77 Q179 -109 197 -131.5 Q215 -154 246 -154 Q276 -154 301 -131.5 Q326 -109 330 -77 L368 -77 Q365 -101 353 -122 Q341 -143 324 -158.5 Q307 -174 285.5 -183 Q264 -192 241 -192 Q218 -192 199 -183 Q180 -174 167 -158.5 Q154 -143 148 -122 Q142 -101 145 -77 Z " />
<glyph glyph-name="Itilde" unicode="&#x128;" horiz-adv-x="418" d="M135 681 L142 735 L482 735 L475 681 L337 681 L249 54 L387 54 L379 0 L39 0 L47 54 L185 54 L273 681 L135 681 Z M406 931 Q444 931 463.5 905 Q483 879 476 839 L438 839 Q442 866 431.5 880 Q421 894 401 894 Q383 894 367.5 882.5 Q352 871 336 856.5 Q320 842 301.5 830.5 Q283 819 258 819 Q219 819 199.5 845 Q180 871 187 911 L226 911 Q218 856 263 856 Q280 856 295 867.5 Q310 879 326.5 893.5 Q343 908 362 919.5 Q381 931 406 931 Z " />
<glyph glyph-name="Jcircumflex" unicode="&#x134;" horiz-adv-x="501" d="M107 188 Q103 160 110.5 135 Q118 110 134.5 91.5 Q151 73 174.5 62 Q198 51 226 51 Q254 51 280.5 62 Q307 73 328 91.5 Q349 110 363.5 135 Q378 160 382 188 L459 735 L520 735 L443 188 Q438 147 417.5 111 Q397 75 366 48 Q335 21 297 5.5 Q259 -10 218 -10 Q177 -10 143 5.5 Q109 21 86 48 Q63 75 52.5 111 Q42 147 47 188 L107 188 Z M510 895 L388 787 L364 814 L520 950 L636 814 L605 787 L510 895 Z " />
<glyph glyph-name="Kcommaaccent" unicode="&#x136;" horiz-adv-x="655" d="M197 346 L148 0 L87 0 L190 735 L251 735 L204 398 L403 398 L648 735 L716 735 L453 374 L615 0 L547 0 L397 346 L197 346 Z M252 -222 L298 -146 Q285 -143 277 -131.5 Q269 -120 271 -105 Q274 -88 287 -76 Q300 -64 317 -64 Q329 -64 337 -69.5 Q345 -75 349 -84 Q353 -93 352 -104 Q351 -115 344 -126 L278 -235 L252 -222 Z " />
<glyph glyph-name="Lacute" unicode="&#x139;" horiz-adv-x="454" d="M434 0 L87 0 L190 735 L252 735 L157 54 L442 54 L434 0 Z M270 794 L253 814 L390 955 Q400 966 414.5 966.5 Q429 967 438 958 Q445 948 442 934 Q439 920 427 911 L270 794 Z " />
<glyph glyph-name="Lcaron" unicode="&#x13d;" horiz-adv-x="454" d="M434 3 L87 3 L191 738 L253 738 L157 58 L442 58 L434 3 Z M389 586 L442 672 Q426 676 416 690 Q406 704 409 723 Q411 743 428 758 Q445 773 466 773 Q480 773 490 766 Q500 759 505 748 Q510 737 508.5 723.5 Q507 710 498 696 L421 569 L389 586 Z " />
<glyph glyph-name="Lcommaaccent" unicode="&#x13b;" horiz-adv-x="454" d="M434 0 L87 0 L190 735 L252 735 L157 54 L442 54 L434 0 Z M189 -222 L235 -146 Q222 -143 213.5 -131.5 Q205 -120 207 -105 Q210 -88 223.5 -76 Q237 -64 254 -64 Q265 -64 273 -69.5 Q281 -75 285 -84 Q289 -93 288 -104 Q287 -115 280 -126 L214 -235 L189 -222 Z " />
<glyph glyph-name="Ldot" unicode="&#x13f;" horiz-adv-x="454" d="M434 0 L87 0 L190 735 L252 735 L157 54 L442 54 L434 0 Z M321 371 Q324 391 341 406 Q358 421 379 421 Q399 421 412 406 Q425 391 422 371 Q419 350 402 335 Q385 320 365 320 Q344 320 331 335 Q318 350 321 371 Z " />
<glyph glyph-name="Lslash" unicode="&#x141;" horiz-adv-x="454" d="M434 0 L87 0 L131 313 L21 285 L16 322 L137 353 L190 735 L252 735 L201 370 L331 403 L335 366 L195 330 L157 54 L442 54 L434 0 Z " />
<glyph glyph-name="Nacute" unicode="&#x143;" horiz-adv-x="796" d="M750 735 L812 735 L710 5 L697 -1 L233 601 L149 0 L87 0 L190 730 L201 735 L666 134 L750 735 Z M498 794 L480 814 L618 955 Q628 966 642 966.5 Q656 967 665 958 Q673 948 670 934 Q667 920 655 911 L498 794 Z " />
<glyph glyph-name="Ncaron" unicode="&#x147;" horiz-adv-x="796" d="M750 735 L812 735 L710 5 L697 -1 L233 601 L149 0 L87 0 L190 730 L201 735 L666 134 L750 735 Z M517 841 L640 950 L663 923 L508 787 L391 923 L423 950 L517 841 Z " />
<glyph glyph-name="Ncommaaccent" unicode="&#x145;" horiz-adv-x="796" d="M750 735 L812 735 L710 5 L697 -1 L233 601 L149 0 L87 0 L190 730 L201 735 L666 134 L750 735 Z M336 -222 L381 -146 Q368 -143 360 -131.5 Q352 -120 354 -105 Q357 -88 370 -76 Q383 -64 400 -64 Q412 -64 420 -69.5 Q428 -75 432 -84 Q436 -93 435 -104 Q434 -115 427 -126 L361 -235 L336 -222 Z " />
<glyph glyph-name="Ntilde" unicode="&#xd1;" horiz-adv-x="796" d="M750 735 L812 735 L710 5 L697 -1 L233 601 L149 0 L87 0 L190 730 L201 735 L666 134 L750 735 Z M595 931 Q633 931 652.5 905 Q672 879 665 839 L627 839 Q631 866 620.5 880 Q610 894 590 894 Q571 894 555.5 882.5 Q540 871 524.5 856.5 Q509 842 490.5 830.5 Q472 819 447 819 Q408 819 388.5 845 Q369 871 376 911 L415 911 Q407 856 452 856 Q469 856 484 867.5 Q499 879 515.5 893.5 Q532 908 551 919.5 Q570 931 595 931 Z " />
<glyph glyph-name="Oacute" unicode="&#xd3;" horiz-adv-x="864" d="M104 368 Q115 446 154.5 515.5 Q194 585 253 636.5 Q312 688 385.5 718 Q459 748 537 748 Q615 748 680.5 718 Q746 688 790 636.5 Q834 585 854.5 515.5 Q875 446 864 368 Q853 290 813 220.5 Q773 151 714.5 99.5 Q656 48 582 18 Q508 -12 430 -12 Q352 -12 287 18 Q222 48 177.5 99.5 Q133 151 113 220.5 Q93 290 104 368 Z M167 368 Q158 303 174.5 245 Q191 187 228 144 Q265 101 319.5 76 Q374 51 439 51 Q504 51 565.5 76 Q627 101 676 144 Q725 187 758.5 245 Q792 303 801 368 Q810 433 793 491 Q776 549 739 592 Q702 635 647.5 660 Q593 685 528 685 Q463 685 401.5 660 Q340 635 291 592 Q242 549 209 491 Q176 433 167 368 Z M545 794 L528 814 L665 955 Q675 966 689 966.5 Q703 967 712 958 Q720 948 717 934 Q714 920 702 911 L545 794 Z " />
<glyph glyph-name="Obreve" unicode="&#x14e;" horiz-adv-x="864" d="M104 368 Q115 446 154.5 515.5 Q194 585 253 636.5 Q312 688 385.5 718 Q459 748 537 748 Q615 748 680.5 718 Q746 688 790 636.5 Q834 585 854.5 515.5 Q875 446 864 368 Q853 290 813 220.5 Q773 151 714.5 99.5 Q656 48 582 18 Q508 -12 430 -12 Q352 -12 287 18 Q222 48 177.5 99.5 Q133 151 113 220.5 Q93 290 104 368 Z M167 368 Q158 303 174.5 245 Q191 187 228 144 Q265 101 319.5 76 Q374 51 439 51 Q504 51 565.5 76 Q627 101 676 144 Q725 187 758.5 245 Q792 303 801 368 Q810 433 793 491 Q776 549 739 592 Q702 635 647.5 660 Q593 685 528 685 Q463 685 401.5 660 Q340 635 291 592 Q242 549 209 491 Q176 433 167 368 Z M444 919 L485 919 L483 902 Q478 870 497 848.5 Q516 827 548 827 Q580 827 604.5 848.5 Q629 870 634 902 L636 919 L678 919 L676 904 Q673 880 661 858.5 Q649 837 630.5 821 Q612 805 589.5 796 Q567 787 543 787 Q519 787 498.5 796 Q478 805 464.5 821 Q451 837 445 858.5 Q439 880 442 904 L444 919 Z " />
<glyph glyph-name="Ocircumflex" unicode="&#xd4;" horiz-adv-x="864" d="M104 368 Q115 446 154.5 515.5 Q194 585 253 636.5 Q312 688 385.5 718 Q459 748 537 748 Q615 748 680.5 718 Q746 688 790 636.5 Q834 585 854.5 515.5 Q875 446 864 368 Q853 290 813 220.5 Q773 151 714.5 99.5 Q656 48 582 18 Q508 -12 430 -12 Q352 -12 287 18 Q222 48 177.5 99.5 Q133 151 113 220.5 Q93 290 104 368 Z M167 368 Q158 303 174.5 245 Q191 187 228 144 Q265 101 319.5 76 Q374 51 439 51 Q504 51 565.5 76 Q627 101 676 144 Q725 187 758.5 245 Q792 303 801 368 Q810 433 793 491 Q776 549 739 592 Q702 635 647.5 660 Q593 685 528 685 Q463 685 401.5 660 Q340 635 291 592 Q242 549 209 491 Q176 433 167 368 Z M556 895 L434 787 L410 814 L566 950 L682 814 L651 787 L556 895 Z " />
<glyph glyph-name="Odieresis" unicode="&#xd6;" horiz-adv-x="864" d="M104 368 Q115 446 154.5 515.5 Q194 585 253 636.5 Q312 688 385.5 718 Q459 748 537 748 Q615 748 680.5 718 Q746 688 790 636.5 Q834 585 854.5 515.5 Q875 446 864 368 Q853 290 813 220.5 Q773 151 714.5 99.5 Q656 48 582 18 Q508 -12 430 -12 Q352 -12 287 18 Q222 48 177.5 99.5 Q133 151 113 220.5 Q93 290 104 368 Z M167 368 Q158 303 174.5 245 Q191 187 228 144 Q265 101 319.5 76 Q374 51 439 51 Q504 51 565.5 76 Q627 101 676 144 Q725 187 758.5 245 Q792 303 801 368 Q810 433 793 491 Q776 549 739 592 Q702 635 647.5 660 Q593 685 528 685 Q463 685 401.5 660 Q340 635 291 592 Q242 549 209 491 Q176 433 167 368 Z M415 886 Q417 907 434 922 Q451 937 472 937 Q493 937 505.5 922 Q518 907 516 886 Q513 865 495.5 850 Q478 835 457 835 Q436 835 424 850 Q412 865 415 886 Z M598 886 Q600 907 617 922 Q634 937 655 937 Q676 937 688.5 922 Q701 907 699 886 Q696 865 678.5 850 Q661 835 640 835 Q619 835 607 850 Q595 865 598 886 Z " />
<glyph glyph-name="Ograve" unicode="&#xd2;" horiz-adv-x="864" d="M104 368 Q115 446 154.5 515.5 Q194 585 253 636.5 Q312 688 385.5 718 Q459 748 537 748 Q615 748 680.5 718 Q746 688 790 636.5 Q834 585 854.5 515.5 Q875 446 864 368 Q853 290 813 220.5 Q773 151 714.5 99.5 Q656 48 582 18 Q508 -12 430 -12 Q352 -12 287 18 Q222 48 177.5 99.5 Q133 151 113 220.5 Q93 290 104 368 Z M167 368 Q158 303 174.5 245 Q191 187 228 144 Q265 101 319.5 76 Q374 51 439 51 Q504 51 565.5 76 Q627 101 676 144 Q725 187 758.5 245 Q792 303 801 368 Q810 433 793 491 Q776 549 739 592 Q702 635 647.5 660 Q593 685 528 685 Q463 685 401.5 660 Q340 635 291 592 Q242 549 209 491 Q176 433 167 368 Z M417 911 Q407 920 408.5 934 Q410 948 421 958 Q432 967 446 966.5 Q460 966 467 955 L564 814 L542 794 L417 911 Z " />
<glyph glyph-name="Ohungarumlaut" unicode="&#x150;" horiz-adv-x="864" d="M104 368 Q115 446 154.5 515.5 Q194 585 253 636.5 Q312 688 385.5 718 Q459 748 537 748 Q615 748 680.5 718 Q746 688 790 636.5 Q834 585 854.5 515.5 Q875 446 864 368 Q853 290 813 220.5 Q773 151 714.5 99.5 Q656 48 582 18 Q508 -12 430 -12 Q352 -12 287 18 Q222 48 177.5 99.5 Q133 151 113 220.5 Q93 290 104 368 Z M167 368 Q158 303 174.5 245 Q191 187 228 144 Q265 101 319.5 76 Q374 51 439 51 Q504 51 565.5 76 Q627 101 676 144 Q725 187 758.5 245 Q792 303 801 368 Q810 433 793 491 Q776 549 739 592 Q702 635 647.5 660 Q593 685 528 685 Q463 685 401.5 660 Q340 635 291 592 Q242 549 209 491 Q176 433 167 368 Z M459 794 L441 814 L578 955 Q589 966 603 966.5 Q617 967 626 958 Q633 948 630.5 934 Q628 920 616 911 L459 794 Z M632 794 L614 814 L751 955 Q762 966 776 966.5 Q790 967 799 958 Q806 948 803.5 934 Q801 920 789 911 L632 794 Z " />
<glyph glyph-name="Omacron" unicode="&#x14c;" horiz-adv-x="864" d="M104 368 Q115 446 154.5 515.5 Q194 585 253 636.5 Q312 688 385.5 718 Q459 748 537 748 Q615 748 680.5 718 Q746 688 790 636.5 Q834 585 854.5 515.5 Q875 446 864 368 Q853 290 813 220.5 Q773 151 714.5 99.5 Q656 48 582 18 Q508 -12 430 -12 Q352 -12 287 18 Q222 48 177.5 99.5 Q133 151 113 220.5 Q93 290 104 368 Z M167 368 Q158 303 174.5 245 Q191 187 228 144 Q265 101 319.5 76 Q374 51 439 51 Q504 51 565.5 76 Q627 101 676 144 Q725 187 758.5 245 Q792 303 801 368 Q810 433 793 491 Q776 549 739 592 Q702 635 647.5 660 Q593 685 528 685 Q463 685 401.5 660 Q340 635 291 592 Q242 549 209 491 Q176 433 167 368 Z M694 836 L403 836 L409 877 L700 877 L694 836 Z " />
<glyph glyph-name="Oslashacute" unicode="&#x1fe;" horiz-adv-x="864" d="M100 368 Q111 446 150.5 515.5 Q190 585 249 636.5 Q308 688 381.5 718 Q455 748 533 748 Q604 748 663 723.5 Q722 699 766 657 L839 720 L875 679 L802 615 Q838 565 854.5 502 Q871 439 861 368 Q850 290 810 220.5 Q770 151 711 99.5 Q652 48 578.5 18 Q505 -12 426 -12 Q355 -12 295.5 12.5 Q236 37 192 80 L120 17 L85 59 L156 122 Q121 172 105.5 234.5 Q90 297 100 368 Z M435 51 Q501 51 562 76 Q623 101 672 144 Q721 187 754.5 245 Q788 303 797 368 Q805 426 792 477 Q779 528 750 570 L245 126 Q280 91 328.5 71 Q377 51 435 51 Z M163 368 Q155 310 167 259 Q179 208 208 167 L714 611 Q678 646 629.5 665.5 Q581 685 524 685 Q459 685 397.5 660 Q336 635 287 592 Q238 549 205 491 Q172 433 163 368 Z M545 794 L528 814 L665 955 Q675 966 689 966.5 Q703 967 712 958 Q720 948 717 934 Q714 920 702 911 L545 794 Z " />
<glyph glyph-name="Otilde" unicode="&#xd5;" horiz-adv-x="864" d="M104 368 Q115 446 154.5 515.5 Q194 585 253 636.5 Q312 688 385.5 718 Q459 748 537 748 Q615 748 680.5 718 Q746 688 790 636.5 Q834 585 854.5 515.5 Q875 446 864 368 Q853 290 813 220.5 Q773 151 714.5 99.5 Q656 48 582 18 Q508 -12 430 -12 Q352 -12 287 18 Q222 48 177.5 99.5 Q133 151 113 220.5 Q93 290 104 368 Z M167 368 Q158 303 174.5 245 Q191 187 228 144 Q265 101 319.5 76 Q374 51 439 51 Q504 51 565.5 76 Q627 101 676 144 Q725 187 758.5 245 Q792 303 801 368 Q810 433 793 491 Q776 549 739 592 Q702 635 647.5 660 Q593 685 528 685 Q463 685 401.5 660 Q340 635 291 592 Q242 549 209 491 Q176 433 167 368 Z M629 931 Q667 931 686.5 905 Q706 879 699 839 L661 839 Q665 866 654.5 880 Q644 894 624 894 Q606 894 590.5 882.5 Q575 871 559 856.5 Q543 842 524.5 830.5 Q506 819 481 819 Q442 819 423 845 Q404 871 410 911 L449 911 Q441 856 486 856 Q503 856 518 867.5 Q533 879 549.5 893.5 Q566 908 585 919.5 Q604 931 629 931 Z " />
<glyph glyph-name="Racute" unicode="&#x154;" horiz-adv-x="671" d="M149 0 L87 0 L190 735 L494 735 Q542 735 581.5 717 Q621 699 648 667.5 Q675 636 687.5 594 Q700 552 693 504 Q682 425 631 368 Q580 311 504 286 L614 0 L548 0 L442 274 L188 274 L149 0 Z M432 327 Q470 327 504.5 341 Q539 355 566 379 Q593 403 610.5 435.5 Q628 468 633 504 Q638 541 629 573 Q620 605 599.5 629 Q579 653 549 667 Q519 681 482 681 L245 681 L195 327 L432 327 Z M379 794 L361 814 L498 955 Q508 966 522.5 966.5 Q537 967 546 958 Q553 948 550 934 Q547 920 535 911 L379 794 Z " />
<glyph glyph-name="Rcaron" unicode="&#x158;" horiz-adv-x="671" d="M149 0 L87 0 L190 735 L494 735 Q542 735 581.5 717 Q621 699 648 667.5 Q675 636 687.5 594 Q700 552 693 504 Q682 425 631 368 Q580 311 504 286 L614 0 L548 0 L442 274 L188 274 L149 0 Z M432 327 Q470 327 504.5 341 Q539 355 566 379 Q593 403 610.5 435.5 Q628 468 633 504 Q638 541 629 573 Q620 605 599.5 629 Q579 653 549 667 Q519 681 482 681 L245 681 L195 327 L432 327 Z M455 841 L577 950 L601 923 L446 787 L329 923 L360 950 L455 841 Z " />
<glyph glyph-name="Rcommaaccent" unicode="&#x156;" horiz-adv-x="671" d="M149 0 L87 0 L190 735 L494 735 Q542 735 581.5 717 Q621 699 648 667.5 Q675 636 687.5 594 Q700 552 693 504 Q682 425 631 368 Q580 311 504 286 L614 0 L548 0 L442 274 L188 274 L149 0 Z M432 327 Q470 327 504.5 341 Q539 355 566 379 Q593 403 610.5 435.5 Q628 468 633 504 Q638 541 629 573 Q620 605 599.5 629 Q579 653 549 667 Q519 681 482 681 L245 681 L195 327 L432 327 Z M260 -222 L306 -146 Q293 -143 285 -131.5 Q277 -120 279 -105 Q282 -88 295 -76 Q308 -64 325 -64 Q336 -64 344 -69.5 Q352 -75 356 -84 Q360 -93 359 -104 Q358 -115 351 -126 L285 -235 L260 -222 Z " />
<glyph glyph-name="Sacute" unicode="&#x15a;" horiz-adv-x="594" d="M315 -16 Q234 -16 172.5 13.5 Q111 43 71 92 L121 131 Q201 44 324 44 Q405 44 456 78 Q507 112 514 167 Q521 216 495 250 Q469 284 409 309 L268 369 Q188 403 155.5 451 Q123 499 133 566 Q138 607 160.5 641 Q183 675 218 700 Q253 725 299.5 738.5 Q346 752 400 752 Q458 752 500.5 733.5 Q543 715 571 685 Q599 655 610.5 616.5 Q622 578 616 537 L556 537 Q560 565 552 593 Q544 621 524 643.5 Q504 666 471 680 Q438 694 392 694 Q352 694 318 684.5 Q284 675 258 658.5 Q232 642 216 618 Q200 594 197 566 Q190 518 212 486 Q234 454 295 428 L439 366 Q522 330 554.5 281 Q587 232 577 167 Q571 122 548 88 Q525 54 489 30.5 Q453 7 408.5 -4.5 Q364 -16 315 -16 Z M400 794 L383 814 L520 955 Q530 966 544.5 966.5 Q559 967 568 958 Q575 948 572 934 Q569 920 557 911 L400 794 Z " />
<glyph glyph-name="Scaron" unicode="&#x160;" horiz-adv-x="594" d="M315 -16 Q234 -16 172.5 13.5 Q111 43 71 92 L121 131 Q201 44 324 44 Q405 44 456 78 Q507 112 514 167 Q521 216 495 250 Q469 284 409 309 L268 369 Q188 403 155.5 451 Q123 499 133 566 Q138 607 160.5 641 Q183 675 218 700 Q253 725 299.5 738.5 Q346 752 400 752 Q458 752 500.5 733.5 Q543 715 571 685 Q599 655 610.5 616.5 Q622 578 616 537 L556 537 Q560 565 552 593 Q544 621 524 643.5 Q504 666 471 680 Q438 694 392 694 Q352 694 318 684.5 Q284 675 258 658.5 Q232 642 216 618 Q200 594 197 566 Q190 518 212 486 Q234 454 295 428 L439 366 Q522 330 554.5 281 Q587 232 577 167 Q571 122 548 88 Q525 54 489 30.5 Q453 7 408.5 -4.5 Q364 -16 315 -16 Z M417 841 L539 950 L563 923 L408 787 L291 923 L322 950 L417 841 Z " />
<glyph glyph-name="Scedilla" unicode="&#x15e;" horiz-adv-x="594" d="M395 -136 Q389 -178 356.5 -205 Q324 -232 284 -232 Q264 -232 248.5 -224.5 Q233 -217 220 -204 L250 -179 Q257 -186 267.5 -190.5 Q278 -195 290 -195 Q314 -195 333.5 -178.5 Q353 -162 357 -136 Q361 -110 346 -93.5 Q331 -77 305 -77 Q291 -77 280.5 -81.5 Q270 -86 261 -93 L239 -68 Q260 -47 293 -42 L297 -15 Q222 -12 165 16 Q108 44 71 92 L121 131 Q201 44 324 44 Q405 44 456 78 Q507 112 514 167 Q521 216 495 250 Q469 284 409 309 L268 369 Q188 403 155.5 451 Q123 499 133 566 Q138 607 160.5 641 Q183 675 218 700 Q253 725 299.5 738.5 Q346 752 400 752 Q458 752 500.5 733.5 Q543 715 571 685 Q599 655 610.5 616.5 Q622 578 616 537 L556 537 Q560 565 552 593 Q544 621 524 643.5 Q504 666 471 680 Q438 694 392 694 Q352 694 318 684.5 Q284 675 258 658.5 Q232 642 216 618 Q200 594 197 566 Q190 518 212 486 Q234 454 295 428 L439 366 Q522 330 554.5 281 Q587 232 577 167 Q571 124 549.5 91 Q528 58 495.5 35 Q463 12 421 -1 Q379 -14 333 -16 L329 -42 Q359 -47 379.5 -72.5 Q400 -98 395 -136 Z " />
<glyph glyph-name="Scircumflex" unicode="&#x15c;" horiz-adv-x="594" d="M315 -16 Q234 -16 172.5 13.5 Q111 43 71 92 L121 131 Q201 44 324 44 Q405 44 456 78 Q507 112 514 167 Q521 216 495 250 Q469 284 409 309 L268 369 Q188 403 155.5 451 Q123 499 133 566 Q138 607 160.5 641 Q183 675 218 700 Q253 725 299.5 738.5 Q346 752 400 752 Q458 752 500.5 733.5 Q543 715 571 685 Q599 655 610.5 616.5 Q622 578 616 537 L556 537 Q560 565 552 593 Q544 621 524 643.5 Q504 666 471 680 Q438 694 392 694 Q352 694 318 684.5 Q284 675 258 658.5 Q232 642 216 618 Q200 594 197 566 Q190 518 212 486 Q234 454 295 428 L439 366 Q522 330 554.5 281 Q587 232 577 167 Q571 122 548 88 Q525 54 489 30.5 Q453 7 408.5 -4.5 Q364 -16 315 -16 Z M421 895 L299 787 L275 814 L431 950 L547 814 L516 787 L421 895 Z " />
<glyph glyph-name="Scommaaccent" unicode="&#x218;" horiz-adv-x="594" d="M315 -16 Q234 -16 172.5 13.5 Q111 43 71 92 L121 131 Q201 44 324 44 Q405 44 456 78 Q507 112 514 167 Q521 216 495 250 Q469 284 409 309 L268 369 Q188 403 155.5 451 Q123 499 133 566 Q138 607 160.5 641 Q183 675 218 700 Q253 725 299.5 738.5 Q346 752 400 752 Q458 752 500.5 733.5 Q543 715 571 685 Q599 655 610.5 616.5 Q622 578 616 537 L556 537 Q560 565 552 593 Q544 621 524 643.5 Q504 666 471 680 Q438 694 392 694 Q352 694 318 684.5 Q284 675 258 658.5 Q232 642 216 618 Q200 594 197 566 Q190 518 212 486 Q234 454 295 428 L439 366 Q522 330 554.5 281 Q587 232 577 167 Q571 122 548 88 Q525 54 489 30.5 Q453 7 408.5 -4.5 Q364 -16 315 -16 Z M227 -222 L272 -146 Q259 -143 251 -131.5 Q243 -120 245 -105 Q248 -88 261 -76 Q274 -64 291 -64 Q303 -64 311 -69.5 Q319 -75 323 -84 Q327 -93 326 -104 Q325 -115 318 -126 L252 -235 L227 -222 Z " />
<glyph glyph-name="Tbar" unicode="&#x166;" horiz-adv-x="525" d="M609 735 L602 681 L390 681 L362 483 L481 514 L486 477 L356 444 L294 0 L232 0 L292 427 L172 396 L167 433 L297 466 L328 681 L115 681 L122 735 L609 735 Z " />
<glyph glyph-name="Tcaron" unicode="&#x164;" horiz-adv-x="525" d="M609 735 L602 681 L390 681 L294 0 L232 0 L328 681 L115 681 L122 735 L609 735 Z M382 841 L505 950 L528 923 L373 787 L256 923 L288 950 L382 841 Z " />
<glyph glyph-name="Tcommaaccent" unicode="&#x162;" horiz-adv-x="525" d="M609 735 L602 681 L390 681 L294 0 L232 0 L328 681 L115 681 L122 735 L609 735 Z M187 -222 L233 -146 Q220 -143 212 -131.5 Q204 -120 206 -105 Q209 -88 222 -76 Q235 -64 252 -64 Q263 -64 271 -69.5 Q279 -75 283 -84 Q287 -93 286 -104 Q285 -115 278 -126 L212 -235 L187 -222 Z " />
<glyph glyph-name="Uacute" unicode="&#xda;" horiz-adv-x="767" d="M173 305 Q165 251 177.5 204 Q190 157 219 122.5 Q248 88 292 68.5 Q336 49 390 49 Q445 49 494 68.5 Q543 88 582 122.5 Q621 157 646.5 204 Q672 251 680 305 L740 735 L802 735 L742 305 Q733 239 700.5 181.5 Q668 124 620 81.5 Q572 39 510.5 14 Q449 -11 381 -11 Q313 -11 258.5 14 Q204 39 168 81.5 Q132 124 116.5 181.5 Q101 239 110 305 L170 735 L233 735 L173 305 Z M487 794 L469 814 L607 955 Q617 966 631 966.5 Q645 967 654 958 Q662 948 659 934 Q656 920 644 911 L487 794 Z " />
<glyph glyph-name="Ubreve" unicode="&#x16c;" horiz-adv-x="767" d="M173 305 Q165 251 177.5 204 Q190 157 219 122.5 Q248 88 292 68.5 Q336 49 390 49 Q445 49 494 68.5 Q543 88 582 122.5 Q621 157 646.5 204 Q672 251 680 305 L740 735 L802 735 L742 305 Q733 239 700.5 181.5 Q668 124 620 81.5 Q572 39 510.5 14 Q449 -11 381 -11 Q313 -11 258.5 14 Q204 39 168 81.5 Q132 124 116.5 181.5 Q101 239 110 305 L170 735 L233 735 L173 305 Z M395 919 L437 919 L435 902 Q430 870 448.5 848.5 Q467 827 499 827 Q531 827 556 848.5 Q581 870 586 902 L588 919 L629 919 L627 904 Q624 880 612 858.5 Q600 837 581.5 821 Q563 805 540.5 796 Q518 787 494 787 Q470 787 449.5 796 Q429 805 415.5 821 Q402 837 396 858.5 Q390 880 393 904 L395 919 Z " />
<glyph glyph-name="Ucircumflex" unicode="&#xdb;" horiz-adv-x="767" d="M173 305 Q165 251 177.5 204 Q190 157 219 122.5 Q248 88 292 68.5 Q336 49 390 49 Q445 49 494 68.5 Q543 88 582 122.5 Q621 157 646.5 204 Q672 251 680 305 L740 735 L802 735 L742 305 Q733 239 700.5 181.5 Q668 124 620 81.5 Q572 39 510.5 14 Q449 -11 381 -11 Q313 -11 258.5 14 Q204 39 168 81.5 Q132 124 116.5 181.5 Q101 239 110 305 L170 735 L233 735 L173 305 Z M508 895 L386 787 L361 814 L517 950 L633 814 L603 787 L508 895 Z " />
<glyph glyph-name="Udieresis" unicode="&#xdc;" horiz-adv-x="767" d="M173 305 Q165 251 177.5 204 Q190 157 219 122.5 Q248 88 292 68.5 Q336 49 390 49 Q445 49 494 68.5 Q543 88 582 122.5 Q621 157 646.5 204 Q672 251 680 305 L740 735 L802 735 L742 305 Q733 239 700.5 181.5 Q668 124 620 81.5 Q572 39 510.5 14 Q449 -11 381 -11 Q313 -11 258.5 14 Q204 39 168 81.5 Q132 124 116.5 181.5 Q101 239 110 305 L170 735 L233 735 L173 305 Z M366 886 Q368 907 385.5 922 Q403 937 424 937 Q445 937 457.5 922 Q470 907 468 886 Q465 865 447.5 850 Q430 835 409 835 Q388 835 375.5 850 Q363 865 366 886 Z M549 886 Q551 907 568.5 922 Q586 937 607 937 Q628 937 640.5 922 Q653 907 651 886 Q648 865 630.5 850 Q613 835 592 835 Q571 835 558.5 850 Q546 865 549 886 Z " />
<glyph glyph-name="Ugrave" unicode="&#xd9;" horiz-adv-x="767" d="M173 305 Q165 251 177.5 204 Q190 157 219 122.5 Q248 88 292 68.5 Q336 49 390 49 Q445 49 494 68.5 Q543 88 582 122.5 Q621 157 646.5 204 Q672 251 680 305 L740 735 L802 735 L742 305 Q733 239 700.5 181.5 Q668 124 620 81.5 Q572 39 510.5 14 Q449 -11 381 -11 Q313 -11 258.5 14 Q204 39 168 81.5 Q132 124 116.5 181.5 Q101 239 110 305 L170 735 L233 735 L173 305 Z M379 911 Q369 920 370 934 Q371 948 383 958 Q394 967 408 966.5 Q422 966 428 955 L526 814 L504 794 L379 911 Z " />
<glyph glyph-name="Uhungarumlaut" unicode="&#x170;" horiz-adv-x="767" d="M173 305 Q165 251 177.5 204 Q190 157 219 122.5 Q248 88 292 68.5 Q336 49 390 49 Q445 49 494 68.5 Q543 88 582 122.5 Q621 157 646.5 204 Q672 251 680 305 L740 735 L802 735 L742 305 Q733 239 700.5 181.5 Q668 124 620 81.5 Q572 39 510.5 14 Q449 -11 381 -11 Q313 -11 258.5 14 Q204 39 168 81.5 Q132 124 116.5 181.5 Q101 239 110 305 L170 735 L233 735 L173 305 Z M401 794 L383 814 L520 955 Q530 966 544.5 966.5 Q559 967 568 958 Q575 948 572 934 Q569 920 557 911 L401 794 Z M574 794 L556 814 L693 955 Q703 966 717.5 966.5 Q732 967 741 958 Q748 948 745 934 Q742 920 730 911 L574 794 Z " />
<glyph glyph-name="Umacron" unicode="&#x16a;" horiz-adv-x="767" d="M173 305 Q165 251 177.5 204 Q190 157 219 122.5 Q248 88 292 68.5 Q336 49 390 49 Q445 49 494 68.5 Q543 88 582 122.5 Q621 157 646.5 204 Q672 251 680 305 L740 735 L802 735 L742 305 Q733 239 700.5 181.5 Q668 124 620 81.5 Q572 39 510.5 14 Q449 -11 381 -11 Q313 -11 258.5 14 Q204 39 168 81.5 Q132 124 116.5 181.5 Q101 239 110 305 L170 735 L233 735 L173 305 Z M646 836 L355 836 L361 877 L652 877 L646 836 Z " />
<glyph glyph-name="Uogonek" unicode="&#x172;" horiz-adv-x="767" d="M260 -88 Q263 -62 276.5 -40 Q290 -18 310 -2 Q257 10 216.5 38 Q176 66 149.5 106.5 Q123 147 112.5 198 Q102 249 110 305 L170 735 L233 735 L173 305 Q165 251 177.5 204 Q190 157 219 122.5 Q248 88 292 68.5 Q336 49 390 49 Q445 49 494 68.5 Q543 88 582 122.5 Q621 157 646.5 204 Q672 251 680 305 L740 735 L802 735 L742 305 Q733 239 700.5 181.5 Q668 124 620 81.5 Q572 39 510.5 14 Q449 -11 381 -11 Q351 -11 326.5 -33.5 Q302 -56 298 -88 Q293 -120 311.5 -142.5 Q330 -165 360 -165 Q390 -165 415 -142.5 Q440 -120 445 -88 L483 -88 Q479 -112 467 -133 Q455 -154 438 -169.5 Q421 -185 399 -194 Q377 -203 354 -203 Q331 -203 312.5 -194 Q294 -185 281 -169.5 Q268 -154 262 -133 Q256 -112 260 -88 Z " />
<glyph glyph-name="Uring" unicode="&#x16e;" horiz-adv-x="767" d="M173 305 Q165 251 177.5 204 Q190 157 219 122.5 Q248 88 292 68.5 Q336 49 390 49 Q445 49 494 68.5 Q543 88 582 122.5 Q621 157 646.5 204 Q672 251 680 305 L740 735 L802 735 L742 305 Q733 239 700.5 181.5 Q668 124 620 81.5 Q572 39 510.5 14 Q449 -11 381 -11 Q313 -11 258.5 14 Q204 39 168 81.5 Q132 124 116.5 181.5 Q101 239 110 305 L170 735 L233 735 L173 305 Z M413 895 Q418 935 450 963 Q482 991 522 991 Q562 991 586 963 Q610 935 605 895 Q599 855 567 827 Q535 799 495 799 Q455 799 431 827 Q407 855 413 895 Z M450 895 Q446 870 460.5 853 Q475 836 500 836 Q526 836 545.5 853 Q565 870 569 895 Q572 920 557.5 937 Q543 954 517 954 Q492 954 472.5 937 Q453 920 450 895 Z " />
<glyph glyph-name="Utilde" unicode="&#x168;" horiz-adv-x="767" d="M173 305 Q165 251 177.5 204 Q190 157 219 122.5 Q248 88 292 68.5 Q336 49 390 49 Q445 49 494 68.5 Q543 88 582 122.5 Q621 157 646.5 204 Q672 251 680 305 L740 735 L802 735 L742 305 Q733 239 700.5 181.5 Q668 124 620 81.5 Q572 39 510.5 14 Q449 -11 381 -11 Q313 -11 258.5 14 Q204 39 168 81.5 Q132 124 116.5 181.5 Q101 239 110 305 L170 735 L233 735 L173 305 Z M580 931 Q618 931 638 905 Q658 879 650 839 L612 839 Q616 866 605.5 880 Q595 894 575 894 Q557 894 541.5 882.5 Q526 871 510 856.5 Q494 842 475.5 830.5 Q457 819 432 819 Q393 819 374 845 Q355 871 361 911 L400 911 Q392 856 437 856 Q454 856 469 867.5 Q484 879 500.5 893.5 Q517 908 536 919.5 Q555 931 580 931 Z " />
<glyph glyph-name="Yacute" unicode="&#xdd;" horiz-adv-x="583" d="M262 0 L292 212 L118 735 L183 735 L333 292 L607 735 L671 735 L352 212 L322 0 L262 0 Z M404 794 L387 814 L524 955 Q534 966 548.5 966.5 Q563 967 572 958 Q579 948 576 934 Q573 920 561 911 L404 794 Z " />
<glyph glyph-name="Ycircumflex" unicode="&#x176;" horiz-adv-x="583" d="M262 0 L292 212 L118 735 L183 735 L333 292 L607 735 L671 735 L352 212 L322 0 L262 0 Z M415 895 L293 787 L269 814 L425 950 L541 814 L510 787 L415 895 Z " />
<glyph glyph-name="Ydieresis" unicode="&#x178;" horiz-adv-x="583" d="M262 0 L292 212 L118 735 L183 735 L333 292 L607 735 L671 735 L352 212 L322 0 L262 0 Z M274 886 Q276 907 293.5 922 Q311 937 331 937 Q352 937 364.5 922 Q377 907 375 886 Q372 865 354.5 850 Q337 835 316 835 Q296 835 283.5 850 Q271 865 274 886 Z M457 886 Q459 907 476.5 922 Q494 937 514 937 Q535 937 547.5 922 Q560 907 558 886 Q555 865 537.5 850 Q520 835 499 835 Q479 835 466.5 850 Q454 865 457 886 Z " />
<glyph glyph-name="Ygrave" unicode="&#x1ef2;" horiz-adv-x="583" d="M262 0 L292 212 L118 735 L183 735 L333 292 L607 735 L671 735 L352 212 L322 0 L262 0 Z M276 911 Q266 920 267.5 934 Q269 948 280 958 Q291 967 305 966.5 Q319 966 326 955 L423 814 L401 794 L276 911 Z " />
<glyph glyph-name="Zacute" unicode="&#x179;" horiz-adv-x="610" d="M132 346 L139 398 L347 398 L579 681 L145 681 L152 735 L655 735 L665 709 L415 398 L583 398 L576 346 L376 346 L138 54 L569 54 L561 0 L58 0 L49 26 L308 346 L132 346 Z M418 794 L400 814 L538 955 Q548 966 562 966.5 Q576 967 585 958 Q593 948 590 934 Q587 920 575 911 L418 794 Z " />
<glyph glyph-name="Zcaron" unicode="&#x17d;" horiz-adv-x="610" d="M132 346 L139 398 L347 398 L579 681 L145 681 L152 735 L655 735 L665 709 L415 398 L583 398 L576 346 L376 346 L138 54 L569 54 L561 0 L58 0 L49 26 L308 346 L132 346 Z M424 841 L547 950 L570 923 L415 787 L298 923 L330 950 L424 841 Z " />
<glyph glyph-name="Zdotaccent" unicode="&#x17b;" horiz-adv-x="610" d="M132 346 L139 398 L347 398 L579 681 L145 681 L152 735 L655 735 L665 709 L415 398 L583 398 L576 346 L376 346 L138 54 L569 54 L561 0 L58 0 L49 26 L308 346 L132 346 Z M379 886 Q381 907 398.5 922 Q416 937 436 937 Q457 937 469.5 922 Q482 907 480 886 Q477 865 459.5 850 Q442 835 421 835 Q401 835 388.5 850 Q376 865 379 886 Z " />
<glyph glyph-name="aacute" unicode="&#xe1;" horiz-adv-x="558" d="M441 121 Q427 94 405 70.5 Q383 47 355 29 Q327 11 293.5 1 Q260 -9 224 -9 Q182 -9 150 2.5 Q118 14 97.5 34.5 Q77 55 68.5 82.5 Q60 110 65 142 Q69 169 83.5 194 Q98 219 124 237.5 Q150 256 187 267 Q224 278 273 278 L461 278 L464 300 Q468 330 463.5 359 Q459 388 443.5 410.5 Q428 433 401.5 447 Q375 461 335 461 Q296 461 261 447 Q226 433 196 408 L164 445 Q201 477 247 496 Q293 515 342 515 Q394 515 431.5 497 Q469 479 491 449 Q513 419 521 380.5 Q529 342 523 301 L481 0 L424 0 L441 121 Z M125 142 Q119 98 150.5 70 Q182 42 239 42 Q274 42 309.5 54 Q345 66 375 90 Q405 114 426.5 149 Q448 184 454 230 L266 230 Q199 230 164.5 204.5 Q130 179 125 142 Z M361 571 L344 591 L481 732 Q491 743 505.5 743.5 Q520 744 528 735 Q536 725 533.5 711 Q531 697 519 688 L361 571 Z " />
<glyph glyph-name="abreve" unicode="&#x103;" horiz-adv-x="558" d="M441 121 Q427 94 405 70.5 Q383 47 355 29 Q327 11 293.5 1 Q260 -9 224 -9 Q182 -9 150 2.5 Q118 14 97.5 34.5 Q77 55 68.5 82.5 Q60 110 65 142 Q69 169 83.5 194 Q98 219 124 237.5 Q150 256 187 267 Q224 278 273 278 L461 278 L464 300 Q468 330 463.5 359 Q459 388 443.5 410.5 Q428 433 401.5 447 Q375 461 335 461 Q296 461 261 447 Q226 433 196 408 L164 445 Q201 477 247 496 Q293 515 342 515 Q394 515 431.5 497 Q469 479 491 449 Q513 419 521 380.5 Q529 342 523 301 L481 0 L424 0 L441 121 Z M125 142 Q119 98 150.5 70 Q182 42 239 42 Q274 42 309.5 54 Q345 66 375 90 Q405 114 426.5 149 Q448 184 454 230 L266 230 Q199 230 164.5 204.5 Q130 179 125 142 Z M260 696 L302 696 L299 679 Q295 647 313.5 625.5 Q332 604 364 604 Q396 604 420.5 625.5 Q445 647 449 679 L452 696 L494 696 L492 681 Q488 657 476 635.5 Q464 614 446 598 Q428 582 405 573 Q382 564 358 564 Q334 564 314 573 Q294 582 280 598 Q266 614 260 635.5 Q254 657 258 681 L260 696 Z " />
<glyph glyph-name="acircumflex" unicode="&#xe2;" horiz-adv-x="558" d="M441 121 Q427 94 405 70.5 Q383 47 355 29 Q327 11 293.5 1 Q260 -9 224 -9 Q182 -9 150 2.5 Q118 14 97.5 34.5 Q77 55 68.5 82.5 Q60 110 65 142 Q69 169 83.5 194 Q98 219 124 237.5 Q150 256 187 267 Q224 278 273 278 L461 278 L464 300 Q468 330 463.5 359 Q459 388 443.5 410.5 Q428 433 401.5 447 Q375 461 335 461 Q296 461 261 447 Q226 433 196 408 L164 445 Q201 477 247 496 Q293 515 342 515 Q394 515 431.5 497 Q469 479 491 449 Q513 419 521 380.5 Q529 342 523 301 L481 0 L424 0 L441 121 Z M125 142 Q119 98 150.5 70 Q182 42 239 42 Q274 42 309.5 54 Q345 66 375 90 Q405 114 426.5 149 Q448 184 454 230 L266 230 Q199 230 164.5 204.5 Q130 179 125 142 Z M371 672 L250 564 L226 591 L381 727 L498 591 L467 564 L371 672 Z " />
<glyph glyph-name="adieresis" unicode="&#xe4;" horiz-adv-x="558" d="M441 121 Q427 94 405 70.5 Q383 47 355 29 Q327 11 293.5 1 Q260 -9 224 -9 Q182 -9 150 2.5 Q118 14 97.5 34.5 Q77 55 68.5 82.5 Q60 110 65 142 Q69 169 83.5 194 Q98 219 124 237.5 Q150 256 187 267 Q224 278 273 278 L461 278 L464 300 Q468 330 463.5 359 Q459 388 443.5 410.5 Q428 433 401.5 447 Q375 461 335 461 Q296 461 261 447 Q226 433 196 408 L164 445 Q201 477 247 496 Q293 515 342 515 Q394 515 431.5 497 Q469 479 491 449 Q513 419 521 380.5 Q529 342 523 301 L481 0 L424 0 L441 121 Z M125 142 Q119 98 150.5 70 Q182 42 239 42 Q274 42 309.5 54 Q345 66 375 90 Q405 114 426.5 149 Q448 184 454 230 L266 230 Q199 230 164.5 204.5 Q130 179 125 142 Z M230 663 Q233 684 250 699 Q267 714 288 714 Q308 714 321 699 Q334 684 331 663 Q328 642 311 627 Q294 612 274 612 Q253 612 240 627 Q227 642 230 663 Z M413 663 Q416 684 433 699 Q450 714 471 714 Q491 714 504 699 Q517 684 514 663 Q511 642 494 627 Q477 612 457 612 Q436 612 423 627 Q410 642 413 663 Z " />
<glyph glyph-name="agrave" unicode="&#xe0;" horiz-adv-x="558" d="M441 121 Q427 94 405 70.5 Q383 47 355 29 Q327 11 293.5 1 Q260 -9 224 -9 Q182 -9 150 2.5 Q118 14 97.5 34.5 Q77 55 68.5 82.5 Q60 110 65 142 Q69 169 83.5 194 Q98 219 124 237.5 Q150 256 187 267 Q224 278 273 278 L461 278 L464 300 Q468 330 463.5 359 Q459 388 443.5 410.5 Q428 433 401.5 447 Q375 461 335 461 Q296 461 261 447 Q226 433 196 408 L164 445 Q201 477 247 496 Q293 515 342 515 Q394 515 431.5 497 Q469 479 491 449 Q513 419 521 380.5 Q529 342 523 301 L481 0 L424 0 L441 121 Z M125 142 Q119 98 150.5 70 Q182 42 239 42 Q274 42 309.5 54 Q345 66 375 90 Q405 114 426.5 149 Q448 184 454 230 L266 230 Q199 230 164.5 204.5 Q130 179 125 142 Z M237 688 Q227 697 228 711 Q229 725 239 735 Q251 744 265 743.5 Q279 743 286 732 L383 591 L360 571 L237 688 Z " />
<glyph glyph-name="amacron" unicode="&#x101;" horiz-adv-x="558" d="M441 121 Q427 94 405 70.5 Q383 47 355 29 Q327 11 293.5 1 Q260 -9 224 -9 Q182 -9 150 2.5 Q118 14 97.5 34.5 Q77 55 68.5 82.5 Q60 110 65 142 Q69 169 83.5 194 Q98 219 124 237.5 Q150 256 187 267 Q224 278 273 278 L461 278 L464 300 Q468 330 463.5 359 Q459 388 443.5 410.5 Q428 433 401.5 447 Q375 461 335 461 Q296 461 261 447 Q226 433 196 408 L164 445 Q201 477 247 496 Q293 515 342 515 Q394 515 431.5 497 Q469 479 491 449 Q513 419 521 380.5 Q529 342 523 301 L481 0 L424 0 L441 121 Z M125 142 Q119 98 150.5 70 Q182 42 239 42 Q274 42 309.5 54 Q345 66 375 90 Q405 114 426.5 149 Q448 184 454 230 L266 230 Q199 230 164.5 204.5 Q130 179 125 142 Z M511 613 L220 613 L226 654 L517 654 L511 613 Z " />
<glyph glyph-name="aogonek" unicode="&#x105;" horiz-adv-x="558" d="M441 121 Q427 94 405 70.5 Q383 47 355 29 Q327 11 293.5 1 Q260 -9 224 -9 L220 -9 Q190 -10 165.5 -32.5 Q141 -55 137 -86 Q132 -118 150.5 -140.5 Q169 -163 200 -163 Q230 -163 255 -140.5 Q280 -118 285 -86 L322 -86 Q319 -110 307 -131 Q295 -152 277.5 -167.5 Q260 -183 239 -192 Q218 -201 195 -201 Q172 -201 153 -192 Q134 -183 121.5 -167.5 Q109 -152 103 -131 Q97 -110 100 -86 Q104 -59 118 -36 Q132 -13 153 3 Q104 19 81 56 Q58 93 65 142 Q69 169 83.5 194 Q98 219 124 237.5 Q150 256 187 267 Q224 278 273 278 L461 278 L463 290 Q467 321 463.5 351.5 Q460 382 445.5 406.5 Q431 431 404 446 Q377 461 335 461 Q296 461 261 447 Q226 433 196 408 L164 445 Q201 477 247 496 Q293 515 342 515 Q394 515 431.5 497 Q469 479 491 449 Q513 419 521 380.5 Q529 342 523 301 L481 0 L424 0 L441 121 Z M125 142 Q119 97 150.5 69.5 Q182 42 239 42 Q274 42 309.5 54 Q345 66 375 90 Q405 114 426.5 149 Q448 184 454 230 L266 230 Q199 230 164.5 204.5 Q130 179 125 142 Z " />
<glyph glyph-name="aring" unicode="&#xe5;" horiz-adv-x="558" d="M441 121 Q427 94 405 70.5 Q383 47 355 29 Q327 11 293.5 1 Q260 -9 224 -9 Q182 -9 150 2.5 Q118 14 97.5 34.5 Q77 55 68.5 82.5 Q60 110 65 142 Q69 169 83.5 194 Q98 219 124 237.5 Q150 256 187 267 Q224 278 273 278 L461 278 L464 300 Q468 330 463.5 359 Q459 388 443.5 410.5 Q428 433 401.5 447 Q375 461 335 461 Q296 461 261 447 Q226 433 196 408 L164 445 Q201 477 247 496 Q293 515 342 515 Q394 515 431.5 497 Q469 479 491 449 Q513 419 521 380.5 Q529 342 523 301 L481 0 L424 0 L441 121 Z M125 142 Q119 98 150.5 70 Q182 42 239 42 Q274 42 309.5 54 Q345 66 375 90 Q405 114 426.5 149 Q448 184 454 230 L266 230 Q199 230 164.5 204.5 Q130 179 125 142 Z M277 672 Q283 712 315 740 Q347 768 387 768 Q427 768 451 740 Q475 712 469 672 Q464 632 432 604 Q400 576 360 576 Q320 576 296 604 Q272 632 277 672 Z M314 672 Q311 647 325.5 630 Q340 613 365 613 Q390 613 409.5 630 Q429 647 432 672 Q436 697 421.5 714 Q407 731 382 731 Q357 731 337.5 714 Q318 697 314 672 Z " />
<glyph glyph-name="atilde" unicode="&#xe3;" horiz-adv-x="558" d="M441 121 Q427 94 405 70.5 Q383 47 355 29 Q327 11 293.5 1 Q260 -9 224 -9 Q182 -9 150 2.5 Q118 14 97.5 34.5 Q77 55 68.5 82.5 Q60 110 65 142 Q69 169 83.5 194 Q98 219 124 237.5 Q150 256 187 267 Q224 278 273 278 L461 278 L464 300 Q468 330 463.5 359 Q459 388 443.5 410.5 Q428 433 401.5 447 Q375 461 335 461 Q296 461 261 447 Q226 433 196 408 L164 445 Q201 477 247 496 Q293 515 342 515 Q394 515 431.5 497 Q469 479 491 449 Q513 419 521 380.5 Q529 342 523 301 L481 0 L424 0 L441 121 Z M125 142 Q119 98 150.5 70 Q182 42 239 42 Q274 42 309.5 54 Q345 66 375 90 Q405 114 426.5 149 Q448 184 454 230 L266 230 Q199 230 164.5 204.5 Q130 179 125 142 Z M444 708 Q483 708 502 682 Q521 656 515 616 L477 616 Q480 643 469 657 Q458 671 438 671 Q420 671 405 659.5 Q390 648 374.5 633.5 Q359 619 340.5 607.5 Q322 596 297 596 Q258 596 238.5 622 Q219 648 226 688 L264 688 Q256 633 302 633 Q319 633 333.5 644.5 Q348 656 364.5 670.5 Q381 685 400 696.5 Q419 708 444 708 Z " />
<glyph glyph-name="aeacute" unicode="&#x1fd;" horiz-adv-x="968" d="M961 254 Q960 249 958.5 241.5 Q957 234 955 229 L513 229 Q507 188 519.5 154 Q532 120 556 96 Q580 72 613.5 58.5 Q647 45 683 45 Q730 45 768.5 59.5 Q807 74 839 97 L873 60 Q832 27 782.5 8.5 Q733 -10 675 -10 Q641 -10 607.5 0 Q574 10 546.5 29 Q519 48 498.5 76 Q478 104 468 141 Q432 69 367 30 Q302 -9 228 -9 Q186 -9 153.5 2.5 Q121 14 100 34.5 Q79 55 69.5 82.5 Q60 110 65 142 Q69 169 83.5 194 Q98 219 124 237.5 Q150 256 187 267 Q224 278 273 278 L461 278 L464 300 Q468 330 463.5 359 Q459 388 443.5 410.5 Q428 433 401.5 447 Q375 461 335 461 Q294 461 260 446 Q226 431 196 405 L163 442 Q200 475 247 495 Q294 515 342 515 Q415 515 457.5 478 Q500 441 512 386 Q529 414 553.5 439 Q578 464 608 482 Q638 500 672.5 510.5 Q707 521 745 521 Q803 521 847 499 Q891 477 919 440.5 Q947 404 957.5 355.5 Q968 307 961 254 Z M738 468 Q695 468 658 453 Q621 438 592 412.5 Q563 387 544.5 352 Q526 317 520 278 L903 278 Q908 315 899 349.5 Q890 384 868.5 410 Q847 436 814 452 Q781 468 738 468 Z M125 142 Q119 98 150.5 70 Q182 42 239 42 Q274 42 309.5 54 Q345 66 375 90 Q405 114 426.5 149 Q448 184 454 230 L266 230 Q199 230 164.5 204.5 Q130 179 125 142 Z M495 571 L478 591 L596 712 Q603 719 611.5 726.5 Q620 734 628.5 738.5 Q637 743 646 743 Q655 743 662 735 Q670 725 667.5 711 Q665 697 653 688 L495 571 Z " />
<glyph glyph-name="cacute" unicode="&#x107;" horiz-adv-x="536" d="M512 67 Q471 30 421.5 10 Q372 -10 315 -10 Q260 -10 214 11 Q168 32 137.5 68 Q107 104 92.5 152.5 Q78 201 86 256 Q94 311 121.5 359.5 Q149 408 190 444 Q231 480 282.5 501 Q334 522 389 522 Q448 522 494 500 Q540 478 570 440 L523 400 Q499 430 463 446.5 Q427 463 381 463 Q338 463 297.5 446.5 Q257 430 225.5 402 Q194 374 172.5 336.5 Q151 299 145 256 Q139 213 149.5 175 Q160 137 184 109 Q208 81 244 65 Q280 49 323 49 Q369 49 407.5 64.5 Q446 80 479 108 L512 67 Z M380 571 L363 591 L500 732 Q510 743 524.5 743.5 Q539 744 547 735 Q555 725 552.5 711 Q550 697 538 688 L380 571 Z " />
<glyph glyph-name="ccaron" unicode="&#x10d;" horiz-adv-x="536" d="M512 67 Q471 30 421.5 10 Q372 -10 315 -10 Q260 -10 214 11 Q168 32 137.5 68 Q107 104 92.5 152.5 Q78 201 86 256 Q94 311 121.5 359.5 Q149 408 190 444 Q231 480 282.5 501 Q334 522 389 522 Q448 522 494 500 Q540 478 570 440 L523 400 Q499 430 463 446.5 Q427 463 381 463 Q338 463 297.5 446.5 Q257 430 225.5 402 Q194 374 172.5 336.5 Q151 299 145 256 Q139 213 149.5 175 Q160 137 184 109 Q208 81 244 65 Q280 49 323 49 Q369 49 407.5 64.5 Q446 80 479 108 L512 67 Z M357 618 L479 727 L502 700 L347 564 L230 700 L262 727 L357 618 Z " />
<glyph glyph-name="ccedilla" unicode="&#xe7;" horiz-adv-x="536" d="M512 67 Q435 -3 331 -9 L326 -42 Q357 -47 377 -72.5 Q397 -98 392 -136 Q386 -178 353.5 -205 Q321 -232 281 -232 Q261 -232 245.5 -224.5 Q230 -217 217 -204 L248 -179 Q255 -186 265 -190.5 Q275 -195 287 -195 Q311 -195 330.5 -178.5 Q350 -162 354 -136 Q358 -110 343.5 -93.5 Q329 -77 303 -77 Q289 -77 278 -81.5 Q267 -86 259 -93 L236 -68 Q247 -58 260.5 -51 Q274 -44 290 -42 L295 -9 Q243 -5 201 17 Q159 39 131 74.5 Q103 110 91 156.5 Q79 203 86 256 Q94 311 121.5 359.5 Q149 408 190 444 Q231 480 282.5 501 Q334 522 389 522 Q448 522 494 500 Q540 478 570 440 L523 400 Q499 430 463 446.5 Q427 463 381 463 Q338 463 297.5 446.5 Q257 430 225.5 402 Q194 374 172.5 336.5 Q151 299 145 256 Q139 214 149.5 177 Q160 140 183 112.5 Q206 85 239.5 68 Q273 51 314 49 L331 49 Q374 50 411 65.5 Q448 81 479 108 L512 67 Z " />
<glyph glyph-name="ccircumflex" unicode="&#x109;" horiz-adv-x="536" d="M512 67 Q471 30 421.5 10 Q372 -10 315 -10 Q260 -10 214 11 Q168 32 137.5 68 Q107 104 92.5 152.5 Q78 201 86 256 Q94 311 121.5 359.5 Q149 408 190 444 Q231 480 282.5 501 Q334 522 389 522 Q448 522 494 500 Q540 478 570 440 L523 400 Q499 430 463 446.5 Q427 463 381 463 Q338 463 297.5 446.5 Q257 430 225.5 402 Q194 374 172.5 336.5 Q151 299 145 256 Q139 213 149.5 175 Q160 137 184 109 Q208 81 244 65 Q280 49 323 49 Q369 49 407.5 64.5 Q446 80 479 108 L512 67 Z M400 672 L279 564 L255 591 L410 727 L527 591 L496 564 L400 672 Z " />
<glyph glyph-name="cdotaccent" unicode="&#x10b;" horiz-adv-x="536" d="M512 67 Q471 30 421.5 10 Q372 -10 315 -10 Q260 -10 214 11 Q168 32 137.5 68 Q107 104 92.5 152.5 Q78 201 86 256 Q94 311 121.5 359.5 Q149 408 190 444 Q231 480 282.5 501 Q334 522 389 522 Q448 522 494 500 Q540 478 570 440 L523 400 Q499 430 463 446.5 Q427 463 381 463 Q338 463 297.5 446.5 Q257 430 225.5 402 Q194 374 172.5 336.5 Q151 299 145 256 Q139 213 149.5 175 Q160 137 184 109 Q208 81 244 65 Q280 49 323 49 Q369 49 407.5 64.5 Q446 80 479 108 L512 67 Z M350 663 Q353 684 370 699 Q387 714 408 714 Q429 714 442 699 Q455 684 452 663 Q449 642 432 627 Q415 612 394 612 Q373 612 360 627 Q347 642 350 663 Z " />
<glyph glyph-name="eacute" unicode="&#xe9;" horiz-adv-x="602" d="M595 254 Q594 249 592.5 241.5 Q591 234 589 229 L147 229 Q141 188 153.5 154 Q166 120 190 96 Q214 72 247 58.5 Q280 45 317 45 Q364 45 402 59.5 Q440 74 473 97 L506 60 Q465 27 416 8.5 Q367 -10 309 -10 Q262 -10 218 7 Q174 24 142.5 58 Q111 92 95.5 141.5 Q80 191 89 256 Q97 311 121.5 359.5 Q146 408 184 444 Q222 480 271.5 500.5 Q321 521 378 521 Q437 521 481 499 Q525 477 553 440.5 Q581 404 591.5 355.5 Q602 307 595 254 Z M372 468 Q329 468 292 453 Q255 438 226 412.5 Q197 387 178.5 352 Q160 317 154 278 L537 278 Q542 315 533 349.5 Q524 384 502 410 Q480 436 447.5 452 Q415 468 372 468 Z M383 571 L366 591 L483 712 Q490 719 499 726.5 Q508 734 516.5 738.5 Q525 743 534 743 Q543 743 550 735 Q558 725 555.5 711 Q553 697 541 688 L383 571 Z " />
<glyph glyph-name="ebreve" unicode="&#x115;" horiz-adv-x="602" d="M595 254 Q594 249 592.5 241.5 Q591 234 589 229 L147 229 Q141 188 153.5 154 Q166 120 190 96 Q214 72 247 58.5 Q280 45 317 45 Q364 45 402 59.5 Q440 74 473 97 L506 60 Q465 27 416 8.5 Q367 -10 309 -10 Q262 -10 218 7 Q174 24 142.5 58 Q111 92 95.5 141.5 Q80 191 89 256 Q97 311 121.5 359.5 Q146 408 184 444 Q222 480 271.5 500.5 Q321 521 378 521 Q437 521 481 499 Q525 477 553 440.5 Q581 404 591.5 355.5 Q602 307 595 254 Z M282 696 L324 696 L321 679 Q317 647 335.5 625.5 Q354 604 386 604 Q418 604 442.5 625 Q467 646 471 679 L474 696 L516 696 L514 681 Q510 657 498 635.5 Q486 614 468 598 Q450 582 427 573 Q404 564 380 564 Q355 564 335 573.5 Q315 583 301.5 598.5 Q288 614 282 635.5 Q276 657 280 681 L282 696 Z M372 468 Q329 468 292 453 Q255 438 226 412.5 Q197 387 178.5 352 Q160 317 154 278 L537 278 Q542 315 533 349.5 Q524 384 502 410 Q480 436 447.5 452 Q415 468 372 468 Z " />
<glyph glyph-name="ecaron" unicode="&#x11b;" horiz-adv-x="602" d="M595 254 Q594 249 592.5 241.5 Q591 234 589 229 L147 229 Q141 188 153.5 154 Q166 120 190 96 Q214 72 247 58.5 Q280 45 317 45 Q364 45 402 59.5 Q440 74 473 97 L506 60 Q465 27 416 8.5 Q367 -10 309 -10 Q262 -10 218 7 Q174 24 142.5 58 Q111 92 95.5 141.5 Q80 191 89 256 Q97 311 121.5 359.5 Q146 408 184 444 Q222 480 271.5 500.5 Q321 521 378 521 Q437 521 481 499 Q525 477 553 440.5 Q581 404 591.5 355.5 Q602 307 595 254 Z M390 618 L512 727 L535 700 L380 564 L263 700 L295 727 L390 618 Z M372 468 Q329 468 292 453 Q255 438 226 412.5 Q197 387 178.5 352 Q160 317 154 278 L537 278 Q542 315 533 349.5 Q524 384 502 410 Q480 436 447.5 452 Q415 468 372 468 Z " />
<glyph glyph-name="ecircumflex" unicode="&#xea;" horiz-adv-x="602" d="M595 254 Q594 249 592.5 241.5 Q591 234 589 229 L147 229 Q141 188 153.5 154 Q166 120 190 96 Q214 72 247 58.5 Q280 45 317 45 Q364 45 402 59.5 Q440 74 473 97 L506 60 Q465 27 416 8.5 Q367 -10 309 -10 Q262 -10 218 7 Q174 24 142.5 58 Q111 92 95.5 141.5 Q80 191 89 256 Q97 311 121.5 359.5 Q146 408 184 444 Q222 480 271.5 500.5 Q321 521 378 521 Q437 521 481 499 Q525 477 553 440.5 Q581 404 591.5 355.5 Q602 307 595 254 Z M393 672 L272 564 L248 591 L403 727 L520 591 L489 564 L393 672 Z M372 468 Q329 468 292 453 Q255 438 226 412.5 Q197 387 178.5 352 Q160 317 154 278 L537 278 Q542 315 533 349.5 Q524 384 502 410 Q480 436 447.5 452 Q415 468 372 468 Z " />
<glyph glyph-name="edieresis" unicode="&#xeb;" horiz-adv-x="602" d="M595 254 Q594 249 592.5 241.5 Q591 234 589 229 L147 229 Q141 188 153.5 154 Q166 120 190 96 Q214 72 247 58.5 Q280 45 317 45 Q364 45 402 59.5 Q440 74 473 97 L506 60 Q465 27 416 8.5 Q367 -10 309 -10 Q262 -10 218 7 Q174 24 142.5 58 Q111 92 95.5 141.5 Q80 191 89 256 Q97 311 121.5 359.5 Q146 408 184 444 Q222 480 271.5 500.5 Q321 521 378 521 Q437 521 481 499 Q525 477 553 440.5 Q581 404 591.5 355.5 Q602 307 595 254 Z M435 663 Q438 684 455 699 Q472 714 493 714 Q513 714 526 699 Q539 684 536 663 Q533 642 516 627 Q499 612 479 612 Q458 612 445 627 Q432 642 435 663 Z M252 663 Q255 684 272 699 Q289 714 310 714 Q330 714 343 699 Q356 684 353 663 Q350 642 333 627 Q316 612 296 612 Q275 612 262 627 Q249 642 252 663 Z M372 468 Q329 468 292 453 Q255 438 226 412.5 Q197 387 178.5 352 Q160 317 154 278 L537 278 Q542 315 533 349.5 Q524 384 502 410 Q480 436 447.5 452 Q415 468 372 468 Z " />
<glyph glyph-name="edotaccent" unicode="&#x117;" horiz-adv-x="602" d="M595 254 Q594 249 592.5 241.5 Q591 234 589 229 L147 229 Q141 188 153.5 154 Q166 120 190 96 Q214 72 247 58.5 Q280 45 317 45 Q364 45 402 59.5 Q440 74 473 97 L506 60 Q465 27 416 8.5 Q367 -10 309 -10 Q262 -10 218 7 Q174 24 142.5 58 Q111 92 95.5 141.5 Q80 191 89 256 Q97 311 121.5 359.5 Q146 408 184 444 Q222 480 271.5 500.5 Q321 521 378 521 Q437 521 481 499 Q525 477 553 440.5 Q581 404 591.5 355.5 Q602 307 595 254 Z M343 663 Q346 684 363 699 Q380 714 401 714 Q422 714 435 699 Q448 684 445 663 Q442 642 425 627 Q408 612 387 612 Q366 612 353 627 Q340 642 343 663 Z M372 468 Q329 468 292 453 Q255 438 226 412.5 Q197 387 178.5 352 Q160 317 154 278 L537 278 Q542 315 533 349.5 Q524 384 502 410 Q480 436 447.5 452 Q415 468 372 468 Z " />
<glyph glyph-name="egrave" unicode="&#xe8;" horiz-adv-x="602" d="M595 254 Q594 249 592.5 241.5 Q591 234 589 229 L147 229 Q141 188 153.5 154 Q166 120 190 96 Q214 72 247 58.5 Q280 45 317 45 Q364 45 402 59.5 Q440 74 473 97 L506 60 Q465 27 416 8.5 Q367 -10 309 -10 Q262 -10 218 7 Q174 24 142.5 58 Q111 92 95.5 141.5 Q80 191 89 256 Q97 311 121.5 359.5 Q146 408 184 444 Q222 480 271.5 500.5 Q321 521 378 521 Q437 521 481 499 Q525 477 553 440.5 Q581 404 591.5 355.5 Q602 307 595 254 Z M372 468 Q329 468 292 453 Q255 438 226 412.5 Q197 387 178.5 352 Q160 317 154 278 L537 278 Q542 315 533 349.5 Q524 384 502 410 Q480 436 447.5 452 Q415 468 372 468 Z M256 688 Q246 697 247 711 Q248 725 258 735 Q267 743 279.5 743.5 Q292 744 299 737 Q308 727 317 716 L402 591 L379 571 L256 688 Z " />
<glyph glyph-name="emacron" unicode="&#x113;" horiz-adv-x="602" d="M595 254 Q594 249 592.5 241.5 Q591 234 589 229 L147 229 Q141 188 153.5 154 Q166 120 190 96 Q214 72 247 58.5 Q280 45 317 45 Q364 45 402 59.5 Q440 74 473 97 L506 60 Q465 27 416 8.5 Q367 -10 309 -10 Q262 -10 218 7 Q174 24 142.5 58 Q111 92 95.5 141.5 Q80 191 89 256 Q97 311 121.5 359.5 Q146 408 184 444 Q222 480 271.5 500.5 Q321 521 378 521 Q437 521 481 499 Q525 477 553 440.5 Q581 404 591.5 355.5 Q602 307 595 254 Z M533 613 L242 613 L248 654 L539 654 L533 613 Z M372 468 Q329 468 292 453 Q255 438 226 412.5 Q197 387 178.5 352 Q160 317 154 278 L537 278 Q542 315 533 349.5 Q524 384 502 410 Q480 436 447.5 452 Q415 468 372 468 Z " />
<glyph glyph-name="eogonek" unicode="&#x119;" horiz-adv-x="602" d="M186 -87 Q190 -60 204 -37.5 Q218 -15 238 1 Q202 11 171.5 32.5 Q141 54 120.5 86 Q100 118 91 160.5 Q82 203 89 256 Q97 311 121.5 359.5 Q146 408 184 444 Q222 480 271.5 500.5 Q321 521 378 521 Q437 521 481 499 Q525 477 553 440.5 Q581 404 591.5 355.5 Q602 307 595 254 Q594 249 592.5 241.5 Q591 234 589 229 L147 229 Q141 188 153.5 154 Q166 120 190 96 Q214 72 247 58.5 Q280 45 317 45 Q364 45 402 59.5 Q440 74 473 97 L506 60 Q465 27 416 8.5 Q367 -10 309 -10 L305 -10 Q274 -12 251 -34.5 Q228 -57 224 -87 Q219 -119 237.5 -141.5 Q256 -164 287 -164 Q317 -164 341.5 -141.5 Q366 -119 371 -87 L409 -87 Q405 -111 393 -132 Q381 -153 364 -168.5 Q347 -184 326 -193 Q305 -202 282 -202 Q259 -202 239.5 -193 Q220 -184 207 -168.5 Q194 -153 188 -132 Q182 -111 186 -87 Z M372 468 Q329 468 292 453 Q255 438 226 412.5 Q197 387 178.5 352 Q160 317 154 278 L537 278 Q542 315 533 349.5 Q524 384 502 410 Q480 436 447.5 452 Q415 468 372 468 Z " />
<glyph glyph-name="fi" unicode="&#xfb01;" horiz-adv-x="580" d="M512 616 Q515 641 512 665 Q509 689 497 708.5 Q485 728 463 740 Q441 752 406 752 Q380 752 356 742.5 Q332 733 313 715 Q294 697 280.5 672 Q267 647 263 616 L248 512 L413 512 L406 460 L241 460 L176 0 L117 0 L182 460 L85 460 L92 512 L189 512 L204 616 Q209 654 227 689 Q245 724 272.5 750.5 Q300 777 336.5 792.5 Q373 808 415 808 Q460 808 491.5 792.5 Q523 777 543 750.5 Q563 724 570 689.5 Q577 655 572 616 L512 616 Z M557 512 L485 0 L425 0 L497 512 L557 512 Z " />
<glyph glyph-name="dotlessi" unicode="&#x131;" horiz-adv-x="248" d="M226 512 L154 0 L94 0 L166 512 L226 512 Z " />
<glyph glyph-name="iacute" unicode="&#xed;" horiz-adv-x="248" d="M226 512 L154 0 L94 0 L166 512 L226 512 Z M206 571 L189 591 L326 732 Q336 743 350.5 743.5 Q365 744 373 735 Q381 725 378.5 711 Q376 697 364 688 L206 571 Z " />
<glyph glyph-name="ibreve" unicode="&#x12d;" horiz-adv-x="248" d="M226 512 L154 0 L94 0 L166 512 L226 512 Z M105 696 L147 696 L144 679 Q140 647 158.5 625.5 Q177 604 209 604 Q241 604 265.5 625.5 Q290 647 294 679 L297 696 L339 696 L337 681 Q333 657 321 635.5 Q309 614 291 598 Q273 582 250 573 Q227 564 203 564 Q179 564 159 573 Q139 582 125 598 Q111 614 105 635.5 Q99 657 103 681 L105 696 Z " />
<glyph glyph-name="icircumflex" unicode="&#xee;" horiz-adv-x="248" d="M226 512 L154 0 L94 0 L166 512 L226 512 Z M216 672 L95 564 L71 591 L226 727 L343 591 L312 564 L216 672 Z " />
<glyph glyph-name="idieresis" unicode="&#xef;" horiz-adv-x="248" d="M226 512 L154 0 L94 0 L166 512 L226 512 Z M75 663 Q78 684 95 699 Q112 714 133 714 Q153 714 166 699 Q179 684 176 663 Q173 642 156 627 Q139 612 119 612 Q98 612 85 627 Q72 642 75 663 Z M258 663 Q261 684 278 699 Q295 714 316 714 Q336 714 349 699 Q362 684 359 663 Q356 642 339 627 Q322 612 302 612 Q281 612 268 627 Q255 642 258 663 Z " />
<glyph glyph-name="igrave" unicode="&#xec;" horiz-adv-x="248" d="M226 512 L154 0 L94 0 L166 512 L226 512 Z M79 688 Q69 697 70 711 Q71 725 81 735 Q93 744 107 743.5 Q121 743 128 732 L225 591 L202 571 L79 688 Z " />
<glyph glyph-name="imacron" unicode="&#x12b;" horiz-adv-x="248" d="M226 512 L154 0 L94 0 L166 512 L226 512 Z M356 613 L65 613 L71 654 L362 654 L356 613 Z " />
<glyph glyph-name="iogonek" unicode="&#x12f;" horiz-adv-x="248" d="M2 -77 Q8 -37 35 -7 Q62 23 98 31 L166 512 L226 512 L154 0 L120 0 Q91 -2 67 -24.5 Q43 -47 39 -77 Q35 -109 53 -131.5 Q71 -154 102 -154 Q132 -154 157.5 -131.5 Q183 -109 187 -77 L224 -77 Q221 -101 209 -122 Q197 -143 180 -158.5 Q163 -174 141.5 -183 Q120 -192 97 -192 Q74 -192 55.5 -183 Q37 -174 24 -158.5 Q11 -143 5 -122 Q-1 -101 2 -77 Z M178 716 Q180 736 195.5 749.5 Q211 763 231 763 Q251 763 262.5 749.5 Q274 736 272 716 Q269 696 253.5 682 Q238 668 218 668 Q198 668 186.5 682 Q175 696 178 716 Z " />
<glyph glyph-name="itilde" unicode="&#x129;" horiz-adv-x="248" d="M226 512 L154 0 L94 0 L166 512 L226 512 Z M290 708 Q328 708 347.5 682 Q367 656 360 616 L323 616 Q326 643 315 657 Q304 671 284 671 Q266 671 251 659.5 Q236 648 220 633.5 Q204 619 186 607.5 Q168 596 143 596 Q104 596 84.5 622 Q65 648 72 688 L110 688 Q102 633 148 633 Q165 633 179.5 644.5 Q194 656 210 670.5 Q226 685 245.5 696.5 Q265 708 290 708 Z " />
<glyph glyph-name="ij" unicode="&#x133;" horiz-adv-x="502" d="M226 512 L154 0 L94 0 L166 512 L226 512 Z M178 716 Q180 736 195.5 749.5 Q211 763 231 763 Q251 763 262.5 749.5 Q274 736 272 716 Q269 696 253.5 682 Q238 668 218 668 Q198 668 186.5 682 Q175 696 178 716 Z M312 -242 L418 512 L477 512 L371 -242 L312 -242 Z M429 716 Q431 736 446.5 749.5 Q462 763 482 763 Q502 763 513.5 749.5 Q525 736 523 716 Q520 696 504.5 682 Q489 668 469 668 Q449 668 437.5 682 Q426 696 429 716 Z " />
<glyph glyph-name="lacute" unicode="&#x13a;" horiz-adv-x="234" d="M87 0 L195 768 L255 768 L147 0 L87 0 Z M229 794 L212 814 L349 955 Q359 966 373.5 966.5 Q388 967 397 958 Q404 948 401 934 Q398 920 386 911 L229 794 Z " />
<glyph glyph-name="lcaron" unicode="&#x13e;" horiz-adv-x="401" d="M87 0 L195 768 L255 768 L147 0 L87 0 Z M348 548 L401 635 Q385 639 375 652.5 Q365 666 367 685 Q370 706 386.5 721 Q403 736 424 736 Q438 736 448 729 Q458 722 462.5 711 Q467 700 466 686 Q465 672 457 659 L380 532 L348 548 Z " />
<glyph glyph-name="lcommaaccent" unicode="&#x13c;" horiz-adv-x="234" d="M87 0 L195 768 L255 768 L147 0 L87 0 Z M42 -222 L87 -146 Q74 -143 66 -131.5 Q58 -120 60 -105 Q63 -88 76 -76 Q89 -64 106 -64 Q118 -64 126 -69.5 Q134 -75 138 -84 Q142 -93 141 -104 Q140 -115 133 -126 L67 -235 L42 -222 Z " />
<glyph glyph-name="ldot" unicode="&#x140;" horiz-adv-x="397" d="M321 371 Q324 391 341 406 Q358 421 379 421 Q399 421 412 406 Q425 391 422 371 Q419 350 402 335 Q385 320 365 320 Q344 320 331 335 Q318 350 321 371 Z M87 0 L195 768 L255 768 L147 0 L87 0 Z " />
<glyph glyph-name="lslash" unicode="&#x142;" horiz-adv-x="234" d="M87 0 L131 316 L10 285 L5 322 L137 356 L195 768 L255 768 L199 372 L320 403 L324 366 L194 333 L147 0 L87 0 Z " />
<glyph glyph-name="kcommaaccent" unicode="&#x137;" horiz-adv-x="528" d="M254 768 L186 284 L332 284 L502 512 L566 512 L376 256 L494 0 L430 0 L324 228 L178 228 L146 0 L87 0 L195 768 L254 768 Z M189 -222 L235 -146 Q222 -143 214 -131.5 Q206 -120 208 -105 Q211 -88 224 -76 Q237 -64 254 -64 Q265 -64 273 -69.5 Q281 -75 285 -84 Q289 -93 288 -104 Q287 -115 280 -126 L214 -235 L189 -222 Z " />
<glyph glyph-name="hbar" unicode="&#x127;" horiz-adv-x="662" d="M592 0 L532 0 L569 266 Q575 306 565 341 Q555 376 532.5 402 Q510 428 477 443 Q444 458 404 458 Q365 458 328 441 Q291 424 260 395 Q229 366 208 327 Q187 288 181 244 L147 0 L87 0 L169 584 L51 553 L46 590 L175 623 L195 768 L255 768 L237 639 L360 671 L365 634 L231 600 L200 375 Q217 406 241 432 Q265 458 295 477 Q325 496 358 506 Q391 516 425 515 Q474 515 515 495 Q556 475 583.5 440.5 Q611 406 623.5 359.5 Q636 313 628 259 L592 0 Z " />
<glyph glyph-name="hcircumflex" unicode="&#x125;" horiz-adv-x="662" d="M592 0 L532 0 L569 266 Q575 306 565 341 Q555 376 532.5 402 Q510 428 477 443 Q444 458 404 458 Q365 458 328 441 Q291 424 260 395 Q229 366 208 327 Q187 288 181 244 L147 0 L87 0 L195 768 L255 768 L200 375 Q217 406 241 432 Q265 458 295 477 Q325 496 358 506 Q391 516 425 515 Q474 515 515 495 Q556 475 583.5 440.5 Q611 406 623.5 359.5 Q636 313 628 259 L592 0 Z M452 672 L331 564 L307 591 L462 727 L579 591 L548 564 L452 672 Z " />
<glyph glyph-name="dcaron" unicode="&#x10f;" horiz-adv-x="811" d="M89 256 Q96 309 122.5 356 Q149 403 188 437.5 Q227 472 277.5 492 Q328 512 383 512 Q414 512 441.5 503 Q469 494 491.5 479.5 Q514 465 530.5 446 Q547 427 555 406 L606 768 L665 768 L557 0 L498 0 L513 107 Q499 87 478 67.5 Q457 48 431 33 Q405 18 374.5 9 Q344 0 311 0 Q256 0 211.5 20 Q167 40 137 74.5 Q107 109 94.5 156 Q82 203 89 256 Z M547 256 Q553 299 543 336 Q533 373 511 400 Q489 427 455.5 442.5 Q422 458 381 458 Q338 458 299 442.5 Q260 427 228.5 400 Q197 373 176 336 Q155 299 149 256 Q143 213 154 176 Q165 139 188.5 112 Q212 85 247 69.5 Q282 54 325 54 Q366 54 403.5 69.5 Q441 85 471 112 Q501 139 521 176 Q541 213 547 256 Z M758 548 L811 635 Q795 639 785 652.5 Q775 666 777 685 Q780 706 796.5 721 Q813 736 834 736 Q848 736 858 729 Q868 722 873 711 Q878 700 876.5 686 Q875 672 867 659 L790 532 L758 548 Z " />
<glyph glyph-name="nacute" unicode="&#x144;" horiz-adv-x="652" d="M581 0 L522 0 L561 276 Q566 316 557.5 351 Q549 386 529 412 Q509 438 477 453 Q445 468 403 468 Q364 468 327 452.5 Q290 437 261 410 Q232 383 211 345.5 Q190 308 183 264 L146 0 L87 0 L159 512 L218 512 L201 390 Q212 412 233 435 Q254 458 283 477.5 Q312 497 346.5 509.5 Q381 522 419 522 Q470 522 511 503.5 Q552 485 578.5 451 Q605 417 616 370.5 Q627 324 619 268 L581 0 Z M409 571 L392 591 L530 732 Q539 743 553.5 743.5 Q568 744 576 735 Q585 725 582 711 Q579 697 567 688 L409 571 Z " />
<glyph glyph-name="napostrophe" unicode="&#x149;" horiz-adv-x="652" d="M581 0 L522 0 L561 276 Q566 316 557.5 351 Q549 386 529 412 Q509 438 477 453 Q445 468 403 468 Q364 468 327 452.5 Q290 437 261 410 Q232 383 211 345.5 Q190 308 183 264 L146 0 L87 0 L159 512 L218 512 L201 390 Q212 412 233 435 Q254 458 283 477.5 Q312 497 346.5 509.5 Q381 522 419 522 Q470 522 511 503.5 Q552 485 578.5 451 Q605 417 616 370.5 Q627 324 619 268 L581 0 Z M173 615 L227 702 Q210 706 200 719.5 Q190 733 193 752 Q196 773 212.5 788 Q229 803 250 803 Q264 803 274 796 Q284 789 289 778 Q294 767 292.5 753 Q291 739 282 726 L205 599 L173 615 Z " />
<glyph glyph-name="ncaron" unicode="&#x148;" horiz-adv-x="652" d="M581 0 L522 0 L561 276 Q566 316 557.5 351 Q549 386 529 412 Q509 438 477 453 Q445 468 403 468 Q364 468 327 452.5 Q290 437 261 410 Q232 383 211 345.5 Q190 308 183 264 L146 0 L87 0 L159 512 L218 512 L201 390 Q212 412 233 435 Q254 458 283 477.5 Q312 497 346.5 509.5 Q381 522 419 522 Q470 522 511 503.5 Q552 485 578.5 451 Q605 417 616 370.5 Q627 324 619 268 L581 0 Z M436 618 L558 727 L581 700 L426 564 L309 700 L341 727 L436 618 Z " />
<glyph glyph-name="ncommaaccent" unicode="&#x146;" horiz-adv-x="652" d="M581 0 L522 0 L561 276 Q566 316 557.5 351 Q549 386 529 412 Q509 438 477 453 Q445 468 403 468 Q364 468 327 452.5 Q290 437 261 410 Q232 383 211 345.5 Q190 308 183 264 L146 0 L87 0 L159 512 L218 512 L201 390 Q212 412 233 435 Q254 458 283 477.5 Q312 497 346.5 509.5 Q381 522 419 522 Q470 522 511 503.5 Q552 485 578.5 451 Q605 417 616 370.5 Q627 324 619 268 L581 0 Z M253 -222 L298 -146 Q285 -143 277 -131.5 Q269 -120 271 -105 Q274 -88 287 -76 Q300 -64 317 -64 Q329 -64 337 -69.5 Q345 -75 349 -84 Q353 -93 352 -104 Q351 -115 344 -126 L278 -235 L253 -222 Z " />
<glyph glyph-name="ntilde" unicode="&#xf1;" horiz-adv-x="652" d="M581 0 L522 0 L561 276 Q566 316 557.5 351 Q549 386 529 412 Q509 438 477 453 Q445 468 403 468 Q364 468 327 452.5 Q290 437 261 410 Q232 383 211 345.5 Q190 308 183 264 L146 0 L87 0 L159 512 L218 512 L201 390 Q212 412 233 435 Q254 458 283 477.5 Q312 497 346.5 509.5 Q381 522 419 522 Q470 522 511 503.5 Q552 485 578.5 451 Q605 417 616 370.5 Q627 324 619 268 L581 0 Z M493 708 Q531 708 550.5 682 Q570 656 563 616 L525 616 Q528 643 517.5 657 Q507 671 487 671 Q469 671 454 659.5 Q439 648 423 633.5 Q407 619 388.5 607.5 Q370 596 345 596 Q306 596 287 622 Q268 648 274 688 L313 688 Q305 633 350 633 Q367 633 381.5 644.5 Q396 656 412.5 670.5 Q429 685 448.5 696.5 Q468 708 493 708 Z " />
<glyph glyph-name="oacute" unicode="&#xf3;" horiz-adv-x="625" d="M86 256 Q94 311 121 358.5 Q148 406 188.5 441.5 Q229 477 280 497.5 Q331 518 385 518 Q440 518 485 497.5 Q530 477 560.5 441.5 Q591 406 605 358.5 Q619 311 611 256 Q603 201 576 153 Q549 105 508.5 69.5 Q468 34 417 13.5 Q366 -7 311 -7 Q257 -7 212 13.5 Q167 34 136.5 69.5 Q106 105 92 153 Q78 201 86 256 Z M145 256 Q139 214 150 176.5 Q161 139 185 111.5 Q209 84 243 68 Q277 52 319 52 Q361 52 400.5 68 Q440 84 472 111.5 Q504 139 525 176.5 Q546 214 552 256 Q558 298 547 335 Q536 372 512 400 Q488 428 453.5 444 Q419 460 377 460 Q335 460 296 444 Q257 428 225 400 Q193 372 172 335 Q151 298 145 256 Z M394 571 L377 591 L515 732 Q524 743 538.5 743.5 Q553 744 561 735 Q570 725 567 711 Q564 697 552 688 L394 571 Z " />
<glyph glyph-name="obreve" unicode="&#x14f;" horiz-adv-x="625" d="M86 256 Q94 311 121 358.5 Q148 406 188.5 441.5 Q229 477 280 497.5 Q331 518 385 518 Q440 518 485 497.5 Q530 477 560.5 441.5 Q591 406 605 358.5 Q619 311 611 256 Q603 201 576 153 Q549 105 508.5 69.5 Q468 34 417 13.5 Q366 -7 311 -7 Q257 -7 212 13.5 Q167 34 136.5 69.5 Q106 105 92 153 Q78 201 86 256 Z M145 256 Q139 214 150 176.5 Q161 139 185 111.5 Q209 84 243 68 Q277 52 319 52 Q361 52 400.5 68 Q440 84 472 111.5 Q504 139 525 176.5 Q546 214 552 256 Q558 298 547 335 Q536 372 512 400 Q488 428 453.5 444 Q419 460 377 460 Q335 460 296 444 Q257 428 225 400 Q193 372 172 335 Q151 298 145 256 Z M293 696 L335 696 L332 679 Q328 647 346.5 625.5 Q365 604 397 604 Q429 604 454 625.5 Q479 647 483 679 L486 696 L527 696 L525 681 Q521 657 509 635.5 Q497 614 479 598 Q461 582 438 573 Q415 564 391 564 Q367 564 347 573 Q327 582 313 598 Q299 614 293 635.5 Q287 657 291 681 L293 696 Z " />
<glyph glyph-name="ocircumflex" unicode="&#xf4;" horiz-adv-x="625" d="M86 256 Q94 311 121 358.5 Q148 406 188.5 441.5 Q229 477 280 497.5 Q331 518 385 518 Q440 518 485 497.5 Q530 477 560.5 441.5 Q591 406 605 358.5 Q619 311 611 256 Q603 201 576 153 Q549 105 508.5 69.5 Q468 34 417 13.5 Q366 -7 311 -7 Q257 -7 212 13.5 Q167 34 136.5 69.5 Q106 105 92 153 Q78 201 86 256 Z M145 256 Q139 214 150 176.5 Q161 139 185 111.5 Q209 84 243 68 Q277 52 319 52 Q361 52 400.5 68 Q440 84 472 111.5 Q504 139 525 176.5 Q546 214 552 256 Q558 298 547 335 Q536 372 512 400 Q488 428 453.5 444 Q419 460 377 460 Q335 460 296 444 Q257 428 225 400 Q193 372 172 335 Q151 298 145 256 Z M405 672 L283 564 L259 591 L414 727 L531 591 L500 564 L405 672 Z " />
<glyph glyph-name="odieresis" unicode="&#xf6;" horiz-adv-x="625" d="M86 256 Q94 311 121 358.5 Q148 406 188.5 441.5 Q229 477 280 497.5 Q331 518 385 518 Q440 518 485 497.5 Q530 477 560.5 441.5 Q591 406 605 358.5 Q619 311 611 256 Q603 201 576 153 Q549 105 508.5 69.5 Q468 34 417 13.5 Q366 -7 311 -7 Q257 -7 212 13.5 Q167 34 136.5 69.5 Q106 105 92 153 Q78 201 86 256 Z M145 256 Q139 214 150 176.5 Q161 139 185 111.5 Q209 84 243 68 Q277 52 319 52 Q361 52 400.5 68 Q440 84 472 111.5 Q504 139 525 176.5 Q546 214 552 256 Q558 298 547 335 Q536 372 512 400 Q488 428 453.5 444 Q419 460 377 460 Q335 460 296 444 Q257 428 225 400 Q193 372 172 335 Q151 298 145 256 Z M263 663 Q266 684 283 699 Q300 714 321 714 Q342 714 355 699 Q368 684 365 663 Q362 642 345 627 Q328 612 307 612 Q286 612 273 627 Q260 642 263 663 Z M446 663 Q449 684 466 699 Q483 714 504 714 Q525 714 538 699 Q551 684 548 663 Q545 642 528 627 Q511 612 490 612 Q469 612 456 627 Q443 642 446 663 Z " />
<glyph glyph-name="ograve" unicode="&#xf2;" horiz-adv-x="625" d="M86 256 Q94 311 121 358.5 Q148 406 188.5 441.5 Q229 477 280 497.5 Q331 518 385 518 Q440 518 485 497.5 Q530 477 560.5 441.5 Q591 406 605 358.5 Q619 311 611 256 Q603 201 576 153 Q549 105 508.5 69.5 Q468 34 417 13.5 Q366 -7 311 -7 Q257 -7 212 13.5 Q167 34 136.5 69.5 Q106 105 92 153 Q78 201 86 256 Z M145 256 Q139 214 150 176.5 Q161 139 185 111.5 Q209 84 243 68 Q277 52 319 52 Q361 52 400.5 68 Q440 84 472 111.5 Q504 139 525 176.5 Q546 214 552 256 Q558 298 547 335 Q536 372 512 400 Q488 428 453.5 444 Q419 460 377 460 Q335 460 296 444 Q257 428 225 400 Q193 372 172 335 Q151 298 145 256 Z M267 688 Q257 697 258 711 Q259 725 270 735 Q282 744 295.5 743.5 Q309 743 316 732 L414 591 L391 571 L267 688 Z " />
<glyph glyph-name="ohungarumlaut" unicode="&#x151;" horiz-adv-x="625" d="M86 256 Q94 311 121 358.5 Q148 406 188.5 441.5 Q229 477 280 497.5 Q331 518 385 518 Q440 518 485 497.5 Q530 477 560.5 441.5 Q591 406 605 358.5 Q619 311 611 256 Q603 201 576 153 Q549 105 508.5 69.5 Q468 34 417 13.5 Q366 -7 311 -7 Q257 -7 212 13.5 Q167 34 136.5 69.5 Q106 105 92 153 Q78 201 86 256 Z M145 256 Q139 214 150 176.5 Q161 139 185 111.5 Q209 84 243 68 Q277 52 319 52 Q361 52 400.5 68 Q440 84 472 111.5 Q504 139 525 176.5 Q546 214 552 256 Q558 298 547 335 Q536 372 512 400 Q488 428 453.5 444 Q419 460 377 460 Q335 460 296 444 Q257 428 225 400 Q193 372 172 335 Q151 298 145 256 Z M308 571 L291 591 L428 732 Q437 743 452 743.5 Q467 744 475 735 Q483 725 480 711 Q477 697 465 688 L308 571 Z M481 571 L464 591 L601 732 Q610 743 625 743.5 Q640 744 648 735 Q656 725 653 711 Q650 697 638 688 L481 571 Z " />
<glyph glyph-name="omacron" unicode="&#x14d;" horiz-adv-x="625" d="M86 256 Q94 311 121 358.5 Q148 406 188.5 441.5 Q229 477 280 497.5 Q331 518 385 518 Q440 518 485 497.5 Q530 477 560.5 441.5 Q591 406 605 358.5 Q619 311 611 256 Q603 201 576 153 Q549 105 508.5 69.5 Q468 34 417 13.5 Q366 -7 311 -7 Q257 -7 212 13.5 Q167 34 136.5 69.5 Q106 105 92 153 Q78 201 86 256 Z M145 256 Q139 214 150 176.5 Q161 139 185 111.5 Q209 84 243 68 Q277 52 319 52 Q361 52 400.5 68 Q440 84 472 111.5 Q504 139 525 176.5 Q546 214 552 256 Q558 298 547 335 Q536 372 512 400 Q488 428 453.5 444 Q419 460 377 460 Q335 460 296 444 Q257 428 225 400 Q193 372 172 335 Q151 298 145 256 Z M544 613 L253 613 L259 654 L550 654 L544 613 Z " />
<glyph glyph-name="gbreve" unicode="&#x11f;" horiz-adv-x="557" d="M114 329 Q120 372 142 410 Q164 448 196 476.5 Q228 505 268 521.5 Q308 538 351 538 Q389 538 421 525 Q453 512 477 489 Q508 502 539 507 Q570 512 607 512 L615 512 L608 460 L494 460 Q515 435 525.5 401 Q536 367 530 329 Q524 286 502.5 248.5 Q481 211 448.5 183 Q416 155 375.5 138.5 Q335 122 292 122 Q258 122 226 135.5 Q194 149 174 170 Q136 158 113.5 136.5 Q91 115 87 84 Q82 51 100.5 33 Q119 15 158 15 L355 15 Q441 15 479 -23 Q517 -61 509 -124 Q504 -157 486.5 -183.5 Q469 -210 442 -228 Q415 -246 380 -256 Q345 -266 303 -266 Q250 -266 207.5 -250.5 Q165 -235 137 -208 Q109 -181 96.5 -143.5 Q84 -106 93 -62 L125 -41 Q75 -37 48 -7.5 Q21 22 29 73 Q36 115 68.5 148.5 Q101 182 145 197 Q125 224 117 257.5 Q109 291 114 329 Z M169 329 Q165 297 173 269.5 Q181 242 198.5 221.5 Q216 201 242 189 Q268 177 300 177 Q332 177 361.5 189 Q391 201 414.5 221.5 Q438 242 454 269.5 Q470 297 474 329 Q479 361 471 389 Q463 417 445 437.5 Q427 458 401 470 Q375 482 343 482 Q311 482 281.5 470 Q252 458 229 437.5 Q206 417 190 389 Q174 361 169 329 Z M310 -211 Q367 -211 405 -189.5 Q443 -168 450 -124 Q455 -86 429 -63.5 Q403 -41 347 -41 L144 -41 Q137 -78 146.5 -109 Q156 -140 178.5 -162.5 Q201 -185 234.5 -198 Q268 -211 310 -211 Z M260 696 L302 696 L299 679 Q295 647 313.5 625.5 Q332 604 364 604 Q396 604 420.5 625.5 Q445 647 449 679 L452 696 L494 696 L492 681 Q488 657 476 635.5 Q464 614 446 598 Q428 582 405 573 Q382 564 358 564 Q334 564 314 573 Q294 582 280 598 Q266 614 260 635.5 Q254 657 258 681 L260 696 Z " />
<glyph glyph-name="gcircumflex" unicode="&#x11d;" horiz-adv-x="557" d="M114 329 Q120 372 142 410 Q164 448 196 476.5 Q228 505 268 521.5 Q308 538 351 538 Q389 538 421 525 Q453 512 477 489 Q508 502 539 507 Q570 512 607 512 L615 512 L608 460 L494 460 Q515 435 525.5 401 Q536 367 530 329 Q524 286 502.5 248.5 Q481 211 448.5 183 Q416 155 375.5 138.5 Q335 122 292 122 Q258 122 226 135.5 Q194 149 174 170 Q136 158 113.5 136.5 Q91 115 87 84 Q82 51 100.5 33 Q119 15 158 15 L355 15 Q441 15 479 -23 Q517 -61 509 -124 Q504 -157 486.5 -183.5 Q469 -210 442 -228 Q415 -246 380 -256 Q345 -266 303 -266 Q250 -266 207.5 -250.5 Q165 -235 137 -208 Q109 -181 96.5 -143.5 Q84 -106 93 -62 L125 -41 Q75 -37 48 -7.5 Q21 22 29 73 Q36 115 68.5 148.5 Q101 182 145 197 Q125 224 117 257.5 Q109 291 114 329 Z M169 329 Q165 297 173 269.5 Q181 242 198.5 221.5 Q216 201 242 189 Q268 177 300 177 Q332 177 361.5 189 Q391 201 414.5 221.5 Q438 242 454 269.5 Q470 297 474 329 Q479 361 471 389 Q463 417 445 437.5 Q427 458 401 470 Q375 482 343 482 Q311 482 281.5 470 Q252 458 229 437.5 Q206 417 190 389 Q174 361 169 329 Z M310 -211 Q367 -211 405 -189.5 Q443 -168 450 -124 Q455 -86 429 -63.5 Q403 -41 347 -41 L144 -41 Q137 -78 146.5 -109 Q156 -140 178.5 -162.5 Q201 -185 234.5 -198 Q268 -211 310 -211 Z M371 672 L249 564 L226 591 L381 727 L498 591 L466 564 L371 672 Z " />
<glyph glyph-name="gcommaaccent" unicode="&#x123;" horiz-adv-x="557" d="M114 329 Q120 372 142 410 Q164 448 196 476.5 Q228 505 268 521.5 Q308 538 351 538 Q389 538 421 525 Q453 512 477 489 Q508 502 539 507 Q570 512 607 512 L615 512 L608 460 L494 460 Q515 435 525.5 401 Q536 367 530 329 Q524 286 502.5 248.5 Q481 211 448.5 183 Q416 155 375.5 138.5 Q335 122 292 122 Q258 122 226 135.5 Q194 149 174 170 Q136 158 113.5 136.5 Q91 115 87 84 Q82 51 100.5 33 Q119 15 158 15 L355 15 Q441 15 479 -23 Q517 -61 509 -124 Q504 -157 486.5 -183.5 Q469 -210 442 -228 Q415 -246 380 -256 Q345 -266 303 -266 Q250 -266 207.5 -250.5 Q165 -235 137 -208 Q109 -181 96.5 -143.5 Q84 -106 93 -62 L125 -41 Q75 -37 48 -7.5 Q21 22 29 73 Q36 115 68.5 148.5 Q101 182 145 197 Q125 224 117 257.5 Q109 291 114 329 Z M169 329 Q165 297 173 269.5 Q181 242 198.5 221.5 Q216 201 242 189 Q268 177 300 177 Q332 177 361.5 189 Q391 201 414.5 221.5 Q438 242 454 269.5 Q470 297 474 329 Q479 361 471 389 Q463 417 445 437.5 Q427 458 401 470 Q375 482 343 482 Q311 482 281.5 470 Q252 458 229 437.5 Q206 417 190 389 Q174 361 169 329 Z M310 -211 Q367 -211 405 -189.5 Q443 -168 450 -124 Q455 -86 429 -63.5 Q403 -41 347 -41 L144 -41 Q137 -78 146.5 -109 Q156 -140 178.5 -162.5 Q201 -185 234.5 -198 Q268 -211 310 -211 Z M450 796 L397 709 Q413 705 423 691 Q433 677 431 659 Q428 638 411 623 Q394 608 373 608 Q359 608 349 615 Q339 622 334.5 633 Q330 644 331 657.5 Q332 671 340 685 L418 812 L450 796 Z " />
<glyph glyph-name="gdotaccent" unicode="&#x121;" horiz-adv-x="557" d="M114 329 Q120 372 142 410 Q164 448 196 476.5 Q228 505 268 521.5 Q308 538 351 538 Q389 538 421 525 Q453 512 477 489 Q508 502 539 507 Q570 512 607 512 L615 512 L608 460 L494 460 Q515 435 525.5 401 Q536 367 530 329 Q524 286 502.5 248.5 Q481 211 448.5 183 Q416 155 375.5 138.5 Q335 122 292 122 Q258 122 226 135.5 Q194 149 174 170 Q136 158 113.5 136.5 Q91 115 87 84 Q82 51 100.5 33 Q119 15 158 15 L355 15 Q441 15 479 -23 Q517 -61 509 -124 Q504 -157 486.5 -183.5 Q469 -210 442 -228 Q415 -246 380 -256 Q345 -266 303 -266 Q250 -266 207.5 -250.5 Q165 -235 137 -208 Q109 -181 96.5 -143.5 Q84 -106 93 -62 L125 -41 Q75 -37 48 -7.5 Q21 22 29 73 Q36 115 68.5 148.5 Q101 182 145 197 Q125 224 117 257.5 Q109 291 114 329 Z M169 329 Q165 297 173 269.5 Q181 242 198.5 221.5 Q216 201 242 189 Q268 177 300 177 Q332 177 361.5 189 Q391 201 414.5 221.5 Q438 242 454 269.5 Q470 297 474 329 Q479 361 471 389 Q463 417 445 437.5 Q427 458 401 470 Q375 482 343 482 Q311 482 281.5 470 Q252 458 229 437.5 Q206 417 190 389 Q174 361 169 329 Z M310 -211 Q367 -211 405 -189.5 Q443 -168 450 -124 Q455 -86 429 -63.5 Q403 -41 347 -41 L144 -41 Q137 -78 146.5 -109 Q156 -140 178.5 -162.5 Q201 -185 234.5 -198 Q268 -211 310 -211 Z M321 663 Q324 684 341 699 Q358 714 379 714 Q400 714 413 699 Q426 684 423 663 Q420 642 403 627 Q386 612 365 612 Q344 612 331 627 Q318 642 321 663 Z " />
<glyph glyph-name="racute" unicode="&#x155;" horiz-adv-x="343" d="M147 0 L87 0 L159 512 L211 512 L197 412 Q229 461 277.5 486.5 Q326 512 382 512 L405 512 L398 460 L375 460 Q340 460 308 448 Q276 436 251.5 414 Q227 392 210.5 362.5 Q194 333 189 297 L147 0 Z M213 571 L196 591 L334 732 Q343 743 357.5 743.5 Q372 744 380 735 Q389 725 386 711 Q383 697 371 688 L213 571 Z " />
<glyph glyph-name="rcaron" unicode="&#x159;" horiz-adv-x="343" d="M147 0 L87 0 L159 512 L211 512 L197 412 Q229 461 277.5 486.5 Q326 512 382 512 L405 512 L398 460 L375 460 Q340 460 308 448 Q276 436 251.5 414 Q227 392 210.5 362.5 Q194 333 189 297 L147 0 Z M263 618 L385 727 L409 700 L254 564 L137 700 L168 727 L263 618 Z " />
<glyph glyph-name="rcommaaccent" unicode="&#x157;" horiz-adv-x="343" d="M147 0 L87 0 L159 512 L211 512 L197 412 Q229 461 277.5 486.5 Q326 512 382 512 L405 512 L398 460 L375 460 Q340 460 308 448 Q276 436 251.5 414 Q227 392 210.5 362.5 Q194 333 189 297 L147 0 Z M42 -222 L87 -146 Q74 -143 66 -131.5 Q58 -120 60 -105 Q63 -88 76.5 -76 Q90 -64 107 -64 Q118 -64 126 -69.5 Q134 -75 138 -84 Q142 -93 141 -104 Q140 -115 133 -126 L67 -235 L42 -222 Z " />
<glyph glyph-name="sacute" unicode="&#x15b;" horiz-adv-x="519" d="M172 385 Q168 358 186 336.5 Q204 315 250 300 L367 264 Q442 241 470 205 Q498 169 491 120 Q487 92 471.5 68 Q456 44 429.5 26 Q403 8 364.5 -2.5 Q326 -13 276 -13 Q241 -13 208.5 -6 Q176 1 148.5 13 Q121 25 99 41.5 Q77 58 64 77 L114 112 Q126 95 145.5 82 Q165 69 187.5 59.5 Q210 50 235 45 Q260 40 284 40 Q354 40 389.5 63.5 Q425 87 430 120 Q434 149 416.5 170.5 Q399 192 347 209 L233 245 Q166 265 135.5 301 Q105 337 112 385 Q116 413 131.5 438.5 Q147 464 175 484 Q203 504 242 516 Q281 528 331 528 Q382 528 418.5 512 Q455 496 478 472 Q501 448 510 419 Q519 390 515 363 L457 363 Q459 411 422.5 443 Q386 475 324 475 Q288 475 260.5 467.5 Q233 460 214 447 Q195 434 184.5 418 Q174 402 172 385 Z M341 571 L325 591 L462 732 Q471 743 486 743.5 Q501 744 509 735 Q517 725 514 711 Q511 697 499 688 L341 571 Z " />
<glyph glyph-name="scaron" unicode="&#x161;" horiz-adv-x="519" d="M172 385 Q168 358 186 336.5 Q204 315 250 300 L367 264 Q442 241 470 205 Q498 169 491 120 Q487 92 471.5 68 Q456 44 429.5 26 Q403 8 364.5 -2.5 Q326 -13 276 -13 Q241 -13 208.5 -6 Q176 1 148.5 13 Q121 25 99 41.5 Q77 58 64 77 L114 112 Q126 95 145.5 82 Q165 69 187.5 59.5 Q210 50 235 45 Q260 40 284 40 Q354 40 389.5 63.5 Q425 87 430 120 Q434 149 416.5 170.5 Q399 192 347 209 L233 245 Q166 265 135.5 301 Q105 337 112 385 Q116 413 131.5 438.5 Q147 464 175 484 Q203 504 242 516 Q281 528 331 528 Q382 528 418.5 512 Q455 496 478 472 Q501 448 510 419 Q519 390 515 363 L457 363 Q459 411 422.5 443 Q386 475 324 475 Q288 475 260.5 467.5 Q233 460 214 447 Q195 434 184.5 418 Q174 402 172 385 Z M348 618 L470 727 L494 700 L339 564 L222 700 L253 727 L348 618 Z " />
<glyph glyph-name="scedilla" unicode="&#x15f;" horiz-adv-x="519" d="M172 385 Q168 358 186 336.5 Q204 315 250 300 L367 264 Q442 241 470 205 Q498 169 491 120 Q487 93 472 69 Q457 45 431.5 27 Q406 9 369.5 -1.5 Q333 -12 286 -13 L282 -42 Q312 -47 332.5 -72.5 Q353 -98 348 -136 Q342 -178 309.5 -205 Q277 -232 237 -232 Q217 -232 201.5 -224.5 Q186 -217 173 -204 L203 -179 Q210 -186 220.5 -190.5 Q231 -195 243 -195 Q267 -195 286.5 -178.5 Q306 -162 310 -136 Q314 -110 299 -93.5 Q284 -77 258 -77 Q244 -77 233.5 -81.5 Q223 -86 214 -93 L192 -68 Q202 -59 216 -51.5 Q230 -44 246 -42 L250 -12 Q220 -10 191.5 -2 Q163 6 138.5 17.5 Q114 29 95 44.5 Q76 60 64 77 L114 112 Q126 95 145.5 82 Q165 69 187.5 59.5 Q210 50 235 45 Q260 40 284 40 Q354 40 389.5 63.5 Q425 87 430 120 Q434 149 416.5 170.5 Q399 192 347 209 L233 245 Q166 265 135.5 301 Q105 337 112 385 Q116 413 131.5 438.5 Q147 464 175 484 Q203 504 242 516 Q281 528 331 528 Q382 528 418.5 512 Q455 496 478 472 Q501 448 510 419 Q519 390 515 363 L457 363 Q459 411 422.5 443 Q386 475 324 475 Q288 475 260.5 467.5 Q233 460 214 447 Q195 434 184.5 418 Q174 402 172 385 Z " />
<glyph glyph-name="scircumflex" unicode="&#x15d;" horiz-adv-x="519" d="M172 385 Q168 358 186 336.5 Q204 315 250 300 L367 264 Q442 241 470 205 Q498 169 491 120 Q487 92 471.5 68 Q456 44 429.5 26 Q403 8 364.5 -2.5 Q326 -13 276 -13 Q241 -13 208.5 -6 Q176 1 148.5 13 Q121 25 99 41.5 Q77 58 64 77 L114 112 Q126 95 145.5 82 Q165 69 187.5 59.5 Q210 50 235 45 Q260 40 284 40 Q354 40 389.5 63.5 Q425 87 430 120 Q434 149 416.5 170.5 Q399 192 347 209 L233 245 Q166 265 135.5 301 Q105 337 112 385 Q116 413 131.5 438.5 Q147 464 175 484 Q203 504 242 516 Q281 528 331 528 Q382 528 418.5 512 Q455 496 478 472 Q501 448 510 419 Q519 390 515 363 L457 363 Q459 411 422.5 443 Q386 475 324 475 Q288 475 260.5 467.5 Q233 460 214 447 Q195 434 184.5 418 Q174 402 172 385 Z M352 672 L230 564 L207 591 L362 727 L479 591 L447 564 L352 672 Z " />
<glyph glyph-name="scommaaccent" unicode="&#x219;" horiz-adv-x="519" d="M172 385 Q168 358 186 336.5 Q204 315 250 300 L367 264 Q442 241 470 205 Q498 169 491 120 Q487 92 471.5 68 Q456 44 429.5 26 Q403 8 364.5 -2.5 Q326 -13 276 -13 Q241 -13 208.5 -6 Q176 1 148.5 13 Q121 25 99 41.5 Q77 58 64 77 L114 112 Q126 95 145.5 82 Q165 69 187.5 59.5 Q210 50 235 45 Q260 40 284 40 Q354 40 389.5 63.5 Q425 87 430 120 Q434 149 416.5 170.5 Q399 192 347 209 L233 245 Q166 265 135.5 301 Q105 337 112 385 Q116 413 131.5 438.5 Q147 464 175 484 Q203 504 242 516 Q281 528 331 528 Q382 528 418.5 512 Q455 496 478 472 Q501 448 510 419 Q519 390 515 363 L457 363 Q459 411 422.5 443 Q386 475 324 475 Q288 475 260.5 467.5 Q233 460 214 447 Q195 434 184.5 418 Q174 402 172 385 Z M185 -222 L230 -146 Q217 -143 209 -131.5 Q201 -120 203 -105 Q206 -88 219.5 -76 Q233 -64 250 -64 Q261 -64 269 -69.5 Q277 -75 281 -84 Q285 -93 284 -104 Q283 -115 276 -126 L210 -235 L185 -222 Z " />
<glyph glyph-name="tbar" unicode="&#x167;" horiz-adv-x="323" d="M128 0 L166 268 L47 237 L42 274 L171 307 L193 460 L75 460 L82 512 L200 512 L218 640 L278 640 L260 512 L378 512 L371 460 L253 460 L233 323 L356 355 L362 318 L228 284 L188 0 L128 0 Z " />
<glyph glyph-name="tcaron" unicode="&#x165;" horiz-adv-x="490" d="M128 0 L193 460 L75 460 L82 512 L200 512 L218 640 L278 640 L260 512 L378 512 L371 460 L253 460 L188 0 L128 0 Z M437 548 L490 635 Q474 639 464 652.5 Q454 666 456 685 Q459 706 475.5 721 Q492 736 513 736 Q527 736 537 729 Q547 722 552 711 Q557 700 555.5 686 Q554 672 546 659 L469 532 L437 548 Z " />
<glyph glyph-name="tcommaaccent" unicode="&#x163;" horiz-adv-x="323" d="M128 0 L193 460 L75 460 L82 512 L200 512 L218 640 L278 640 L260 512 L378 512 L371 460 L253 460 L188 0 L128 0 Z M87 -222 L132 -146 Q119 -143 111 -131.5 Q103 -120 105 -105 Q108 -88 121 -76 Q134 -64 151 -64 Q172 -64 181 -80.5 Q190 -97 182 -117 Q179 -123 175.5 -129.5 Q172 -136 169 -142 L112 -235 L87 -222 Z " />
<glyph glyph-name="uacute" unicode="&#xfa;" horiz-adv-x="653" d="M142 512 L202 512 L163 236 Q158 196 166.5 161 Q175 126 195 100 Q215 74 247 59 Q279 44 321 44 Q360 44 397 59.5 Q434 75 463 102 Q492 129 513 166.5 Q534 204 541 248 L578 512 L638 512 L566 0 L506 0 L523 122 Q512 100 491 77 Q470 54 441 34.5 Q412 15 377.5 2.5 Q343 -10 305 -10 Q254 -10 213 8.5 Q172 27 145 61 Q118 95 107 141.5 Q96 188 104 244 L142 512 Z M386 571 L369 591 L507 732 Q516 743 530.5 743.5 Q545 744 553 735 Q562 725 559 711 Q556 697 544 688 L386 571 Z " />
<glyph glyph-name="ubreve" unicode="&#x16d;" horiz-adv-x="653" d="M142 512 L202 512 L163 236 Q158 196 166.5 161 Q175 126 195 100 Q215 74 247 59 Q279 44 321 44 Q360 44 397 59.5 Q434 75 463 102 Q492 129 513 166.5 Q534 204 541 248 L578 512 L638 512 L566 0 L506 0 L523 122 Q512 100 491 77 Q470 54 441 34.5 Q412 15 377.5 2.5 Q343 -10 305 -10 Q254 -10 213 8.5 Q172 27 145 61 Q118 95 107 141.5 Q96 188 104 244 L142 512 Z M305 696 L347 696 L344 679 Q340 647 358.5 625.5 Q377 604 409 604 Q441 604 466 625.5 Q491 647 495 679 L498 696 L539 696 L537 681 Q533 657 521 635.5 Q509 614 491 598 Q473 582 450 573 Q427 564 403 564 Q379 564 359 573 Q339 582 325 598 Q311 614 305 635.5 Q299 657 303 681 L305 696 Z " />
<glyph glyph-name="ucircumflex" unicode="&#xfb;" horiz-adv-x="653" d="M142 512 L202 512 L163 236 Q158 196 166.5 161 Q175 126 195 100 Q215 74 247 59 Q279 44 321 44 Q360 44 397 59.5 Q434 75 463 102 Q492 129 513 166.5 Q534 204 541 248 L578 512 L638 512 L566 0 L506 0 L523 122 Q512 100 491 77 Q470 54 441 34.5 Q412 15 377.5 2.5 Q343 -10 305 -10 Q254 -10 213 8.5 Q172 27 145 61 Q118 95 107 141.5 Q96 188 104 244 L142 512 Z M417 672 L295 564 L271 591 L426 727 L543 591 L512 564 L417 672 Z " />
<glyph glyph-name="udieresis" unicode="&#xfc;" horiz-adv-x="653" d="M142 512 L202 512 L163 236 Q158 196 166.5 161 Q175 126 195 100 Q215 74 247 59 Q279 44 321 44 Q360 44 397 59.5 Q434 75 463 102 Q492 129 513 166.5 Q534 204 541 248 L578 512 L638 512 L566 0 L506 0 L523 122 Q512 100 491 77 Q470 54 441 34.5 Q412 15 377.5 2.5 Q343 -10 305 -10 Q254 -10 213 8.5 Q172 27 145 61 Q118 95 107 141.5 Q96 188 104 244 L142 512 Z M275 663 Q278 684 295 699 Q312 714 333 714 Q354 714 367 699 Q380 684 377 663 Q374 642 357 627 Q340 612 319 612 Q298 612 285 627 Q272 642 275 663 Z M458 663 Q461 684 478 699 Q495 714 516 714 Q537 714 550 699 Q563 684 560 663 Q557 642 540 627 Q523 612 502 612 Q481 612 468 627 Q455 642 458 663 Z " />
<glyph glyph-name="uhungarumlaut" unicode="&#x171;" horiz-adv-x="653" d="M142 512 L202 512 L163 236 Q158 196 166.5 161 Q175 126 195 100 Q215 74 247 59 Q279 44 321 44 Q360 44 397 59.5 Q434 75 463 102 Q492 129 513 166.5 Q534 204 541 248 L578 512 L638 512 L566 0 L506 0 L523 122 Q512 100 491 77 Q470 54 441 34.5 Q412 15 377.5 2.5 Q343 -10 305 -10 Q254 -10 213 8.5 Q172 27 145 61 Q118 95 107 141.5 Q96 188 104 244 L142 512 Z M300 571 L283 591 L420 732 Q429 743 444 743.5 Q459 744 467 735 Q475 725 472 711 Q469 697 457 688 L300 571 Z M473 571 L456 591 L593 732 Q602 743 617 743.5 Q632 744 640 735 Q648 725 645 711 Q642 697 630 688 L473 571 Z " />
<glyph glyph-name="ugrave" unicode="&#xf9;" horiz-adv-x="653" d="M142 512 L202 512 L163 236 Q158 196 166.5 161 Q175 126 195 100 Q215 74 247 59 Q279 44 321 44 Q360 44 397 59.5 Q434 75 463 102 Q492 129 513 166.5 Q534 204 541 248 L578 512 L638 512 L566 0 L506 0 L523 122 Q512 100 491 77 Q470 54 441 34.5 Q412 15 377.5 2.5 Q343 -10 305 -10 Q254 -10 213 8.5 Q172 27 145 61 Q118 95 107 141.5 Q96 188 104 244 L142 512 Z M299 688 Q289 697 290 711 Q291 725 302 735 Q314 744 327.5 743.5 Q341 743 348 732 L446 591 L423 571 L299 688 Z " />
<glyph glyph-name="umacron" unicode="&#x16b;" horiz-adv-x="653" d="M142 512 L202 512 L163 236 Q158 196 166.5 161 Q175 126 195 100 Q215 74 247 59 Q279 44 321 44 Q360 44 397 59.5 Q434 75 463 102 Q492 129 513 166.5 Q534 204 541 248 L578 512 L638 512 L566 0 L506 0 L523 122 Q512 100 491 77 Q470 54 441 34.5 Q412 15 377.5 2.5 Q343 -10 305 -10 Q254 -10 213 8.5 Q172 27 145 61 Q118 95 107 141.5 Q96 188 104 244 L142 512 Z M556 613 L265 613 L271 654 L562 654 L556 613 Z " />
<glyph glyph-name="uogonek" unicode="&#x173;" horiz-adv-x="653" d="M182 -87 Q186 -60 200 -37.5 Q214 -15 235 1 Q200 12 172.5 34 Q145 56 128 87.5 Q111 119 104.5 159 Q98 199 104 244 L142 512 L202 512 L163 236 Q158 196 166.5 161 Q175 126 195 100 Q215 74 247 59 Q279 44 321 44 Q360 44 396.5 59.5 Q433 75 462 102 Q491 129 512 166.5 Q533 204 541 248 L578 512 L638 512 L566 0 L506 0 L523 122 Q512 100 490.5 76.5 Q469 53 440.5 34 Q412 15 377.5 2.5 Q343 -10 305 -10 L301 -10 Q270 -12 247 -34.5 Q224 -57 220 -87 Q215 -119 233.5 -141.5 Q252 -164 283 -164 Q313 -164 337.5 -141.5 Q362 -119 367 -87 L405 -87 Q401 -111 389 -132 Q377 -153 360 -168.5 Q343 -184 322 -193 Q301 -202 278 -202 Q255 -202 235.5 -193 Q216 -184 203 -168.5 Q190 -153 184 -132 Q178 -111 182 -87 Z " />
<glyph glyph-name="uring" unicode="&#x16f;" horiz-adv-x="653" d="M142 512 L202 512 L163 236 Q158 196 166.5 161 Q175 126 195 100 Q215 74 247 59 Q279 44 321 44 Q360 44 397 59.5 Q434 75 463 102 Q492 129 513 166.5 Q534 204 541 248 L578 512 L638 512 L566 0 L506 0 L523 122 Q512 100 491 77 Q470 54 441 34.5 Q412 15 377.5 2.5 Q343 -10 305 -10 Q254 -10 213 8.5 Q172 27 145 61 Q118 95 107 141.5 Q96 188 104 244 L142 512 Z M322 672 Q328 712 360 740 Q392 768 432 768 Q472 768 496 740 Q520 712 514 672 Q509 632 477 604 Q445 576 405 576 Q365 576 341 604 Q317 632 322 672 Z M359 672 Q356 647 370.5 630 Q385 613 410 613 Q436 613 455.5 630 Q475 647 478 672 Q482 697 467.5 714 Q453 731 427 731 Q402 731 382.5 714 Q363 697 359 672 Z " />
<glyph glyph-name="utilde" unicode="&#x169;" horiz-adv-x="653" d="M142 512 L202 512 L163 236 Q158 196 166.5 161 Q175 126 195 100 Q215 74 247 59 Q279 44 321 44 Q360 44 397 59.5 Q434 75 463 102 Q492 129 513 166.5 Q534 204 541 248 L578 512 L638 512 L566 0 L506 0 L523 122 Q512 100 491 77 Q470 54 441 34.5 Q412 15 377.5 2.5 Q343 -10 305 -10 Q254 -10 213 8.5 Q172 27 145 61 Q118 95 107 141.5 Q96 188 104 244 L142 512 Z M491 708 Q529 708 548 682 Q567 656 561 616 L523 616 Q526 643 515.5 657 Q505 671 485 671 Q466 671 451 659.5 Q436 648 420.5 633.5 Q405 619 386.5 607.5 Q368 596 343 596 Q304 596 284.5 622 Q265 648 272 688 L311 688 Q303 633 348 633 Q365 633 379.5 644.5 Q394 656 410.5 670.5 Q427 685 446.5 696.5 Q466 708 491 708 Z " />
<glyph glyph-name="wacute" unicode="&#x1e83;" horiz-adv-x="775" d="M569 54 L573 54 L767 512 L828 512 L609 0 L520 0 L449 429 L444 429 L253 0 L165 0 L89 512 L151 512 L217 54 L221 54 L425 512 L493 512 L569 54 Z M469 571 L453 591 L590 732 Q599 743 613.5 743.5 Q628 744 636 735 Q645 725 642 711 Q639 697 627 688 L469 571 Z " />
<glyph glyph-name="wcircumflex" unicode="&#x175;" horiz-adv-x="775" d="M569 54 L573 54 L767 512 L828 512 L609 0 L520 0 L449 429 L444 429 L253 0 L165 0 L89 512 L151 512 L217 54 L221 54 L425 512 L493 512 L569 54 Z M480 672 L358 564 L335 591 L490 727 L607 591 L575 564 L480 672 Z " />
<glyph glyph-name="wdieresis" unicode="&#x1e85;" horiz-adv-x="775" d="M569 54 L573 54 L767 512 L828 512 L609 0 L520 0 L449 429 L444 429 L253 0 L165 0 L89 512 L151 512 L217 54 L221 54 L425 512 L493 512 L569 54 Z M339 663 Q342 684 358.5 699 Q375 714 396 714 Q417 714 430 699 Q443 684 440 663 Q437 642 420 627 Q403 612 382 612 Q361 612 348.5 627 Q336 642 339 663 Z M522 663 Q525 684 541.5 699 Q558 714 579 714 Q600 714 613 699 Q626 684 623 663 Q620 642 603 627 Q586 612 565 612 Q544 612 531.5 627 Q519 642 522 663 Z " />
<glyph glyph-name="wgrave" unicode="&#x1e81;" horiz-adv-x="775" d="M569 54 L573 54 L767 512 L828 512 L609 0 L520 0 L449 429 L444 429 L253 0 L165 0 L89 512 L151 512 L217 54 L221 54 L425 512 L493 512 L569 54 Z M342 688 Q332 697 333.5 711 Q335 725 345 735 Q357 744 370.5 743.5 Q384 743 392 732 L489 591 L466 571 L342 688 Z " />
<glyph glyph-name="yacute" unicode="&#xfd;" horiz-adv-x="569" d="M292 39 L559 512 L624 512 L307 -47 L278 -256 L219 -256 L248 -48 L89 512 L154 512 L287 39 L292 39 Z M355 571 L339 591 L476 732 Q485 743 500 743.5 Q515 744 523 735 Q531 725 528 711 Q525 697 513 688 L355 571 Z " />
<glyph glyph-name="ycircumflex" unicode="&#x177;" horiz-adv-x="569" d="M292 39 L559 512 L624 512 L307 -47 L278 -256 L219 -256 L248 -48 L89 512 L154 512 L287 39 L292 39 Z M376 672 L254 564 L231 591 L386 727 L503 591 L471 564 L376 672 Z " />
<glyph glyph-name="ydieresis" unicode="&#xff;" horiz-adv-x="569" d="M292 39 L559 512 L624 512 L307 -47 L278 -256 L219 -256 L248 -48 L89 512 L154 512 L287 39 L292 39 Z M235 663 Q238 684 255 699 Q272 714 292 714 Q313 714 326 699 Q339 684 336 663 Q333 642 316 627 Q299 612 278 612 Q258 612 245 627 Q232 642 235 663 Z M418 663 Q421 684 438 699 Q455 714 475 714 Q496 714 509 699 Q522 684 519 663 Q516 642 499 627 Q482 612 461 612 Q441 612 428 627 Q415 642 418 663 Z " />
<glyph glyph-name="ygrave" unicode="&#x1ef3;" horiz-adv-x="569" d="M292 39 L559 512 L624 512 L307 -47 L278 -256 L219 -256 L248 -48 L89 512 L154 512 L287 39 L292 39 Z M248 688 Q238 697 239.5 711 Q241 725 251 735 Q263 744 276.5 743.5 Q290 743 298 732 L395 591 L372 571 L248 688 Z " />
<glyph glyph-name="oslashacute" unicode="&#x1ff;" horiz-adv-x="625" d="M86 256 Q94 311 121 358.5 Q148 406 188.5 441.5 Q229 477 280 497.5 Q331 518 385 518 Q433 518 473.5 502 Q514 486 544 458 L590 499 L620 464 L574 423 Q598 389 608 346.5 Q618 304 611 256 Q603 201 576 153 Q549 105 508.5 69.5 Q468 34 417 13.5 Q366 -7 311 -7 Q263 -7 223 9 Q183 25 153 54 L107 13 L77 48 L123 89 Q98 123 88.5 165.5 Q79 208 86 256 Z M319 52 Q361 52 400.5 68 Q440 84 472 111.5 Q504 139 525 176.5 Q546 214 552 256 Q557 291 549.5 322.5 Q542 354 524 380 L202 97 Q225 76 254.5 64 Q284 52 319 52 Z M145 256 Q135 185 172 132 L495 415 Q472 436 442 448 Q412 460 377 460 Q335 460 296 444 Q257 428 225 400 Q193 372 172 335 Q151 298 145 256 Z M394 571 L377 591 L515 732 Q524 743 538.5 743.5 Q553 744 561 735 Q570 725 567 711 Q564 697 552 688 L394 571 Z " />
<glyph glyph-name="otilde" unicode="&#xf5;" horiz-adv-x="625" d="M86 256 Q94 311 121 358.5 Q148 406 188.5 441.5 Q229 477 280 497.5 Q331 518 385 518 Q440 518 485 497.5 Q530 477 560.5 441.5 Q591 406 605 358.5 Q619 311 611 256 Q603 201 576 153 Q549 105 508.5 69.5 Q468 34 417 13.5 Q366 -7 311 -7 Q257 -7 212 13.5 Q167 34 136.5 69.5 Q106 105 92 153 Q78 201 86 256 Z M145 256 Q139 214 150 176.5 Q161 139 185 111.5 Q209 84 243 68 Q277 52 319 52 Q361 52 400.5 68 Q440 84 472 111.5 Q504 139 525 176.5 Q546 214 552 256 Q558 298 547 335 Q536 372 512 400 Q488 428 453.5 444 Q419 460 377 460 Q335 460 296 444 Q257 428 225 400 Q193 372 172 335 Q151 298 145 256 Z M478 708 Q516 708 535.5 682 Q555 656 548 616 L510 616 Q513 643 502.5 657 Q492 671 472 671 Q454 671 439 659.5 Q424 648 408 633.5 Q392 619 373.5 607.5 Q355 596 330 596 Q291 596 272 622 Q253 648 259 688 L298 688 Q290 633 335 633 Q352 633 366.5 644.5 Q381 656 397.5 670.5 Q414 685 433.5 696.5 Q453 708 478 708 Z " />
<glyph glyph-name="approxequal" unicode="&#x2248;" horiz-adv-x="571" d="M442 446 Q470 446 492 435.5 Q514 425 527.5 406 Q541 387 546.5 361.5 Q552 336 547 306 L497 306 Q503 350 486 373.5 Q469 397 435 397 Q406 397 382.5 378 Q359 359 335 336.5 Q311 314 283 295 Q255 276 218 276 Q189 276 166.5 286.5 Q144 297 130 315.5 Q116 334 111 360 Q106 386 111 416 L161 416 Q149 325 225 325 Q251 325 274 344 Q297 363 321.5 385.5 Q346 408 375 427 Q404 446 442 446 Z M418 226 Q446 226 468 215.5 Q490 205 503.5 186 Q517 167 522.5 141.5 Q528 116 523 86 L473 86 Q479 130 462 153.5 Q445 177 411 177 Q382 177 359 158 Q336 139 311.5 116.5 Q287 94 259 75 Q231 56 194 56 Q165 56 142.5 66.5 Q120 77 106 95.5 Q92 114 87 140 Q82 166 88 196 L138 196 Q125 105 201 105 Q227 105 250 124 Q273 143 297.5 165.5 Q322 188 351 207 Q380 226 418 226 Z " />
<glyph glyph-name="fraction" unicode="&#x2044;" horiz-adv-x="803" d="M812 720 L848 679 L94 17 L58 59 L812 720 Z " />
<glyph glyph-name="section" unicode="&#xa7;" horiz-adv-x="524" d="M209 631 Q205 605 223.5 583 Q242 561 289 545 L408 508 Q485 485 513.5 448.5 Q542 412 535 361 Q529 322 501 291 Q473 260 420 245 Q471 221 488.5 190 Q506 159 501 118 Q497 90 481 65 Q465 40 437.5 21.5 Q410 3 371 -8 Q332 -19 281 -19 Q245 -19 211.5 -11.5 Q178 -4 150 8.5 Q122 21 99.5 38 Q77 55 64 75 L116 111 Q128 94 147.5 80.5 Q167 67 190.5 57 Q214 47 239.5 42 Q265 37 289 37 Q360 37 397 61 Q434 85 439 118 Q443 148 424.5 170 Q406 192 353 209 L238 248 Q99 291 113 389 Q118 428 147.5 459.5 Q177 491 230 507 Q184 529 162.5 560 Q141 591 147 631 Q151 660 167 686.5 Q183 713 211.5 733.5 Q240 754 279.5 766 Q319 778 370 778 Q422 778 460 762 Q498 746 521.5 721 Q545 696 554.5 666.5 Q564 637 560 609 L501 609 Q501 633 491.5 654 Q482 675 464 690.5 Q446 706 420.5 715 Q395 724 363 724 Q326 724 298.5 716 Q271 708 251.5 695 Q232 682 221.5 665.5 Q211 649 209 631 Z M175 389 Q171 363 189.5 341 Q208 319 255 303 L334 277 Q401 279 434.5 303.5 Q468 328 473 361 Q477 390 458.5 412 Q440 434 387 451 L304 478 Q254 475 217 450.5 Q180 426 175 389 Z " />
<glyph glyph-name="Eng" unicode="&#x14a;" horiz-adv-x="796" d="M374 0 Q370 -28 377.5 -53 Q385 -78 401 -96.5 Q417 -115 440.5 -126 Q464 -137 492 -137 Q520 -137 546.5 -126 Q573 -115 594 -96.5 Q615 -78 629.5 -53 Q644 -28 648 0 L654 46 L233 601 L149 0 L87 0 L190 730 L201 735 L666 134 L750 735 L812 735 L709 0 Q703 -41 682.5 -77 Q662 -113 631.5 -140 Q601 -167 562.5 -182.5 Q524 -198 483 -198 Q442 -198 408.5 -182.5 Q375 -167 351.5 -140 Q328 -113 317.5 -77 Q307 -41 313 0 L374 0 Z " />
<glyph glyph-name="eng" unicode="&#x14b;" horiz-adv-x="655" d="M294 -95 Q290 -118 295 -138 Q300 -158 311.5 -173.5 Q323 -189 342 -198 Q361 -207 386 -207 Q432 -207 466.5 -178 Q501 -149 509 -95 L561 276 Q566 316 557.5 351 Q549 386 529 412 Q509 438 477 453 Q445 468 403 468 Q364 468 327 452.5 Q290 437 261 410 Q232 383 211 345.5 Q190 308 183 264 L146 0 L87 0 L159 512 L218 512 L201 390 Q212 412 233 435 Q254 458 283 477.5 Q312 497 346.5 509.5 Q381 522 419 522 Q470 522 511 503.5 Q552 485 578.5 451 Q605 417 616 370.5 Q627 324 619 268 L568 -95 Q562 -136 544 -167.5 Q526 -199 500.5 -221 Q475 -243 443.5 -254.5 Q412 -266 378 -266 Q342 -266 313 -252 Q284 -238 265 -214.5 Q246 -191 238 -160 Q230 -129 235 -95 L294 -95 Z " />
<glyph glyph-name="Eth" unicode="&#xd0;" horiz-adv-x="700" d="M90 0 L134 314 L21 285 L16 322 L140 354 L193 735 L392 735 Q468 735 530.5 706 Q593 677 636 627 Q679 577 698.5 510.5 Q718 444 708 368 Q697 292 658.5 225 Q620 158 563 108 Q506 58 435.5 29 Q365 0 289 0 L90 0 Z M331 403 L335 366 L199 331 L160 57 L295 57 Q360 57 419.5 81.5 Q479 106 526.5 148 Q574 190 606 246.5 Q638 303 647 368 Q656 432 640 488.5 Q624 545 588 587 Q552 629 499 653.5 Q446 678 382 678 L247 678 L204 371 L331 403 Z " />
<glyph glyph-name="Dcroat" unicode="&#x110;" horiz-adv-x="700" d="M90 0 L134 314 L21 285 L16 322 L140 354 L193 735 L392 735 Q468 735 530.5 706 Q593 677 636 627 Q679 577 698.5 510.5 Q718 444 708 368 Q697 292 658.5 225 Q620 158 563 108 Q506 58 435.5 29 Q365 0 289 0 L90 0 Z M331 403 L335 366 L199 331 L160 57 L295 57 Q360 57 419.5 81.5 Q479 106 526.5 148 Q574 190 606 246.5 Q638 303 647 368 Q656 432 640 488.5 Q624 545 588 587 Q552 629 499 653.5 Q446 678 382 678 L247 678 L204 371 L331 403 Z " />
<glyph glyph-name="dcroat" unicode="&#x111;" horiz-adv-x="644" d="M89 256 Q96 309 122.5 356 Q149 403 188 437.5 Q227 472 277.5 492 Q328 512 383 512 Q414 512 441.5 503 Q469 494 491.5 479.5 Q514 465 530.5 446 Q547 427 555 406 L580 585 L454 553 L449 590 L586 625 L606 768 L665 768 L647 641 L763 671 L768 634 L641 601 L557 0 L498 0 L513 107 Q499 87 478 67.5 Q457 48 431 33 Q405 18 374.5 9 Q344 0 311 0 Q256 0 211.5 20 Q167 40 137 74.5 Q107 109 94.5 156 Q82 203 89 256 Z M547 256 Q553 299 543 336 Q533 373 511 400 Q489 427 455.5 442.5 Q422 458 381 458 Q338 458 299 442.5 Q260 427 228.5 400 Q197 373 176 336 Q155 299 149 256 Q143 213 154 176 Q165 139 188.5 112 Q212 85 247 69.5 Q282 54 325 54 Q366 54 403.5 69.5 Q441 85 471 112 Q501 139 521 176 Q541 213 547 256 Z " />
<glyph glyph-name="zacute" unicode="&#x17a;" horiz-adv-x="508" d="M465 53 L458 0 L60 0 L49 25 L443 460 L126 460 L133 512 L521 512 L531 487 L138 53 L465 53 Z M335 571 L319 591 L456 732 Q465 743 479.5 743.5 Q494 744 502 735 Q511 725 508 711 Q505 697 493 688 L335 571 Z " />
<glyph glyph-name="zcaron" unicode="&#x17e;" horiz-adv-x="508" d="M465 53 L458 0 L60 0 L49 25 L443 460 L126 460 L133 512 L521 512 L531 487 L138 53 L465 53 Z M342 618 L464 727 L488 700 L333 564 L216 700 L247 727 L342 618 Z " />
<glyph glyph-name="zdotaccent" unicode="&#x17c;" horiz-adv-x="508" d="M465 53 L458 0 L60 0 L49 25 L443 460 L126 460 L133 512 L521 512 L531 487 L138 53 L465 53 Z M296 663 Q299 684 316 699 Q333 714 354 714 Q374 714 387 699 Q400 684 397 663 Q394 642 377 627 Q360 612 340 612 Q319 612 306 627 Q293 642 296 663 Z " />
<glyph glyph-name="Thorn" unicode="&#xde;" horiz-adv-x="599" d="M166 124 L149 0 L87 0 L190 735 L252 735 L236 617 L418 617 Q471 617 513.5 597.5 Q556 578 585 544.5 Q614 511 626.5 466 Q639 421 632 370 Q625 319 599.5 274 Q574 229 536 195.5 Q498 162 449.5 143 Q401 124 348 124 L166 124 Z M353 177 Q394 177 431.5 191.5 Q469 206 498 231.5 Q527 257 546.5 292.5 Q566 328 572 370 Q578 412 568.5 447 Q559 482 537 507.5 Q515 533 481.5 547.5 Q448 562 407 562 L228 562 L174 177 L353 177 Z " />
<glyph glyph-name="dotlessj" unicode="&#x237;" horiz-adv-x="248" d="M60 -242 L166 512 L226 512 L120 -242 L60 -242 Z " />
<glyph glyph-name="jcircumflex" unicode="&#x135;" horiz-adv-x="248" d="M60 -242 L166 512 L226 512 L120 -242 L60 -242 Z M216 672 L95 564 L71 591 L226 727 L343 591 L312 564 L216 672 Z " />
<glyph glyph-name="Wacute" unicode="&#x1e82;" horiz-adv-x="900" d="M663 63 L670 63 L922 735 L985 735 L706 0 L611 0 L544 644 L538 644 L289 0 L194 0 L121 735 L184 735 L248 63 L254 63 L515 735 L591 735 L663 63 Z M563 794 L545 814 L683 955 Q693 966 707 966.5 Q721 967 730 958 Q738 948 735 934 Q732 920 720 911 L563 794 Z " />
<glyph glyph-name="Wcircumflex" unicode="&#x174;" horiz-adv-x="900" d="M663 63 L670 63 L922 735 L985 735 L706 0 L611 0 L544 644 L538 644 L289 0 L194 0 L121 735 L184 735 L248 63 L254 63 L515 735 L591 735 L663 63 Z M574 895 L452 787 L428 814 L584 950 L700 814 L669 787 L574 895 Z " />
<glyph glyph-name="Wdieresis" unicode="&#x1e84;" horiz-adv-x="900" d="M663 63 L670 63 L922 735 L985 735 L706 0 L611 0 L544 644 L538 644 L289 0 L194 0 L121 735 L184 735 L248 63 L254 63 L515 735 L591 735 L663 63 Z M432 886 Q434 907 451.5 922 Q469 937 490 937 Q511 937 523.5 922 Q536 907 534 886 Q531 865 513.5 850 Q496 835 475 835 Q454 835 441.5 850 Q429 865 432 886 Z M615 886 Q617 907 634.5 922 Q652 937 673 937 Q694 937 706.5 922 Q719 907 717 886 Q714 865 696.5 850 Q679 835 658 835 Q637 835 624.5 850 Q612 865 615 886 Z " />
<glyph glyph-name="Wgrave" unicode="&#x1e80;" horiz-adv-x="900" d="M663 63 L670 63 L922 735 L985 735 L706 0 L611 0 L544 644 L538 644 L289 0 L194 0 L121 735 L184 735 L248 63 L254 63 L515 735 L591 735 L663 63 Z M435 911 Q425 920 426 934 Q427 948 439 958 Q450 967 464 966.5 Q478 966 484 955 L582 814 L560 794 L435 911 Z " />
</font>
</svg>
