<?xml version="1.0" encoding="UTF-8"?>
<svg xmlns="http://www.w3.org/2000/svg" xmlns:xlink="http://www.w3.org/1999/xlink" version="1.2" >
<font id="Liber Grotesque Family Light">
<font-face  font-family="Liber Grotesque Family" units-per-em="1000" ascent="768" descent="-256" font-style="normal" font-weight="300" font-stretch="normal" cap-height="735" x-height="512" underline-position="-106" underline-thickness="73" />
<missing-glyph  horiz-adv-x="830" d="M91 768 L731 768 L731 0 L91 0 L91 768 Z M691 38 L691 729 L132 729 L132 38 L691 38 Z M366 333 L404 333 Q432 333 456 343.5 Q480 354 498 372 Q516 390 526.5 414 Q537 438 537 466 Q537 494 526.5 518 Q516 542 498 560 Q480 578 456 588.5 Q432 599 404 599 Q376 599 352 588.5 Q328 578 310 560 Q292 542 281.5 518 Q271 494 271 466 L230 466 Q230 502 243.5 534 Q257 566 280.5 589.5 Q304 613 336 626.5 Q368 640 404 640 Q440 640 472 626.5 Q504 613 527.5 589.5 Q551 566 564.5 534 Q578 502 578 466 Q578 430 564.5 398 Q551 366 527.5 342.5 Q504 319 472 305.5 Q440 292 404 292 L366 292 L366 333 Z M372 161 Q372 175 382 185.5 Q392 196 406 196 Q420 196 430 185.5 Q440 175 440 161 Q440 147 430 137.5 Q420 128 406 128 Q392 128 382 137.5 Q372 147 372 161 Z " />
<glyph glyph-name="null" d="" />
<glyph glyph-name="nonmarkingreturn" unicode="&#xd;" horiz-adv-x="342" d="" />
<glyph glyph-name="space" unicode="&#x20;" horiz-adv-x="300" d="" />
<glyph glyph-name="quotedbl" unicode="&#x22;" horiz-adv-x="326" d="M99 548 L71 548 L51 725 Q49 739 57.5 752 Q66 765 85 765 Q104 765 112 752 Q120 739 118 724 L99 548 Z M256 548 L228 548 L208 725 Q206 739 214.5 752 Q223 765 242 765 Q261 765 269 752 Q277 739 275 724 L256 548 Z " />
<glyph glyph-name="numbersign" unicode="&#x23;" horiz-adv-x="729" d="M467 455 L276 455 L236 284 L426 284 L467 455 Z M231 500 L285 732 L341 732 L287 500 L477 500 L532 732 L588 732 L533 500 L674 500 L663 455 L522 455 L483 285 L627 285 L615 239 L471 239 L414 0 L359 0 L415 239 L226 239 L168 0 L112 0 L168 239 L35 239 L46 285 L179 285 L220 455 L83 455 L94 500 L231 500 Z " />
<glyph glyph-name="dollar" unicode="&#x24;" horiz-adv-x="605" d="M275 876 L338 876 L338 748 Q386 742 423.5 722 Q461 702 487 673 Q513 644 527 609 Q541 574 541 537 L481 537 Q481 565 469 593 Q457 621 433.5 643.5 Q410 666 375 680 Q340 694 294 694 Q254 694 221.5 684.5 Q189 675 165.5 658.5 Q142 642 129.5 618 Q117 594 117 566 Q117 518 143.5 486 Q170 454 235 428 L388 366 Q476 330 515 281 Q554 232 554 167 Q554 125 537 92.5 Q520 60 490.5 37.5 Q461 15 421.5 1.5 Q382 -12 338 -15 L338 -128 L275 -128 L275 -13 Q206 -8 153 19.5 Q100 47 58 92 L103 131 Q148 86 198.5 65 Q249 44 311 44 Q351 44 384.5 53 Q418 62 441.5 78 Q465 94 478 117 Q491 140 491 167 Q491 216 460 250 Q429 284 366 309 L216 369 Q131 403 92 451 Q53 499 53 566 Q53 605 69 637.5 Q85 670 114 694.5 Q143 719 184 733.5 Q225 748 275 750 L275 876 Z " />
<glyph glyph-name="percent" unicode="&#x25;" horiz-adv-x="543" d="M493 678 L115 90 L50 90 L428 678 L493 678 Z M371 141 Q371 161 386 176 Q401 191 422 191 Q443 191 457.5 176 Q472 161 472 141 Q472 120 457.5 105 Q443 90 422 90 Q401 90 386 105 Q371 120 371 141 Z M53 627 Q53 648 68 663 Q83 678 104 678 Q125 678 139.5 663 Q154 648 154 627 Q154 607 139.5 592 Q125 577 104 577 Q83 577 68 592 Q53 607 53 627 Z " />
<glyph glyph-name="ampersand" unicode="&#x26;" horiz-adv-x="732" d="M685 404 L685 381 Q685 309 664.5 239.5 Q644 170 601 115 L706 7 L706 0 L640 0 L564 74 Q522 34 464 10.5 Q406 -13 331 -13 Q270 -13 219.5 5.5 Q169 24 133 56.5 Q97 89 77.5 131.5 Q58 174 58 222 Q58 263 72.5 296.5 Q87 330 111 354.5 Q135 379 165 395.5 Q195 412 226 418 L220 424 Q186 458 163 502 Q140 546 141 596 Q141 632 155 665 Q169 698 196 723.5 Q223 749 262.5 764.5 Q302 780 353 780 Q410 780 451.5 761 Q493 742 521 712 Q549 682 562.5 645.5 Q576 609 576 573 L516 573 Q516 599 506.5 626 Q497 653 477.5 674.5 Q458 696 427 710 Q396 724 353 724 Q320 724 292.5 714 Q265 704 245 687 Q225 670 213.5 646.5 Q202 623 202 595 Q202 559 219.5 524.5 Q237 490 266 461 L561 159 Q593 202 610.5 257.5 Q628 313 628 381 L628 404 L685 404 Z M331 43 Q388 43 437.5 62 Q487 81 525 117 L265 376 Q196 366 158 323.5 Q120 281 120 223 Q120 180 138 146.5 Q156 113 185.5 90 Q215 67 253 55 Q291 43 331 43 Z " />
<glyph glyph-name="quotesingle" unicode="&#x27;" horiz-adv-x="233" d="M71 546 L111 633 Q94 637 82.5 650.5 Q71 664 71 683 Q71 704 85.5 719 Q100 734 120 734 Q134 734 145 727 Q156 720 162.5 709 Q169 698 169.5 684 Q170 670 164 657 L104 530 L71 546 Z " />
<glyph glyph-name="parenleft" unicode="&#x28;" horiz-adv-x="351" d="M156 351 Q156 230 191.5 120 Q227 10 291 -81 L291 -186 Q198 -77 146.5 59.5 Q95 196 95 351 Q95 505 146.5 642 Q198 779 291 888 L291 783 Q227 692 191.5 582 Q156 472 156 351 Z " />
<glyph glyph-name="parenright" unicode="&#x29;" horiz-adv-x="351" d="M195 351 Q195 472 159.5 582 Q124 692 60 783 L60 888 Q153 779 204.5 642.5 Q256 506 256 351 Q256 197 204.5 60 Q153 -77 60 -186 L60 -81 Q124 10 159.5 120 Q195 230 195 351 Z " />
<glyph glyph-name="asterisk" unicode="&#x2a;" horiz-adv-x="404" d="M218 595 L143 495 L109 524 L182 620 L65 664 L82 705 L195 663 L195 782 L241 782 L241 663 L354 705 L371 664 L255 620 L327 524 L293 495 L218 595 Z " />
<glyph glyph-name="plus" unicode="&#x2b;" horiz-adv-x="612" d="M98 228 L98 284 L290 284 L290 476 L349 476 L349 284 L541 284 L541 228 L349 228 L349 36 L290 36 L290 228 L98 228 Z " />
<glyph glyph-name="comma" unicode="&#x2c;" horiz-adv-x="207" d="M57 -77 L98 10 Q81 14 69 28 Q57 42 57 60 Q57 81 71.5 96 Q86 111 107 111 Q121 111 132 104 Q143 97 149.5 86 Q156 75 156.5 61.5 Q157 48 150 34 L91 -93 L57 -77 Z " />
<glyph glyph-name="hyphen" unicode="&#x2d;" horiz-adv-x="612" d="M50 228 L50 284 L562 284 L562 228 L50 228 Z " />
<glyph glyph-name="period" unicode="&#x2e;" horiz-adv-x="201" d="M50 51 Q50 71 65 86 Q80 101 101 101 Q121 101 136 86 Q151 71 151 51 Q151 30 136 15 Q121 0 101 0 Q80 0 65 15 Q50 30 50 51 Z " />
<glyph glyph-name="slash" unicode="&#x2f;" horiz-adv-x="265" d="M222 742 L30 -26 L-30 -26 L162 742 L222 742 Z " />
<glyph glyph-name="zero" unicode="0" horiz-adv-x="682" d="M55 379 Q55 453 71.5 523 Q88 593 123 648 Q158 703 212 736 Q266 769 340 769 Q414 769 468 736 Q522 703 557.5 648.5 Q593 594 610 523.5 Q627 453 627 379 Q627 305 610 234.5 Q593 164 557.5 109.5 Q522 55 468 21.5 Q414 -12 340 -12 Q266 -12 212 21.5 Q158 55 123 109.5 Q88 164 71.5 234.5 Q55 305 55 379 Z M341 46 Q393 46 434.5 71 Q476 96 504 140 Q532 184 547 245.5 Q562 307 562 379 Q562 452 547 513 Q532 574 503.5 618.5 Q475 663 434 687.5 Q393 712 340 712 Q287 712 246.5 687.5 Q206 663 177.5 618.5 Q149 574 134.5 513 Q120 452 120 379 Q120 306 134.5 245 Q149 184 177.5 139.5 Q206 95 247 70.5 Q288 46 341 46 Z " />
<glyph glyph-name="one" unicode="1" horiz-adv-x="448" d="M55 581 L55 633 L166 633 Q179 633 187 642.5 Q195 652 195 667 L195 757 L254 757 L254 54 L393 54 L393 0 L55 0 L55 54 L194 54 L194 581 L55 581 Z " />
<glyph glyph-name="two" unicode="2" horiz-adv-x="635" d="M575 0 L64 0 L64 36 L398 321 Q451 366 483.5 410.5 Q516 455 516 512 Q516 555 501 591.5 Q486 628 460 654 Q434 680 398 694.5 Q362 709 320 709 Q278 709 242 693.5 Q206 678 179.5 651 Q153 624 138 588 Q123 552 123 512 L64 512 Q64 564 83.5 611 Q103 658 137.5 692.5 Q172 727 219 747.5 Q266 768 320 768 Q376 768 423 748 Q470 728 504 693.5 Q538 659 557 612.5 Q576 566 576 512 Q576 476 565.5 444.5 Q555 413 536 384 Q517 355 491 328.5 Q465 302 434 275 L167 53 L575 53 L575 0 Z " />
<glyph glyph-name="three" unicode="3" horiz-adv-x="661" d="M84 560 Q84 605 102 644.5 Q120 684 151.5 713.5 Q183 743 227 760 Q271 777 323 777 Q378 777 422.5 761 Q467 745 498.5 717 Q530 689 547 650.5 Q564 612 564 567 Q564 542 555.5 516 Q547 490 531.5 467.5 Q516 445 493.5 428.5 Q471 412 443 405 Q483 396 513 377 Q543 358 562.5 332.5 Q582 307 591.5 277.5 Q601 248 601 220 Q601 165 581 121 Q561 77 525 46 Q489 15 437.5 -2 Q386 -19 323 -19 Q266 -19 215 0 Q164 19 126.5 52.5 Q89 86 67 132.5 Q45 179 45 234 L108 234 Q108 195 124 159.5 Q140 124 168.5 97 Q197 70 236.5 54 Q276 38 323 38 Q427 38 481.5 87.5 Q536 137 538 218 Q539 251 527 279 Q515 307 489.5 327.5 Q464 348 424 360 Q384 372 330 372 L249 372 L249 426 L324 426 Q366 426 399.5 437 Q433 448 456 467 Q479 486 491 511 Q503 536 503 565 Q503 598 490.5 626.5 Q478 655 455 676 Q432 697 399 709 Q366 721 326 721 Q282 721 248.5 708 Q215 695 192.5 672.5 Q170 650 158 621 Q146 592 146 560 L84 560 Z " />
<glyph glyph-name="four" unicode="4" horiz-adv-x="571" d="M551 160 L423 160 L423 0 L364 0 L364 160 L26 160 L10 186 L364 757 L423 757 L423 214 L551 214 L551 160 Z M91 214 L364 214 L364 651 L91 214 Z " />
<glyph glyph-name="five" unicode="5" horiz-adv-x="635" d="M319 50 Q359 50 395 65 Q431 80 458 107 Q485 134 501 170.5 Q517 207 517 250 Q517 292 503.5 329.5 Q490 367 465 395 Q440 423 404 439.5 Q368 456 322 456 Q259 456 212.5 425.5 Q166 395 142 346 L74 346 L122 757 L511 757 L511 704 L171 704 L134 408 Q161 450 210 481 Q259 512 325 512 Q382 512 428.5 491.5 Q475 471 507.5 435.5 Q540 400 557.5 352.5 Q575 305 575 250 Q575 198 555 151.5 Q535 105 500.5 70 Q466 35 419 14.5 Q372 -6 319 -6 Q274 -6 234.5 8 Q195 22 163 47.5 Q131 73 108.5 108.5 Q86 144 75 186 L137 186 Q146 154 164 129 Q182 104 206 86.5 Q230 69 259 59.5 Q288 50 319 50 Z " />
<glyph glyph-name="six" unicode="6" horiz-adv-x="643" d="M71 245 Q71 288 86 325.5 Q101 363 122 398 L337 760 L401 760 L227 463 Q259 478 292 484 Q325 490 357 488 Q403 485 444 466 Q485 447 516 415 Q547 383 565 340 Q583 297 583 245 Q583 192 563 145.5 Q543 99 508 64 Q473 29 426.5 9 Q380 -11 327 -11 Q274 -11 227.5 9 Q181 29 146 64 Q111 99 91 145.5 Q71 192 71 245 Z M524 245 Q524 285 509.5 320.5 Q495 356 469 382.5 Q443 409 408 424 Q373 439 332 439 Q292 439 255.5 425 Q219 411 191 385.5 Q163 360 146.5 324 Q130 288 130 245 Q130 205 145.5 169.5 Q161 134 187.5 107 Q214 80 250 64.5 Q286 49 327 49 Q367 49 403 64.5 Q439 80 466 107 Q493 134 508.5 169.5 Q524 205 524 245 Z " />
<glyph glyph-name="seven" unicode="7" horiz-adv-x="560" d="M156 0 L451 705 L30 705 L30 757 L515 757 L525 743 L219 0 L156 0 Z " />
<glyph glyph-name="eight" unicode="8" horiz-adv-x="617" d="M528 566 Q528 540 519.5 514.5 Q511 489 495.5 466.5 Q480 444 457 426.5 Q434 409 405 400 Q443 391 473 370 Q503 349 523.5 321.5 Q544 294 555 262.5 Q566 231 566 200 Q566 148 546.5 105.5 Q527 63 492 32.5 Q457 2 408.5 -15 Q360 -32 303 -32 Q245 -32 196.5 -15 Q148 2 113.5 32.5 Q79 63 59.5 105.5 Q40 148 40 200 Q40 231 51 262.5 Q62 294 82.5 321.5 Q103 349 133 370 Q163 391 201 400 Q171 409 148.5 426.5 Q126 444 110 466.5 Q94 489 86 514.5 Q78 540 78 566 Q78 609 95 645.5 Q112 682 142 709 Q172 736 213 751.5 Q254 767 303 767 Q352 767 393 751.5 Q434 736 464 709 Q494 682 511 645.5 Q528 609 528 566 Z M303 22 Q343 22 380 33.5 Q417 45 445 67.5 Q473 90 489.5 123 Q506 156 506 199 Q506 234 492 265.5 Q478 297 452 320.5 Q426 344 388.5 358 Q351 372 303 372 Q255 372 217.5 358 Q180 344 154 320.5 Q128 297 114.5 265.5 Q101 234 101 199 Q101 157 117 124 Q133 91 161 68.5 Q189 46 225.5 34 Q262 22 303 22 Z M303 422 Q337 422 367.5 434 Q398 446 420 466 Q442 486 455 512 Q468 538 468 567 Q468 600 455 627 Q442 654 420 673.5 Q398 693 367.5 703.5 Q337 714 303 714 Q265 714 234.5 702.5 Q204 691 183 671 Q162 651 150.5 624.5 Q139 598 139 567 Q139 539 151 513 Q163 487 185 466.5 Q207 446 237 434 Q267 422 303 422 Z " />
<glyph glyph-name="nine" unicode="9" horiz-adv-x="620" d="M576 511 Q576 468 561 430.5 Q546 393 525 358 L310 -1 L246 -1 L420 293 Q355 264 290 269 Q244 272 203 290.5 Q162 309 131 341 Q100 373 82 416.5 Q64 460 64 511 Q64 564 84 610.5 Q104 657 139 692 Q174 727 220.5 747 Q267 767 320 767 Q373 767 419.5 747 Q466 727 501 692 Q536 657 556 610.5 Q576 564 576 511 Z M123 511 Q123 470 137.5 435 Q152 400 178 373.5 Q204 347 239 332 Q274 317 315 317 Q355 317 391.5 331.5 Q428 346 456 371.5 Q484 397 500.5 432.5 Q517 468 517 511 Q517 551 501.5 587 Q486 623 459.5 650 Q433 677 397 692.5 Q361 708 320 708 Q279 708 243.5 692.5 Q208 677 181 650 Q154 623 138.5 587 Q123 551 123 511 Z " />
<glyph glyph-name="colon" unicode="&#x3a;" horiz-adv-x="201" d="M50 51 Q50 71 65 86 Q80 101 101 101 Q121 101 136 86 Q151 71 151 51 Q151 30 136 15 Q121 0 101 0 Q80 0 65 15 Q50 30 50 51 Z M50 371 Q50 391 65 406 Q80 421 101 421 Q121 421 136 406 Q151 391 151 371 Q151 350 136 335 Q121 320 101 320 Q80 320 65 335 Q50 350 50 371 Z " />
<glyph glyph-name="semicolon" unicode="&#x3b;" horiz-adv-x="207" d="M57 -77 L98 10 Q81 14 69 28 Q57 42 57 60 Q57 81 71.5 96 Q86 111 107 111 Q121 111 132 104 Q143 97 149.5 86 Q156 75 156.5 61.5 Q157 48 150 34 L91 -93 L57 -77 Z M53 371 Q53 391 68 406 Q83 421 103 421 Q124 421 139 406 Q154 391 154 371 Q154 350 139 335 Q124 320 103 320 Q83 320 68 335 Q53 350 53 371 Z " />
<glyph glyph-name="less" unicode="&#x3c;" horiz-adv-x="424" d="M306 512 L370 512 L374 501 L129 256 L374 11 L370 0 L306 0 L50 256 L306 512 Z " />
<glyph glyph-name="equal" unicode="&#x3d;" horiz-adv-x="612" d="M78 102 L78 158 L534 158 L534 102 L78 102 Z M78 354 L78 411 L534 411 L534 354 L78 354 Z " />
<glyph glyph-name="question" unicode="&#x3f;" horiz-adv-x="592" d="M225 307 L282 307 Q324 307 360.5 322.5 Q397 338 424 365 Q451 392 466.5 428.5 Q482 465 482 507 Q482 549 466.5 585.5 Q451 622 424 649 Q397 676 360.5 691.5 Q324 707 282 707 Q240 707 203.5 691.5 Q167 676 140 649 Q113 622 97.5 585.5 Q82 549 82 507 L21 507 Q21 561 41.5 609 Q62 657 97 692 Q132 727 180 747.5 Q228 768 282 768 Q336 768 384 747.5 Q432 727 467 692 Q502 657 522.5 609 Q543 561 543 507 Q543 453 522.5 405 Q502 357 467 322 Q432 287 384 266.5 Q336 246 282 246 L225 246 L225 307 Z M234 51 Q234 71 249 86 Q264 101 285 101 Q306 101 321 86 Q336 71 336 51 Q336 30 321 15 Q306 0 285 0 Q264 0 249 15 Q234 30 234 51 Z " />
<glyph glyph-name="at" unicode="&#x40;" horiz-adv-x="1095" d="M324 344 Q324 386 340.5 423 Q357 460 385 487.5 Q413 515 451 531 Q489 547 531 547 Q581 547 626 522 Q671 497 700 443 L712 535 L769 535 L746 341 Q742 294 748.5 260.5 Q755 227 769.5 206 Q784 185 805.5 175 Q827 165 854 165 Q880 165 903.5 179 Q927 193 945 223 Q963 253 973 299.5 Q983 346 982 411 Q980 488 948.5 552 Q917 616 861 661.5 Q805 707 727 732.5 Q649 758 556 758 Q455 758 373 727.5 Q291 697 232.5 641 Q174 585 143 507 Q112 429 113 334 Q114 256 144.5 185 Q175 114 233.5 60.5 Q292 7 378.5 -24.5 Q465 -56 579 -55 Q608 -55 638 -52.5 Q668 -50 698 -45 Q698 -59 698.5 -72.5 Q699 -86 699 -99 Q665 -104 636.5 -107 Q608 -110 577 -111 Q460 -113 363 -80 Q266 -47 197 12 Q128 71 89.5 154 Q51 237 50 336 Q50 448 87.5 537 Q125 626 192 688 Q259 750 352 783 Q445 816 555 816 Q673 816 764.5 781.5 Q856 747 918 690 Q980 633 1012.5 560.5 Q1045 488 1045 412 Q1045 329 1029 270.5 Q1013 212 986.5 175.5 Q960 139 925.5 122.5 Q891 106 854 106 Q817 106 790 118.5 Q763 131 744.5 150.5 Q726 170 715.5 194 Q705 218 702 242 Q675 192 627 167 Q579 142 530 142 Q487 142 449.5 156.5 Q412 171 384 198 Q356 225 340 262 Q324 299 324 344 Z M385 344 Q385 274 426.5 235.5 Q468 197 534 197 Q567 197 595 207.5 Q623 218 643 237.5 Q663 257 674.5 284 Q686 311 686 344 Q686 374 675 401 Q664 428 643.5 448 Q623 468 595.5 480 Q568 492 535 492 Q502 492 474.5 479.5 Q447 467 427 446 Q407 425 396 398.5 Q385 372 385 344 Z " />
<glyph glyph-name="A" unicode="A" horiz-adv-x="692" d="M611 0 L544 163 L148 163 L81 0 L17 0 L311 735 L380 735 L675 0 L611 0 Z M346 665 L169 217 L524 217 L346 665 Z " />
<glyph glyph-name="B" unicode="B" horiz-adv-x="621" d="M87 0 L87 735 L339 735 Q383 735 420 719.5 Q457 704 483.5 677.5 Q510 651 525 616 Q540 581 540 541 Q540 516 533 491.5 Q526 467 513 446 Q500 425 481.5 409 Q463 393 440 384 Q473 375 499 356 Q525 337 543.5 312.5 Q562 288 571.5 259.5 Q581 231 581 201 Q581 159 566 122.5 Q551 86 524 59 Q497 32 460 16 Q423 0 380 0 L87 0 Z M146 55 L377 55 Q408 55 434.5 66 Q461 77 480 96.5 Q499 116 510 142.5 Q521 169 521 199 Q521 231 509 258.5 Q497 286 476 306.5 Q455 327 426 338.5 Q397 350 363 350 L146 350 L146 55 Z M146 404 L335 404 Q401 404 441.5 441 Q482 478 482 541 Q482 569 471.5 594.5 Q461 620 441.5 639.5 Q422 659 395 670 Q368 681 335 681 L146 681 L146 404 Z " />
<glyph glyph-name="C" unicode="C" horiz-adv-x="730" d="M110 367 Q110 299 135 240.5 Q160 182 203.5 139 Q247 96 304.5 71.5 Q362 47 428 47 Q495 47 551.5 72.5 Q608 98 653 141 L693 99 Q642 48 574 18.5 Q506 -11 426 -11 Q346 -11 277 18.5 Q208 48 157 99 Q106 150 77 219 Q48 288 48 367 Q48 446 76.5 515 Q105 584 156 635.5 Q207 687 276 716.5 Q345 746 426 746 Q507 746 574.5 716.5 Q642 687 693 636 L653 594 Q610 637 552 662 Q494 687 428 687 Q360 687 302 662.5 Q244 638 201.5 594.5 Q159 551 134.5 492.5 Q110 434 110 367 Z " />
<glyph glyph-name="D" unicode="D" horiz-adv-x="700" d="M90 0 L90 735 L289 735 Q365 735 431.5 706 Q498 677 548 627 Q598 577 627 510.5 Q656 444 656 368 Q656 292 627 225 Q598 158 548 108 Q498 58 431.5 29 Q365 0 289 0 L90 0 Z M152 678 L152 57 L287 57 Q352 57 408 81.5 Q464 106 505.5 148 Q547 190 571 246.5 Q595 303 595 368 Q595 432 571 488.5 Q547 545 505.5 587 Q464 629 407.5 653.5 Q351 678 287 678 L152 678 Z " />
<glyph glyph-name="E" unicode="E" horiz-adv-x="566" d="M90 735 L519 735 L519 681 L154 681 L154 398 L493 398 L493 346 L154 346 L154 54 L519 54 L519 0 L90 0 L90 735 Z " />
<glyph glyph-name="F" unicode="F" horiz-adv-x="526" d="M90 735 L500 735 L500 681 L152 681 L152 398 L474 398 L474 346 L152 346 L152 0 L90 0 L90 735 Z " />
<glyph glyph-name="G" unicode="G" horiz-adv-x="849" d="M108 368 Q108 299 133.5 240 Q159 181 203 138.5 Q247 96 305.5 71.5 Q364 47 429 47 Q496 47 552 67.5 Q608 88 648.5 126 Q689 164 711.5 219 Q734 274 736 343 L462 343 L462 398 L796 398 Q797 390 797 382.5 Q797 375 797 367 Q797 274 768 203.5 Q739 133 689 85 Q639 37 572 12.5 Q505 -12 429 -12 Q347 -12 277.5 18 Q208 48 157 100 Q106 152 77 221 Q48 290 48 368 Q48 448 76.5 517 Q105 586 155.5 636.5 Q206 687 275.5 716 Q345 745 427 745 Q500 745 562.5 722 Q625 699 675 655 L636 616 Q594 651 543.5 670 Q493 689 427 689 Q358 689 300 664.5 Q242 640 199 597 Q156 554 132 495.5 Q108 437 108 368 Z " />
<glyph glyph-name="H" unicode="H" horiz-adv-x="740" d="M87 0 L87 734 L151 734 L151 398 L589 398 L589 735 L653 735 L653 0 L589 0 L589 346 L151 346 L151 0 L87 0 Z " />
<glyph glyph-name="I" unicode="I" horiz-adv-x="418" d="M39 681 L39 735 L379 735 L379 681 L241 681 L241 54 L379 54 L379 0 L39 0 L39 54 L177 54 L177 681 L39 681 Z " />
<glyph glyph-name="J" unicode="J" horiz-adv-x="501" d="M81 188 Q81 160 92 135 Q103 110 122 91.5 Q141 73 166 62 Q191 51 219 51 Q247 51 272 62 Q297 73 315.5 91.5 Q334 110 345 135 Q356 160 356 188 L356 735 L417 735 L417 188 Q417 147 401.5 111 Q386 75 359 48 Q332 21 296 5.5 Q260 -10 219 -10 Q178 -10 142 5.5 Q106 21 79 48 Q52 75 36.5 111 Q21 147 21 188 L81 188 Z " />
<glyph glyph-name="K" unicode="K" horiz-adv-x="655" d="M148 346 L148 0 L87 0 L87 735 L148 735 L148 398 L347 398 L545 735 L613 735 L400 374 L615 0 L547 0 L348 346 L148 346 Z " />
<glyph glyph-name="L" unicode="L" horiz-adv-x="454" d="M434 0 L87 0 L87 735 L149 735 L149 54 L434 54 L434 0 Z " />
<glyph glyph-name="M" unicode="M" horiz-adv-x="858" d="M710 0 L710 605 L429 323 L148 605 L148 0 L87 0 L87 735 L97 739 L429 406 L760 739 L771 735 L771 0 L710 0 Z " />
<glyph glyph-name="N" unicode="N" horiz-adv-x="796" d="M647 735 L709 735 L709 5 L697 -1 L149 601 L149 0 L87 0 L87 730 L98 735 L647 134 L647 735 Z " />
<glyph glyph-name="O" unicode="O" horiz-adv-x="864" d="M52 368 Q52 446 82 515.5 Q112 585 163.5 636.5 Q215 688 284.5 718 Q354 748 432 748 Q510 748 579.5 718 Q649 688 700.5 636.5 Q752 585 782 515.5 Q812 446 812 368 Q812 290 782 220.5 Q752 151 700.5 99.5 Q649 48 579.5 18 Q510 -12 432 -12 Q354 -12 284.5 18 Q215 48 163.5 99.5 Q112 151 82 220.5 Q52 290 52 368 Z M115 368 Q115 303 140 245 Q165 187 208 144 Q251 101 309 76 Q367 51 432 51 Q497 51 555 76 Q613 101 656 144 Q699 187 724 245 Q749 303 749 368 Q749 433 724 491 Q699 549 656 592 Q613 635 555 660 Q497 685 432 685 Q367 685 309 660 Q251 635 208 592 Q165 549 140 491 Q115 433 115 368 Z " />
<glyph glyph-name="P" unicode="P" horiz-adv-x="599" d="M149 242 L149 0 L87 0 L87 735 L331 735 Q384 735 429.5 715.5 Q475 696 508.5 662.5 Q542 629 561 584 Q580 539 580 488 Q580 437 561 392 Q542 347 508.5 313.5 Q475 280 429.5 261 Q384 242 331 242 L149 242 Z M328 295 Q369 295 404.5 309.5 Q440 324 465.5 349.5 Q491 375 505.5 410.5 Q520 446 520 488 Q520 530 505.5 565.5 Q491 601 465.5 626.5 Q440 652 404.5 666.5 Q369 681 328 681 L149 681 L149 295 L328 295 Z " />
<glyph glyph-name="Q" unicode="Q" horiz-adv-x="857" d="M48 368 Q48 446 78 515.5 Q108 585 159.5 636.5 Q211 688 280.5 718 Q350 748 428 748 Q507 748 576 718 Q645 688 697 636.5 Q749 585 779 515.5 Q809 446 809 368 Q809 294 782.5 229 Q756 164 710 113.5 Q664 63 601.5 30.5 Q539 -2 468 -9 L468 -25 Q468 -82 502 -117.5 Q536 -153 592 -153 Q648 -153 682 -120 Q716 -87 716 -25 L775 -25 Q775 -68 761 -102.5 Q747 -137 722.5 -161.5 Q698 -186 664 -199 Q630 -212 591 -212 Q552 -212 519 -198 Q486 -184 461.5 -159 Q437 -134 423 -99.5 Q409 -65 409 -25 L409 -11 Q334 -7 268 24 Q202 55 153 106 Q104 157 76 224.5 Q48 292 48 368 Z M111 368 Q111 303 136 245 Q161 187 204 144 Q247 101 305 76 Q363 51 428 51 Q494 51 551.5 76 Q609 101 652 144 Q695 187 720 245 Q745 303 745 368 Q745 433 720 491 Q695 549 652 592 Q609 635 551.5 660 Q494 685 428 685 Q363 685 305 660 Q247 635 204 592 Q161 549 136 491 Q111 433 111 368 Z " />
<glyph glyph-name="R" unicode="R" horiz-adv-x="671" d="M149 0 L87 0 L87 735 L391 735 Q439 735 481 717 Q523 699 554.5 667.5 Q586 636 604 594 Q622 552 622 504 Q622 425 579 368 Q536 311 464 286 L614 0 L548 0 L403 274 L149 274 L149 0 Z M386 327 Q424 327 456.5 341 Q489 355 512.5 379 Q536 403 549 435.5 Q562 468 562 504 Q562 541 548.5 573 Q535 605 511 629 Q487 653 455 667 Q423 681 386 681 L149 681 L149 327 L386 327 Z " />
<glyph glyph-name="S" unicode="S" horiz-adv-x="594" d="M317 -16 Q236 -16 170.5 13.5 Q105 43 58 92 L103 131 Q195 44 318 44 Q399 44 445 78 Q491 112 491 167 Q491 216 460 250 Q429 284 366 309 L216 369 Q131 403 92 451 Q53 499 53 566 Q53 607 70.5 641 Q88 675 119.5 700 Q151 725 195.5 738.5 Q240 752 294 752 Q352 752 397.5 733.5 Q443 715 475 685 Q507 655 524 616.5 Q541 578 541 537 L481 537 Q481 565 469 593 Q457 621 433.5 643.5 Q410 666 375 680 Q340 694 294 694 Q254 694 221.5 684.5 Q189 675 165.5 658.5 Q142 642 129.5 618 Q117 594 117 566 Q117 518 143.5 486 Q170 454 235 428 L388 366 Q476 330 515 281 Q554 232 554 167 Q554 122 535.5 88 Q517 54 484.5 30.5 Q452 7 409 -4.5 Q366 -16 317 -16 Z " />
<glyph glyph-name="T" unicode="T" horiz-adv-x="525" d="M506 735 L506 681 L294 681 L294 0 L232 0 L232 681 L19 681 L19 735 L506 735 Z " />
<glyph glyph-name="U" unicode="U" horiz-adv-x="767" d="M130 305 Q130 251 149 204 Q168 157 202 122.5 Q236 88 282.5 68.5 Q329 49 383 49 Q438 49 484.5 68.5 Q531 88 565 122.5 Q599 157 618 204 Q637 251 637 305 L637 735 L699 735 L699 305 Q699 239 675 181.5 Q651 124 609 81.5 Q567 39 509 14 Q451 -11 383 -11 Q315 -11 257 14 Q199 39 157 81.5 Q115 124 91 181.5 Q67 239 67 305 L67 735 L130 735 L130 305 Z " />
<glyph glyph-name="V" unicode="V" horiz-adv-x="681" d="M388 0 L293 0 L15 735 L78 735 L340 46 L602 735 L666 735 L388 0 Z " />
<glyph glyph-name="W" unicode="W" horiz-adv-x="900" d="M654 63 L661 63 L819 735 L882 735 L706 0 L611 0 L453 644 L447 644 L289 0 L194 0 L18 735 L81 735 L239 63 L245 63 L412 735 L488 735 L654 63 Z " />
<glyph glyph-name="X" unicode="X" horiz-adv-x="614" d="M87 0 L17 0 L270 387 L42 735 L112 735 L306 438 L501 735 L571 735 L343 387 L597 0 L526 0 L306 336 L87 0 Z " />
<glyph glyph-name="Y" unicode="Y" horiz-adv-x="583" d="M262 0 L262 212 L15 735 L80 735 L292 292 L504 735 L568 735 L322 212 L322 0 L262 0 Z " />
<glyph glyph-name="Z" unicode="Z" horiz-adv-x="610" d="M83 346 L83 398 L291 398 L483 681 L49 681 L49 735 L552 735 L565 709 L359 398 L527 398 L527 346 L327 346 L130 54 L561 54 L561 0 L58 0 L45 26 L259 346 L83 346 Z " />
<glyph glyph-name="bracketleft" unicode="&#x5b;" horiz-adv-x="411" d="M91 896 L347 896 L347 839 L151 839 L151 -71 L347 -71 L347 -128 L91 -128 L91 896 Z " />
<glyph glyph-name="bracketright" unicode="&#x5d;" horiz-adv-x="411" d="M347 -128 L91 -128 L91 -71 L288 -71 L288 839 L91 839 L91 896 L347 896 L347 -128 Z " />
<glyph glyph-name="asciicircum" unicode="&#x5e;" horiz-adv-x="372" d="M185 655 L95 564 L50 609 L186 745 L322 609 L277 564 L185 655 Z " />
<glyph glyph-name="underscore" unicode="&#x5f;" horiz-adv-x="612" d="M50 0 L50 57 L534 57 L534 0 L50 0 Z " />
<glyph glyph-name="a" unicode="a" horiz-adv-x="558" d="M424 121 Q414 94 395 70.5 Q376 47 350.5 29 Q325 11 293 1 Q261 -9 225 -9 Q183 -9 149.5 2.5 Q116 14 92.5 34.5 Q69 55 57 82.5 Q45 110 45 142 Q45 169 56 194 Q67 219 90.5 237.5 Q114 256 149.5 267 Q185 278 234 278 L422 278 L422 300 Q422 330 413 359 Q404 388 385.5 410.5 Q367 433 338.5 447 Q310 461 270 461 Q231 461 198 447 Q165 433 139 408 L101 445 Q134 477 177.5 496 Q221 515 270 515 Q322 515 362 497 Q402 479 428 449 Q454 419 467.5 380.5 Q481 342 481 301 L481 0 L424 0 L424 121 Z M105 142 Q105 98 140.5 70 Q176 42 233 42 Q268 42 302 54 Q336 66 362.5 90 Q389 114 405.5 149 Q422 184 422 230 L234 230 Q167 230 136 204.5 Q105 179 105 142 Z " />
<glyph glyph-name="b" unicode="b" horiz-adv-x="644" d="M591 256 Q591 203 571.5 156 Q552 109 517.5 74.5 Q483 40 435.5 20 Q388 0 333 0 Q300 0 271 9 Q242 18 218 33 Q194 48 175.5 67.5 Q157 87 146 107 L146 0 L87 0 L87 768 L146 768 L146 406 Q157 427 176 446 Q195 465 219.5 479.5 Q244 494 273 503 Q302 512 333 512 Q388 512 435.5 492 Q483 472 517.5 437.5 Q552 403 571.5 356 Q591 309 591 256 Z M133 256 Q133 213 148 176 Q163 139 189 112 Q215 85 250.5 69.5 Q286 54 327 54 Q370 54 407 69.5 Q444 85 471.5 112 Q499 139 515 176 Q531 213 531 256 Q531 299 515 336 Q499 373 471.5 400 Q444 427 407 442.5 Q370 458 327 458 Q286 458 250.5 442.5 Q215 427 189 400 Q163 373 148 336 Q133 299 133 256 Z " />
<glyph glyph-name="c" unicode="c" horiz-adv-x="536" d="M503 67 Q467 30 420 10 Q373 -10 316 -10 Q261 -10 212.5 11 Q164 32 128 68 Q92 104 71 152.5 Q50 201 50 256 Q50 311 71 359.5 Q92 408 128 444 Q164 480 212.5 501 Q261 522 316 522 Q375 522 424 500 Q473 478 508 440 L467 400 Q439 430 400.5 446.5 Q362 463 316 463 Q273 463 235 446.5 Q197 430 169 402 Q141 374 125 336.5 Q109 299 109 256 Q109 213 125 175 Q141 137 169 109 Q197 81 235 65 Q273 49 316 49 Q362 49 398.5 64.5 Q435 80 464 108 L503 67 Z " />
<glyph glyph-name="d" unicode="d" horiz-adv-x="644" d="M53 256 Q53 309 72.5 356 Q92 403 126.5 437.5 Q161 472 208.5 492 Q256 512 311 512 Q342 512 371 503 Q400 494 424.5 479.5 Q449 465 468 446 Q487 427 498 406 L498 768 L557 768 L557 0 L498 0 L498 107 Q487 87 468.5 67.5 Q450 48 426 33 Q402 18 373 9 Q344 0 311 0 Q256 0 208.5 20 Q161 40 126.5 74.5 Q92 109 72.5 156 Q53 203 53 256 Z M511 256 Q511 299 496 336 Q481 373 455 400 Q429 427 393.5 442.5 Q358 458 317 458 Q274 458 237 442.5 Q200 427 172.5 400 Q145 373 129 336 Q113 299 113 256 Q113 213 129 176 Q145 139 172.5 112 Q200 85 237 69.5 Q274 54 317 54 Q358 54 393.5 69.5 Q429 85 455 112 Q481 139 496 176 Q511 213 511 256 Z " />
<glyph glyph-name="e" unicode="e" horiz-adv-x="602" d="M559 254 Q559 249 558.5 241.5 Q558 234 557 229 L115 229 Q115 188 132 154 Q149 120 176.5 96 Q204 72 239 58.5 Q274 45 311 45 Q358 45 394 59.5 Q430 74 459 97 L498 60 Q461 27 414.5 8.5 Q368 -10 310 -10 Q263 -10 217 7 Q171 24 134.5 58 Q98 92 75.5 141.5 Q53 191 53 256 Q53 311 71 359.5 Q89 408 122 444 Q155 480 201.5 500.5 Q248 521 305 521 Q364 521 411 499 Q458 477 491 440.5 Q524 404 541.5 355.5 Q559 307 559 254 Z M306 468 Q263 468 228 453 Q193 438 168 412.5 Q143 387 129 352 Q115 317 115 278 L498 278 Q498 315 484 349.5 Q470 384 444.5 410 Q419 436 384 452 Q349 468 306 468 Z " />
<glyph glyph-name="f" unicode="f" horiz-adv-x="335" d="M269 713 Q231 713 203.5 684.5 Q176 656 176 610 L176 512 L322 512 L322 460 L176 460 L176 0 L117 0 L117 460 L26 460 L26 512 L117 512 L117 607 Q117 639 127.5 668.5 Q138 698 158 720 Q178 742 206.5 755 Q235 768 270 768 Q284 768 297 767 Q310 766 319 764 L319 713 L269 713 Z " />
<glyph glyph-name="g" unicode="g" horiz-adv-x="557" d="M68 329 Q68 372 84.5 410 Q101 448 129 476.5 Q157 505 194.5 521.5 Q232 538 275 538 Q313 538 347 525 Q381 512 408 489 Q437 502 467.5 507 Q498 512 535 512 L543 512 L543 460 L429 460 Q454 435 469 401 Q484 367 484 329 Q484 286 467.5 248.5 Q451 211 422.5 183 Q394 155 356 138.5 Q318 122 275 122 Q241 122 207 135.5 Q173 149 150 170 Q114 158 94.5 136.5 Q75 115 75 84 Q75 51 96 33 Q117 15 156 15 L353 15 Q439 15 482.5 -23 Q526 -61 526 -124 Q526 -157 512.5 -183.5 Q499 -210 474.5 -228 Q450 -246 416 -256 Q382 -266 340 -266 Q287 -266 242.5 -250.5 Q198 -235 166 -208 Q134 -181 116.5 -143.5 Q99 -106 102 -62 L131 -41 Q80 -37 49 -7.5 Q18 22 19 73 Q20 115 47.5 148.5 Q75 182 117 197 Q94 224 81 257.5 Q68 291 68 329 Z M123 329 Q123 297 135 269.5 Q147 242 167.5 221.5 Q188 201 215.5 189 Q243 177 275 177 Q307 177 335 189 Q363 201 383.5 221.5 Q404 242 416 269.5 Q428 297 428 329 Q428 361 416 389 Q404 417 383.5 437.5 Q363 458 335 470 Q307 482 275 482 Q243 482 215.5 470 Q188 458 167.5 437.5 Q147 417 135 389 Q123 361 123 329 Z M340 -211 Q397 -211 432 -189.5 Q467 -168 467 -124 Q467 -86 438 -63.5 Q409 -41 353 -41 L150 -41 Q148 -78 162 -109 Q176 -140 201.5 -162.5 Q227 -185 262.5 -198 Q298 -211 340 -211 Z " />
<glyph glyph-name="h" unicode="h" horiz-adv-x="662" d="M592 0 L532 0 L532 266 Q532 306 517 341 Q502 376 476 402 Q450 428 415 443 Q380 458 340 458 Q301 458 266 441 Q231 424 204.5 395 Q178 366 162.5 327 Q147 288 147 244 L147 0 L87 0 L87 768 L147 768 L147 375 Q160 406 180.5 432 Q201 458 228 477 Q255 496 286.5 506 Q318 516 353 515 Q402 515 445.5 495 Q489 475 521.5 440.5 Q554 406 573 359.5 Q592 313 592 259 L592 0 Z " />
<glyph glyph-name="i" unicode="i" horiz-adv-x="248" d="M154 512 L154 0 L94 0 L94 512 L154 512 Z M77 716 Q77 736 90.5 749.5 Q104 763 124 763 Q144 763 157.5 749.5 Q171 736 171 716 Q171 696 157.5 682 Q144 668 124 668 Q104 668 90.5 682 Q77 696 77 716 Z " />
<glyph glyph-name="j" unicode="j" horiz-adv-x="248" d="M94 -242 L94 512 L154 512 L154 -242 L94 -242 Z M77 716 Q77 736 90.5 749.5 Q104 763 124 763 Q144 763 157.5 749.5 Q171 736 171 716 Q171 696 157.5 682 Q144 668 124 668 Q104 668 90.5 682 Q77 696 77 716 Z " />
<glyph glyph-name="k" unicode="k" horiz-adv-x="528" d="M146 768 L146 284 L292 284 L430 512 L494 512 L340 256 L494 0 L430 0 L292 228 L146 228 L146 0 L87 0 L87 768 L146 768 Z " />
<glyph glyph-name="l" unicode="l" horiz-adv-x="234" d="M87 0 L87 768 L147 768 L147 0 L87 0 Z " />
<glyph glyph-name="m" unicode="m" horiz-adv-x="960" d="M889 0 L828 0 L828 301 Q828 335 817.5 365.5 Q807 396 787 419 Q767 442 739 455 Q711 468 675 468 Q642 468 613.5 454.5 Q585 441 564 417.5 Q543 394 531.5 364 Q520 334 520 301 L520 0 L458 0 L458 301 Q458 330 448 360 Q438 390 418.5 414 Q399 438 370 453 Q341 468 304 468 Q268 468 239 452.5 Q210 437 189 411.5 Q168 386 157 351.5 Q146 317 146 280 L146 0 L87 0 L87 512 L146 512 L146 407 Q153 429 169 450 Q185 471 206.5 488 Q228 505 255.5 515.5 Q283 526 315 526 Q379 526 425.5 490.5 Q472 455 493 401 Q505 428 524 451 Q543 474 567.5 490.5 Q592 507 620.5 516.5 Q649 526 680 526 Q726 526 764.5 509 Q803 492 830.5 461.5 Q858 431 873.5 390 Q889 349 889 301 L889 0 Z " />
<glyph glyph-name="n" unicode="n" horiz-adv-x="652" d="M581 0 L522 0 L522 276 Q522 316 508.5 351 Q495 386 471 412 Q447 438 413 453 Q379 468 337 468 Q298 468 263.5 452.5 Q229 437 203.5 410 Q178 383 162.5 345.5 Q147 308 146 264 L146 0 L87 0 L87 512 L146 512 L146 390 Q154 412 172 435 Q190 458 216 477.5 Q242 497 275 509.5 Q308 522 346 522 Q397 522 440.5 503.5 Q484 485 515 451 Q546 417 563.5 370.5 Q581 324 581 268 L581 0 Z " />
<glyph glyph-name="o" unicode="o" horiz-adv-x="625" d="M50 256 Q50 311 70.5 358.5 Q91 406 126.5 441.5 Q162 477 210 497.5 Q258 518 312 518 Q367 518 415 497.5 Q463 477 498.5 441.5 Q534 406 554.5 358.5 Q575 311 575 256 Q575 201 554.5 153 Q534 105 498.5 69.5 Q463 34 415 13.5 Q367 -7 312 -7 Q258 -7 210 13.5 Q162 34 126.5 69.5 Q91 105 70.5 153 Q50 201 50 256 Z M109 256 Q109 214 125 176.5 Q141 139 169 111.5 Q197 84 233.5 68 Q270 52 312 52 Q354 52 391 68 Q428 84 456 111.5 Q484 139 500 176.5 Q516 214 516 256 Q516 298 500 335 Q484 372 456 400 Q428 428 391 444 Q354 460 312 460 Q270 460 233.5 444 Q197 428 169 400 Q141 372 125 335 Q109 298 109 256 Z " />
<glyph glyph-name="p" unicode="p" horiz-adv-x="641" d="M591 256 Q591 203 571.5 156 Q552 109 517.5 74.5 Q483 40 435.5 20 Q388 0 333 0 Q302 0 273 9 Q244 18 219.5 32.5 Q195 47 176 66 Q157 85 146 106 L146 -256 L87 -256 L87 512 L146 512 L146 404 Q157 425 175.5 444.5 Q194 464 218 479 Q242 494 271 503 Q300 512 333 512 Q388 512 435.5 492 Q483 472 517.5 437.5 Q552 403 571.5 356 Q591 309 591 256 Z M136 256 Q136 214 151 177 Q166 140 192 113 Q218 86 253 70.5 Q288 55 329 55 Q371 55 408 70.5 Q445 86 472 113 Q499 140 515 177 Q531 214 531 256 Q531 298 515 334.5 Q499 371 472 398 Q445 425 408 440.5 Q371 456 329 456 Q288 456 253 440.5 Q218 425 192 398 Q166 371 151 334.5 Q136 298 136 256 Z " />
<glyph glyph-name="q" unicode="q" horiz-adv-x="644" d="M53 256 Q53 309 72.5 356 Q92 403 126.5 437.5 Q161 472 208.5 492 Q256 512 311 512 Q344 512 373 503 Q402 494 426 479 Q450 464 468.5 444.5 Q487 425 498 404 L498 512 L557 512 L557 -256 L498 -256 L498 106 Q487 85 468 66 Q449 47 424.5 32.5 Q400 18 371 9 Q342 0 311 0 Q256 0 208.5 20 Q161 40 126.5 74.5 Q92 109 72.5 156 Q53 203 53 256 Z M508 256 Q508 298 493 334.5 Q478 371 452 398 Q426 425 391 440.5 Q356 456 315 456 Q273 456 236 440.5 Q199 425 172 398 Q145 371 129 334.5 Q113 298 113 256 Q113 214 129 177 Q145 140 172 113 Q199 86 236 70.5 Q273 55 315 55 Q356 55 391 70.5 Q426 86 452 113 Q478 140 493 177 Q508 214 508 256 Z " />
<glyph glyph-name="r" unicode="r" horiz-adv-x="343" d="M147 0 L87 0 L87 512 L139 512 L139 412 Q164 461 209 486.5 Q254 512 310 512 L333 512 L333 460 L310 460 Q275 460 245 448 Q215 436 193.5 414 Q172 392 159.5 362.5 Q147 333 147 297 L147 0 Z " />
<glyph glyph-name="s" unicode="s" horiz-adv-x="519" d="M118 385 Q118 358 139 336.5 Q160 315 208 300 L330 264 Q408 241 441 205 Q474 169 474 120 Q474 92 462 68 Q450 44 426 26 Q402 8 365 -2.5 Q328 -13 278 -13 Q243 -13 209.5 -6 Q176 1 146.5 13 Q117 25 93 41.5 Q69 58 53 77 L98 112 Q113 95 134 82 Q155 69 179 59.5 Q203 50 228.5 45 Q254 40 278 40 Q348 40 380.5 63.5 Q413 87 413 120 Q413 149 392.5 170.5 Q372 192 318 209 L199 245 Q129 265 93.5 301 Q58 337 58 385 Q58 413 70 438.5 Q82 464 107 484 Q132 504 169.5 516 Q207 528 257 528 Q308 528 346.5 512 Q385 496 411.5 472 Q438 448 451 419 Q464 390 464 363 L406 363 Q401 411 360 443 Q319 475 257 475 Q221 475 194.5 467.5 Q168 460 151 447 Q134 434 126 418 Q118 402 118 385 Z " />
<glyph glyph-name="t" unicode="t" horiz-adv-x="323" d="M128 0 L128 460 L10 460 L10 512 L128 512 L128 640 L188 640 L188 512 L306 512 L306 460 L188 460 L188 0 L128 0 Z " />
<glyph glyph-name="u" unicode="u" horiz-adv-x="653" d="M70 512 L130 512 L130 236 Q130 196 143.5 161 Q157 126 181 100 Q205 74 239 59 Q273 44 315 44 Q354 44 388.5 59.5 Q423 75 448.5 102 Q474 129 489.5 166.5 Q505 204 506 248 L506 512 L566 512 L566 0 L506 0 L506 122 Q498 100 480 77 Q462 54 436 34.5 Q410 15 377 2.5 Q344 -10 306 -10 Q255 -10 211.5 8.5 Q168 27 136.5 61 Q105 95 87.5 141.5 Q70 188 70 244 L70 512 Z " />
<glyph glyph-name="v" unicode="v" horiz-adv-x="532" d="M269 54 L450 512 L515 512 L309 0 L223 0 L17 512 L82 512 L263 54 L269 54 Z " />
<glyph glyph-name="w" unicode="w" horiz-adv-x="775" d="M561 54 L565 54 L695 512 L756 512 L609 0 L520 0 L389 429 L384 429 L253 0 L165 0 L17 512 L79 512 L209 54 L213 54 L353 512 L421 512 L561 54 Z " />
<glyph glyph-name="x" unicode="x" horiz-adv-x="474" d="M457 0 L387 0 L237 205 L86 0 L17 0 L201 255 L18 512 L87 512 L237 305 L387 512 L456 512 L272 255 L457 0 Z " />
<glyph glyph-name="y" unicode="y" horiz-adv-x="569" d="M287 39 L487 512 L552 512 L314 -47 L314 -256 L255 -256 L255 -48 L17 512 L82 512 L282 39 L287 39 Z " />
<glyph glyph-name="z" unicode="z" horiz-adv-x="508" d="M458 53 L458 0 L60 0 L45 25 L378 460 L61 460 L61 512 L449 512 L463 487 L131 53 L458 53 Z " />
<glyph glyph-name="bar" unicode="&#x7c;" horiz-adv-x="249" d="M95 896 L154 896 L154 -128 L95 -128 L95 896 Z " />
<glyph glyph-name="cent" unicode="&#xa2;" horiz-adv-x="556" d="M104 257 Q104 215 119.5 178.5 Q135 142 161.5 115 Q188 88 224 72.5 Q260 57 301 57 Q355 57 392 79 Q429 101 458 133 L500 95 Q469 57 425 32 Q381 7 329 2 L330 2 L330 -128 L268 -128 L268 3 Q220 9 179 30.5 Q138 52 108 86 Q78 120 61 163.5 Q44 207 44 256 Q44 305 61 348 Q78 391 108 425 Q138 459 179 480.5 Q220 502 268 508 L268 640 L330 640 L330 509 L329 509 Q381 504 425 479 Q469 454 500 416 L458 381 Q429 413 392 434 Q355 455 301 455 Q260 455 224 439.5 Q188 424 161.5 397 Q135 370 119.5 334 Q104 298 104 257 Z " />
<glyph glyph-name="sterling" unicode="&#xa3;" horiz-adv-x="570" d="M51 402 L147 402 L147 576 Q147 616 162 651 Q177 686 203 712 Q229 738 264 753 Q299 768 339 768 Q380 768 415.5 753 Q451 738 476.5 712 Q502 686 516.5 651 Q531 616 531 576 L475 576 Q475 605 464.5 629.5 Q454 654 436 672 Q418 690 393 700.5 Q368 711 339 711 Q312 711 288 700.5 Q264 690 246 672 Q228 654 217.5 630 Q207 606 207 579 L207 402 L531 402 L531 348 L207 348 L207 54 L531 54 L531 0 L147 0 L147 348 L51 348 L51 402 Z " />
<glyph glyph-name="dieresis" unicode="&#xa8;" horiz-adv-x="384" d="M50 663 Q50 684 65 699 Q80 714 101 714 Q121 714 136 699 Q151 684 151 663 Q151 642 136 627 Q121 612 101 612 Q80 612 65 627 Q50 642 50 663 Z M233 663 Q233 684 248 699 Q263 714 284 714 Q304 714 319 699 Q334 684 334 663 Q334 642 319 627 Q304 612 284 612 Q263 612 248 627 Q233 642 233 663 Z " />
<glyph glyph-name="copyright" unicode="&#xa9;" horiz-adv-x="806" d="M30 362 Q30 440 59.5 508 Q89 576 139.5 626.5 Q190 677 257.5 706.5 Q325 736 402 736 Q480 736 548 706.5 Q616 677 666.5 626.5 Q717 576 746.5 508 Q776 440 776 362 Q776 285 746.5 217.5 Q717 150 666.5 99.5 Q616 49 548 19.5 Q480 -10 402 -10 Q325 -10 257.5 19.5 Q190 49 139.5 99.5 Q89 150 59.5 217.5 Q30 285 30 362 Z M76 362 Q76 295 102 235.5 Q128 176 172 132 Q216 88 275.5 62 Q335 36 402 36 Q470 36 530 62 Q590 88 634.5 132 Q679 176 704.5 235.5 Q730 295 730 362 Q730 430 704.5 490 Q679 550 634.5 594.5 Q590 639 530 664.5 Q470 690 402 690 Q335 690 275.5 664.5 Q216 639 172 594.5 Q128 550 102 490 Q76 430 76 362 Z M261 364 Q261 334 272.5 307.5 Q284 281 303.5 261 Q323 241 349.5 229.5 Q376 218 406 218 Q447 218 474 234.5 Q501 251 523 274 L555 245 Q529 213 490.5 194 Q452 175 407 175 Q367 175 332.5 190 Q298 205 272 230.5 Q246 256 231 290.5 Q216 325 216 364 Q216 404 231 439 Q246 474 272 499.5 Q298 525 332.5 539.5 Q367 554 407 554 Q452 554 490.5 534.5 Q529 515 555 483 L523 456 Q501 479 474 495 Q447 511 406 511 Q376 511 349.5 499.5 Q323 488 303.5 468 Q284 448 272.5 421.5 Q261 395 261 364 Z " />
<glyph glyph-name="macron" unicode="&#xaf;" horiz-adv-x="391" d="M341 613 L50 613 L50 654 L341 654 L341 613 Z " />
<glyph glyph-name="degree" unicode="&#xb0;" horiz-adv-x="316" d="M50 626 Q50 648 58.5 668 Q67 688 81.5 702.5 Q96 717 115.5 725.5 Q135 734 158 734 Q180 734 200 725.5 Q220 717 234.5 702.5 Q249 688 257.5 668 Q266 648 266 626 Q266 603 257.5 583.5 Q249 564 234.5 549.5 Q220 535 200 526.5 Q180 518 158 518 Q135 518 115.5 526.5 Q96 535 81.5 549.5 Q67 564 58.5 583.5 Q50 603 50 626 Z M95 626 Q95 600 113.5 581.5 Q132 563 158 563 Q184 563 202 581.5 Q220 600 220 626 Q220 652 202 670 Q184 688 158 688 Q132 688 113.5 670 Q95 652 95 626 Z " />
<glyph glyph-name="acute" unicode="&#xb4;" horiz-adv-x="273" d="M70 571 L50 591 L167 732 Q176 743 190 743.5 Q204 744 214 735 Q223 725 222.5 711 Q222 697 211 688 L70 571 Z " />
<glyph glyph-name="cedilla" unicode="&#xb8;" horiz-adv-x="265" d="M100 64 L136 64 L136 -2 Q167 -7 191 -32.5 Q215 -58 215 -96 Q215 -138 186.5 -165 Q158 -192 118 -192 Q98 -192 81 -184.5 Q64 -177 50 -164 L76 -139 Q84 -146 95 -150.5 Q106 -155 118 -155 Q142 -155 159.5 -138.5 Q177 -122 177 -96 Q177 -70 160 -53.5 Q143 -37 117 -37 Q103 -37 93 -41.5 Q83 -46 75 -53 L50 -28 Q58 -19 71 -11.5 Q84 -4 100 -2 L100 64 Z " />
<glyph glyph-name="multiply" unicode="&#xd7;" horiz-adv-x="457" d="M50 393 L92 435 L228 299 L364 435 L407 391 L271 255 L407 120 L365 78 L229 213 L93 78 L50 121 L186 257 L50 393 Z " />
<glyph glyph-name="germandbls" unicode="&#xdf;" horiz-adv-x="665" d="M491 375 Q551 356 588 309.5 Q625 263 625 203 Q625 164 611 127.5 Q597 91 567 62.5 Q537 34 490 17 Q443 0 377 0 L316 0 L316 54 L378 54 Q426 54 461 66 Q496 78 519.5 98.5 Q543 119 554 146 Q565 173 565 202 Q565 228 554 253.5 Q543 279 520.5 299.5 Q498 320 465 333 Q432 346 387 346 L315 346 L315 398 L386 398 Q421 398 449.5 409.5 Q478 421 498.5 440.5 Q519 460 530 487 Q541 514 541 544 Q541 574 530 604 Q519 634 496 658 Q473 682 436 697 Q399 712 348 712 Q301 712 263.5 696.5 Q226 681 199.5 652.5 Q173 624 159 583.5 Q145 543 145 494 L145 0 L83 0 L83 494 Q83 557 102.5 608 Q122 659 157.5 694.5 Q193 730 241 749 Q289 768 346 768 Q410 768 458 748.5 Q506 729 537.5 697.5 Q569 666 584.5 626.5 Q600 587 600 547 Q600 488 570 443 Q540 398 491 375 Z " />
<glyph glyph-name="divide" unicode="&#xf7;" horiz-adv-x="542" d="M50 228 L50 284 L492 284 L492 228 L50 228 Z M223 55 Q223 75 237 89 Q251 103 271 103 Q291 103 305 89 Q319 75 319 55 Q319 35 305 21 Q291 7 271 7 Q251 7 237 21 Q223 35 223 55 Z M223 456 Q223 476 237 490 Q251 504 271 504 Q291 504 305 490 Q319 476 319 456 Q319 436 305 422 Q291 408 271 408 Q251 408 237 422 Q223 436 223 456 Z " />
<glyph glyph-name="circumflex" unicode="&#x2c6;" horiz-adv-x="372" d="M184 672 L77 564 L50 591 L186 727 L322 591 L294 564 L184 672 Z " />
<glyph glyph-name="caron" unicode="&#x2c7;" horiz-adv-x="372" d="M188 618 L294 727 L322 700 L186 564 L50 700 L77 727 L188 618 Z " />
<glyph glyph-name="breve" unicode="&#x2d8;" horiz-adv-x="334" d="M50 696 L92 696 L92 679 Q92 647 113.5 625.5 Q135 604 167 604 Q199 604 220.5 625.5 Q242 647 242 679 L242 696 L284 696 L284 681 Q284 657 275 635.5 Q266 614 250 598 Q234 582 212.5 573 Q191 564 167 564 Q143 564 121.5 573 Q100 582 84 598 Q68 614 59 635.5 Q50 657 50 681 L50 696 Z " />
<glyph glyph-name="dotaccent" unicode="&#x2d9;" horiz-adv-x="201" d="M50 663 Q50 684 65 699 Q80 714 101 714 Q121 714 136 699 Q151 684 151 663 Q151 642 136 627 Q121 612 101 612 Q80 612 65 627 Q50 642 50 663 Z " />
<glyph glyph-name="ring" unicode="&#x2da;" horiz-adv-x="292" d="M50 672 Q50 712 78 740 Q106 768 146 768 Q186 768 214 740 Q242 712 242 672 Q242 632 214 604 Q186 576 146 576 Q106 576 78 604 Q50 632 50 672 Z M87 672 Q87 647 104 630 Q121 613 146 613 Q171 613 188 630 Q205 647 205 672 Q205 697 188 714 Q171 731 146 731 Q121 731 104 714 Q87 697 87 672 Z " />
<glyph glyph-name="ogonek" unicode="&#x2db;" horiz-adv-x="322" d="M50 -77 Q50 -53 59 -32 Q68 -11 83 4.5 Q98 20 118 29 Q138 38 161 38 L161 0 Q130 0 108.5 -22.5 Q87 -45 87 -77 Q87 -109 108.5 -131.5 Q130 -154 161 -154 Q191 -154 213 -131.5 Q235 -109 235 -77 L272 -77 Q272 -101 263 -122 Q254 -143 239 -158.5 Q224 -174 204 -183 Q184 -192 161 -192 Q138 -192 118 -183 Q98 -174 83 -158.5 Q68 -143 59 -122 Q50 -101 50 -77 Z " />
<glyph glyph-name="tilde" unicode="&#x2dc;" horiz-adv-x="400" d="M266 708 Q304 708 327.5 682 Q351 656 349 616 L312 616 Q312 643 299 657 Q286 671 266 671 Q248 671 234.5 659.5 Q221 648 207 633.5 Q193 619 176.5 607.5 Q160 596 135 596 Q96 596 73 622 Q50 648 51 688 L89 688 Q89 633 135 633 Q152 633 165 644.5 Q178 656 192 670.5 Q206 685 223.5 696.5 Q241 708 266 708 Z " />
<glyph glyph-name="endash" unicode="&#x2013;" horiz-adv-x="1124" d="M50 228 L50 284 L1074 284 L1074 228 L50 228 Z " />
<glyph glyph-name="emdash" unicode="&#x2014;" horiz-adv-x="1636" d="M50 284 L1586 284 L1586 228 L50 228 L50 284 Z " />
<glyph glyph-name="quotesinglbase" unicode="&#x201a;" horiz-adv-x="167" d="M37 16 L78 103 Q61 107 49 120.5 Q37 134 37 153 Q37 174 51.5 189 Q66 204 87 204 Q101 204 112 197 Q123 190 129.5 179 Q136 168 136.5 154 Q137 140 130 127 L71 0 L37 16 Z " />
<glyph glyph-name="quotedblleft" unicode="&#x201c;" horiz-adv-x="333" d="M296 720 L255 633 Q272 629 284 615 Q296 601 296 583 Q296 562 281.5 547 Q267 532 246 532 Q232 532 221 539 Q210 546 203.5 557 Q197 568 196.5 581.5 Q196 595 203 609 L262 736 L296 720 Z M130 720 L89 633 Q106 629 118 615 Q130 601 130 583 Q130 562 115.5 547 Q101 532 80 532 Q66 532 55 539 Q44 546 38 557 Q32 568 31 581.5 Q30 595 37 609 L96 736 L130 720 Z " />
<glyph glyph-name="quotedblbase" unicode="&#x201e;" horiz-adv-x="333" d="M37 16 L78 103 Q61 107 49 120.5 Q37 134 37 153 Q37 174 51.5 189 Q66 204 87 204 Q101 204 112 197 Q123 190 129.5 179 Q136 168 136.5 154 Q137 140 130 127 L71 0 L37 16 Z M203 16 L244 103 Q226 107 214.5 120.5 Q203 134 203 153 Q203 174 217.5 189 Q232 204 253 204 Q267 204 278 197 Q289 190 295 179 Q301 168 302 154 Q303 140 296 127 L236 0 L203 16 Z " />
<glyph glyph-name="bullet" unicode="&#x2022;" horiz-adv-x="201" d="M50 256 Q50 277 65 292 Q80 307 101 307 Q121 307 136 292 Q151 277 151 256 Q151 235 136 220 Q121 205 101 205 Q80 205 65 220 Q50 235 50 256 Z " />
<glyph glyph-name="minus" unicode="&#x2212;" horiz-adv-x="543" d="M50 228 L50 284 L493 284 L493 228 L50 228 Z " />
<glyph glyph-name="commaaccent" unicode="&#xf6c3;" horiz-adv-x="188" d="M54 -222 L90 -146 Q76 -143 66.5 -131.5 Q57 -120 57 -105 Q57 -88 68.5 -76 Q80 -64 97 -64 Q109 -64 118 -69.5 Q127 -75 132 -84 Q137 -93 137.5 -104 Q138 -115 133 -126 L82 -235 L54 -222 Z " />
<glyph glyph-name="longs" unicode="&#x17f;" horiz-adv-x="426" d="M417 637 Q417 659 409.5 679.5 Q402 700 388 715.5 Q374 731 354.5 740 Q335 749 310 749 Q263 749 232.5 720 Q202 691 202 637 L202 0 L143 0 L143 458 L46 458 L46 512 L143 512 L143 637 Q143 677 156.5 709 Q170 741 193 763 Q216 785 246 796.5 Q276 808 310 808 Q346 808 376.5 794 Q407 780 429.5 756.5 Q452 733 464.5 702 Q477 671 477 637 L417 637 Z " />
<glyph glyph-name="hungarumlaut" unicode="&#x2dd;" horiz-adv-x="446" d="M70 571 L50 591 L167 732 Q176 743 190 743.5 Q204 744 214 735 Q223 725 222.5 711 Q222 697 211 688 L70 571 Z M243 571 L223 591 L340 732 Q349 743 363 743.5 Q377 744 387 735 Q396 725 395.5 711 Q395 697 384 688 L243 571 Z " />
<glyph glyph-name="grave" unicode="&#x60;" horiz-adv-x="273" d="M63 688 Q52 697 51 711 Q50 725 59 735 Q69 744 83.5 743.5 Q98 743 106 732 L223 591 L204 571 L63 688 Z " />
<glyph glyph-name="AE" unicode="&#xc6;" horiz-adv-x="807" d="M761 681 L424 681 L424 399 L761 399 L761 345 L424 345 L424 54 L761 54 L761 0 L360 0 L360 163 L148 163 Q140 145 131.5 124.5 Q123 104 114.5 82.5 Q106 61 97.5 39.5 Q89 18 82 0 L17 1 L313 736 L761 735 L761 681 Z M360 217 L360 681 L352 681 L168 217 L360 217 Z " />
<glyph glyph-name="OE" unicode="&#x152;" horiz-adv-x="985" d="M52 368 Q52 447 81.5 516.5 Q111 586 162.5 637.5 Q214 689 283.5 718.5 Q353 748 432 748 Q458 748 483.5 744.5 Q509 741 534 735 L939 735 L939 681 L595 681 L595 399 L939 399 L939 345 L595 345 L595 54 L939 54 L939 0 L534 0 Q509 -5 482 -8.5 Q455 -12 432 -12 Q353 -12 283.5 18 Q214 48 162.5 99.5 Q111 151 81.5 220 Q52 289 52 368 Z M432 688 Q366 688 308 663 Q250 638 207.5 594.5 Q165 551 140 492.5 Q115 434 115 368 Q115 302 140 243.5 Q165 185 207.5 141.5 Q250 98 308 73 Q366 48 432 48 Q452 48 479 51.5 Q506 55 529 63 L529 673 Q506 681 481 684.5 Q456 688 432 688 Z " />
<glyph glyph-name="eth" unicode="&#xf0;" horiz-adv-x="648" d="M583 245 Q583 192 563 145.5 Q543 99 508 64 Q473 29 426.5 9 Q380 -11 327 -11 Q274 -11 227.5 9 Q181 29 146 64 Q111 99 91 145.5 Q71 192 71 245 Q71 297 89 340 Q107 383 138 415 Q169 447 210 466 Q251 485 297 488 Q329 490 362 484 Q395 478 427 463 L342 607 L208 572 L198 609 L322 642 L253 760 L317 760 L378 657 L501 690 L511 653 L399 623 L532 398 Q553 363 568 325.5 Q583 288 583 245 Z M130 245 Q130 205 145.5 169.5 Q161 134 188 107 Q215 80 250.5 64.5 Q286 49 327 49 Q368 49 404 64.5 Q440 80 466.5 107 Q493 134 508.5 169.5 Q524 205 524 245 Q524 288 507.5 324 Q491 360 463 385.5 Q435 411 398.5 425 Q362 439 322 439 Q281 439 246 424 Q211 409 185 382.5 Q159 356 144.5 320.5 Q130 285 130 245 Z " />
<glyph glyph-name="quotedblright" unicode="&#x201d;" horiz-adv-x="333" d="M37 548 L78 635 Q61 639 49 652.5 Q37 666 37 685 Q37 706 51.5 721 Q66 736 87 736 Q101 736 112 729 Q123 722 129.5 711 Q136 700 136.5 686 Q137 672 130 659 L71 532 L37 548 Z M203 548 L244 635 Q226 639 214.5 652.5 Q203 666 203 685 Q203 706 217.5 721 Q232 736 253 736 Q267 736 278 729 Q289 722 295 711 Q301 700 302 686 Q303 672 296 659 L236 532 L203 548 Z " />
<glyph glyph-name="quoteright" unicode="&#x2019;" horiz-adv-x="167" d="M37 548 L78 635 Q61 639 49 652.5 Q37 666 37 685 Q37 706 51.5 721 Q66 736 87 736 Q101 736 112 729 Q123 722 129.5 711 Q136 700 136.5 686 Q137 672 130 659 L71 532 L37 548 Z " />
<glyph glyph-name="quoteleft" unicode="&#x2018;" horiz-adv-x="167" d="M130 720 L89 633 Q106 629 118 615 Q130 601 130 583 Q130 562 115.5 547 Q101 532 80 532 Q66 532 55 539 Q44 546 38 557 Q32 568 31 581.5 Q30 595 37 609 L96 736 L130 720 Z " />
<glyph glyph-name="questiondown" unicode="&#xbf;" horiz-adv-x="582" d="M348 461 L291 461 Q249 461 212.5 445.5 Q176 430 149 403 Q122 376 106.5 339.5 Q91 303 91 261 Q91 219 106.5 182.5 Q122 146 149 119 Q176 92 212.5 76.5 Q249 61 291 61 Q333 61 369.5 76.5 Q406 92 433 119 Q460 146 475.5 182.5 Q491 219 491 261 L552 261 Q552 207 531.5 159 Q511 111 476 76 Q441 41 393 20.5 Q345 0 291 0 Q237 0 189 20.5 Q141 41 106 76 Q71 111 50.5 159 Q30 207 30 261 Q30 315 50.5 363 Q71 411 106 446 Q141 481 189 501.5 Q237 522 291 522 L348 522 L348 461 Z M338 717 Q338 697 323.5 682 Q309 667 288 667 Q267 667 252 682 Q237 697 237 717 Q237 738 252 753 Q267 768 288 768 Q309 768 323.5 753 Q338 738 338 717 Z " />
<glyph glyph-name="exclamdown" unicode="&#xa1;" horiz-adv-x="344" d="M223 717 Q223 697 208 682 Q193 667 172 667 Q151 667 136 682 Q121 697 121 717 Q121 738 136 753 Q151 768 172 768 Q193 768 208 753 Q223 738 223 717 Z M202 529 L202 0 L142 0 L142 529 L202 529 Z " />
<glyph glyph-name="greater" unicode="&#x3e;" horiz-adv-x="424" d="M374 256 L118 0 L54 0 L50 11 L295 256 L50 501 L54 512 L118 512 L374 256 Z " />
<glyph glyph-name="guillemotleft" unicode="&#xab;" horiz-adv-x="694" d="M306 512 L370 512 L374 501 L129 256 L374 11 L370 0 L306 0 L50 256 L306 512 Z M576 512 L640 512 L644 501 L399 256 L644 11 L640 0 L576 0 L320 256 L576 512 Z " />
<glyph glyph-name="guilsinglleft" unicode="&#x2039;" horiz-adv-x="424" d="M306 512 L370 512 L374 501 L129 256 L374 11 L370 0 L306 0 L50 256 L306 512 Z " />
<glyph glyph-name="guilsinglright" unicode="&#x203a;" horiz-adv-x="424" d="M374 256 L118 0 L54 0 L50 11 L295 256 L50 501 L54 512 L118 512 L374 256 Z " />
<glyph glyph-name="estimated" unicode="&#x212e;" horiz-adv-x="602" d="M43 256 Q43 311 63.5 359.5 Q84 408 120 444 Q156 480 204.5 500.5 Q253 521 308 521 Q363 521 411.5 500.5 Q460 480 496 444 Q532 408 552.5 359.5 Q573 311 573 256 L207 256 L207 65 Q229 48 255 41 Q281 34 308 34 Q374 34 420 61.5 Q466 89 495 135 L544 135 Q512 69 449 30 Q386 -9 308 -9 Q253 -9 204.5 11.5 Q156 32 120 68 Q84 104 63.5 152.5 Q43 201 43 256 Z M207 295 L406 295 L406 447 Q384 463 359 470.5 Q334 478 308 478 Q281 478 255 470 Q229 462 207 445 L207 295 Z " />
<glyph glyph-name="backslash" unicode="&#x5c;" horiz-adv-x="265" d="M30 742 L222 -26 L162 -26 L-30 742 L30 742 Z " />
<glyph glyph-name="partialdiff" unicode="&#x2202;" horiz-adv-x="636" d="M636 242 Q636 189 616 142.5 Q596 96 561 61 Q526 26 479.5 6 Q433 -14 380 -14 Q327 -14 280.5 6 Q234 26 199 61 Q164 96 144 142.5 Q124 189 124 242 Q124 294 142 337 Q160 380 191 412 Q222 444 263 463 Q304 482 350 485 Q382 487 415 481 Q448 475 480 460 L306 754 L370 754 L585 395 Q606 360 621 322.5 Q636 285 636 242 Z M184 242 Q184 201 199.5 165.5 Q215 130 241.5 103 Q268 76 303.5 60.5 Q339 45 380 45 Q421 45 457 60.5 Q493 76 519.5 103 Q546 130 561.5 165.5 Q577 201 577 242 Q577 285 560.5 320.5 Q544 356 516 381.5 Q488 407 451.5 421.5 Q415 436 375 436 Q334 436 299 421 Q264 406 238.5 379.5 Q213 353 198.5 317.5 Q184 282 184 242 Z " />
<glyph glyph-name="braceleft" unicode="&#x7b;" horiz-adv-x="574" d="M342 -128 Q297 -128 258 -111 Q219 -94 190.5 -65 Q162 -36 146 4 Q130 44 130 89 L130 194 Q130 227 120 256.5 Q110 286 92 307.5 Q74 329 49.5 342 Q25 355 -3 355 L-5 355 L-5 413 L-3 413 Q57 417 93.5 456 Q130 495 130 568 L130 679 Q130 724 146 764 Q162 804 190.5 833 Q219 862 258 879 Q297 896 342 896 L342 837 Q310 837 282 825 Q254 813 233.5 792.5 Q213 772 201 744 Q189 716 189 684 L189 568 Q189 508 163.5 457.5 Q138 407 81 384 Q110 370 130.5 348 Q151 326 164 300.5 Q177 275 183 247 Q189 219 189 194 L189 84 Q189 52 201 24 Q213 -4 233.5 -24.5 Q254 -45 282 -57 Q310 -69 342 -69 L342 -128 Z " />
<glyph glyph-name="braceright" unicode="&#x7d;" horiz-adv-x="574" d="M-5 -69 Q27 -69 55 -57 Q83 -45 103.5 -24.5 Q124 -4 136 24 Q148 52 148 84 L148 194 Q148 219 154 247 Q160 275 173 300.5 Q186 326 206.5 348 Q227 370 256 384 Q199 407 173.5 457.5 Q148 508 148 568 L148 684 Q148 716 136 744 Q124 772 103.5 792.5 Q83 813 55 825 Q27 837 -5 837 L-5 896 Q40 896 78.5 879 Q117 862 145.5 833 Q174 804 190.5 764 Q207 724 207 679 L207 568 Q207 495 243.5 456 Q280 417 340 413 L342 413 L342 355 L340 355 Q312 355 288 342 Q264 329 246 307.5 Q228 286 217.5 256.5 Q207 227 207 194 L207 89 Q207 44 190.5 4 Q174 -36 145.5 -65 Q117 -94 78.5 -111 Q40 -128 -5 -128 L-5 -69 Z " />
<glyph glyph-name="perthousand" unicode="&#x2030;" horiz-adv-x="804" d="M493 678 L115 90 L50 90 L428 678 L493 678 Z M371 141 Q371 161 386 176 Q401 191 422 191 Q443 191 457.5 176 Q472 161 472 141 Q472 120 457.5 105 Q443 90 422 90 Q401 90 386 105 Q371 120 371 141 Z M53 627 Q53 648 68 663 Q83 678 104 678 Q125 678 139.5 663 Q154 648 154 627 Q154 607 139.5 592 Q125 577 104 577 Q83 577 68 592 Q53 607 53 627 Z M531 141 Q531 161 546 176 Q561 191 582 191 Q603 191 617.5 176 Q632 161 632 141 Q632 120 617.5 105 Q603 90 582 90 Q561 90 546 105 Q531 120 531 141 Z " />
<glyph glyph-name="registered" unicode="&#xae;" horiz-adv-x="806" d="M30 362 Q30 440 59.5 508 Q89 576 139.5 626.5 Q190 677 257.5 706.5 Q325 736 402 736 Q480 736 548 706.5 Q616 677 666.5 626.5 Q717 576 746.5 508 Q776 440 776 362 Q776 285 746.5 217.5 Q717 150 666.5 99.5 Q616 49 548 19.5 Q480 -10 402 -10 Q325 -10 257.5 19.5 Q190 49 139.5 99.5 Q89 150 59.5 217.5 Q30 285 30 362 Z M76 362 Q76 295 102 235.5 Q128 176 172 132 Q216 88 275.5 62 Q335 36 402 36 Q470 36 530 62 Q590 88 634.5 132 Q679 176 704.5 235.5 Q730 295 730 362 Q730 430 704.5 490 Q679 550 634.5 594.5 Q590 639 530 664.5 Q470 690 402 690 Q335 690 275.5 664.5 Q216 639 172 594.5 Q128 550 102 490 Q76 430 76 362 Z M318 188 L277 188 L277 548 L426 548 Q450 548 470.5 539 Q491 530 506 515 Q521 500 530 479.5 Q539 459 539 435 Q539 397 518 368.5 Q497 340 462 328 L535 188 L491 188 L420 322 L318 322 L318 188 Z M419 357 Q454 357 477.5 380 Q501 403 501 435 Q501 467 478 489.5 Q455 512 423 512 L318 512 L318 357 L419 357 Z " />
<glyph glyph-name="exclam" unicode="&#x21;" horiz-adv-x="344" d="M121 51 Q121 71 136 86 Q151 101 172 101 Q193 101 208 86 Q223 71 223 51 Q223 30 208 15 Q193 0 172 0 Q151 0 136 15 Q121 30 121 51 Z M142 239 L142 768 L202 768 L202 239 L142 239 Z " />
<glyph glyph-name="asciitilde" unicode="&#x7e;" horiz-adv-x="571" d="M379 336 Q407 336 430.5 325.5 Q454 315 470.5 296 Q487 277 496 251.5 Q505 226 504 196 L454 196 Q454 240 433.5 263.5 Q413 287 379 287 Q350 287 329.5 268 Q309 249 288 226.5 Q267 204 241.5 185 Q216 166 179 166 Q150 166 126 176.5 Q102 187 85.5 205.5 Q69 224 60.5 250 Q52 276 53 306 L103 306 Q103 215 179 215 Q205 215 225.5 234 Q246 253 267.5 275.5 Q289 298 315 317 Q341 336 379 336 Z " />
<glyph glyph-name="dagger" unicode="&#x2020;" horiz-adv-x="537" d="M50 548 L50 604 L238 604 L238 832 L300 832 L300 604 L487 604 L487 548 L300 548 L300 -128 L238 -128 L238 548 L50 548 Z " />
<glyph glyph-name="brokenbar" unicode="&#xa6;" horiz-adv-x="249" d="M95 320 L154 320 L154 -128 L95 -128 L95 320 Z M154 448 L95 448 L95 896 L154 896 L154 448 Z " />
<glyph glyph-name="trademark" unicode="&#x2122;" horiz-adv-x="536" d="M163 768 L188 768 L235 708 L282 768 L307 768 L307 652 L282 652 L282 731 L235 670 L188 731 L188 652 L163 652 L163 768 Z M43 768 L144 768 L144 744 L106 744 L106 652 L81 652 L81 744 L43 744 L43 768 Z " />
<glyph glyph-name="Euro" unicode="&#x20ac;" horiz-adv-x="730" d="M-36 436 L-36 493 L71 493 Q90 548 124 594.5 Q158 641 204 674.5 Q250 708 307 727 Q364 746 428 746 Q509 746 576.5 716.5 Q644 687 695 636 L655 594 Q611 637 553.5 662 Q496 687 430 687 Q380 687 334.5 673 Q289 659 251.5 633.5 Q214 608 185.5 572 Q157 536 141 493 L411 493 L411 436 L119 436 Q112 405 112 367 Q112 331 119 300 L411 300 L411 244 L140 244 Q156 200 185 164 Q214 128 252 102 Q290 76 335.5 61.5 Q381 47 430 47 Q497 47 553 72.5 Q609 98 655 141 L695 99 Q644 48 576 18.5 Q508 -11 428 -11 Q365 -11 308 7.5 Q251 26 204.5 60 Q158 94 124 141 Q90 188 71 244 L-36 244 L-36 300 L56 300 Q50 333 50 367 Q50 405 57 436 L-36 436 Z " />
<glyph glyph-name="kgreenlandic" unicode="&#x138;" horiz-adv-x="553" d="M146 253 L277 253 Q311 253 341 265.5 Q371 278 393 300 Q415 322 427.5 351.5 Q440 381 440 416 L440 512 L499 512 L499 416 Q499 383 488.5 350.5 Q478 318 459.5 291 Q441 264 414 243 Q387 222 354 211 L510 0 L442 0 L294 197 L146 197 L146 0 L87 0 L87 512 L146 512 L146 253 Z " />
<glyph glyph-name="threequartersemdash" unicode="&#xf6de;" horiz-adv-x="1636" d="M50 284 L1586 284 L1586 228 L50 228 L50 284 Z " />
<glyph glyph-name="lira" unicode="&#x20a4;" horiz-adv-x="570" d="M51 278 L147 278 L147 416 L51 416 L51 470 L147 470 L147 576 Q147 616 162 651 Q177 686 203 712 Q229 738 264 753 Q299 768 339 768 Q380 768 415.5 753 Q451 738 476.5 712 Q502 686 516.5 651 Q531 616 531 576 L475 576 Q475 605 464.5 629.5 Q454 654 436 672 Q418 690 393 700.5 Q368 711 339 711 Q312 711 288 700.5 Q264 690 246 672 Q228 654 217.5 630 Q207 606 207 579 L207 470 L531 470 L531 416 L207 416 L207 278 L531 278 L531 225 L207 225 L207 54 L531 54 L531 0 L147 0 L147 225 L51 225 L51 278 Z " />
<glyph glyph-name="yen" unicode="&#xa5;" horiz-adv-x="593" d="M69 234 L69 290 L231 290 L18 735 L83 735 L295 292 L507 735 L571 735 L359 290 L525 290 L525 234 L325 234 L325 156 L525 156 L525 99 L325 99 L325 0 L265 0 L265 99 L69 99 L69 156 L265 156 L265 234 L69 234 Z " />
<glyph glyph-name="ae" unicode="&#xe6;" horiz-adv-x="968" d="M925 254 Q925 249 924.5 241.5 Q924 234 923 229 L481 229 Q481 188 498 154 Q515 120 542.5 96 Q570 72 605.5 58.5 Q641 45 677 45 Q724 45 760.5 59.5 Q797 74 825 97 L865 60 Q828 27 781 8.5 Q734 -10 676 -10 Q642 -10 607.5 0 Q573 10 542.5 29 Q512 48 487.5 76 Q463 104 448 141 Q422 69 362.5 30 Q303 -9 229 -9 Q187 -9 153 2.5 Q119 14 95 34.5 Q71 55 58 82.5 Q45 110 45 142 Q45 169 56 194 Q67 219 90.5 237.5 Q114 256 149.5 267 Q185 278 234 278 L422 278 L422 300 Q422 330 413 359 Q404 388 385.5 410.5 Q367 433 338.5 447 Q310 461 270 461 Q229 461 197 446 Q165 431 139 405 L101 442 Q133 475 177.5 495 Q222 515 270 515 Q343 515 390.5 478 Q438 441 458 386 Q471 414 492 439 Q513 464 540.5 482 Q568 500 601 510.5 Q634 521 672 521 Q730 521 777 499 Q824 477 857 440.5 Q890 404 907.5 355.5 Q925 307 925 254 Z M672 468 Q629 468 594 453 Q559 438 534 412.5 Q509 387 495 352 Q481 317 481 278 L864 278 Q864 315 850 349.5 Q836 384 811 410 Q786 436 750.5 452 Q715 468 672 468 Z M105 142 Q105 98 140.5 70 Q176 42 233 42 Q268 42 302 54 Q336 66 362.5 90 Q389 114 405.5 149 Q422 184 422 230 L234 230 Q167 230 136 204.5 Q105 179 105 142 Z " />
<glyph glyph-name="oe" unicode="&#x153;" horiz-adv-x="1071" d="M53 256 Q53 311 73.5 358.5 Q94 406 129.5 441.5 Q165 477 213 497.5 Q261 518 316 518 Q354 518 389.5 507 Q425 496 455.5 475.5 Q486 455 509.5 426 Q533 397 547 361 Q575 436 633 478.5 Q691 521 772 521 Q831 521 878 499 Q925 477 958 440.5 Q991 404 1008.5 355.5 Q1026 307 1026 254 Q1026 249 1025.5 241.5 Q1025 234 1024 229 L582 229 Q582 192 597.5 158.5 Q613 125 640 100 Q667 75 702.5 60 Q738 45 778 45 Q825 45 861 59.5 Q897 74 926 97 L965 60 Q929 27 882 8.5 Q835 -10 777 -10 Q742 -10 707 0 Q672 10 641.5 29.5 Q611 49 586 79 Q561 109 546 150 Q516 77 454 35 Q392 -7 316 -7 Q261 -7 213 13.5 Q165 34 129.5 69.5 Q94 105 73.5 153 Q53 201 53 256 Z M112 256 Q112 214 128.5 177 Q145 140 172.5 112.5 Q200 85 237 68.5 Q274 52 316 52 Q358 52 395 68.5 Q432 85 459.5 112.5 Q487 140 503.5 177 Q520 214 520 256 Q520 298 503.5 335 Q487 372 459.5 399.5 Q432 427 395 443.5 Q358 460 316 460 Q274 460 237 443.5 Q200 427 172.5 399.5 Q145 372 128.5 335 Q112 298 112 256 Z M773 468 Q730 468 695 453 Q660 438 635 412.5 Q610 387 596 352 Q582 317 582 278 L965 278 Q965 315 951 349.5 Q937 384 912 410 Q887 436 851.5 452 Q816 468 773 468 Z " />
<glyph glyph-name="Oslash" unicode="&#xd8;" horiz-adv-x="857" d="M48 368 Q48 446 78 515.5 Q108 585 159.5 636.5 Q211 688 280.5 718 Q350 748 428 748 Q499 748 561.5 723.5 Q624 699 674 657 L738 720 L780 679 L716 615 Q759 565 784 502 Q809 439 809 368 Q809 290 779 220.5 Q749 151 697 99.5 Q645 48 576 18 Q507 -12 428 -12 Q357 -12 294 12.5 Q231 37 181 80 L118 17 L77 59 L139 122 Q97 172 72.5 234.5 Q48 297 48 368 Z M428 51 Q494 51 551.5 76 Q609 101 652 144 Q695 187 720 245 Q745 303 745 368 Q745 426 725 477 Q705 528 670 570 L227 126 Q267 91 318.5 71 Q370 51 428 51 Z M111 368 Q111 310 130.5 259 Q150 208 185 167 L628 611 Q587 646 536 665.5 Q485 685 428 685 Q363 685 305 660 Q247 635 204 592 Q161 549 136 491 Q111 433 111 368 Z " />
<glyph glyph-name="oslash" unicode="&#xf8;" horiz-adv-x="625" d="M50 256 Q50 311 70.5 358.5 Q91 406 126.5 441.5 Q162 477 210 497.5 Q258 518 312 518 Q360 518 403 502 Q446 486 480 458 L520 499 L555 464 L515 423 Q543 389 559 346.5 Q575 304 575 256 Q575 201 554.5 153 Q534 105 498.5 69.5 Q463 34 415 13.5 Q367 -7 312 -7 Q264 -7 221.5 9 Q179 25 145 54 L105 13 L70 48 L110 89 Q81 123 65.5 165.5 Q50 208 50 256 Z M312 52 Q354 52 391 68 Q428 84 456 111.5 Q484 139 500 176.5 Q516 214 516 256 Q516 291 504 322.5 Q492 354 471 380 L188 97 Q214 76 245.5 64 Q277 52 312 52 Z M109 256 Q109 185 153 132 L437 415 Q411 436 379 448 Q347 460 312 460 Q270 460 233.5 444 Q197 428 169 400 Q141 372 125 335 Q109 298 109 256 Z " />
<glyph glyph-name="ellipsis" unicode="&#x2026;" horiz-adv-x="822" d="M86 51 Q86 71 101 86 Q116 101 137 101 Q158 101 173 86 Q188 71 188 51 Q188 30 173 15 Q158 0 137 0 Q116 0 101 15 Q86 30 86 51 Z M360 51 Q360 71 375 86 Q390 101 411 101 Q432 101 447 86 Q462 71 462 51 Q462 30 447 15 Q432 0 411 0 Q390 0 375 15 Q360 30 360 51 Z M634 51 Q634 71 649 86 Q664 101 685 101 Q706 101 721 86 Q736 71 736 51 Q736 30 721 15 Q706 0 685 0 Q664 0 649 15 Q634 30 634 51 Z " />
<glyph glyph-name="guillemotright" unicode="&#xbb;" horiz-adv-x="694" d="M644 256 L388 0 L324 0 L320 11 L565 256 L320 501 L324 512 L388 512 L644 256 Z M374 256 L118 0 L54 0 L50 11 L295 256 L50 501 L54 512 L118 512 L374 256 Z " />
<glyph glyph-name="paragraph" unicode="&#xb6;" horiz-adv-x="795" d="M268 242 Q215 242 170 261 Q125 280 91.5 313.5 Q58 347 39 392 Q20 437 20 488 Q20 539 39 584 Q58 629 91.5 662.5 Q125 696 170 715.5 Q215 735 268 735 L715 735 L715 0 L651 0 L651 681 L513 681 L513 0 L451 0 L451 242 L268 242 Z M451 295 L451 681 L271 681 Q230 681 195 666.5 Q160 652 134 626.5 Q108 601 93.5 565.5 Q79 530 79 488 Q79 446 93.5 410.5 Q108 375 134 349.5 Q160 324 195 309.5 Q230 295 271 295 L451 295 Z " />
<glyph glyph-name="Aacute" unicode="&#xc1;" horiz-adv-x="692" d="M611 0 L544 163 L148 163 L81 0 L17 0 L311 735 L380 735 L675 0 L611 0 Z M346 665 L169 217 L524 217 L346 665 Z M358 794 L338 814 L455 955 Q464 966 478 966.5 Q492 967 502 958 Q511 948 510.5 934 Q510 920 499 911 L358 794 Z " />
<glyph glyph-name="Abreve" unicode="&#x102;" horiz-adv-x="692" d="M611 0 L544 163 L148 163 L81 0 L17 0 L311 735 L380 735 L675 0 L611 0 Z M346 665 L169 217 L524 217 L346 665 Z M229 919 L271 919 L271 902 Q271 870 292.5 848.5 Q314 827 346 827 Q378 827 399.5 848.5 Q421 870 421 902 L421 919 L463 919 L463 904 Q463 880 454 858.5 Q445 837 429 821 Q413 805 391.5 796 Q370 787 346 787 Q322 787 300.5 796 Q279 805 263 821 Q247 837 238 858.5 Q229 880 229 904 L229 919 Z " />
<glyph glyph-name="Acircumflex" unicode="&#xc2;" horiz-adv-x="692" d="M611 0 L544 163 L148 163 L81 0 L17 0 L311 735 L380 735 L675 0 L611 0 Z M346 665 L169 217 L524 217 L346 665 Z M344 895 L238 787 L210 814 L346 950 L482 814 L455 787 L344 895 Z " />
<glyph glyph-name="Agrave" unicode="&#xc0;" horiz-adv-x="692" d="M611 0 L544 163 L148 163 L81 0 L17 0 L311 735 L380 735 L675 0 L611 0 Z M346 665 L169 217 L524 217 L346 665 Z M194 911 Q183 920 182 934 Q181 948 190 958 Q200 967 214.5 966.5 Q229 966 237 955 L354 814 L334 794 L194 911 Z " />
<glyph glyph-name="Adieresis" unicode="&#xc4;" horiz-adv-x="692" d="M611 0 L544 163 L148 163 L81 0 L17 0 L311 735 L380 735 L675 0 L611 0 Z M346 665 L169 217 L524 217 L346 665 Z M204 886 Q204 907 219 922 Q234 937 255 937 Q275 937 290 922 Q305 907 305 886 Q305 865 290 850 Q275 835 255 835 Q234 835 219 850 Q204 865 204 886 Z M387 886 Q387 907 402 922 Q417 937 438 937 Q458 937 473 922 Q488 907 488 886 Q488 865 473 850 Q458 835 438 835 Q417 835 402 850 Q387 865 387 886 Z " />
<glyph glyph-name="Amacron" unicode="&#x100;" horiz-adv-x="692" d="M611 0 L544 163 L148 163 L81 0 L17 0 L311 735 L380 735 L675 0 L611 0 Z M346 665 L169 217 L524 217 L346 665 Z M492 836 L201 836 L201 877 L492 877 L492 836 Z " />
<glyph glyph-name="Aogonek" unicode="&#x104;" horiz-adv-x="692" d="M499 -77 Q499 -32 526.5 -0.5 Q554 31 595 36 L544 163 L148 163 L81 0 L17 0 L311 735 L380 735 L675 0 L611 0 Q580 0 558.5 -22.5 Q537 -45 537 -77 Q537 -109 558.5 -131.5 Q580 -154 611 -154 Q641 -154 662.5 -131.5 Q684 -109 684 -77 L722 -77 Q722 -101 713 -122 Q704 -143 689 -158.5 Q674 -174 654 -183 Q634 -192 611 -192 Q588 -192 567.5 -183 Q547 -174 532 -158.5 Q517 -143 508 -122 Q499 -101 499 -77 Z M346 665 L169 217 L524 217 L346 665 Z " />
<glyph glyph-name="Aring" unicode="&#xc5;" horiz-adv-x="692" d="M611 0 L544 163 L148 163 L81 0 L17 0 L311 735 L380 735 L675 0 L611 0 Z M346 665 L169 217 L524 217 L346 665 Z M250 895 Q250 935 278 963 Q306 991 346 991 Q386 991 414 963 Q442 935 442 895 Q442 855 414 827 Q386 799 346 799 Q306 799 278 827 Q250 855 250 895 Z M287 895 Q287 870 304 853 Q321 836 346 836 Q371 836 388 853 Q405 870 405 895 Q405 920 388 937 Q371 954 346 954 Q321 954 304 937 Q287 920 287 895 Z " />
<glyph glyph-name="Atilde" unicode="&#xc3;" horiz-adv-x="692" d="M611 0 L544 163 L148 163 L81 0 L17 0 L311 735 L380 735 L675 0 L611 0 Z M346 665 L169 217 L524 217 L346 665 Z M411 931 Q450 931 473 905 Q496 879 495 839 L457 839 Q457 866 444 880 Q431 894 411 894 Q393 894 379.5 882.5 Q366 871 352.5 856.5 Q339 842 322 830.5 Q305 819 280 819 Q241 819 218 845 Q195 871 196 911 L234 911 Q234 856 280 856 Q297 856 310 867.5 Q323 879 337.5 893.5 Q352 908 369 919.5 Q386 931 411 931 Z " />
<glyph glyph-name="AEacute" unicode="&#x1fc;" horiz-adv-x="807" d="M761 681 L424 681 L424 399 L761 399 L761 345 L424 345 L424 54 L761 54 L761 0 L360 0 L360 163 L148 163 Q140 145 131.5 124.5 Q123 104 114.5 82.5 Q106 61 97.5 39.5 Q89 18 82 0 L17 1 L313 736 L761 735 L761 681 Z M360 217 L360 681 L352 681 L168 217 L360 217 Z M415 794 L395 814 L512 955 Q521 966 535 966.5 Q549 967 559 958 Q568 948 567.5 934 Q567 920 556 911 L415 794 Z " />
<glyph glyph-name="Cacute" unicode="&#x106;" horiz-adv-x="730" d="M110 367 Q110 299 135 240.5 Q160 182 203.5 139 Q247 96 304.5 71.5 Q362 47 428 47 Q495 47 551.5 72.5 Q608 98 653 141 L693 99 Q642 48 574 18.5 Q506 -11 426 -11 Q346 -11 277 18.5 Q208 48 157 99 Q106 150 77 219 Q48 288 48 367 Q48 446 76.5 515 Q105 584 156 635.5 Q207 687 276 716.5 Q345 746 426 746 Q507 746 574.5 716.5 Q642 687 693 636 L653 594 Q610 637 552 662 Q494 687 428 687 Q360 687 302 662.5 Q244 638 201.5 594.5 Q159 551 134.5 492.5 Q110 434 110 367 Z M376 794 L357 814 L474 955 Q482 966 496.5 966.5 Q511 967 521 958 Q530 948 529 934 Q528 920 517 911 L376 794 Z " />
<glyph glyph-name="Ccaron" unicode="&#x10c;" horiz-adv-x="730" d="M110 367 Q110 299 135 240.5 Q160 182 203.5 139 Q247 96 304.5 71.5 Q362 47 428 47 Q495 47 551.5 72.5 Q608 98 653 141 L693 99 Q642 48 574 18.5 Q506 -11 426 -11 Q346 -11 277 18.5 Q208 48 157 99 Q106 150 77 219 Q48 288 48 367 Q48 446 76.5 515 Q105 584 156 635.5 Q207 687 276 716.5 Q345 746 426 746 Q507 746 574.5 716.5 Q642 687 693 636 L653 594 Q610 637 552 662 Q494 687 428 687 Q360 687 302 662.5 Q244 638 201.5 594.5 Q159 551 134.5 492.5 Q110 434 110 367 Z M424 841 L530 950 L558 923 L422 787 L286 923 L313 950 L424 841 Z " />
<glyph glyph-name="Ccedilla" unicode="&#xc7;" horiz-adv-x="730" d="M110 367 Q110 299 135 240.5 Q160 182 203.5 139 Q247 96 304.5 71.5 Q362 47 428 47 Q495 47 551.5 72.5 Q608 98 653 141 L693 99 Q645 50 581 21 Q517 -8 442 -11 L442 -46 Q474 -51 497.5 -76.5 Q521 -102 521 -140 Q521 -182 492.5 -209 Q464 -236 424 -236 Q404 -236 387 -228.5 Q370 -221 356 -208 L383 -183 Q391 -190 401.5 -194.5 Q412 -199 424 -199 Q448 -199 465.5 -182.5 Q483 -166 483 -140 Q483 -114 466.5 -97.5 Q450 -81 424 -81 Q410 -81 399.5 -85.5 Q389 -90 382 -97 L356 -72 Q365 -63 377.5 -55.5 Q390 -48 406 -46 L406 -10 Q330 -6 264.5 24.5 Q199 55 151 105.5 Q103 156 75.5 223 Q48 290 48 367 Q48 446 76.5 515 Q105 584 156 635.5 Q207 687 276 716.5 Q345 746 426 746 Q507 746 574.5 716.5 Q642 687 693 636 L653 594 Q610 637 552 662 Q494 687 428 687 Q360 687 302 662.5 Q244 638 201.5 594.5 Q159 551 134.5 492.5 Q110 434 110 367 Z " />
<glyph glyph-name="Ccircumflex" unicode="&#x108;" horiz-adv-x="730" d="M110 367 Q110 299 135 240.5 Q160 182 203.5 139 Q247 96 304.5 71.5 Q362 47 428 47 Q495 47 551.5 72.5 Q608 98 653 141 L693 99 Q642 48 574 18.5 Q506 -11 426 -11 Q346 -11 277 18.5 Q208 48 157 99 Q106 150 77 219 Q48 288 48 367 Q48 446 76.5 515 Q105 584 156 635.5 Q207 687 276 716.5 Q345 746 426 746 Q507 746 574.5 716.5 Q642 687 693 636 L653 594 Q610 637 552 662 Q494 687 428 687 Q360 687 302 662.5 Q244 638 201.5 594.5 Q159 551 134.5 492.5 Q110 434 110 367 Z M423 895 L316 787 L289 814 L425 950 L561 814 L533 787 L423 895 Z " />
<glyph glyph-name="Cdotaccent" unicode="&#x10a;" horiz-adv-x="730" d="M110 367 Q110 299 135 240.5 Q160 182 203.5 139 Q247 96 304.5 71.5 Q362 47 428 47 Q495 47 551.5 72.5 Q608 98 653 141 L693 99 Q642 48 574 18.5 Q506 -11 426 -11 Q346 -11 277 18.5 Q208 48 157 99 Q106 150 77 219 Q48 288 48 367 Q48 446 76.5 515 Q105 584 156 635.5 Q207 687 276 716.5 Q345 746 426 746 Q507 746 574.5 716.5 Q642 687 693 636 L653 594 Q610 637 552 662 Q494 687 428 687 Q360 687 302 662.5 Q244 638 201.5 594.5 Q159 551 134.5 492.5 Q110 434 110 367 Z M374 886 Q374 907 389 922 Q404 937 425 937 Q446 937 460.5 922 Q475 907 475 886 Q475 865 460.5 850 Q446 835 425 835 Q404 835 389 850 Q374 865 374 886 Z " />
<glyph glyph-name="Dcaron" unicode="&#x10e;" horiz-adv-x="700" d="M90 0 L90 735 L289 735 Q365 735 431.5 706 Q498 677 548 627 Q598 577 627 510.5 Q656 444 656 368 Q656 292 627 225 Q598 158 548 108 Q498 58 431.5 29 Q365 0 289 0 L90 0 Z M152 678 L152 57 L287 57 Q352 57 408 81.5 Q464 106 505.5 148 Q547 190 571 246.5 Q595 303 595 368 Q595 432 571 488.5 Q547 545 505.5 587 Q464 629 407.5 653.5 Q351 678 287 678 L152 678 Z M291 841 L398 950 L426 923 L290 787 L154 923 L181 950 L291 841 Z " />
<glyph glyph-name="Eacute" unicode="&#xc9;" horiz-adv-x="566" d="M90 735 L519 735 L519 681 L154 681 L154 398 L493 398 L493 346 L154 346 L154 54 L519 54 L519 0 L90 0 L90 735 Z M281 794 L262 814 L379 955 Q387 966 401 966.5 Q415 967 425 958 Q435 948 434 934 Q433 920 422 911 L281 794 Z " />
<glyph glyph-name="Ebreve" unicode="&#x114;" horiz-adv-x="566" d="M90 735 L519 735 L519 681 L154 681 L154 398 L493 398 L493 346 L154 346 L154 54 L519 54 L519 0 L90 0 L90 735 Z M193 919 L234 919 L234 902 Q234 870 256 848.5 Q278 827 310 827 Q342 827 363.5 848.5 Q385 870 385 902 L385 919 L427 919 L427 904 Q427 880 418 858.5 Q409 837 393 821 Q377 805 355.5 796 Q334 787 310 787 Q286 787 264.5 796 Q243 805 227 821 Q211 837 202 858.5 Q193 880 193 904 L193 919 Z " />
<glyph glyph-name="Ecaron" unicode="&#x11a;" horiz-adv-x="566" d="M90 735 L519 735 L519 681 L154 681 L154 398 L493 398 L493 346 L154 346 L154 54 L519 54 L519 0 L90 0 L90 735 Z M304 841 L411 950 L439 923 L303 787 L167 923 L194 950 L304 841 Z " />
<glyph glyph-name="Ecircumflex" unicode="&#xca;" horiz-adv-x="566" d="M90 735 L519 735 L519 681 L154 681 L154 398 L493 398 L493 346 L154 346 L154 54 L519 54 L519 0 L90 0 L90 735 Z M301 895 L194 787 L167 814 L303 950 L439 814 L411 787 L301 895 Z " />
<glyph glyph-name="Edieresis" unicode="&#xcb;" horiz-adv-x="566" d="M90 735 L519 735 L519 681 L154 681 L154 398 L493 398 L493 346 L154 346 L154 54 L519 54 L519 0 L90 0 L90 735 Z M161 886 Q161 907 175.5 922 Q190 937 211 937 Q232 937 247 922 Q262 907 262 886 Q262 865 247 850 Q232 835 211 835 Q190 835 175.5 850 Q161 865 161 886 Z M344 886 Q344 907 358.5 922 Q373 937 394 937 Q415 937 430 922 Q445 907 445 886 Q445 865 430 850 Q415 835 394 835 Q373 835 358.5 850 Q344 865 344 886 Z " />
<glyph glyph-name="Edotaccent" unicode="&#x116;" horiz-adv-x="566" d="M90 735 L519 735 L519 681 L154 681 L154 398 L493 398 L493 346 L154 346 L154 54 L519 54 L519 0 L90 0 L90 735 Z M252 886 Q252 907 267 922 Q282 937 303 937 Q323 937 338 922 Q353 907 353 886 Q353 865 338 850 Q323 835 303 835 Q282 835 267 850 Q252 865 252 886 Z " />
<glyph glyph-name="Egrave" unicode="&#xc8;" horiz-adv-x="566" d="M90 735 L519 735 L519 681 L154 681 L154 398 L493 398 L493 346 L154 346 L154 54 L519 54 L519 0 L90 0 L90 735 Z M160 911 Q149 920 148.5 934 Q148 948 157 958 Q167 967 181 966.5 Q195 966 204 955 L321 814 L301 794 L160 911 Z " />
<glyph glyph-name="Emacron" unicode="&#x112;" horiz-adv-x="566" d="M90 735 L519 735 L519 681 L154 681 L154 398 L493 398 L493 346 L154 346 L154 54 L519 54 L519 0 L90 0 L90 735 Z M445 836 L154 836 L154 877 L445 877 L445 836 Z " />
<glyph glyph-name="Eogonek" unicode="&#x118;" horiz-adv-x="566" d="M297 -77 Q297 -54 304.5 -34.5 Q312 -15 326 0 L90 0 L90 735 L519 735 L519 681 L154 681 L154 398 L493 398 L493 346 L154 346 L154 54 L406 54 L409 54 L519 54 L519 0 L408 0 Q377 0 355.5 -22.5 Q334 -45 334 -77 Q334 -109 355.5 -131.5 Q377 -154 408 -154 Q438 -154 460 -131.5 Q482 -109 482 -77 L519 -77 Q519 -101 510 -122 Q501 -143 486 -158.5 Q471 -174 451 -183 Q431 -192 408 -192 Q385 -192 365 -183 Q345 -174 330 -158.5 Q315 -143 306 -122 Q297 -101 297 -77 Z " />
<glyph glyph-name="Gbreve" unicode="&#x11e;" horiz-adv-x="849" d="M108 368 Q108 299 133.5 240 Q159 181 203 138.5 Q247 96 305.5 71.5 Q364 47 429 47 Q496 47 552 67.5 Q608 88 648.5 126 Q689 164 711.5 219 Q734 274 736 343 L462 343 L462 398 L796 398 Q797 390 797 382.5 Q797 375 797 367 Q797 274 768 203.5 Q739 133 689 85 Q639 37 572 12.5 Q505 -12 429 -12 Q347 -12 277.5 18 Q208 48 157 100 Q106 152 77 221 Q48 290 48 368 Q48 448 76.5 517 Q105 586 155.5 636.5 Q206 687 275.5 716 Q345 745 427 745 Q500 745 562.5 722 Q625 699 675 655 L636 616 Q594 651 543.5 670 Q493 689 427 689 Q358 689 300 664.5 Q242 640 199 597 Q156 554 132 495.5 Q108 437 108 368 Z M308 919 L349 919 L349 902 Q349 870 371 848.5 Q393 827 425 827 Q457 827 478.5 848.5 Q500 870 500 902 L500 919 L542 919 L542 904 Q542 880 533 858.5 Q524 837 508 821 Q492 805 470.5 796 Q449 787 425 787 Q401 787 379.5 796 Q358 805 342 821 Q326 837 317 858.5 Q308 880 308 904 L308 919 Z " />
<glyph glyph-name="Gcircumflex" unicode="&#x11c;" horiz-adv-x="849" d="M108 368 Q108 299 133.5 240 Q159 181 203 138.5 Q247 96 305.5 71.5 Q364 47 429 47 Q496 47 552 67.5 Q608 88 648.5 126 Q689 164 711.5 219 Q734 274 736 343 L462 343 L462 398 L796 398 Q797 390 797 382.5 Q797 375 797 367 Q797 274 768 203.5 Q739 133 689 85 Q639 37 572 12.5 Q505 -12 429 -12 Q347 -12 277.5 18 Q208 48 157 100 Q106 152 77 221 Q48 290 48 368 Q48 448 76.5 517 Q105 586 155.5 636.5 Q206 687 275.5 716 Q345 745 427 745 Q500 745 562.5 722 Q625 699 675 655 L636 616 Q594 651 543.5 670 Q493 689 427 689 Q358 689 300 664.5 Q242 640 199 597 Q156 554 132 495.5 Q108 437 108 368 Z M423 895 L316 787 L289 814 L425 950 L561 814 L533 787 L423 895 Z " />
<glyph glyph-name="Gdotaccent" unicode="&#x120;" horiz-adv-x="849" d="M108 368 Q108 299 133.5 240 Q159 181 203 138.5 Q247 96 305.5 71.5 Q364 47 429 47 Q496 47 552 67.5 Q608 88 648.5 126 Q689 164 711.5 219 Q734 274 736 343 L462 343 L462 398 L796 398 Q797 390 797 382.5 Q797 375 797 367 Q797 274 768 203.5 Q739 133 689 85 Q639 37 572 12.5 Q505 -12 429 -12 Q347 -12 277.5 18 Q208 48 157 100 Q106 152 77 221 Q48 290 48 368 Q48 448 76.5 517 Q105 586 155.5 636.5 Q206 687 275.5 716 Q345 745 427 745 Q500 745 562.5 722 Q625 699 675 655 L636 616 Q594 651 543.5 670 Q493 689 427 689 Q358 689 300 664.5 Q242 640 199 597 Q156 554 132 495.5 Q108 437 108 368 Z M374 886 Q374 907 389 922 Q404 937 425 937 Q445 937 460 922 Q475 907 475 886 Q475 865 460 850 Q445 835 425 835 Q404 835 389 850 Q374 865 374 886 Z " />
<glyph glyph-name="Gcommaaccent" unicode="&#x122;" horiz-adv-x="849" d="M108 368 Q108 299 133.5 240 Q159 181 203 138.5 Q247 96 305.5 71.5 Q364 47 429 47 Q496 47 552 67.5 Q608 88 648.5 126 Q689 164 711.5 219 Q734 274 736 343 L462 343 L462 398 L796 398 Q797 390 797 382.5 Q797 375 797 367 Q797 274 768 203.5 Q739 133 689 85 Q639 37 572 12.5 Q505 -12 429 -12 Q347 -12 277.5 18 Q208 48 157 100 Q106 152 77 221 Q48 290 48 368 Q48 448 76.5 517 Q105 586 155.5 636.5 Q206 687 275.5 716 Q345 745 427 745 Q500 745 562.5 722 Q625 699 675 655 L636 616 Q594 651 543.5 670 Q493 689 427 689 Q358 689 300 664.5 Q242 640 199 597 Q156 554 132 495.5 Q108 437 108 368 Z M381 -222 L416 -146 Q402 -143 392.5 -131.5 Q383 -120 383 -105 Q383 -88 394.5 -76 Q406 -64 423 -64 Q435 -64 444 -69.5 Q453 -75 458 -84 Q463 -93 463.5 -104 Q464 -115 459 -126 L408 -235 L381 -222 Z " />
<glyph glyph-name="Hbar" unicode="&#x126;" horiz-adv-x="740" d="M738 533 L653 533 L653 0 L589 0 L589 346 L151 346 L151 0 L87 0 L87 533 L3 533 L3 574 L87 574 L87 734 L151 734 L151 574 L589 574 L589 735 L653 735 L653 574 L738 574 L738 533 Z M589 398 L589 533 L151 533 L151 398 L589 398 Z " />
<glyph glyph-name="Hcircumflex" unicode="&#x124;" horiz-adv-x="740" d="M87 0 L87 734 L151 734 L151 398 L589 398 L589 735 L653 735 L653 0 L589 0 L589 346 L151 346 L151 0 L87 0 Z M368 895 L261 787 L234 814 L370 950 L506 814 L478 787 L368 895 Z " />
<glyph glyph-name="Iacute" unicode="&#xcd;" horiz-adv-x="418" d="M39 681 L39 735 L379 735 L379 681 L241 681 L241 54 L379 54 L379 0 L39 0 L39 54 L177 54 L177 681 L39 681 Z M210 794 L190 814 L308 955 Q316 966 330 966.5 Q344 967 354 958 Q364 948 363 934 Q362 920 351 911 L210 794 Z " />
<glyph glyph-name="Ibreve" unicode="&#x12c;" horiz-adv-x="418" d="M39 681 L39 735 L379 735 L379 681 L241 681 L241 54 L379 54 L379 0 L39 0 L39 54 L177 54 L177 681 L39 681 Z M92 919 L133 919 L133 902 Q133 870 155 848.5 Q177 827 209 827 Q241 827 262.5 848.5 Q284 870 284 902 L284 919 L326 919 L326 904 Q326 880 317 858.5 Q308 837 292 821 Q276 805 254.5 796 Q233 787 209 787 Q185 787 163.5 796 Q142 805 126 821 Q110 837 101 858.5 Q92 880 92 904 L92 919 Z " />
<glyph glyph-name="Icircumflex" unicode="&#xce;" horiz-adv-x="418" d="M39 681 L39 735 L379 735 L379 681 L241 681 L241 54 L379 54 L379 0 L39 0 L39 54 L177 54 L177 681 L39 681 Z M207 895 L100 787 L73 814 L209 950 L345 814 L317 787 L207 895 Z " />
<glyph glyph-name="Idieresis" unicode="&#xcf;" horiz-adv-x="418" d="M39 681 L39 735 L379 735 L379 681 L241 681 L241 54 L379 54 L379 0 L39 0 L39 54 L177 54 L177 681 L39 681 Z M66 886 Q66 907 81 922 Q96 937 117 937 Q138 937 153 922 Q168 907 168 886 Q168 865 153 850 Q138 835 117 835 Q96 835 81 850 Q66 865 66 886 Z M249 886 Q249 907 264 922 Q279 937 300 937 Q321 937 336 922 Q351 907 351 886 Q351 865 336 850 Q321 835 300 835 Q279 835 264 850 Q249 865 249 886 Z " />
<glyph glyph-name="Idotaccent" unicode="&#x130;" horiz-adv-x="418" d="M39 681 L39 735 L379 735 L379 681 L241 681 L241 54 L379 54 L379 0 L39 0 L39 54 L177 54 L177 681 L39 681 Z M158 886 Q158 907 173 922 Q188 937 209 937 Q229 937 244 922 Q259 907 259 886 Q259 865 244 850 Q229 835 209 835 Q188 835 173 850 Q158 865 158 886 Z " />
<glyph glyph-name="Igrave" unicode="&#xcc;" horiz-adv-x="418" d="M39 681 L39 735 L379 735 L379 681 L241 681 L241 54 L379 54 L379 0 L39 0 L39 54 L177 54 L177 681 L39 681 Z M66 911 Q55 920 54 934 Q53 948 63 958 Q73 967 87 966.5 Q101 966 109 955 L227 814 L207 794 L66 911 Z " />
<glyph glyph-name="Imacron" unicode="&#x12a;" horiz-adv-x="418" d="M39 681 L39 735 L379 735 L379 681 L241 681 L241 54 L379 54 L379 0 L39 0 L39 54 L177 54 L177 681 L39 681 Z M355 836 L64 836 L64 877 L355 877 L355 836 Z " />
<glyph glyph-name="Iogonek" unicode="&#x12e;" horiz-adv-x="418" d="M156 -77 Q156 -54 164 -34.5 Q172 -15 186 0 L39 0 L39 54 L177 54 L177 681 L39 681 L39 735 L379 735 L379 681 L241 681 L241 54 L379 54 L379 0 L266 0 Q236 -1 215 -23.5 Q194 -46 194 -77 Q194 -109 215.5 -131.5 Q237 -154 268 -154 Q298 -154 319.5 -131.5 Q341 -109 341 -77 L379 -77 Q379 -101 370 -122 Q361 -143 346 -158.5 Q331 -174 311 -183 Q291 -192 268 -192 Q245 -192 224.5 -183 Q204 -174 189 -158.5 Q174 -143 165 -122 Q156 -101 156 -77 Z " />
<glyph glyph-name="Itilde" unicode="&#x128;" horiz-adv-x="418" d="M39 681 L39 735 L379 735 L379 681 L241 681 L241 54 L379 54 L379 0 L39 0 L39 54 L177 54 L177 681 L39 681 Z M275 931 Q313 931 336 905 Q359 879 358 839 L320 839 Q320 866 307.5 880 Q295 894 275 894 Q257 894 243.5 882.5 Q230 871 216 856.5 Q202 842 185 830.5 Q168 819 143 819 Q104 819 81 845 Q58 871 59 911 L98 911 Q98 856 143 856 Q160 856 173 867.5 Q186 879 200.5 893.5 Q215 908 232.5 919.5 Q250 931 275 931 Z " />
<glyph glyph-name="Jcircumflex" unicode="&#x134;" horiz-adv-x="501" d="M81 188 Q81 160 92 135 Q103 110 122 91.5 Q141 73 166 62 Q191 51 219 51 Q247 51 272 62 Q297 73 315.5 91.5 Q334 110 345 135 Q356 160 356 188 L356 735 L417 735 L417 188 Q417 147 401.5 111 Q386 75 359 48 Q332 21 296 5.5 Q260 -10 219 -10 Q178 -10 142 5.5 Q106 21 79 48 Q52 75 36.5 111 Q21 147 21 188 L81 188 Z M384 895 L277 787 L250 814 L386 950 L522 814 L494 787 L384 895 Z " />
<glyph glyph-name="Kcommaaccent" unicode="&#x136;" horiz-adv-x="655" d="M148 346 L148 0 L87 0 L87 735 L148 735 L148 398 L347 398 L545 735 L613 735 L400 374 L615 0 L547 0 L348 346 L148 346 Z M283 -222 L319 -146 Q305 -143 295.5 -131.5 Q286 -120 286 -105 Q286 -88 297.5 -76 Q309 -64 326 -64 Q338 -64 347 -69.5 Q356 -75 361 -84 Q366 -93 366.5 -104 Q367 -115 362 -126 L311 -235 L283 -222 Z " />
<glyph glyph-name="Lacute" unicode="&#x139;" horiz-adv-x="454" d="M434 0 L87 0 L87 735 L149 735 L149 54 L434 54 L434 0 Z M158 794 L139 814 L256 955 Q264 966 278.5 966.5 Q293 967 303 958 Q312 948 311 934 Q310 920 299 911 L158 794 Z " />
<glyph glyph-name="Lcaron" unicode="&#x13d;" horiz-adv-x="454" d="M434 3 L87 3 L87 738 L149 738 L149 58 L434 58 L434 3 Z M307 586 L348 672 Q331 676 319 690 Q307 704 307 723 Q307 743 321.5 758 Q336 773 357 773 Q371 773 382 766 Q393 759 399.5 748 Q406 737 406.5 723.5 Q407 710 400 696 L341 569 L307 586 Z " />
<glyph glyph-name="Lcommaaccent" unicode="&#x13b;" horiz-adv-x="454" d="M434 0 L87 0 L87 735 L149 735 L149 54 L434 54 L434 0 Z M220 -222 L256 -146 Q242 -143 232 -131.5 Q222 -120 222 -105 Q222 -88 234 -76 Q246 -64 263 -64 Q274 -64 283 -69.5 Q292 -75 297 -84 Q302 -93 302.5 -104 Q303 -115 298 -126 L247 -235 L220 -222 Z " />
<glyph glyph-name="Ldot" unicode="&#x13f;" horiz-adv-x="454" d="M434 0 L87 0 L87 735 L149 735 L149 54 L434 54 L434 0 Z M269 371 Q269 391 284 406 Q299 421 320 421 Q340 421 355 406 Q370 391 370 371 Q370 350 355 335 Q340 320 320 320 Q299 320 284 335 Q269 350 269 371 Z " />
<glyph glyph-name="Lslash" unicode="&#x141;" horiz-adv-x="454" d="M434 0 L87 0 L87 313 L-19 285 L-29 322 L87 353 L87 735 L149 735 L149 370 L274 403 L284 366 L149 330 L149 54 L434 54 L434 0 Z " />
<glyph glyph-name="Nacute" unicode="&#x143;" horiz-adv-x="796" d="M647 735 L709 735 L709 5 L697 -1 L149 601 L149 0 L87 0 L87 730 L98 735 L647 134 L647 735 Z M386 794 L366 814 L484 955 Q492 966 506 966.5 Q520 967 530 958 Q540 948 539 934 Q538 920 527 911 L386 794 Z " />
<glyph glyph-name="Ncaron" unicode="&#x147;" horiz-adv-x="796" d="M647 735 L709 735 L709 5 L697 -1 L149 601 L149 0 L87 0 L87 730 L98 735 L647 134 L647 735 Z M399 841 L506 950 L533 923 L397 787 L261 923 L289 950 L399 841 Z " />
<glyph glyph-name="Ncommaaccent" unicode="&#x145;" horiz-adv-x="796" d="M647 735 L709 735 L709 5 L697 -1 L149 601 L149 0 L87 0 L87 730 L98 735 L647 134 L647 735 Z M367 -222 L402 -146 Q388 -143 378.5 -131.5 Q369 -120 369 -105 Q369 -88 380.5 -76 Q392 -64 409 -64 Q421 -64 430 -69.5 Q439 -75 444 -84 Q449 -93 449.5 -104 Q450 -115 445 -126 L394 -235 L367 -222 Z " />
<glyph glyph-name="Ntilde" unicode="&#xd1;" horiz-adv-x="796" d="M647 735 L709 735 L709 5 L697 -1 L149 601 L149 0 L87 0 L87 730 L98 735 L647 134 L647 735 Z M464 931 Q502 931 525 905 Q548 879 547 839 L509 839 Q509 866 496.5 880 Q484 894 464 894 Q445 894 431.5 882.5 Q418 871 404.5 856.5 Q391 842 374 830.5 Q357 819 332 819 Q293 819 270 845 Q247 871 248 911 L287 911 Q287 856 332 856 Q349 856 362 867.5 Q375 879 389.5 893.5 Q404 908 421.5 919.5 Q439 931 464 931 Z " />
<glyph glyph-name="Oacute" unicode="&#xd3;" horiz-adv-x="864" d="M52 368 Q52 446 82 515.5 Q112 585 163.5 636.5 Q215 688 284.5 718 Q354 748 432 748 Q510 748 579.5 718 Q649 688 700.5 636.5 Q752 585 782 515.5 Q812 446 812 368 Q812 290 782 220.5 Q752 151 700.5 99.5 Q649 48 579.5 18 Q510 -12 432 -12 Q354 -12 284.5 18 Q215 48 163.5 99.5 Q112 151 82 220.5 Q52 290 52 368 Z M115 368 Q115 303 140 245 Q165 187 208 144 Q251 101 309 76 Q367 51 432 51 Q497 51 555 76 Q613 101 656 144 Q699 187 724 245 Q749 303 749 368 Q749 433 724 491 Q699 549 656 592 Q613 635 555 660 Q497 685 432 685 Q367 685 309 660 Q251 635 208 592 Q165 549 140 491 Q115 433 115 368 Z M433 794 L414 814 L531 955 Q539 966 553 966.5 Q567 967 577 958 Q587 948 586 934 Q585 920 574 911 L433 794 Z " />
<glyph glyph-name="Obreve" unicode="&#x14e;" horiz-adv-x="864" d="M52 368 Q52 446 82 515.5 Q112 585 163.5 636.5 Q215 688 284.5 718 Q354 748 432 748 Q510 748 579.5 718 Q649 688 700.5 636.5 Q752 585 782 515.5 Q812 446 812 368 Q812 290 782 220.5 Q752 151 700.5 99.5 Q649 48 579.5 18 Q510 -12 432 -12 Q354 -12 284.5 18 Q215 48 163.5 99.5 Q112 151 82 220.5 Q52 290 52 368 Z M115 368 Q115 303 140 245 Q165 187 208 144 Q251 101 309 76 Q367 51 432 51 Q497 51 555 76 Q613 101 656 144 Q699 187 724 245 Q749 303 749 368 Q749 433 724 491 Q699 549 656 592 Q613 635 555 660 Q497 685 432 685 Q367 685 309 660 Q251 635 208 592 Q165 549 140 491 Q115 433 115 368 Z M315 919 L356 919 L356 902 Q356 870 378 848.5 Q400 827 432 827 Q464 827 485.5 848.5 Q507 870 507 902 L507 919 L549 919 L549 904 Q549 880 540 858.5 Q531 837 515 821 Q499 805 477.5 796 Q456 787 432 787 Q408 787 386.5 796 Q365 805 349 821 Q333 837 324 858.5 Q315 880 315 904 L315 919 Z " />
<glyph glyph-name="Ocircumflex" unicode="&#xd4;" horiz-adv-x="864" d="M52 368 Q52 446 82 515.5 Q112 585 163.5 636.5 Q215 688 284.5 718 Q354 748 432 748 Q510 748 579.5 718 Q649 688 700.5 636.5 Q752 585 782 515.5 Q812 446 812 368 Q812 290 782 220.5 Q752 151 700.5 99.5 Q649 48 579.5 18 Q510 -12 432 -12 Q354 -12 284.5 18 Q215 48 163.5 99.5 Q112 151 82 220.5 Q52 290 52 368 Z M115 368 Q115 303 140 245 Q165 187 208 144 Q251 101 309 76 Q367 51 432 51 Q497 51 555 76 Q613 101 656 144 Q699 187 724 245 Q749 303 749 368 Q749 433 724 491 Q699 549 656 592 Q613 635 555 660 Q497 685 432 685 Q367 685 309 660 Q251 635 208 592 Q165 549 140 491 Q115 433 115 368 Z M430 895 L323 787 L296 814 L432 950 L568 814 L540 787 L430 895 Z " />
<glyph glyph-name="Odieresis" unicode="&#xd6;" horiz-adv-x="864" d="M52 368 Q52 446 82 515.5 Q112 585 163.5 636.5 Q215 688 284.5 718 Q354 748 432 748 Q510 748 579.5 718 Q649 688 700.5 636.5 Q752 585 782 515.5 Q812 446 812 368 Q812 290 782 220.5 Q752 151 700.5 99.5 Q649 48 579.5 18 Q510 -12 432 -12 Q354 -12 284.5 18 Q215 48 163.5 99.5 Q112 151 82 220.5 Q52 290 52 368 Z M115 368 Q115 303 140 245 Q165 187 208 144 Q251 101 309 76 Q367 51 432 51 Q497 51 555 76 Q613 101 656 144 Q699 187 724 245 Q749 303 749 368 Q749 433 724 491 Q699 549 656 592 Q613 635 555 660 Q497 685 432 685 Q367 685 309 660 Q251 635 208 592 Q165 549 140 491 Q115 433 115 368 Z M290 886 Q290 907 304.5 922 Q319 937 340 937 Q361 937 376 922 Q391 907 391 886 Q391 865 376 850 Q361 835 340 835 Q319 835 304.5 850 Q290 865 290 886 Z M473 886 Q473 907 487.5 922 Q502 937 523 937 Q544 937 559 922 Q574 907 574 886 Q574 865 559 850 Q544 835 523 835 Q502 835 487.5 850 Q473 865 473 886 Z " />
<glyph glyph-name="Ograve" unicode="&#xd2;" horiz-adv-x="864" d="M52 368 Q52 446 82 515.5 Q112 585 163.5 636.5 Q215 688 284.5 718 Q354 748 432 748 Q510 748 579.5 718 Q649 688 700.5 636.5 Q752 585 782 515.5 Q812 446 812 368 Q812 290 782 220.5 Q752 151 700.5 99.5 Q649 48 579.5 18 Q510 -12 432 -12 Q354 -12 284.5 18 Q215 48 163.5 99.5 Q112 151 82 220.5 Q52 290 52 368 Z M115 368 Q115 303 140 245 Q165 187 208 144 Q251 101 309 76 Q367 51 432 51 Q497 51 555 76 Q613 101 656 144 Q699 187 724 245 Q749 303 749 368 Q749 433 724 491 Q699 549 656 592 Q613 635 555 660 Q497 685 432 685 Q367 685 309 660 Q251 635 208 592 Q165 549 140 491 Q115 433 115 368 Z M289 911 Q278 920 277.5 934 Q277 948 286 958 Q296 967 310 966.5 Q324 966 333 955 L450 814 L430 794 L289 911 Z " />
<glyph glyph-name="Ohungarumlaut" unicode="&#x150;" horiz-adv-x="864" d="M52 368 Q52 446 82 515.5 Q112 585 163.5 636.5 Q215 688 284.5 718 Q354 748 432 748 Q510 748 579.5 718 Q649 688 700.5 636.5 Q752 585 782 515.5 Q812 446 812 368 Q812 290 782 220.5 Q752 151 700.5 99.5 Q649 48 579.5 18 Q510 -12 432 -12 Q354 -12 284.5 18 Q215 48 163.5 99.5 Q112 151 82 220.5 Q52 290 52 368 Z M115 368 Q115 303 140 245 Q165 187 208 144 Q251 101 309 76 Q367 51 432 51 Q497 51 555 76 Q613 101 656 144 Q699 187 724 245 Q749 303 749 368 Q749 433 724 491 Q699 549 656 592 Q613 635 555 660 Q497 685 432 685 Q367 685 309 660 Q251 635 208 592 Q165 549 140 491 Q115 433 115 368 Z M347 794 L327 814 L444 955 Q453 966 467 966.5 Q481 967 491 958 Q500 948 499.5 934 Q499 920 488 911 L347 794 Z M520 794 L500 814 L617 955 Q626 966 640 966.5 Q654 967 664 958 Q673 948 672.5 934 Q672 920 661 911 L520 794 Z " />
<glyph glyph-name="Omacron" unicode="&#x14c;" horiz-adv-x="864" d="M52 368 Q52 446 82 515.5 Q112 585 163.5 636.5 Q215 688 284.5 718 Q354 748 432 748 Q510 748 579.5 718 Q649 688 700.5 636.5 Q752 585 782 515.5 Q812 446 812 368 Q812 290 782 220.5 Q752 151 700.5 99.5 Q649 48 579.5 18 Q510 -12 432 -12 Q354 -12 284.5 18 Q215 48 163.5 99.5 Q112 151 82 220.5 Q52 290 52 368 Z M115 368 Q115 303 140 245 Q165 187 208 144 Q251 101 309 76 Q367 51 432 51 Q497 51 555 76 Q613 101 656 144 Q699 187 724 245 Q749 303 749 368 Q749 433 724 491 Q699 549 656 592 Q613 635 555 660 Q497 685 432 685 Q367 685 309 660 Q251 635 208 592 Q165 549 140 491 Q115 433 115 368 Z M577 836 L286 836 L286 877 L577 877 L577 836 Z " />
<glyph glyph-name="Oslashacute" unicode="&#x1fe;" horiz-adv-x="864" d="M48 368 Q48 446 78 515.5 Q108 585 159.5 636.5 Q211 688 280.5 718 Q350 748 428 748 Q499 748 561.5 723.5 Q624 699 674 657 L738 720 L780 679 L716 615 Q759 565 784 502 Q809 439 809 368 Q809 290 779 220.5 Q749 151 697 99.5 Q645 48 576 18 Q507 -12 428 -12 Q357 -12 294 12.5 Q231 37 181 80 L118 17 L77 59 L139 122 Q97 172 72.5 234.5 Q48 297 48 368 Z M428 51 Q494 51 551.5 76 Q609 101 652 144 Q695 187 720 245 Q745 303 745 368 Q745 426 725 477 Q705 528 670 570 L227 126 Q267 91 318.5 71 Q370 51 428 51 Z M111 368 Q111 310 130.5 259 Q150 208 185 167 L628 611 Q587 646 536 665.5 Q485 685 428 685 Q363 685 305 660 Q247 635 204 592 Q161 549 136 491 Q111 433 111 368 Z M433 794 L414 814 L531 955 Q539 966 553 966.5 Q567 967 577 958 Q587 948 586 934 Q585 920 574 911 L433 794 Z " />
<glyph glyph-name="Otilde" unicode="&#xd5;" horiz-adv-x="864" d="M52 368 Q52 446 82 515.5 Q112 585 163.5 636.5 Q215 688 284.5 718 Q354 748 432 748 Q510 748 579.5 718 Q649 688 700.5 636.5 Q752 585 782 515.5 Q812 446 812 368 Q812 290 782 220.5 Q752 151 700.5 99.5 Q649 48 579.5 18 Q510 -12 432 -12 Q354 -12 284.5 18 Q215 48 163.5 99.5 Q112 151 82 220.5 Q52 290 52 368 Z M115 368 Q115 303 140 245 Q165 187 208 144 Q251 101 309 76 Q367 51 432 51 Q497 51 555 76 Q613 101 656 144 Q699 187 724 245 Q749 303 749 368 Q749 433 724 491 Q699 549 656 592 Q613 635 555 660 Q497 685 432 685 Q367 685 309 660 Q251 635 208 592 Q165 549 140 491 Q115 433 115 368 Z M498 931 Q536 931 559 905 Q582 879 581 839 L543 839 Q543 866 530.5 880 Q518 894 498 894 Q480 894 466.5 882.5 Q453 871 439 856.5 Q425 842 408 830.5 Q391 819 366 819 Q327 819 304.5 845 Q282 871 282 911 L321 911 Q321 856 366 856 Q383 856 396 867.5 Q409 879 423.5 893.5 Q438 908 455.5 919.5 Q473 931 498 931 Z " />
<glyph glyph-name="Racute" unicode="&#x154;" horiz-adv-x="671" d="M149 0 L87 0 L87 735 L391 735 Q439 735 481 717 Q523 699 554.5 667.5 Q586 636 604 594 Q622 552 622 504 Q622 425 579 368 Q536 311 464 286 L614 0 L548 0 L403 274 L149 274 L149 0 Z M386 327 Q424 327 456.5 341 Q489 355 512.5 379 Q536 403 549 435.5 Q562 468 562 504 Q562 541 548.5 573 Q535 605 511 629 Q487 653 455 667 Q423 681 386 681 L149 681 L149 327 L386 327 Z M267 794 L247 814 L364 955 Q372 966 386.5 966.5 Q401 967 411 958 Q420 948 419 934 Q418 920 407 911 L267 794 Z " />
<glyph glyph-name="Rcaron" unicode="&#x158;" horiz-adv-x="671" d="M149 0 L87 0 L87 735 L391 735 Q439 735 481 717 Q523 699 554.5 667.5 Q586 636 604 594 Q622 552 622 504 Q622 425 579 368 Q536 311 464 286 L614 0 L548 0 L403 274 L149 274 L149 0 Z M386 327 Q424 327 456.5 341 Q489 355 512.5 379 Q536 403 549 435.5 Q562 468 562 504 Q562 541 548.5 573 Q535 605 511 629 Q487 653 455 667 Q423 681 386 681 L149 681 L149 327 L386 327 Z M337 841 L443 950 L471 923 L335 787 L199 923 L226 950 L337 841 Z " />
<glyph glyph-name="Rcommaaccent" unicode="&#x156;" horiz-adv-x="671" d="M149 0 L87 0 L87 735 L391 735 Q439 735 481 717 Q523 699 554.5 667.5 Q586 636 604 594 Q622 552 622 504 Q622 425 579 368 Q536 311 464 286 L614 0 L548 0 L403 274 L149 274 L149 0 Z M386 327 Q424 327 456.5 341 Q489 355 512.5 379 Q536 403 549 435.5 Q562 468 562 504 Q562 541 548.5 573 Q535 605 511 629 Q487 653 455 667 Q423 681 386 681 L149 681 L149 327 L386 327 Z M291 -222 L327 -146 Q313 -143 303.5 -131.5 Q294 -120 294 -105 Q294 -88 305.5 -76 Q317 -64 334 -64 Q345 -64 354 -69.5 Q363 -75 368 -84 Q373 -93 373.5 -104 Q374 -115 369 -126 L318 -235 L291 -222 Z " />
<glyph glyph-name="Sacute" unicode="&#x15a;" horiz-adv-x="594" d="M317 -16 Q236 -16 170.5 13.5 Q105 43 58 92 L103 131 Q195 44 318 44 Q399 44 445 78 Q491 112 491 167 Q491 216 460 250 Q429 284 366 309 L216 369 Q131 403 92 451 Q53 499 53 566 Q53 607 70.5 641 Q88 675 119.5 700 Q151 725 195.5 738.5 Q240 752 294 752 Q352 752 397.5 733.5 Q443 715 475 685 Q507 655 524 616.5 Q541 578 541 537 L481 537 Q481 565 469 593 Q457 621 433.5 643.5 Q410 666 375 680 Q340 694 294 694 Q254 694 221.5 684.5 Q189 675 165.5 658.5 Q142 642 129.5 618 Q117 594 117 566 Q117 518 143.5 486 Q170 454 235 428 L388 366 Q476 330 515 281 Q554 232 554 167 Q554 122 535.5 88 Q517 54 484.5 30.5 Q452 7 409 -4.5 Q366 -16 317 -16 Z M288 794 L269 814 L386 955 Q394 966 408.5 966.5 Q423 967 433 958 Q442 948 441 934 Q440 920 429 911 L288 794 Z " />
<glyph glyph-name="Scaron" unicode="&#x160;" horiz-adv-x="594" d="M317 -16 Q236 -16 170.5 13.5 Q105 43 58 92 L103 131 Q195 44 318 44 Q399 44 445 78 Q491 112 491 167 Q491 216 460 250 Q429 284 366 309 L216 369 Q131 403 92 451 Q53 499 53 566 Q53 607 70.5 641 Q88 675 119.5 700 Q151 725 195.5 738.5 Q240 752 294 752 Q352 752 397.5 733.5 Q443 715 475 685 Q507 655 524 616.5 Q541 578 541 537 L481 537 Q481 565 469 593 Q457 621 433.5 643.5 Q410 666 375 680 Q340 694 294 694 Q254 694 221.5 684.5 Q189 675 165.5 658.5 Q142 642 129.5 618 Q117 594 117 566 Q117 518 143.5 486 Q170 454 235 428 L388 366 Q476 330 515 281 Q554 232 554 167 Q554 122 535.5 88 Q517 54 484.5 30.5 Q452 7 409 -4.5 Q366 -16 317 -16 Z M299 841 L405 950 L433 923 L297 787 L161 923 L188 950 L299 841 Z " />
<glyph glyph-name="Scedilla" unicode="&#x15e;" horiz-adv-x="594" d="M414 -136 Q414 -178 385.5 -205 Q357 -232 317 -232 Q297 -232 280 -224.5 Q263 -217 249 -204 L275 -179 Q283 -186 294 -190.5 Q305 -195 317 -195 Q341 -195 358.5 -178.5 Q376 -162 376 -136 Q376 -110 359 -93.5 Q342 -77 316 -77 Q302 -77 292 -81.5 Q282 -86 274 -93 L249 -68 Q267 -47 299 -42 L299 -15 Q224 -12 163 16 Q102 44 58 92 L103 131 Q195 44 318 44 Q399 44 445 78 Q491 112 491 167 Q491 216 460 250 Q429 284 366 309 L216 369 Q131 403 92 451 Q53 499 53 566 Q53 607 70.5 641 Q88 675 119.5 700 Q151 725 195.5 738.5 Q240 752 294 752 Q352 752 397.5 733.5 Q443 715 475 685 Q507 655 524 616.5 Q541 578 541 537 L481 537 Q481 565 469 593 Q457 621 433.5 643.5 Q410 666 375 680 Q340 694 294 694 Q254 694 221.5 684.5 Q189 675 165.5 658.5 Q142 642 129.5 618 Q117 594 117 566 Q117 518 143.5 486 Q170 454 235 428 L388 366 Q476 330 515 281 Q554 232 554 167 Q554 124 537 91 Q520 58 490.5 35 Q461 12 421 -1 Q381 -14 335 -16 L335 -42 Q366 -47 390 -72.5 Q414 -98 414 -136 Z " />
<glyph glyph-name="Scircumflex" unicode="&#x15c;" horiz-adv-x="594" d="M317 -16 Q236 -16 170.5 13.5 Q105 43 58 92 L103 131 Q195 44 318 44 Q399 44 445 78 Q491 112 491 167 Q491 216 460 250 Q429 284 366 309 L216 369 Q131 403 92 451 Q53 499 53 566 Q53 607 70.5 641 Q88 675 119.5 700 Q151 725 195.5 738.5 Q240 752 294 752 Q352 752 397.5 733.5 Q443 715 475 685 Q507 655 524 616.5 Q541 578 541 537 L481 537 Q481 565 469 593 Q457 621 433.5 643.5 Q410 666 375 680 Q340 694 294 694 Q254 694 221.5 684.5 Q189 675 165.5 658.5 Q142 642 129.5 618 Q117 594 117 566 Q117 518 143.5 486 Q170 454 235 428 L388 366 Q476 330 515 281 Q554 232 554 167 Q554 122 535.5 88 Q517 54 484.5 30.5 Q452 7 409 -4.5 Q366 -16 317 -16 Z M295 895 L188 787 L161 814 L297 950 L433 814 L405 787 L295 895 Z " />
<glyph glyph-name="Scommaaccent" unicode="&#x218;" horiz-adv-x="594" d="M317 -16 Q236 -16 170.5 13.5 Q105 43 58 92 L103 131 Q195 44 318 44 Q399 44 445 78 Q491 112 491 167 Q491 216 460 250 Q429 284 366 309 L216 369 Q131 403 92 451 Q53 499 53 566 Q53 607 70.5 641 Q88 675 119.5 700 Q151 725 195.5 738.5 Q240 752 294 752 Q352 752 397.5 733.5 Q443 715 475 685 Q507 655 524 616.5 Q541 578 541 537 L481 537 Q481 565 469 593 Q457 621 433.5 643.5 Q410 666 375 680 Q340 694 294 694 Q254 694 221.5 684.5 Q189 675 165.5 658.5 Q142 642 129.5 618 Q117 594 117 566 Q117 518 143.5 486 Q170 454 235 428 L388 366 Q476 330 515 281 Q554 232 554 167 Q554 122 535.5 88 Q517 54 484.5 30.5 Q452 7 409 -4.5 Q366 -16 317 -16 Z M258 -222 L293 -146 Q279 -143 269.5 -131.5 Q260 -120 260 -105 Q260 -88 271.5 -76 Q283 -64 300 -64 Q312 -64 321 -69.5 Q330 -75 335 -84 Q340 -93 340.5 -104 Q341 -115 336 -126 L285 -235 L258 -222 Z " />
<glyph glyph-name="Tbar" unicode="&#x166;" horiz-adv-x="525" d="M506 735 L506 681 L294 681 L294 483 L409 514 L419 477 L294 444 L294 0 L232 0 L232 427 L116 396 L106 433 L232 466 L232 681 L19 681 L19 735 L506 735 Z " />
<glyph glyph-name="Tcaron" unicode="&#x164;" horiz-adv-x="525" d="M506 735 L506 681 L294 681 L294 0 L232 0 L232 681 L19 681 L19 735 L506 735 Z M264 841 L371 950 L398 923 L262 787 L126 923 L154 950 L264 841 Z " />
<glyph glyph-name="Tcommaaccent" unicode="&#x162;" horiz-adv-x="525" d="M506 735 L506 681 L294 681 L294 0 L232 0 L232 681 L19 681 L19 735 L506 735 Z M218 -222 L254 -146 Q240 -143 230.5 -131.5 Q221 -120 221 -105 Q221 -88 232.5 -76 Q244 -64 261 -64 Q272 -64 281 -69.5 Q290 -75 295 -84 Q300 -93 300.5 -104 Q301 -115 296 -126 L245 -235 L218 -222 Z " />
<glyph glyph-name="Uacute" unicode="&#xda;" horiz-adv-x="767" d="M130 305 Q130 251 149 204 Q168 157 202 122.5 Q236 88 282.5 68.5 Q329 49 383 49 Q438 49 484.5 68.5 Q531 88 565 122.5 Q599 157 618 204 Q637 251 637 305 L637 735 L699 735 L699 305 Q699 239 675 181.5 Q651 124 609 81.5 Q567 39 509 14 Q451 -11 383 -11 Q315 -11 257 14 Q199 39 157 81.5 Q115 124 91 181.5 Q67 239 67 305 L67 735 L130 735 L130 305 Z M375 794 L355 814 L473 955 Q481 966 495 966.5 Q509 967 519 958 Q529 948 528 934 Q527 920 516 911 L375 794 Z " />
<glyph glyph-name="Ubreve" unicode="&#x16c;" horiz-adv-x="767" d="M130 305 Q130 251 149 204 Q168 157 202 122.5 Q236 88 282.5 68.5 Q329 49 383 49 Q438 49 484.5 68.5 Q531 88 565 122.5 Q599 157 618 204 Q637 251 637 305 L637 735 L699 735 L699 305 Q699 239 675 181.5 Q651 124 609 81.5 Q567 39 509 14 Q451 -11 383 -11 Q315 -11 257 14 Q199 39 157 81.5 Q115 124 91 181.5 Q67 239 67 305 L67 735 L130 735 L130 305 Z M266 919 L308 919 L308 902 Q308 870 329.5 848.5 Q351 827 383 827 Q415 827 437 848.5 Q459 870 459 902 L459 919 L500 919 L500 904 Q500 880 491 858.5 Q482 837 466 821 Q450 805 428.5 796 Q407 787 383 787 Q359 787 337.5 796 Q316 805 300 821 Q284 837 275 858.5 Q266 880 266 904 L266 919 Z " />
<glyph glyph-name="Ucircumflex" unicode="&#xdb;" horiz-adv-x="767" d="M130 305 Q130 251 149 204 Q168 157 202 122.5 Q236 88 282.5 68.5 Q329 49 383 49 Q438 49 484.5 68.5 Q531 88 565 122.5 Q599 157 618 204 Q637 251 637 305 L637 735 L699 735 L699 305 Q699 239 675 181.5 Q651 124 609 81.5 Q567 39 509 14 Q451 -11 383 -11 Q315 -11 257 14 Q199 39 157 81.5 Q115 124 91 181.5 Q67 239 67 305 L67 735 L130 735 L130 305 Z M382 895 L275 787 L247 814 L383 950 L519 814 L492 787 L382 895 Z " />
<glyph glyph-name="Udieresis" unicode="&#xdc;" horiz-adv-x="767" d="M130 305 Q130 251 149 204 Q168 157 202 122.5 Q236 88 282.5 68.5 Q329 49 383 49 Q438 49 484.5 68.5 Q531 88 565 122.5 Q599 157 618 204 Q637 251 637 305 L637 735 L699 735 L699 305 Q699 239 675 181.5 Q651 124 609 81.5 Q567 39 509 14 Q451 -11 383 -11 Q315 -11 257 14 Q199 39 157 81.5 Q115 124 91 181.5 Q67 239 67 305 L67 735 L130 735 L130 305 Z M241 886 Q241 907 256 922 Q271 937 292 937 Q313 937 328 922 Q343 907 343 886 Q343 865 328 850 Q313 835 292 835 Q271 835 256 850 Q241 865 241 886 Z M424 886 Q424 907 439 922 Q454 937 475 937 Q496 937 511 922 Q526 907 526 886 Q526 865 511 850 Q496 835 475 835 Q454 835 439 850 Q424 865 424 886 Z " />
<glyph glyph-name="Ugrave" unicode="&#xd9;" horiz-adv-x="767" d="M130 305 Q130 251 149 204 Q168 157 202 122.5 Q236 88 282.5 68.5 Q329 49 383 49 Q438 49 484.5 68.5 Q531 88 565 122.5 Q599 157 618 204 Q637 251 637 305 L637 735 L699 735 L699 305 Q699 239 675 181.5 Q651 124 609 81.5 Q567 39 509 14 Q451 -11 383 -11 Q315 -11 257 14 Q199 39 157 81.5 Q115 124 91 181.5 Q67 239 67 305 L67 735 L130 735 L130 305 Z M251 911 Q240 920 239 934 Q238 948 248 958 Q258 967 272 966.5 Q286 966 294 955 L412 814 L392 794 L251 911 Z " />
<glyph glyph-name="Uhungarumlaut" unicode="&#x170;" horiz-adv-x="767" d="M130 305 Q130 251 149 204 Q168 157 202 122.5 Q236 88 282.5 68.5 Q329 49 383 49 Q438 49 484.5 68.5 Q531 88 565 122.5 Q599 157 618 204 Q637 251 637 305 L637 735 L699 735 L699 305 Q699 239 675 181.5 Q651 124 609 81.5 Q567 39 509 14 Q451 -11 383 -11 Q315 -11 257 14 Q199 39 157 81.5 Q115 124 91 181.5 Q67 239 67 305 L67 735 L130 735 L130 305 Z M289 794 L269 814 L386 955 Q394 966 408.5 966.5 Q423 967 433 958 Q442 948 441 934 Q440 920 429 911 L289 794 Z M462 794 L442 814 L559 955 Q567 966 581.5 966.5 Q596 967 606 958 Q615 948 614 934 Q613 920 602 911 L462 794 Z " />
<glyph glyph-name="Umacron" unicode="&#x16a;" horiz-adv-x="767" d="M130 305 Q130 251 149 204 Q168 157 202 122.5 Q236 88 282.5 68.5 Q329 49 383 49 Q438 49 484.5 68.5 Q531 88 565 122.5 Q599 157 618 204 Q637 251 637 305 L637 735 L699 735 L699 305 Q699 239 675 181.5 Q651 124 609 81.5 Q567 39 509 14 Q451 -11 383 -11 Q315 -11 257 14 Q199 39 157 81.5 Q115 124 91 181.5 Q67 239 67 305 L67 735 L130 735 L130 305 Z M529 836 L238 836 L238 877 L529 877 L529 836 Z " />
<glyph glyph-name="Uogonek" unicode="&#x172;" horiz-adv-x="767" d="M272 -88 Q272 -62 282.5 -40 Q293 -18 310 -2 Q256 10 211.5 38 Q167 66 134.5 106.5 Q102 147 84.5 198 Q67 249 67 305 L67 735 L130 735 L130 305 Q130 251 149 204 Q168 157 202 122.5 Q236 88 282.5 68.5 Q329 49 383 49 Q438 49 484.5 68.5 Q531 88 565 122.5 Q599 157 618 204 Q637 251 637 305 L637 735 L699 735 L699 305 Q699 239 675 181.5 Q651 124 609 81.5 Q567 39 509 14 Q451 -11 383 -11 Q353 -11 331.5 -33.5 Q310 -56 310 -88 Q310 -120 331.5 -142.5 Q353 -165 383 -165 Q413 -165 435 -142.5 Q457 -120 457 -88 L495 -88 Q495 -112 486 -133 Q477 -154 462 -169.5 Q447 -185 426.5 -194 Q406 -203 383 -203 Q360 -203 340 -194 Q320 -185 305 -169.5 Q290 -154 281 -133 Q272 -112 272 -88 Z " />
<glyph glyph-name="Uring" unicode="&#x16e;" horiz-adv-x="767" d="M130 305 Q130 251 149 204 Q168 157 202 122.5 Q236 88 282.5 68.5 Q329 49 383 49 Q438 49 484.5 68.5 Q531 88 565 122.5 Q599 157 618 204 Q637 251 637 305 L637 735 L699 735 L699 305 Q699 239 675 181.5 Q651 124 609 81.5 Q567 39 509 14 Q451 -11 383 -11 Q315 -11 257 14 Q199 39 157 81.5 Q115 124 91 181.5 Q67 239 67 305 L67 735 L130 735 L130 305 Z M287 895 Q287 935 315 963 Q343 991 383 991 Q423 991 451 963 Q479 935 479 895 Q479 855 451 827 Q423 799 383 799 Q343 799 315 827 Q287 855 287 895 Z M324 895 Q324 870 341 853 Q358 836 383 836 Q409 836 426 853 Q443 870 443 895 Q443 920 426 937 Q409 954 383 954 Q358 954 341 937 Q324 920 324 895 Z " />
<glyph glyph-name="Utilde" unicode="&#x168;" horiz-adv-x="767" d="M130 305 Q130 251 149 204 Q168 157 202 122.5 Q236 88 282.5 68.5 Q329 49 383 49 Q438 49 484.5 68.5 Q531 88 565 122.5 Q599 157 618 204 Q637 251 637 305 L637 735 L699 735 L699 305 Q699 239 675 181.5 Q651 124 609 81.5 Q567 39 509 14 Q451 -11 383 -11 Q315 -11 257 14 Q199 39 157 81.5 Q115 124 91 181.5 Q67 239 67 305 L67 735 L130 735 L130 305 Z M449 931 Q487 931 510.5 905 Q534 879 532 839 L494 839 Q494 866 481.5 880 Q469 894 449 894 Q431 894 417.5 882.5 Q404 871 390 856.5 Q376 842 359 830.5 Q342 819 317 819 Q278 819 255.5 845 Q233 871 233 911 L272 911 Q272 856 317 856 Q334 856 347 867.5 Q360 879 374.5 893.5 Q389 908 406.5 919.5 Q424 931 449 931 Z " />
<glyph glyph-name="Yacute" unicode="&#xdd;" horiz-adv-x="583" d="M262 0 L262 212 L15 735 L80 735 L292 292 L504 735 L568 735 L322 212 L322 0 L262 0 Z M292 794 L273 814 L390 955 Q398 966 412.5 966.5 Q427 967 437 958 Q446 948 445 934 Q444 920 433 911 L292 794 Z " />
<glyph glyph-name="Ycircumflex" unicode="&#x176;" horiz-adv-x="583" d="M262 0 L262 212 L15 735 L80 735 L292 292 L504 735 L568 735 L322 212 L322 0 L262 0 Z M289 895 L182 787 L155 814 L291 950 L427 814 L399 787 L289 895 Z " />
<glyph glyph-name="Ydieresis" unicode="&#x178;" horiz-adv-x="583" d="M262 0 L262 212 L15 735 L80 735 L292 292 L504 735 L568 735 L322 212 L322 0 L262 0 Z M149 886 Q149 907 164 922 Q179 937 199 937 Q220 937 235 922 Q250 907 250 886 Q250 865 235 850 Q220 835 199 835 Q179 835 164 850 Q149 865 149 886 Z M332 886 Q332 907 347 922 Q362 937 382 937 Q403 937 418 922 Q433 907 433 886 Q433 865 418 850 Q403 835 382 835 Q362 835 347 850 Q332 865 332 886 Z " />
<glyph glyph-name="Ygrave" unicode="&#x1ef2;" horiz-adv-x="583" d="M262 0 L262 212 L15 735 L80 735 L292 292 L504 735 L568 735 L322 212 L322 0 L262 0 Z M148 911 Q137 920 136.5 934 Q136 948 145 958 Q155 967 169 966.5 Q183 966 192 955 L309 814 L289 794 L148 911 Z " />
<glyph glyph-name="Zacute" unicode="&#x179;" horiz-adv-x="610" d="M83 346 L83 398 L291 398 L483 681 L49 681 L49 735 L552 735 L565 709 L359 398 L527 398 L527 346 L327 346 L130 54 L561 54 L561 0 L58 0 L45 26 L259 346 L83 346 Z M306 794 L286 814 L404 955 Q412 966 426 966.5 Q440 967 450 958 Q460 948 459 934 Q458 920 447 911 L306 794 Z " />
<glyph glyph-name="Zcaron" unicode="&#x17d;" horiz-adv-x="610" d="M83 346 L83 398 L291 398 L483 681 L49 681 L49 735 L552 735 L565 709 L359 398 L527 398 L527 346 L327 346 L130 54 L561 54 L561 0 L58 0 L45 26 L259 346 L83 346 Z M306 841 L413 950 L440 923 L304 787 L168 923 L196 950 L306 841 Z " />
<glyph glyph-name="Zdotaccent" unicode="&#x17b;" horiz-adv-x="610" d="M83 346 L83 398 L291 398 L483 681 L49 681 L49 735 L552 735 L565 709 L359 398 L527 398 L527 346 L327 346 L130 54 L561 54 L561 0 L58 0 L45 26 L259 346 L83 346 Z M254 886 Q254 907 269 922 Q284 937 304 937 Q325 937 340 922 Q355 907 355 886 Q355 865 340 850 Q325 835 304 835 Q284 835 269 850 Q254 865 254 886 Z " />
<glyph glyph-name="aacute" unicode="&#xe1;" horiz-adv-x="558" d="M424 121 Q414 94 395 70.5 Q376 47 350.5 29 Q325 11 293 1 Q261 -9 225 -9 Q183 -9 149.5 2.5 Q116 14 92.5 34.5 Q69 55 57 82.5 Q45 110 45 142 Q45 169 56 194 Q67 219 90.5 237.5 Q114 256 149.5 267 Q185 278 234 278 L422 278 L422 300 Q422 330 413 359 Q404 388 385.5 410.5 Q367 433 338.5 447 Q310 461 270 461 Q231 461 198 447 Q165 433 139 408 L101 445 Q134 477 177.5 496 Q221 515 270 515 Q322 515 362 497 Q402 479 428 449 Q454 419 467.5 380.5 Q481 342 481 301 L481 0 L424 0 L424 121 Z M105 142 Q105 98 140.5 70 Q176 42 233 42 Q268 42 302 54 Q336 66 362.5 90 Q389 114 405.5 149 Q422 184 422 230 L234 230 Q167 230 136 204.5 Q105 179 105 142 Z M281 571 L261 591 L378 732 Q387 743 401 743.5 Q415 744 425 735 Q434 725 433.5 711 Q433 697 422 688 L281 571 Z " />
<glyph glyph-name="abreve" unicode="&#x103;" horiz-adv-x="558" d="M424 121 Q414 94 395 70.5 Q376 47 350.5 29 Q325 11 293 1 Q261 -9 225 -9 Q183 -9 149.5 2.5 Q116 14 92.5 34.5 Q69 55 57 82.5 Q45 110 45 142 Q45 169 56 194 Q67 219 90.5 237.5 Q114 256 149.5 267 Q185 278 234 278 L422 278 L422 300 Q422 330 413 359 Q404 388 385.5 410.5 Q367 433 338.5 447 Q310 461 270 461 Q231 461 198 447 Q165 433 139 408 L101 445 Q134 477 177.5 496 Q221 515 270 515 Q322 515 362 497 Q402 479 428 449 Q454 419 467.5 380.5 Q481 342 481 301 L481 0 L424 0 L424 121 Z M105 142 Q105 98 140.5 70 Q176 42 233 42 Q268 42 302 54 Q336 66 362.5 90 Q389 114 405.5 149 Q422 184 422 230 L234 230 Q167 230 136 204.5 Q105 179 105 142 Z M162 696 L204 696 L204 679 Q204 647 225.5 625.5 Q247 604 279 604 Q311 604 332.5 625.5 Q354 647 354 679 L354 696 L396 696 L396 681 Q396 657 387 635.5 Q378 614 362 598 Q346 582 324.5 573 Q303 564 279 564 Q255 564 233.5 573 Q212 582 196 598 Q180 614 171 635.5 Q162 657 162 681 L162 696 Z " />
<glyph glyph-name="acircumflex" unicode="&#xe2;" horiz-adv-x="558" d="M424 121 Q414 94 395 70.5 Q376 47 350.5 29 Q325 11 293 1 Q261 -9 225 -9 Q183 -9 149.5 2.5 Q116 14 92.5 34.5 Q69 55 57 82.5 Q45 110 45 142 Q45 169 56 194 Q67 219 90.5 237.5 Q114 256 149.5 267 Q185 278 234 278 L422 278 L422 300 Q422 330 413 359 Q404 388 385.5 410.5 Q367 433 338.5 447 Q310 461 270 461 Q231 461 198 447 Q165 433 139 408 L101 445 Q134 477 177.5 496 Q221 515 270 515 Q322 515 362 497 Q402 479 428 449 Q454 419 467.5 380.5 Q481 342 481 301 L481 0 L424 0 L424 121 Z M105 142 Q105 98 140.5 70 Q176 42 233 42 Q268 42 302 54 Q336 66 362.5 90 Q389 114 405.5 149 Q422 184 422 230 L234 230 Q167 230 136 204.5 Q105 179 105 142 Z M277 672 L171 564 L143 591 L279 727 L415 591 L388 564 L277 672 Z " />
<glyph glyph-name="adieresis" unicode="&#xe4;" horiz-adv-x="558" d="M424 121 Q414 94 395 70.5 Q376 47 350.5 29 Q325 11 293 1 Q261 -9 225 -9 Q183 -9 149.5 2.5 Q116 14 92.5 34.5 Q69 55 57 82.5 Q45 110 45 142 Q45 169 56 194 Q67 219 90.5 237.5 Q114 256 149.5 267 Q185 278 234 278 L422 278 L422 300 Q422 330 413 359 Q404 388 385.5 410.5 Q367 433 338.5 447 Q310 461 270 461 Q231 461 198 447 Q165 433 139 408 L101 445 Q134 477 177.5 496 Q221 515 270 515 Q322 515 362 497 Q402 479 428 449 Q454 419 467.5 380.5 Q481 342 481 301 L481 0 L424 0 L424 121 Z M105 142 Q105 98 140.5 70 Q176 42 233 42 Q268 42 302 54 Q336 66 362.5 90 Q389 114 405.5 149 Q422 184 422 230 L234 230 Q167 230 136 204.5 Q105 179 105 142 Z M137 663 Q137 684 152 699 Q167 714 188 714 Q208 714 223 699 Q238 684 238 663 Q238 642 223 627 Q208 612 188 612 Q167 612 152 627 Q137 642 137 663 Z M320 663 Q320 684 335 699 Q350 714 371 714 Q391 714 406 699 Q421 684 421 663 Q421 642 406 627 Q391 612 371 612 Q350 612 335 627 Q320 642 320 663 Z " />
<glyph glyph-name="agrave" unicode="&#xe0;" horiz-adv-x="558" d="M424 121 Q414 94 395 70.5 Q376 47 350.5 29 Q325 11 293 1 Q261 -9 225 -9 Q183 -9 149.5 2.5 Q116 14 92.5 34.5 Q69 55 57 82.5 Q45 110 45 142 Q45 169 56 194 Q67 219 90.5 237.5 Q114 256 149.5 267 Q185 278 234 278 L422 278 L422 300 Q422 330 413 359 Q404 388 385.5 410.5 Q367 433 338.5 447 Q310 461 270 461 Q231 461 198 447 Q165 433 139 408 L101 445 Q134 477 177.5 496 Q221 515 270 515 Q322 515 362 497 Q402 479 428 449 Q454 419 467.5 380.5 Q481 342 481 301 L481 0 L424 0 L424 121 Z M105 142 Q105 98 140.5 70 Q176 42 233 42 Q268 42 302 54 Q336 66 362.5 90 Q389 114 405.5 149 Q422 184 422 230 L234 230 Q167 230 136 204.5 Q105 179 105 142 Z M140 688 Q129 697 128 711 Q127 725 136 735 Q146 744 160.5 743.5 Q175 743 183 732 L300 591 L280 571 L140 688 Z " />
<glyph glyph-name="amacron" unicode="&#x101;" horiz-adv-x="558" d="M424 121 Q414 94 395 70.5 Q376 47 350.5 29 Q325 11 293 1 Q261 -9 225 -9 Q183 -9 149.5 2.5 Q116 14 92.5 34.5 Q69 55 57 82.5 Q45 110 45 142 Q45 169 56 194 Q67 219 90.5 237.5 Q114 256 149.5 267 Q185 278 234 278 L422 278 L422 300 Q422 330 413 359 Q404 388 385.5 410.5 Q367 433 338.5 447 Q310 461 270 461 Q231 461 198 447 Q165 433 139 408 L101 445 Q134 477 177.5 496 Q221 515 270 515 Q322 515 362 497 Q402 479 428 449 Q454 419 467.5 380.5 Q481 342 481 301 L481 0 L424 0 L424 121 Z M105 142 Q105 98 140.5 70 Q176 42 233 42 Q268 42 302 54 Q336 66 362.5 90 Q389 114 405.5 149 Q422 184 422 230 L234 230 Q167 230 136 204.5 Q105 179 105 142 Z M425 613 L134 613 L134 654 L425 654 L425 613 Z " />
<glyph glyph-name="aogonek" unicode="&#x105;" horiz-adv-x="558" d="M424 121 Q414 94 395 70.5 Q376 47 350.5 29 Q325 11 293 1 Q261 -9 225 -9 L221 -9 Q191 -10 170 -32.5 Q149 -55 149 -86 Q149 -118 170.5 -140.5 Q192 -163 223 -163 Q253 -163 275 -140.5 Q297 -118 297 -86 L334 -86 Q334 -110 325 -131 Q316 -152 301 -167.5 Q286 -183 266 -192 Q246 -201 223 -201 Q200 -201 180 -192 Q160 -183 145 -167.5 Q130 -152 121 -131 Q112 -110 112 -86 Q112 -59 123 -36 Q134 -13 153 3 Q101 19 73 56 Q45 93 45 142 Q45 169 56 194 Q67 219 90.5 237.5 Q114 256 149.5 267 Q185 278 234 278 L422 278 L422 290 Q422 321 414 351.5 Q406 382 388 406.5 Q370 431 341 446 Q312 461 270 461 Q231 461 198 447 Q165 433 139 408 L101 445 Q134 477 177.5 496 Q221 515 270 515 Q322 515 362 497 Q402 479 428 449 Q454 419 467.5 380.5 Q481 342 481 301 L481 0 L424 0 L424 121 Z M105 142 Q105 97 140.5 69.5 Q176 42 233 42 Q268 42 302 54 Q336 66 362.5 90 Q389 114 405.5 149 Q422 184 422 230 L234 230 Q167 230 136 204.5 Q105 179 105 142 Z " />
<glyph glyph-name="aring" unicode="&#xe5;" horiz-adv-x="558" d="M424 121 Q414 94 395 70.5 Q376 47 350.5 29 Q325 11 293 1 Q261 -9 225 -9 Q183 -9 149.5 2.5 Q116 14 92.5 34.5 Q69 55 57 82.5 Q45 110 45 142 Q45 169 56 194 Q67 219 90.5 237.5 Q114 256 149.5 267 Q185 278 234 278 L422 278 L422 300 Q422 330 413 359 Q404 388 385.5 410.5 Q367 433 338.5 447 Q310 461 270 461 Q231 461 198 447 Q165 433 139 408 L101 445 Q134 477 177.5 496 Q221 515 270 515 Q322 515 362 497 Q402 479 428 449 Q454 419 467.5 380.5 Q481 342 481 301 L481 0 L424 0 L424 121 Z M105 142 Q105 98 140.5 70 Q176 42 233 42 Q268 42 302 54 Q336 66 362.5 90 Q389 114 405.5 149 Q422 184 422 230 L234 230 Q167 230 136 204.5 Q105 179 105 142 Z M183 672 Q183 712 211 740 Q239 768 279 768 Q319 768 347 740 Q375 712 375 672 Q375 632 347 604 Q319 576 279 576 Q239 576 211 604 Q183 632 183 672 Z M220 672 Q220 647 237 630 Q254 613 279 613 Q304 613 321 630 Q338 647 338 672 Q338 697 321 714 Q304 731 279 731 Q254 731 237 714 Q220 697 220 672 Z " />
<glyph glyph-name="atilde" unicode="&#xe3;" horiz-adv-x="558" d="M424 121 Q414 94 395 70.5 Q376 47 350.5 29 Q325 11 293 1 Q261 -9 225 -9 Q183 -9 149.5 2.5 Q116 14 92.5 34.5 Q69 55 57 82.5 Q45 110 45 142 Q45 169 56 194 Q67 219 90.5 237.5 Q114 256 149.5 267 Q185 278 234 278 L422 278 L422 300 Q422 330 413 359 Q404 388 385.5 410.5 Q367 433 338.5 447 Q310 461 270 461 Q231 461 198 447 Q165 433 139 408 L101 445 Q134 477 177.5 496 Q221 515 270 515 Q322 515 362 497 Q402 479 428 449 Q454 419 467.5 380.5 Q481 342 481 301 L481 0 L424 0 L424 121 Z M105 142 Q105 98 140.5 70 Q176 42 233 42 Q268 42 302 54 Q336 66 362.5 90 Q389 114 405.5 149 Q422 184 422 230 L234 230 Q167 230 136 204.5 Q105 179 105 142 Z M344 708 Q383 708 406 682 Q429 656 428 616 L390 616 Q390 643 377 657 Q364 671 344 671 Q326 671 312.5 659.5 Q299 648 285.5 633.5 Q272 619 255 607.5 Q238 596 213 596 Q174 596 151 622 Q128 648 129 688 L167 688 Q167 633 213 633 Q230 633 243 644.5 Q256 656 270.5 670.5 Q285 685 302 696.5 Q319 708 344 708 Z " />
<glyph glyph-name="aeacute" unicode="&#x1fd;" horiz-adv-x="968" d="M925 254 Q925 249 924.5 241.5 Q924 234 923 229 L481 229 Q481 188 498 154 Q515 120 542.5 96 Q570 72 605.5 58.5 Q641 45 677 45 Q724 45 760.5 59.5 Q797 74 825 97 L865 60 Q828 27 781 8.5 Q734 -10 676 -10 Q642 -10 607.5 0 Q573 10 542.5 29 Q512 48 487.5 76 Q463 104 448 141 Q422 69 362.5 30 Q303 -9 229 -9 Q187 -9 153 2.5 Q119 14 95 34.5 Q71 55 58 82.5 Q45 110 45 142 Q45 169 56 194 Q67 219 90.5 237.5 Q114 256 149.5 267 Q185 278 234 278 L422 278 L422 300 Q422 330 413 359 Q404 388 385.5 410.5 Q367 433 338.5 447 Q310 461 270 461 Q229 461 197 446 Q165 431 139 405 L101 442 Q133 475 177.5 495 Q222 515 270 515 Q343 515 390.5 478 Q438 441 458 386 Q471 414 492 439 Q513 464 540.5 482 Q568 500 601 510.5 Q634 521 672 521 Q730 521 777 499 Q824 477 857 440.5 Q890 404 907.5 355.5 Q925 307 925 254 Z M672 468 Q629 468 594 453 Q559 438 534 412.5 Q509 387 495 352 Q481 317 481 278 L864 278 Q864 315 850 349.5 Q836 384 811 410 Q786 436 750.5 452 Q715 468 672 468 Z M105 142 Q105 98 140.5 70 Q176 42 233 42 Q268 42 302 54 Q336 66 362.5 90 Q389 114 405.5 149 Q422 184 422 230 L234 230 Q167 230 136 204.5 Q105 179 105 142 Z M415 571 L395 591 L496 712 Q502 719 509.5 726.5 Q517 734 525 738.5 Q533 743 542 743 Q551 743 559 735 Q568 725 567.5 711 Q567 697 556 688 L415 571 Z " />
<glyph glyph-name="cacute" unicode="&#x107;" horiz-adv-x="536" d="M503 67 Q467 30 420 10 Q373 -10 316 -10 Q261 -10 212.5 11 Q164 32 128 68 Q92 104 71 152.5 Q50 201 50 256 Q50 311 71 359.5 Q92 408 128 444 Q164 480 212.5 501 Q261 522 316 522 Q375 522 424 500 Q473 478 508 440 L467 400 Q439 430 400.5 446.5 Q362 463 316 463 Q273 463 235 446.5 Q197 430 169 402 Q141 374 125 336.5 Q109 299 109 256 Q109 213 125 175 Q141 137 169 109 Q197 81 235 65 Q273 49 316 49 Q362 49 398.5 64.5 Q435 80 464 108 L503 67 Z M300 571 L280 591 L397 732 Q406 743 420 743.5 Q434 744 444 735 Q453 725 452.5 711 Q452 697 441 688 L300 571 Z " />
<glyph glyph-name="ccaron" unicode="&#x10d;" horiz-adv-x="536" d="M503 67 Q467 30 420 10 Q373 -10 316 -10 Q261 -10 212.5 11 Q164 32 128 68 Q92 104 71 152.5 Q50 201 50 256 Q50 311 71 359.5 Q92 408 128 444 Q164 480 212.5 501 Q261 522 316 522 Q375 522 424 500 Q473 478 508 440 L467 400 Q439 430 400.5 446.5 Q362 463 316 463 Q273 463 235 446.5 Q197 430 169 402 Q141 374 125 336.5 Q109 299 109 256 Q109 213 125 175 Q141 137 169 109 Q197 81 235 65 Q273 49 316 49 Q362 49 398.5 64.5 Q435 80 464 108 L503 67 Z M270 618 L377 727 L404 700 L268 564 L132 700 L160 727 L270 618 Z " />
<glyph glyph-name="ccedilla" unicode="&#xe7;" horiz-adv-x="536" d="M503 67 Q435 -3 332 -9 L332 -42 Q364 -47 387.5 -72.5 Q411 -98 411 -136 Q411 -178 382.5 -205 Q354 -232 314 -232 Q294 -232 277 -224.5 Q260 -217 246 -204 L273 -179 Q281 -186 291.5 -190.5 Q302 -195 314 -195 Q338 -195 355.5 -178.5 Q373 -162 373 -136 Q373 -110 356.5 -93.5 Q340 -77 314 -77 Q300 -77 289.5 -81.5 Q279 -86 272 -93 L246 -68 Q255 -58 267.5 -51 Q280 -44 296 -42 L296 -9 Q244 -5 199 17 Q154 39 121 74.5 Q88 110 69 156.5 Q50 203 50 256 Q50 311 71 359.5 Q92 408 128 444 Q164 480 212.5 501 Q261 522 316 522 Q375 522 424 500 Q473 478 508 440 L467 400 Q439 430 400.5 446.5 Q362 463 316 463 Q273 463 235 446.5 Q197 430 169 402 Q141 374 125 336.5 Q109 299 109 256 Q109 214 124.5 177 Q140 140 167 112.5 Q194 85 230 68 Q266 51 307 49 L324 49 Q367 50 402 65.5 Q437 81 464 108 L503 67 Z " />
<glyph glyph-name="ccircumflex" unicode="&#x109;" horiz-adv-x="536" d="M503 67 Q467 30 420 10 Q373 -10 316 -10 Q261 -10 212.5 11 Q164 32 128 68 Q92 104 71 152.5 Q50 201 50 256 Q50 311 71 359.5 Q92 408 128 444 Q164 480 212.5 501 Q261 522 316 522 Q375 522 424 500 Q473 478 508 440 L467 400 Q439 430 400.5 446.5 Q362 463 316 463 Q273 463 235 446.5 Q197 430 169 402 Q141 374 125 336.5 Q109 299 109 256 Q109 213 125 175 Q141 137 169 109 Q197 81 235 65 Q273 49 316 49 Q362 49 398.5 64.5 Q435 80 464 108 L503 67 Z M306 672 L200 564 L172 591 L308 727 L444 591 L417 564 L306 672 Z " />
<glyph glyph-name="cdotaccent" unicode="&#x10b;" horiz-adv-x="536" d="M503 67 Q467 30 420 10 Q373 -10 316 -10 Q261 -10 212.5 11 Q164 32 128 68 Q92 104 71 152.5 Q50 201 50 256 Q50 311 71 359.5 Q92 408 128 444 Q164 480 212.5 501 Q261 522 316 522 Q375 522 424 500 Q473 478 508 440 L467 400 Q439 430 400.5 446.5 Q362 463 316 463 Q273 463 235 446.5 Q197 430 169 402 Q141 374 125 336.5 Q109 299 109 256 Q109 213 125 175 Q141 137 169 109 Q197 81 235 65 Q273 49 316 49 Q362 49 398.5 64.5 Q435 80 464 108 L503 67 Z M257 663 Q257 684 272 699 Q287 714 308 714 Q329 714 344 699 Q359 684 359 663 Q359 642 344 627 Q329 612 308 612 Q287 612 272 627 Q257 642 257 663 Z " />
<glyph glyph-name="eacute" unicode="&#xe9;" horiz-adv-x="602" d="M559 254 Q559 249 558.5 241.5 Q558 234 557 229 L115 229 Q115 188 132 154 Q149 120 176.5 96 Q204 72 239 58.5 Q274 45 311 45 Q358 45 394 59.5 Q430 74 459 97 L498 60 Q461 27 414.5 8.5 Q368 -10 310 -10 Q263 -10 217 7 Q171 24 134.5 58 Q98 92 75.5 141.5 Q53 191 53 256 Q53 311 71 359.5 Q89 408 122 444 Q155 480 201.5 500.5 Q248 521 305 521 Q364 521 411 499 Q458 477 491 440.5 Q524 404 541.5 355.5 Q559 307 559 254 Z M306 468 Q263 468 228 453 Q193 438 168 412.5 Q143 387 129 352 Q115 317 115 278 L498 278 Q498 315 484 349.5 Q470 384 444.5 410 Q419 436 384 452 Q349 468 306 468 Z M303 571 L283 591 L383 712 Q389 719 397 726.5 Q405 734 413 738.5 Q421 743 430 743 Q439 743 447 735 Q456 725 455.5 711 Q455 697 444 688 L303 571 Z " />
<glyph glyph-name="ebreve" unicode="&#x115;" horiz-adv-x="602" d="M559 254 Q559 249 558.5 241.5 Q558 234 557 229 L115 229 Q115 188 132 154 Q149 120 176.5 96 Q204 72 239 58.5 Q274 45 311 45 Q358 45 394 59.5 Q430 74 459 97 L498 60 Q461 27 414.5 8.5 Q368 -10 310 -10 Q263 -10 217 7 Q171 24 134.5 58 Q98 92 75.5 141.5 Q53 191 53 256 Q53 311 71 359.5 Q89 408 122 444 Q155 480 201.5 500.5 Q248 521 305 521 Q364 521 411 499 Q458 477 491 440.5 Q524 404 541.5 355.5 Q559 307 559 254 Z M184 696 L226 696 L226 679 Q226 647 247.5 625.5 Q269 604 301 604 Q333 604 354.5 625 Q376 646 376 679 L376 696 L418 696 L418 681 Q418 657 409 635.5 Q400 614 384 598 Q368 582 346.5 573 Q325 564 301 564 Q276 564 254.5 573.5 Q233 583 217.5 598.5 Q202 614 193 635.5 Q184 657 184 681 L184 696 Z M306 468 Q263 468 228 453 Q193 438 168 412.5 Q143 387 129 352 Q115 317 115 278 L498 278 Q498 315 484 349.5 Q470 384 444.5 410 Q419 436 384 452 Q349 468 306 468 Z " />
<glyph glyph-name="ecaron" unicode="&#x11b;" horiz-adv-x="602" d="M559 254 Q559 249 558.5 241.5 Q558 234 557 229 L115 229 Q115 188 132 154 Q149 120 176.5 96 Q204 72 239 58.5 Q274 45 311 45 Q358 45 394 59.5 Q430 74 459 97 L498 60 Q461 27 414.5 8.5 Q368 -10 310 -10 Q263 -10 217 7 Q171 24 134.5 58 Q98 92 75.5 141.5 Q53 191 53 256 Q53 311 71 359.5 Q89 408 122 444 Q155 480 201.5 500.5 Q248 521 305 521 Q364 521 411 499 Q458 477 491 440.5 Q524 404 541.5 355.5 Q559 307 559 254 Z M303 618 L410 727 L437 700 L301 564 L165 700 L193 727 L303 618 Z M306 468 Q263 468 228 453 Q193 438 168 412.5 Q143 387 129 352 Q115 317 115 278 L498 278 Q498 315 484 349.5 Q470 384 444.5 410 Q419 436 384 452 Q349 468 306 468 Z " />
<glyph glyph-name="ecircumflex" unicode="&#xea;" horiz-adv-x="602" d="M559 254 Q559 249 558.5 241.5 Q558 234 557 229 L115 229 Q115 188 132 154 Q149 120 176.5 96 Q204 72 239 58.5 Q274 45 311 45 Q358 45 394 59.5 Q430 74 459 97 L498 60 Q461 27 414.5 8.5 Q368 -10 310 -10 Q263 -10 217 7 Q171 24 134.5 58 Q98 92 75.5 141.5 Q53 191 53 256 Q53 311 71 359.5 Q89 408 122 444 Q155 480 201.5 500.5 Q248 521 305 521 Q364 521 411 499 Q458 477 491 440.5 Q524 404 541.5 355.5 Q559 307 559 254 Z M299 672 L193 564 L165 591 L301 727 L437 591 L410 564 L299 672 Z M306 468 Q263 468 228 453 Q193 438 168 412.5 Q143 387 129 352 Q115 317 115 278 L498 278 Q498 315 484 349.5 Q470 384 444.5 410 Q419 436 384 452 Q349 468 306 468 Z " />
<glyph glyph-name="edieresis" unicode="&#xeb;" horiz-adv-x="602" d="M559 254 Q559 249 558.5 241.5 Q558 234 557 229 L115 229 Q115 188 132 154 Q149 120 176.5 96 Q204 72 239 58.5 Q274 45 311 45 Q358 45 394 59.5 Q430 74 459 97 L498 60 Q461 27 414.5 8.5 Q368 -10 310 -10 Q263 -10 217 7 Q171 24 134.5 58 Q98 92 75.5 141.5 Q53 191 53 256 Q53 311 71 359.5 Q89 408 122 444 Q155 480 201.5 500.5 Q248 521 305 521 Q364 521 411 499 Q458 477 491 440.5 Q524 404 541.5 355.5 Q559 307 559 254 Z M342 663 Q342 684 357 699 Q372 714 393 714 Q413 714 428 699 Q443 684 443 663 Q443 642 428 627 Q413 612 393 612 Q372 612 357 627 Q342 642 342 663 Z M159 663 Q159 684 174 699 Q189 714 210 714 Q230 714 245 699 Q260 684 260 663 Q260 642 245 627 Q230 612 210 612 Q189 612 174 627 Q159 642 159 663 Z M306 468 Q263 468 228 453 Q193 438 168 412.5 Q143 387 129 352 Q115 317 115 278 L498 278 Q498 315 484 349.5 Q470 384 444.5 410 Q419 436 384 452 Q349 468 306 468 Z " />
<glyph glyph-name="edotaccent" unicode="&#x117;" horiz-adv-x="602" d="M559 254 Q559 249 558.5 241.5 Q558 234 557 229 L115 229 Q115 188 132 154 Q149 120 176.5 96 Q204 72 239 58.5 Q274 45 311 45 Q358 45 394 59.5 Q430 74 459 97 L498 60 Q461 27 414.5 8.5 Q368 -10 310 -10 Q263 -10 217 7 Q171 24 134.5 58 Q98 92 75.5 141.5 Q53 191 53 256 Q53 311 71 359.5 Q89 408 122 444 Q155 480 201.5 500.5 Q248 521 305 521 Q364 521 411 499 Q458 477 491 440.5 Q524 404 541.5 355.5 Q559 307 559 254 Z M250 663 Q250 684 265 699 Q280 714 301 714 Q322 714 337 699 Q352 684 352 663 Q352 642 337 627 Q322 612 301 612 Q280 612 265 627 Q250 642 250 663 Z M306 468 Q263 468 228 453 Q193 438 168 412.5 Q143 387 129 352 Q115 317 115 278 L498 278 Q498 315 484 349.5 Q470 384 444.5 410 Q419 436 384 452 Q349 468 306 468 Z " />
<glyph glyph-name="egrave" unicode="&#xe8;" horiz-adv-x="602" d="M559 254 Q559 249 558.5 241.5 Q558 234 557 229 L115 229 Q115 188 132 154 Q149 120 176.5 96 Q204 72 239 58.5 Q274 45 311 45 Q358 45 394 59.5 Q430 74 459 97 L498 60 Q461 27 414.5 8.5 Q368 -10 310 -10 Q263 -10 217 7 Q171 24 134.5 58 Q98 92 75.5 141.5 Q53 191 53 256 Q53 311 71 359.5 Q89 408 122 444 Q155 480 201.5 500.5 Q248 521 305 521 Q364 521 411 499 Q458 477 491 440.5 Q524 404 541.5 355.5 Q559 307 559 254 Z M306 468 Q263 468 228 453 Q193 438 168 412.5 Q143 387 129 352 Q115 317 115 278 L498 278 Q498 315 484 349.5 Q470 384 444.5 410 Q419 436 384 452 Q349 468 306 468 Z M159 688 Q148 697 147 711 Q146 725 155 735 Q163 743 175 743.5 Q187 744 195 737 Q206 727 216 716 L319 591 L299 571 L159 688 Z " />
<glyph glyph-name="emacron" unicode="&#x113;" horiz-adv-x="602" d="M559 254 Q559 249 558.5 241.5 Q558 234 557 229 L115 229 Q115 188 132 154 Q149 120 176.5 96 Q204 72 239 58.5 Q274 45 311 45 Q358 45 394 59.5 Q430 74 459 97 L498 60 Q461 27 414.5 8.5 Q368 -10 310 -10 Q263 -10 217 7 Q171 24 134.5 58 Q98 92 75.5 141.5 Q53 191 53 256 Q53 311 71 359.5 Q89 408 122 444 Q155 480 201.5 500.5 Q248 521 305 521 Q364 521 411 499 Q458 477 491 440.5 Q524 404 541.5 355.5 Q559 307 559 254 Z M447 613 L156 613 L156 654 L447 654 L447 613 Z M306 468 Q263 468 228 453 Q193 438 168 412.5 Q143 387 129 352 Q115 317 115 278 L498 278 Q498 315 484 349.5 Q470 384 444.5 410 Q419 436 384 452 Q349 468 306 468 Z " />
<glyph glyph-name="eogonek" unicode="&#x119;" horiz-adv-x="602" d="M198 -87 Q198 -60 209 -37.5 Q220 -15 238 1 Q200 11 166.5 32.5 Q133 54 108 86 Q83 118 68 160.5 Q53 203 53 256 Q53 311 71 359.5 Q89 408 122 444 Q155 480 201.5 500.5 Q248 521 305 521 Q364 521 411 499 Q458 477 491 440.5 Q524 404 541.5 355.5 Q559 307 559 254 Q559 249 558.5 241.5 Q558 234 557 229 L115 229 Q115 188 132 154 Q149 120 176.5 96 Q204 72 239 58.5 Q274 45 311 45 Q358 45 394 59.5 Q430 74 459 97 L498 60 Q461 27 414.5 8.5 Q368 -10 310 -10 L306 -10 Q276 -12 256 -34.5 Q236 -57 236 -87 Q236 -119 257.5 -141.5 Q279 -164 310 -164 Q340 -164 361.5 -141.5 Q383 -119 383 -87 L421 -87 Q421 -111 412 -132 Q403 -153 388 -168.5 Q373 -184 353 -193 Q333 -202 310 -202 Q287 -202 266.5 -193 Q246 -184 231 -168.5 Q216 -153 207 -132 Q198 -111 198 -87 Z M306 468 Q263 468 228 453 Q193 438 168 412.5 Q143 387 129 352 Q115 317 115 278 L498 278 Q498 315 484 349.5 Q470 384 444.5 410 Q419 436 384 452 Q349 468 306 468 Z " />
<glyph glyph-name="fi" unicode="&#xfb01;" horiz-adv-x="580" d="M425 616 Q425 641 418.5 665 Q412 689 397.5 708.5 Q383 728 359 740 Q335 752 300 752 Q274 752 251.5 742.5 Q229 733 212.5 715 Q196 697 186 672 Q176 647 176 616 L176 512 L341 512 L341 460 L176 460 L176 0 L117 0 L117 460 L20 460 L20 512 L117 512 L117 616 Q117 654 130 689 Q143 724 167 750.5 Q191 777 225 792.5 Q259 808 301 808 Q346 808 380 792.5 Q414 777 437.5 750.5 Q461 724 473 689.5 Q485 655 485 616 L425 616 Z M485 512 L485 0 L425 0 L425 512 L485 512 Z " />
<glyph glyph-name="dotlessi" unicode="&#x131;" horiz-adv-x="248" d="M154 512 L154 0 L94 0 L94 512 L154 512 Z " />
<glyph glyph-name="iacute" unicode="&#xed;" horiz-adv-x="248" d="M154 512 L154 0 L94 0 L94 512 L154 512 Z M126 571 L106 591 L223 732 Q232 743 246 743.5 Q260 744 270 735 Q279 725 278.5 711 Q278 697 267 688 L126 571 Z " />
<glyph glyph-name="ibreve" unicode="&#x12d;" horiz-adv-x="248" d="M154 512 L154 0 L94 0 L94 512 L154 512 Z M7 696 L49 696 L49 679 Q49 647 70.5 625.5 Q92 604 124 604 Q156 604 177.5 625.5 Q199 647 199 679 L199 696 L241 696 L241 681 Q241 657 232 635.5 Q223 614 207 598 Q191 582 169.5 573 Q148 564 124 564 Q100 564 78.5 573 Q57 582 41 598 Q25 614 16 635.5 Q7 657 7 681 L7 696 Z " />
<glyph glyph-name="icircumflex" unicode="&#xee;" horiz-adv-x="248" d="M154 512 L154 0 L94 0 L94 512 L154 512 Z M122 672 L16 564 L-12 591 L124 727 L260 591 L233 564 L122 672 Z " />
<glyph glyph-name="idieresis" unicode="&#xef;" horiz-adv-x="248" d="M154 512 L154 0 L94 0 L94 512 L154 512 Z M-18 663 Q-18 684 -3 699 Q12 714 33 714 Q53 714 68 699 Q83 684 83 663 Q83 642 68 627 Q53 612 33 612 Q12 612 -3 627 Q-18 642 -18 663 Z M165 663 Q165 684 180 699 Q195 714 216 714 Q236 714 251 699 Q266 684 266 663 Q266 642 251 627 Q236 612 216 612 Q195 612 180 627 Q165 642 165 663 Z " />
<glyph glyph-name="igrave" unicode="&#xec;" horiz-adv-x="248" d="M154 512 L154 0 L94 0 L94 512 L154 512 Z M-18 688 Q-29 697 -30 711 Q-31 725 -22 735 Q-12 744 2.5 743.5 Q17 743 25 732 L142 591 L122 571 L-18 688 Z " />
<glyph glyph-name="imacron" unicode="&#x12b;" horiz-adv-x="248" d="M154 512 L154 0 L94 0 L94 512 L154 512 Z M270 613 L-21 613 L-21 654 L270 654 L270 613 Z " />
<glyph glyph-name="iogonek" unicode="&#x12f;" horiz-adv-x="248" d="M13 -77 Q13 -37 36 -7 Q59 23 94 31 L94 512 L154 512 L154 0 L120 0 Q91 -2 70.5 -24.5 Q50 -47 50 -77 Q50 -109 71.5 -131.5 Q93 -154 124 -154 Q154 -154 176 -131.5 Q198 -109 198 -77 L235 -77 Q235 -101 226 -122 Q217 -143 202 -158.5 Q187 -174 167 -183 Q147 -192 124 -192 Q101 -192 81 -183 Q61 -174 46 -158.5 Q31 -143 22 -122 Q13 -101 13 -77 Z M77 716 Q77 736 90.5 749.5 Q104 763 124 763 Q144 763 157.5 749.5 Q171 736 171 716 Q171 696 157.5 682 Q144 668 124 668 Q104 668 90.5 682 Q77 696 77 716 Z " />
<glyph glyph-name="itilde" unicode="&#x129;" horiz-adv-x="248" d="M154 512 L154 0 L94 0 L94 512 L154 512 Z M190 708 Q228 708 251.5 682 Q275 656 273 616 L236 616 Q236 643 223 657 Q210 671 190 671 Q172 671 158.5 659.5 Q145 648 131 633.5 Q117 619 100.5 607.5 Q84 596 59 596 Q20 596 -3 622 Q-26 648 -25 688 L13 688 Q13 633 59 633 Q76 633 89 644.5 Q102 656 116 670.5 Q130 685 147.5 696.5 Q165 708 190 708 Z " />
<glyph glyph-name="ij" unicode="&#x133;" horiz-adv-x="502" d="M154 512 L154 0 L94 0 L94 512 L154 512 Z M77 716 Q77 736 90.5 749.5 Q104 763 124 763 Q144 763 157.5 749.5 Q171 736 171 716 Q171 696 157.5 682 Q144 668 124 668 Q104 668 90.5 682 Q77 696 77 716 Z M346 -242 L346 512 L405 512 L405 -242 L346 -242 Z M328 716 Q328 736 341.5 749.5 Q355 763 375 763 Q395 763 408.5 749.5 Q422 736 422 716 Q422 696 408.5 682 Q395 668 375 668 Q355 668 341.5 682 Q328 696 328 716 Z " />
<glyph glyph-name="lacute" unicode="&#x13a;" horiz-adv-x="234" d="M87 0 L87 768 L147 768 L147 0 L87 0 Z M117 794 L98 814 L215 955 Q223 966 237.5 966.5 Q252 967 262 958 Q271 948 270 934 Q269 920 258 911 L117 794 Z " />
<glyph glyph-name="lcaron" unicode="&#x13e;" horiz-adv-x="401" d="M87 0 L87 768 L147 768 L147 0 L87 0 Z M271 548 L312 635 Q295 639 283 652.5 Q271 666 271 685 Q271 706 285.5 721 Q300 736 321 736 Q335 736 346 729 Q357 722 363 711 Q369 700 370 686 Q371 672 364 659 L305 532 L271 548 Z " />
<glyph glyph-name="lcommaaccent" unicode="&#x13c;" horiz-adv-x="234" d="M87 0 L87 768 L147 768 L147 0 L87 0 Z M73 -222 L108 -146 Q94 -143 84.5 -131.5 Q75 -120 75 -105 Q75 -88 86.5 -76 Q98 -64 115 -64 Q127 -64 136 -69.5 Q145 -75 150 -84 Q155 -93 155.5 -104 Q156 -115 151 -126 L100 -235 L73 -222 Z " />
<glyph glyph-name="ldot" unicode="&#x140;" horiz-adv-x="397" d="M269 371 Q269 391 284 406 Q299 421 320 421 Q340 421 355 406 Q370 391 370 371 Q370 350 355 335 Q340 320 320 320 Q299 320 284 335 Q269 350 269 371 Z M87 0 L87 768 L147 768 L147 0 L87 0 Z " />
<glyph glyph-name="lslash" unicode="&#x142;" horiz-adv-x="234" d="M87 0 L87 316 L-30 285 L-40 322 L87 356 L87 768 L147 768 L147 372 L263 403 L273 366 L147 333 L147 0 L87 0 Z " />
<glyph glyph-name="kcommaaccent" unicode="&#x137;" horiz-adv-x="528" d="M146 768 L146 284 L292 284 L430 512 L494 512 L340 256 L494 0 L430 0 L292 228 L146 228 L146 0 L87 0 L87 768 L146 768 Z M220 -222 L256 -146 Q242 -143 232.5 -131.5 Q223 -120 223 -105 Q223 -88 234.5 -76 Q246 -64 263 -64 Q274 -64 283 -69.5 Q292 -75 297 -84 Q302 -93 302.5 -104 Q303 -115 298 -126 L247 -235 L220 -222 Z " />
<glyph glyph-name="hbar" unicode="&#x127;" horiz-adv-x="662" d="M592 0 L532 0 L532 266 Q532 306 517 341 Q502 376 476 402 Q450 428 415 443 Q380 458 340 458 Q301 458 266 441 Q231 424 204.5 395 Q178 366 162.5 327 Q147 288 147 244 L147 0 L87 0 L87 584 L-27 553 L-37 590 L87 623 L87 768 L147 768 L147 639 L266 671 L276 634 L147 600 L147 375 Q160 406 180.5 432 Q201 458 228 477 Q255 496 286.5 506 Q318 516 353 515 Q402 515 445.5 495 Q489 475 521.5 440.5 Q554 406 573 359.5 Q592 313 592 259 L592 0 Z " />
<glyph glyph-name="hcircumflex" unicode="&#x125;" horiz-adv-x="662" d="M592 0 L532 0 L532 266 Q532 306 517 341 Q502 376 476 402 Q450 428 415 443 Q380 458 340 458 Q301 458 266 441 Q231 424 204.5 395 Q178 366 162.5 327 Q147 288 147 244 L147 0 L87 0 L87 768 L147 768 L147 375 Q160 406 180.5 432 Q201 458 228 477 Q255 496 286.5 506 Q318 516 353 515 Q402 515 445.5 495 Q489 475 521.5 440.5 Q554 406 573 359.5 Q592 313 592 259 L592 0 Z M358 672 L252 564 L224 591 L360 727 L496 591 L469 564 L358 672 Z " />
<glyph glyph-name="dcaron" unicode="&#x10f;" horiz-adv-x="811" d="M53 256 Q53 309 72.5 356 Q92 403 126.5 437.5 Q161 472 208.5 492 Q256 512 311 512 Q342 512 371 503 Q400 494 424.5 479.5 Q449 465 468 446 Q487 427 498 406 L498 768 L557 768 L557 0 L498 0 L498 107 Q487 87 468.5 67.5 Q450 48 426 33 Q402 18 373 9 Q344 0 311 0 Q256 0 208.5 20 Q161 40 126.5 74.5 Q92 109 72.5 156 Q53 203 53 256 Z M511 256 Q511 299 496 336 Q481 373 455 400 Q429 427 393.5 442.5 Q358 458 317 458 Q274 458 237 442.5 Q200 427 172.5 400 Q145 373 129 336 Q113 299 113 256 Q113 213 129 176 Q145 139 172.5 112 Q200 85 237 69.5 Q274 54 317 54 Q358 54 393.5 69.5 Q429 85 455 112 Q481 139 496 176 Q511 213 511 256 Z M681 548 L722 635 Q705 639 693 652.5 Q681 666 681 685 Q681 706 695.5 721 Q710 736 731 736 Q745 736 756 729 Q767 722 773.5 711 Q780 700 780.5 686 Q781 672 774 659 L715 532 L681 548 Z " />
<glyph glyph-name="nacute" unicode="&#x144;" horiz-adv-x="652" d="M581 0 L522 0 L522 276 Q522 316 508.5 351 Q495 386 471 412 Q447 438 413 453 Q379 468 337 468 Q298 468 263.5 452.5 Q229 437 203.5 410 Q178 383 162.5 345.5 Q147 308 146 264 L146 0 L87 0 L87 512 L146 512 L146 390 Q154 412 172 435 Q190 458 216 477.5 Q242 497 275 509.5 Q308 522 346 522 Q397 522 440.5 503.5 Q484 485 515 451 Q546 417 563.5 370.5 Q581 324 581 268 L581 0 Z M329 571 L309 591 L427 732 Q435 743 449 743.5 Q463 744 473 735 Q483 725 482 711 Q481 697 470 688 L329 571 Z " />
<glyph glyph-name="napostrophe" unicode="&#x149;" horiz-adv-x="652" d="M581 0 L522 0 L522 276 Q522 316 508.5 351 Q495 386 471 412 Q447 438 413 453 Q379 468 337 468 Q298 468 263.5 452.5 Q229 437 203.5 410 Q178 383 162.5 345.5 Q147 308 146 264 L146 0 L87 0 L87 512 L146 512 L146 390 Q154 412 172 435 Q190 458 216 477.5 Q242 497 275 509.5 Q308 522 346 522 Q397 522 440.5 503.5 Q484 485 515 451 Q546 417 563.5 370.5 Q581 324 581 268 L581 0 Z M87 615 L128 702 Q111 706 99 719.5 Q87 733 87 752 Q87 773 101.5 788 Q116 803 137 803 Q151 803 162 796 Q173 789 179.5 778 Q186 767 186.5 753 Q187 739 180 726 L121 599 L87 615 Z " />
<glyph glyph-name="ncaron" unicode="&#x148;" horiz-adv-x="652" d="M581 0 L522 0 L522 276 Q522 316 508.5 351 Q495 386 471 412 Q447 438 413 453 Q379 468 337 468 Q298 468 263.5 452.5 Q229 437 203.5 410 Q178 383 162.5 345.5 Q147 308 146 264 L146 0 L87 0 L87 512 L146 512 L146 390 Q154 412 172 435 Q190 458 216 477.5 Q242 497 275 509.5 Q308 522 346 522 Q397 522 440.5 503.5 Q484 485 515 451 Q546 417 563.5 370.5 Q581 324 581 268 L581 0 Z M349 618 L456 727 L483 700 L347 564 L211 700 L239 727 L349 618 Z " />
<glyph glyph-name="ncommaaccent" unicode="&#x146;" horiz-adv-x="652" d="M581 0 L522 0 L522 276 Q522 316 508.5 351 Q495 386 471 412 Q447 438 413 453 Q379 468 337 468 Q298 468 263.5 452.5 Q229 437 203.5 410 Q178 383 162.5 345.5 Q147 308 146 264 L146 0 L87 0 L87 512 L146 512 L146 390 Q154 412 172 435 Q190 458 216 477.5 Q242 497 275 509.5 Q308 522 346 522 Q397 522 440.5 503.5 Q484 485 515 451 Q546 417 563.5 370.5 Q581 324 581 268 L581 0 Z M284 -222 L319 -146 Q305 -143 295.5 -131.5 Q286 -120 286 -105 Q286 -88 297.5 -76 Q309 -64 326 -64 Q338 -64 347 -69.5 Q356 -75 361 -84 Q366 -93 366.5 -104 Q367 -115 362 -126 L311 -235 L284 -222 Z " />
<glyph glyph-name="ntilde" unicode="&#xf1;" horiz-adv-x="652" d="M581 0 L522 0 L522 276 Q522 316 508.5 351 Q495 386 471 412 Q447 438 413 453 Q379 468 337 468 Q298 468 263.5 452.5 Q229 437 203.5 410 Q178 383 162.5 345.5 Q147 308 146 264 L146 0 L87 0 L87 512 L146 512 L146 390 Q154 412 172 435 Q190 458 216 477.5 Q242 497 275 509.5 Q308 522 346 522 Q397 522 440.5 503.5 Q484 485 515 451 Q546 417 563.5 370.5 Q581 324 581 268 L581 0 Z M393 708 Q431 708 454.5 682 Q478 656 476 616 L438 616 Q438 643 425.5 657 Q413 671 393 671 Q375 671 361.5 659.5 Q348 648 334 633.5 Q320 619 303 607.5 Q286 596 261 596 Q222 596 199.5 622 Q177 648 177 688 L216 688 Q216 633 261 633 Q278 633 291 644.5 Q304 656 318.5 670.5 Q333 685 350.5 696.5 Q368 708 393 708 Z " />
<glyph glyph-name="oacute" unicode="&#xf3;" horiz-adv-x="625" d="M50 256 Q50 311 70.5 358.5 Q91 406 126.5 441.5 Q162 477 210 497.5 Q258 518 312 518 Q367 518 415 497.5 Q463 477 498.5 441.5 Q534 406 554.5 358.5 Q575 311 575 256 Q575 201 554.5 153 Q534 105 498.5 69.5 Q463 34 415 13.5 Q367 -7 312 -7 Q258 -7 210 13.5 Q162 34 126.5 69.5 Q91 105 70.5 153 Q50 201 50 256 Z M109 256 Q109 214 125 176.5 Q141 139 169 111.5 Q197 84 233.5 68 Q270 52 312 52 Q354 52 391 68 Q428 84 456 111.5 Q484 139 500 176.5 Q516 214 516 256 Q516 298 500 335 Q484 372 456 400 Q428 428 391 444 Q354 460 312 460 Q270 460 233.5 444 Q197 428 169 400 Q141 372 125 335 Q109 298 109 256 Z M314 571 L294 591 L412 732 Q420 743 434 743.5 Q448 744 458 735 Q468 725 467 711 Q466 697 455 688 L314 571 Z " />
<glyph glyph-name="obreve" unicode="&#x14f;" horiz-adv-x="625" d="M50 256 Q50 311 70.5 358.5 Q91 406 126.5 441.5 Q162 477 210 497.5 Q258 518 312 518 Q367 518 415 497.5 Q463 477 498.5 441.5 Q534 406 554.5 358.5 Q575 311 575 256 Q575 201 554.5 153 Q534 105 498.5 69.5 Q463 34 415 13.5 Q367 -7 312 -7 Q258 -7 210 13.5 Q162 34 126.5 69.5 Q91 105 70.5 153 Q50 201 50 256 Z M109 256 Q109 214 125 176.5 Q141 139 169 111.5 Q197 84 233.5 68 Q270 52 312 52 Q354 52 391 68 Q428 84 456 111.5 Q484 139 500 176.5 Q516 214 516 256 Q516 298 500 335 Q484 372 456 400 Q428 428 391 444 Q354 460 312 460 Q270 460 233.5 444 Q197 428 169 400 Q141 372 125 335 Q109 298 109 256 Z M195 696 L237 696 L237 679 Q237 647 258.5 625.5 Q280 604 312 604 Q344 604 366 625.5 Q388 647 388 679 L388 696 L429 696 L429 681 Q429 657 420 635.5 Q411 614 395 598 Q379 582 357.5 573 Q336 564 312 564 Q288 564 266.5 573 Q245 582 229 598 Q213 614 204 635.5 Q195 657 195 681 L195 696 Z " />
<glyph glyph-name="ocircumflex" unicode="&#xf4;" horiz-adv-x="625" d="M50 256 Q50 311 70.5 358.5 Q91 406 126.5 441.5 Q162 477 210 497.5 Q258 518 312 518 Q367 518 415 497.5 Q463 477 498.5 441.5 Q534 406 554.5 358.5 Q575 311 575 256 Q575 201 554.5 153 Q534 105 498.5 69.5 Q463 34 415 13.5 Q367 -7 312 -7 Q258 -7 210 13.5 Q162 34 126.5 69.5 Q91 105 70.5 153 Q50 201 50 256 Z M109 256 Q109 214 125 176.5 Q141 139 169 111.5 Q197 84 233.5 68 Q270 52 312 52 Q354 52 391 68 Q428 84 456 111.5 Q484 139 500 176.5 Q516 214 516 256 Q516 298 500 335 Q484 372 456 400 Q428 428 391 444 Q354 460 312 460 Q270 460 233.5 444 Q197 428 169 400 Q141 372 125 335 Q109 298 109 256 Z M311 672 L204 564 L176 591 L312 727 L448 591 L421 564 L311 672 Z " />
<glyph glyph-name="odieresis" unicode="&#xf6;" horiz-adv-x="625" d="M50 256 Q50 311 70.5 358.5 Q91 406 126.5 441.5 Q162 477 210 497.5 Q258 518 312 518 Q367 518 415 497.5 Q463 477 498.5 441.5 Q534 406 554.5 358.5 Q575 311 575 256 Q575 201 554.5 153 Q534 105 498.5 69.5 Q463 34 415 13.5 Q367 -7 312 -7 Q258 -7 210 13.5 Q162 34 126.5 69.5 Q91 105 70.5 153 Q50 201 50 256 Z M109 256 Q109 214 125 176.5 Q141 139 169 111.5 Q197 84 233.5 68 Q270 52 312 52 Q354 52 391 68 Q428 84 456 111.5 Q484 139 500 176.5 Q516 214 516 256 Q516 298 500 335 Q484 372 456 400 Q428 428 391 444 Q354 460 312 460 Q270 460 233.5 444 Q197 428 169 400 Q141 372 125 335 Q109 298 109 256 Z M170 663 Q170 684 185 699 Q200 714 221 714 Q242 714 257 699 Q272 684 272 663 Q272 642 257 627 Q242 612 221 612 Q200 612 185 627 Q170 642 170 663 Z M353 663 Q353 684 368 699 Q383 714 404 714 Q425 714 440 699 Q455 684 455 663 Q455 642 440 627 Q425 612 404 612 Q383 612 368 627 Q353 642 353 663 Z " />
<glyph glyph-name="ograve" unicode="&#xf2;" horiz-adv-x="625" d="M50 256 Q50 311 70.5 358.5 Q91 406 126.5 441.5 Q162 477 210 497.5 Q258 518 312 518 Q367 518 415 497.5 Q463 477 498.5 441.5 Q534 406 554.5 358.5 Q575 311 575 256 Q575 201 554.5 153 Q534 105 498.5 69.5 Q463 34 415 13.5 Q367 -7 312 -7 Q258 -7 210 13.5 Q162 34 126.5 69.5 Q91 105 70.5 153 Q50 201 50 256 Z M109 256 Q109 214 125 176.5 Q141 139 169 111.5 Q197 84 233.5 68 Q270 52 312 52 Q354 52 391 68 Q428 84 456 111.5 Q484 139 500 176.5 Q516 214 516 256 Q516 298 500 335 Q484 372 456 400 Q428 428 391 444 Q354 460 312 460 Q270 460 233.5 444 Q197 428 169 400 Q141 372 125 335 Q109 298 109 256 Z M170 688 Q159 697 158 711 Q157 725 167 735 Q177 744 191 743.5 Q205 743 213 732 L331 591 L311 571 L170 688 Z " />
<glyph glyph-name="ohungarumlaut" unicode="&#x151;" horiz-adv-x="625" d="M50 256 Q50 311 70.5 358.5 Q91 406 126.5 441.5 Q162 477 210 497.5 Q258 518 312 518 Q367 518 415 497.5 Q463 477 498.5 441.5 Q534 406 554.5 358.5 Q575 311 575 256 Q575 201 554.5 153 Q534 105 498.5 69.5 Q463 34 415 13.5 Q367 -7 312 -7 Q258 -7 210 13.5 Q162 34 126.5 69.5 Q91 105 70.5 153 Q50 201 50 256 Z M109 256 Q109 214 125 176.5 Q141 139 169 111.5 Q197 84 233.5 68 Q270 52 312 52 Q354 52 391 68 Q428 84 456 111.5 Q484 139 500 176.5 Q516 214 516 256 Q516 298 500 335 Q484 372 456 400 Q428 428 391 444 Q354 460 312 460 Q270 460 233.5 444 Q197 428 169 400 Q141 372 125 335 Q109 298 109 256 Z M228 571 L208 591 L325 732 Q333 743 347.5 743.5 Q362 744 372 735 Q381 725 380 711 Q379 697 368 688 L228 571 Z M401 571 L381 591 L498 732 Q506 743 520.5 743.5 Q535 744 545 735 Q554 725 553 711 Q552 697 541 688 L401 571 Z " />
<glyph glyph-name="omacron" unicode="&#x14d;" horiz-adv-x="625" d="M50 256 Q50 311 70.5 358.5 Q91 406 126.5 441.5 Q162 477 210 497.5 Q258 518 312 518 Q367 518 415 497.5 Q463 477 498.5 441.5 Q534 406 554.5 358.5 Q575 311 575 256 Q575 201 554.5 153 Q534 105 498.5 69.5 Q463 34 415 13.5 Q367 -7 312 -7 Q258 -7 210 13.5 Q162 34 126.5 69.5 Q91 105 70.5 153 Q50 201 50 256 Z M109 256 Q109 214 125 176.5 Q141 139 169 111.5 Q197 84 233.5 68 Q270 52 312 52 Q354 52 391 68 Q428 84 456 111.5 Q484 139 500 176.5 Q516 214 516 256 Q516 298 500 335 Q484 372 456 400 Q428 428 391 444 Q354 460 312 460 Q270 460 233.5 444 Q197 428 169 400 Q141 372 125 335 Q109 298 109 256 Z M458 613 L167 613 L167 654 L458 654 L458 613 Z " />
<glyph glyph-name="gbreve" unicode="&#x11f;" horiz-adv-x="557" d="M68 329 Q68 372 84.5 410 Q101 448 129 476.5 Q157 505 194.5 521.5 Q232 538 275 538 Q313 538 347 525 Q381 512 408 489 Q437 502 467.5 507 Q498 512 535 512 L543 512 L543 460 L429 460 Q454 435 469 401 Q484 367 484 329 Q484 286 467.5 248.5 Q451 211 422.5 183 Q394 155 356 138.5 Q318 122 275 122 Q241 122 207 135.5 Q173 149 150 170 Q114 158 94.5 136.5 Q75 115 75 84 Q75 51 96 33 Q117 15 156 15 L353 15 Q439 15 482.5 -23 Q526 -61 526 -124 Q526 -157 512.5 -183.5 Q499 -210 474.5 -228 Q450 -246 416 -256 Q382 -266 340 -266 Q287 -266 242.5 -250.5 Q198 -235 166 -208 Q134 -181 116.5 -143.5 Q99 -106 102 -62 L131 -41 Q80 -37 49 -7.5 Q18 22 19 73 Q20 115 47.5 148.5 Q75 182 117 197 Q94 224 81 257.5 Q68 291 68 329 Z M123 329 Q123 297 135 269.5 Q147 242 167.5 221.5 Q188 201 215.5 189 Q243 177 275 177 Q307 177 335 189 Q363 201 383.5 221.5 Q404 242 416 269.5 Q428 297 428 329 Q428 361 416 389 Q404 417 383.5 437.5 Q363 458 335 470 Q307 482 275 482 Q243 482 215.5 470 Q188 458 167.5 437.5 Q147 417 135 389 Q123 361 123 329 Z M340 -211 Q397 -211 432 -189.5 Q467 -168 467 -124 Q467 -86 438 -63.5 Q409 -41 353 -41 L150 -41 Q148 -78 162 -109 Q176 -140 201.5 -162.5 Q227 -185 262.5 -198 Q298 -211 340 -211 Z M162 696 L204 696 L204 679 Q204 647 225.5 625.5 Q247 604 279 604 Q311 604 332.5 625.5 Q354 647 354 679 L354 696 L396 696 L396 681 Q396 657 387 635.5 Q378 614 362 598 Q346 582 324.5 573 Q303 564 279 564 Q255 564 233.5 573 Q212 582 196 598 Q180 614 171 635.5 Q162 657 162 681 L162 696 Z " />
<glyph glyph-name="gcircumflex" unicode="&#x11d;" horiz-adv-x="557" d="M68 329 Q68 372 84.5 410 Q101 448 129 476.5 Q157 505 194.5 521.5 Q232 538 275 538 Q313 538 347 525 Q381 512 408 489 Q437 502 467.5 507 Q498 512 535 512 L543 512 L543 460 L429 460 Q454 435 469 401 Q484 367 484 329 Q484 286 467.5 248.5 Q451 211 422.5 183 Q394 155 356 138.5 Q318 122 275 122 Q241 122 207 135.5 Q173 149 150 170 Q114 158 94.5 136.5 Q75 115 75 84 Q75 51 96 33 Q117 15 156 15 L353 15 Q439 15 482.5 -23 Q526 -61 526 -124 Q526 -157 512.5 -183.5 Q499 -210 474.5 -228 Q450 -246 416 -256 Q382 -266 340 -266 Q287 -266 242.5 -250.5 Q198 -235 166 -208 Q134 -181 116.5 -143.5 Q99 -106 102 -62 L131 -41 Q80 -37 49 -7.5 Q18 22 19 73 Q20 115 47.5 148.5 Q75 182 117 197 Q94 224 81 257.5 Q68 291 68 329 Z M123 329 Q123 297 135 269.5 Q147 242 167.5 221.5 Q188 201 215.5 189 Q243 177 275 177 Q307 177 335 189 Q363 201 383.5 221.5 Q404 242 416 269.5 Q428 297 428 329 Q428 361 416 389 Q404 417 383.5 437.5 Q363 458 335 470 Q307 482 275 482 Q243 482 215.5 470 Q188 458 167.5 437.5 Q147 417 135 389 Q123 361 123 329 Z M340 -211 Q397 -211 432 -189.5 Q467 -168 467 -124 Q467 -86 438 -63.5 Q409 -41 353 -41 L150 -41 Q148 -78 162 -109 Q176 -140 201.5 -162.5 Q227 -185 262.5 -198 Q298 -211 340 -211 Z M277 672 L170 564 L143 591 L279 727 L415 591 L387 564 L277 672 Z " />
<glyph glyph-name="gcommaaccent" unicode="&#x123;" horiz-adv-x="557" d="M68 329 Q68 372 84.5 410 Q101 448 129 476.5 Q157 505 194.5 521.5 Q232 538 275 538 Q313 538 347 525 Q381 512 408 489 Q437 502 467.5 507 Q498 512 535 512 L543 512 L543 460 L429 460 Q454 435 469 401 Q484 367 484 329 Q484 286 467.5 248.5 Q451 211 422.5 183 Q394 155 356 138.5 Q318 122 275 122 Q241 122 207 135.5 Q173 149 150 170 Q114 158 94.5 136.5 Q75 115 75 84 Q75 51 96 33 Q117 15 156 15 L353 15 Q439 15 482.5 -23 Q526 -61 526 -124 Q526 -157 512.5 -183.5 Q499 -210 474.5 -228 Q450 -246 416 -256 Q382 -266 340 -266 Q287 -266 242.5 -250.5 Q198 -235 166 -208 Q134 -181 116.5 -143.5 Q99 -106 102 -62 L131 -41 Q80 -37 49 -7.5 Q18 22 19 73 Q20 115 47.5 148.5 Q75 182 117 197 Q94 224 81 257.5 Q68 291 68 329 Z M123 329 Q123 297 135 269.5 Q147 242 167.5 221.5 Q188 201 215.5 189 Q243 177 275 177 Q307 177 335 189 Q363 201 383.5 221.5 Q404 242 416 269.5 Q428 297 428 329 Q428 361 416 389 Q404 417 383.5 437.5 Q363 458 335 470 Q307 482 275 482 Q243 482 215.5 470 Q188 458 167.5 437.5 Q147 417 135 389 Q123 361 123 329 Z M340 -211 Q397 -211 432 -189.5 Q467 -168 467 -124 Q467 -86 438 -63.5 Q409 -41 353 -41 L150 -41 Q148 -78 162 -109 Q176 -140 201.5 -162.5 Q227 -185 262.5 -198 Q298 -211 340 -211 Z M338 796 L297 709 Q314 705 326 691 Q338 677 338 659 Q338 638 323.5 623 Q309 608 288 608 Q274 608 263 615 Q252 622 245.5 633 Q239 644 238.5 657.5 Q238 671 244 685 L304 812 L338 796 Z " />
<glyph glyph-name="gdotaccent" unicode="&#x121;" horiz-adv-x="557" d="M68 329 Q68 372 84.5 410 Q101 448 129 476.5 Q157 505 194.5 521.5 Q232 538 275 538 Q313 538 347 525 Q381 512 408 489 Q437 502 467.5 507 Q498 512 535 512 L543 512 L543 460 L429 460 Q454 435 469 401 Q484 367 484 329 Q484 286 467.5 248.5 Q451 211 422.5 183 Q394 155 356 138.5 Q318 122 275 122 Q241 122 207 135.5 Q173 149 150 170 Q114 158 94.5 136.5 Q75 115 75 84 Q75 51 96 33 Q117 15 156 15 L353 15 Q439 15 482.5 -23 Q526 -61 526 -124 Q526 -157 512.5 -183.5 Q499 -210 474.5 -228 Q450 -246 416 -256 Q382 -266 340 -266 Q287 -266 242.5 -250.5 Q198 -235 166 -208 Q134 -181 116.5 -143.5 Q99 -106 102 -62 L131 -41 Q80 -37 49 -7.5 Q18 22 19 73 Q20 115 47.5 148.5 Q75 182 117 197 Q94 224 81 257.5 Q68 291 68 329 Z M123 329 Q123 297 135 269.5 Q147 242 167.5 221.5 Q188 201 215.5 189 Q243 177 275 177 Q307 177 335 189 Q363 201 383.5 221.5 Q404 242 416 269.5 Q428 297 428 329 Q428 361 416 389 Q404 417 383.5 437.5 Q363 458 335 470 Q307 482 275 482 Q243 482 215.5 470 Q188 458 167.5 437.5 Q147 417 135 389 Q123 361 123 329 Z M340 -211 Q397 -211 432 -189.5 Q467 -168 467 -124 Q467 -86 438 -63.5 Q409 -41 353 -41 L150 -41 Q148 -78 162 -109 Q176 -140 201.5 -162.5 Q227 -185 262.5 -198 Q298 -211 340 -211 Z M228 663 Q228 684 243 699 Q258 714 279 714 Q300 714 315 699 Q330 684 330 663 Q330 642 315 627 Q300 612 279 612 Q258 612 243 627 Q228 642 228 663 Z " />
<glyph glyph-name="racute" unicode="&#x155;" horiz-adv-x="343" d="M147 0 L87 0 L87 512 L139 512 L139 412 Q164 461 209 486.5 Q254 512 310 512 L333 512 L333 460 L310 460 Q275 460 245 448 Q215 436 193.5 414 Q172 392 159.5 362.5 Q147 333 147 297 L147 0 Z M133 571 L113 591 L231 732 Q239 743 253 743.5 Q267 744 277 735 Q287 725 286 711 Q285 697 274 688 L133 571 Z " />
<glyph glyph-name="rcaron" unicode="&#x159;" horiz-adv-x="343" d="M147 0 L87 0 L87 512 L139 512 L139 412 Q164 461 209 486.5 Q254 512 310 512 L333 512 L333 460 L310 460 Q275 460 245 448 Q215 436 193.5 414 Q172 392 159.5 362.5 Q147 333 147 297 L147 0 Z M176 618 L283 727 L311 700 L175 564 L39 700 L66 727 L176 618 Z " />
<glyph glyph-name="rcommaaccent" unicode="&#x157;" horiz-adv-x="343" d="M147 0 L87 0 L87 512 L139 512 L139 412 Q164 461 209 486.5 Q254 512 310 512 L333 512 L333 460 L310 460 Q275 460 245 448 Q215 436 193.5 414 Q172 392 159.5 362.5 Q147 333 147 297 L147 0 Z M73 -222 L108 -146 Q94 -143 84.5 -131.5 Q75 -120 75 -105 Q75 -88 87 -76 Q99 -64 116 -64 Q127 -64 136 -69.5 Q145 -75 150 -84 Q155 -93 155.5 -104 Q156 -115 151 -126 L100 -235 L73 -222 Z " />
<glyph glyph-name="sacute" unicode="&#x15b;" horiz-adv-x="519" d="M118 385 Q118 358 139 336.5 Q160 315 208 300 L330 264 Q408 241 441 205 Q474 169 474 120 Q474 92 462 68 Q450 44 426 26 Q402 8 365 -2.5 Q328 -13 278 -13 Q243 -13 209.5 -6 Q176 1 146.5 13 Q117 25 93 41.5 Q69 58 53 77 L98 112 Q113 95 134 82 Q155 69 179 59.5 Q203 50 228.5 45 Q254 40 278 40 Q348 40 380.5 63.5 Q413 87 413 120 Q413 149 392.5 170.5 Q372 192 318 209 L199 245 Q129 265 93.5 301 Q58 337 58 385 Q58 413 70 438.5 Q82 464 107 484 Q132 504 169.5 516 Q207 528 257 528 Q308 528 346.5 512 Q385 496 411.5 472 Q438 448 451 419 Q464 390 464 363 L406 363 Q401 411 360 443 Q319 475 257 475 Q221 475 194.5 467.5 Q168 460 151 447 Q134 434 126 418 Q118 402 118 385 Z M261 571 L242 591 L359 732 Q367 743 381.5 743.5 Q396 744 406 735 Q415 725 414 711 Q413 697 402 688 L261 571 Z " />
<glyph glyph-name="scaron" unicode="&#x161;" horiz-adv-x="519" d="M118 385 Q118 358 139 336.5 Q160 315 208 300 L330 264 Q408 241 441 205 Q474 169 474 120 Q474 92 462 68 Q450 44 426 26 Q402 8 365 -2.5 Q328 -13 278 -13 Q243 -13 209.5 -6 Q176 1 146.5 13 Q117 25 93 41.5 Q69 58 53 77 L98 112 Q113 95 134 82 Q155 69 179 59.5 Q203 50 228.5 45 Q254 40 278 40 Q348 40 380.5 63.5 Q413 87 413 120 Q413 149 392.5 170.5 Q372 192 318 209 L199 245 Q129 265 93.5 301 Q58 337 58 385 Q58 413 70 438.5 Q82 464 107 484 Q132 504 169.5 516 Q207 528 257 528 Q308 528 346.5 512 Q385 496 411.5 472 Q438 448 451 419 Q464 390 464 363 L406 363 Q401 411 360 443 Q319 475 257 475 Q221 475 194.5 467.5 Q168 460 151 447 Q134 434 126 418 Q118 402 118 385 Z M261 618 L368 727 L396 700 L260 564 L124 700 L151 727 L261 618 Z " />
<glyph glyph-name="scedilla" unicode="&#x15f;" horiz-adv-x="519" d="M118 385 Q118 358 139 336.5 Q160 315 208 300 L330 264 Q408 241 441 205 Q474 169 474 120 Q474 93 462.5 69 Q451 45 428 27 Q405 9 370 -1.5 Q335 -12 288 -13 L288 -42 Q319 -47 343 -72.5 Q367 -98 367 -136 Q367 -178 338.5 -205 Q310 -232 270 -232 Q250 -232 233 -224.5 Q216 -217 202 -204 L228 -179 Q236 -186 247 -190.5 Q258 -195 270 -195 Q294 -195 311.5 -178.5 Q329 -162 329 -136 Q329 -110 312 -93.5 Q295 -77 269 -77 Q255 -77 245 -81.5 Q235 -86 227 -93 L202 -68 Q210 -59 223 -51.5 Q236 -44 252 -42 L252 -12 Q221 -10 191.5 -2 Q162 6 136 17.5 Q110 29 89 44.5 Q68 60 53 77 L98 112 Q113 95 134 82 Q155 69 179 59.5 Q203 50 228.5 45 Q254 40 278 40 Q348 40 380.5 63.5 Q413 87 413 120 Q413 149 392.5 170.5 Q372 192 318 209 L199 245 Q129 265 93.5 301 Q58 337 58 385 Q58 413 70 438.5 Q82 464 107 484 Q132 504 169.5 516 Q207 528 257 528 Q308 528 346.5 512 Q385 496 411.5 472 Q438 448 451 419 Q464 390 464 363 L406 363 Q401 411 360 443 Q319 475 257 475 Q221 475 194.5 467.5 Q168 460 151 447 Q134 434 126 418 Q118 402 118 385 Z " />
<glyph glyph-name="scircumflex" unicode="&#x15d;" horiz-adv-x="519" d="M118 385 Q118 358 139 336.5 Q160 315 208 300 L330 264 Q408 241 441 205 Q474 169 474 120 Q474 92 462 68 Q450 44 426 26 Q402 8 365 -2.5 Q328 -13 278 -13 Q243 -13 209.5 -6 Q176 1 146.5 13 Q117 25 93 41.5 Q69 58 53 77 L98 112 Q113 95 134 82 Q155 69 179 59.5 Q203 50 228.5 45 Q254 40 278 40 Q348 40 380.5 63.5 Q413 87 413 120 Q413 149 392.5 170.5 Q372 192 318 209 L199 245 Q129 265 93.5 301 Q58 337 58 385 Q58 413 70 438.5 Q82 464 107 484 Q132 504 169.5 516 Q207 528 257 528 Q308 528 346.5 512 Q385 496 411.5 472 Q438 448 451 419 Q464 390 464 363 L406 363 Q401 411 360 443 Q319 475 257 475 Q221 475 194.5 467.5 Q168 460 151 447 Q134 434 126 418 Q118 402 118 385 Z M258 672 L151 564 L124 591 L260 727 L396 591 L368 564 L258 672 Z " />
<glyph glyph-name="scommaaccent" unicode="&#x219;" horiz-adv-x="519" d="M118 385 Q118 358 139 336.5 Q160 315 208 300 L330 264 Q408 241 441 205 Q474 169 474 120 Q474 92 462 68 Q450 44 426 26 Q402 8 365 -2.5 Q328 -13 278 -13 Q243 -13 209.5 -6 Q176 1 146.5 13 Q117 25 93 41.5 Q69 58 53 77 L98 112 Q113 95 134 82 Q155 69 179 59.5 Q203 50 228.5 45 Q254 40 278 40 Q348 40 380.5 63.5 Q413 87 413 120 Q413 149 392.5 170.5 Q372 192 318 209 L199 245 Q129 265 93.5 301 Q58 337 58 385 Q58 413 70 438.5 Q82 464 107 484 Q132 504 169.5 516 Q207 528 257 528 Q308 528 346.5 512 Q385 496 411.5 472 Q438 448 451 419 Q464 390 464 363 L406 363 Q401 411 360 443 Q319 475 257 475 Q221 475 194.5 467.5 Q168 460 151 447 Q134 434 126 418 Q118 402 118 385 Z M216 -222 L251 -146 Q237 -143 227.5 -131.5 Q218 -120 218 -105 Q218 -88 230 -76 Q242 -64 259 -64 Q270 -64 279 -69.5 Q288 -75 293 -84 Q298 -93 298.5 -104 Q299 -115 294 -126 L243 -235 L216 -222 Z " />
<glyph glyph-name="tbar" unicode="&#x167;" horiz-adv-x="323" d="M128 0 L128 268 L14 237 L3 274 L128 307 L128 460 L10 460 L10 512 L128 512 L128 640 L188 640 L188 512 L306 512 L306 460 L188 460 L188 323 L306 355 L317 318 L188 284 L188 0 L128 0 Z " />
<glyph glyph-name="tcaron" unicode="&#x165;" horiz-adv-x="490" d="M128 0 L128 460 L10 460 L10 512 L128 512 L128 640 L188 640 L188 512 L306 512 L306 460 L188 460 L188 0 L128 0 Z M360 548 L401 635 Q384 639 372 652.5 Q360 666 360 685 Q360 706 374.5 721 Q389 736 410 736 Q424 736 435 729 Q446 722 452.5 711 Q459 700 459.5 686 Q460 672 453 659 L394 532 L360 548 Z " />
<glyph glyph-name="tcommaaccent" unicode="&#x163;" horiz-adv-x="323" d="M128 0 L128 460 L10 460 L10 512 L128 512 L128 640 L188 640 L188 512 L306 512 L306 460 L188 460 L188 0 L128 0 Z M118 -222 L153 -146 Q139 -143 129.5 -131.5 Q120 -120 120 -105 Q120 -88 131.5 -76 Q143 -64 160 -64 Q181 -64 192.5 -80.5 Q204 -97 198 -117 Q196 -123 193.5 -129.5 Q191 -136 189 -142 L145 -235 L118 -222 Z " />
<glyph glyph-name="uacute" unicode="&#xfa;" horiz-adv-x="653" d="M70 512 L130 512 L130 236 Q130 196 143.5 161 Q157 126 181 100 Q205 74 239 59 Q273 44 315 44 Q354 44 388.5 59.5 Q423 75 448.5 102 Q474 129 489.5 166.5 Q505 204 506 248 L506 512 L566 512 L566 0 L506 0 L506 122 Q498 100 480 77 Q462 54 436 34.5 Q410 15 377 2.5 Q344 -10 306 -10 Q255 -10 211.5 8.5 Q168 27 136.5 61 Q105 95 87.5 141.5 Q70 188 70 244 L70 512 Z M306 571 L286 591 L404 732 Q412 743 426 743.5 Q440 744 450 735 Q460 725 459 711 Q458 697 447 688 L306 571 Z " />
<glyph glyph-name="ubreve" unicode="&#x16d;" horiz-adv-x="653" d="M70 512 L130 512 L130 236 Q130 196 143.5 161 Q157 126 181 100 Q205 74 239 59 Q273 44 315 44 Q354 44 388.5 59.5 Q423 75 448.5 102 Q474 129 489.5 166.5 Q505 204 506 248 L506 512 L566 512 L566 0 L506 0 L506 122 Q498 100 480 77 Q462 54 436 34.5 Q410 15 377 2.5 Q344 -10 306 -10 Q255 -10 211.5 8.5 Q168 27 136.5 61 Q105 95 87.5 141.5 Q70 188 70 244 L70 512 Z M207 696 L249 696 L249 679 Q249 647 270.5 625.5 Q292 604 324 604 Q356 604 378 625.5 Q400 647 400 679 L400 696 L441 696 L441 681 Q441 657 432 635.5 Q423 614 407 598 Q391 582 369.5 573 Q348 564 324 564 Q300 564 278.5 573 Q257 582 241 598 Q225 614 216 635.5 Q207 657 207 681 L207 696 Z " />
<glyph glyph-name="ucircumflex" unicode="&#xfb;" horiz-adv-x="653" d="M70 512 L130 512 L130 236 Q130 196 143.5 161 Q157 126 181 100 Q205 74 239 59 Q273 44 315 44 Q354 44 388.5 59.5 Q423 75 448.5 102 Q474 129 489.5 166.5 Q505 204 506 248 L506 512 L566 512 L566 0 L506 0 L506 122 Q498 100 480 77 Q462 54 436 34.5 Q410 15 377 2.5 Q344 -10 306 -10 Q255 -10 211.5 8.5 Q168 27 136.5 61 Q105 95 87.5 141.5 Q70 188 70 244 L70 512 Z M323 672 L216 564 L188 591 L324 727 L460 591 L433 564 L323 672 Z " />
<glyph glyph-name="udieresis" unicode="&#xfc;" horiz-adv-x="653" d="M70 512 L130 512 L130 236 Q130 196 143.5 161 Q157 126 181 100 Q205 74 239 59 Q273 44 315 44 Q354 44 388.5 59.5 Q423 75 448.5 102 Q474 129 489.5 166.5 Q505 204 506 248 L506 512 L566 512 L566 0 L506 0 L506 122 Q498 100 480 77 Q462 54 436 34.5 Q410 15 377 2.5 Q344 -10 306 -10 Q255 -10 211.5 8.5 Q168 27 136.5 61 Q105 95 87.5 141.5 Q70 188 70 244 L70 512 Z M182 663 Q182 684 197 699 Q212 714 233 714 Q254 714 269 699 Q284 684 284 663 Q284 642 269 627 Q254 612 233 612 Q212 612 197 627 Q182 642 182 663 Z M365 663 Q365 684 380 699 Q395 714 416 714 Q437 714 452 699 Q467 684 467 663 Q467 642 452 627 Q437 612 416 612 Q395 612 380 627 Q365 642 365 663 Z " />
<glyph glyph-name="uhungarumlaut" unicode="&#x171;" horiz-adv-x="653" d="M70 512 L130 512 L130 236 Q130 196 143.5 161 Q157 126 181 100 Q205 74 239 59 Q273 44 315 44 Q354 44 388.5 59.5 Q423 75 448.5 102 Q474 129 489.5 166.5 Q505 204 506 248 L506 512 L566 512 L566 0 L506 0 L506 122 Q498 100 480 77 Q462 54 436 34.5 Q410 15 377 2.5 Q344 -10 306 -10 Q255 -10 211.5 8.5 Q168 27 136.5 61 Q105 95 87.5 141.5 Q70 188 70 244 L70 512 Z M220 571 L200 591 L317 732 Q325 743 339.5 743.5 Q354 744 364 735 Q373 725 372 711 Q371 697 360 688 L220 571 Z M393 571 L373 591 L490 732 Q498 743 512.5 743.5 Q527 744 537 735 Q546 725 545 711 Q544 697 533 688 L393 571 Z " />
<glyph glyph-name="ugrave" unicode="&#xf9;" horiz-adv-x="653" d="M70 512 L130 512 L130 236 Q130 196 143.5 161 Q157 126 181 100 Q205 74 239 59 Q273 44 315 44 Q354 44 388.5 59.5 Q423 75 448.5 102 Q474 129 489.5 166.5 Q505 204 506 248 L506 512 L566 512 L566 0 L506 0 L506 122 Q498 100 480 77 Q462 54 436 34.5 Q410 15 377 2.5 Q344 -10 306 -10 Q255 -10 211.5 8.5 Q168 27 136.5 61 Q105 95 87.5 141.5 Q70 188 70 244 L70 512 Z M202 688 Q191 697 190 711 Q189 725 199 735 Q209 744 223 743.5 Q237 743 245 732 L363 591 L343 571 L202 688 Z " />
<glyph glyph-name="umacron" unicode="&#x16b;" horiz-adv-x="653" d="M70 512 L130 512 L130 236 Q130 196 143.5 161 Q157 126 181 100 Q205 74 239 59 Q273 44 315 44 Q354 44 388.5 59.5 Q423 75 448.5 102 Q474 129 489.5 166.5 Q505 204 506 248 L506 512 L566 512 L566 0 L506 0 L506 122 Q498 100 480 77 Q462 54 436 34.5 Q410 15 377 2.5 Q344 -10 306 -10 Q255 -10 211.5 8.5 Q168 27 136.5 61 Q105 95 87.5 141.5 Q70 188 70 244 L70 512 Z M470 613 L179 613 L179 654 L470 654 L470 613 Z " />
<glyph glyph-name="uogonek" unicode="&#x173;" horiz-adv-x="653" d="M194 -87 Q194 -60 205 -37.5 Q216 -15 235 1 Q198 12 167.5 34 Q137 56 115.5 87.5 Q94 119 82 159 Q70 199 70 244 L70 512 L130 512 L130 236 Q130 196 143.5 161 Q157 126 181 100 Q205 74 239 59 Q273 44 315 44 Q354 44 388 59.5 Q422 75 447.5 102 Q473 129 488.5 166.5 Q504 204 506 248 L506 512 L566 512 L566 0 L506 0 L506 122 Q498 100 480 76.5 Q462 53 436 34 Q410 15 377 2.5 Q344 -10 306 -10 L302 -10 Q272 -12 252 -34.5 Q232 -57 232 -87 Q232 -119 253.5 -141.5 Q275 -164 306 -164 Q336 -164 357.5 -141.5 Q379 -119 379 -87 L417 -87 Q417 -111 408 -132 Q399 -153 384 -168.5 Q369 -184 349 -193 Q329 -202 306 -202 Q283 -202 262.5 -193 Q242 -184 227 -168.5 Q212 -153 203 -132 Q194 -111 194 -87 Z " />
<glyph glyph-name="uring" unicode="&#x16f;" horiz-adv-x="653" d="M70 512 L130 512 L130 236 Q130 196 143.5 161 Q157 126 181 100 Q205 74 239 59 Q273 44 315 44 Q354 44 388.5 59.5 Q423 75 448.5 102 Q474 129 489.5 166.5 Q505 204 506 248 L506 512 L566 512 L566 0 L506 0 L506 122 Q498 100 480 77 Q462 54 436 34.5 Q410 15 377 2.5 Q344 -10 306 -10 Q255 -10 211.5 8.5 Q168 27 136.5 61 Q105 95 87.5 141.5 Q70 188 70 244 L70 512 Z M228 672 Q228 712 256 740 Q284 768 324 768 Q364 768 392 740 Q420 712 420 672 Q420 632 392 604 Q364 576 324 576 Q284 576 256 604 Q228 632 228 672 Z M265 672 Q265 647 282 630 Q299 613 324 613 Q350 613 367 630 Q384 647 384 672 Q384 697 367 714 Q350 731 324 731 Q299 731 282 714 Q265 697 265 672 Z " />
<glyph glyph-name="utilde" unicode="&#x169;" horiz-adv-x="653" d="M70 512 L130 512 L130 236 Q130 196 143.5 161 Q157 126 181 100 Q205 74 239 59 Q273 44 315 44 Q354 44 388.5 59.5 Q423 75 448.5 102 Q474 129 489.5 166.5 Q505 204 506 248 L506 512 L566 512 L566 0 L506 0 L506 122 Q498 100 480 77 Q462 54 436 34.5 Q410 15 377 2.5 Q344 -10 306 -10 Q255 -10 211.5 8.5 Q168 27 136.5 61 Q105 95 87.5 141.5 Q70 188 70 244 L70 512 Z M391 708 Q429 708 452 682 Q475 656 474 616 L436 616 Q436 643 423.5 657 Q411 671 391 671 Q372 671 358.5 659.5 Q345 648 331.5 633.5 Q318 619 301 607.5 Q284 596 259 596 Q220 596 197 622 Q174 648 175 688 L214 688 Q214 633 259 633 Q276 633 289 644.5 Q302 656 316.5 670.5 Q331 685 348.5 696.5 Q366 708 391 708 Z " />
<glyph glyph-name="wacute" unicode="&#x1e83;" horiz-adv-x="775" d="M561 54 L565 54 L695 512 L756 512 L609 0 L520 0 L389 429 L384 429 L253 0 L165 0 L17 512 L79 512 L209 54 L213 54 L353 512 L421 512 L561 54 Z M389 571 L370 591 L487 732 Q495 743 509 743.5 Q523 744 533 735 Q543 725 542 711 Q541 697 530 688 L389 571 Z " />
<glyph glyph-name="wcircumflex" unicode="&#x175;" horiz-adv-x="775" d="M561 54 L565 54 L695 512 L756 512 L609 0 L520 0 L389 429 L384 429 L253 0 L165 0 L17 512 L79 512 L209 54 L213 54 L353 512 L421 512 L561 54 Z M386 672 L279 564 L252 591 L388 727 L524 591 L496 564 L386 672 Z " />
<glyph glyph-name="wdieresis" unicode="&#x1e85;" horiz-adv-x="775" d="M561 54 L565 54 L695 512 L756 512 L609 0 L520 0 L389 429 L384 429 L253 0 L165 0 L17 512 L79 512 L209 54 L213 54 L353 512 L421 512 L561 54 Z M246 663 Q246 684 260.5 699 Q275 714 296 714 Q317 714 332 699 Q347 684 347 663 Q347 642 332 627 Q317 612 296 612 Q275 612 260.5 627 Q246 642 246 663 Z M429 663 Q429 684 443.5 699 Q458 714 479 714 Q500 714 515 699 Q530 684 530 663 Q530 642 515 627 Q500 612 479 612 Q458 612 443.5 627 Q429 642 429 663 Z " />
<glyph glyph-name="wgrave" unicode="&#x1e81;" horiz-adv-x="775" d="M561 54 L565 54 L695 512 L756 512 L609 0 L520 0 L389 429 L384 429 L253 0 L165 0 L17 512 L79 512 L209 54 L213 54 L353 512 L421 512 L561 54 Z M245 688 Q234 697 233.5 711 Q233 725 242 735 Q252 744 266 743.5 Q280 743 289 732 L406 591 L386 571 L245 688 Z " />
<glyph glyph-name="yacute" unicode="&#xfd;" horiz-adv-x="569" d="M287 39 L487 512 L552 512 L314 -47 L314 -256 L255 -256 L255 -48 L17 512 L82 512 L282 39 L287 39 Z M275 571 L256 591 L373 732 Q381 743 395.5 743.5 Q410 744 420 735 Q429 725 428 711 Q427 697 416 688 L275 571 Z " />
<glyph glyph-name="ycircumflex" unicode="&#x177;" horiz-adv-x="569" d="M287 39 L487 512 L552 512 L314 -47 L314 -256 L255 -256 L255 -48 L17 512 L82 512 L282 39 L287 39 Z M282 672 L175 564 L148 591 L284 727 L420 591 L392 564 L282 672 Z " />
<glyph glyph-name="ydieresis" unicode="&#xff;" horiz-adv-x="569" d="M287 39 L487 512 L552 512 L314 -47 L314 -256 L255 -256 L255 -48 L17 512 L82 512 L282 39 L287 39 Z M142 663 Q142 684 157 699 Q172 714 192 714 Q213 714 228 699 Q243 684 243 663 Q243 642 228 627 Q213 612 192 612 Q172 612 157 627 Q142 642 142 663 Z M325 663 Q325 684 340 699 Q355 714 375 714 Q396 714 411 699 Q426 684 426 663 Q426 642 411 627 Q396 612 375 612 Q355 612 340 627 Q325 642 325 663 Z " />
<glyph glyph-name="ygrave" unicode="&#x1ef3;" horiz-adv-x="569" d="M287 39 L487 512 L552 512 L314 -47 L314 -256 L255 -256 L255 -48 L17 512 L82 512 L282 39 L287 39 Z M151 688 Q140 697 139.5 711 Q139 725 148 735 Q158 744 172 743.5 Q186 743 195 732 L312 591 L292 571 L151 688 Z " />
<glyph glyph-name="oslashacute" unicode="&#x1ff;" horiz-adv-x="625" d="M50 256 Q50 311 70.5 358.5 Q91 406 126.5 441.5 Q162 477 210 497.5 Q258 518 312 518 Q360 518 403 502 Q446 486 480 458 L520 499 L555 464 L515 423 Q543 389 559 346.5 Q575 304 575 256 Q575 201 554.5 153 Q534 105 498.5 69.5 Q463 34 415 13.5 Q367 -7 312 -7 Q264 -7 221.5 9 Q179 25 145 54 L105 13 L70 48 L110 89 Q81 123 65.5 165.5 Q50 208 50 256 Z M312 52 Q354 52 391 68 Q428 84 456 111.5 Q484 139 500 176.5 Q516 214 516 256 Q516 291 504 322.5 Q492 354 471 380 L188 97 Q214 76 245.5 64 Q277 52 312 52 Z M109 256 Q109 185 153 132 L437 415 Q411 436 379 448 Q347 460 312 460 Q270 460 233.5 444 Q197 428 169 400 Q141 372 125 335 Q109 298 109 256 Z M314 571 L294 591 L412 732 Q420 743 434 743.5 Q448 744 458 735 Q468 725 467 711 Q466 697 455 688 L314 571 Z " />
<glyph glyph-name="otilde" unicode="&#xf5;" horiz-adv-x="625" d="M50 256 Q50 311 70.5 358.5 Q91 406 126.5 441.5 Q162 477 210 497.5 Q258 518 312 518 Q367 518 415 497.5 Q463 477 498.5 441.5 Q534 406 554.5 358.5 Q575 311 575 256 Q575 201 554.5 153 Q534 105 498.5 69.5 Q463 34 415 13.5 Q367 -7 312 -7 Q258 -7 210 13.5 Q162 34 126.5 69.5 Q91 105 70.5 153 Q50 201 50 256 Z M109 256 Q109 214 125 176.5 Q141 139 169 111.5 Q197 84 233.5 68 Q270 52 312 52 Q354 52 391 68 Q428 84 456 111.5 Q484 139 500 176.5 Q516 214 516 256 Q516 298 500 335 Q484 372 456 400 Q428 428 391 444 Q354 460 312 460 Q270 460 233.5 444 Q197 428 169 400 Q141 372 125 335 Q109 298 109 256 Z M378 708 Q416 708 439.5 682 Q463 656 461 616 L423 616 Q423 643 410.5 657 Q398 671 378 671 Q360 671 346.5 659.5 Q333 648 319 633.5 Q305 619 288 607.5 Q271 596 246 596 Q207 596 184.5 622 Q162 648 162 688 L201 688 Q201 633 246 633 Q263 633 276 644.5 Q289 656 303.5 670.5 Q318 685 335.5 696.5 Q353 708 378 708 Z " />
<glyph glyph-name="approxequal" unicode="&#x2248;" horiz-adv-x="571" d="M379 446 Q407 446 430.5 435.5 Q454 425 470.5 406 Q487 387 496 361.5 Q505 336 504 306 L454 306 Q454 350 433.5 373.5 Q413 397 379 397 Q350 397 329.5 378 Q309 359 288 336.5 Q267 314 241.5 295 Q216 276 179 276 Q150 276 126 286.5 Q102 297 85.5 315.5 Q69 334 60.5 360 Q52 386 53 416 L103 416 Q103 325 179 325 Q205 325 225.5 344 Q246 363 267.5 385.5 Q289 408 315 427 Q341 446 379 446 Z M386 226 Q414 226 437.5 215.5 Q461 205 477.5 186 Q494 167 503 141.5 Q512 116 511 86 L461 86 Q461 130 440.5 153.5 Q420 177 386 177 Q357 177 336.5 158 Q316 139 295 116.5 Q274 94 248.5 75 Q223 56 186 56 Q157 56 133 66.5 Q109 77 92.5 95.5 Q76 114 67.5 140 Q59 166 60 196 L110 196 Q110 105 186 105 Q212 105 232.5 124 Q253 143 274.5 165.5 Q296 188 322 207 Q348 226 386 226 Z " />
<glyph glyph-name="fraction" unicode="&#x2044;" horiz-adv-x="803" d="M711 720 L753 679 L92 17 L50 59 L711 720 Z " />
<glyph glyph-name="section" unicode="&#xa7;" horiz-adv-x="524" d="M120 631 Q120 605 141.5 583 Q163 561 212 545 L337 508 Q417 485 450.5 448.5 Q484 412 484 361 Q484 322 460 291 Q436 260 386 245 Q440 221 462 190 Q484 159 484 118 Q484 90 471.5 65 Q459 40 434.5 21.5 Q410 3 372.5 -8 Q335 -19 284 -19 Q248 -19 213.5 -11.5 Q179 -4 149 8.5 Q119 21 94 38 Q69 55 53 75 L100 111 Q115 94 136.5 80.5 Q158 67 182.5 57 Q207 47 233.5 42 Q260 37 284 37 Q355 37 388.5 61 Q422 85 422 118 Q422 148 400.5 170 Q379 192 324 209 L203 248 Q58 291 58 389 Q58 428 83 459.5 Q108 491 159 507 Q110 529 84 560 Q58 591 58 631 Q58 660 70.5 686.5 Q83 713 108.5 733.5 Q134 754 172 766 Q210 778 261 778 Q313 778 353 762 Q393 746 420 721 Q447 696 460.5 666.5 Q474 637 474 609 L415 609 Q412 633 399.5 654 Q387 675 367 690.5 Q347 706 320 715 Q293 724 261 724 Q224 724 197.5 716 Q171 708 153.5 695 Q136 682 128 665.5 Q120 649 120 631 Z M120 389 Q120 363 141.5 341 Q163 319 212 303 L295 277 Q362 279 392 303.5 Q422 328 422 361 Q422 390 400.5 412 Q379 434 324 451 L237 478 Q187 475 153.5 450.5 Q120 426 120 389 Z " />
<glyph glyph-name="Eng" unicode="&#x14a;" horiz-adv-x="796" d="M374 0 Q374 -28 385 -53 Q396 -78 414.5 -96.5 Q433 -115 458 -126 Q483 -137 511 -137 Q539 -137 564 -126 Q589 -115 607.5 -96.5 Q626 -78 637 -53 Q648 -28 648 0 L648 46 L149 601 L149 0 L87 0 L87 730 L98 735 L647 134 L647 735 L709 735 L709 0 Q709 -41 693.5 -77 Q678 -113 651 -140 Q624 -167 588 -182.5 Q552 -198 511 -198 Q470 -198 434 -182.5 Q398 -167 371 -140 Q344 -113 328.5 -77 Q313 -41 313 0 L374 0 Z " />
<glyph glyph-name="eng" unicode="&#x14b;" horiz-adv-x="655" d="M307 -95 Q307 -118 314.5 -138 Q322 -158 336 -173.5 Q350 -189 370 -198 Q390 -207 415 -207 Q461 -207 491.5 -178 Q522 -149 522 -95 L522 276 Q522 316 508.5 351 Q495 386 471 412 Q447 438 413 453 Q379 468 337 468 Q298 468 263.5 452.5 Q229 437 203.5 410 Q178 383 162.5 345.5 Q147 308 146 264 L146 0 L87 0 L87 512 L146 512 L146 390 Q154 412 172 435 Q190 458 216 477.5 Q242 497 275 509.5 Q308 522 346 522 Q397 522 440.5 503.5 Q484 485 515 451 Q546 417 563.5 370.5 Q581 324 581 268 L581 -95 Q581 -136 567.5 -167.5 Q554 -199 531.5 -221 Q509 -243 479 -254.5 Q449 -266 415 -266 Q379 -266 348 -252 Q317 -238 295 -214.5 Q273 -191 260.5 -160 Q248 -129 248 -95 L307 -95 Z " />
<glyph glyph-name="Eth" unicode="&#xd0;" horiz-adv-x="700" d="M90 0 L90 314 L-19 285 L-29 322 L90 354 L90 735 L289 735 Q365 735 431.5 706 Q498 677 548 627 Q598 577 627 510.5 Q656 444 656 368 Q656 292 627 225 Q598 158 548 108 Q498 58 431.5 29 Q365 0 289 0 L90 0 Z M274 403 L284 366 L152 331 L152 57 L287 57 Q352 57 408 81.5 Q464 106 505.5 148 Q547 190 571 246.5 Q595 303 595 368 Q595 432 571 488.5 Q547 545 505.5 587 Q464 629 407.5 653.5 Q351 678 287 678 L152 678 L152 371 L274 403 Z " />
<glyph glyph-name="Dcroat" unicode="&#x110;" horiz-adv-x="700" d="M90 0 L90 314 L-19 285 L-29 322 L90 354 L90 735 L289 735 Q365 735 431.5 706 Q498 677 548 627 Q598 577 627 510.5 Q656 444 656 368 Q656 292 627 225 Q598 158 548 108 Q498 58 431.5 29 Q365 0 289 0 L90 0 Z M274 403 L284 366 L152 331 L152 57 L287 57 Q352 57 408 81.5 Q464 106 505.5 148 Q547 190 571 246.5 Q595 303 595 368 Q595 432 571 488.5 Q547 545 505.5 587 Q464 629 407.5 653.5 Q351 678 287 678 L152 678 L152 371 L274 403 Z " />
<glyph glyph-name="dcroat" unicode="&#x111;" horiz-adv-x="644" d="M53 256 Q53 309 72.5 356 Q92 403 126.5 437.5 Q161 472 208.5 492 Q256 512 311 512 Q342 512 371 503 Q400 494 424.5 479.5 Q449 465 468 446 Q487 427 498 406 L498 585 L376 553 L366 590 L498 625 L498 768 L557 768 L557 641 L669 671 L679 634 L557 601 L557 0 L498 0 L498 107 Q487 87 468.5 67.5 Q450 48 426 33 Q402 18 373 9 Q344 0 311 0 Q256 0 208.5 20 Q161 40 126.5 74.5 Q92 109 72.5 156 Q53 203 53 256 Z M511 256 Q511 299 496 336 Q481 373 455 400 Q429 427 393.5 442.5 Q358 458 317 458 Q274 458 237 442.5 Q200 427 172.5 400 Q145 373 129 336 Q113 299 113 256 Q113 213 129 176 Q145 139 172.5 112 Q200 85 237 69.5 Q274 54 317 54 Q358 54 393.5 69.5 Q429 85 455 112 Q481 139 496 176 Q511 213 511 256 Z " />
<glyph glyph-name="zacute" unicode="&#x17a;" horiz-adv-x="508" d="M458 53 L458 0 L60 0 L45 25 L378 460 L61 460 L61 512 L449 512 L463 487 L131 53 L458 53 Z M255 571 L236 591 L353 732 Q361 743 375 743.5 Q389 744 399 735 Q409 725 408 711 Q407 697 396 688 L255 571 Z " />
<glyph glyph-name="zcaron" unicode="&#x17e;" horiz-adv-x="508" d="M458 53 L458 0 L60 0 L45 25 L378 460 L61 460 L61 512 L449 512 L463 487 L131 53 L458 53 Z M255 618 L362 727 L390 700 L254 564 L118 700 L145 727 L255 618 Z " />
<glyph glyph-name="zdotaccent" unicode="&#x17c;" horiz-adv-x="508" d="M458 53 L458 0 L60 0 L45 25 L378 460 L61 460 L61 512 L449 512 L463 487 L131 53 L458 53 Z M203 663 Q203 684 218 699 Q233 714 254 714 Q274 714 289 699 Q304 684 304 663 Q304 642 289 627 Q274 612 254 612 Q233 612 218 627 Q203 642 203 663 Z " />
<glyph glyph-name="Thorn" unicode="&#xde;" horiz-adv-x="599" d="M149 124 L149 0 L87 0 L87 735 L149 735 L149 617 L331 617 Q384 617 429.5 597.5 Q475 578 508.5 544.5 Q542 511 561 466 Q580 421 580 370 Q580 319 561 274 Q542 229 508.5 195.5 Q475 162 429.5 143 Q384 124 331 124 L149 124 Z M328 177 Q369 177 404.5 191.5 Q440 206 465.5 231.5 Q491 257 505.5 292.5 Q520 328 520 370 Q520 412 505.5 447 Q491 482 465.5 507.5 Q440 533 404.5 547.5 Q369 562 328 562 L149 562 L149 177 L328 177 Z " />
<glyph glyph-name="dotlessj" unicode="&#x237;" horiz-adv-x="248" d="M94 -242 L94 512 L154 512 L154 -242 L94 -242 Z " />
<glyph glyph-name="jcircumflex" unicode="&#x135;" horiz-adv-x="248" d="M94 -242 L94 512 L154 512 L154 -242 L94 -242 Z M122 672 L16 564 L-12 591 L124 727 L260 591 L233 564 L122 672 Z " />
<glyph glyph-name="Wacute" unicode="&#x1e82;" horiz-adv-x="900" d="M654 63 L661 63 L819 735 L882 735 L706 0 L611 0 L453 644 L447 644 L289 0 L194 0 L18 735 L81 735 L239 63 L245 63 L412 735 L488 735 L654 63 Z M451 794 L431 814 L549 955 Q557 966 571 966.5 Q585 967 595 958 Q605 948 604 934 Q603 920 592 911 L451 794 Z " />
<glyph glyph-name="Wcircumflex" unicode="&#x174;" horiz-adv-x="900" d="M654 63 L661 63 L819 735 L882 735 L706 0 L611 0 L453 644 L447 644 L289 0 L194 0 L18 735 L81 735 L239 63 L245 63 L412 735 L488 735 L654 63 Z M448 895 L341 787 L314 814 L450 950 L586 814 L558 787 L448 895 Z " />
<glyph glyph-name="Wdieresis" unicode="&#x1e84;" horiz-adv-x="900" d="M654 63 L661 63 L819 735 L882 735 L706 0 L611 0 L453 644 L447 644 L289 0 L194 0 L18 735 L81 735 L239 63 L245 63 L412 735 L488 735 L654 63 Z M307 886 Q307 907 322 922 Q337 937 358 937 Q379 937 394 922 Q409 907 409 886 Q409 865 394 850 Q379 835 358 835 Q337 835 322 850 Q307 865 307 886 Z M490 886 Q490 907 505 922 Q520 937 541 937 Q562 937 577 922 Q592 907 592 886 Q592 865 577 850 Q562 835 541 835 Q520 835 505 850 Q490 865 490 886 Z " />
<glyph glyph-name="Wgrave" unicode="&#x1e80;" horiz-adv-x="900" d="M654 63 L661 63 L819 735 L882 735 L706 0 L611 0 L453 644 L447 644 L289 0 L194 0 L18 735 L81 735 L239 63 L245 63 L412 735 L488 735 L654 63 Z M307 911 Q296 920 295 934 Q294 948 304 958 Q314 967 328 966.5 Q342 966 350 955 L468 814 L448 794 L307 911 Z " />
</font>
</svg>
