<?xml version="1.0" encoding="UTF-8"?>
<svg xmlns="http://www.w3.org/2000/svg" xmlns:xlink="http://www.w3.org/1999/xlink" version="1.2" >
<font id="Liber Grotesque Family ExBd Obl">
<font-face  font-family="Liber Grotesque Family" units-per-em="1000" ascent="768" descent="-256" font-style="italic" font-weight="800" font-stretch="normal" cap-height="735" x-height="512" underline-position="-106" underline-thickness="73" />
<missing-glyph  horiz-adv-x="830" d="M202 768 L842 768 L734 0 L94 0 L202 768 Z M682 60 L774 708 L255 708 L163 60 L682 60 Z M419 374 L457 374 Q476 374 494 381 Q512 388 526 400.5 Q540 413 549.5 430 Q559 447 561 466 Q564 485 559.5 502 Q555 519 544 531.5 Q533 544 517 551 Q501 558 482 558 Q463 558 445 551 Q427 544 413 531.5 Q399 519 389.5 502 Q380 485 377 466 L295 466 Q301 502 319 534 Q337 566 363.5 589.5 Q390 613 424 626.5 Q458 640 494 640 Q530 640 560 626.5 Q590 613 610.5 589.5 Q631 566 640 534 Q649 502 643 466 Q638 430 620 398 Q602 366 575.5 342.5 Q549 319 515 305.5 Q481 292 445 292 L407 292 L419 374 Z M380 182 Q383 205 401 221 Q419 237 442 237 Q465 237 478.5 221 Q492 205 489 182 Q485 159 467.5 143.5 Q450 128 427 128 Q404 128 390 143.5 Q376 159 380 182 Z " />
<glyph glyph-name="null" d="" />
<glyph glyph-name="nonmarkingreturn" unicode="&#xd;" horiz-adv-x="342" d="" />
<glyph glyph-name="space" unicode="&#x20;" horiz-adv-x="300" d="" />
<glyph glyph-name="quotedbl" unicode="&#x22;" horiz-adv-x="353" d="M197 548 L153 548 L152 717 Q152 737 166.5 755 Q181 773 207 773 Q233 773 242 755 Q251 737 246 716 L197 548 Z M354 548 L310 548 L309 717 Q309 737 323.5 755 Q338 773 364 773 Q390 773 399 755 Q408 737 403 716 L354 548 Z " />
<glyph glyph-name="numbersign" unicode="&#x23;" horiz-adv-x="729" d="M504 432 L385 432 L325 295 L443 295 L504 432 Z M313 517 L405 732 L513 732 L420 517 L538 517 L632 732 L738 732 L645 517 L786 517 L751 434 L610 434 L552 298 L702 298 L666 214 L516 214 L423 0 L317 0 L409 214 L292 214 L198 0 L91 0 L183 214 L50 214 L85 298 L218 298 L278 434 L135 434 L170 517 L313 517 Z " />
<glyph glyph-name="dollar" unicode="&#x24;" horiz-adv-x="611" d="M371 876 L498 876 L479 743 Q523 732 553.5 709.5 Q584 687 602 657.5 Q620 628 626.5 594 Q633 560 628 526 L505 526 Q506 535 502.5 553 Q499 571 486.5 589 Q474 607 450.5 620 Q427 633 388 633 Q333 633 298 609.5 Q263 586 258 551 Q254 519 272 498.5 Q290 478 325 461 L453 399 Q535 359 570 308.5 Q605 258 595 184 Q589 141 569 107.5 Q549 74 520 49.5 Q491 25 453 9.5 Q415 -6 373 -12 L357 -128 L230 -128 L247 -10 Q179 1 133 33 Q87 65 66 103 L170 179 Q193 147 234.5 126 Q276 105 332 105 Q392 105 425.5 127.5 Q459 150 464 184 Q468 215 452.5 237 Q437 259 395 278 L268 337 Q183 377 150.5 429 Q118 481 127 551 Q133 589 151.5 622 Q170 655 199.5 680.5 Q229 706 268 723.5 Q307 741 353 747 L371 876 Z " />
<glyph glyph-name="percent" unicode="&#x25;" horiz-adv-x="618" d="M663 678 L191 90 L63 90 L535 678 L663 678 Z M414 172 Q419 206 446.5 230 Q474 254 508 254 Q542 254 562 230 Q582 206 577 172 Q572 138 545.5 114 Q519 90 485 90 Q451 90 430 114 Q409 138 414 172 Z M138 596 Q143 630 170 654 Q197 678 231 678 Q265 678 285.5 654 Q306 630 301 596 Q296 562 269 538 Q242 514 208 514 Q174 514 153.5 538 Q133 562 138 596 Z " />
<glyph glyph-name="ampersand" unicode="&#x26;" horiz-adv-x="732" d="M739 404 L736 381 Q727 318 701.5 253.5 Q676 189 631 134 L720 11 L718 0 L585 0 L544 53 Q498 22 442 4.5 Q386 -13 317 -13 Q250 -13 200 6 Q150 25 117 58 Q84 91 70 135.5 Q56 180 63 231 Q69 271 88 304 Q107 337 134.5 362.5 Q162 388 194 405.5 Q226 423 260 432 L250 445 Q202 510 216 592 Q222 628 241 662 Q260 696 290 722 Q320 748 361.5 764 Q403 780 454 780 Q509 780 547 761 Q585 742 608.5 712 Q632 682 640.5 645.5 Q649 609 644 573 L522 573 Q524 590 521 607 Q518 624 507.5 637.5 Q497 651 480 659 Q463 667 438 667 Q398 667 371.5 644.5 Q345 622 339 590 Q331 551 359 512 L564 228 Q585 260 598.5 298 Q612 336 619 381 L622 404 L739 404 Z M333 100 Q416 100 480 140 L321 349 Q271 341 234.5 312 Q198 283 191 233 Q187 205 195 180.5 Q203 156 222 138 Q241 120 269 110 Q297 100 333 100 Z " />
<glyph glyph-name="quotesingle" unicode="&#x27;" horiz-adv-x="233" d="M127 502 L186 600 Q159 606 143 628.5 Q127 651 132 681 Q136 715 163 739 Q190 763 224 763 Q247 763 263.5 752 Q280 741 287.5 723 Q295 705 293 683 Q291 661 278 639 L178 476 L127 502 Z " />
<glyph glyph-name="parenleft" unicode="&#x28;" horiz-adv-x="351" d="M267 351 Q255 266 263 188 Q271 110 297 40 L265 -186 Q187 -77 155 59.5 Q123 196 144 351 Q166 505 236.5 642 Q307 779 416 888 L384 661 Q339 592 309 513.5 Q279 435 267 351 Z " />
<glyph glyph-name="parenright" unicode="&#x29;" horiz-adv-x="351" d="M182 351 Q194 436 186 514 Q178 592 153 662 L185 888 Q262 779 294.5 642.5 Q327 506 305 351 Q284 197 213 60 Q142 -77 34 -186 L66 41 Q110 110 140.5 188.5 Q171 267 182 351 Z " />
<glyph glyph-name="asterisk" unicode="&#x2a;" horiz-adv-x="404" d="M281 550 L201 460 L148 511 L225 597 L125 637 L166 712 L259 674 L273 779 L353 779 L339 674 L443 712 L464 637 L352 597 L404 511 L337 460 L281 550 Z " />
<glyph glyph-name="plus" unicode="&#x2b;" horiz-adv-x="612" d="M85 197 L101 315 L293 315 L320 507 L438 507 L411 315 L603 315 L587 197 L395 197 L368 5 L250 5 L277 197 L85 197 Z " />
<glyph glyph-name="comma" unicode="&#x2c;" horiz-adv-x="264" d="M59 -96 L118 2 Q90 8 74 30.5 Q58 53 63 83 Q67 117 94.5 141 Q122 165 156 165 Q179 165 195 154 Q211 143 218.5 125 Q226 107 224 85 Q222 63 209 41 L109 -122 L59 -96 Z " />
<glyph glyph-name="hyphen" unicode="&#x2d;" horiz-adv-x="612" d="M78 197 L94 315 L606 315 L590 197 L78 197 Z " />
<glyph glyph-name="period" unicode="&#x2e;" horiz-adv-x="264" d="M62 82 Q66 116 93.5 140 Q121 164 155 164 Q189 164 209.5 140 Q230 116 226 82 Q221 48 193.5 24 Q166 0 132 0 Q98 0 77.5 24 Q57 48 62 82 Z " />
<glyph glyph-name="slash" unicode="&#x2f;" horiz-adv-x="265" d="M390 750 L90 -18 L-33 -18 L267 750 L390 750 Z " />
<glyph glyph-name="zero" unicode="0" horiz-adv-x="695" d="M108 377 Q119 457 147 529 Q175 601 219 655 Q263 709 322 740.5 Q381 772 455 772 Q529 772 580 740.5 Q631 709 659.5 655 Q688 601 696 529.5 Q704 458 693 377 Q682 297 654 225 Q626 153 581.5 99 Q537 45 477.5 13.5 Q418 -18 344 -18 Q270 -18 219.5 13.5 Q169 45 141 99 Q113 153 105 225 Q97 297 108 377 Z M362 103 Q397 103 429 123.5 Q461 144 486.5 180 Q512 216 531 266.5 Q550 317 558 377 Q567 438 562.5 488.5 Q558 539 542.5 575.5 Q527 612 501 632.5 Q475 653 439 653 Q403 653 371 632.5 Q339 612 313.5 575.5 Q288 539 269.5 488.5 Q251 438 242 377 Q234 317 238 266.5 Q242 216 257.5 179.5 Q273 143 299.5 123 Q326 103 362 103 Z " />
<glyph glyph-name="one" unicode="1" horiz-adv-x="487" d="M129 524 L143 627 L233 627 Q250 627 262.5 640 Q275 653 278 673 L289 757 L411 757 L320 109 L447 109 L432 0 L56 0 L71 109 L198 109 L257 524 L129 524 Z " />
<glyph glyph-name="two" unicode="2" horiz-adv-x="635" d="M575 0 L64 0 L76 87 L432 378 Q466 406 494 438 Q522 470 528 512 Q532 542 526 567 Q520 592 504.5 610.5 Q489 629 465.5 639.5 Q442 650 411 650 Q379 650 352 639.5 Q325 629 304.5 610.5 Q284 592 271 566.5 Q258 541 254 512 L136 512 Q143 564 168.5 611 Q194 658 232.5 692.5 Q271 727 321 747.5 Q371 768 428 768 Q486 768 530 748 Q574 728 602.5 693 Q631 658 643 611.5 Q655 565 648 512 Q643 477 630.5 447.5 Q618 418 598 390.5 Q578 363 550.5 337 Q523 311 489 284 L265 108 L590 108 L575 0 Z " />
<glyph glyph-name="three" unicode="3" horiz-adv-x="661" d="M166 559 Q172 604 195.5 643.5 Q219 683 254.5 712.5 Q290 742 336.5 759 Q383 776 435 776 Q490 776 532 759.5 Q574 743 600.5 714 Q627 685 638 645.5 Q649 606 643 560 Q635 505 610.5 465 Q586 425 550 402 Q571 391 588 373.5 Q605 356 616.5 334 Q628 312 632.5 285.5 Q637 259 633 231 Q626 176 600.5 130 Q575 84 534.5 50.5 Q494 17 440.5 -1.5 Q387 -20 323 -20 Q266 -20 217.5 -1 Q169 18 135.5 51.5 Q102 85 86 131.5 Q70 178 78 233 L206 233 Q202 206 210 181 Q218 156 236 137 Q254 118 280 107 Q306 96 339 96 Q407 96 450.5 131.5 Q494 167 503 223 Q512 277 479.5 307 Q447 337 387 337 L291 337 L307 445 L385 445 Q439 445 475.5 475 Q512 505 519 553 Q525 598 499 628 Q473 658 419 658 Q368 658 333.5 628.5 Q299 599 294 559 L166 559 Z " />
<glyph glyph-name="four" unicode="4" horiz-adv-x="606" d="M605 133 L477 133 L458 0 L340 0 L359 133 L45 133 L32 159 L446 757 L564 757 L492 241 L620 241 L605 133 Z M218 241 L374 241 L414 526 L218 241 Z " />
<glyph glyph-name="five" unicode="5" horiz-adv-x="636" d="M336 114 Q364 114 391 125 Q418 136 440.5 155.5 Q463 175 477.5 200.5 Q492 226 496 255 Q500 284 493 310 Q486 336 470 355.5 Q454 375 430.5 386 Q407 397 377 397 Q331 397 295 376 Q259 355 235 324 L118 324 L215 757 L618 757 L603 648 L301 648 L260 461 Q287 482 322 497 Q357 512 402 512 Q456 512 498.5 492 Q541 472 568.5 437 Q596 402 607.5 355.5 Q619 309 612 255 Q604 202 577 155.5 Q550 109 511 74.5 Q472 40 422 19.5 Q372 -1 320 -1 Q276 -1 237.5 13.5 Q199 28 170 53.5 Q141 79 122.5 114.5 Q104 150 99 191 L224 191 Q235 156 264.5 135 Q294 114 336 114 Z " />
<glyph glyph-name="six" unicode="6" horiz-adv-x="637" d="M99 242 Q105 285 125.5 322.5 Q146 360 172 395 L437 757 L567 757 L372 484 Q429 489 476 473 Q511 461 538.5 439.5 Q566 418 584 388.5 Q602 359 609.5 322 Q617 285 611 242 Q604 189 577 142.5 Q550 96 510.5 61 Q471 26 421.5 6 Q372 -14 319 -14 Q266 -14 222.5 6 Q179 26 148.5 61 Q118 96 105 142.5 Q92 189 99 242 Z M493 242 Q497 270 490 295.5 Q483 321 466.5 339.5 Q450 358 426.5 369 Q403 380 375 380 Q347 380 320 369.5 Q293 359 271.5 340 Q250 321 235.5 296 Q221 271 217 242 Q213 214 220.5 189 Q228 164 244 145.5 Q260 127 283.5 116 Q307 105 336 105 Q364 105 390.5 116 Q417 127 438.5 145.5 Q460 164 474.5 189 Q489 214 493 242 Z " />
<glyph glyph-name="seven" unicode="7" horiz-adv-x="560" d="M135 0 L459 649 L121 649 L136 757 L621 757 L629 743 L262 0 L135 0 Z " />
<glyph glyph-name="eight" unicode="8" horiz-adv-x="629" d="M618 552 Q612 510 590 473.5 Q568 437 535 409 Q577 377 597 326.5 Q617 276 609 219 Q601 166 574.5 120.5 Q548 75 507 41 Q466 7 414.5 -12.5 Q363 -32 306 -32 Q248 -32 201 -12.5 Q154 7 123 41 Q92 75 77.5 120.5 Q63 166 71 219 Q79 276 113 326.5 Q147 377 198 409 Q172 437 161 473.5 Q150 510 156 552 Q162 597 185.5 636 Q209 675 244.5 704.5 Q280 734 325 751 Q370 768 418 768 Q465 768 504.5 751 Q544 734 571.5 704.5 Q599 675 611.5 636 Q624 597 618 552 Z M322 79 Q349 79 376.5 88 Q404 97 425.5 114 Q447 131 463 156.5 Q479 182 483 214 Q487 242 480.5 267.5 Q474 293 458 311.5 Q442 330 417 341 Q392 352 360 352 Q327 352 299 341 Q271 330 249.5 311.5 Q228 293 214 267.5 Q200 242 196 214 Q192 183 200.5 158 Q209 133 227 115.5 Q245 98 269.5 88.5 Q294 79 322 79 Z M374 454 Q395 454 415 462.5 Q435 471 451.5 485 Q468 499 479 517.5 Q490 536 493 556 Q496 577 490 595 Q484 613 471.5 627 Q459 641 441 649 Q423 657 402 657 Q354 657 321.5 627 Q289 597 283 556 Q280 536 285 517.5 Q290 499 302 485 Q314 471 332.5 462.5 Q351 454 374 454 Z " />
<glyph glyph-name="nine" unicode="9" horiz-adv-x="620" d="M648 512 Q642 469 621.5 431.5 Q601 394 575 359 L310 0 L180 0 L375 270 Q316 265 271 282 Q236 294 208 315 Q180 336 162.5 365.5 Q145 395 137.5 432 Q130 469 136 512 Q143 565 169.5 611.5 Q196 658 236 693 Q276 728 325.5 748 Q375 768 428 768 Q481 768 524.5 748 Q568 728 598 693 Q628 658 641.5 611.5 Q655 565 648 512 Z M254 512 Q250 483 257 458 Q264 433 280.5 414.5 Q297 396 320 385 Q343 374 372 374 Q400 374 427 385 Q454 396 475.5 414.5 Q497 433 511.5 458 Q526 483 530 512 Q534 540 526.5 565 Q519 590 503 609 Q487 628 463 639 Q439 650 411 650 Q383 650 356.5 639 Q330 628 308.5 609 Q287 590 272.5 565 Q258 540 254 512 Z " />
<glyph glyph-name="colon" unicode="&#x3a;" horiz-adv-x="264" d="M62 82 Q66 116 93.5 140 Q121 164 155 164 Q189 164 209.5 140 Q230 116 226 82 Q221 48 193.5 24 Q166 0 132 0 Q98 0 77.5 24 Q57 48 62 82 Z M101 366 Q106 400 133.5 424 Q161 448 195 448 Q229 448 249.5 424 Q270 400 265 366 Q261 332 233.5 308 Q206 284 172 284 Q138 284 117.5 308 Q97 332 101 366 Z " />
<glyph glyph-name="semicolon" unicode="&#x3b;" horiz-adv-x="264" d="M59 -96 L118 2 Q90 8 74 30.5 Q58 53 63 83 Q67 117 94.5 141 Q122 165 156 165 Q179 165 195 154 Q211 143 218.5 125 Q226 107 224 85 Q222 63 209 41 L109 -122 L59 -96 Z M101 366 Q106 400 133.5 424 Q161 448 195 448 Q229 448 249.5 424 Q270 400 265 366 Q261 332 233.5 308 Q206 284 172 284 Q138 284 117.5 308 Q97 332 101 366 Z " />
<glyph glyph-name="less" unicode="&#x3c;" horiz-adv-x="504" d="M378 512 L522 512 L524 501 L245 256 L456 11 L450 0 L306 0 L86 256 L378 512 Z " />
<glyph glyph-name="equal" unicode="&#x3d;" horiz-adv-x="612" d="M64 69 L80 187 L584 187 L568 69 L64 69 Z M100 325 L116 443 L620 443 L604 325 L100 325 Z " />
<glyph glyph-name="question" unicode="&#x3f;" horiz-adv-x="592" d="M259 369 L316 369 Q345 369 371.5 379.5 Q398 390 419.5 409 Q441 428 455 453 Q469 478 473 507 Q477 536 470 561 Q463 586 447 605 Q431 624 407.5 634.5 Q384 645 355 645 Q326 645 299.5 634.5 Q273 624 251 605 Q229 586 215 561 Q201 536 197 507 L74 507 Q82 561 109 609 Q136 657 176 692 Q216 727 267 747.5 Q318 768 372 768 Q426 768 471 747.5 Q516 727 546 692 Q576 657 590 609 Q604 561 596 507 Q589 453 561.5 405 Q534 357 494 322 Q454 287 403.5 266.5 Q353 246 299 246 L242 246 L259 369 Z M201 82 Q205 116 232.5 140 Q260 164 294 164 Q328 164 348.5 140 Q369 116 365 82 Q360 48 332.5 24 Q305 0 271 0 Q237 0 216.5 24 Q196 48 201 82 Z " />
<glyph glyph-name="at" unicode="&#x40;" horiz-adv-x="1152" d="M370 333 Q377 381 400.5 423 Q424 465 460 496.5 Q496 528 540.5 546 Q585 564 632 564 Q675 564 710.5 547 Q746 530 771 498 L787 552 L906 552 L849 326 Q840 291 841 266.5 Q842 242 851.5 226.5 Q861 211 876 204 Q891 197 909 197 Q950 197 982 246 Q1014 295 1029 404 Q1038 474 1019 532.5 Q1000 591 956.5 633 Q913 675 845 698 Q777 721 687 721 Q594 721 514.5 692 Q435 663 374 610 Q313 557 274 482.5 Q235 408 225 317 Q216 249 233.5 184 Q251 119 297.5 68.5 Q344 18 421.5 -11.5 Q499 -41 613 -39 Q678 -37 752 -24 Q748 -53 744.5 -80.5 Q741 -108 737 -136 Q699 -143 662.5 -146.5 Q626 -150 591 -152 Q473 -157 375 -127 Q277 -97 210.5 -36.5 Q144 24 113 115 Q82 206 97 325 Q111 443 163.5 539 Q216 635 296.5 702.5 Q377 770 480.5 806.5 Q584 843 701 843 Q824 843 915 808.5 Q1006 774 1063.5 714.5 Q1121 655 1145 576 Q1169 497 1158 407 Q1147 320 1121 257 Q1095 194 1059.5 153.5 Q1024 113 981 94 Q938 75 892 75 Q859 75 833.5 84 Q808 93 789 107 Q770 121 757.5 139.5 Q745 158 738 177 Q704 140 658.5 121.5 Q613 103 567 103 Q519 103 480.5 121 Q442 139 414.5 170 Q387 201 375 243 Q363 285 370 333 Z M495 333 Q487 279 514.5 247.5 Q542 216 595 216 Q649 216 685.5 248 Q722 280 730 333 Q733 355 727.5 376.5 Q722 398 709 414.5 Q696 431 675.5 441 Q655 451 628 451 Q602 451 579.5 441 Q557 431 539 414.5 Q521 398 509.5 376.5 Q498 355 495 333 Z " />
<glyph glyph-name="A" unicode="A" horiz-adv-x="737" d="M586 0 L549 142 L228 142 L150 0 L17 0 L411 735 L530 735 L720 0 L586 0 Z M447 560 L283 250 L525 250 L447 560 Z " />
<glyph glyph-name="B" unicode="B" horiz-adv-x="648" d="M81 0 L184 735 L460 735 Q505 735 541.5 718.5 Q578 702 602.5 673 Q627 644 638 605.5 Q649 567 643 524 Q637 484 615 448 Q593 412 561 386 Q602 357 623.5 311.5 Q645 266 638 212 Q632 168 610 129.5 Q588 91 555 62 Q522 33 481 16.5 Q440 0 395 0 L81 0 Z M215 112 L402 112 Q423 112 442 120 Q461 128 476.5 141.5 Q492 155 502.5 173 Q513 191 516 212 Q519 233 513.5 251.5 Q508 270 496.5 284 Q485 298 467 306 Q449 314 428 314 L243 314 L215 112 Z M259 425 L408 425 Q449 425 482 452.5 Q515 480 522 524 Q524 544 519 562 Q514 580 502 593.5 Q490 607 473 614.5 Q456 622 435 622 L286 622 L259 425 Z " />
<glyph glyph-name="C" unicode="C" horiz-adv-x="721" d="M223 367 Q215 312 228.5 265 Q242 218 271.5 183.5 Q301 149 345.5 129.5 Q390 110 444 110 Q496 110 544.5 131 Q593 152 634 186 L704 99 Q648 48 575 18.5 Q502 -11 421 -11 Q342 -11 277.5 18.5 Q213 48 169 99 Q125 150 105 219 Q85 288 97 367 Q108 447 146.5 516.5 Q185 586 243.5 637 Q302 688 375 717 Q448 746 528 746 Q609 746 673 716.5 Q737 687 779 636 L685 549 Q655 583 612 603.5 Q569 624 517 624 Q461 624 411 604.5 Q361 585 322 550.5 Q283 516 256.5 469 Q230 422 223 367 Z " />
<glyph glyph-name="D" unicode="D" horiz-adv-x="699" d="M90 0 L193 735 L403 735 Q479 735 541.5 706 Q604 677 647 627 Q690 577 709.5 510.5 Q729 444 719 368 Q708 292 669.5 225 Q631 158 574 108 Q517 58 446.5 29 Q376 0 300 0 L90 0 Z M304 617 L234 118 L310 118 Q363 118 411 137.5 Q459 157 497 190.5 Q535 224 560.5 269.5 Q586 315 594 368 Q601 421 588 466.5 Q575 512 546 545.5 Q517 579 474.5 598 Q432 617 380 617 L304 617 Z " />
<glyph glyph-name="E" unicode="E" horiz-adv-x="589" d="M193 735 L643 735 L628 626 L309 626 L281 425 L562 425 L547 318 L266 318 L236 109 L555 109 L540 0 L90 0 L193 735 Z " />
<glyph glyph-name="F" unicode="F" horiz-adv-x="571" d="M193 735 L636 735 L621 626 L305 626 L277 425 L555 425 L540 318 L262 318 L217 0 L90 0 L193 735 Z " />
<glyph glyph-name="G" unicode="G" horiz-adv-x="840" d="M218 368 Q210 314 224 267 Q238 220 268 185 Q298 150 342 130 Q386 110 439 110 Q488 110 532 123 Q576 136 612 161.5 Q648 187 673.5 224.5 Q699 262 711 310 L477 310 L493 425 L849 425 Q850 411 849 396.5 Q848 382 846 367 Q833 280 794.5 210 Q756 140 699 91 Q642 42 571 15.5 Q500 -11 423 -11 Q343 -11 278 18.5 Q213 48 169 99.5 Q125 151 105.5 220 Q86 289 97 368 Q108 449 146 516.5 Q184 584 241.5 632.5 Q299 681 372 708.5 Q445 736 527 736 Q605 736 669.5 708 Q734 680 778 629 L681 549 Q652 583 608.5 602.5 Q565 622 511 622 Q454 622 404.5 603 Q355 584 316 550.5 Q277 517 251 470 Q225 423 218 368 Z " />
<glyph glyph-name="H" unicode="H" horiz-adv-x="780" d="M81 0 L184 734 L315 734 L272 425 L628 425 L671 735 L802 735 L699 0 L568 0 L613 318 L257 318 L212 0 L81 0 Z " />
<glyph glyph-name="I" unicode="I" horiz-adv-x="504" d="M145 626 L160 735 L550 735 L535 626 L405 626 L332 109 L462 109 L447 0 L57 0 L72 109 L201 109 L274 626 L145 626 Z " />
<glyph glyph-name="J" unicode="J" horiz-adv-x="497" d="M176 188 Q172 156 191.5 134 Q211 112 243 112 Q274 112 299.5 134 Q325 156 329 188 L406 735 L528 735 L451 188 Q446 147 425.5 111 Q405 75 374 48 Q343 21 305 5.5 Q267 -10 226 -10 Q185 -10 151 5.5 Q117 21 94 48 Q71 75 60.5 111 Q50 147 55 188 L176 188 Z " />
<glyph glyph-name="K" unicode="K" horiz-adv-x="724" d="M250 318 L205 0 L81 0 L184 735 L308 735 L265 425 L420 425 L642 735 L781 735 L522 374 L684 0 L545 0 L409 318 L250 318 Z " />
<glyph glyph-name="L" unicode="L" horiz-adv-x="481" d="M461 0 L81 0 L184 735 L310 735 L222 109 L476 109 L461 0 Z " />
<glyph glyph-name="M" unicode="M" horiz-adv-x="882" d="M676 0 L740 458 L474 236 L270 458 L206 0 L81 0 L184 735 L195 739 L498 406 L894 739 L904 735 L801 0 L676 0 Z " />
<glyph glyph-name="N" unicode="N" horiz-adv-x="802" d="M699 735 L824 735 L722 5 L709 -1 L271 464 L206 0 L81 0 L184 730 L195 735 L634 270 L699 735 Z " />
<glyph glyph-name="O" unicode="O" horiz-adv-x="850" d="M98 368 Q109 446 148.5 515 Q188 584 247 635.5 Q306 687 379 717 Q452 747 530 747 Q608 747 673 717 Q738 687 782 635.5 Q826 584 846.5 515 Q867 446 856 368 Q845 290 805 221 Q765 152 706.5 100.5 Q648 49 574.5 19 Q501 -11 423 -11 Q345 -11 280.5 19 Q216 49 171.5 100.5 Q127 152 107 221 Q87 290 98 368 Z M226 368 Q218 316 232 270.5 Q246 225 275 191 Q304 157 346.5 137 Q389 117 441 117 Q493 117 541.5 137 Q590 157 629 191 Q668 225 694 270.5 Q720 316 728 368 Q735 420 721.5 465.5 Q708 511 678.5 545 Q649 579 606.5 599 Q564 619 512 619 Q460 619 411.5 599 Q363 579 324.5 545 Q286 511 259.5 465.5 Q233 420 226 368 Z " />
<glyph glyph-name="P" unicode="P" horiz-adv-x="613" d="M238 226 L206 0 L81 0 L184 735 L443 735 Q496 735 540 715 Q584 695 613.5 660.5 Q643 626 656.5 579.5 Q670 533 662 480 Q655 427 628.5 381 Q602 335 562.5 300.5 Q523 266 474 246 Q425 226 372 226 L238 226 Z M378 334 Q408 334 436.5 345.5 Q465 357 487.5 376.5 Q510 396 525 423 Q540 450 544 480 Q549 510 541 537 Q533 564 516.5 583.5 Q500 603 474.5 614.5 Q449 626 419 626 L294 626 L253 334 L378 334 Z " />
<glyph glyph-name="Q" unicode="Q" horiz-adv-x="850" d="M97 368 Q108 446 147.5 515 Q187 584 246 635.5 Q305 687 378.5 717 Q452 747 530 747 Q608 747 673 717 Q738 687 782 635.5 Q826 584 846.5 515 Q867 446 856 368 Q846 300 814.5 238.5 Q783 177 735.5 128 Q688 79 629 45 Q570 11 504 -2 L502 -16 Q497 -53 516 -79 Q535 -105 576 -105 Q619 -105 646.5 -80.5 Q674 -56 680 -16 L798 -16 Q792 -59 770 -97 Q748 -135 715.5 -163 Q683 -191 643 -207 Q603 -223 560 -223 Q517 -223 481.5 -206.5 Q446 -190 422.5 -162 Q399 -134 388.5 -96.5 Q378 -59 384 -16 L385 -8 Q314 -1 256 31 Q198 63 159.5 113.5 Q121 164 103.5 229 Q86 294 97 368 Z M226 368 Q218 316 232 270.5 Q246 225 275 191 Q304 157 346.5 137 Q389 117 441 117 Q493 117 541.5 137 Q590 157 629 191 Q668 225 694 270.5 Q720 316 728 368 Q735 420 721.5 465.5 Q708 511 678.5 545 Q649 579 606.5 599 Q564 619 512 619 Q460 619 411.5 599 Q363 579 324.5 545 Q286 511 259.5 465.5 Q233 420 226 368 Z " />
<glyph glyph-name="R" unicode="R" horiz-adv-x="671" d="M206 0 L81 0 L184 735 L497 735 Q545 735 584.5 717 Q624 699 651 667.5 Q678 636 690.5 594 Q703 552 696 504 Q686 436 644.5 382 Q603 328 543 299 L617 0 L485 0 L417 274 L245 274 L206 0 Z M435 382 Q460 382 483.5 391.5 Q507 401 526 417.5 Q545 434 557.5 456.5 Q570 479 574 504 Q577 529 571 551.5 Q565 574 550.5 590.5 Q536 607 515 616.5 Q494 626 469 626 L294 626 L260 382 L435 382 Z " />
<glyph glyph-name="S" unicode="S" horiz-adv-x="609" d="M315 -16 Q269 -16 229 -6.5 Q189 3 157 19.5 Q125 36 102 57.5 Q79 79 66 103 L170 179 Q193 148 235 126.5 Q277 105 333 105 Q393 105 426 127.5 Q459 150 464 184 Q468 215 452.5 237 Q437 259 395 278 L268 337 Q183 377 150.5 429 Q118 481 127 551 Q133 594 156.5 631 Q180 668 216.5 695 Q253 722 301 737 Q349 752 405 752 Q469 752 513.5 732 Q558 712 585.5 679.5 Q613 647 623.5 606.5 Q634 566 628 526 L505 526 Q506 535 502.5 553 Q499 571 486.5 589 Q474 607 450.5 620 Q427 633 388 633 Q333 633 298 609.5 Q263 586 258 551 Q254 519 272 498.5 Q290 478 325 461 L453 399 Q535 359 570 308.5 Q605 258 595 184 Q588 134 562 96.5 Q536 59 498 34 Q460 9 413 -3.5 Q366 -16 315 -16 Z " />
<glyph glyph-name="T" unicode="T" horiz-adv-x="557" d="M642 734 L627 626 L429 626 L341 0 L216 0 L304 626 L105 626 L120 734 L642 734 Z " />
<glyph glyph-name="U" unicode="U" horiz-adv-x="761" d="M225 317 Q218 271 228 233 Q238 195 261.5 167.5 Q285 140 319 125 Q353 110 395 110 Q437 110 476 125 Q515 140 546 167.5 Q577 195 598 233 Q619 271 626 317 L684 735 L811 735 L753 317 Q743 249 709 189 Q675 129 624.5 84.5 Q574 40 510 14.5 Q446 -11 378 -11 Q310 -11 254 14.5 Q198 40 159.5 84.5 Q121 129 104 189 Q87 249 97 317 L155 735 L283 735 L225 317 Z " />
<glyph glyph-name="V" unicode="V" horiz-adv-x="714" d="M454 0 L260 0 L114 735 L246 735 L372 106 L674 735 L807 735 L454 0 Z " />
<glyph glyph-name="W" unicode="W" horiz-adv-x="926" d="M676 136 L688 136 L880 735 L1009 735 L763 0 L572 0 L542 520 L529 520 L354 0 L163 0 L123 735 L253 735 L276 136 L287 136 L494 735 L638 735 L676 136 Z " />
<glyph glyph-name="X" unicode="X" horiz-adv-x="689" d="M164 0 L20 0 L325 385 L144 735 L289 735 L414 493 L605 735 L749 735 L472 385 L670 0 L525 0 L384 277 L164 0 Z " />
<glyph glyph-name="Y" unicode="Y" horiz-adv-x="574" d="M229 0 L259 212 L114 735 L247 735 L342 385 L534 735 L667 735 L377 212 L347 0 L229 0 Z " />
<glyph glyph-name="Z" unicode="Z" horiz-adv-x="616" d="M119 318 L134 425 L335 425 L480 626 L140 626 L155 735 L658 735 L671 709 L470 425 L602 425 L587 318 L394 318 L244 109 L579 109 L564 0 L61 0 L49 26 L259 318 L119 318 Z " />
<glyph glyph-name="bracketleft" unicode="&#x5b;" horiz-adv-x="411" d="M220 896 L476 896 L459 778 L322 778 L212 -10 L349 -10 L332 -128 L76 -128 L220 896 Z " />
<glyph glyph-name="bracketright" unicode="&#x5d;" horiz-adv-x="411" d="M332 -128 L76 -128 L93 -10 L231 -10 L341 778 L203 778 L220 896 L476 896 L332 -128 Z " />
<glyph glyph-name="asciicircum" unicode="&#x5e;" horiz-adv-x="372" d="M277 655 L174 564 L136 609 L291 745 L408 609 L356 564 L277 655 Z " />
<glyph glyph-name="underscore" unicode="&#x5f;" horiz-adv-x="612" d="M50 0 L67 118 L575 118 L558 0 L50 0 Z " />
<glyph glyph-name="a" unicode="a" horiz-adv-x="579" d="M401 72 Q373 36 327 12.5 Q281 -11 226 -11 Q182 -11 150 2 Q118 15 98 37 Q78 59 70 88.5 Q62 118 66 151 Q71 182 86.5 210 Q102 238 130.5 259 Q159 280 200.5 292 Q242 304 296 304 L434 304 L435 311 Q441 354 419.5 382.5 Q398 411 345 411 Q312 411 281.5 397.5 Q251 384 226 359 L156 428 Q193 466 246.5 493 Q300 520 360 521 Q414 521 453 504 Q492 487 515.5 458.5 Q539 430 548.5 392 Q558 354 552 311 L508 0 L391 0 L401 72 Z M187 151 Q183 124 205.5 106.5 Q228 89 266 89 Q290 89 316 97.5 Q342 106 363.5 122 Q385 138 401 160 Q417 182 420 209 L282 209 Q236 209 213.5 193 Q191 177 187 151 Z " />
<glyph glyph-name="b" unicode="b" horiz-adv-x="642" d="M628 256 Q621 203 595.5 156 Q570 109 532.5 74.5 Q495 40 446.5 20 Q398 0 344 0 Q301 0 265.5 17 Q230 34 208 62 L199 0 L81 0 L189 768 L307 768 L262 450 Q292 478 333 495 Q374 512 416 512 Q470 512 512.5 492 Q555 472 583.5 437.5 Q612 403 623.5 356 Q635 309 628 256 Z M216 256 Q212 225 219.5 198.5 Q227 172 244 152 Q261 132 285.5 120.5 Q310 109 341 109 Q372 109 401 120.5 Q430 132 452.5 152 Q475 172 490.5 198.5 Q506 225 510 256 Q514 287 506.5 313.5 Q499 340 481.5 360 Q464 380 439 391.5 Q414 403 383 403 Q352 403 323.5 391.5 Q295 380 273 360 Q251 340 235.5 313.5 Q220 287 216 256 Z " />
<glyph glyph-name="c" unicode="c" horiz-adv-x="533" d="M512 67 Q471 32 422.5 11 Q374 -10 315 -10 Q260 -10 214 11 Q168 32 137.5 68 Q107 104 92.5 152.5 Q78 201 86 256 Q94 311 121.5 359.5 Q149 408 190 444 Q231 480 282.5 501 Q334 522 389 522 Q450 522 495.5 499 Q541 476 570 440 L476 359 Q459 380 432 392 Q405 404 373 404 Q342 404 313.5 392.5 Q285 381 262 360.5 Q239 340 223.5 313 Q208 286 204 256 Q200 225 207.5 198 Q215 171 232 151 Q249 131 274.5 119.5 Q300 108 331 108 Q362 108 392 119.5 Q422 131 445 151 L512 67 Z " />
<glyph glyph-name="d" unicode="d" horiz-adv-x="642" d="M86 256 Q93 309 118.5 356 Q144 403 181.5 437.5 Q219 472 267.5 492 Q316 512 370 512 Q413 512 448.5 495 Q484 478 506 450 L551 768 L669 768 L561 0 L443 0 L452 62 Q422 34 381.5 17 Q341 0 298 0 Q244 0 201.5 20 Q159 40 130.5 74.5 Q102 109 90.5 156 Q79 203 86 256 Z M498 256 Q502 287 494.5 313.5 Q487 340 470 360 Q453 380 428.5 391.5 Q404 403 373 403 Q342 403 313.5 391.5 Q285 380 262.5 360 Q240 340 224.5 313.5 Q209 287 205 256 Q201 225 208.5 198.5 Q216 172 233.5 152 Q251 132 275.5 120.5 Q300 109 331 109 Q362 109 390.5 120.5 Q419 132 441 152 Q463 172 478.5 198.5 Q494 225 498 256 Z " />
<glyph glyph-name="e" unicode="e" horiz-adv-x="611" d="M605 251 Q604 241 600.5 228.5 Q597 216 594 208 L203 208 Q200 187 208.5 167.5 Q217 148 234.5 133 Q252 118 276 109 Q300 100 330 100 Q368 100 402.5 115 Q437 130 464 154 L541 85 Q497 40 438.5 15 Q380 -10 314 -10 Q266 -10 220.5 6.5 Q175 23 142.5 56 Q110 89 93.5 139 Q77 189 86 256 Q94 311 119 359.5 Q144 408 183 444 Q222 480 272.5 501 Q323 522 381 522 Q439 522 485 501.5 Q531 481 560 444.5 Q589 408 601 358.5 Q613 309 605 251 Z M367 416 Q335 416 308.5 405.5 Q282 395 262.5 379 Q243 363 231 343 Q219 323 217 304 L489 304 Q491 322 484.5 341.5 Q478 361 462 377.5 Q446 394 422 405 Q398 416 367 416 Z " />
<glyph glyph-name="f" unicode="f" horiz-adv-x="377" d="M395 656 Q365 656 343.5 636 Q322 616 317 581 L307 512 L430 512 L415 407 L292 407 L235 0 L117 0 L174 407 L95 407 L110 512 L189 512 L199 580 Q204 620 222.5 654 Q241 688 269.5 713.5 Q298 739 334 753.5 Q370 768 411 768 Q451 768 473 763 L458 656 L395 656 Z " />
<glyph glyph-name="g" unicode="g" horiz-adv-x="570" d="M124 334 Q130 376 151 413.5 Q172 451 203.5 478.5 Q235 506 274.5 522 Q314 538 356 538 Q400 538 435 521 Q470 504 494 474 Q525 494 556.5 503 Q588 512 623 512 L631 512 L616 407 L524 407 Q530 393 532 373 Q534 353 531 334 Q525 292 504 255 Q483 218 451.5 190.5 Q420 163 380 147 Q340 131 298 131 Q272 131 248.5 139.5 Q225 148 205 160 Q182 158 164.5 146 Q147 134 144 111 Q140 87 156.5 75.5 Q173 64 200 64 L345 64 Q439 64 485 21.5 Q531 -21 520 -99 Q509 -177 444 -221.5 Q379 -266 276 -266 Q222 -266 178 -252.5 Q134 -239 105 -215 Q76 -191 62.5 -159 Q49 -127 54 -90 L108 -48 Q62 -36 41 0 Q20 36 29 83 Q37 130 70.5 165.5 Q104 201 148 212 Q132 238 125.5 268.5 Q119 299 124 334 Z M236 334 Q231 296 253.5 269.5 Q276 243 314 243 Q333 243 350.5 250 Q368 257 382.5 269.5 Q397 282 406 298.5 Q415 315 418 334 Q423 372 400.5 398.5 Q378 425 340 425 Q321 425 303.5 418 Q286 411 271.5 398.5 Q257 386 248 369.5 Q239 353 236 334 Z M291 -156 Q340 -156 367 -142.5 Q394 -129 398 -99 Q401 -76 384 -62 Q367 -48 329 -48 L158 -48 Q155 -70 164 -89.5 Q173 -109 190.5 -124 Q208 -139 234 -147.5 Q260 -156 291 -156 Z " />
<glyph glyph-name="h" unicode="h" horiz-adv-x="655" d="M594 0 L475 0 L512 266 Q516 294 509 319 Q502 344 486 363 Q470 382 446.5 392.5 Q423 403 395 403 Q367 403 340.5 392.5 Q314 382 292.5 363.5 Q271 345 256.5 320 Q242 295 239 267 L201 0 L81 0 L189 768 L309 768 L264 448 Q298 481 340.5 501 Q383 521 430 521 Q479 521 519.5 501 Q560 481 587 446.5 Q614 412 626.5 365 Q639 318 631 265 L594 0 Z " />
<glyph glyph-name="i" unicode="i" horiz-adv-x="305" d="M284 512 L212 0 L92 0 L164 512 L284 512 Z M170 705 Q175 739 201.5 762.5 Q228 786 262 786 Q296 786 317 762.5 Q338 739 333 705 Q328 671 301 647 Q274 623 240 623 Q206 623 185.5 647 Q165 671 170 705 Z " />
<glyph glyph-name="j" unicode="j" horiz-adv-x="305" d="M57 -255 L165 512 L283 512 L175 -255 L57 -255 Z M170 705 Q175 739 201.5 762.5 Q228 786 262 786 Q296 786 317 762.5 Q338 739 333 705 Q328 671 301 647 Q274 623 240 623 Q206 623 185.5 647 Q165 671 170 705 Z " />
<glyph glyph-name="k" unicode="k" horiz-adv-x="565" d="M307 768 L243 315 L335 315 L483 512 L615 512 L425 256 L543 0 L411 0 L319 197 L227 197 L199 0 L81 0 L189 768 L307 768 Z " />
<glyph glyph-name="l" unicode="l" horiz-adv-x="284" d="M81 0 L189 768 L311 768 L203 0 L81 0 Z " />
<glyph glyph-name="m" unicode="m" horiz-adv-x="951" d="M890 0 L766 0 L805 281 Q809 306 805.5 328.5 Q802 351 791 368 Q780 385 761 395 Q742 405 715 405 Q665 405 630.5 369 Q596 333 588 281 L549 0 L425 0 L464 281 Q468 306 463 328.5 Q458 351 446 368 Q434 385 415 395 Q396 405 370 405 Q344 405 321.5 395 Q299 385 281.5 368 Q264 351 253 328 Q242 305 238 278 L199 0 L81 0 L153 512 L271 512 L262 447 Q274 462 291 475.5 Q308 489 328.5 499.5 Q349 510 372.5 516.5 Q396 523 420 523 Q467 523 502.5 500.5 Q538 478 558 443 Q597 480 643.5 501.5 Q690 523 741 523 Q790 523 828.5 504 Q867 485 891.5 452.5 Q916 420 926.5 376 Q937 332 929 281 L890 0 Z " />
<glyph glyph-name="n" unicode="n" horiz-adv-x="652" d="M590 0 L472 0 L509 265 Q513 295 508.5 322.5 Q504 350 490.5 370 Q477 390 452.5 402 Q428 414 394 414 Q336 414 292 374 Q248 334 236 263 L199 0 L81 0 L153 512 L271 512 L262 446 Q276 461 295.5 474.5 Q315 488 338 498.5 Q361 509 386.5 515.5 Q412 522 438 522 Q487 522 526 504 Q565 486 590.5 452 Q616 418 625.5 369.5 Q635 321 627 261 L590 0 Z " />
<glyph glyph-name="o" unicode="o" horiz-adv-x="631" d="M86 256 Q94 311 121 359.5 Q148 408 189 444 Q230 480 281.5 500.5 Q333 521 388 521 Q443 521 488.5 500.5 Q534 480 565 444 Q596 408 610.5 359.5 Q625 311 617 256 Q609 200 581 151.5 Q553 103 512 67 Q471 31 420 10.5 Q369 -10 314 -10 Q259 -10 213 10.5 Q167 31 136 67 Q105 103 91.5 151.5 Q78 200 86 256 Z M202 256 Q197 224 205 196.5 Q213 169 230.5 149 Q248 129 273.5 117.5 Q299 106 330 106 Q361 106 390 117.5 Q419 129 442.5 149 Q466 169 481 196.5 Q496 224 501 256 Q505 288 497.5 315.5 Q490 343 472.5 363 Q455 383 429 394.5 Q403 406 372 406 Q341 406 312.5 394.5 Q284 383 260.5 363 Q237 343 221.5 315.5 Q206 288 202 256 Z " />
<glyph glyph-name="p" unicode="p" horiz-adv-x="642" d="M628 256 Q621 203 595.5 156 Q570 109 532.5 74.5 Q495 40 446.5 20 Q398 0 344 0 Q302 0 266 17 Q230 34 208 62 L163 -256 L45 -256 L153 512 L271 512 L262 449 Q292 478 332.5 495 Q373 512 416 512 Q470 512 512.5 492 Q555 472 583.5 437.5 Q612 403 623.5 356 Q635 309 628 256 Z M225 256 Q221 226 228 200 Q235 174 252 154.5 Q269 135 293 124 Q317 113 347 113 Q377 113 404.5 124 Q432 135 454 154.5 Q476 174 491 200 Q506 226 510 256 Q514 286 507 312 Q500 338 483 357.5 Q466 377 441.5 388 Q417 399 387 399 Q357 399 330 388 Q303 377 281 357.5 Q259 338 244 312 Q229 286 225 256 Z " />
<glyph glyph-name="q" unicode="q" horiz-adv-x="642" d="M86 256 Q93 309 118.5 356 Q144 403 181.5 437.5 Q219 472 267.5 492 Q316 512 370 512 Q413 512 448.5 495 Q484 478 506 449 L515 512 L633 512 L525 -256 L407 -256 L452 62 Q422 34 381.5 17 Q341 0 298 0 Q244 0 201.5 20 Q159 40 130.5 74.5 Q102 109 90.5 156 Q79 203 86 256 Z M489 256 Q493 286 486 312 Q479 338 462.5 357.5 Q446 377 422 388 Q398 399 368 399 Q338 399 310.5 388 Q283 377 261 357.5 Q239 338 224 312 Q209 286 205 256 Q201 226 208 200 Q215 174 232 154.5 Q249 135 273.5 124 Q298 113 328 113 Q358 113 385 124 Q412 135 433.5 154.5 Q455 174 470 200 Q485 226 489 256 Z " />
<glyph glyph-name="r" unicode="r" horiz-adv-x="382" d="M201 0 L81 0 L153 512 L256 512 L246 441 Q282 475 325 493.5 Q368 512 415 512 L444 512 L429 407 L400 407 Q368 407 340.5 396.5 Q313 386 292 367 Q271 348 256.5 321.5 Q242 295 238 264 L201 0 Z " />
<glyph glyph-name="s" unicode="s" horiz-adv-x="534" d="M222 370 Q219 352 231.5 340 Q244 328 266 322 L380 293 Q455 273 485.5 233 Q516 193 508 135 Q503 103 487 75 Q471 47 442 26.5 Q413 6 372.5 -5.5 Q332 -17 280 -17 Q240 -17 204.5 -8.5 Q169 0 141 14.5 Q113 29 92.5 48 Q72 67 62 88 L161 151 Q180 122 217 105 Q254 88 294 88 Q335 88 359.5 101.5 Q384 115 387 135 Q389 151 379 164 Q369 177 341 185 L238 212 Q158 233 126.5 273.5 Q95 314 103 370 Q107 402 125.5 430.5 Q144 459 173.5 480.5 Q203 502 243.5 514.5 Q284 527 334 527 Q378 527 415.5 514 Q453 501 479.5 478 Q506 455 519 423 Q532 391 527 353 L409 353 Q410 366 404.5 379 Q399 392 387.5 402.5 Q376 413 359 419.5 Q342 426 320 426 Q273 426 249 408 Q225 390 222 370 Z " />
<glyph glyph-name="t" unicode="t" horiz-adv-x="377" d="M128 0 L185 407 L67 407 L82 512 L200 512 L218 640 L338 640 L320 512 L438 512 L423 407 L305 407 L248 0 L128 0 Z " />
<glyph glyph-name="u" unicode="u" horiz-adv-x="652" d="M133 512 L252 512 L215 247 Q210 217 215 189.5 Q220 162 233.5 142 Q247 122 271 110 Q295 98 330 98 Q387 98 431.5 138 Q476 178 488 249 L525 512 L643 512 L571 0 L453 0 L462 66 Q448 51 428.5 37.5 Q409 24 385.5 13.5 Q362 3 337 -3.5 Q312 -10 286 -10 Q237 -10 198 8 Q159 26 133.5 60 Q108 94 98 142.5 Q88 191 96 251 L133 512 Z " />
<glyph glyph-name="v" unicode="v" horiz-adv-x="567" d="M301 109 L489 512 L622 512 L366 0 L201 0 L89 512 L223 512 L296 109 L301 109 Z " />
<glyph glyph-name="w" unicode="w" horiz-adv-x="786" d="M569 109 L575 109 L714 512 L841 512 L652 0 L475 0 L442 315 L432 315 L311 0 L134 0 L89 512 L216 512 L241 109 L247 109 L402 512 L528 512 L569 109 Z " />
<glyph glyph-name="x" unicode="x" horiz-adv-x="521" d="M504 0 L366 0 L282 153 L155 0 L17 0 L228 255 L89 512 L226 512 L310 357 L439 512 L576 512 L364 255 L504 0 Z " />
<glyph glyph-name="y" unicode="y" horiz-adv-x="572" d="M306 124 L494 512 L627 512 L339 -47 L310 -256 L192 -256 L221 -50 L89 512 L223 512 L301 124 L306 124 Z " />
<glyph glyph-name="z" unicode="z" horiz-adv-x="506" d="M471 105 L456 0 L60 0 L49 25 L336 407 L118 407 L133 512 L519 512 L529 487 L243 105 L471 105 Z " />
<glyph glyph-name="bar" unicode="&#x7c;" horiz-adv-x="308" d="M221 896 L339 896 L195 -128 L77 -128 L221 896 Z " />
<glyph glyph-name="cent" unicode="&#xa2;" horiz-adv-x="556" d="M209 256 Q205 227 212.5 202 Q220 177 236 158 Q252 139 275.5 128.5 Q299 118 328 118 Q362 118 391 132.5 Q420 147 443 170 L522 95 Q492 63 452.5 40 Q413 17 369 7 L371 7 L352 -128 L226 -128 L245 9 Q206 19 174 42.5 Q142 66 121 98 Q100 130 91.5 170.5 Q83 211 89 256 Q95 301 115.5 341 Q136 381 166 413.5 Q196 446 234 469 Q272 492 315 503 L334 640 L460 640 L441 505 L439 505 Q481 495 513.5 472 Q546 449 567 416 L467 342 Q450 365 425 379 Q400 393 366 393 Q337 393 310.5 382.5 Q284 372 263 353.5 Q242 335 227.5 310 Q213 285 209 256 Z " />
<glyph glyph-name="sterling" unicode="&#xa3;" horiz-adv-x="570" d="M107 433 L203 433 L223 576 Q229 616 248.5 651 Q268 686 298 712 Q328 738 365 753 Q402 768 442 768 Q482 768 515 753 Q548 738 570 712 Q592 686 602.5 651 Q613 616 607 576 L489 576 Q493 607 474.5 628.5 Q456 650 425 650 Q394 650 369.5 628.5 Q345 607 341 576 L321 433 L587 433 L572 324 L306 324 L275 108 L541 108 L526 0 L142 0 L188 324 L92 324 L107 433 Z " />
<glyph glyph-name="dieresis" unicode="&#xa8;" horiz-adv-x="477" d="M143 663 Q148 697 175.5 721 Q203 745 237 745 Q271 745 291.5 721 Q312 697 307 663 Q302 629 275 605 Q248 581 214 581 Q180 581 159 605 Q138 629 143 663 Z M356 663 Q361 697 388.5 721 Q416 745 450 745 Q484 745 504.5 721 Q525 697 520 663 Q515 629 488 605 Q461 581 427 581 Q393 581 372 605 Q351 629 356 663 Z " />
<glyph glyph-name="copyright" unicode="&#xa9;" horiz-adv-x="797" d="M80 358 Q91 434 129.5 501.5 Q168 569 225 619 Q282 669 353 698 Q424 727 500 727 Q576 727 639.5 698 Q703 669 746 619 Q789 569 808.5 501.5 Q828 434 817 358 Q807 282 768.5 215 Q730 148 673 98 Q616 48 544.5 19 Q473 -10 397 -10 Q321 -10 258 19 Q195 48 152 98 Q109 148 89.5 215 Q70 282 80 358 Z M162 358 Q154 299 169 247 Q184 195 217.5 156 Q251 117 300 94.5 Q349 72 408 72 Q468 72 523 94.5 Q578 117 622.5 156 Q667 195 697 247 Q727 299 735 358 Q744 418 728.5 470 Q713 522 679.5 561 Q646 600 597.5 622.5 Q549 645 489 645 Q430 645 374.5 622.5 Q319 600 274.5 561 Q230 522 200.5 470 Q171 418 162 358 Z M357 359 Q352 318 376.5 289.5 Q401 261 442 261 Q466 261 486.5 271 Q507 281 524 298 L579 245 Q550 215 511 196.5 Q472 178 429 178 Q391 178 360.5 192 Q330 206 308.5 231 Q287 256 277.5 288.5 Q268 321 273 359 Q279 399 297.5 432.5 Q316 466 344.5 489.5 Q373 513 407.5 526 Q442 539 480 539 Q523 539 557 521 Q591 503 611 472 L541 421 Q530 438 511.5 447.5 Q493 457 469 457 Q428 457 396 430 Q364 403 357 359 Z " />
<glyph glyph-name="macron" unicode="&#xaf;" horiz-adv-x="409" d="M441 581 L132 581 L142 654 L451 654 L441 581 Z " />
<glyph glyph-name="degree" unicode="&#xb0;" horiz-adv-x="364" d="M135 602 Q138 629 152 653 Q166 677 186.5 695 Q207 713 232.5 723.5 Q258 734 285 734 Q312 734 334.5 723.5 Q357 713 372.5 695 Q388 677 395 653 Q402 629 399 602 Q395 575 381 551 Q367 527 346.5 509 Q326 491 300.5 480.5 Q275 470 248 470 Q221 470 198.5 480.5 Q176 491 160.5 509 Q145 527 138 551 Q131 575 135 602 Z M219 602 Q216 582 228 568 Q240 554 260 554 Q280 554 295.5 568 Q311 582 314 602 Q316 622 304.5 635.5 Q293 649 273 649 Q253 649 237 635.5 Q221 622 219 602 Z " />
<glyph glyph-name="acute" unicode="&#xb4;" horiz-adv-x="292" d="M161 566 L134 597 L262 740 Q276 756 298.5 757 Q321 758 333 744 Q345 730 341 708 Q337 686 319 673 L161 566 Z " />
<glyph glyph-name="cedilla" unicode="&#xb8;" horiz-adv-x="264" d="M97 64 L157 64 L147 -5 Q175 -14 190 -39 Q205 -64 201 -96 Q195 -136 163 -164 Q131 -192 91 -192 Q71 -192 55 -184.5 Q39 -177 27 -164 L76 -123 Q80 -127 85.5 -129.5 Q91 -132 99 -132 Q114 -132 126 -121.5 Q138 -111 141 -96 Q143 -81 134 -70.5 Q125 -60 110 -60 Q96 -60 82 -70 L46 -28 Q55 -20 65.5 -13.5 Q76 -7 87 -5 L97 64 Z " />
<glyph glyph-name="multiply" unicode="&#xd7;" horiz-adv-x="538" d="M105 392 L200 475 L317 340 L472 475 L543 392 L389 256 L505 120 L410 37 L293 172 L138 37 L67 120 L221 256 L105 392 Z " />
<glyph glyph-name="germandbls" unicode="&#xdf;" horiz-adv-x="671" d="M592 375 Q631 355 650 312 Q669 269 661 216 Q656 177 637.5 138.5 Q619 100 585.5 69 Q552 38 504 19 Q456 0 390 0 L321 0 L336 109 L409 109 Q439 109 462.5 118 Q486 127 502.5 142 Q519 157 528.5 175.5 Q538 194 541 214 Q544 232 539 250.5 Q534 269 521.5 284 Q509 299 490 308.5 Q471 318 445 318 L366 318 L380 423 L454 423 Q475 423 494.5 431 Q514 439 529.5 453.5 Q545 468 555 487 Q565 506 568 527 Q572 552 567 575.5 Q562 599 548 617 Q534 635 509 646 Q484 657 448 657 Q414 657 386 645.5 Q358 634 337.5 614.5 Q317 595 303.5 567.5 Q290 540 286 509 L214 0 L89 0 L161 509 Q169 567 195.5 615 Q222 663 262.5 697 Q303 731 353 749.5 Q403 768 458 768 Q522 768 568 748.5 Q614 729 643 696.5 Q672 664 683.5 622 Q695 580 688 535 Q676 446 592 375 Z " />
<glyph glyph-name="divide" unicode="&#xf7;" horiz-adv-x="602" d="M78 197 L94 315 L596 315 L580 197 L78 197 Z M228 55 Q233 89 259.5 112.5 Q286 136 320 136 Q354 136 374.5 112.5 Q395 89 390 55 Q385 21 358 -2.5 Q331 -26 297 -26 Q263 -26 243 -2.5 Q223 21 228 55 Z M284 457 Q289 491 316 514.5 Q343 538 377 538 Q411 538 431 514.5 Q451 491 446 457 Q441 423 414.5 399 Q388 375 354 375 Q320 375 299.5 399 Q279 423 284 457 Z " />
<glyph glyph-name="circumflex" unicode="&#x2c6;" horiz-adv-x="372" d="M277 657 L171 564 L135 606 L290 742 L407 606 L358 564 L277 657 Z " />
<glyph glyph-name="caron" unicode="&#x2c7;" horiz-adv-x="372" d="M278 649 L383 742 L420 700 L265 564 L148 700 L196 742 L278 649 Z " />
<glyph glyph-name="breve" unicode="&#x2d8;" horiz-adv-x="334" d="M148 696 L221 696 L218 676 Q215 657 226 644 Q237 631 256 631 Q275 631 289 644 Q303 657 306 676 L309 696 L382 696 L380 681 Q376 657 364 635.5 Q352 614 334 598 Q316 582 293 573 Q270 564 246 564 Q222 564 202 573 Q182 582 168 598 Q154 614 148 635.5 Q142 657 146 681 L148 696 Z " />
<glyph glyph-name="dotaccent" unicode="&#x2d9;" horiz-adv-x="264" d="M143 663 Q148 697 175.5 721 Q203 745 237 745 Q271 745 291.5 721 Q312 697 307 663 Q302 629 275 605 Q248 581 214 581 Q180 581 159 605 Q138 629 143 663 Z " />
<glyph glyph-name="ring" unicode="&#x2da;" horiz-adv-x="292" d="M144 672 Q150 712 182 740 Q214 768 254 768 Q294 768 318 740 Q342 712 336 672 Q331 632 299 604 Q267 576 227 576 Q187 576 163 604 Q139 632 144 672 Z M204 672 Q202 657 211 646.5 Q220 636 235 636 Q250 636 262 646.5 Q274 657 276 672 Q279 687 270 697.5 Q261 708 246 708 Q231 708 219 697.5 Q207 687 204 672 Z " />
<glyph glyph-name="ogonek" unicode="&#x2db;" horiz-adv-x="351" d="M41 -66 Q44 -40 57.5 -17 Q71 6 90.5 23 Q110 40 134 50 Q158 60 184 60 L176 0 Q148 0 126.5 -19.5 Q105 -39 101 -66 Q97 -94 113 -113 Q129 -132 157 -132 Q183 -132 205.5 -113 Q228 -94 232 -66 L292 -66 Q288 -92 275 -115 Q262 -138 242.5 -155 Q223 -172 199 -182 Q175 -192 149 -192 Q123 -192 101.5 -182 Q80 -172 65.5 -155 Q51 -138 44 -115 Q37 -92 41 -66 Z " />
<glyph glyph-name="tilde" unicode="&#x2dc;" horiz-adv-x="421" d="M369 708 Q392 708 409 699.5 Q426 691 437.5 676.5 Q449 662 453.5 643 Q458 624 455 603 L390 603 Q393 623 385 635 Q377 647 360 647 Q346 647 334 638 Q322 629 308 618.5 Q294 608 277 599.5 Q260 591 235 591 Q212 591 194 599.5 Q176 608 165 622.5 Q154 637 149.5 655.5 Q145 674 148 695 L214 695 Q211 675 218.5 663 Q226 651 243 651 Q256 651 268 660 Q280 669 294 679.5 Q308 690 326 699 Q344 708 369 708 Z " />
<glyph glyph-name="endash" unicode="&#x2013;" horiz-adv-x="1124" d="M78 197 L94 315 L1118 315 L1102 197 L78 197 Z " />
<glyph glyph-name="emdash" unicode="&#x2014;" horiz-adv-x="1636" d="M94 315 L1630 315 L1614 197 L78 197 L94 315 Z " />
<glyph glyph-name="quotesinglbase" unicode="&#x201a;" horiz-adv-x="224" d="M56 26 L115 124 Q87 130 71.5 152.5 Q56 175 60 205 Q65 239 92 263 Q119 287 153 287 Q176 287 192 276 Q208 265 215.5 247 Q223 229 221 207 Q219 185 206 163 L106 0 L56 26 Z " />
<glyph glyph-name="quotedblleft" unicode="&#x201c;" horiz-adv-x="441" d="M489 709 L429 611 Q457 605 473 582.5 Q489 560 484 530 Q480 496 452.5 472 Q425 448 391 448 Q368 448 352 459 Q336 470 328.5 488 Q321 506 322.5 528 Q324 550 338 572 L438 735 L489 709 Z M272 709 L212 611 Q239 605 255.5 582.5 Q272 560 267 530 Q263 496 235.5 472 Q208 448 174 448 Q151 448 134.5 459 Q118 470 110.5 488 Q103 506 104.5 528 Q106 550 120 572 L220 735 L272 709 Z " />
<glyph glyph-name="quotedblbase" unicode="&#x201e;" horiz-adv-x="441" d="M56 26 L115 124 Q87 130 71.5 152.5 Q56 175 60 205 Q65 239 92 263 Q119 287 153 287 Q176 287 192 276 Q208 265 215.5 247 Q223 229 221 207 Q219 185 206 163 L106 0 L56 26 Z M273 26 L332 124 Q304 130 288.5 152.5 Q273 175 277 205 Q282 239 309 263 Q336 287 370 287 Q393 287 409.5 276 Q426 265 433.5 247 Q441 229 439 207 Q437 185 424 163 L323 0 L273 26 Z " />
<glyph glyph-name="bullet" unicode="&#x2022;" horiz-adv-x="264" d="M86 256 Q91 290 118.5 314 Q146 338 180 338 Q214 338 234.5 314 Q255 290 250 256 Q245 222 217.5 198 Q190 174 156 174 Q122 174 101.5 198 Q81 222 86 256 Z " />
<glyph glyph-name="minus" unicode="&#x2212;" horiz-adv-x="602" d="M78 197 L94 315 L596 315 L580 197 L78 197 Z " />
<glyph glyph-name="commaaccent" unicode="&#xf6c3;" horiz-adv-x="207" d="M30 -236 L70 -170 Q52 -166 42 -152 Q32 -138 34 -118 Q38 -95 55.5 -79.5 Q73 -64 95 -64 Q110 -64 120.5 -71 Q131 -78 136 -89.5 Q141 -101 140 -115.5 Q139 -130 130 -145 L63 -253 L30 -236 Z " />
<glyph glyph-name="longs" unicode="&#x17f;" horiz-adv-x="426" d="M475 619 Q479 648 461.5 669 Q444 690 415 690 Q386 690 362 669.5 Q338 649 334 619 L247 0 L129 0 L186 403 L89 403 L104 512 L201 512 L216 619 Q222 659 241.5 693.5 Q261 728 290 753.5 Q319 779 356 793.5 Q393 808 432 808 Q471 808 502.5 793 Q534 778 556 752.5 Q578 727 588 692.5 Q598 658 593 619 L475 619 Z " />
<glyph glyph-name="hungarumlaut" unicode="&#x2dd;" horiz-adv-x="483" d="M161 566 L134 597 L262 740 Q276 756 298.5 757 Q321 758 333 744 Q345 730 341 708 Q337 686 319 673 L161 566 Z M352 566 L325 597 L453 740 Q467 756 489.5 757 Q512 758 524 744 Q536 730 532 708 Q528 686 510 673 L352 566 Z " />
<glyph glyph-name="grave" unicode="&#x60;" horiz-adv-x="292" d="M163 673 Q147 686 150 708 Q153 730 169 744 Q185 758 206.5 757 Q228 756 238 740 L326 597 L291 566 L163 673 Z " />
<glyph glyph-name="AE" unicode="&#xc6;" horiz-adv-x="904" d="M942 626 L628 626 L600 424 L914 424 L898 315 L584 315 L555 109 L869 109 L854 0 L409 0 L429 142 L229 142 Q210 107 189.5 71 Q169 35 150 0 L17 0 L417 735 L957 735 L942 626 Z M444 250 L497 626 L483 626 L284 250 L444 250 Z " />
<glyph glyph-name="OE" unicode="&#x152;" horiz-adv-x="1013" d="M98 368 Q109 446 148.5 515 Q188 584 247 635.5 Q306 687 379 717 Q452 747 530 747 Q554 747 576.5 743.5 Q599 740 621 735 L1067 735 L1052 626 L736 626 L708 424 L1024 424 L1008 315 L692 315 L663 109 L979 109 L964 0 L518 0 Q469 -11 423 -11 Q345 -11 280.5 19 Q216 49 171.5 100.5 Q127 152 107 221 Q87 290 98 368 Z M512 619 Q460 619 411.5 599 Q363 579 324.5 545 Q286 511 259.5 465.5 Q233 420 226 368 Q218 316 232 270.5 Q246 225 275 191 Q304 157 346.5 137 Q389 117 441 117 Q490 117 536 134 L602 602 Q561 619 512 619 Z " />
<glyph glyph-name="eth" unicode="&#xf0;" horiz-adv-x="648" d="M611 242 Q604 189 577 142.5 Q550 96 510.5 61 Q471 26 421.5 6 Q372 -14 319 -14 Q266 -14 222.5 6 Q179 26 148.5 61 Q118 96 105 142.5 Q92 189 99 242 Q105 285 122.5 322 Q140 359 166.5 388.5 Q193 418 227 439.5 Q261 461 298 473 Q351 489 406 484 L365 580 L257 552 L247 621 L337 644 L287 757 L417 757 L455 674 L562 702 L571 633 L484 611 L582 395 Q598 360 607.5 322.5 Q617 285 611 242 Z M217 242 Q213 214 220.5 189 Q228 164 244.5 145.5 Q261 127 284.5 116 Q308 105 336 105 Q364 105 391 116 Q418 127 439 145.5 Q460 164 474.5 189 Q489 214 493 242 Q497 271 489.5 296 Q482 321 465.5 340 Q449 359 425 369.5 Q401 380 373 380 Q344 380 318 369 Q292 358 270.5 339.5 Q249 321 235 295.5 Q221 270 217 242 Z " />
<glyph glyph-name="quotedblright" unicode="&#x201d;" horiz-adv-x="441" d="M119 474 L178 572 Q150 578 134.5 600.5 Q119 623 123 653 Q128 687 155 711 Q182 735 216 735 Q239 735 255 724 Q271 713 278.5 695 Q286 677 284 655 Q282 633 269 611 L169 448 L119 474 Z M336 474 L395 572 Q367 578 351.5 600.5 Q336 623 340 653 Q345 687 372 711 Q399 735 433 735 Q456 735 472.5 724 Q489 713 496.5 695 Q504 677 502 655 Q500 633 487 611 L386 448 L336 474 Z " />
<glyph glyph-name="quoteright" unicode="&#x2019;" horiz-adv-x="224" d="M119 474 L178 572 Q150 578 134.5 600.5 Q119 623 123 653 Q128 687 155 711 Q182 735 216 735 Q239 735 255 724 Q271 713 278.5 695 Q286 677 284 655 Q282 633 269 611 L169 448 L119 474 Z " />
<glyph glyph-name="quoteleft" unicode="&#x2018;" horiz-adv-x="224" d="M272 709 L212 611 Q239 605 255.5 582.5 Q272 560 267 530 Q263 496 235.5 472 Q208 448 174 448 Q151 448 134.5 459 Q118 470 110.5 488 Q103 506 104.5 528 Q106 550 120 572 L220 735 L272 709 Z " />
<glyph glyph-name="questiondown" unicode="&#xbf;" horiz-adv-x="582" d="M404 399 L347 399 Q318 399 291.5 388.5 Q265 378 243.5 359 Q222 340 208 315 Q194 290 190 261 Q186 232 193 207 Q200 182 216 163 Q232 144 255.5 133.5 Q279 123 308 123 Q337 123 363.5 133.5 Q390 144 412 163 Q434 182 448 207 Q462 232 466 261 L589 261 Q581 207 554 159 Q527 111 487 76 Q447 41 396 20.5 Q345 0 291 0 Q237 0 192 20.5 Q147 41 117 76 Q87 111 73 159 Q59 207 67 261 Q74 315 101.5 363 Q129 411 169 446 Q209 481 259.5 501.5 Q310 522 364 522 L421 522 L404 399 Z M461 686 Q457 652 430 628 Q403 604 369 604 Q335 604 314.5 628 Q294 652 298 686 Q303 720 330.5 744 Q358 768 392 768 Q426 768 446 744 Q466 720 461 686 Z " />
<glyph glyph-name="exclamdown" unicode="&#xa1;" horiz-adv-x="344" d="M350 686 Q346 652 318.5 628 Q291 604 257 604 Q223 604 202.5 628 Q182 652 186 686 Q191 720 218.5 744 Q246 768 280 768 Q314 768 334.5 744 Q355 720 350 686 Z M307 523 L233 0 L111 0 L185 523 L307 523 Z " />
<glyph glyph-name="greater" unicode="&#x3e;" horiz-adv-x="504" d="M490 256 L198 0 L54 0 L52 11 L331 256 L120 501 L126 512 L270 512 L490 256 Z " />
<glyph glyph-name="guillemotleft" unicode="&#xab;" horiz-adv-x="846" d="M378 512 L522 512 L524 501 L245 256 L456 11 L450 0 L306 0 L86 256 L378 512 Z M720 512 L864 512 L866 501 L587 256 L798 11 L792 0 L648 0 L428 256 L720 512 Z " />
<glyph glyph-name="guilsinglleft" unicode="&#x2039;" horiz-adv-x="504" d="M378 512 L522 512 L524 501 L245 256 L456 11 L450 0 L306 0 L86 256 L378 512 Z " />
<glyph glyph-name="guilsinglright" unicode="&#x203a;" horiz-adv-x="504" d="M490 256 L198 0 L54 0 L52 11 L331 256 L120 501 L126 512 L270 512 L490 256 Z " />
<glyph glyph-name="estimated" unicode="&#x212e;" horiz-adv-x="602" d="M79 256 Q87 311 114 359.5 Q141 408 182 444 Q223 480 274.5 500.5 Q326 521 381 521 Q436 521 481.5 500.5 Q527 480 558 444 Q589 408 603 359.5 Q617 311 609 256 L243 256 L216 65 Q236 48 261 41 Q286 34 313 34 Q379 34 429 61.5 Q479 89 514 135 L563 135 Q522 69 453.5 30 Q385 -9 307 -9 Q252 -9 206 11.5 Q160 32 129.5 68 Q99 104 85 152.5 Q71 201 79 256 Z M248 295 L447 295 L469 447 Q449 463 425 470.5 Q401 478 375 478 Q348 478 321 470 Q294 462 270 445 L248 295 Z " />
<glyph glyph-name="backslash" unicode="&#x5c;" horiz-adv-x="265" d="M198 750 L282 -18 L159 -18 L75 750 L198 750 Z " />
<glyph glyph-name="partialdiff" unicode="&#x2202;" horiz-adv-x="636" d="M619 242 Q612 189 585 142.5 Q558 96 518.5 61 Q479 26 429.5 6 Q380 -14 327 -14 Q274 -14 230.5 6 Q187 26 156.5 61 Q126 96 113 142.5 Q100 189 107 242 Q113 285 130.5 322 Q148 359 174.5 388.5 Q201 418 234.5 439 Q268 460 305 472 Q358 489 413 484 L295 754 L425 754 L590 395 Q606 360 615.5 322.5 Q625 285 619 242 Z M225 242 Q221 214 228.5 189 Q236 164 252 145 Q268 126 291.5 115 Q315 104 344 104 Q372 104 398.5 115 Q425 126 446.5 145 Q468 164 482 189 Q496 214 500 242 Q504 270 496.5 295 Q489 320 472.5 339 Q456 358 432.5 368.5 Q409 379 381 379 Q352 379 325.5 368 Q299 357 278 338.5 Q257 320 243 295 Q229 270 225 242 Z " />
<glyph glyph-name="braceleft" unicode="&#x7b;" horiz-adv-x="574" d="M441 -128 Q388 -128 345.5 -108 Q303 -88 274 -53.5 Q245 -19 232.5 27.5 Q220 74 228 127 L237 191 Q241 218 234.5 241.5 Q228 265 213.5 283 Q199 301 178 311.5 Q157 322 131 323 L126 323 L144 446 L149 446 Q175 447 199.5 457.5 Q224 468 243 485.5 Q262 503 274.5 526.5 Q287 550 291 577 L300 641 Q308 694 333.5 740.5 Q359 787 397 821.5 Q435 856 483.5 876 Q532 896 585 896 L568 774 Q541 774 515.5 763.5 Q490 753 469.5 735 Q449 717 435.5 693 Q422 669 418 642 L409 577 Q401 518 371 468.5 Q341 419 294 384 Q331 349 347 298.5 Q363 248 355 191 L346 126 Q342 99 348.5 75 Q355 51 370.5 33 Q386 15 408.5 4.5 Q431 -6 458 -6 L441 -128 Z " />
<glyph glyph-name="braceright" unicode="&#x7d;" horiz-adv-x="574" d="M80 -6 Q107 -6 132.5 4.5 Q158 15 178.5 33 Q199 51 212.5 75 Q226 99 230 126 L239 191 Q247 248 277 298.5 Q307 349 354 384 Q317 419 301 468.5 Q285 518 293 577 L302 642 Q306 669 299.5 693 Q293 717 277.5 735 Q262 753 239.5 763.5 Q217 774 190 774 L207 896 Q260 896 302.5 876 Q345 856 374.5 821.5 Q404 787 416.5 740.5 Q429 694 421 641 L412 577 Q408 550 414.5 526.5 Q421 503 435 485.5 Q449 468 470 457.5 Q491 447 517 446 L522 446 L504 323 L499 323 Q473 322 449 311.5 Q425 301 406 283 Q387 265 374.5 241.5 Q362 218 358 191 L349 127 Q341 74 315.5 27.5 Q290 -19 251.5 -53.5 Q213 -88 164.5 -108 Q116 -128 63 -128 L80 -6 Z " />
<glyph glyph-name="perthousand" unicode="&#x2030;" horiz-adv-x="804" d="M663 678 L191 90 L63 90 L535 678 L663 678 Z M414 172 Q419 206 446.5 230 Q474 254 508 254 Q542 254 562 230 Q582 206 577 172 Q572 138 545.5 114 Q519 90 485 90 Q451 90 430 114 Q409 138 414 172 Z M138 596 Q143 630 170 654 Q197 678 231 678 Q265 678 285.5 654 Q306 630 301 596 Q296 562 269 538 Q242 514 208 514 Q174 514 153.5 538 Q133 562 138 596 Z M634 172 Q639 206 666.5 230 Q694 254 728 254 Q762 254 782 230 Q802 206 797 172 Q792 138 765.5 114 Q739 90 705 90 Q671 90 650 114 Q629 138 634 172 Z " />
<glyph glyph-name="registered" unicode="&#xae;" horiz-adv-x="797" d="M80 358 Q91 434 129.5 501.5 Q168 569 225 619 Q282 669 353 698 Q424 727 500 727 Q576 727 639.5 698 Q703 669 746 619 Q789 569 808.5 501.5 Q828 434 817 358 Q807 282 768.5 215 Q730 148 673 98 Q616 48 544.5 19 Q473 -10 397 -10 Q321 -10 258 19 Q195 48 152 98 Q109 148 89.5 215 Q70 282 80 358 Z M162 358 Q154 299 169 247 Q184 195 217.5 156 Q251 117 300 94.5 Q349 72 408 72 Q468 72 523 94.5 Q578 117 622.5 156 Q667 195 697 247 Q727 299 735 358 Q744 418 728.5 470 Q713 522 679.5 561 Q646 600 597.5 622.5 Q549 645 489 645 Q430 645 374.5 622.5 Q319 600 274.5 561 Q230 522 200.5 470 Q171 418 162 358 Z M373 188 L301 188 L352 548 L506 548 Q530 548 549 539 Q568 530 581 515 Q594 500 600.5 479.5 Q607 459 603 435 Q598 402 578 375 Q558 348 529 334 L564 188 L490 188 L456 322 L392 322 L373 188 Z M476 384 Q498 384 515 398.5 Q532 413 535 435 Q538 456 525 470.5 Q512 485 491 485 L415 485 L401 384 L476 384 Z " />
<glyph glyph-name="exclam" unicode="&#x21;" horiz-adv-x="344" d="M102 82 Q106 116 133.5 140 Q161 164 195 164 Q229 164 249.5 140 Q270 116 266 82 Q261 48 233.5 24 Q206 0 172 0 Q138 0 117.5 24 Q97 48 102 82 Z M145 245 L219 768 L341 768 L267 245 L145 245 Z " />
<glyph glyph-name="asciitilde" unicode="&#x7e;" horiz-adv-x="571" d="M417 337 Q450 337 476 324.5 Q502 312 518.5 290.5 Q535 269 542 241.5 Q549 214 545 184 L450 184 Q454 213 442 231 Q430 249 405 249 Q385 249 367.5 236 Q350 223 330 207 Q310 191 284.5 178 Q259 165 223 165 Q189 165 163 177.5 Q137 190 120.5 211 Q104 232 97 260 Q90 288 95 318 L190 318 Q186 289 198 271 Q210 253 236 253 Q255 253 272 266 Q289 279 309.5 295 Q330 311 355.5 324 Q381 337 417 337 Z " />
<glyph glyph-name="dagger" unicode="&#x2020;" horiz-adv-x="601" d="M123 517 L139 635 L327 635 L355 832 L481 832 L453 635 L640 635 L624 517 L437 517 L346 -128 L220 -128 L311 517 L123 517 Z " />
<glyph glyph-name="brokenbar" unicode="&#xa6;" horiz-adv-x="308" d="M140 320 L258 320 L195 -128 L77 -128 L140 320 Z M276 448 L158 448 L221 896 L339 896 L276 448 Z " />
<glyph glyph-name="trademark" unicode="&#x2122;" horiz-adv-x="536" d="M272 768 L309 768 L340 717 L386 768 L422 768 L406 652 L370 652 L379 718 L332 665 L302 718 L293 652 L256 652 L272 768 Z M142 768 L251 768 L246 735 L210 735 L199 652 L163 652 L174 735 L137 735 L142 768 Z " />
<glyph glyph-name="Euro" unicode="&#x20ac;" horiz-adv-x="730" d="M26 407 L43 525 L161 525 Q190 574 230 614.5 Q270 655 318 684.5 Q366 714 422 730 Q478 746 537 746 Q618 746 682 716.5 Q746 687 788 636 L693 549 Q663 583 620.5 603.5 Q578 624 526 624 Q460 624 403.5 597.5 Q347 571 307 525 L520 525 L503 407 L239 407 Q236 396 234.5 387 Q233 378 232 367 Q230 356 229 347.5 Q228 339 228 329 L492 329 L476 211 L263 211 Q289 163 338.5 136.5 Q388 110 453 110 Q505 110 553.5 131 Q602 152 643 186 L713 99 Q657 48 584 18.5 Q511 -11 430 -11 Q372 -11 321.5 5 Q271 21 230.5 50.5 Q190 80 161 120.5 Q132 161 117 211 L-1 211 L15 329 L102 329 Q103 339 103.5 348 Q104 357 106 367 Q107 378 109 387 Q111 396 113 407 L26 407 Z " />
<glyph glyph-name="kgreenlandic" unicode="&#x138;" horiz-adv-x="594" d="M243 310 L354 310 Q399 310 433.5 340.5 Q468 371 474 416 L488 512 L606 512 L592 416 Q583 351 541.5 297.5 Q500 244 441 217 L545 0 L413 0 L318 193 L226 193 L199 0 L81 0 L153 512 L271 512 L243 310 Z " />
<glyph glyph-name="threequartersemdash" unicode="&#xf6de;" horiz-adv-x="1636" d="M94 315 L1630 315 L1614 197 L78 197 L94 315 Z " />
<glyph glyph-name="lira" unicode="&#x20a4;" horiz-adv-x="570" d="M90 311 L186 311 L198 396 L102 396 L117 505 L213 505 L223 576 Q229 616 248.5 651 Q268 686 298 712 Q328 738 365 753 Q402 768 442 768 Q482 768 515 753 Q548 738 570 712 Q592 686 602.5 651 Q613 616 607 576 L489 576 Q493 607 474.5 628.5 Q456 650 425 650 Q394 650 369.5 628.5 Q345 607 341 576 L331 505 L597 505 L582 396 L316 396 L304 311 L570 311 L555 203 L289 203 L275 108 L541 108 L526 0 L142 0 L171 203 L75 203 L90 311 Z " />
<glyph glyph-name="yen" unicode="&#xa5;" horiz-adv-x="593" d="M82 261 L98 379 L222 379 L123 735 L256 735 L351 385 L543 735 L676 735 L477 379 L602 379 L586 261 L393 261 L385 204 L578 204 L561 86 L368 86 L356 0 L238 0 L250 86 L57 86 L74 204 L267 204 L275 261 L82 261 Z " />
<glyph glyph-name="ae" unicode="&#xe6;" horiz-adv-x="941" d="M939 251 Q938 241 934 228.5 Q930 216 927 208 L537 208 Q534 187 542.5 167.5 Q551 148 568.5 133 Q586 118 610 109 Q634 100 664 100 Q702 100 736 115 Q770 130 797 154 L874 85 Q830 40 772 15 Q714 -10 648 -10 Q588 -10 535.5 14.5 Q483 39 454 90 Q402 33 345.5 11 Q289 -11 240 -11 Q195 -11 161 2 Q127 15 104 37 Q81 59 71.5 88.5 Q62 118 66 151 Q71 182 87 210 Q103 238 131.5 259 Q160 280 201 292 Q242 304 296 304 L434 304 L435 311 Q441 354 419.5 382.5 Q398 411 345 411 Q309 411 280.5 395 Q252 379 225 350 L155 419 Q172 439 195.5 457.5 Q219 476 246 490 Q273 504 302 512.5 Q331 521 360 521 Q420 521 460 500 Q500 479 523 444 Q559 479 608 500.5 Q657 522 714 522 Q772 522 818 501.5 Q864 481 893.5 444.5 Q923 408 935 358.5 Q947 309 939 251 Z M701 416 Q668 416 642 406 Q616 396 596.5 379.5 Q577 363 565 343 Q553 323 551 304 L822 304 Q824 322 817.5 341.5 Q811 361 795.5 377.5 Q780 394 756 405 Q732 416 701 416 Z M187 151 Q183 124 205.5 106.5 Q228 89 266 89 Q290 89 316 97.5 Q342 106 363.5 122 Q385 138 401 160 Q417 182 420 209 L282 209 Q236 209 213.5 193 Q191 177 187 151 Z " />
<glyph glyph-name="oe" unicode="&#x153;" horiz-adv-x="1031" d="M86 256 Q94 311 121 359.5 Q148 408 189 444 Q230 480 281.5 500.5 Q333 521 389 521 Q452 521 501 493.5 Q550 466 578 412 Q619 466 674.5 494 Q730 522 796 522 Q854 522 900 501.5 Q946 481 975.5 444.5 Q1005 408 1017 358.5 Q1029 309 1021 251 Q1020 241 1016 228.5 Q1012 216 1009 208 L619 208 Q616 188 624.5 168.5 Q633 149 650 134 Q667 119 691.5 109.5 Q716 100 746 100 Q784 100 818 115 Q852 130 879 154 L956 85 Q912 40 854 15 Q796 -10 730 -10 Q670 -10 617.5 16 Q565 42 535 99 Q491 46 434.5 18 Q378 -10 315 -10 Q259 -10 213 10.5 Q167 31 136 67 Q105 103 91.5 151.5 Q78 200 86 256 Z M203 256 Q199 226 207 198.5 Q215 171 232 151 Q249 131 275 119 Q301 107 331 107 Q361 107 390 119 Q419 131 442 151 Q465 171 481 198.5 Q497 226 501 256 Q505 286 497 313.5 Q489 341 472 361 Q455 381 429 393 Q403 405 373 405 Q343 405 314 393 Q285 381 262 361 Q239 341 223 313.5 Q207 286 203 256 Z M783 416 Q750 416 724 405.5 Q698 395 678.5 379 Q659 363 647 343 Q635 323 633 304 L904 304 Q906 322 899.5 341.5 Q893 361 877.5 377.5 Q862 394 838 405 Q814 416 783 416 Z " />
<glyph glyph-name="Oslash" unicode="&#xd8;" horiz-adv-x="849" d="M97 368 Q108 446 147.5 515 Q187 584 246 635.5 Q305 687 378.5 717 Q452 747 530 747 Q592 747 645.5 728 Q699 709 742 674 L818 741 L889 658 L813 591 Q841 543 853 487 Q865 431 856 368 Q845 290 805 221 Q765 152 706.5 100.5 Q648 49 574.5 19 Q501 -11 423 -11 Q360 -11 306 8 Q252 27 210 62 L134 -4 L63 80 L138 145 Q110 193 99 249 Q88 305 97 368 Z M441 117 Q493 117 541.5 137 Q590 157 629 191 Q668 225 694 270.5 Q720 316 728 368 Q733 404 727 437 Q721 470 707 499 L316 155 Q366 117 441 117 Z M226 368 Q216 297 244 238 L635 581 Q609 599 578 609 Q547 619 512 619 Q460 619 411.5 599 Q363 579 324.5 545 Q286 511 259.5 465.5 Q233 420 226 368 Z " />
<glyph glyph-name="oslash" unicode="&#xf8;" horiz-adv-x="631" d="M86 256 Q94 311 121 359.5 Q148 408 189 444 Q230 480 281.5 500.5 Q333 521 388 521 Q431 521 468 509 Q505 497 534 474 L584 518 L640 451 L591 408 Q609 375 616 336.5 Q623 298 617 256 Q609 200 581 151.5 Q553 103 512 67 Q471 31 420 10.5 Q369 -10 314 -10 Q228 -10 169 38 L119 -6 L63 61 L112 104 Q93 136 86.5 174.5 Q80 213 86 256 Z M330 106 Q361 106 390 117.5 Q419 129 442.5 149 Q466 169 481 196.5 Q496 224 501 256 Q504 274 501.5 290.5 Q499 307 493 322 L265 122 Q295 106 330 106 Z M202 256 Q197 221 209 189 L437 389 Q410 406 372 406 Q341 406 312.5 394.5 Q284 383 260.5 363 Q237 343 221.5 315.5 Q206 288 202 256 Z " />
<glyph glyph-name="ellipsis" unicode="&#x2026;" horiz-adv-x="822" d="M67 82 Q71 116 98.5 140 Q126 164 160 164 Q194 164 214.5 140 Q235 116 231 82 Q226 48 198.5 24 Q171 0 137 0 Q103 0 82.5 24 Q62 48 67 82 Z M341 82 Q345 116 372.5 140 Q400 164 434 164 Q468 164 488.5 140 Q509 116 505 82 Q500 48 472.5 24 Q445 0 411 0 Q377 0 356.5 24 Q336 48 341 82 Z M615 82 Q619 116 646.5 140 Q674 164 708 164 Q742 164 762.5 140 Q783 116 779 82 Q774 48 746.5 24 Q719 0 685 0 Q651 0 630.5 24 Q610 48 615 82 Z " />
<glyph glyph-name="guillemotright" unicode="&#xbb;" horiz-adv-x="846" d="M832 256 L540 0 L396 0 L394 11 L673 256 L462 501 L468 512 L612 512 L832 256 Z M490 256 L198 0 L54 0 L52 11 L331 256 L120 501 L126 512 L270 512 L490 256 Z " />
<glyph glyph-name="paragraph" unicode="&#xb6;" horiz-adv-x="875" d="M307 226 Q254 226 210 246 Q166 266 136.5 300.5 Q107 335 93.5 381 Q80 427 87 480 Q95 533 121.5 579.5 Q148 626 187.5 660.5 Q227 695 276 715 Q325 735 378 735 L898 735 L795 0 L664 0 L752 626 L622 626 L534 0 L409 0 L441 226 L307 226 Z M456 334 L497 626 L372 626 Q342 626 313.5 614.5 Q285 603 262.5 583.5 Q240 564 225 537 Q210 510 205 480 Q201 450 209 423 Q217 396 233.5 376.5 Q250 357 275.5 345.5 Q301 334 331 334 L456 334 Z " />
<glyph glyph-name="Aacute" unicode="&#xc1;" horiz-adv-x="737" d="M586 0 L549 142 L228 142 L150 0 L17 0 L411 735 L530 735 L720 0 L586 0 Z M447 560 L283 250 L525 250 L447 560 Z M492 789 L465 820 L593 963 Q608 979 630 980 Q652 981 664 967 Q676 953 672.5 931 Q669 909 650 896 L492 789 Z " />
<glyph glyph-name="Abreve" unicode="&#x102;" horiz-adv-x="737" d="M586 0 L549 142 L228 142 L150 0 L17 0 L411 735 L530 735 L720 0 L586 0 Z M447 560 L283 250 L525 250 L447 560 Z M380 919 L453 919 L450 899 Q448 880 458.5 867 Q469 854 488 854 Q507 854 521.5 867 Q536 880 538 899 L541 919 L614 919 L612 904 Q609 880 597 858.5 Q585 837 566.5 821 Q548 805 525.5 796 Q503 787 479 787 Q455 787 434.5 796 Q414 805 400.5 821 Q387 837 381 858.5 Q375 880 378 904 L380 919 Z " />
<glyph glyph-name="Acircumflex" unicode="&#xc2;" horiz-adv-x="737" d="M586 0 L549 142 L228 142 L150 0 L17 0 L411 735 L530 735 L720 0 L586 0 Z M447 560 L283 250 L525 250 L447 560 Z M491 880 L386 787 L349 829 L504 965 L621 829 L573 787 L491 880 Z " />
<glyph glyph-name="Agrave" unicode="&#xc0;" horiz-adv-x="737" d="M586 0 L549 142 L228 142 L150 0 L17 0 L411 735 L530 735 L720 0 L586 0 Z M447 560 L283 250 L525 250 L447 560 Z M339 896 Q324 909 326.5 931 Q329 953 345 967 Q361 981 383 980 Q405 979 414 963 L502 820 L466 789 L339 896 Z " />
<glyph glyph-name="Adieresis" unicode="&#xc4;" horiz-adv-x="737" d="M586 0 L549 142 L228 142 L150 0 L17 0 L411 735 L530 735 L720 0 L586 0 Z M447 560 L283 250 L525 250 L447 560 Z M305 886 Q309 920 336.5 944 Q364 968 398 968 Q432 968 452.5 944 Q473 920 469 886 Q464 852 436.5 828 Q409 804 375 804 Q341 804 320.5 828 Q300 852 305 886 Z M518 886 Q522 920 549.5 944 Q577 968 611 968 Q645 968 665.5 944 Q686 920 682 886 Q677 852 649.5 828 Q622 804 588 804 Q554 804 533.5 828 Q513 852 518 886 Z " />
<glyph glyph-name="Amacron" unicode="&#x100;" horiz-adv-x="737" d="M586 0 L549 142 L228 142 L150 0 L17 0 L411 735 L530 735 L720 0 L586 0 Z M447 560 L283 250 L525 250 L447 560 Z M636 804 L327 804 L337 877 L646 877 L636 804 Z " />
<glyph glyph-name="Aogonek" unicode="&#x104;" horiz-adv-x="737" d="M451 -66 Q457 -18 491 15.5 Q525 49 570 57 L549 142 L228 142 L150 0 L17 0 L411 735 L530 735 L720 0 L586 0 Q558 0 537 -19.5 Q516 -39 512 -66 Q508 -94 523.5 -113 Q539 -132 567 -132 Q594 -132 616 -113 Q638 -94 642 -66 L703 -66 Q699 -92 686 -115 Q673 -138 653.5 -155 Q634 -172 609.5 -182 Q585 -192 559 -192 Q533 -192 511.5 -182 Q490 -172 475.5 -155 Q461 -138 454 -115 Q447 -92 451 -66 Z M447 560 L283 250 L525 250 L447 560 Z " />
<glyph glyph-name="Aring" unicode="&#xc5;" horiz-adv-x="737" d="M586 0 L549 142 L228 142 L150 0 L17 0 L411 735 L530 735 L720 0 L586 0 Z M447 560 L283 250 L525 250 L447 560 Z M398 895 Q403 935 435 963 Q467 991 507 991 Q547 991 571 963 Q595 935 590 895 Q584 855 552 827 Q520 799 480 799 Q440 799 416 827 Q392 855 398 895 Z M458 895 Q456 880 465 869.5 Q474 859 489 859 Q504 859 516 869.5 Q528 880 530 895 Q532 910 523 920.5 Q514 931 499 931 Q484 931 472 920.5 Q460 910 458 895 Z " />
<glyph glyph-name="Atilde" unicode="&#xc3;" horiz-adv-x="737" d="M586 0 L549 142 L228 142 L150 0 L17 0 L411 735 L530 735 L720 0 L586 0 Z M447 560 L283 250 L525 250 L447 560 Z M557 931 Q580 931 597.5 922.5 Q615 914 626.5 899.5 Q638 885 642.5 866 Q647 847 644 826 L579 826 Q582 846 573.5 858 Q565 870 548 870 Q535 870 523.5 861 Q512 852 498 841.5 Q484 831 466.5 822.5 Q449 814 424 814 Q401 814 383.5 822.5 Q366 831 354.5 845.5 Q343 860 338.5 878.5 Q334 897 337 918 L402 918 Q399 898 407.5 886 Q416 874 433 874 Q446 874 457.5 883 Q469 892 483 902.5 Q497 913 514.5 922 Q532 931 557 931 Z " />
<glyph glyph-name="AEacute" unicode="&#x1fc;" horiz-adv-x="904" d="M942 626 L628 626 L600 424 L914 424 L898 315 L584 315 L555 109 L869 109 L854 0 L409 0 L429 142 L229 142 Q210 107 189.5 71 Q169 35 150 0 L17 0 L417 735 L957 735 L942 626 Z M444 250 L497 626 L483 626 L284 250 L444 250 Z M576 789 L549 820 L676 963 Q691 979 713 980 Q735 981 747 967 Q759 953 755.5 931 Q752 909 733 896 L576 789 Z " />
<glyph glyph-name="Cacute" unicode="&#x106;" horiz-adv-x="721" d="M223 367 Q215 312 228.5 265 Q242 218 271.5 183.5 Q301 149 345.5 129.5 Q390 110 444 110 Q496 110 544.5 131 Q593 152 634 186 L704 99 Q648 48 575 18.5 Q502 -11 421 -11 Q342 -11 277.5 18.5 Q213 48 169 99 Q125 150 105 219 Q85 288 97 367 Q108 447 146.5 516.5 Q185 586 243.5 637 Q302 688 375 717 Q448 746 528 746 Q609 746 673 716.5 Q737 687 779 636 L685 549 Q655 583 612 603.5 Q569 624 517 624 Q461 624 411 604.5 Q361 585 322 550.5 Q283 516 256.5 469 Q230 422 223 367 Z M484 789 L457 820 L585 963 Q600 979 622 980 Q644 981 656 967 Q668 953 664.5 931 Q661 909 642 896 L484 789 Z " />
<glyph glyph-name="Ccaron" unicode="&#x10c;" horiz-adv-x="721" d="M223 367 Q215 312 228.5 265 Q242 218 271.5 183.5 Q301 149 345.5 129.5 Q390 110 444 110 Q496 110 544.5 131 Q593 152 634 186 L704 99 Q648 48 575 18.5 Q502 -11 421 -11 Q342 -11 277.5 18.5 Q213 48 169 99 Q125 150 105 219 Q85 288 97 367 Q108 447 146.5 516.5 Q185 586 243.5 637 Q302 688 375 717 Q448 746 528 746 Q609 746 673 716.5 Q737 687 779 636 L685 549 Q655 583 612 603.5 Q569 624 517 624 Q461 624 411 604.5 Q361 585 322 550.5 Q283 516 256.5 469 Q230 422 223 367 Z M536 872 L641 965 L678 923 L523 787 L406 923 L454 965 L536 872 Z " />
<glyph glyph-name="Ccedilla" unicode="&#xc7;" horiz-adv-x="721" d="M223 367 Q215 312 228.5 265 Q242 218 271.5 183.5 Q301 149 345.5 129.5 Q390 110 444 110 Q496 110 544.5 131 Q593 152 634 186 L704 99 Q652 51 585.5 23 Q519 -5 446 -10 L440 -49 Q468 -58 483 -83 Q498 -108 493 -140 Q488 -180 456 -208 Q424 -236 384 -236 Q364 -236 348 -228.5 Q332 -221 320 -208 L369 -167 Q373 -171 378.5 -173.5 Q384 -176 392 -176 Q407 -176 419 -165.5 Q431 -155 433 -140 Q435 -125 426 -114.5 Q417 -104 402 -104 Q388 -104 375 -114 L339 -72 Q348 -64 358.5 -57.5 Q369 -51 380 -49 L386 -9 Q314 -2 256 29.5 Q198 61 159 111 Q120 161 103 226.5 Q86 292 97 367 Q108 447 146.5 516.5 Q185 586 243.5 637 Q302 688 375 717 Q448 746 528 746 Q609 746 673 716.5 Q737 687 779 636 L685 549 Q655 583 612 603.5 Q569 624 517 624 Q461 624 411 604.5 Q361 585 322 550.5 Q283 516 256.5 469 Q230 422 223 367 Z " />
<glyph glyph-name="Ccircumflex" unicode="&#x108;" horiz-adv-x="721" d="M223 367 Q215 312 228.5 265 Q242 218 271.5 183.5 Q301 149 345.5 129.5 Q390 110 444 110 Q496 110 544.5 131 Q593 152 634 186 L704 99 Q648 48 575 18.5 Q502 -11 421 -11 Q342 -11 277.5 18.5 Q213 48 169 99 Q125 150 105 219 Q85 288 97 367 Q108 447 146.5 516.5 Q185 586 243.5 637 Q302 688 375 717 Q448 746 528 746 Q609 746 673 716.5 Q737 687 779 636 L685 549 Q655 583 612 603.5 Q569 624 517 624 Q461 624 411 604.5 Q361 585 322 550.5 Q283 516 256.5 469 Q230 422 223 367 Z M544 880 L438 787 L402 829 L557 965 L674 829 L625 787 L544 880 Z " />
<glyph glyph-name="Cdotaccent" unicode="&#x10a;" horiz-adv-x="721" d="M223 367 Q215 312 228.5 265 Q242 218 271.5 183.5 Q301 149 345.5 129.5 Q390 110 444 110 Q496 110 544.5 131 Q593 152 634 186 L704 99 Q648 48 575 18.5 Q502 -11 421 -11 Q342 -11 277.5 18.5 Q213 48 169 99 Q125 150 105 219 Q85 288 97 367 Q108 447 146.5 516.5 Q185 586 243.5 637 Q302 688 375 717 Q448 746 528 746 Q609 746 673 716.5 Q737 687 779 636 L685 549 Q655 583 612 603.5 Q569 624 517 624 Q461 624 411 604.5 Q361 585 322 550.5 Q283 516 256.5 469 Q230 422 223 367 Z M464 886 Q468 920 495.5 944 Q523 968 557 968 Q591 968 611 944 Q631 920 627 886 Q622 852 595 828 Q568 804 534 804 Q500 804 479.5 828 Q459 852 464 886 Z " />
<glyph glyph-name="Dcaron" unicode="&#x10e;" horiz-adv-x="699" d="M90 0 L193 735 L403 735 Q479 735 541.5 706 Q604 677 647 627 Q690 577 709.5 510.5 Q729 444 719 368 Q708 292 669.5 225 Q631 158 574 108 Q517 58 446.5 29 Q376 0 300 0 L90 0 Z M304 617 L234 118 L310 118 Q363 118 411 137.5 Q459 157 497 190.5 Q535 224 560.5 269.5 Q586 315 594 368 Q601 421 588 466.5 Q575 512 546 545.5 Q517 579 474.5 598 Q432 617 380 617 L304 617 Z M413 872 L519 965 L555 923 L400 787 L283 923 L332 965 L413 872 Z " />
<glyph glyph-name="Eacute" unicode="&#xc9;" horiz-adv-x="589" d="M193 735 L643 735 L628 626 L309 626 L281 425 L562 425 L547 318 L266 318 L236 109 L555 109 L540 0 L90 0 L193 735 Z M399 789 L372 820 L499 963 Q515 979 536.5 980 Q558 981 570 967 Q582 953 578.5 931 Q575 909 557 896 L399 789 Z " />
<glyph glyph-name="Ebreve" unicode="&#x114;" horiz-adv-x="589" d="M193 735 L643 735 L628 626 L309 626 L281 425 L562 425 L547 318 L266 318 L236 109 L555 109 L540 0 L90 0 L193 735 Z M327 919 L400 919 L397 899 Q395 880 405.5 867 Q416 854 435 854 Q454 854 468.5 867 Q483 880 485 899 L488 919 L561 919 L559 904 Q556 880 544 858.5 Q532 837 513.5 821 Q495 805 472.5 796 Q450 787 426 787 Q402 787 381.5 796 Q361 805 347.5 821 Q334 837 328 858.5 Q322 880 325 904 L327 919 Z " />
<glyph glyph-name="Ecaron" unicode="&#x11a;" horiz-adv-x="589" d="M193 735 L643 735 L628 626 L309 626 L281 425 L562 425 L547 318 L266 318 L236 109 L555 109 L540 0 L90 0 L193 735 Z M438 872 L544 965 L580 923 L425 787 L308 923 L357 965 L438 872 Z " />
<glyph glyph-name="Ecircumflex" unicode="&#xca;" horiz-adv-x="589" d="M193 735 L643 735 L628 626 L309 626 L281 425 L562 425 L547 318 L266 318 L236 109 L555 109 L540 0 L90 0 L193 735 Z M437 880 L332 787 L295 829 L450 965 L567 829 L519 787 L437 880 Z " />
<glyph glyph-name="Edieresis" unicode="&#xcb;" horiz-adv-x="589" d="M193 735 L643 735 L628 626 L309 626 L281 425 L562 425 L547 318 L266 318 L236 109 L555 109 L540 0 L90 0 L193 735 Z M251 886 Q255 920 282 944 Q309 968 344 968 Q378 968 398 944 Q418 920 414 886 Q409 852 382 828 Q355 804 321 804 Q286 804 266 828 Q246 852 251 886 Z M464 886 Q468 920 495 944 Q522 968 557 968 Q591 968 611 944 Q631 920 627 886 Q622 852 595 828 Q568 804 534 804 Q499 804 479 828 Q459 852 464 886 Z " />
<glyph glyph-name="Edotaccent" unicode="&#x116;" horiz-adv-x="589" d="M193 735 L643 735 L628 626 L309 626 L281 425 L562 425 L547 318 L266 318 L236 109 L555 109 L540 0 L90 0 L193 735 Z M357 886 Q361 920 388.5 944 Q416 968 450 968 Q484 968 504.5 944 Q525 920 521 886 Q516 852 488.5 828 Q461 804 427 804 Q393 804 372.5 828 Q352 852 357 886 Z " />
<glyph glyph-name="Egrave" unicode="&#xc8;" horiz-adv-x="589" d="M193 735 L643 735 L628 626 L309 626 L281 425 L562 425 L547 318 L266 318 L236 109 L555 109 L540 0 L90 0 L193 735 Z M295 896 Q280 909 282.5 931 Q285 953 301 967 Q317 981 339 980 Q361 979 370 963 L457 820 L422 789 L295 896 Z " />
<glyph glyph-name="Emacron" unicode="&#x112;" horiz-adv-x="589" d="M193 735 L643 735 L628 626 L309 626 L281 425 L562 425 L547 318 L266 318 L236 109 L555 109 L540 0 L90 0 L193 735 Z M573 804 L264 804 L274 877 L583 877 L573 804 Z " />
<glyph glyph-name="Eogonek" unicode="&#x118;" horiz-adv-x="589" d="M279 -66 Q284 -30 307 0 L90 0 L193 735 L643 735 L628 626 L309 626 L281 425 L562 425 L547 318 L266 318 L236 109 L432 109 L433 109 L555 109 L540 0 L414 0 Q386 0 365 -19.5 Q344 -39 340 -66 Q336 -94 351.5 -113 Q367 -132 395 -132 Q422 -132 444 -113 Q466 -94 470 -66 L531 -66 Q527 -92 514 -115 Q501 -138 481.5 -155 Q462 -172 437.5 -182 Q413 -192 387 -192 Q361 -192 339.5 -182 Q318 -172 303.5 -155 Q289 -138 282 -115 Q275 -92 279 -66 Z " />
<glyph glyph-name="Gbreve" unicode="&#x11e;" horiz-adv-x="840" d="M218 368 Q210 314 224 267 Q238 220 268 185 Q298 150 342 130 Q386 110 439 110 Q488 110 532 123 Q576 136 612 161.5 Q648 187 673.5 224.5 Q699 262 711 310 L477 310 L493 425 L849 425 Q850 411 849 396.5 Q848 382 846 367 Q833 280 794.5 210 Q756 140 699 91 Q642 42 571 15.5 Q500 -11 423 -11 Q343 -11 278 18.5 Q213 48 169 99.5 Q125 151 105.5 220 Q86 289 97 368 Q108 449 146 516.5 Q184 584 241.5 632.5 Q299 681 372 708.5 Q445 736 527 736 Q605 736 669.5 708 Q734 680 778 629 L681 549 Q652 583 608.5 602.5 Q565 622 511 622 Q454 622 404.5 603 Q355 584 316 550.5 Q277 517 251 470 Q225 423 218 368 Z M432 919 L505 919 L502 899 Q500 880 510.5 867 Q521 854 540 854 Q559 854 573.5 867 Q588 880 590 899 L593 919 L666 919 L664 904 Q661 880 649 858.5 Q637 837 618.5 821 Q600 805 577.5 796 Q555 787 531 787 Q507 787 486.5 796 Q466 805 452.5 821 Q439 837 433 858.5 Q427 880 430 904 L432 919 Z " />
<glyph glyph-name="Gcircumflex" unicode="&#x11c;" horiz-adv-x="840" d="M218 368 Q210 314 224 267 Q238 220 268 185 Q298 150 342 130 Q386 110 439 110 Q488 110 532 123 Q576 136 612 161.5 Q648 187 673.5 224.5 Q699 262 711 310 L477 310 L493 425 L849 425 Q850 411 849 396.5 Q848 382 846 367 Q833 280 794.5 210 Q756 140 699 91 Q642 42 571 15.5 Q500 -11 423 -11 Q343 -11 278 18.5 Q213 48 169 99.5 Q125 151 105.5 220 Q86 289 97 368 Q108 449 146 516.5 Q184 584 241.5 632.5 Q299 681 372 708.5 Q445 736 527 736 Q605 736 669.5 708 Q734 680 778 629 L681 549 Q652 583 608.5 602.5 Q565 622 511 622 Q454 622 404.5 603 Q355 584 316 550.5 Q277 517 251 470 Q225 423 218 368 Z M543 880 L437 787 L401 829 L556 965 L673 829 L624 787 L543 880 Z " />
<glyph glyph-name="Gdotaccent" unicode="&#x120;" horiz-adv-x="840" d="M218 368 Q210 314 224 267 Q238 220 268 185 Q298 150 342 130 Q386 110 439 110 Q488 110 532 123 Q576 136 612 161.5 Q648 187 673.5 224.5 Q699 262 711 310 L477 310 L493 425 L849 425 Q850 411 849 396.5 Q848 382 846 367 Q833 280 794.5 210 Q756 140 699 91 Q642 42 571 15.5 Q500 -11 423 -11 Q343 -11 278 18.5 Q213 48 169 99.5 Q125 151 105.5 220 Q86 289 97 368 Q108 449 146 516.5 Q184 584 241.5 632.5 Q299 681 372 708.5 Q445 736 527 736 Q605 736 669.5 708 Q734 680 778 629 L681 549 Q652 583 608.5 602.5 Q565 622 511 622 Q454 622 404.5 603 Q355 584 316 550.5 Q277 517 251 470 Q225 423 218 368 Z M463 886 Q467 920 494.5 944 Q522 968 556 968 Q590 968 610.5 944 Q631 920 627 886 Q622 852 594.5 828 Q567 804 533 804 Q499 804 478.5 828 Q458 852 463 886 Z " />
<glyph glyph-name="Gcommaaccent" unicode="&#x122;" horiz-adv-x="840" d="M218 368 Q210 314 224 267 Q238 220 268 185 Q298 150 342 130 Q386 110 439 110 Q488 110 532 123 Q576 136 612 161.5 Q648 187 673.5 224.5 Q699 262 711 310 L477 310 L493 425 L849 425 Q850 411 849 396.5 Q848 382 846 367 Q833 280 794.5 210 Q756 140 699 91 Q642 42 571 15.5 Q500 -11 423 -11 Q343 -11 278 18.5 Q213 48 169 99.5 Q125 151 105.5 220 Q86 289 97 368 Q108 449 146 516.5 Q184 584 241.5 632.5 Q299 681 372 708.5 Q445 736 527 736 Q605 736 669.5 708 Q734 680 778 629 L681 549 Q652 583 608.5 602.5 Q565 622 511 622 Q454 622 404.5 603 Q355 584 316 550.5 Q277 517 251 470 Q225 423 218 368 Z M341 -236 L381 -170 Q363 -166 353 -152 Q343 -138 345 -118 Q349 -95 366.5 -79.5 Q384 -64 405 -64 Q420 -64 430.5 -71 Q441 -78 446.5 -89.5 Q452 -101 451 -115.5 Q450 -130 441 -145 L374 -253 L341 -236 Z " />
<glyph glyph-name="Hbar" unicode="&#x126;" horiz-adv-x="780" d="M837 515 L771 515 L699 0 L568 0 L613 318 L257 318 L212 0 L81 0 L153 515 L88 515 L99 588 L164 588 L184 734 L315 734 L295 588 L651 588 L671 735 L802 735 L782 588 L848 588 L837 515 Z M628 425 L640 515 L284 515 L272 425 L628 425 Z " />
<glyph glyph-name="Hcircumflex" unicode="&#x124;" horiz-adv-x="780" d="M81 0 L184 734 L315 734 L272 425 L628 425 L671 735 L802 735 L699 0 L568 0 L613 318 L257 318 L212 0 L81 0 Z M513 880 L407 787 L371 829 L526 965 L643 829 L594 787 L513 880 Z " />
<glyph glyph-name="Iacute" unicode="&#xcd;" horiz-adv-x="504" d="M145 626 L160 735 L550 735 L535 626 L405 626 L332 109 L462 109 L447 0 L57 0 L72 109 L201 109 L274 626 L145 626 Z M366 789 L338 820 L466 963 Q481 979 503 980 Q525 981 537 967 Q549 953 545.5 931 Q542 909 523 896 L366 789 Z " />
<glyph glyph-name="Ibreve" unicode="&#x12c;" horiz-adv-x="504" d="M145 626 L160 735 L550 735 L535 626 L405 626 L332 109 L462 109 L447 0 L57 0 L72 109 L201 109 L274 626 L145 626 Z M264 919 L337 919 L334 899 Q332 880 342.5 867 Q353 854 372 854 Q391 854 405.5 867 Q420 880 422 899 L425 919 L498 919 L496 904 Q493 880 481 858.5 Q469 837 450.5 821 Q432 805 409.5 796 Q387 787 363 787 Q339 787 318.5 796 Q298 805 284.5 821 Q271 837 265 858.5 Q259 880 262 904 L264 919 Z " />
<glyph glyph-name="Icircumflex" unicode="&#xce;" horiz-adv-x="504" d="M145 626 L160 735 L550 735 L535 626 L405 626 L332 109 L462 109 L447 0 L57 0 L72 109 L201 109 L274 626 L145 626 Z M375 880 L269 787 L233 829 L388 965 L505 829 L456 787 L375 880 Z " />
<glyph glyph-name="Idieresis" unicode="&#xcf;" horiz-adv-x="504" d="M145 626 L160 735 L550 735 L535 626 L405 626 L332 109 L462 109 L447 0 L57 0 L72 109 L201 109 L274 626 L145 626 Z M188 886 Q192 920 219.5 944 Q247 968 281 968 Q315 968 335.5 944 Q356 920 352 886 Q347 852 319.5 828 Q292 804 258 804 Q224 804 203.5 828 Q183 852 188 886 Z M401 886 Q405 920 432.5 944 Q460 968 494 968 Q528 968 548.5 944 Q569 920 565 886 Q560 852 532.5 828 Q505 804 471 804 Q437 804 416.5 828 Q396 852 401 886 Z " />
<glyph glyph-name="Idotaccent" unicode="&#x130;" horiz-adv-x="504" d="M145 626 L160 735 L550 735 L535 626 L405 626 L332 109 L462 109 L447 0 L57 0 L72 109 L201 109 L274 626 L145 626 Z M295 886 Q299 920 326.5 944 Q354 968 388 968 Q422 968 442.5 944 Q463 920 459 886 Q454 852 426.5 828 Q399 804 365 804 Q331 804 310.5 828 Q290 852 295 886 Z " />
<glyph glyph-name="Igrave" unicode="&#xcc;" horiz-adv-x="504" d="M145 626 L160 735 L550 735 L535 626 L405 626 L332 109 L462 109 L447 0 L57 0 L72 109 L201 109 L274 626 L145 626 Z M232 896 Q217 909 219.5 931 Q222 953 238 967 Q254 981 276 980 Q298 979 308 963 L395 820 L360 789 L232 896 Z " />
<glyph glyph-name="Imacron" unicode="&#x12a;" horiz-adv-x="504" d="M145 626 L160 735 L550 735 L535 626 L405 626 L332 109 L462 109 L447 0 L57 0 L72 109 L201 109 L274 626 L145 626 Z M519 804 L210 804 L220 877 L529 877 L519 804 Z " />
<glyph glyph-name="Iogonek" unicode="&#x12e;" horiz-adv-x="504" d="M186 -66 Q191 -30 214 0 L57 0 L72 109 L201 109 L274 626 L145 626 L160 735 L550 735 L535 626 L405 626 L332 109 L462 109 L447 0 L316 0 Q290 -2 270 -21 Q250 -40 247 -66 Q243 -94 258.5 -113 Q274 -132 302 -132 Q329 -132 351 -113 Q373 -94 377 -66 L438 -66 Q434 -92 421 -115 Q408 -138 388.5 -155 Q369 -172 344.5 -182 Q320 -192 294 -192 Q268 -192 246.5 -182 Q225 -172 210.5 -155 Q196 -138 189 -115 Q182 -92 186 -66 Z " />
<glyph glyph-name="Itilde" unicode="&#x128;" horiz-adv-x="504" d="M145 626 L160 735 L550 735 L535 626 L405 626 L332 109 L462 109 L447 0 L57 0 L72 109 L201 109 L274 626 L145 626 Z M441 931 Q464 931 481 922.5 Q498 914 509.5 899.5 Q521 885 526 866 Q531 847 528 826 L463 826 Q466 846 457.5 858 Q449 870 432 870 Q419 870 407.5 861 Q396 852 382 841.5 Q368 831 350.5 822.5 Q333 814 308 814 Q284 814 266.5 822.5 Q249 831 238 845.5 Q227 860 222.5 878.5 Q218 897 221 918 L286 918 Q283 898 291 886 Q299 874 317 874 Q330 874 341.5 883 Q353 892 366.5 902.5 Q380 913 398 922 Q416 931 441 931 Z " />
<glyph glyph-name="Jcircumflex" unicode="&#x134;" horiz-adv-x="497" d="M176 188 Q172 156 191.5 134 Q211 112 243 112 Q274 112 299.5 134 Q325 156 329 188 L406 735 L528 735 L451 188 Q446 147 425.5 111 Q405 75 374 48 Q343 21 305 5.5 Q267 -10 226 -10 Q185 -10 151 5.5 Q117 21 94 48 Q71 75 60.5 111 Q50 147 55 188 L176 188 Z M485 880 L379 787 L343 829 L498 965 L615 829 L566 787 L485 880 Z " />
<glyph glyph-name="Kcommaaccent" unicode="&#x136;" horiz-adv-x="724" d="M250 318 L205 0 L81 0 L184 735 L308 735 L265 425 L420 425 L642 735 L781 735 L522 374 L684 0 L545 0 L409 318 L250 318 Z M283 -236 L323 -170 Q305 -166 295 -152 Q285 -138 287 -118 Q291 -95 308.5 -79.5 Q326 -64 348 -64 Q363 -64 373.5 -71 Q384 -78 389 -89.5 Q394 -101 393 -115.5 Q392 -130 383 -145 L316 -253 L283 -236 Z " />
<glyph glyph-name="Lacute" unicode="&#x139;" horiz-adv-x="481" d="M461 0 L81 0 L184 735 L310 735 L222 109 L476 109 L461 0 Z M284 789 L257 820 L385 963 Q400 979 422 980 Q444 981 456 967 Q468 953 464.5 931 Q461 909 442 896 L284 789 Z " />
<glyph glyph-name="Lcaron" unicode="&#x13d;" horiz-adv-x="481" d="M461 0 L81 0 L184 735 L310 735 L222 109 L476 109 L461 0 Z M405 551 L465 649 Q437 654 421 676.5 Q405 699 410 730 Q414 764 441.5 788 Q469 812 503 812 Q526 812 542 801 Q558 790 565.5 772 Q573 754 571 731.5 Q569 709 556 687 L456 524 L405 551 Z " />
<glyph glyph-name="Lcommaaccent" unicode="&#x13b;" horiz-adv-x="481" d="M461 0 L81 0 L184 735 L310 735 L222 109 L476 109 L461 0 Z M193 -236 L233 -170 Q215 -166 204.5 -152 Q194 -138 196 -118 Q200 -95 217.5 -79.5 Q235 -64 257 -64 Q272 -64 282.5 -71 Q293 -78 298.5 -89.5 Q304 -101 303 -115.5 Q302 -130 293 -145 L226 -253 L193 -236 Z " />
<glyph glyph-name="Ldot" unicode="&#x13f;" horiz-adv-x="481" d="M461 0 L81 0 L184 735 L310 735 L222 109 L476 109 L461 0 Z M338 366 Q343 400 370.5 424 Q398 448 432 448 Q466 448 486.5 424 Q507 400 502 366 Q498 332 470.5 308 Q443 284 409 284 Q375 284 354.5 308 Q334 332 338 366 Z " />
<glyph glyph-name="Lslash" unicode="&#x141;" horiz-adv-x="481" d="M461 0 L81 0 L122 292 L46 272 L37 341 L132 365 L184 735 L310 735 L263 399 L351 422 L361 353 L253 325 L222 109 L476 109 L461 0 Z " />
<glyph glyph-name="Nacute" unicode="&#x143;" horiz-adv-x="802" d="M699 735 L824 735 L722 5 L709 -1 L271 464 L206 0 L81 0 L184 730 L195 735 L634 270 L699 735 Z M495 789 L468 820 L596 963 Q611 979 633 980 Q655 981 667 967 Q679 953 675.5 931 Q672 909 653 896 L495 789 Z " />
<glyph glyph-name="Ncaron" unicode="&#x147;" horiz-adv-x="802" d="M699 735 L824 735 L722 5 L709 -1 L271 464 L206 0 L81 0 L184 730 L195 735 L634 270 L699 735 Z M525 872 L630 965 L666 923 L511 787 L394 923 L443 965 L525 872 Z " />
<glyph glyph-name="Ncommaaccent" unicode="&#x145;" horiz-adv-x="802" d="M699 735 L824 735 L722 5 L709 -1 L271 464 L206 0 L81 0 L184 730 L195 735 L634 270 L699 735 Z M341 -236 L381 -170 Q363 -166 352.5 -152 Q342 -138 344 -118 Q348 -95 365.5 -79.5 Q383 -64 405 -64 Q420 -64 430.5 -71 Q441 -78 446.5 -89.5 Q452 -101 450.5 -115.5 Q449 -130 440 -145 L373 -253 L341 -236 Z " />
<glyph glyph-name="Ntilde" unicode="&#xd1;" horiz-adv-x="802" d="M699 735 L824 735 L722 5 L709 -1 L271 464 L206 0 L81 0 L184 730 L195 735 L634 270 L699 735 Z M590 931 Q613 931 630 922.5 Q647 914 658.5 899.5 Q670 885 675 866 Q680 847 677 826 L611 826 Q614 846 606 858 Q598 870 581 870 Q567 870 555.5 861 Q544 852 530 841.5 Q516 831 498.5 822.5 Q481 814 456 814 Q433 814 415.5 822.5 Q398 831 386.5 845.5 Q375 860 370.5 878.5 Q366 897 369 918 L435 918 Q432 898 440 886 Q448 874 465 874 Q478 874 489.5 883 Q501 892 515 902.5 Q529 913 547 922 Q565 931 590 931 Z " />
<glyph glyph-name="Oacute" unicode="&#xd3;" horiz-adv-x="850" d="M98 368 Q109 446 148.5 515 Q188 584 247 635.5 Q306 687 379 717 Q452 747 530 747 Q608 747 673 717 Q738 687 782 635.5 Q826 584 846.5 515 Q867 446 856 368 Q845 290 805 221 Q765 152 706.5 100.5 Q648 49 574.5 19 Q501 -11 423 -11 Q345 -11 280.5 19 Q216 49 171.5 100.5 Q127 152 107 221 Q87 290 98 368 Z M226 368 Q218 316 232 270.5 Q246 225 275 191 Q304 157 346.5 137 Q389 117 441 117 Q493 117 541.5 137 Q590 157 629 191 Q668 225 694 270.5 Q720 316 728 368 Q735 420 721.5 465.5 Q708 511 678.5 545 Q649 579 606.5 599 Q564 619 512 619 Q460 619 411.5 599 Q363 579 324.5 545 Q286 511 259.5 465.5 Q233 420 226 368 Z M539 789 L512 820 L639 963 Q655 979 676.5 980 Q698 981 710 967 Q722 953 718.5 931 Q715 909 697 896 L539 789 Z " />
<glyph glyph-name="Obreve" unicode="&#x14e;" horiz-adv-x="850" d="M98 368 Q109 446 148.5 515 Q188 584 247 635.5 Q306 687 379 717 Q452 747 530 747 Q608 747 673 717 Q738 687 782 635.5 Q826 584 846.5 515 Q867 446 856 368 Q845 290 805 221 Q765 152 706.5 100.5 Q648 49 574.5 19 Q501 -11 423 -11 Q345 -11 280.5 19 Q216 49 171.5 100.5 Q127 152 107 221 Q87 290 98 368 Z M226 368 Q218 316 232 270.5 Q246 225 275 191 Q304 157 346.5 137 Q389 117 441 117 Q493 117 541.5 137 Q590 157 629 191 Q668 225 694 270.5 Q720 316 728 368 Q735 420 721.5 465.5 Q708 511 678.5 545 Q649 579 606.5 599 Q564 619 512 619 Q460 619 411.5 599 Q363 579 324.5 545 Q286 511 259.5 465.5 Q233 420 226 368 Z M437 919 L510 919 L507 899 Q505 880 515.5 867 Q526 854 545 854 Q564 854 578.5 867 Q593 880 595 899 L598 919 L671 919 L669 904 Q666 880 654 858.5 Q642 837 623.5 821 Q605 805 582.5 796 Q560 787 536 787 Q512 787 491.5 796 Q471 805 457.5 821 Q444 837 438 858.5 Q432 880 435 904 L437 919 Z " />
<glyph glyph-name="Ocircumflex" unicode="&#xd4;" horiz-adv-x="850" d="M98 368 Q109 446 148.5 515 Q188 584 247 635.5 Q306 687 379 717 Q452 747 530 747 Q608 747 673 717 Q738 687 782 635.5 Q826 584 846.5 515 Q867 446 856 368 Q845 290 805 221 Q765 152 706.5 100.5 Q648 49 574.5 19 Q501 -11 423 -11 Q345 -11 280.5 19 Q216 49 171.5 100.5 Q127 152 107 221 Q87 290 98 368 Z M226 368 Q218 316 232 270.5 Q246 225 275 191 Q304 157 346.5 137 Q389 117 441 117 Q493 117 541.5 137 Q590 157 629 191 Q668 225 694 270.5 Q720 316 728 368 Q735 420 721.5 465.5 Q708 511 678.5 545 Q649 579 606.5 599 Q564 619 512 619 Q460 619 411.5 599 Q363 579 324.5 545 Q286 511 259.5 465.5 Q233 420 226 368 Z M548 880 L443 787 L406 829 L561 965 L678 829 L630 787 L548 880 Z " />
<glyph glyph-name="Odieresis" unicode="&#xd6;" horiz-adv-x="850" d="M98 368 Q109 446 148.5 515 Q188 584 247 635.5 Q306 687 379 717 Q452 747 530 747 Q608 747 673 717 Q738 687 782 635.5 Q826 584 846.5 515 Q867 446 856 368 Q845 290 805 221 Q765 152 706.5 100.5 Q648 49 574.5 19 Q501 -11 423 -11 Q345 -11 280.5 19 Q216 49 171.5 100.5 Q127 152 107 221 Q87 290 98 368 Z M226 368 Q218 316 232 270.5 Q246 225 275 191 Q304 157 346.5 137 Q389 117 441 117 Q493 117 541.5 137 Q590 157 629 191 Q668 225 694 270.5 Q720 316 728 368 Q735 420 721.5 465.5 Q708 511 678.5 545 Q649 579 606.5 599 Q564 619 512 619 Q460 619 411.5 599 Q363 579 324.5 545 Q286 511 259.5 465.5 Q233 420 226 368 Z M362 886 Q366 920 393 944 Q420 968 455 968 Q489 968 509 944 Q529 920 525 886 Q520 852 493 828 Q466 804 432 804 Q397 804 377 828 Q357 852 362 886 Z M575 886 Q579 920 606 944 Q633 968 668 968 Q702 968 722 944 Q742 920 738 886 Q733 852 706 828 Q679 804 645 804 Q610 804 590 828 Q570 852 575 886 Z " />
<glyph glyph-name="Ograve" unicode="&#xd2;" horiz-adv-x="850" d="M98 368 Q109 446 148.5 515 Q188 584 247 635.5 Q306 687 379 717 Q452 747 530 747 Q608 747 673 717 Q738 687 782 635.5 Q826 584 846.5 515 Q867 446 856 368 Q845 290 805 221 Q765 152 706.5 100.5 Q648 49 574.5 19 Q501 -11 423 -11 Q345 -11 280.5 19 Q216 49 171.5 100.5 Q127 152 107 221 Q87 290 98 368 Z M226 368 Q218 316 232 270.5 Q246 225 275 191 Q304 157 346.5 137 Q389 117 441 117 Q493 117 541.5 137 Q590 157 629 191 Q668 225 694 270.5 Q720 316 728 368 Q735 420 721.5 465.5 Q708 511 678.5 545 Q649 579 606.5 599 Q564 619 512 619 Q460 619 411.5 599 Q363 579 324.5 545 Q286 511 259.5 465.5 Q233 420 226 368 Z M406 896 Q391 909 393.5 931 Q396 953 412 967 Q428 981 450 980 Q472 979 481 963 L568 820 L533 789 L406 896 Z " />
<glyph glyph-name="Ohungarumlaut" unicode="&#x150;" horiz-adv-x="850" d="M98 368 Q109 446 148.5 515 Q188 584 247 635.5 Q306 687 379 717 Q452 747 530 747 Q608 747 673 717 Q738 687 782 635.5 Q826 584 846.5 515 Q867 446 856 368 Q845 290 805 221 Q765 152 706.5 100.5 Q648 49 574.5 19 Q501 -11 423 -11 Q345 -11 280.5 19 Q216 49 171.5 100.5 Q127 152 107 221 Q87 290 98 368 Z M226 368 Q218 316 232 270.5 Q246 225 275 191 Q304 157 346.5 137 Q389 117 441 117 Q493 117 541.5 137 Q590 157 629 191 Q668 225 694 270.5 Q720 316 728 368 Q735 420 721.5 465.5 Q708 511 678.5 545 Q649 579 606.5 599 Q564 619 512 619 Q460 619 411.5 599 Q363 579 324.5 545 Q286 511 259.5 465.5 Q233 420 226 368 Z M443 789 L416 820 L544 963 Q559 979 581 980 Q603 981 615 967 Q627 953 623.5 931 Q620 909 601 896 L443 789 Z M634 789 L607 820 L735 963 Q750 979 772 980 Q794 981 806 967 Q818 953 814.5 931 Q811 909 792 896 L634 789 Z " />
<glyph glyph-name="Omacron" unicode="&#x14c;" horiz-adv-x="850" d="M98 368 Q109 446 148.5 515 Q188 584 247 635.5 Q306 687 379 717 Q452 747 530 747 Q608 747 673 717 Q738 687 782 635.5 Q826 584 846.5 515 Q867 446 856 368 Q845 290 805 221 Q765 152 706.5 100.5 Q648 49 574.5 19 Q501 -11 423 -11 Q345 -11 280.5 19 Q216 49 171.5 100.5 Q127 152 107 221 Q87 290 98 368 Z M226 368 Q218 316 232 270.5 Q246 225 275 191 Q304 157 346.5 137 Q389 117 441 117 Q493 117 541.5 137 Q590 157 629 191 Q668 225 694 270.5 Q720 316 728 368 Q735 420 721.5 465.5 Q708 511 678.5 545 Q649 579 606.5 599 Q564 619 512 619 Q460 619 411.5 599 Q363 579 324.5 545 Q286 511 259.5 465.5 Q233 420 226 368 Z M693 804 L384 804 L394 877 L703 877 L693 804 Z " />
<glyph glyph-name="Oslashacute" unicode="&#x1fe;" horiz-adv-x="850" d="M97 368 Q108 446 147.5 515 Q187 584 246 635.5 Q305 687 378.5 717 Q452 747 530 747 Q592 747 645.5 728 Q699 709 742 674 L818 741 L889 658 L813 591 Q841 543 853 487 Q865 431 856 368 Q845 290 805 221 Q765 152 706.5 100.5 Q648 49 574.5 19 Q501 -11 423 -11 Q360 -11 306 8 Q252 27 210 62 L134 -4 L63 80 L138 145 Q110 193 99 249 Q88 305 97 368 Z M441 117 Q493 117 541.5 137 Q590 157 629 191 Q668 225 694 270.5 Q720 316 728 368 Q733 404 727 437 Q721 470 707 499 L316 155 Q366 117 441 117 Z M226 368 Q216 297 244 238 L635 581 Q609 599 578 609 Q547 619 512 619 Q460 619 411.5 599 Q363 579 324.5 545 Q286 511 259.5 465.5 Q233 420 226 368 Z M539 789 L512 820 L639 963 Q655 979 676.5 980 Q698 981 710 967 Q722 953 718.5 931 Q715 909 697 896 L539 789 Z " />
<glyph glyph-name="Otilde" unicode="&#xd5;" horiz-adv-x="850" d="M98 368 Q109 446 148.5 515 Q188 584 247 635.5 Q306 687 379 717 Q452 747 530 747 Q608 747 673 717 Q738 687 782 635.5 Q826 584 846.5 515 Q867 446 856 368 Q845 290 805 221 Q765 152 706.5 100.5 Q648 49 574.5 19 Q501 -11 423 -11 Q345 -11 280.5 19 Q216 49 171.5 100.5 Q127 152 107 221 Q87 290 98 368 Z M226 368 Q218 316 232 270.5 Q246 225 275 191 Q304 157 346.5 137 Q389 117 441 117 Q493 117 541.5 137 Q590 157 629 191 Q668 225 694 270.5 Q720 316 728 368 Q735 420 721.5 465.5 Q708 511 678.5 545 Q649 579 606.5 599 Q564 619 512 619 Q460 619 411.5 599 Q363 579 324.5 545 Q286 511 259.5 465.5 Q233 420 226 368 Z M614 931 Q637 931 654.5 922.5 Q672 914 683.5 899.5 Q695 885 699.5 866 Q704 847 701 826 L636 826 Q639 846 630.5 858 Q622 870 605 870 Q592 870 580.5 861 Q569 852 555 841.5 Q541 831 523.5 822.5 Q506 814 481 814 Q458 814 440.5 822.5 Q423 831 411.5 845.5 Q400 860 395.5 878.5 Q391 897 394 918 L459 918 Q456 898 464.5 886 Q473 874 490 874 Q503 874 514.5 883 Q526 892 540 902.5 Q554 913 571.5 922 Q589 931 614 931 Z " />
<glyph glyph-name="Racute" unicode="&#x154;" horiz-adv-x="671" d="M206 0 L81 0 L184 735 L497 735 Q545 735 584.5 717 Q624 699 651 667.5 Q678 636 690.5 594 Q703 552 696 504 Q686 436 644.5 382 Q603 328 543 299 L617 0 L485 0 L417 274 L245 274 L206 0 Z M435 382 Q460 382 483.5 391.5 Q507 401 526 417.5 Q545 434 557.5 456.5 Q570 479 574 504 Q577 529 571 551.5 Q565 574 550.5 590.5 Q536 607 515 616.5 Q494 626 469 626 L294 626 L260 382 L435 382 Z M379 789 L352 820 L479 963 Q494 979 516 980 Q538 981 550 967 Q562 953 558.5 931 Q555 909 536 896 L379 789 Z " />
<glyph glyph-name="Rcaron" unicode="&#x158;" horiz-adv-x="671" d="M206 0 L81 0 L184 735 L497 735 Q545 735 584.5 717 Q624 699 651 667.5 Q678 636 690.5 594 Q703 552 696 504 Q686 436 644.5 382 Q603 328 543 299 L617 0 L485 0 L417 274 L245 274 L206 0 Z M435 382 Q460 382 483.5 391.5 Q507 401 526 417.5 Q545 434 557.5 456.5 Q570 479 574 504 Q577 529 571 551.5 Q565 574 550.5 590.5 Q536 607 515 616.5 Q494 626 469 626 L294 626 L260 382 L435 382 Z M459 872 L564 965 L601 923 L446 787 L329 923 L377 965 L459 872 Z " />
<glyph glyph-name="Rcommaaccent" unicode="&#x156;" horiz-adv-x="671" d="M206 0 L81 0 L184 735 L497 735 Q545 735 584.5 717 Q624 699 651 667.5 Q678 636 690.5 594 Q703 552 696 504 Q686 436 644.5 382 Q603 328 543 299 L617 0 L485 0 L417 274 L245 274 L206 0 Z M435 382 Q460 382 483.5 391.5 Q507 401 526 417.5 Q545 434 557.5 456.5 Q570 479 574 504 Q577 529 571 551.5 Q565 574 550.5 590.5 Q536 607 515 616.5 Q494 626 469 626 L294 626 L260 382 L435 382 Z M256 -236 L296 -170 Q278 -166 268 -152 Q258 -138 260 -118 Q264 -95 281.5 -79.5 Q299 -64 321 -64 Q336 -64 346.5 -71 Q357 -78 362 -89.5 Q367 -101 366 -115.5 Q365 -130 356 -145 L289 -253 L256 -236 Z " />
<glyph glyph-name="Sacute" unicode="&#x15a;" horiz-adv-x="609" d="M315 -16 Q269 -16 229 -6.5 Q189 3 157 19.5 Q125 36 102 57.5 Q79 79 66 103 L170 179 Q193 148 235 126.5 Q277 105 333 105 Q393 105 426 127.5 Q459 150 464 184 Q468 215 452.5 237 Q437 259 395 278 L268 337 Q183 377 150.5 429 Q118 481 127 551 Q133 594 156.5 631 Q180 668 216.5 695 Q253 722 301 737 Q349 752 405 752 Q469 752 513.5 732 Q558 712 585.5 679.5 Q613 647 623.5 606.5 Q634 566 628 526 L505 526 Q506 535 502.5 553 Q499 571 486.5 589 Q474 607 450.5 620 Q427 633 388 633 Q333 633 298 609.5 Q263 586 258 551 Q254 519 272 498.5 Q290 478 325 461 L453 399 Q535 359 570 308.5 Q605 258 595 184 Q588 134 562 96.5 Q536 59 498 34 Q460 9 413 -3.5 Q366 -16 315 -16 Z M408 789 L381 820 L509 963 Q524 979 546 980 Q568 981 580 967 Q592 953 588.5 931 Q585 909 566 896 L408 789 Z " />
<glyph glyph-name="Scaron" unicode="&#x160;" horiz-adv-x="609" d="M315 -16 Q269 -16 229 -6.5 Q189 3 157 19.5 Q125 36 102 57.5 Q79 79 66 103 L170 179 Q193 148 235 126.5 Q277 105 333 105 Q393 105 426 127.5 Q459 150 464 184 Q468 215 452.5 237 Q437 259 395 278 L268 337 Q183 377 150.5 429 Q118 481 127 551 Q133 594 156.5 631 Q180 668 216.5 695 Q253 722 301 737 Q349 752 405 752 Q469 752 513.5 732 Q558 712 585.5 679.5 Q613 647 623.5 606.5 Q634 566 628 526 L505 526 Q506 535 502.5 553 Q499 571 486.5 589 Q474 607 450.5 620 Q427 633 388 633 Q333 633 298 609.5 Q263 586 258 551 Q254 519 272 498.5 Q290 478 325 461 L453 399 Q535 359 570 308.5 Q605 258 595 184 Q588 134 562 96.5 Q536 59 498 34 Q460 9 413 -3.5 Q366 -16 315 -16 Z M429 872 L534 965 L571 923 L416 787 L299 923 L347 965 L429 872 Z " />
<glyph glyph-name="Scedilla" unicode="&#x15e;" horiz-adv-x="609" d="M395 -127 Q389 -168 357.5 -195.5 Q326 -223 286 -223 Q266 -223 250 -215.5 Q234 -208 222 -195 L270 -154 Q279 -163 294 -163 Q309 -163 321 -153 Q333 -143 335 -127 Q337 -112 328 -102 Q319 -92 304 -92 Q288 -92 277 -102 L241 -59 Q258 -42 282 -36 L285 -14 Q204 -8 146.5 25 Q89 58 66 103 L170 179 Q193 148 235 126.5 Q277 105 333 105 Q393 105 426 127.5 Q459 150 464 184 Q468 215 452.5 237 Q437 259 395 278 L268 337 Q183 377 150.5 429 Q118 481 127 551 Q133 594 156.5 631 Q180 668 216.5 695 Q253 722 301 737 Q349 752 405 752 Q469 752 513.5 732 Q558 712 585.5 679.5 Q613 647 623.5 606.5 Q634 566 628 526 L505 526 Q506 535 502.5 553 Q499 571 486.5 589 Q474 607 450.5 620 Q427 633 388 633 Q333 633 298 609.5 Q263 586 258 551 Q254 519 272 498.5 Q290 478 325 461 L453 399 Q535 359 570 308.5 Q605 258 595 184 Q588 138 565.5 102.5 Q543 67 509.5 42 Q476 17 433.5 2.5 Q391 -12 345 -15 L342 -36 Q370 -45 385 -70 Q400 -95 395 -127 Z " />
<glyph glyph-name="Scircumflex" unicode="&#x15c;" horiz-adv-x="609" d="M315 -16 Q269 -16 229 -6.5 Q189 3 157 19.5 Q125 36 102 57.5 Q79 79 66 103 L170 179 Q193 148 235 126.5 Q277 105 333 105 Q393 105 426 127.5 Q459 150 464 184 Q468 215 452.5 237 Q437 259 395 278 L268 337 Q183 377 150.5 429 Q118 481 127 551 Q133 594 156.5 631 Q180 668 216.5 695 Q253 722 301 737 Q349 752 405 752 Q469 752 513.5 732 Q558 712 585.5 679.5 Q613 647 623.5 606.5 Q634 566 628 526 L505 526 Q506 535 502.5 553 Q499 571 486.5 589 Q474 607 450.5 620 Q427 633 388 633 Q333 633 298 609.5 Q263 586 258 551 Q254 519 272 498.5 Q290 478 325 461 L453 399 Q535 359 570 308.5 Q605 258 595 184 Q588 134 562 96.5 Q536 59 498 34 Q460 9 413 -3.5 Q366 -16 315 -16 Z M428 880 L322 787 L286 829 L441 965 L558 829 L509 787 L428 880 Z " />
<glyph glyph-name="Scommaaccent" unicode="&#x218;" horiz-adv-x="609" d="M315 -16 Q269 -16 229 -6.5 Q189 3 157 19.5 Q125 36 102 57.5 Q79 79 66 103 L170 179 Q193 148 235 126.5 Q277 105 333 105 Q393 105 426 127.5 Q459 150 464 184 Q468 215 452.5 237 Q437 259 395 278 L268 337 Q183 377 150.5 429 Q118 481 127 551 Q133 594 156.5 631 Q180 668 216.5 695 Q253 722 301 737 Q349 752 405 752 Q469 752 513.5 732 Q558 712 585.5 679.5 Q613 647 623.5 606.5 Q634 566 628 526 L505 526 Q506 535 502.5 553 Q499 571 486.5 589 Q474 607 450.5 620 Q427 633 388 633 Q333 633 298 609.5 Q263 586 258 551 Q254 519 272 498.5 Q290 478 325 461 L453 399 Q535 359 570 308.5 Q605 258 595 184 Q588 134 562 96.5 Q536 59 498 34 Q460 9 413 -3.5 Q366 -16 315 -16 Z M232 -236 L272 -170 Q254 -166 243.5 -152 Q233 -138 235 -118 Q239 -95 256.5 -79.5 Q274 -64 296 -64 Q311 -64 321.5 -71 Q332 -78 337.5 -89.5 Q343 -101 341.5 -115.5 Q340 -130 331 -145 L264 -253 L232 -236 Z " />
<glyph glyph-name="Tbar" unicode="&#x166;" horiz-adv-x="557" d="M642 734 L627 626 L429 626 L410 489 L494 511 L502 442 L399 415 L341 0 L216 0 L270 382 L188 361 L179 430 L280 455 L304 626 L105 626 L120 734 L642 734 Z " />
<glyph glyph-name="Tcaron" unicode="&#x164;" horiz-adv-x="557" d="M642 734 L627 626 L429 626 L341 0 L216 0 L304 626 L105 626 L120 734 L642 734 Z M402 872 L508 965 L544 923 L389 787 L272 923 L321 965 L402 872 Z " />
<glyph glyph-name="Tcommaaccent" unicode="&#x162;" horiz-adv-x="557" d="M642 734 L627 626 L429 626 L341 0 L216 0 L304 626 L105 626 L120 734 L642 734 Z M200 -236 L239 -170 Q221 -166 211 -152 Q201 -138 203 -118 Q207 -95 224.5 -79.5 Q242 -64 264 -64 Q279 -64 289.5 -71 Q300 -78 305 -89.5 Q310 -101 309 -115.5 Q308 -130 299 -145 L232 -253 L200 -236 Z " />
<glyph glyph-name="Uacute" unicode="&#xda;" horiz-adv-x="761" d="M225 317 Q218 271 228 233 Q238 195 261.5 167.5 Q285 140 319 125 Q353 110 395 110 Q437 110 476 125 Q515 140 546 167.5 Q577 195 598 233 Q619 271 626 317 L684 735 L811 735 L753 317 Q743 249 709 189 Q675 129 624.5 84.5 Q574 40 510 14.5 Q446 -11 378 -11 Q310 -11 254 14.5 Q198 40 159.5 84.5 Q121 129 104 189 Q87 249 97 317 L155 735 L283 735 L225 317 Z M484 789 L457 820 L585 963 Q600 979 622 980 Q644 981 656 967 Q668 953 664.5 931 Q661 909 642 896 L484 789 Z " />
<glyph glyph-name="Ubreve" unicode="&#x16c;" horiz-adv-x="761" d="M225 317 Q218 271 228 233 Q238 195 261.5 167.5 Q285 140 319 125 Q353 110 395 110 Q437 110 476 125 Q515 140 546 167.5 Q577 195 598 233 Q619 271 626 317 L684 735 L811 735 L753 317 Q743 249 709 189 Q675 129 624.5 84.5 Q574 40 510 14.5 Q446 -11 378 -11 Q310 -11 254 14.5 Q198 40 159.5 84.5 Q121 129 104 189 Q87 249 97 317 L155 735 L283 735 L225 317 Z M392 919 L465 919 L462 899 Q460 880 471 867 Q482 854 500 854 Q519 854 534 867 Q549 880 551 899 L554 919 L626 919 L624 904 Q621 880 609 858.5 Q597 837 578.5 821 Q560 805 537.5 796 Q515 787 491 787 Q467 787 446.5 796 Q426 805 412.5 821 Q399 837 393 858.5 Q387 880 390 904 L392 919 Z " />
<glyph glyph-name="Ucircumflex" unicode="&#xdb;" horiz-adv-x="761" d="M225 317 Q218 271 228 233 Q238 195 261.5 167.5 Q285 140 319 125 Q353 110 395 110 Q437 110 476 125 Q515 140 546 167.5 Q577 195 598 233 Q619 271 626 317 L684 735 L811 735 L753 317 Q743 249 709 189 Q675 129 624.5 84.5 Q574 40 510 14.5 Q446 -11 378 -11 Q310 -11 254 14.5 Q198 40 159.5 84.5 Q121 129 104 189 Q87 249 97 317 L155 735 L283 735 L225 317 Z M503 880 L398 787 L361 829 L516 965 L633 829 L585 787 L503 880 Z " />
<glyph glyph-name="Udieresis" unicode="&#xdc;" horiz-adv-x="761" d="M225 317 Q218 271 228 233 Q238 195 261.5 167.5 Q285 140 319 125 Q353 110 395 110 Q437 110 476 125 Q515 140 546 167.5 Q577 195 598 233 Q619 271 626 317 L684 735 L811 735 L753 317 Q743 249 709 189 Q675 129 624.5 84.5 Q574 40 510 14.5 Q446 -11 378 -11 Q310 -11 254 14.5 Q198 40 159.5 84.5 Q121 129 104 189 Q87 249 97 317 L155 735 L283 735 L225 317 Z M317 886 Q321 920 348.5 944 Q376 968 410 968 Q444 968 464.5 944 Q485 920 481 886 Q476 852 448.5 828 Q421 804 387 804 Q353 804 332.5 828 Q312 852 317 886 Z M530 886 Q534 920 561.5 944 Q589 968 623 968 Q657 968 677.5 944 Q698 920 694 886 Q689 852 661.5 828 Q634 804 600 804 Q566 804 545.5 828 Q525 852 530 886 Z " />
<glyph glyph-name="Ugrave" unicode="&#xd9;" horiz-adv-x="761" d="M225 317 Q218 271 228 233 Q238 195 261.5 167.5 Q285 140 319 125 Q353 110 395 110 Q437 110 476 125 Q515 140 546 167.5 Q577 195 598 233 Q619 271 626 317 L684 735 L811 735 L753 317 Q743 249 709 189 Q675 129 624.5 84.5 Q574 40 510 14.5 Q446 -11 378 -11 Q310 -11 254 14.5 Q198 40 159.5 84.5 Q121 129 104 189 Q87 249 97 317 L155 735 L283 735 L225 317 Z M371 896 Q356 909 358.5 931 Q361 953 377 967 Q393 981 415 980 Q437 979 446 963 L534 820 L499 789 L371 896 Z " />
<glyph glyph-name="Uhungarumlaut" unicode="&#x170;" horiz-adv-x="761" d="M225 317 Q218 271 228 233 Q238 195 261.5 167.5 Q285 140 319 125 Q353 110 395 110 Q437 110 476 125 Q515 140 546 167.5 Q577 195 598 233 Q619 271 626 317 L684 735 L811 735 L753 317 Q743 249 709 189 Q675 129 624.5 84.5 Q574 40 510 14.5 Q446 -11 378 -11 Q310 -11 254 14.5 Q198 40 159.5 84.5 Q121 129 104 189 Q87 249 97 317 L155 735 L283 735 L225 317 Z M389 789 L362 820 L489 963 Q504 979 526 980 Q548 981 560 967 Q572 953 568.5 931 Q565 909 546 896 L389 789 Z M580 789 L553 820 L680 963 Q695 979 717 980 Q739 981 751 967 Q763 953 759.5 931 Q756 909 737 896 L580 789 Z " />
<glyph glyph-name="Umacron" unicode="&#x16a;" horiz-adv-x="761" d="M225 317 Q218 271 228 233 Q238 195 261.5 167.5 Q285 140 319 125 Q353 110 395 110 Q437 110 476 125 Q515 140 546 167.5 Q577 195 598 233 Q619 271 626 317 L684 735 L811 735 L753 317 Q743 249 709 189 Q675 129 624.5 84.5 Q574 40 510 14.5 Q446 -11 378 -11 Q310 -11 254 14.5 Q198 40 159.5 84.5 Q121 129 104 189 Q87 249 97 317 L155 735 L283 735 L225 317 Z M648 804 L339 804 L349 877 L658 877 L648 804 Z " />
<glyph glyph-name="Uogonek" unicode="&#x172;" horiz-adv-x="761" d="M244 -77 Q247 -54 257.5 -33.5 Q268 -13 283 3 Q236 18 197.5 48.5 Q159 79 134 120 Q109 161 99 211 Q89 261 97 317 L155 735 L283 735 L225 317 Q218 271 228 233 Q238 195 261.5 167.5 Q285 140 319 125 Q353 110 395 110 Q437 110 476 125 Q515 140 546 167.5 Q577 195 598 233 Q619 271 626 317 L684 735 L811 735 L753 317 Q743 249 709 189 Q675 129 624.5 84.5 Q574 40 510 14.5 Q446 -11 378 -11 Q351 -11 329.5 -30.5 Q308 -50 304 -77 Q300 -105 316.5 -124 Q333 -143 360 -143 Q387 -143 409 -124 Q431 -105 435 -77 L495 -77 Q492 -103 478.5 -126 Q465 -149 445.5 -166 Q426 -183 401.5 -193 Q377 -203 351 -203 Q325 -203 304 -193 Q283 -183 268.5 -166 Q254 -149 247.5 -126 Q241 -103 244 -77 Z " />
<glyph glyph-name="Uring" unicode="&#x16e;" horiz-adv-x="761" d="M225 317 Q218 271 228 233 Q238 195 261.5 167.5 Q285 140 319 125 Q353 110 395 110 Q437 110 476 125 Q515 140 546 167.5 Q577 195 598 233 Q619 271 626 317 L684 735 L811 735 L753 317 Q743 249 709 189 Q675 129 624.5 84.5 Q574 40 510 14.5 Q446 -11 378 -11 Q310 -11 254 14.5 Q198 40 159.5 84.5 Q121 129 104 189 Q87 249 97 317 L155 735 L283 735 L225 317 Z M410 895 Q415 935 447 963 Q479 991 519 991 Q559 991 583 963 Q607 935 602 895 Q596 855 564 827 Q532 799 492 799 Q452 799 428 827 Q404 855 410 895 Z M471 895 Q469 880 477.5 869.5 Q486 859 501 859 Q517 859 528.5 869.5 Q540 880 542 895 Q544 910 535.5 920.5 Q527 931 511 931 Q496 931 484.5 920.5 Q473 910 471 895 Z " />
<glyph glyph-name="Utilde" unicode="&#x168;" horiz-adv-x="761" d="M225 317 Q218 271 228 233 Q238 195 261.5 167.5 Q285 140 319 125 Q353 110 395 110 Q437 110 476 125 Q515 140 546 167.5 Q577 195 598 233 Q619 271 626 317 L684 735 L811 735 L753 317 Q743 249 709 189 Q675 129 624.5 84.5 Q574 40 510 14.5 Q446 -11 378 -11 Q310 -11 254 14.5 Q198 40 159.5 84.5 Q121 129 104 189 Q87 249 97 317 L155 735 L283 735 L225 317 Z M570 931 Q593 931 610 922.5 Q627 914 638.5 899.5 Q650 885 655 866 Q660 847 657 826 L591 826 Q594 846 586 858 Q578 870 561 870 Q547 870 535.5 861 Q524 852 510 841.5 Q496 831 478.5 822.5 Q461 814 436 814 Q413 814 395.5 822.5 Q378 831 366.5 845.5 Q355 860 350.5 878.5 Q346 897 349 918 L415 918 Q412 898 420 886 Q428 874 445 874 Q458 874 469.5 883 Q481 892 495 902.5 Q509 913 527 922 Q545 931 570 931 Z " />
<glyph glyph-name="Yacute" unicode="&#xdd;" horiz-adv-x="574" d="M229 0 L259 212 L114 735 L247 735 L342 385 L534 735 L667 735 L377 212 L347 0 L229 0 Z M400 789 L373 820 L501 963 Q516 979 538 980 Q560 981 572 967 Q584 953 580.5 931 Q577 909 558 896 L400 789 Z " />
<glyph glyph-name="Ycircumflex" unicode="&#x176;" horiz-adv-x="574" d="M229 0 L259 212 L114 735 L247 735 L342 385 L534 735 L667 735 L377 212 L347 0 L229 0 Z M410 880 L304 787 L268 829 L423 965 L540 829 L491 787 L410 880 Z " />
<glyph glyph-name="Ydieresis" unicode="&#x178;" horiz-adv-x="574" d="M229 0 L259 212 L114 735 L247 735 L342 385 L534 735 L667 735 L377 212 L347 0 L229 0 Z M223 886 Q227 920 254.5 944 Q282 968 316 968 Q350 968 370.5 944 Q391 920 387 886 Q382 852 354.5 828 Q327 804 293 804 Q259 804 238.5 828 Q218 852 223 886 Z M436 886 Q440 920 467.5 944 Q495 968 529 968 Q563 968 583.5 944 Q604 920 600 886 Q595 852 567.5 828 Q540 804 506 804 Q472 804 451.5 828 Q431 852 436 886 Z " />
<glyph glyph-name="Ygrave" unicode="&#x1ef2;" horiz-adv-x="574" d="M229 0 L259 212 L114 735 L247 735 L342 385 L534 735 L667 735 L377 212 L347 0 L229 0 Z M267 896 Q252 909 254.5 931 Q257 953 273 967 Q289 981 311 980 Q333 979 342 963 L430 820 L395 789 L267 896 Z " />
<glyph glyph-name="Zacute" unicode="&#x179;" horiz-adv-x="616" d="M119 318 L134 425 L335 425 L480 626 L140 626 L155 735 L658 735 L671 709 L470 425 L602 425 L587 318 L394 318 L244 109 L579 109 L564 0 L61 0 L49 26 L259 318 L119 318 Z M421 789 L394 820 L522 963 Q537 979 559 980 Q581 981 593 967 Q605 953 601.5 931 Q598 909 579 896 L421 789 Z " />
<glyph glyph-name="Zcaron" unicode="&#x17d;" horiz-adv-x="616" d="M119 318 L134 425 L335 425 L480 626 L140 626 L155 735 L658 735 L671 709 L470 425 L602 425 L587 318 L394 318 L244 109 L579 109 L564 0 L61 0 L49 26 L259 318 L119 318 Z M432 872 L537 965 L573 923 L418 787 L301 923 L350 965 L432 872 Z " />
<glyph glyph-name="Zdotaccent" unicode="&#x17b;" horiz-adv-x="616" d="M119 318 L134 425 L335 425 L480 626 L140 626 L155 735 L658 735 L671 709 L470 425 L602 425 L587 318 L394 318 L244 109 L579 109 L564 0 L61 0 L49 26 L259 318 L119 318 Z M351 886 Q355 920 382 944 Q409 968 443 968 Q478 968 498 944 Q518 920 514 886 Q509 852 482 828 Q455 804 420 804 Q386 804 366 828 Q346 852 351 886 Z " />
<glyph glyph-name="aacute" unicode="&#xe1;" horiz-adv-x="579" d="M401 72 Q373 36 327 12.5 Q281 -11 226 -11 Q182 -11 150 2 Q118 15 98 37 Q78 59 70 88.5 Q62 118 66 151 Q71 182 86.5 210 Q102 238 130.5 259 Q159 280 200.5 292 Q242 304 296 304 L434 304 L435 311 Q441 354 419.5 382.5 Q398 411 345 411 Q312 411 281.5 397.5 Q251 384 226 359 L156 428 Q193 466 246.5 493 Q300 520 360 521 Q414 521 453 504 Q492 487 515.5 458.5 Q539 430 548.5 392 Q558 354 552 311 L508 0 L391 0 L401 72 Z M187 151 Q183 124 205.5 106.5 Q228 89 266 89 Q290 89 316 97.5 Q342 106 363.5 122 Q385 138 401 160 Q417 182 420 209 L282 209 Q236 209 213.5 193 Q191 177 187 151 Z M372 566 L345 597 L473 740 Q487 756 509.5 757 Q532 758 544 744 Q556 730 552 708 Q548 686 530 673 L372 566 Z " />
<glyph glyph-name="abreve" unicode="&#x103;" horiz-adv-x="579" d="M401 72 Q373 36 327 12.5 Q281 -11 226 -11 Q182 -11 150 2 Q118 15 98 37 Q78 59 70 88.5 Q62 118 66 151 Q71 182 86.5 210 Q102 238 130.5 259 Q159 280 200.5 292 Q242 304 296 304 L434 304 L435 311 Q441 354 419.5 382.5 Q398 411 345 411 Q312 411 281.5 397.5 Q251 384 226 359 L156 428 Q193 466 246.5 493 Q300 520 360 521 Q414 521 453 504 Q492 487 515.5 458.5 Q539 430 548.5 392 Q558 354 552 311 L508 0 L391 0 L401 72 Z M187 151 Q183 124 205.5 106.5 Q228 89 266 89 Q290 89 316 97.5 Q342 106 363.5 122 Q385 138 401 160 Q417 182 420 209 L282 209 Q236 209 213.5 193 Q191 177 187 151 Z M270 696 L343 696 L340 676 Q337 657 348 644 Q359 631 378 631 Q397 631 411 644 Q425 657 428 676 L431 696 L504 696 L502 681 Q498 657 486 635.5 Q474 614 456 598 Q438 582 415 573 Q392 564 368 564 Q344 564 324 573 Q304 582 290 598 Q276 614 270 635.5 Q264 657 268 681 L270 696 Z " />
<glyph glyph-name="acircumflex" unicode="&#xe2;" horiz-adv-x="579" d="M401 72 Q373 36 327 12.5 Q281 -11 226 -11 Q182 -11 150 2 Q118 15 98 37 Q78 59 70 88.5 Q62 118 66 151 Q71 182 86.5 210 Q102 238 130.5 259 Q159 280 200.5 292 Q242 304 296 304 L434 304 L435 311 Q441 354 419.5 382.5 Q398 411 345 411 Q312 411 281.5 397.5 Q251 384 226 359 L156 428 Q193 466 246.5 493 Q300 520 360 521 Q414 521 453 504 Q492 487 515.5 458.5 Q539 430 548.5 392 Q558 354 552 311 L508 0 L391 0 L401 72 Z M187 151 Q183 124 205.5 106.5 Q228 89 266 89 Q290 89 316 97.5 Q342 106 363.5 122 Q385 138 401 160 Q417 182 420 209 L282 209 Q236 209 213.5 193 Q191 177 187 151 Z M380 657 L275 564 L238 606 L393 742 L510 606 L462 564 L380 657 Z " />
<glyph glyph-name="adieresis" unicode="&#xe4;" horiz-adv-x="579" d="M401 72 Q373 36 327 12.5 Q281 -11 226 -11 Q182 -11 150 2 Q118 15 98 37 Q78 59 70 88.5 Q62 118 66 151 Q71 182 86.5 210 Q102 238 130.5 259 Q159 280 200.5 292 Q242 304 296 304 L434 304 L435 311 Q441 354 419.5 382.5 Q398 411 345 411 Q312 411 281.5 397.5 Q251 384 226 359 L156 428 Q193 466 246.5 493 Q300 520 360 521 Q414 521 453 504 Q492 487 515.5 458.5 Q539 430 548.5 392 Q558 354 552 311 L508 0 L391 0 L401 72 Z M187 151 Q183 124 205.5 106.5 Q228 89 266 89 Q290 89 316 97.5 Q342 106 363.5 122 Q385 138 401 160 Q417 182 420 209 L282 209 Q236 209 213.5 193 Q191 177 187 151 Z M194 663 Q199 697 226.5 721 Q254 745 288 745 Q322 745 342.5 721 Q363 697 358 663 Q353 629 326 605 Q299 581 265 581 Q231 581 210 605 Q189 629 194 663 Z M407 663 Q412 697 439.5 721 Q467 745 501 745 Q535 745 555.5 721 Q576 697 571 663 Q566 629 539 605 Q512 581 478 581 Q444 581 423 605 Q402 629 407 663 Z " />
<glyph glyph-name="agrave" unicode="&#xe0;" horiz-adv-x="579" d="M401 72 Q373 36 327 12.5 Q281 -11 226 -11 Q182 -11 150 2 Q118 15 98 37 Q78 59 70 88.5 Q62 118 66 151 Q71 182 86.5 210 Q102 238 130.5 259 Q159 280 200.5 292 Q242 304 296 304 L434 304 L435 311 Q441 354 419.5 382.5 Q398 411 345 411 Q312 411 281.5 397.5 Q251 384 226 359 L156 428 Q193 466 246.5 493 Q300 520 360 521 Q414 521 453 504 Q492 487 515.5 458.5 Q539 430 548.5 392 Q558 354 552 311 L508 0 L391 0 L401 72 Z M187 151 Q183 124 205.5 106.5 Q228 89 266 89 Q290 89 316 97.5 Q342 106 363.5 122 Q385 138 401 160 Q417 182 420 209 L282 209 Q236 209 213.5 193 Q191 177 187 151 Z M248 673 Q232 686 235 708 Q238 730 254 744 Q270 758 291.5 757 Q313 756 323 740 L411 597 L375 566 L248 673 Z " />
<glyph glyph-name="amacron" unicode="&#x101;" horiz-adv-x="579" d="M401 72 Q373 36 327 12.5 Q281 -11 226 -11 Q182 -11 150 2 Q118 15 98 37 Q78 59 70 88.5 Q62 118 66 151 Q71 182 86.5 210 Q102 238 130.5 259 Q159 280 200.5 292 Q242 304 296 304 L434 304 L435 311 Q441 354 419.5 382.5 Q398 411 345 411 Q312 411 281.5 397.5 Q251 384 226 359 L156 428 Q193 466 246.5 493 Q300 520 360 521 Q414 521 453 504 Q492 487 515.5 458.5 Q539 430 548.5 392 Q558 354 552 311 L508 0 L391 0 L401 72 Z M187 151 Q183 124 205.5 106.5 Q228 89 266 89 Q290 89 316 97.5 Q342 106 363.5 122 Q385 138 401 160 Q417 182 420 209 L282 209 Q236 209 213.5 193 Q191 177 187 151 Z M526 581 L217 581 L227 654 L536 654 L526 581 Z " />
<glyph glyph-name="aogonek" unicode="&#x105;" horiz-adv-x="579" d="M401 72 Q373 36 327 12.5 Q281 -11 226 -11 L221 -11 Q193 -11 172 -30.5 Q151 -50 147 -77 Q143 -105 159 -123.5 Q175 -142 203 -142 Q230 -142 251.5 -123.5 Q273 -105 277 -77 L338 -77 Q335 -103 321.5 -126 Q308 -149 288.5 -166 Q269 -183 244.5 -193 Q220 -203 194 -203 Q168 -203 146.5 -193 Q125 -183 110.5 -166 Q96 -149 89.5 -126 Q83 -103 86 -77 Q90 -51 102.5 -28.5 Q115 -6 134 11 Q94 32 77 69 Q60 106 66 151 Q71 182 86.5 210 Q102 238 130.5 259 Q159 280 200.5 292 Q242 304 296 304 L434 304 L435 310 Q441 353 420 382 Q399 411 345 411 Q312 411 281.5 397.5 Q251 384 226 359 L156 428 Q192 466 246 493.5 Q300 521 360 521 Q414 521 453 504 Q492 487 515.5 458.5 Q539 430 548.5 392 Q558 354 552 311 L508 0 L391 0 L401 72 Z M187 151 Q183 124 205.5 106.5 Q228 89 266 89 Q290 89 316 97.5 Q342 106 363.5 122 Q385 138 401 160 Q417 182 420 209 L282 209 Q236 209 213.5 193 Q191 177 187 151 Z " />
<glyph glyph-name="aring" unicode="&#xe5;" horiz-adv-x="579" d="M401 72 Q373 36 327 12.5 Q281 -11 226 -11 Q182 -11 150 2 Q118 15 98 37 Q78 59 70 88.5 Q62 118 66 151 Q71 182 86.5 210 Q102 238 130.5 259 Q159 280 200.5 292 Q242 304 296 304 L434 304 L435 311 Q441 354 419.5 382.5 Q398 411 345 411 Q312 411 281.5 397.5 Q251 384 226 359 L156 428 Q193 466 246.5 493 Q300 520 360 521 Q414 521 453 504 Q492 487 515.5 458.5 Q539 430 548.5 392 Q558 354 552 311 L508 0 L391 0 L401 72 Z M187 151 Q183 124 205.5 106.5 Q228 89 266 89 Q290 89 316 97.5 Q342 106 363.5 122 Q385 138 401 160 Q417 182 420 209 L282 209 Q236 209 213.5 193 Q191 177 187 151 Z M287 672 Q293 712 325 740 Q357 768 397 768 Q437 768 461 740 Q485 712 479 672 Q474 632 442 604 Q410 576 370 576 Q330 576 306 604 Q282 632 287 672 Z M347 672 Q345 657 354 646.5 Q363 636 378 636 Q393 636 405 646.5 Q417 657 419 672 Q422 687 413 697.5 Q404 708 389 708 Q374 708 362 697.5 Q350 687 347 672 Z " />
<glyph glyph-name="atilde" unicode="&#xe3;" horiz-adv-x="579" d="M401 72 Q373 36 327 12.5 Q281 -11 226 -11 Q182 -11 150 2 Q118 15 98 37 Q78 59 70 88.5 Q62 118 66 151 Q71 182 86.5 210 Q102 238 130.5 259 Q159 280 200.5 292 Q242 304 296 304 L434 304 L435 311 Q441 354 419.5 382.5 Q398 411 345 411 Q312 411 281.5 397.5 Q251 384 226 359 L156 428 Q193 466 246.5 493 Q300 520 360 521 Q414 521 453 504 Q492 487 515.5 458.5 Q539 430 548.5 392 Q558 354 552 311 L508 0 L391 0 L401 72 Z M187 151 Q183 124 205.5 106.5 Q228 89 266 89 Q290 89 316 97.5 Q342 106 363.5 122 Q385 138 401 160 Q417 182 420 209 L282 209 Q236 209 213.5 193 Q191 177 187 151 Z M447 708 Q470 708 487.5 699.5 Q505 691 516.5 676.5 Q528 662 532.5 643 Q537 624 534 603 L469 603 Q472 623 463.5 635 Q455 647 438 647 Q425 647 413 638 Q401 629 387 618.5 Q373 608 356 599.5 Q339 591 314 591 Q291 591 273 599.5 Q255 608 244 622.5 Q233 637 228.5 655.5 Q224 674 227 695 L292 695 Q289 675 297 663 Q305 651 322 651 Q335 651 347 660 Q359 669 373 679.5 Q387 690 404.5 699 Q422 708 447 708 Z " />
<glyph glyph-name="aeacute" unicode="&#x1fd;" horiz-adv-x="941" d="M939 251 Q938 241 934 228.5 Q930 216 927 208 L537 208 Q534 187 542.5 167.5 Q551 148 568.5 133 Q586 118 610 109 Q634 100 664 100 Q702 100 736 115 Q770 130 797 154 L874 85 Q830 40 772 15 Q714 -10 648 -10 Q588 -10 535.5 14.5 Q483 39 454 90 Q402 33 345.5 11 Q289 -11 240 -11 Q195 -11 161 2 Q127 15 104 37 Q81 59 71.5 88.5 Q62 118 66 151 Q71 182 87 210 Q103 238 131.5 259 Q160 280 201 292 Q242 304 296 304 L434 304 L435 311 Q441 354 419.5 382.5 Q398 411 345 411 Q309 411 280.5 395 Q252 379 225 350 L155 419 Q172 439 195.5 457.5 Q219 476 246 490 Q273 504 302 512.5 Q331 521 360 521 Q420 521 460 500 Q500 479 523 444 Q559 479 608 500.5 Q657 522 714 522 Q772 522 818 501.5 Q864 481 893.5 444.5 Q923 408 935 358.5 Q947 309 939 251 Z M701 416 Q668 416 642 406 Q616 396 596.5 379.5 Q577 363 565 343 Q553 323 551 304 L822 304 Q824 322 817.5 341.5 Q811 361 795.5 377.5 Q780 394 756 405 Q732 416 701 416 Z M187 151 Q183 124 205.5 106.5 Q228 89 266 89 Q290 89 316 97.5 Q342 106 363.5 122 Q385 138 401 160 Q417 182 420 209 L282 209 Q236 209 213.5 193 Q191 177 187 151 Z M483 566 L456 597 L581 737 Q596 754 618.5 756.5 Q641 759 655 744 Q667 730 662.5 708 Q658 686 641 673 L483 566 Z " />
<glyph glyph-name="cacute" unicode="&#x107;" horiz-adv-x="533" d="M512 67 Q471 32 422.5 11 Q374 -10 315 -10 Q260 -10 214 11 Q168 32 137.5 68 Q107 104 92.5 152.5 Q78 201 86 256 Q94 311 121.5 359.5 Q149 408 190 444 Q231 480 282.5 501 Q334 522 389 522 Q450 522 495.5 499 Q541 476 570 440 L476 359 Q459 380 432 392 Q405 404 373 404 Q342 404 313.5 392.5 Q285 381 262 360.5 Q239 340 223.5 313 Q208 286 204 256 Q200 225 207.5 198 Q215 171 232 151 Q249 131 274.5 119.5 Q300 108 331 108 Q362 108 392 119.5 Q422 131 445 151 L512 67 Z M379 566 L352 597 L480 740 Q494 756 516.5 757 Q539 758 551 744 Q563 730 559 708 Q555 686 537 673 L379 566 Z " />
<glyph glyph-name="ccaron" unicode="&#x10d;" horiz-adv-x="533" d="M512 67 Q471 32 422.5 11 Q374 -10 315 -10 Q260 -10 214 11 Q168 32 137.5 68 Q107 104 92.5 152.5 Q78 201 86 256 Q94 311 121.5 359.5 Q149 408 190 444 Q231 480 282.5 501 Q334 522 389 522 Q450 522 495.5 499 Q541 476 570 440 L476 359 Q459 380 432 392 Q405 404 373 404 Q342 404 313.5 392.5 Q285 381 262 360.5 Q239 340 223.5 313 Q208 286 204 256 Q200 225 207.5 198 Q215 171 232 151 Q249 131 274.5 119.5 Q300 108 331 108 Q362 108 392 119.5 Q422 131 445 151 L512 67 Z M358 649 L464 742 L500 700 L345 564 L228 700 L277 742 L358 649 Z " />
<glyph glyph-name="ccedilla" unicode="&#xe7;" horiz-adv-x="533" d="M512 67 Q476 35 433.5 15.5 Q391 -4 342 -8 L338 -36 Q366 -45 381 -70 Q396 -95 391 -127 Q385 -168 353.5 -195.5 Q322 -223 282 -223 Q262 -223 246 -215.5 Q230 -208 218 -195 L266 -154 Q275 -163 290 -163 Q305 -163 317 -153 Q329 -143 331 -127 Q333 -112 324 -102 Q315 -92 300 -92 Q284 -92 273 -102 L237 -59 Q254 -42 278 -36 L282 -7 Q233 -1 193.5 21.5 Q154 44 128 79 Q102 114 90.5 159.5 Q79 205 86 256 Q94 311 121.5 359.5 Q149 408 190 444 Q231 480 282.5 501 Q334 522 389 522 Q450 522 495.5 499 Q541 476 570 440 L476 359 Q459 380 432 392 Q405 404 373 404 Q342 404 313.5 392.5 Q285 381 262 360.5 Q239 340 223.5 313 Q208 286 204 256 Q200 226 207.5 199 Q215 172 232.5 152 Q250 132 275 120 Q300 108 330 108 L332 108 Q363 108 392.5 119.5 Q422 131 445 151 L512 67 Z " />
<glyph glyph-name="ccircumflex" unicode="&#x109;" horiz-adv-x="533" d="M512 67 Q471 32 422.5 11 Q374 -10 315 -10 Q260 -10 214 11 Q168 32 137.5 68 Q107 104 92.5 152.5 Q78 201 86 256 Q94 311 121.5 359.5 Q149 408 190 444 Q231 480 282.5 501 Q334 522 389 522 Q450 522 495.5 499 Q541 476 570 440 L476 359 Q459 380 432 392 Q405 404 373 404 Q342 404 313.5 392.5 Q285 381 262 360.5 Q239 340 223.5 313 Q208 286 204 256 Q200 225 207.5 198 Q215 171 232 151 Q249 131 274.5 119.5 Q300 108 331 108 Q362 108 392 119.5 Q422 131 445 151 L512 67 Z M397 657 L292 564 L255 606 L410 742 L527 606 L479 564 L397 657 Z " />
<glyph glyph-name="cdotaccent" unicode="&#x10b;" horiz-adv-x="533" d="M512 67 Q471 32 422.5 11 Q374 -10 315 -10 Q260 -10 214 11 Q168 32 137.5 68 Q107 104 92.5 152.5 Q78 201 86 256 Q94 311 121.5 359.5 Q149 408 190 444 Q231 480 282.5 501 Q334 522 389 522 Q450 522 495.5 499 Q541 476 570 440 L476 359 Q459 380 432 392 Q405 404 373 404 Q342 404 313.5 392.5 Q285 381 262 360.5 Q239 340 223.5 313 Q208 286 204 256 Q200 225 207.5 198 Q215 171 232 151 Q249 131 274.5 119.5 Q300 108 331 108 Q362 108 392 119.5 Q422 131 445 151 L512 67 Z M317 663 Q322 697 349.5 721 Q377 745 411 745 Q445 745 465.5 721 Q486 697 481 663 Q476 629 449 605 Q422 581 388 581 Q354 581 333 605 Q312 629 317 663 Z " />
<glyph glyph-name="eacute" unicode="&#xe9;" horiz-adv-x="611" d="M605 251 Q604 241 600.5 228.5 Q597 216 594 208 L203 208 Q200 187 208.5 167.5 Q217 148 234.5 133 Q252 118 276 109 Q300 100 330 100 Q368 100 402.5 115 Q437 130 464 154 L541 85 Q497 40 438.5 15 Q380 -10 314 -10 Q266 -10 220.5 6.5 Q175 23 142.5 56 Q110 89 93.5 139 Q77 189 86 256 Q94 311 119 359.5 Q144 408 183 444 Q222 480 272.5 501 Q323 522 381 522 Q439 522 485 501.5 Q531 481 560 444.5 Q589 408 601 358.5 Q613 309 605 251 Z M367 416 Q335 416 308.5 405.5 Q282 395 262.5 379 Q243 363 231 343 Q219 323 217 304 L489 304 Q491 322 484.5 341.5 Q478 361 462 377.5 Q446 394 422 405 Q398 416 367 416 Z M388 566 L361 597 L486 737 Q501 754 523.5 756.5 Q546 759 560 744 Q572 730 568 708 Q564 686 546 673 L388 566 Z " />
<glyph glyph-name="ebreve" unicode="&#x115;" horiz-adv-x="611" d="M605 251 Q604 241 600.5 228.5 Q597 216 594 208 L203 208 Q200 187 208.5 167.5 Q217 148 234.5 133 Q252 118 276 109 Q300 100 330 100 Q368 100 402.5 115 Q437 130 464 154 L541 85 Q497 40 438.5 15 Q380 -10 314 -10 Q266 -10 220.5 6.5 Q175 23 142.5 56 Q110 89 93.5 139 Q77 189 86 256 Q94 311 119 359.5 Q144 408 183 444 Q222 480 272.5 501 Q323 522 381 522 Q439 522 485 501.5 Q531 481 560 444.5 Q589 408 601 358.5 Q613 309 605 251 Z M286 696 L359 696 L356 676 Q353 657 364 644 Q375 631 394 631 Q413 631 427 643.5 Q441 656 444 676 L447 696 L520 696 L518 681 Q514 657 502 635.5 Q490 614 472 598 Q454 582 431 573 Q408 564 384 564 Q360 564 340 573 Q320 582 306 598 Q292 614 286 635.5 Q280 657 284 681 L286 696 Z M367 416 Q335 416 308.5 405.5 Q282 395 262.5 379 Q243 363 231 343 Q219 323 217 304 L489 304 Q491 322 484.5 341.5 Q478 361 462 377.5 Q446 394 422 405 Q398 416 367 416 Z " />
<glyph glyph-name="ecaron" unicode="&#x11b;" horiz-adv-x="611" d="M605 251 Q604 241 600.5 228.5 Q597 216 594 208 L203 208 Q200 187 208.5 167.5 Q217 148 234.5 133 Q252 118 276 109 Q300 100 330 100 Q368 100 402.5 115 Q437 130 464 154 L541 85 Q497 40 438.5 15 Q380 -10 314 -10 Q266 -10 220.5 6.5 Q175 23 142.5 56 Q110 89 93.5 139 Q77 189 86 256 Q94 311 119 359.5 Q144 408 183 444 Q222 480 272.5 501 Q323 522 381 522 Q439 522 485 501.5 Q531 481 560 444.5 Q589 408 601 358.5 Q613 309 605 251 Z M397 649 L503 742 L539 700 L384 564 L267 700 L316 742 L397 649 Z M367 416 Q335 416 308.5 405.5 Q282 395 262.5 379 Q243 363 231 343 Q219 323 217 304 L489 304 Q491 322 484.5 341.5 Q478 361 462 377.5 Q446 394 422 405 Q398 416 367 416 Z " />
<glyph glyph-name="ecircumflex" unicode="&#xea;" horiz-adv-x="611" d="M605 251 Q604 241 600.5 228.5 Q597 216 594 208 L203 208 Q200 187 208.5 167.5 Q217 148 234.5 133 Q252 118 276 109 Q300 100 330 100 Q368 100 402.5 115 Q437 130 464 154 L541 85 Q497 40 438.5 15 Q380 -10 314 -10 Q266 -10 220.5 6.5 Q175 23 142.5 56 Q110 89 93.5 139 Q77 189 86 256 Q94 311 119 359.5 Q144 408 183 444 Q222 480 272.5 501 Q323 522 381 522 Q439 522 485 501.5 Q531 481 560 444.5 Q589 408 601 358.5 Q613 309 605 251 Z M396 657 L291 564 L254 606 L409 742 L526 606 L478 564 L396 657 Z M367 416 Q335 416 308.5 405.5 Q282 395 262.5 379 Q243 363 231 343 Q219 323 217 304 L489 304 Q491 322 484.5 341.5 Q478 361 462 377.5 Q446 394 422 405 Q398 416 367 416 Z " />
<glyph glyph-name="edieresis" unicode="&#xeb;" horiz-adv-x="611" d="M605 251 Q604 241 600.5 228.5 Q597 216 594 208 L203 208 Q200 187 208.5 167.5 Q217 148 234.5 133 Q252 118 276 109 Q300 100 330 100 Q368 100 402.5 115 Q437 130 464 154 L541 85 Q497 40 438.5 15 Q380 -10 314 -10 Q266 -10 220.5 6.5 Q175 23 142.5 56 Q110 89 93.5 139 Q77 189 86 256 Q94 311 119 359.5 Q144 408 183 444 Q222 480 272.5 501 Q323 522 381 522 Q439 522 485 501.5 Q531 481 560 444.5 Q589 408 601 358.5 Q613 309 605 251 Z M423 663 Q428 697 455.5 721 Q483 745 517 745 Q551 745 571.5 721 Q592 697 587 663 Q582 629 555 605 Q528 581 494 581 Q460 581 439 605 Q418 629 423 663 Z M210 663 Q215 697 242.5 721 Q270 745 304 745 Q338 745 358.5 721 Q379 697 374 663 Q369 629 342 605 Q315 581 281 581 Q247 581 226 605 Q205 629 210 663 Z M367 416 Q335 416 308.5 405.5 Q282 395 262.5 379 Q243 363 231 343 Q219 323 217 304 L489 304 Q491 322 484.5 341.5 Q478 361 462 377.5 Q446 394 422 405 Q398 416 367 416 Z " />
<glyph glyph-name="edotaccent" unicode="&#x117;" horiz-adv-x="611" d="M605 251 Q604 241 600.5 228.5 Q597 216 594 208 L203 208 Q200 187 208.5 167.5 Q217 148 234.5 133 Q252 118 276 109 Q300 100 330 100 Q368 100 402.5 115 Q437 130 464 154 L541 85 Q497 40 438.5 15 Q380 -10 314 -10 Q266 -10 220.5 6.5 Q175 23 142.5 56 Q110 89 93.5 139 Q77 189 86 256 Q94 311 119 359.5 Q144 408 183 444 Q222 480 272.5 501 Q323 522 381 522 Q439 522 485 501.5 Q531 481 560 444.5 Q589 408 601 358.5 Q613 309 605 251 Z M316 663 Q321 697 348.5 721 Q376 745 410 745 Q444 745 464.5 721 Q485 697 480 663 Q475 629 448 605 Q421 581 387 581 Q353 581 332 605 Q311 629 316 663 Z M367 416 Q335 416 308.5 405.5 Q282 395 262.5 379 Q243 363 231 343 Q219 323 217 304 L489 304 Q491 322 484.5 341.5 Q478 361 462 377.5 Q446 394 422 405 Q398 416 367 416 Z " />
<glyph glyph-name="egrave" unicode="&#xe8;" horiz-adv-x="611" d="M605 251 Q604 241 600.5 228.5 Q597 216 594 208 L203 208 Q200 187 208.5 167.5 Q217 148 234.5 133 Q252 118 276 109 Q300 100 330 100 Q368 100 402.5 115 Q437 130 464 154 L541 85 Q497 40 438.5 15 Q380 -10 314 -10 Q266 -10 220.5 6.5 Q175 23 142.5 56 Q110 89 93.5 139 Q77 189 86 256 Q94 311 119 359.5 Q144 408 183 444 Q222 480 272.5 501 Q323 522 381 522 Q439 522 485 501.5 Q531 481 560 444.5 Q589 408 601 358.5 Q613 309 605 251 Z M367 416 Q335 416 308.5 405.5 Q282 395 262.5 379 Q243 363 231 343 Q219 323 217 304 L489 304 Q491 322 484.5 341.5 Q478 361 462 377.5 Q446 394 422 405 Q398 416 367 416 Z M255 673 Q239 686 242 708 Q245 730 261 744 Q272 753 286.5 756 Q301 759 312 754 Q323 750 332 737 L418 597 L382 566 L255 673 Z " />
<glyph glyph-name="emacron" unicode="&#x113;" horiz-adv-x="611" d="M605 251 Q604 241 600.5 228.5 Q597 216 594 208 L203 208 Q200 187 208.5 167.5 Q217 148 234.5 133 Q252 118 276 109 Q300 100 330 100 Q368 100 402.5 115 Q437 130 464 154 L541 85 Q497 40 438.5 15 Q380 -10 314 -10 Q266 -10 220.5 6.5 Q175 23 142.5 56 Q110 89 93.5 139 Q77 189 86 256 Q94 311 119 359.5 Q144 408 183 444 Q222 480 272.5 501 Q323 522 381 522 Q439 522 485 501.5 Q531 481 560 444.5 Q589 408 601 358.5 Q613 309 605 251 Z M542 581 L233 581 L243 654 L552 654 L542 581 Z M367 416 Q335 416 308.5 405.5 Q282 395 262.5 379 Q243 363 231 343 Q219 323 217 304 L489 304 Q491 322 484.5 341.5 Q478 361 462 377.5 Q446 394 422 405 Q398 416 367 416 Z " />
<glyph glyph-name="eogonek" unicode="&#x119;" horiz-adv-x="611" d="M178 -76 Q182 -52 193.5 -31 Q205 -10 221 6 Q188 18 160 40 Q132 62 113 93 Q94 124 86.5 164.5 Q79 205 86 256 Q94 311 119 359.5 Q144 408 183 444 Q222 480 272.5 501 Q323 522 381 522 Q439 522 485 501.5 Q531 481 560 444.5 Q589 408 601 358.5 Q613 309 605 251 Q604 241 600.5 228.5 Q597 216 594 208 L203 208 Q200 187 208.5 167.5 Q217 148 234.5 133 Q252 118 276 109 Q300 100 330 100 Q368 100 402.5 115 Q437 130 464 154 L541 85 Q497 40 438.5 15 Q380 -10 314 -10 L308 -10 Q281 -12 262 -31 Q243 -50 239 -76 Q235 -104 251 -123 Q267 -142 295 -142 Q322 -142 343.5 -123 Q365 -104 369 -76 L430 -76 Q427 -102 413.5 -125 Q400 -148 380.5 -165 Q361 -182 337 -192 Q313 -202 287 -202 Q261 -202 239 -192 Q217 -182 202.5 -165 Q188 -148 181.5 -125 Q175 -102 178 -76 Z M367 416 Q335 416 308.5 405.5 Q282 395 262.5 379 Q243 363 231 343 Q219 323 217 304 L489 304 Q491 322 484.5 341.5 Q478 361 462 377.5 Q446 394 422 405 Q398 416 367 416 Z " />
<glyph glyph-name="fi" unicode="&#xfb01;" horiz-adv-x="695" d="M561 564 Q569 622 544 659 Q519 696 456 696 Q402 696 362.5 661 Q323 626 314 564 L307 512 L467 512 L452 407 L292 407 L235 0 L117 0 L174 407 L77 407 L92 512 L189 512 L196 564 Q204 616 228 660.5 Q252 705 288.5 738 Q325 771 372.5 789.5 Q420 808 474 808 Q529 808 571 789.5 Q613 771 640 738 Q667 705 678 660.5 Q689 616 681 564 L561 564 Z M674 512 L602 0 L482 0 L554 512 L674 512 Z " />
<glyph glyph-name="dotlessi" unicode="&#x131;" horiz-adv-x="305" d="M284 512 L212 0 L92 0 L164 512 L284 512 Z " />
<glyph glyph-name="iacute" unicode="&#xed;" horiz-adv-x="305" d="M284 512 L212 0 L92 0 L164 512 L284 512 Z M235 566 L208 597 L336 740 Q350 756 372.5 757 Q395 758 407 744 Q419 730 415 708 Q411 686 393 673 L235 566 Z " />
<glyph glyph-name="ibreve" unicode="&#x12d;" horiz-adv-x="305" d="M284 512 L212 0 L92 0 L164 512 L284 512 Z M133 696 L206 696 L203 676 Q200 657 211 644 Q222 631 241 631 Q260 631 274 644 Q288 657 291 676 L294 696 L367 696 L365 681 Q361 657 349 635.5 Q337 614 319 598 Q301 582 278 573 Q255 564 231 564 Q207 564 187 573 Q167 582 153 598 Q139 614 133 635.5 Q127 657 131 681 L133 696 Z " />
<glyph glyph-name="icircumflex" unicode="&#xee;" horiz-adv-x="305" d="M284 512 L212 0 L92 0 L164 512 L284 512 Z M243 657 L138 564 L101 606 L256 742 L373 606 L325 564 L243 657 Z " />
<glyph glyph-name="idieresis" unicode="&#xef;" horiz-adv-x="305" d="M284 512 L212 0 L92 0 L164 512 L284 512 Z M57 663 Q62 697 89.5 721 Q117 745 151 745 Q185 745 205.5 721 Q226 697 221 663 Q216 629 189 605 Q162 581 128 581 Q94 581 73 605 Q52 629 57 663 Z M270 663 Q275 697 302.5 721 Q330 745 364 745 Q398 745 418.5 721 Q439 697 434 663 Q429 629 402 605 Q375 581 341 581 Q307 581 286 605 Q265 629 270 663 Z " />
<glyph glyph-name="igrave" unicode="&#xec;" horiz-adv-x="305" d="M284 512 L212 0 L92 0 L164 512 L284 512 Z M102 673 Q86 686 89 708 Q92 730 108 744 Q124 758 145.5 757 Q167 756 177 740 L265 597 L229 566 L102 673 Z " />
<glyph glyph-name="imacron" unicode="&#x12b;" horiz-adv-x="305" d="M284 512 L212 0 L92 0 L164 512 L284 512 Z M389 581 L80 581 L90 654 L399 654 L389 581 Z " />
<glyph glyph-name="iogonek" unicode="&#x12f;" horiz-adv-x="305" d="M18 -66 Q23 -30 45 -1 Q67 28 98 44 L164 512 L284 512 L212 0 L147 0 Q121 -2 101 -21 Q81 -40 78 -66 Q74 -94 90 -113 Q106 -132 133 -132 Q160 -132 182.5 -113 Q205 -94 209 -66 L269 -66 Q265 -92 252 -115 Q239 -138 219.5 -155 Q200 -172 175.5 -182 Q151 -192 125 -192 Q99 -192 78 -182 Q57 -172 42.5 -155 Q28 -138 21 -115 Q14 -92 18 -66 Z M170 705 Q175 739 201.5 762.5 Q228 786 262 786 Q296 786 317 762.5 Q338 739 333 705 Q328 671 301 647 Q274 623 240 623 Q206 623 185.5 647 Q165 671 170 705 Z " />
<glyph glyph-name="itilde" unicode="&#x129;" horiz-adv-x="305" d="M284 512 L212 0 L92 0 L164 512 L284 512 Z M311 708 Q334 708 351 699.5 Q368 691 379.5 676.5 Q391 662 395.5 643 Q400 624 397 603 L332 603 Q335 623 327 635 Q319 647 302 647 Q288 647 276 638 Q264 629 250 618.5 Q236 608 219 599.5 Q202 591 177 591 Q154 591 136 599.5 Q118 608 107 622.5 Q96 637 91.5 655.5 Q87 674 90 695 L156 695 Q153 675 160.5 663 Q168 651 185 651 Q198 651 210 660 Q222 669 236 679.5 Q250 690 268 699 Q286 708 311 708 Z " />
<glyph glyph-name="ij" unicode="&#x133;" horiz-adv-x="627" d="M284 512 L212 0 L92 0 L164 512 L284 512 Z M170 705 Q175 739 201.5 762.5 Q228 786 262 786 Q296 786 317 762.5 Q338 739 333 705 Q328 671 301 647 Q274 623 240 623 Q206 623 185.5 647 Q165 671 170 705 Z M371 -255 L479 512 L597 512 L489 -255 L371 -255 Z M484 705 Q489 739 515.5 762.5 Q542 786 576 786 Q610 786 630.5 762.5 Q651 739 646 705 Q641 671 614.5 647 Q588 623 554 623 Q520 623 499.5 647 Q479 671 484 705 Z " />
<glyph glyph-name="lacute" unicode="&#x13a;" horiz-adv-x="284" d="M81 0 L189 768 L311 768 L203 0 L81 0 Z M261 789 L234 820 L362 963 Q377 979 399 980 Q421 981 433 967 Q445 953 441.5 931 Q438 909 419 896 L261 789 Z " />
<glyph glyph-name="lcaron" unicode="&#x13e;" horiz-adv-x="507" d="M81 0 L189 768 L311 768 L203 0 L81 0 Z M402 474 L461 572 Q434 578 418.5 600.5 Q403 623 407 653 Q412 687 438.5 711 Q465 735 499 735 Q522 735 538.5 724 Q555 713 562.5 695 Q570 677 568 655 Q566 633 553 611 L453 448 L402 474 Z " />
<glyph glyph-name="lcommaaccent" unicode="&#x13c;" horiz-adv-x="284" d="M81 0 L189 768 L311 768 L203 0 L81 0 Z M63 -236 L103 -170 Q85 -166 75 -152 Q65 -138 67 -118 Q71 -95 88.5 -79.5 Q106 -64 127 -64 Q142 -64 152.5 -71 Q163 -78 168.5 -89.5 Q174 -101 173 -115.5 Q172 -130 163 -145 L96 -253 L63 -236 Z " />
<glyph glyph-name="ldot" unicode="&#x140;" horiz-adv-x="472" d="M338 366 Q343 400 370.5 424 Q398 448 432 448 Q466 448 486.5 424 Q507 400 502 366 Q498 332 470.5 308 Q443 284 409 284 Q375 284 354.5 308 Q334 332 338 366 Z M81 0 L189 768 L311 768 L203 0 L81 0 Z " />
<glyph glyph-name="lslash" unicode="&#x142;" horiz-adv-x="284" d="M81 0 L122 293 L40 272 L31 341 L133 367 L189 768 L311 768 L259 399 L345 422 L355 353 L249 326 L203 0 L81 0 Z " />
<glyph glyph-name="kcommaaccent" unicode="&#x137;" horiz-adv-x="565" d="M307 768 L243 315 L335 315 L483 512 L615 512 L425 256 L543 0 L411 0 L319 197 L227 197 L199 0 L81 0 L189 768 L307 768 Z M203 -236 L243 -170 Q225 -166 215 -152 Q205 -138 207 -118 Q211 -95 228.5 -79.5 Q246 -64 268 -64 Q283 -64 293.5 -71 Q304 -78 309 -89.5 Q314 -101 313 -115.5 Q312 -130 303 -145 L236 -253 L203 -236 Z " />
<glyph glyph-name="hbar" unicode="&#x127;" horiz-adv-x="655" d="M594 0 L475 0 L512 266 Q516 294 509 319 Q502 344 486 363 Q470 382 446.5 392.5 Q423 403 395 403 Q367 403 340.5 392.5 Q314 382 292.5 363.5 Q271 345 256.5 320 Q242 295 239 267 L201 0 L81 0 L161 568 L78 546 L69 615 L171 641 L189 768 L309 768 L296 673 L384 696 L392 627 L285 599 L264 448 Q298 481 340.5 501 Q383 521 430 521 Q479 521 519.5 501 Q560 481 587 446.5 Q614 412 626.5 365 Q639 318 631 265 L594 0 Z " />
<glyph glyph-name="hcircumflex" unicode="&#x125;" horiz-adv-x="655" d="M594 0 L475 0 L512 266 Q516 294 509 319 Q502 344 486 363 Q470 382 446.5 392.5 Q423 403 395 403 Q367 403 340.5 392.5 Q314 382 292.5 363.5 Q271 345 256.5 320 Q242 295 239 267 L201 0 L81 0 L189 768 L309 768 L264 448 Q298 481 340.5 501 Q383 521 430 521 Q479 521 519.5 501 Q560 481 587 446.5 Q614 412 626.5 365 Q639 318 631 265 L594 0 Z M465 657 L360 564 L324 606 L479 742 L596 606 L547 564 L465 657 Z " />
<glyph glyph-name="dcaron" unicode="&#x10f;" horiz-adv-x="866" d="M86 256 Q93 309 118.5 356 Q144 403 181.5 437.5 Q219 472 267.5 492 Q316 512 370 512 Q413 512 448.5 495 Q484 478 506 450 L551 768 L669 768 L561 0 L443 0 L452 62 Q422 34 381.5 17 Q341 0 298 0 Q244 0 201.5 20 Q159 40 130.5 74.5 Q102 109 90.5 156 Q79 203 86 256 Z M498 256 Q502 287 494.5 313.5 Q487 340 470 360 Q453 380 428.5 391.5 Q404 403 373 403 Q342 403 313.5 391.5 Q285 380 262.5 360 Q240 340 224.5 313.5 Q209 287 205 256 Q201 225 208.5 198.5 Q216 172 233.5 152 Q251 132 275.5 120.5 Q300 109 331 109 Q362 109 390.5 120.5 Q419 132 441 152 Q463 172 478.5 198.5 Q494 225 498 256 Z M761 474 L820 572 Q792 578 776.5 600.5 Q761 623 765 653 Q770 687 797 711 Q824 735 858 735 Q881 735 897.5 724 Q914 713 921.5 695 Q929 677 927 655 Q925 633 911 611 L811 448 L761 474 Z " />
<glyph glyph-name="nacute" unicode="&#x144;" horiz-adv-x="652" d="M590 0 L472 0 L509 265 Q513 295 508.5 322.5 Q504 350 490.5 370 Q477 390 452.5 402 Q428 414 394 414 Q336 414 292 374 Q248 334 236 263 L199 0 L81 0 L153 512 L271 512 L262 446 Q276 461 295.5 474.5 Q315 488 338 498.5 Q361 509 386.5 515.5 Q412 522 438 522 Q487 522 526 504 Q565 486 590.5 452 Q616 418 625.5 369.5 Q635 321 627 261 L590 0 Z M413 566 L386 597 L514 740 Q528 756 550.5 757 Q573 758 585 744 Q597 730 593 708 Q589 686 571 673 L413 566 Z " />
<glyph glyph-name="napostrophe" unicode="&#x149;" horiz-adv-x="652" d="M590 0 L472 0 L509 265 Q513 295 508.5 322.5 Q504 350 490.5 370 Q477 390 452.5 402 Q428 414 394 414 Q336 414 292 374 Q248 334 236 263 L199 0 L81 0 L153 512 L271 512 L262 446 Q276 461 295.5 474.5 Q315 488 338 498.5 Q361 509 386.5 515.5 Q412 522 438 522 Q487 522 526 504 Q565 486 590.5 452 Q616 418 625.5 369.5 Q635 321 627 261 L590 0 Z M156 595 L215 693 Q187 699 171.5 721.5 Q156 744 160 774 Q165 808 192 832 Q219 856 253 856 Q276 856 292 845 Q308 834 315.5 816 Q323 798 321 776 Q319 754 306 732 L206 569 L156 595 Z " />
<glyph glyph-name="ncaron" unicode="&#x148;" horiz-adv-x="652" d="M590 0 L472 0 L509 265 Q513 295 508.5 322.5 Q504 350 490.5 370 Q477 390 452.5 402 Q428 414 394 414 Q336 414 292 374 Q248 334 236 263 L199 0 L81 0 L153 512 L271 512 L262 446 Q276 461 295.5 474.5 Q315 488 338 498.5 Q361 509 386.5 515.5 Q412 522 438 522 Q487 522 526 504 Q565 486 590.5 452 Q616 418 625.5 369.5 Q635 321 627 261 L590 0 Z M443 649 L548 742 L584 700 L429 564 L312 700 L361 742 L443 649 Z " />
<glyph glyph-name="ncommaaccent" unicode="&#x146;" horiz-adv-x="652" d="M590 0 L472 0 L509 265 Q513 295 508.5 322.5 Q504 350 490.5 370 Q477 390 452.5 402 Q428 414 394 414 Q336 414 292 374 Q248 334 236 263 L199 0 L81 0 L153 512 L271 512 L262 446 Q276 461 295.5 474.5 Q315 488 338 498.5 Q361 509 386.5 515.5 Q412 522 438 522 Q487 522 526 504 Q565 486 590.5 452 Q616 418 625.5 369.5 Q635 321 627 261 L590 0 Z M252 -236 L292 -170 Q274 -166 263.5 -152 Q253 -138 255 -118 Q259 -95 276.5 -79.5 Q294 -64 316 -64 Q331 -64 341.5 -71 Q352 -78 357.5 -89.5 Q363 -101 361.5 -115.5 Q360 -130 351 -145 L284 -253 L252 -236 Z " />
<glyph glyph-name="ntilde" unicode="&#xf1;" horiz-adv-x="652" d="M590 0 L472 0 L509 265 Q513 295 508.5 322.5 Q504 350 490.5 370 Q477 390 452.5 402 Q428 414 394 414 Q336 414 292 374 Q248 334 236 263 L199 0 L81 0 L153 512 L271 512 L262 446 Q276 461 295.5 474.5 Q315 488 338 498.5 Q361 509 386.5 515.5 Q412 522 438 522 Q487 522 526 504 Q565 486 590.5 452 Q616 418 625.5 369.5 Q635 321 627 261 L590 0 Z M489 708 Q512 708 529 699.5 Q546 691 557.5 676.5 Q569 662 574 643 Q579 624 576 603 L510 603 Q513 623 505 635 Q497 647 480 647 Q466 647 454 638 Q442 629 428 618.5 Q414 608 397 599.5 Q380 591 355 591 Q332 591 314 599.5 Q296 608 285 622.5 Q274 637 269.5 655.5 Q265 674 268 695 L334 695 Q331 675 338.5 663 Q346 651 363 651 Q376 651 388 660 Q400 669 414 679.5 Q428 690 446 699 Q464 708 489 708 Z " />
<glyph glyph-name="oacute" unicode="&#xf3;" horiz-adv-x="631" d="M86 256 Q94 311 121 359.5 Q148 408 189 444 Q230 480 281.5 500.5 Q333 521 388 521 Q443 521 488.5 500.5 Q534 480 565 444 Q596 408 610.5 359.5 Q625 311 617 256 Q609 200 581 151.5 Q553 103 512 67 Q471 31 420 10.5 Q369 -10 314 -10 Q259 -10 213 10.5 Q167 31 136 67 Q105 103 91.5 151.5 Q78 200 86 256 Z M202 256 Q197 224 205 196.5 Q213 169 230.5 149 Q248 129 273.5 117.5 Q299 106 330 106 Q361 106 390 117.5 Q419 129 442.5 149 Q466 169 481 196.5 Q496 224 501 256 Q505 288 497.5 315.5 Q490 343 472.5 363 Q455 383 429 394.5 Q403 406 372 406 Q341 406 312.5 394.5 Q284 383 260.5 363 Q237 343 221.5 315.5 Q206 288 202 256 Z M398 566 L371 597 L499 740 Q513 756 535.5 757 Q558 758 570 744 Q582 730 578 708 Q574 686 556 673 L398 566 Z " />
<glyph glyph-name="obreve" unicode="&#x14f;" horiz-adv-x="631" d="M86 256 Q94 311 121 359.5 Q148 408 189 444 Q230 480 281.5 500.5 Q333 521 388 521 Q443 521 488.5 500.5 Q534 480 565 444 Q596 408 610.5 359.5 Q625 311 617 256 Q609 200 581 151.5 Q553 103 512 67 Q471 31 420 10.5 Q369 -10 314 -10 Q259 -10 213 10.5 Q167 31 136 67 Q105 103 91.5 151.5 Q78 200 86 256 Z M202 256 Q197 224 205 196.5 Q213 169 230.5 149 Q248 129 273.5 117.5 Q299 106 330 106 Q361 106 390 117.5 Q419 129 442.5 149 Q466 169 481 196.5 Q496 224 501 256 Q505 288 497.5 315.5 Q490 343 472.5 363 Q455 383 429 394.5 Q403 406 372 406 Q341 406 312.5 394.5 Q284 383 260.5 363 Q237 343 221.5 315.5 Q206 288 202 256 Z M296 696 L369 696 L366 676 Q363 657 374.5 644 Q386 631 404 631 Q423 631 437.5 644 Q452 657 455 676 L458 696 L530 696 L528 681 Q524 657 512 635.5 Q500 614 482 598 Q464 582 441 573 Q418 564 394 564 Q370 564 350 573 Q330 582 316 598 Q302 614 296 635.5 Q290 657 294 681 L296 696 Z " />
<glyph glyph-name="ocircumflex" unicode="&#xf4;" horiz-adv-x="631" d="M86 256 Q94 311 121 359.5 Q148 408 189 444 Q230 480 281.5 500.5 Q333 521 388 521 Q443 521 488.5 500.5 Q534 480 565 444 Q596 408 610.5 359.5 Q625 311 617 256 Q609 200 581 151.5 Q553 103 512 67 Q471 31 420 10.5 Q369 -10 314 -10 Q259 -10 213 10.5 Q167 31 136 67 Q105 103 91.5 151.5 Q78 200 86 256 Z M202 256 Q197 224 205 196.5 Q213 169 230.5 149 Q248 129 273.5 117.5 Q299 106 330 106 Q361 106 390 117.5 Q419 129 442.5 149 Q466 169 481 196.5 Q496 224 501 256 Q505 288 497.5 315.5 Q490 343 472.5 363 Q455 383 429 394.5 Q403 406 372 406 Q341 406 312.5 394.5 Q284 383 260.5 363 Q237 343 221.5 315.5 Q206 288 202 256 Z M406 657 L301 564 L264 606 L419 742 L536 606 L488 564 L406 657 Z " />
<glyph glyph-name="odieresis" unicode="&#xf6;" horiz-adv-x="631" d="M86 256 Q94 311 121 359.5 Q148 408 189 444 Q230 480 281.5 500.5 Q333 521 388 521 Q443 521 488.5 500.5 Q534 480 565 444 Q596 408 610.5 359.5 Q625 311 617 256 Q609 200 581 151.5 Q553 103 512 67 Q471 31 420 10.5 Q369 -10 314 -10 Q259 -10 213 10.5 Q167 31 136 67 Q105 103 91.5 151.5 Q78 200 86 256 Z M202 256 Q197 224 205 196.5 Q213 169 230.5 149 Q248 129 273.5 117.5 Q299 106 330 106 Q361 106 390 117.5 Q419 129 442.5 149 Q466 169 481 196.5 Q496 224 501 256 Q505 288 497.5 315.5 Q490 343 472.5 363 Q455 383 429 394.5 Q403 406 372 406 Q341 406 312.5 394.5 Q284 383 260.5 363 Q237 343 221.5 315.5 Q206 288 202 256 Z M220 663 Q225 697 252.5 721 Q280 745 314 745 Q348 745 368.5 721 Q389 697 384 663 Q379 629 352 605 Q325 581 291 581 Q257 581 236 605 Q215 629 220 663 Z M433 663 Q438 697 465.5 721 Q493 745 527 745 Q561 745 581.5 721 Q602 697 597 663 Q592 629 565 605 Q538 581 504 581 Q470 581 449 605 Q428 629 433 663 Z " />
<glyph glyph-name="ograve" unicode="&#xf2;" horiz-adv-x="631" d="M86 256 Q94 311 121 359.5 Q148 408 189 444 Q230 480 281.5 500.5 Q333 521 388 521 Q443 521 488.5 500.5 Q534 480 565 444 Q596 408 610.5 359.5 Q625 311 617 256 Q609 200 581 151.5 Q553 103 512 67 Q471 31 420 10.5 Q369 -10 314 -10 Q259 -10 213 10.5 Q167 31 136 67 Q105 103 91.5 151.5 Q78 200 86 256 Z M202 256 Q197 224 205 196.5 Q213 169 230.5 149 Q248 129 273.5 117.5 Q299 106 330 106 Q361 106 390 117.5 Q419 129 442.5 149 Q466 169 481 196.5 Q496 224 501 256 Q505 288 497.5 315.5 Q490 343 472.5 363 Q455 383 429 394.5 Q403 406 372 406 Q341 406 312.5 394.5 Q284 383 260.5 363 Q237 343 221.5 315.5 Q206 288 202 256 Z M265 673 Q249 686 252 708 Q255 730 271 744 Q287 758 308.5 757 Q330 756 340 740 L428 597 L393 566 L265 673 Z " />
<glyph glyph-name="ohungarumlaut" unicode="&#x151;" horiz-adv-x="631" d="M86 256 Q94 311 121 359.5 Q148 408 189 444 Q230 480 281.5 500.5 Q333 521 388 521 Q443 521 488.5 500.5 Q534 480 565 444 Q596 408 610.5 359.5 Q625 311 617 256 Q609 200 581 151.5 Q553 103 512 67 Q471 31 420 10.5 Q369 -10 314 -10 Q259 -10 213 10.5 Q167 31 136 67 Q105 103 91.5 151.5 Q78 200 86 256 Z M202 256 Q197 224 205 196.5 Q213 169 230.5 149 Q248 129 273.5 117.5 Q299 106 330 106 Q361 106 390 117.5 Q419 129 442.5 149 Q466 169 481 196.5 Q496 224 501 256 Q505 288 497.5 315.5 Q490 343 472.5 363 Q455 383 429 394.5 Q403 406 372 406 Q341 406 312.5 394.5 Q284 383 260.5 363 Q237 343 221.5 315.5 Q206 288 202 256 Z M303 566 L276 597 L403 740 Q417 756 439.5 757 Q462 758 474 744 Q486 730 482 708 Q478 686 460 673 L303 566 Z M494 566 L467 597 L594 740 Q608 756 630.5 757 Q653 758 665 744 Q677 730 673 708 Q669 686 651 673 L494 566 Z " />
<glyph glyph-name="omacron" unicode="&#x14d;" horiz-adv-x="631" d="M86 256 Q94 311 121 359.5 Q148 408 189 444 Q230 480 281.5 500.5 Q333 521 388 521 Q443 521 488.5 500.5 Q534 480 565 444 Q596 408 610.5 359.5 Q625 311 617 256 Q609 200 581 151.5 Q553 103 512 67 Q471 31 420 10.5 Q369 -10 314 -10 Q259 -10 213 10.5 Q167 31 136 67 Q105 103 91.5 151.5 Q78 200 86 256 Z M202 256 Q197 224 205 196.5 Q213 169 230.5 149 Q248 129 273.5 117.5 Q299 106 330 106 Q361 106 390 117.5 Q419 129 442.5 149 Q466 169 481 196.5 Q496 224 501 256 Q505 288 497.5 315.5 Q490 343 472.5 363 Q455 383 429 394.5 Q403 406 372 406 Q341 406 312.5 394.5 Q284 383 260.5 363 Q237 343 221.5 315.5 Q206 288 202 256 Z M552 581 L243 581 L253 654 L562 654 L552 581 Z " />
<glyph glyph-name="gbreve" unicode="&#x11f;" horiz-adv-x="570" d="M124 334 Q130 376 151 413.5 Q172 451 203.5 478.5 Q235 506 274.5 522 Q314 538 356 538 Q400 538 435 521 Q470 504 494 474 Q525 494 556.5 503 Q588 512 623 512 L631 512 L616 407 L524 407 Q530 393 532 373 Q534 353 531 334 Q525 292 504 255 Q483 218 451.5 190.5 Q420 163 380 147 Q340 131 298 131 Q272 131 248.5 139.5 Q225 148 205 160 Q182 158 164.5 146 Q147 134 144 111 Q140 87 156.5 75.5 Q173 64 200 64 L345 64 Q439 64 485 21.5 Q531 -21 520 -99 Q509 -177 444 -221.5 Q379 -266 276 -266 Q222 -266 178 -252.5 Q134 -239 105 -215 Q76 -191 62.5 -159 Q49 -127 54 -90 L108 -48 Q62 -36 41 0 Q20 36 29 83 Q37 130 70.5 165.5 Q104 201 148 212 Q132 238 125.5 268.5 Q119 299 124 334 Z M236 334 Q231 296 253.5 269.5 Q276 243 314 243 Q333 243 350.5 250 Q368 257 382.5 269.5 Q397 282 406 298.5 Q415 315 418 334 Q423 372 400.5 398.5 Q378 425 340 425 Q321 425 303.5 418 Q286 411 271.5 398.5 Q257 386 248 369.5 Q239 353 236 334 Z M291 -156 Q340 -156 367 -142.5 Q394 -129 398 -99 Q401 -76 384 -62 Q367 -48 329 -48 L158 -48 Q155 -70 164 -89.5 Q173 -109 190.5 -124 Q208 -139 234 -147.5 Q260 -156 291 -156 Z M266 696 L339 696 L336 676 Q333 657 344 644 Q355 631 374 631 Q393 631 407 644 Q421 657 424 676 L427 696 L500 696 L498 681 Q494 657 482 635.5 Q470 614 452 598 Q434 582 411 573 Q388 564 364 564 Q340 564 320 573 Q300 582 286 598 Q272 614 266 635.5 Q260 657 264 681 L266 696 Z " />
<glyph glyph-name="gcircumflex" unicode="&#x11d;" horiz-adv-x="570" d="M124 334 Q130 376 151 413.5 Q172 451 203.5 478.5 Q235 506 274.5 522 Q314 538 356 538 Q400 538 435 521 Q470 504 494 474 Q525 494 556.5 503 Q588 512 623 512 L631 512 L616 407 L524 407 Q530 393 532 373 Q534 353 531 334 Q525 292 504 255 Q483 218 451.5 190.5 Q420 163 380 147 Q340 131 298 131 Q272 131 248.5 139.5 Q225 148 205 160 Q182 158 164.5 146 Q147 134 144 111 Q140 87 156.5 75.5 Q173 64 200 64 L345 64 Q439 64 485 21.5 Q531 -21 520 -99 Q509 -177 444 -221.5 Q379 -266 276 -266 Q222 -266 178 -252.5 Q134 -239 105 -215 Q76 -191 62.5 -159 Q49 -127 54 -90 L108 -48 Q62 -36 41 0 Q20 36 29 83 Q37 130 70.5 165.5 Q104 201 148 212 Q132 238 125.5 268.5 Q119 299 124 334 Z M236 334 Q231 296 253.5 269.5 Q276 243 314 243 Q333 243 350.5 250 Q368 257 382.5 269.5 Q397 282 406 298.5 Q415 315 418 334 Q423 372 400.5 398.5 Q378 425 340 425 Q321 425 303.5 418 Q286 411 271.5 398.5 Q257 386 248 369.5 Q239 353 236 334 Z M291 -156 Q340 -156 367 -142.5 Q394 -129 398 -99 Q401 -76 384 -62 Q367 -48 329 -48 L158 -48 Q155 -70 164 -89.5 Q173 -109 190.5 -124 Q208 -139 234 -147.5 Q260 -156 291 -156 Z M376 657 L270 564 L234 606 L389 742 L506 606 L457 564 L376 657 Z " />
<glyph glyph-name="gcommaaccent" unicode="&#x123;" horiz-adv-x="570" d="M124 334 Q130 376 151 413.5 Q172 451 203.5 478.5 Q235 506 274.5 522 Q314 538 356 538 Q400 538 435 521 Q470 504 494 474 Q525 494 556.5 503 Q588 512 623 512 L631 512 L616 407 L524 407 Q530 393 532 373 Q534 353 531 334 Q525 292 504 255 Q483 218 451.5 190.5 Q420 163 380 147 Q340 131 298 131 Q272 131 248.5 139.5 Q225 148 205 160 Q182 158 164.5 146 Q147 134 144 111 Q140 87 156.5 75.5 Q173 64 200 64 L345 64 Q439 64 485 21.5 Q531 -21 520 -99 Q509 -177 444 -221.5 Q379 -266 276 -266 Q222 -266 178 -252.5 Q134 -239 105 -215 Q76 -191 62.5 -159 Q49 -127 54 -90 L108 -48 Q62 -36 41 0 Q20 36 29 83 Q37 130 70.5 165.5 Q104 201 148 212 Q132 238 125.5 268.5 Q119 299 124 334 Z M236 334 Q231 296 253.5 269.5 Q276 243 314 243 Q333 243 350.5 250 Q368 257 382.5 269.5 Q397 282 406 298.5 Q415 315 418 334 Q423 372 400.5 398.5 Q378 425 340 425 Q321 425 303.5 418 Q286 411 271.5 398.5 Q257 386 248 369.5 Q239 353 236 334 Z M291 -156 Q340 -156 367 -142.5 Q394 -129 398 -99 Q401 -76 384 -62 Q367 -48 329 -48 L158 -48 Q155 -70 164 -89.5 Q173 -109 190.5 -124 Q208 -139 234 -147.5 Q260 -156 291 -156 Z M475 851 L415 753 Q443 747 459 724.5 Q475 702 470 672 Q466 638 438.5 614 Q411 590 377 590 Q354 590 337.5 601 Q321 612 313.5 630 Q306 648 307.5 670 Q309 692 323 714 L424 877 L475 851 Z " />
<glyph glyph-name="gdotaccent" unicode="&#x121;" horiz-adv-x="570" d="M124 334 Q130 376 151 413.5 Q172 451 203.5 478.5 Q235 506 274.5 522 Q314 538 356 538 Q400 538 435 521 Q470 504 494 474 Q525 494 556.5 503 Q588 512 623 512 L631 512 L616 407 L524 407 Q530 393 532 373 Q534 353 531 334 Q525 292 504 255 Q483 218 451.5 190.5 Q420 163 380 147 Q340 131 298 131 Q272 131 248.5 139.5 Q225 148 205 160 Q182 158 164.5 146 Q147 134 144 111 Q140 87 156.5 75.5 Q173 64 200 64 L345 64 Q439 64 485 21.5 Q531 -21 520 -99 Q509 -177 444 -221.5 Q379 -266 276 -266 Q222 -266 178 -252.5 Q134 -239 105 -215 Q76 -191 62.5 -159 Q49 -127 54 -90 L108 -48 Q62 -36 41 0 Q20 36 29 83 Q37 130 70.5 165.5 Q104 201 148 212 Q132 238 125.5 268.5 Q119 299 124 334 Z M236 334 Q231 296 253.5 269.5 Q276 243 314 243 Q333 243 350.5 250 Q368 257 382.5 269.5 Q397 282 406 298.5 Q415 315 418 334 Q423 372 400.5 398.5 Q378 425 340 425 Q321 425 303.5 418 Q286 411 271.5 398.5 Q257 386 248 369.5 Q239 353 236 334 Z M291 -156 Q340 -156 367 -142.5 Q394 -129 398 -99 Q401 -76 384 -62 Q367 -48 329 -48 L158 -48 Q155 -70 164 -89.5 Q173 -109 190.5 -124 Q208 -139 234 -147.5 Q260 -156 291 -156 Z M296 663 Q301 697 328.5 721 Q356 745 390 745 Q424 745 444.5 721 Q465 697 460 663 Q455 629 428 605 Q401 581 367 581 Q333 581 312 605 Q291 629 296 663 Z " />
<glyph glyph-name="racute" unicode="&#x155;" horiz-adv-x="382" d="M201 0 L81 0 L153 512 L256 512 L246 441 Q282 475 325 493.5 Q368 512 415 512 L444 512 L429 407 L400 407 Q368 407 340.5 396.5 Q313 386 292 367 Q271 348 256.5 321.5 Q242 295 238 264 L201 0 Z M234 566 L206 597 L334 740 Q348 756 370.5 757 Q393 758 405 744 Q417 730 413 708 Q409 686 391 673 L234 566 Z " />
<glyph glyph-name="rcaron" unicode="&#x159;" horiz-adv-x="382" d="M201 0 L81 0 L153 512 L256 512 L246 441 Q282 475 325 493.5 Q368 512 415 512 L444 512 L429 407 L400 407 Q368 407 340.5 396.5 Q313 386 292 367 Q271 348 256.5 321.5 Q242 295 238 264 L201 0 Z M292 649 L397 742 L434 700 L279 564 L162 700 L210 742 L292 649 Z " />
<glyph glyph-name="rcommaaccent" unicode="&#x157;" horiz-adv-x="382" d="M201 0 L81 0 L153 512 L256 512 L246 441 Q282 475 325 493.5 Q368 512 415 512 L444 512 L429 407 L400 407 Q368 407 340.5 396.5 Q313 386 292 367 Q271 348 256.5 321.5 Q242 295 238 264 L201 0 Z M66 -236 L105 -170 Q87 -166 77 -152 Q67 -138 69 -118 Q73 -95 90.5 -79.5 Q108 -64 130 -64 Q145 -64 155.5 -71 Q166 -78 171.5 -89.5 Q177 -101 175.5 -115.5 Q174 -130 165 -145 L98 -253 L66 -236 Z " />
<glyph glyph-name="sacute" unicode="&#x15b;" horiz-adv-x="534" d="M222 370 Q219 352 231.5 340 Q244 328 266 322 L380 293 Q455 273 485.5 233 Q516 193 508 135 Q503 103 487 75 Q471 47 442 26.5 Q413 6 372.5 -5.5 Q332 -17 280 -17 Q240 -17 204.5 -8.5 Q169 0 141 14.5 Q113 29 92.5 48 Q72 67 62 88 L161 151 Q180 122 217 105 Q254 88 294 88 Q335 88 359.5 101.5 Q384 115 387 135 Q389 151 379 164 Q369 177 341 185 L238 212 Q158 233 126.5 273.5 Q95 314 103 370 Q107 402 125.5 430.5 Q144 459 173.5 480.5 Q203 502 243.5 514.5 Q284 527 334 527 Q378 527 415.5 514 Q453 501 479.5 478 Q506 455 519 423 Q532 391 527 353 L409 353 Q410 366 404.5 379 Q399 392 387.5 402.5 Q376 413 359 419.5 Q342 426 320 426 Q273 426 249 408 Q225 390 222 370 Z M352 566 L325 597 L453 740 Q467 756 489.5 757 Q512 758 524 744 Q536 730 532 708 Q528 686 510 673 L352 566 Z " />
<glyph glyph-name="scaron" unicode="&#x161;" horiz-adv-x="534" d="M222 370 Q219 352 231.5 340 Q244 328 266 322 L380 293 Q455 273 485.5 233 Q516 193 508 135 Q503 103 487 75 Q471 47 442 26.5 Q413 6 372.5 -5.5 Q332 -17 280 -17 Q240 -17 204.5 -8.5 Q169 0 141 14.5 Q113 29 92.5 48 Q72 67 62 88 L161 151 Q180 122 217 105 Q254 88 294 88 Q335 88 359.5 101.5 Q384 115 387 135 Q389 151 379 164 Q369 177 341 185 L238 212 Q158 233 126.5 273.5 Q95 314 103 370 Q107 402 125.5 430.5 Q144 459 173.5 480.5 Q203 502 243.5 514.5 Q284 527 334 527 Q378 527 415.5 514 Q453 501 479.5 478 Q506 455 519 423 Q532 391 527 353 L409 353 Q410 366 404.5 379 Q399 392 387.5 402.5 Q376 413 359 419.5 Q342 426 320 426 Q273 426 249 408 Q225 390 222 370 Z M361 649 L467 742 L503 700 L348 564 L231 700 L280 742 L361 649 Z " />
<glyph glyph-name="scedilla" unicode="&#x15f;" horiz-adv-x="534" d="M222 370 Q219 352 231.5 340 Q244 328 266 322 L380 293 Q455 273 485.5 233 Q516 193 508 135 Q499 74 448.5 32 Q398 -10 304 -16 L300 -45 Q327 -54 342 -79 Q357 -104 353 -136 Q347 -176 315 -204 Q283 -232 243 -232 Q223 -232 207.5 -224.5 Q192 -217 179 -204 L228 -163 Q233 -167 238.5 -169.5 Q244 -172 252 -172 Q267 -172 279 -161.5 Q291 -151 293 -136 Q295 -121 286 -110.5 Q277 -100 262 -100 Q248 -100 235 -110 L198 -68 Q208 -60 218 -53.5 Q228 -47 240 -45 L244 -15 Q176 -7 128 21.5 Q80 50 62 88 L161 151 Q180 122 217 105 Q254 88 294 88 Q335 88 359.5 101.5 Q384 115 387 135 Q389 151 379 164 Q369 177 341 185 L238 212 Q158 233 126.5 273.5 Q95 314 103 370 Q107 402 125.5 430.5 Q144 459 173.5 480.5 Q203 502 243.5 514.5 Q284 527 334 527 Q378 527 415.5 514 Q453 501 479.5 478 Q506 455 519 423 Q532 391 527 353 L409 353 Q410 366 404.5 379 Q399 392 387.5 402.5 Q376 413 359 419.5 Q342 426 320 426 Q273 426 249 408 Q225 390 222 370 Z " />
<glyph glyph-name="scircumflex" unicode="&#x15d;" horiz-adv-x="534" d="M222 370 Q219 352 231.5 340 Q244 328 266 322 L380 293 Q455 273 485.5 233 Q516 193 508 135 Q503 103 487 75 Q471 47 442 26.5 Q413 6 372.5 -5.5 Q332 -17 280 -17 Q240 -17 204.5 -8.5 Q169 0 141 14.5 Q113 29 92.5 48 Q72 67 62 88 L161 151 Q180 122 217 105 Q254 88 294 88 Q335 88 359.5 101.5 Q384 115 387 135 Q389 151 379 164 Q369 177 341 185 L238 212 Q158 233 126.5 273.5 Q95 314 103 370 Q107 402 125.5 430.5 Q144 459 173.5 480.5 Q203 502 243.5 514.5 Q284 527 334 527 Q378 527 415.5 514 Q453 501 479.5 478 Q506 455 519 423 Q532 391 527 353 L409 353 Q410 366 404.5 379 Q399 392 387.5 402.5 Q376 413 359 419.5 Q342 426 320 426 Q273 426 249 408 Q225 390 222 370 Z M360 657 L255 564 L218 606 L373 742 L490 606 L442 564 L360 657 Z " />
<glyph glyph-name="scommaaccent" unicode="&#x219;" horiz-adv-x="534" d="M222 370 Q219 352 231.5 340 Q244 328 266 322 L380 293 Q455 273 485.5 233 Q516 193 508 135 Q503 103 487 75 Q471 47 442 26.5 Q413 6 372.5 -5.5 Q332 -17 280 -17 Q240 -17 204.5 -8.5 Q169 0 141 14.5 Q113 29 92.5 48 Q72 67 62 88 L161 151 Q180 122 217 105 Q254 88 294 88 Q335 88 359.5 101.5 Q384 115 387 135 Q389 151 379 164 Q369 177 341 185 L238 212 Q158 233 126.5 273.5 Q95 314 103 370 Q107 402 125.5 430.5 Q144 459 173.5 480.5 Q203 502 243.5 514.5 Q284 527 334 527 Q378 527 415.5 514 Q453 501 479.5 478 Q506 455 519 423 Q532 391 527 353 L409 353 Q410 366 404.5 379 Q399 392 387.5 402.5 Q376 413 359 419.5 Q342 426 320 426 Q273 426 249 408 Q225 390 222 370 Z M191 -236 L230 -170 Q212 -166 202 -152 Q192 -138 194 -118 Q198 -95 215.5 -79.5 Q233 -64 255 -64 Q270 -64 280.5 -71 Q291 -78 296.5 -89.5 Q302 -101 300.5 -115.5 Q299 -130 290 -145 L223 -253 L191 -236 Z " />
<glyph glyph-name="tbar" unicode="&#x167;" horiz-adv-x="377" d="M128 0 L158 211 L71 188 L62 257 L168 284 L185 407 L67 407 L82 512 L200 512 L218 640 L338 640 L320 512 L438 512 L423 407 L305 407 L292 316 L377 338 L386 269 L282 242 L248 0 L128 0 Z " />
<glyph glyph-name="tcaron" unicode="&#x165;" horiz-adv-x="601" d="M128 0 L185 407 L67 407 L82 512 L200 512 L218 640 L338 640 L320 512 L438 512 L423 407 L305 407 L248 0 L128 0 Z M496 474 L555 572 Q527 578 511.5 600.5 Q496 623 500 653 Q505 687 532 711 Q559 735 593 735 Q616 735 632 724 Q648 713 655.5 695 Q663 677 661 655 Q659 633 646 611 L546 448 L496 474 Z " />
<glyph glyph-name="tcommaaccent" unicode="&#x163;" horiz-adv-x="377" d="M128 0 L185 407 L67 407 L82 512 L200 512 L218 640 L338 640 L320 512 L438 512 L423 407 L305 407 L248 0 L128 0 Z M110 -236 L150 -170 Q132 -166 121.5 -152 Q111 -138 113 -118 Q117 -95 134.5 -79.5 Q152 -64 174 -64 Q197 -64 209.5 -80 Q222 -96 218 -118 Q216 -126 214 -132.5 Q212 -139 207 -147 L142 -253 L110 -236 Z " />
<glyph glyph-name="uacute" unicode="&#xfa;" horiz-adv-x="652" d="M133 512 L252 512 L215 247 Q210 217 215 189.5 Q220 162 233.5 142 Q247 122 271 110 Q295 98 330 98 Q387 98 431.5 138 Q476 178 488 249 L525 512 L643 512 L571 0 L453 0 L462 66 Q448 51 428.5 37.5 Q409 24 385.5 13.5 Q362 3 337 -3.5 Q312 -10 286 -10 Q237 -10 198 8 Q159 26 133.5 60 Q108 94 98 142.5 Q88 191 96 251 L133 512 Z M384 566 L357 597 L485 740 Q499 756 521.5 757 Q544 758 556 744 Q568 730 564 708 Q560 686 542 673 L384 566 Z " />
<glyph glyph-name="ubreve" unicode="&#x16d;" horiz-adv-x="652" d="M133 512 L252 512 L215 247 Q210 217 215 189.5 Q220 162 233.5 142 Q247 122 271 110 Q295 98 330 98 Q387 98 431.5 138 Q476 178 488 249 L525 512 L643 512 L571 0 L453 0 L462 66 Q448 51 428.5 37.5 Q409 24 385.5 13.5 Q362 3 337 -3.5 Q312 -10 286 -10 Q237 -10 198 8 Q159 26 133.5 60 Q108 94 98 142.5 Q88 191 96 251 L133 512 Z M302 696 L375 696 L372 676 Q369 657 380.5 644 Q392 631 410 631 Q429 631 443.5 644 Q458 657 461 676 L464 696 L536 696 L534 681 Q530 657 518 635.5 Q506 614 488 598 Q470 582 447 573 Q424 564 400 564 Q376 564 356 573 Q336 582 322 598 Q308 614 302 635.5 Q296 657 300 681 L302 696 Z " />
<glyph glyph-name="ucircumflex" unicode="&#xfb;" horiz-adv-x="652" d="M133 512 L252 512 L215 247 Q210 217 215 189.5 Q220 162 233.5 142 Q247 122 271 110 Q295 98 330 98 Q387 98 431.5 138 Q476 178 488 249 L525 512 L643 512 L571 0 L453 0 L462 66 Q448 51 428.5 37.5 Q409 24 385.5 13.5 Q362 3 337 -3.5 Q312 -10 286 -10 Q237 -10 198 8 Q159 26 133.5 60 Q108 94 98 142.5 Q88 191 96 251 L133 512 Z M412 657 L307 564 L270 606 L425 742 L542 606 L494 564 L412 657 Z " />
<glyph glyph-name="udieresis" unicode="&#xfc;" horiz-adv-x="652" d="M133 512 L252 512 L215 247 Q210 217 215 189.5 Q220 162 233.5 142 Q247 122 271 110 Q295 98 330 98 Q387 98 431.5 138 Q476 178 488 249 L525 512 L643 512 L571 0 L453 0 L462 66 Q448 51 428.5 37.5 Q409 24 385.5 13.5 Q362 3 337 -3.5 Q312 -10 286 -10 Q237 -10 198 8 Q159 26 133.5 60 Q108 94 98 142.5 Q88 191 96 251 L133 512 Z M226 663 Q231 697 258.5 721 Q286 745 320 745 Q354 745 374.5 721 Q395 697 390 663 Q385 629 358 605 Q331 581 297 581 Q263 581 242 605 Q221 629 226 663 Z M439 663 Q444 697 471.5 721 Q499 745 533 745 Q567 745 587.5 721 Q608 697 603 663 Q598 629 571 605 Q544 581 510 581 Q476 581 455 605 Q434 629 439 663 Z " />
<glyph glyph-name="uhungarumlaut" unicode="&#x171;" horiz-adv-x="652" d="M133 512 L252 512 L215 247 Q210 217 215 189.5 Q220 162 233.5 142 Q247 122 271 110 Q295 98 330 98 Q387 98 431.5 138 Q476 178 488 249 L525 512 L643 512 L571 0 L453 0 L462 66 Q448 51 428.5 37.5 Q409 24 385.5 13.5 Q362 3 337 -3.5 Q312 -10 286 -10 Q237 -10 198 8 Q159 26 133.5 60 Q108 94 98 142.5 Q88 191 96 251 L133 512 Z M289 566 L262 597 L389 740 Q403 756 425.5 757 Q448 758 460 744 Q472 730 468 708 Q464 686 446 673 L289 566 Z M480 566 L453 597 L580 740 Q594 756 616.5 757 Q639 758 651 744 Q663 730 659 708 Q655 686 637 673 L480 566 Z " />
<glyph glyph-name="ugrave" unicode="&#xf9;" horiz-adv-x="652" d="M133 512 L252 512 L215 247 Q210 217 215 189.5 Q220 162 233.5 142 Q247 122 271 110 Q295 98 330 98 Q387 98 431.5 138 Q476 178 488 249 L525 512 L643 512 L571 0 L453 0 L462 66 Q448 51 428.5 37.5 Q409 24 385.5 13.5 Q362 3 337 -3.5 Q312 -10 286 -10 Q237 -10 198 8 Q159 26 133.5 60 Q108 94 98 142.5 Q88 191 96 251 L133 512 Z M291 673 Q275 686 278 708 Q281 730 297 744 Q313 758 334.5 757 Q356 756 366 740 L454 597 L419 566 L291 673 Z " />
<glyph glyph-name="umacron" unicode="&#x16b;" horiz-adv-x="652" d="M133 512 L252 512 L215 247 Q210 217 215 189.5 Q220 162 233.5 142 Q247 122 271 110 Q295 98 330 98 Q387 98 431.5 138 Q476 178 488 249 L525 512 L643 512 L571 0 L453 0 L462 66 Q448 51 428.5 37.5 Q409 24 385.5 13.5 Q362 3 337 -3.5 Q312 -10 286 -10 Q237 -10 198 8 Q159 26 133.5 60 Q108 94 98 142.5 Q88 191 96 251 L133 512 Z M558 581 L249 581 L259 654 L568 654 L558 581 Z " />
<glyph glyph-name="uogonek" unicode="&#x173;" horiz-adv-x="652" d="M150 -76 Q154 -51 166 -29.5 Q178 -8 195 9 Q139 36 111.5 98.5 Q84 161 96 251 L133 512 L252 512 L215 247 Q210 217 215 189.5 Q220 162 233.5 142 Q247 122 271 110 Q295 98 330 98 Q388 98 432 138 Q476 178 488 249 L525 512 L643 512 L571 0 L453 0 L462 66 Q433 36 386 13 Q339 -10 286 -10 L280 -10 Q253 -12 234 -31 Q215 -50 211 -76 Q207 -104 223 -123 Q239 -142 267 -142 Q294 -142 315.5 -123 Q337 -104 341 -76 L402 -76 Q399 -102 385.5 -125 Q372 -148 352.5 -165 Q333 -182 309 -192 Q285 -202 259 -202 Q233 -202 211 -192 Q189 -182 174.5 -165 Q160 -148 153.5 -125 Q147 -102 150 -76 Z " />
<glyph glyph-name="uring" unicode="&#x16f;" horiz-adv-x="652" d="M133 512 L252 512 L215 247 Q210 217 215 189.5 Q220 162 233.5 142 Q247 122 271 110 Q295 98 330 98 Q387 98 431.5 138 Q476 178 488 249 L525 512 L643 512 L571 0 L453 0 L462 66 Q448 51 428.5 37.5 Q409 24 385.5 13.5 Q362 3 337 -3.5 Q312 -10 286 -10 Q237 -10 198 8 Q159 26 133.5 60 Q108 94 98 142.5 Q88 191 96 251 L133 512 Z M319 672 Q325 712 357 740 Q389 768 429 768 Q469 768 493 740 Q517 712 511 672 Q506 632 474 604 Q442 576 402 576 Q362 576 338 604 Q314 632 319 672 Z M380 672 Q378 657 386.5 646.5 Q395 636 410 636 Q426 636 437.5 646.5 Q449 657 451 672 Q454 687 445.5 697.5 Q437 708 421 708 Q406 708 394.5 697.5 Q383 687 380 672 Z " />
<glyph glyph-name="utilde" unicode="&#x169;" horiz-adv-x="652" d="M133 512 L252 512 L215 247 Q210 217 215 189.5 Q220 162 233.5 142 Q247 122 271 110 Q295 98 330 98 Q387 98 431.5 138 Q476 178 488 249 L525 512 L643 512 L571 0 L453 0 L462 66 Q448 51 428.5 37.5 Q409 24 385.5 13.5 Q362 3 337 -3.5 Q312 -10 286 -10 Q237 -10 198 8 Q159 26 133.5 60 Q108 94 98 142.5 Q88 191 96 251 L133 512 Z M480 708 Q503 708 520 699.5 Q537 691 548.5 676.5 Q560 662 565 643 Q570 624 567 603 L501 603 Q504 623 496 635 Q488 647 471 647 Q457 647 445 638 Q433 629 419 618.5 Q405 608 388 599.5 Q371 591 346 591 Q323 591 305 599.5 Q287 608 276 622.5 Q265 637 260.5 655.5 Q256 674 259 695 L325 695 Q322 675 329.5 663 Q337 651 354 651 Q367 651 379 660 Q391 669 405 679.5 Q419 690 437 699 Q455 708 480 708 Z " />
<glyph glyph-name="wacute" unicode="&#x1e83;" horiz-adv-x="786" d="M569 109 L575 109 L714 512 L841 512 L652 0 L475 0 L442 315 L432 315 L311 0 L134 0 L89 512 L216 512 L241 109 L247 109 L402 512 L528 512 L569 109 Z M476 566 L449 597 L576 740 Q591 756 613 757 Q635 758 647 744 Q659 730 655 708 Q651 686 634 673 L476 566 Z " />
<glyph glyph-name="wcircumflex" unicode="&#x175;" horiz-adv-x="786" d="M569 109 L575 109 L714 512 L841 512 L652 0 L475 0 L442 315 L432 315 L311 0 L134 0 L89 512 L216 512 L241 109 L247 109 L402 512 L528 512 L569 109 Z M484 657 L379 564 L342 606 L497 742 L614 606 L566 564 L484 657 Z " />
<glyph glyph-name="wdieresis" unicode="&#x1e85;" horiz-adv-x="786" d="M569 109 L575 109 L714 512 L841 512 L652 0 L475 0 L442 315 L432 315 L311 0 L134 0 L89 512 L216 512 L241 109 L247 109 L402 512 L528 512 L569 109 Z M298 663 Q303 697 330 721 Q357 745 392 745 Q426 745 446 721 Q466 697 461 663 Q456 629 429.5 605 Q403 581 369 581 Q334 581 313.5 605 Q293 629 298 663 Z M511 663 Q516 697 543 721 Q570 745 605 745 Q639 745 659 721 Q679 697 674 663 Q669 629 642.5 605 Q616 581 582 581 Q547 581 526.5 605 Q506 629 511 663 Z " />
<glyph glyph-name="wgrave" unicode="&#x1e81;" horiz-adv-x="786" d="M569 109 L575 109 L714 512 L841 512 L652 0 L475 0 L442 315 L432 315 L311 0 L134 0 L89 512 L216 512 L241 109 L247 109 L402 512 L528 512 L569 109 Z M343 673 Q327 686 330 708 Q333 730 349 744 Q365 758 386.5 757 Q408 756 418 740 L505 597 L470 566 L343 673 Z " />
<glyph glyph-name="yacute" unicode="&#xfd;" horiz-adv-x="572" d="M306 124 L494 512 L627 512 L339 -47 L310 -256 L192 -256 L221 -50 L89 512 L223 512 L301 124 L306 124 Z M358 566 L331 597 L459 740 Q473 756 495.5 757 Q518 758 530 744 Q542 730 538 708 Q534 686 516 673 L358 566 Z " />
<glyph glyph-name="ycircumflex" unicode="&#x177;" horiz-adv-x="572" d="M306 124 L494 512 L627 512 L339 -47 L310 -256 L192 -256 L221 -50 L89 512 L223 512 L301 124 L306 124 Z M377 657 L271 564 L235 606 L390 742 L507 606 L458 564 L377 657 Z " />
<glyph glyph-name="ydieresis" unicode="&#xff;" horiz-adv-x="572" d="M306 124 L494 512 L627 512 L339 -47 L310 -256 L192 -256 L221 -50 L89 512 L223 512 L301 124 L306 124 Z M190 663 Q195 697 222.5 721 Q250 745 284 745 Q318 745 338.5 721 Q359 697 354 663 Q349 629 322 605 Q295 581 261 581 Q227 581 206 605 Q185 629 190 663 Z M403 663 Q408 697 435.5 721 Q463 745 497 745 Q531 745 551.5 721 Q572 697 567 663 Q562 629 535 605 Q508 581 474 581 Q440 581 419 605 Q398 629 403 663 Z " />
<glyph glyph-name="ygrave" unicode="&#x1ef3;" horiz-adv-x="572" d="M306 124 L494 512 L627 512 L339 -47 L310 -256 L192 -256 L221 -50 L89 512 L223 512 L301 124 L306 124 Z M245 673 Q229 686 232 708 Q235 730 251 744 Q267 758 288.5 757 Q310 756 320 740 L408 597 L373 566 L245 673 Z " />
<glyph glyph-name="oslashacute" unicode="&#x1ff;" horiz-adv-x="631" d="M86 256 Q94 311 121 359.5 Q148 408 189 444 Q230 480 281.5 500.5 Q333 521 388 521 Q431 521 468 509 Q505 497 534 474 L584 518 L640 451 L591 408 Q609 375 616 336.5 Q623 298 617 256 Q609 200 581 151.5 Q553 103 512 67 Q471 31 420 10.5 Q369 -10 314 -10 Q228 -10 169 38 L119 -6 L63 61 L112 104 Q93 136 86.5 174.5 Q80 213 86 256 Z M330 106 Q361 106 390 117.5 Q419 129 442.5 149 Q466 169 481 196.5 Q496 224 501 256 Q504 274 501.5 290.5 Q499 307 493 322 L265 122 Q295 106 330 106 Z M202 256 Q197 221 209 189 L437 389 Q410 406 372 406 Q341 406 312.5 394.5 Q284 383 260.5 363 Q237 343 221.5 315.5 Q206 288 202 256 Z M398 566 L371 597 L499 740 Q513 756 535.5 757 Q558 758 570 744 Q582 730 578 708 Q574 686 556 673 L398 566 Z " />
<glyph glyph-name="otilde" unicode="&#xf5;" horiz-adv-x="631" d="M86 256 Q94 311 121 359.5 Q148 408 189 444 Q230 480 281.5 500.5 Q333 521 388 521 Q443 521 488.5 500.5 Q534 480 565 444 Q596 408 610.5 359.5 Q625 311 617 256 Q609 200 581 151.5 Q553 103 512 67 Q471 31 420 10.5 Q369 -10 314 -10 Q259 -10 213 10.5 Q167 31 136 67 Q105 103 91.5 151.5 Q78 200 86 256 Z M202 256 Q197 224 205 196.5 Q213 169 230.5 149 Q248 129 273.5 117.5 Q299 106 330 106 Q361 106 390 117.5 Q419 129 442.5 149 Q466 169 481 196.5 Q496 224 501 256 Q505 288 497.5 315.5 Q490 343 472.5 363 Q455 383 429 394.5 Q403 406 372 406 Q341 406 312.5 394.5 Q284 383 260.5 363 Q237 343 221.5 315.5 Q206 288 202 256 Z M474 708 Q497 708 514 699.5 Q531 691 542.5 676.5 Q554 662 559 643 Q564 624 561 603 L495 603 Q498 623 490 635 Q482 647 465 647 Q451 647 439 638 Q427 629 413 618.5 Q399 608 382 599.5 Q365 591 340 591 Q317 591 299 599.5 Q281 608 270 622.5 Q259 637 254.5 655.5 Q250 674 253 695 L319 695 Q316 675 323.5 663 Q331 651 348 651 Q361 651 373 660 Q385 669 399 679.5 Q413 690 431 699 Q449 708 474 708 Z " />
<glyph glyph-name="approxequal" unicode="&#x2248;" horiz-adv-x="571" d="M433 447 Q466 447 491.5 434.5 Q517 422 533.5 400.5 Q550 379 557.5 351.5 Q565 324 560 294 L465 294 Q469 323 457 341 Q445 359 420 359 Q400 359 383 346 Q366 333 345.5 317 Q325 301 300 288 Q275 275 239 275 Q205 275 178.5 287.5 Q152 300 135.5 321 Q119 342 112.5 370 Q106 398 110 428 L205 428 Q201 399 213 381 Q225 363 251 363 Q270 363 287.5 376 Q305 389 325 405 Q345 421 371 434 Q397 447 433 447 Z M403 227 Q436 227 461.5 214.5 Q487 202 503.5 180.5 Q520 159 527.5 131.5 Q535 104 530 74 L435 74 Q439 103 427.5 121 Q416 139 391 139 Q371 139 353.5 126 Q336 113 315.5 97 Q295 81 270 68 Q245 55 209 55 Q175 55 148.5 67.5 Q122 80 105.5 101 Q89 122 82.5 150 Q76 178 80 208 L175 208 Q171 179 183 161 Q195 143 221 143 Q240 143 257.5 156 Q275 169 295 185 Q315 201 341 214 Q367 227 403 227 Z " />
<glyph glyph-name="fraction" unicode="&#x2044;" horiz-adv-x="845" d="M816 741 L887 658 L132 -4 L61 80 L816 741 Z " />
<glyph glyph-name="section" unicode="&#xa7;" horiz-adv-x="551" d="M263 612 Q260 593 273 581 Q286 569 309 562 L428 531 Q506 511 538.5 468.5 Q571 426 562 366 Q558 333 540.5 304 Q523 275 492 254 Q541 212 531 139 Q526 106 508.5 77 Q491 48 461 26.5 Q431 5 388.5 -7.5 Q346 -20 291 -20 Q249 -20 212 -11 Q175 -2 145.5 13 Q116 28 95 48 Q74 68 63 90 L167 157 Q186 125 225.5 107.5 Q265 90 307 90 Q349 90 374.5 104.5 Q400 119 403 139 Q405 156 395 170 Q385 184 355 192 L248 221 Q163 243 130 285.5 Q97 328 105 386 Q110 418 128 447 Q146 476 178 498 Q152 520 142 548.5 Q132 577 137 612 Q142 645 160.5 675 Q179 705 210 727.5 Q241 750 283.5 763.5 Q326 777 379 777 Q425 777 464.5 763.5 Q504 750 532.5 725.5 Q561 701 574.5 667.5 Q588 634 582 594 L458 594 Q460 608 454 621.5 Q448 635 435.5 646 Q423 657 405 664 Q387 671 364 671 Q315 671 290.5 652.5 Q266 634 263 612 Z M231 386 Q229 368 241.5 355.5 Q254 343 277 336 L351 316 Q389 318 410.5 332 Q432 346 434 366 Q437 383 427 396.5 Q417 410 387 418 L300 441 Q269 435 251.5 419.5 Q234 404 231 386 Z " />
<glyph glyph-name="Eng" unicode="&#x14a;" horiz-adv-x="802" d="M447 0 Q443 -32 461.5 -54 Q480 -76 512 -76 Q544 -76 569.5 -54 Q595 -32 599 0 L613 97 L271 464 L206 0 L81 0 L184 730 L195 735 L634 270 L699 735 L824 735 L721 0 Q715 -41 694.5 -77 Q674 -113 643.5 -140 Q613 -167 574.5 -182.5 Q536 -198 495 -198 Q454 -198 420.5 -182.5 Q387 -167 363.5 -140 Q340 -113 329.5 -77 Q319 -41 325 0 L447 0 Z " />
<glyph glyph-name="eng" unicode="&#x14b;" horiz-adv-x="661" d="M321 -77 Q317 -106 334.5 -127 Q352 -148 381 -148 Q410 -148 433.5 -127.5 Q457 -107 461 -77 L509 265 Q513 295 508.5 322.5 Q504 350 490.5 370 Q477 390 452.5 402 Q428 414 394 414 Q336 414 292 374 Q248 334 236 263 L199 0 L81 0 L153 512 L271 512 L262 446 Q276 461 295.5 474.5 Q315 488 338 498.5 Q361 509 386.5 515.5 Q412 522 438 522 Q487 522 526 504 Q565 486 590.5 452 Q616 418 625.5 369.5 Q635 321 627 261 L579 -77 Q574 -117 554 -151.5 Q534 -186 505 -211.5 Q476 -237 440 -251.5 Q404 -266 365 -266 Q326 -266 293.5 -251 Q261 -236 239 -210.5 Q217 -185 207.5 -150.5 Q198 -116 203 -77 L321 -77 Z " />
<glyph glyph-name="Eth" unicode="&#xd0;" horiz-adv-x="699" d="M90 0 L131 294 L46 272 L37 341 L142 368 L193 735 L403 735 Q479 735 541.5 706 Q604 677 647 627 Q690 577 709.5 510.5 Q729 444 719 368 Q708 292 669.5 225 Q631 158 574 108 Q517 58 446.5 29 Q376 0 300 0 L90 0 Z M351 422 L361 353 L263 328 L234 118 L310 118 Q363 118 411 137.5 Q459 157 497 190.5 Q535 224 560.5 269.5 Q586 315 594 368 Q601 421 588 466.5 Q575 512 546 545.5 Q517 579 474.5 598 Q432 617 380 617 L304 617 L273 402 L351 422 Z " />
<glyph glyph-name="Dcroat" unicode="&#x110;" horiz-adv-x="699" d="M90 0 L131 294 L46 272 L37 341 L142 368 L193 735 L403 735 Q479 735 541.5 706 Q604 677 647 627 Q690 577 709.5 510.5 Q729 444 719 368 Q708 292 669.5 225 Q631 158 574 108 Q517 58 446.5 29 Q376 0 300 0 L90 0 Z M351 422 L361 353 L263 328 L234 118 L310 118 Q363 118 411 137.5 Q459 157 497 190.5 Q535 224 560.5 269.5 Q586 315 594 368 Q601 421 588 466.5 Q575 512 546 545.5 Q517 579 474.5 598 Q432 617 380 617 L304 617 L273 402 L351 422 Z " />
<glyph glyph-name="dcroat" unicode="&#x111;" horiz-adv-x="642" d="M86 256 Q93 309 118.5 356 Q144 403 181.5 437.5 Q219 472 267.5 492 Q316 512 370 512 Q413 512 448.5 495 Q484 478 506 450 L523 568 L437 546 L427 615 L533 642 L551 768 L669 768 L656 674 L742 696 L751 627 L645 600 L561 0 L443 0 L452 62 Q422 34 381.5 17 Q341 0 298 0 Q244 0 201.5 20 Q159 40 130.5 74.5 Q102 109 90.5 156 Q79 203 86 256 Z M498 256 Q502 287 494.5 313.5 Q487 340 470 360 Q453 380 428.5 391.5 Q404 403 373 403 Q342 403 313.5 391.5 Q285 380 262.5 360 Q240 340 224.5 313.5 Q209 287 205 256 Q201 225 208.5 198.5 Q216 172 233.5 152 Q251 132 275.5 120.5 Q300 109 331 109 Q362 109 390.5 120.5 Q419 132 441 152 Q463 172 478.5 198.5 Q494 225 498 256 Z " />
<glyph glyph-name="zacute" unicode="&#x17a;" horiz-adv-x="506" d="M471 105 L456 0 L60 0 L49 25 L336 407 L118 407 L133 512 L519 512 L529 487 L243 105 L471 105 Z M336 566 L309 597 L436 740 Q451 756 473 757 Q495 758 507 744 Q519 730 515 708 Q511 686 494 673 L336 566 Z " />
<glyph glyph-name="zcaron" unicode="&#x17e;" horiz-adv-x="506" d="M471 105 L456 0 L60 0 L49 25 L336 407 L118 407 L133 512 L519 512 L529 487 L243 105 L471 105 Z M345 649 L451 742 L487 700 L332 564 L215 700 L264 742 L345 649 Z " />
<glyph glyph-name="zdotaccent" unicode="&#x17c;" horiz-adv-x="506" d="M471 105 L456 0 L60 0 L49 25 L336 407 L118 407 L133 512 L519 512 L529 487 L243 105 L471 105 Z M264 663 Q269 697 296.5 721 Q324 745 358 745 Q392 745 412.5 721 Q433 697 428 663 Q423 629 396 605 Q369 581 335 581 Q301 581 280 605 Q259 629 264 663 Z " />
<glyph glyph-name="Thorn" unicode="&#xde;" horiz-adv-x="613" d="M222 111 L206 0 L81 0 L184 735 L309 735 L293 620 L427 620 Q480 620 524 600 Q568 580 597.5 545.5 Q627 511 640.5 465 Q654 419 646 366 Q639 313 612.5 266.5 Q586 220 546.5 185.5 Q507 151 458 131 Q409 111 356 111 L222 111 Z M362 220 Q392 220 420.5 231.5 Q449 243 471.5 262.5 Q494 282 509 309 Q524 336 528 366 Q533 396 525 422.5 Q517 449 500.5 468.5 Q484 488 458.5 499.5 Q433 511 403 511 L278 511 L237 220 L362 220 Z " />
<glyph glyph-name="dotlessj" unicode="&#x237;" horiz-adv-x="305" d="M57 -255 L165 512 L283 512 L175 -255 L57 -255 Z " />
<glyph glyph-name="jcircumflex" unicode="&#x135;" horiz-adv-x="305" d="M57 -255 L165 512 L283 512 L175 -255 L57 -255 Z M243 657 L138 564 L101 606 L256 742 L373 606 L325 564 L243 657 Z " />
<glyph glyph-name="Wacute" unicode="&#x1e82;" horiz-adv-x="926" d="M676 136 L688 136 L880 735 L1009 735 L763 0 L572 0 L542 520 L529 520 L354 0 L163 0 L123 735 L253 735 L276 136 L287 136 L494 735 L638 735 L676 136 Z M577 789 L549 820 L677 963 Q692 979 714 980 Q736 981 748 967 Q760 953 756.5 931 Q753 909 734 896 L577 789 Z " />
<glyph glyph-name="Wcircumflex" unicode="&#x174;" horiz-adv-x="926" d="M676 136 L688 136 L880 735 L1009 735 L763 0 L572 0 L542 520 L529 520 L354 0 L163 0 L123 735 L253 735 L276 136 L287 136 L494 735 L638 735 L676 136 Z M586 880 L480 787 L444 829 L599 965 L716 829 L667 787 L586 880 Z " />
<glyph glyph-name="Wdieresis" unicode="&#x1e84;" horiz-adv-x="926" d="M676 136 L688 136 L880 735 L1009 735 L763 0 L572 0 L542 520 L529 520 L354 0 L163 0 L123 735 L253 735 L276 136 L287 136 L494 735 L638 735 L676 136 Z M399 886 Q403 920 430.5 944 Q458 968 492 968 Q526 968 546.5 944 Q567 920 563 886 Q558 852 530.5 828 Q503 804 469 804 Q435 804 414.5 828 Q394 852 399 886 Z M612 886 Q616 920 643.5 944 Q671 968 705 968 Q739 968 759.5 944 Q780 920 776 886 Q771 852 743.5 828 Q716 804 682 804 Q648 804 627.5 828 Q607 852 612 886 Z " />
<glyph glyph-name="Wgrave" unicode="&#x1e80;" horiz-adv-x="926" d="M676 136 L688 136 L880 735 L1009 735 L763 0 L572 0 L542 520 L529 520 L354 0 L163 0 L123 735 L253 735 L276 136 L287 136 L494 735 L638 735 L676 136 Z M443 896 Q428 909 430.5 931 Q433 953 449 967 Q465 981 487 980 Q509 979 518 963 L606 820 L571 789 L443 896 Z " />
</font>
</svg>
