<?xml version="1.0" encoding="UTF-8"?>
<svg xmlns="http://www.w3.org/2000/svg" xmlns:xlink="http://www.w3.org/1999/xlink" version="1.2" >
<font id="Liber Grotesque Family ExtBd">
<font-face  font-family="Liber Grotesque Family" units-per-em="1000" ascent="768" descent="-256" font-style="normal" font-weight="800" font-stretch="normal" cap-height="735" x-height="512" underline-position="-106" underline-thickness="73" />
<missing-glyph  horiz-adv-x="830" d="M94 768 L734 768 L734 0 L94 0 L94 768 Z M674 60 L674 708 L155 708 L155 60 L674 60 Z M366 374 L404 374 Q423 374 440 381 Q457 388 469.5 400.5 Q482 413 489 430 Q496 447 496 466 Q496 485 489 502 Q482 519 469.5 531.5 Q457 544 440 551 Q423 558 404 558 Q385 558 368 551 Q351 544 338.5 531.5 Q326 519 319 502 Q312 485 312 466 L230 466 Q230 502 243.5 534 Q257 566 280.5 589.5 Q304 613 336 626.5 Q368 640 404 640 Q440 640 472 626.5 Q504 613 527.5 589.5 Q551 566 564.5 534 Q578 502 578 466 Q578 430 564.5 398 Q551 366 527.5 342.5 Q504 319 472 305.5 Q440 292 404 292 L366 292 L366 374 Z M354 182 Q354 205 370 221 Q386 237 409 237 Q432 237 447.5 221 Q463 205 463 182 Q463 159 447.5 143.5 Q432 128 409 128 Q386 128 370 143.5 Q354 159 354 182 Z " />
<glyph glyph-name="null" d="" />
<glyph glyph-name="nonmarkingreturn" unicode="&#xd;" horiz-adv-x="342" d="" />
<glyph glyph-name="space" unicode="&#x20;" horiz-adv-x="300" d="" />
<glyph glyph-name="quotedbl" unicode="&#x22;" horiz-adv-x="353" d="M120 548 L76 548 L51 717 Q48 737 60 755 Q72 773 98 773 Q124 773 135.5 755 Q147 737 145 716 L120 548 Z M277 548 L233 548 L208 717 Q205 737 217 755 Q229 773 255 773 Q281 773 292.5 755 Q304 737 302 716 L277 548 Z " />
<glyph glyph-name="numbersign" unicode="&#x23;" horiz-adv-x="729" d="M443 432 L324 432 L284 295 L402 295 L443 432 Z M240 517 L302 732 L410 732 L347 517 L465 517 L529 732 L635 732 L572 517 L713 517 L690 434 L549 434 L510 298 L660 298 L636 214 L486 214 L423 0 L317 0 L379 214 L262 214 L198 0 L91 0 L153 214 L20 214 L43 298 L176 298 L217 434 L74 434 L97 517 L240 517 Z " />
<glyph glyph-name="dollar" unicode="&#x24;" horiz-adv-x="611" d="M248 876 L375 876 L375 743 Q420 732 453.5 709.5 Q487 687 509.5 657.5 Q532 628 543 594 Q554 560 554 526 L431 526 Q431 535 425 553 Q419 571 404 589 Q389 607 363.5 620 Q338 633 299 633 Q244 633 212.5 609.5 Q181 586 181 551 Q181 519 202 498.5 Q223 478 260 461 L397 399 Q485 359 527 308.5 Q569 258 569 184 Q569 141 554 107.5 Q539 74 513 49.5 Q487 25 451.5 9.5 Q416 -6 375 -12 L375 -128 L248 -128 L248 -10 Q179 1 128.5 33 Q78 65 52 103 L145 179 Q172 147 216.5 126 Q261 105 317 105 Q377 105 407.5 127.5 Q438 150 438 184 Q438 215 419.5 237 Q401 259 356 278 L221 337 Q130 377 90 429 Q50 481 50 551 Q50 589 64 622 Q78 655 104 680.5 Q130 706 166.5 723.5 Q203 741 248 747 L248 876 Z " />
<glyph glyph-name="percent" unicode="&#x25;" horiz-adv-x="618" d="M568 678 L178 90 L50 90 L440 678 L568 678 Z M390 172 Q390 206 414 230 Q438 254 472 254 Q506 254 529.5 230 Q553 206 553 172 Q553 138 529.5 114 Q506 90 472 90 Q438 90 414 114 Q390 138 390 172 Z M54 596 Q54 630 78 654 Q102 678 136 678 Q170 678 193.5 654 Q217 630 217 596 Q217 562 193.5 538 Q170 514 136 514 Q102 514 78 538 Q54 562 54 596 Z " />
<glyph glyph-name="ampersand" unicode="&#x26;" horiz-adv-x="732" d="M682 404 L682 381 Q682 318 665.5 253.5 Q649 189 612 134 L718 11 L718 0 L585 0 L537 53 Q495 22 441.5 4.5 Q388 -13 319 -13 Q252 -13 199 6 Q146 25 108.5 58 Q71 91 51 135.5 Q31 180 31 231 Q31 271 45.5 304 Q60 337 83.5 362.5 Q107 388 137 405.5 Q167 423 199 432 L187 445 Q130 510 133 592 Q134 628 148 662 Q162 696 188.5 722 Q215 748 254 764 Q293 780 344 780 Q399 780 440 761 Q481 742 508.5 712 Q536 682 549.5 645.5 Q563 609 563 573 L441 573 Q441 590 435.5 607 Q430 624 418 637.5 Q406 651 387.5 659 Q369 667 344 667 Q304 667 281 644.5 Q258 622 256 590 Q254 551 287 512 L532 228 Q548 260 556.5 298 Q565 336 565 381 L565 404 L682 404 Z M319 100 Q402 100 460 140 L272 349 Q223 341 190.5 312 Q158 283 158 233 Q158 205 169.5 180.5 Q181 156 202.5 138 Q224 120 253.5 110 Q283 100 319 100 Z " />
<glyph glyph-name="quotesingle" unicode="&#x27;" horiz-adv-x="233" d="M56 502 L102 600 Q74 606 55 628.5 Q36 651 36 681 Q36 715 59.5 739 Q83 763 117 763 Q140 763 158 752 Q176 741 186 723 Q196 705 197 683 Q198 661 188 639 L111 476 L56 502 Z " />
<glyph glyph-name="parenleft" unicode="&#x28;" horiz-adv-x="351" d="M218 351 Q218 266 237 188 Q256 110 291 40 L291 -186 Q198 -77 146.5 59.5 Q95 196 95 351 Q95 505 146.5 642 Q198 779 291 888 L291 661 Q256 592 237 513.5 Q218 435 218 351 Z " />
<glyph glyph-name="parenright" unicode="&#x29;" horiz-adv-x="351" d="M133 351 Q133 436 114 514 Q95 592 60 662 L60 888 Q153 779 204.5 642.5 Q256 506 256 351 Q256 197 204.5 60 Q153 -77 60 -186 L60 41 Q95 110 114 188.5 Q133 267 133 351 Z " />
<glyph glyph-name="asterisk" unicode="&#x2a;" horiz-adv-x="404" d="M204 550 L136 460 L76 511 L141 597 L35 637 L66 712 L164 674 L164 779 L244 779 L244 674 L343 712 L374 637 L268 597 L332 511 L272 460 L204 550 Z " />
<glyph glyph-name="plus" unicode="&#x2b;" horiz-adv-x="612" d="M57 197 L57 315 L249 315 L249 507 L367 507 L367 315 L559 315 L559 197 L367 197 L367 5 L249 5 L249 197 L57 197 Z " />
<glyph glyph-name="comma" unicode="&#x2c;" horiz-adv-x="264" d="M72 -96 L118 2 Q89 8 70 30.5 Q51 53 51 83 Q51 117 75 141 Q99 165 133 165 Q156 165 173.5 154 Q191 143 201 125 Q211 107 212 85 Q213 63 203 41 L126 -122 L72 -96 Z " />
<glyph glyph-name="hyphen" unicode="&#x2d;" horiz-adv-x="612" d="M50 197 L50 315 L562 315 L562 197 L50 197 Z " />
<glyph glyph-name="period" unicode="&#x2e;" horiz-adv-x="264" d="M50 82 Q50 116 74 140 Q98 164 132 164 Q166 164 190 140 Q214 116 214 82 Q214 48 190 24 Q166 0 132 0 Q98 0 74 24 Q50 48 50 82 Z " />
<glyph glyph-name="slash" unicode="&#x2f;" horiz-adv-x="265" d="M285 750 L93 -18 L-30 -18 L162 750 L285 750 Z " />
<glyph glyph-name="zero" unicode="0" horiz-adv-x="695" d="M55 377 Q55 457 73 529 Q91 601 127 655 Q163 709 218 740.5 Q273 772 347 772 Q421 772 476 740.5 Q531 709 567.5 655 Q604 601 622 529.5 Q640 458 640 377 Q640 297 622 225 Q604 153 567.5 99 Q531 45 476 13.5 Q421 -18 347 -18 Q273 -18 218 13.5 Q163 45 127 99 Q91 153 73 225 Q55 297 55 377 Z M348 103 Q383 103 412 123.5 Q441 144 461.5 180 Q482 216 493.5 266.5 Q505 317 505 377 Q505 438 493.5 488.5 Q482 539 461.5 575.5 Q441 612 412 632.5 Q383 653 347 653 Q311 653 282 632.5 Q253 612 232.5 575.5 Q212 539 200.5 488.5 Q189 438 189 377 Q189 317 200.5 266.5 Q212 216 232.5 179.5 Q253 143 282.5 123 Q312 103 348 103 Z " />
<glyph glyph-name="one" unicode="1" horiz-adv-x="487" d="M55 524 L55 627 L145 627 Q162 627 172.5 640 Q183 653 183 673 L183 757 L305 757 L305 109 L432 109 L432 0 L56 0 L56 109 L183 109 L183 524 L55 524 Z " />
<glyph glyph-name="two" unicode="2" horiz-adv-x="635" d="M575 0 L64 0 L64 87 L379 378 Q409 406 432.5 438 Q456 470 456 512 Q456 542 446.5 567 Q437 592 419 610.5 Q401 629 376 639.5 Q351 650 320 650 Q288 650 262.5 639.5 Q237 629 219 610.5 Q201 592 191.5 566.5 Q182 541 182 512 L64 512 Q64 564 83 611 Q102 658 135.5 692.5 Q169 727 216 747.5 Q263 768 320 768 Q378 768 425 748 Q472 728 505.5 693 Q539 658 557.5 611.5 Q576 565 576 512 Q576 477 567.5 447.5 Q559 418 543 390.5 Q527 363 503 337 Q479 311 449 284 L250 108 L575 108 L575 0 Z " />
<glyph glyph-name="three" unicode="3" horiz-adv-x="661" d="M87 559 Q87 604 105 643.5 Q123 683 154.5 712.5 Q186 742 230 759 Q274 776 326 776 Q381 776 425.5 759.5 Q470 743 500.5 714 Q531 685 547.5 645.5 Q564 606 564 560 Q564 505 545 465 Q526 425 494 402 Q516 391 535.5 373.5 Q555 356 569.5 334 Q584 312 592.5 285.5 Q601 259 601 231 Q601 176 582 130 Q563 84 527.5 50.5 Q492 17 441 -1.5 Q390 -20 326 -20 Q269 -20 217.5 -1 Q166 18 128 51.5 Q90 85 67.5 131.5 Q45 178 45 233 L173 233 Q173 206 184.5 181 Q196 156 216.5 137 Q237 118 265 107 Q293 96 326 96 Q394 96 432.5 131.5 Q471 167 472 223 Q473 277 436.5 307 Q400 337 340 337 L244 337 L244 445 L322 445 Q376 445 408.5 475 Q441 505 441 553 Q441 598 411 628 Q381 658 327 658 Q276 658 245.5 628.5 Q215 599 215 559 L87 559 Z " />
<glyph glyph-name="four" unicode="4" horiz-adv-x="606" d="M586 133 L458 133 L458 0 L340 0 L340 133 L26 133 L10 159 L340 757 L458 757 L458 241 L586 241 L586 133 Z M184 241 L340 241 L340 526 L184 241 Z " />
<glyph glyph-name="five" unicode="5" horiz-adv-x="636" d="M320 114 Q348 114 373.5 125 Q399 136 418.5 155.5 Q438 175 449 200.5 Q460 226 460 255 Q460 284 449.5 310 Q439 336 420 355.5 Q401 375 376 386 Q351 397 321 397 Q275 397 242 376 Q209 355 189 324 L72 324 L109 757 L512 757 L512 648 L210 648 L195 461 Q219 482 252 497 Q285 512 330 512 Q384 512 429.5 492 Q475 472 507.5 437 Q540 402 558 355.5 Q576 309 576 255 Q576 202 555.5 155.5 Q535 109 500.5 74.5 Q466 40 419 19.5 Q372 -1 320 -1 Q276 -1 235.5 13.5 Q195 28 162.5 53.5 Q130 79 106.5 114.5 Q83 150 72 191 L197 191 Q213 156 245.5 135 Q278 114 320 114 Z " />
<glyph glyph-name="six" unicode="6" horiz-adv-x="637" d="M65 242 Q65 285 80 322.5 Q95 360 116 395 L331 757 L461 757 L304 484 Q360 489 410 473 Q446 461 476.5 439.5 Q507 418 529.5 388.5 Q552 359 564.5 322 Q577 285 577 242 Q577 189 557 142.5 Q537 96 502 61 Q467 26 420.5 6 Q374 -14 321 -14 Q268 -14 221.5 6 Q175 26 140 61 Q105 96 85 142.5 Q65 189 65 242 Z M459 242 Q459 270 448.5 295.5 Q438 321 419 339.5 Q400 358 375 369 Q350 380 322 380 Q294 380 268.5 369.5 Q243 359 224 340 Q205 321 194 296 Q183 271 183 242 Q183 214 194 189 Q205 164 223.5 145.5 Q242 127 267 116 Q292 105 321 105 Q349 105 374 116 Q399 127 418 145.5 Q437 164 448 189 Q459 214 459 242 Z " />
<glyph glyph-name="seven" unicode="7" horiz-adv-x="560" d="M135 0 L368 649 L30 649 L30 757 L515 757 L525 743 L262 0 L135 0 Z " />
<glyph glyph-name="eight" unicode="8" horiz-adv-x="629" d="M540 552 Q540 510 523.5 473.5 Q507 437 478 409 Q524 377 551 326.5 Q578 276 578 219 Q578 166 557.5 120.5 Q537 75 501 41 Q465 7 416 -12.5 Q367 -32 310 -32 Q252 -32 202.5 -12.5 Q153 7 117 41 Q81 75 60.5 120.5 Q40 166 40 219 Q40 276 67 326.5 Q94 377 141 409 Q111 437 94.5 473.5 Q78 510 78 552 Q78 597 96 636 Q114 675 145.5 704.5 Q177 734 219.5 751 Q262 768 310 768 Q357 768 399 751 Q441 734 472.5 704.5 Q504 675 522 636 Q540 597 540 552 Z M311 79 Q338 79 364 88 Q390 97 409.5 114 Q429 131 441 156.5 Q453 182 453 214 Q453 242 443 267.5 Q433 293 414.5 311.5 Q396 330 369.5 341 Q343 352 311 352 Q278 352 251.5 341 Q225 330 206 311.5 Q187 293 176.5 267.5 Q166 242 166 214 Q166 183 178 158 Q190 133 210.5 115.5 Q231 98 257 88.5 Q283 79 311 79 Z M310 454 Q331 454 350 462.5 Q369 471 383.5 485 Q398 499 406.5 517.5 Q415 536 415 556 Q415 577 406.5 595 Q398 613 383.5 627 Q369 641 350 649 Q331 657 310 657 Q262 657 233.5 627 Q205 597 205 556 Q205 536 212.5 517.5 Q220 499 234 485 Q248 471 267.5 462.5 Q287 454 310 454 Z " />
<glyph glyph-name="nine" unicode="9" horiz-adv-x="620" d="M576 512 Q576 469 561 431.5 Q546 394 525 359 L310 0 L180 0 L337 270 Q279 265 231 282 Q195 294 164 315 Q133 336 111 365.5 Q89 395 76.5 432 Q64 469 64 512 Q64 565 84 611.5 Q104 658 139 693 Q174 728 220.5 748 Q267 768 320 768 Q373 768 419.5 748 Q466 728 501 693 Q536 658 556 611.5 Q576 565 576 512 Z M182 512 Q182 483 192.5 458 Q203 433 222 414.5 Q241 396 265.5 385 Q290 374 319 374 Q347 374 372.5 385 Q398 396 417 414.5 Q436 433 447 458 Q458 483 458 512 Q458 540 447 565 Q436 590 417.5 609 Q399 628 373.5 639 Q348 650 320 650 Q292 650 267 639 Q242 628 223 609 Q204 590 193 565 Q182 540 182 512 Z " />
<glyph glyph-name="colon" unicode="&#x3a;" horiz-adv-x="264" d="M50 82 Q50 116 74 140 Q98 164 132 164 Q166 164 190 140 Q214 116 214 82 Q214 48 190 24 Q166 0 132 0 Q98 0 74 24 Q50 48 50 82 Z M50 366 Q50 400 74 424 Q98 448 132 448 Q166 448 190 424 Q214 400 214 366 Q214 332 190 308 Q166 284 132 284 Q98 284 74 308 Q50 332 50 366 Z " />
<glyph glyph-name="semicolon" unicode="&#x3b;" horiz-adv-x="264" d="M72 -96 L118 2 Q89 8 70 30.5 Q51 53 51 83 Q51 117 75 141 Q99 165 133 165 Q156 165 173.5 154 Q191 143 201 125 Q211 107 212 85 Q213 63 203 41 L126 -122 L72 -96 Z M50 366 Q50 400 74 424 Q98 448 132 448 Q166 448 190 424 Q214 400 214 366 Q214 332 190 308 Q166 284 132 284 Q98 284 74 308 Q50 332 50 366 Z " />
<glyph glyph-name="less" unicode="&#x3c;" horiz-adv-x="504" d="M306 512 L450 512 L454 501 L209 256 L454 11 L450 0 L306 0 L50 256 L306 512 Z " />
<glyph glyph-name="equal" unicode="&#x3d;" horiz-adv-x="612" d="M54 69 L54 187 L558 187 L558 69 L54 69 Z M54 325 L54 443 L558 443 L558 325 L54 325 Z " />
<glyph glyph-name="question" unicode="&#x3f;" horiz-adv-x="592" d="M207 369 L264 369 Q293 369 318 379.5 Q343 390 362 409 Q381 428 391.5 453 Q402 478 402 507 Q402 536 391.5 561 Q381 586 362 605 Q343 624 318 634.5 Q293 645 264 645 Q235 645 210 634.5 Q185 624 166 605 Q147 586 136.5 561 Q126 536 126 507 L3 507 Q3 561 23.5 609 Q44 657 79 692 Q114 727 162 747.5 Q210 768 264 768 Q318 768 366 747.5 Q414 727 449 692 Q484 657 504.5 609 Q525 561 525 507 Q525 453 504.5 405 Q484 357 449 322 Q414 287 366 266.5 Q318 246 264 246 L207 246 L207 369 Z M189 82 Q189 116 213 140 Q237 164 271 164 Q305 164 329 140 Q353 116 353 82 Q353 48 329 24 Q305 0 271 0 Q237 0 213 24 Q189 48 189 82 Z " />
<glyph glyph-name="at" unicode="&#x40;" horiz-adv-x="1152" d="M323 333 Q323 381 341 423 Q359 465 390.5 496.5 Q422 528 464 546 Q506 564 553 564 Q596 564 634 547 Q672 530 701 498 L709 552 L828 552 L803 326 Q799 291 803.5 266.5 Q808 242 819.5 226.5 Q831 211 847 204 Q863 197 881 197 Q922 197 947.5 246 Q973 295 972 404 Q971 474 944 532.5 Q917 591 867.5 633 Q818 675 747 698 Q676 721 586 721 Q493 721 417.5 692 Q342 663 288.5 610 Q235 557 206.5 482.5 Q178 408 180 317 Q181 249 207.5 184 Q234 119 287.5 68.5 Q341 18 423 -11.5 Q505 -41 618 -39 Q683 -37 755 -24 Q755 -53 755.5 -80.5 Q756 -108 756 -136 Q719 -143 683 -146.5 Q647 -150 612 -152 Q495 -157 393 -127 Q291 -97 216 -36.5 Q141 24 97 115 Q53 206 51 325 Q49 443 88 539 Q127 635 198 702.5 Q269 770 367.5 806.5 Q466 843 583 843 Q706 843 801.5 808.5 Q897 774 963 714.5 Q1029 655 1064 576 Q1099 497 1101 407 Q1102 320 1085 257 Q1068 194 1038 153.5 Q1008 113 967.5 94 Q927 75 881 75 Q848 75 821.5 84 Q795 93 774 107 Q753 121 738 139.5 Q723 158 713 177 Q684 140 641.5 121.5 Q599 103 553 103 Q505 103 463.5 121 Q422 139 390.5 170 Q359 201 341 243 Q323 285 323 333 Z M448 333 Q448 279 480 247.5 Q512 216 565 216 Q619 216 651 248 Q683 280 683 333 Q683 355 674.5 376.5 Q666 398 650.5 414.5 Q635 431 613.5 441 Q592 451 565 451 Q539 451 517.5 441 Q496 431 480.5 414.5 Q465 398 456.5 376.5 Q448 355 448 333 Z " />
<glyph glyph-name="A" unicode="A" horiz-adv-x="737" d="M586 0 L529 142 L208 142 L150 0 L17 0 L308 735 L427 735 L720 0 L586 0 Z M368 560 L248 250 L490 250 L368 560 Z " />
<glyph glyph-name="B" unicode="B" horiz-adv-x="648" d="M81 0 L81 735 L357 735 Q402 735 440.5 718.5 Q479 702 507.5 673 Q536 644 552.5 605.5 Q569 567 569 524 Q569 484 552 448 Q535 412 507 386 Q552 357 580 311.5 Q608 266 608 212 Q608 168 591.5 129.5 Q575 91 546 62 Q517 33 478.5 16.5 Q440 0 395 0 L81 0 Z M199 112 L386 112 Q407 112 425 120 Q443 128 456.5 141.5 Q470 155 478 173 Q486 191 486 212 Q486 233 478 251.5 Q470 270 456.5 284 Q443 298 424 306 Q405 314 384 314 L199 314 L199 112 Z M199 425 L348 425 Q389 425 418.5 452.5 Q448 480 448 524 Q448 544 440 562 Q432 580 418.5 593.5 Q405 607 387 614.5 Q369 622 348 622 L199 622 L199 425 Z " />
<glyph glyph-name="C" unicode="C" horiz-adv-x="721" d="M171 367 Q171 312 191 265 Q211 218 245.5 183.5 Q280 149 327.5 129.5 Q375 110 429 110 Q481 110 526.5 131 Q572 152 608 186 L690 99 Q641 48 572.5 18.5 Q504 -11 423 -11 Q344 -11 275 18.5 Q206 48 155 99 Q104 150 74.5 219 Q45 288 45 367 Q45 447 74 516.5 Q103 586 154 637 Q205 688 274 717 Q343 746 423 746 Q504 746 572 716.5 Q640 687 690 636 L608 549 Q573 583 527 603.5 Q481 624 429 624 Q373 624 326 604.5 Q279 585 244.5 550.5 Q210 516 190.5 469 Q171 422 171 367 Z " />
<glyph glyph-name="D" unicode="D" horiz-adv-x="699" d="M90 0 L90 735 L300 735 Q376 735 442.5 706 Q509 677 559 627 Q609 577 638 510.5 Q667 444 667 368 Q667 292 638 225 Q609 158 559 108 Q509 58 442.5 29 Q376 0 300 0 L90 0 Z M217 617 L217 118 L293 118 Q346 118 391.5 137.5 Q437 157 470.5 190.5 Q504 224 523 269.5 Q542 315 542 368 Q542 421 522.5 466.5 Q503 512 469.5 545.5 Q436 579 390.5 598 Q345 617 293 617 L217 617 Z " />
<glyph glyph-name="E" unicode="E" horiz-adv-x="589" d="M90 735 L540 735 L540 626 L221 626 L221 425 L502 425 L502 318 L221 318 L221 109 L540 109 L540 0 L90 0 L90 735 Z " />
<glyph glyph-name="F" unicode="F" horiz-adv-x="571" d="M90 735 L533 735 L533 626 L217 626 L217 425 L495 425 L495 318 L217 318 L217 0 L90 0 L90 735 Z " />
<glyph glyph-name="G" unicode="G" horiz-adv-x="840" d="M166 368 Q166 314 186.5 267 Q207 220 242 185 Q277 150 324 130 Q371 110 424 110 Q473 110 515 123 Q557 136 589.5 161.5 Q622 187 642 224.5 Q662 262 667 310 L433 310 L433 425 L789 425 Q792 411 793 396.5 Q794 382 794 367 Q794 280 765 210 Q736 140 686 91 Q636 42 569 15.5 Q502 -11 425 -11 Q345 -11 275.5 18.5 Q206 48 155 99.5 Q104 151 74.5 220 Q45 289 45 368 Q45 449 73.5 516.5 Q102 584 152.5 632.5 Q203 681 272.5 708.5 Q342 736 424 736 Q502 736 570 708 Q638 680 690 629 L604 549 Q570 583 524 602.5 Q478 622 424 622 Q367 622 320 603 Q273 584 238.5 550.5 Q204 517 185 470 Q166 423 166 368 Z " />
<glyph glyph-name="H" unicode="H" horiz-adv-x="780" d="M81 0 L81 734 L212 734 L212 425 L568 425 L568 735 L699 735 L699 0 L568 0 L568 318 L212 318 L212 0 L81 0 Z " />
<glyph glyph-name="I" unicode="I" horiz-adv-x="504" d="M57 626 L57 735 L447 735 L447 626 L317 626 L317 109 L447 109 L447 0 L57 0 L57 109 L186 109 L186 626 L57 626 Z " />
<glyph glyph-name="J" unicode="J" horiz-adv-x="497" d="M150 188 Q150 156 172.5 134 Q195 112 227 112 Q258 112 280.5 134 Q303 156 303 188 L303 735 L425 735 L425 188 Q425 147 409.5 111 Q394 75 367 48 Q340 21 304 5.5 Q268 -10 227 -10 Q186 -10 150 5.5 Q114 21 87 48 Q60 75 44.5 111 Q29 147 29 188 L150 188 Z " />
<glyph glyph-name="K" unicode="K" horiz-adv-x="724" d="M205 318 L205 0 L81 0 L81 735 L205 735 L205 425 L360 425 L539 735 L678 735 L469 374 L684 0 L545 0 L364 318 L205 318 Z " />
<glyph glyph-name="L" unicode="L" horiz-adv-x="481" d="M461 0 L81 0 L81 735 L207 735 L207 109 L461 109 L461 0 Z " />
<glyph glyph-name="M" unicode="M" horiz-adv-x="882" d="M676 0 L676 458 L441 236 L206 458 L206 0 L81 0 L81 735 L91 739 L441 406 L790 739 L801 735 L801 0 L676 0 Z " />
<glyph glyph-name="N" unicode="N" horiz-adv-x="802" d="M596 735 L721 735 L721 5 L709 -1 L206 464 L206 0 L81 0 L81 730 L92 735 L596 270 L596 735 Z " />
<glyph glyph-name="O" unicode="O" horiz-adv-x="850" d="M46 368 Q46 446 76 515 Q106 584 157.5 635.5 Q209 687 278 717 Q347 747 425 747 Q503 747 572 717 Q641 687 692.5 635.5 Q744 584 774 515 Q804 446 804 368 Q804 290 774 221 Q744 152 692.5 100.5 Q641 49 572 19 Q503 -11 425 -11 Q347 -11 278 19 Q209 49 157.5 100.5 Q106 152 76 221 Q46 290 46 368 Z M174 368 Q174 316 194 270.5 Q214 225 248 191 Q282 157 327.5 137 Q373 117 425 117 Q477 117 522.5 137 Q568 157 602 191 Q636 225 656 270.5 Q676 316 676 368 Q676 420 656 465.5 Q636 511 602 545 Q568 579 522.5 599 Q477 619 425 619 Q373 619 327.5 599 Q282 579 248 545 Q214 511 194 465.5 Q174 420 174 368 Z " />
<glyph glyph-name="P" unicode="P" horiz-adv-x="613" d="M206 226 L206 0 L81 0 L81 735 L340 735 Q393 735 439.5 715 Q486 695 520.5 660.5 Q555 626 575 579.5 Q595 533 595 480 Q595 427 575 381 Q555 335 520.5 300.5 Q486 266 439.5 246 Q393 226 340 226 L206 226 Z M331 334 Q361 334 388 345.5 Q415 357 434.5 376.5 Q454 396 465.5 423 Q477 450 477 480 Q477 510 465.5 537 Q454 564 434.5 583.5 Q415 603 388 614.5 Q361 626 331 626 L206 626 L206 334 L331 334 Z " />
<glyph glyph-name="Q" unicode="Q" horiz-adv-x="850" d="M45 368 Q45 446 75 515 Q105 584 156.5 635.5 Q208 687 277.5 717 Q347 747 425 747 Q503 747 572 717 Q641 687 692.5 635.5 Q744 584 774 515 Q804 446 804 368 Q804 300 781 238.5 Q758 177 717.5 128 Q677 79 622.5 45 Q568 11 504 -2 L504 -16 Q504 -53 527 -79 Q550 -105 591 -105 Q634 -105 658 -80.5 Q682 -56 682 -16 L800 -16 Q800 -59 783.5 -97 Q767 -135 738.5 -163 Q710 -191 672 -207 Q634 -223 591 -223 Q548 -223 510.5 -206.5 Q473 -190 445.5 -162 Q418 -134 402 -96.5 Q386 -59 386 -16 L386 -8 Q314 -1 251.5 31 Q189 63 143.5 113.5 Q98 164 71.5 229 Q45 294 45 368 Z M174 368 Q174 316 194 270.5 Q214 225 248 191 Q282 157 327.5 137 Q373 117 425 117 Q477 117 522.5 137 Q568 157 602 191 Q636 225 656 270.5 Q676 316 676 368 Q676 420 656 465.5 Q636 511 602 545 Q568 579 522.5 599 Q477 619 425 619 Q373 619 327.5 599 Q282 579 248 545 Q214 511 194 465.5 Q174 420 174 368 Z " />
<glyph glyph-name="R" unicode="R" horiz-adv-x="671" d="M206 0 L81 0 L81 735 L394 735 Q442 735 484 717 Q526 699 557.5 667.5 Q589 636 607 594 Q625 552 625 504 Q625 436 591 382 Q557 328 501 299 L617 0 L485 0 L378 274 L206 274 L206 0 Z M381 382 Q406 382 428.5 391.5 Q451 401 467.5 417.5 Q484 434 493.5 456.5 Q503 479 503 504 Q503 529 493.5 551.5 Q484 574 467.5 590.5 Q451 607 428.5 616.5 Q406 626 381 626 L206 626 L206 382 L381 382 Z " />
<glyph glyph-name="S" unicode="S" horiz-adv-x="609" d="M317 -16 Q271 -16 230 -6.5 Q189 3 154.5 19.5 Q120 36 94 57.5 Q68 79 52 103 L145 179 Q172 148 217 126.5 Q262 105 318 105 Q378 105 408 127.5 Q438 150 438 184 Q438 215 419.5 237 Q401 259 356 278 L221 337 Q130 377 90 429 Q50 481 50 551 Q50 594 68 631 Q86 668 119 695 Q152 722 197.5 737 Q243 752 299 752 Q363 752 410.5 732 Q458 712 490 679.5 Q522 647 538 606.5 Q554 566 554 526 L431 526 Q431 535 425 553 Q419 571 404 589 Q389 607 363.5 620 Q338 633 299 633 Q244 633 212.5 609.5 Q181 586 181 551 Q181 519 202 498.5 Q223 478 260 461 L397 399 Q485 359 527 308.5 Q569 258 569 184 Q569 134 548.5 96.5 Q528 59 493.5 34 Q459 9 413.5 -3.5 Q368 -16 317 -16 Z " />
<glyph glyph-name="T" unicode="T" horiz-adv-x="557" d="M539 734 L539 626 L341 626 L341 0 L216 0 L216 626 L17 626 L17 734 L539 734 Z " />
<glyph glyph-name="U" unicode="U" horiz-adv-x="761" d="M180 317 Q180 271 195.5 233 Q211 195 238 167.5 Q265 140 301.5 125 Q338 110 380 110 Q422 110 458.5 125 Q495 140 522.5 167.5 Q550 195 565.5 233 Q581 271 581 317 L581 735 L708 735 L708 317 Q708 249 682.5 189 Q657 129 612.5 84.5 Q568 40 508 14.5 Q448 -11 380 -11 Q312 -11 252 14.5 Q192 40 147.5 84.5 Q103 129 77.5 189 Q52 249 52 317 L52 735 L180 735 L180 317 Z " />
<glyph glyph-name="V" unicode="V" horiz-adv-x="714" d="M454 0 L260 0 L11 735 L143 735 L357 106 L571 735 L704 735 L454 0 Z " />
<glyph glyph-name="W" unicode="W" horiz-adv-x="926" d="M657 136 L669 136 L777 735 L906 735 L763 0 L572 0 L469 520 L456 520 L354 0 L163 0 L20 735 L150 735 L257 136 L268 136 L391 735 L535 735 L657 136 Z " />
<glyph glyph-name="X" unicode="X" horiz-adv-x="689" d="M164 0 L20 0 L271 385 L41 735 L186 735 L345 493 L502 735 L646 735 L418 385 L670 0 L525 0 L345 277 L164 0 Z " />
<glyph glyph-name="Y" unicode="Y" horiz-adv-x="574" d="M229 0 L229 212 L11 735 L144 735 L288 385 L431 735 L564 735 L347 212 L347 0 L229 0 Z " />
<glyph glyph-name="Z" unicode="Z" horiz-adv-x="616" d="M74 318 L74 425 L275 425 L392 626 L52 626 L52 735 L555 735 L571 709 L410 425 L542 425 L542 318 L349 318 L229 109 L564 109 L564 0 L61 0 L45 26 L214 318 L74 318 Z " />
<glyph glyph-name="bracketleft" unicode="&#x5b;" horiz-adv-x="411" d="M94 896 L350 896 L350 778 L213 778 L213 -10 L350 -10 L350 -128 L94 -128 L94 896 Z " />
<glyph glyph-name="bracketright" unicode="&#x5d;" horiz-adv-x="411" d="M350 -128 L94 -128 L94 -10 L232 -10 L232 778 L94 778 L94 896 L350 896 L350 -128 Z " />
<glyph glyph-name="asciicircum" unicode="&#x5e;" horiz-adv-x="372" d="M185 655 L95 564 L50 609 L186 745 L322 609 L277 564 L185 655 Z " />
<glyph glyph-name="underscore" unicode="&#x5f;" horiz-adv-x="612" d="M50 0 L50 118 L558 118 L558 0 L50 0 Z " />
<glyph glyph-name="a" unicode="a" horiz-adv-x="579" d="M391 72 Q368 36 325.5 12.5 Q283 -11 228 -11 Q184 -11 150 2 Q116 15 93 37 Q70 59 57.5 88.5 Q45 118 45 151 Q45 182 57 210 Q69 238 94.5 259 Q120 280 159.5 292 Q199 304 253 304 L391 304 L391 311 Q391 354 365.5 382.5 Q340 411 287 411 Q254 411 225.5 397.5 Q197 384 176 359 L96 428 Q128 466 177.5 493 Q227 520 287 521 Q341 521 382.5 504 Q424 487 451.5 458.5 Q479 430 493.5 392 Q508 354 508 311 L508 0 L391 0 L391 72 Z M166 151 Q166 124 190.5 106.5 Q215 89 253 89 Q277 89 302 97.5 Q327 106 346.5 122 Q366 138 378.5 160 Q391 182 391 209 L253 209 Q207 209 186.5 193 Q166 177 166 151 Z " />
<glyph glyph-name="b" unicode="b" horiz-adv-x="642" d="M592 256 Q592 203 573.5 156 Q555 109 522 74.5 Q489 40 443.5 20 Q398 0 344 0 Q301 0 263 17 Q225 34 199 62 L199 0 L81 0 L81 768 L199 768 L199 450 Q225 478 263.5 495 Q302 512 344 512 Q398 512 443.5 492 Q489 472 522 437.5 Q555 403 573.5 356 Q592 309 592 256 Z M180 256 Q180 225 191.5 198.5 Q203 172 222.5 152 Q242 132 268.5 120.5 Q295 109 326 109 Q357 109 384 120.5 Q411 132 431 152 Q451 172 462.5 198.5 Q474 225 474 256 Q474 287 462.5 313.5 Q451 340 431 360 Q411 380 384 391.5 Q357 403 326 403 Q295 403 268.5 391.5 Q242 380 222.5 360 Q203 340 191.5 313.5 Q180 287 180 256 Z " />
<glyph glyph-name="c" unicode="c" horiz-adv-x="533" d="M503 67 Q467 32 421 11 Q375 -10 316 -10 Q261 -10 212.5 11 Q164 32 128 68 Q92 104 71 152.5 Q50 201 50 256 Q50 311 71 359.5 Q92 408 128 444 Q164 480 212.5 501 Q261 522 316 522 Q377 522 425.5 499 Q474 476 508 440 L426 359 Q406 380 377 392 Q348 404 316 404 Q285 404 258 392.5 Q231 381 211 360.5 Q191 340 179.5 313 Q168 286 168 256 Q168 225 179.5 198 Q191 171 211 151 Q231 131 258 119.5 Q285 108 316 108 Q347 108 375.5 119.5 Q404 131 424 151 L503 67 Z " />
<glyph glyph-name="d" unicode="d" horiz-adv-x="642" d="M50 256 Q50 309 68.5 356 Q87 403 120 437.5 Q153 472 198.5 492 Q244 512 298 512 Q341 512 379 495 Q417 478 443 450 L443 768 L561 768 L561 0 L443 0 L443 62 Q417 34 379 17 Q341 0 298 0 Q244 0 198.5 20 Q153 40 120 74.5 Q87 109 68.5 156 Q50 203 50 256 Z M462 256 Q462 287 450.5 313.5 Q439 340 419.5 360 Q400 380 373.5 391.5 Q347 403 316 403 Q285 403 258.5 391.5 Q232 380 212 360 Q192 340 180.5 313.5 Q169 287 169 256 Q169 225 180.5 198.5 Q192 172 212 152 Q232 132 258.5 120.5 Q285 109 316 109 Q347 109 373.5 120.5 Q400 132 419.5 152 Q439 172 450.5 198.5 Q462 225 462 256 Z " />
<glyph glyph-name="e" unicode="e" horiz-adv-x="611" d="M570 251 Q570 241 568.5 228.5 Q567 216 565 208 L174 208 Q174 187 185 167.5 Q196 148 215.5 133 Q235 118 260.5 109 Q286 100 316 100 Q354 100 386.5 115 Q419 130 442 154 L529 85 Q491 40 436 15 Q381 -10 315 -10 Q267 -10 219.5 6.5 Q172 23 134.5 56 Q97 89 73.5 139 Q50 189 50 256 Q50 311 68.5 359.5 Q87 408 121 444 Q155 480 202.5 501 Q250 522 308 522 Q366 522 414.5 501.5 Q463 481 497.5 444.5 Q532 408 551 358.5 Q570 309 570 251 Z M309 416 Q277 416 251.5 405.5 Q226 395 209 379 Q192 363 183 343 Q174 323 174 304 L446 304 Q446 322 436.5 341.5 Q427 361 409 377.5 Q391 394 365.5 405 Q340 416 309 416 Z " />
<glyph glyph-name="f" unicode="f" horiz-adv-x="377" d="M303 656 Q273 656 254 636 Q235 616 235 581 L235 512 L358 512 L358 407 L235 407 L235 0 L117 0 L117 407 L38 407 L38 512 L117 512 L117 580 Q117 620 130.5 654 Q144 688 169 713.5 Q194 739 228 753.5 Q262 768 303 768 Q343 768 366 763 L366 656 L303 656 Z " />
<glyph glyph-name="g" unicode="g" horiz-adv-x="570" d="M77 334 Q77 376 93 413.5 Q109 451 136.5 478.5 Q164 506 201 522 Q238 538 280 538 Q324 538 361.5 521 Q399 504 427 474 Q456 494 486 503 Q516 512 551 512 L559 512 L559 407 L467 407 Q475 393 479.5 373 Q484 353 484 334 Q484 292 468 255 Q452 218 424.5 190.5 Q397 163 359.5 147 Q322 131 280 131 Q254 131 229 139.5 Q204 148 183 160 Q160 158 144 146 Q128 134 128 111 Q128 87 146 75.5 Q164 64 191 64 L336 64 Q430 64 482 21.5 Q534 -21 534 -99 Q534 -177 475 -221.5 Q416 -266 313 -266 Q259 -266 213.5 -252.5 Q168 -239 135.5 -215 Q103 -191 85 -159 Q67 -127 67 -90 L115 -48 Q67 -36 41 0 Q15 36 17 83 Q19 130 47.5 165.5 Q76 201 118 212 Q99 238 88 268.5 Q77 299 77 334 Z M189 334 Q189 296 215.5 269.5 Q242 243 280 243 Q299 243 315.5 250 Q332 257 344.5 269.5 Q357 282 364 298.5 Q371 315 371 334 Q371 372 344.5 398.5 Q318 425 280 425 Q261 425 244.5 418 Q228 411 215.5 398.5 Q203 386 196 369.5 Q189 353 189 334 Z M313 -156 Q362 -156 387 -142.5 Q412 -129 412 -99 Q412 -76 393 -62 Q374 -48 336 -48 L165 -48 Q165 -70 176.5 -89.5 Q188 -109 208 -124 Q228 -139 255 -147.5 Q282 -156 313 -156 Z " />
<glyph glyph-name="h" unicode="h" horiz-adv-x="655" d="M594 0 L475 0 L475 266 Q475 294 464.5 319 Q454 344 435 363 Q416 382 391 392.5 Q366 403 338 403 Q310 403 285 392.5 Q260 382 241.5 363.5 Q223 345 212 320 Q201 295 201 267 L201 0 L81 0 L81 768 L201 768 L201 448 Q230 481 270 501 Q310 521 357 521 Q406 521 449 501 Q492 481 524 446.5 Q556 412 575 365 Q594 318 594 265 L594 0 Z " />
<glyph glyph-name="i" unicode="i" horiz-adv-x="305" d="M212 512 L212 0 L92 0 L92 512 L212 512 Z M71 705 Q71 739 94.5 762.5 Q118 786 152 786 Q186 786 210 762.5 Q234 739 234 705 Q234 671 210 647 Q186 623 152 623 Q118 623 94.5 647 Q71 671 71 705 Z " />
<glyph glyph-name="j" unicode="j" horiz-adv-x="305" d="M93 -255 L93 512 L211 512 L211 -255 L93 -255 Z M71 705 Q71 739 94.5 762.5 Q118 786 152 786 Q186 786 210 762.5 Q234 739 234 705 Q234 671 210 647 Q186 623 152 623 Q118 623 94.5 647 Q71 671 71 705 Z " />
<glyph glyph-name="k" unicode="k" horiz-adv-x="565" d="M199 768 L199 315 L291 315 L411 512 L543 512 L389 256 L543 0 L411 0 L291 197 L199 197 L199 0 L81 0 L81 768 L199 768 Z " />
<glyph glyph-name="l" unicode="l" horiz-adv-x="284" d="M81 0 L81 768 L203 768 L203 0 L81 0 Z " />
<glyph glyph-name="m" unicode="m" horiz-adv-x="951" d="M890 0 L766 0 L766 281 Q766 306 759.5 328.5 Q753 351 739.5 368 Q726 385 705.5 395 Q685 405 658 405 Q608 405 578.5 369 Q549 333 549 281 L549 0 L425 0 L425 281 Q425 306 417 328.5 Q409 351 394.5 368 Q380 385 359.5 395 Q339 405 313 405 Q287 405 266 395 Q245 385 230 368 Q215 351 207 328 Q199 305 199 278 L199 0 L81 0 L81 512 L199 512 L199 447 Q209 462 224 475.5 Q239 489 258 499.5 Q277 510 299.5 516.5 Q322 523 346 523 Q393 523 432 500.5 Q471 478 496 443 Q530 480 573 501.5 Q616 523 667 523 Q716 523 757.5 504 Q799 485 828 452.5 Q857 420 873.5 376 Q890 332 890 281 L890 0 Z " />
<glyph glyph-name="n" unicode="n" horiz-adv-x="652" d="M590 0 L472 0 L472 265 Q472 295 463.5 322.5 Q455 350 438.5 370 Q422 390 396 402 Q370 414 336 414 Q278 414 239.5 374 Q201 334 199 263 L199 0 L81 0 L81 512 L199 512 L199 446 Q211 461 228.5 474.5 Q246 488 267.5 498.5 Q289 509 314 515.5 Q339 522 365 522 Q414 522 455.5 504 Q497 486 527 452 Q557 418 573.5 369.5 Q590 321 590 261 L590 0 Z " />
<glyph glyph-name="o" unicode="o" horiz-adv-x="631" d="M50 256 Q50 311 70.5 359.5 Q91 408 127 444 Q163 480 211.5 500.5 Q260 521 315 521 Q370 521 418.5 500.5 Q467 480 503 444 Q539 408 560 359.5 Q581 311 581 256 Q581 200 560 151.5 Q539 103 503 67 Q467 31 418.5 10.5 Q370 -10 315 -10 Q260 -10 211.5 10.5 Q163 31 127 67 Q91 103 70.5 151.5 Q50 200 50 256 Z M166 256 Q166 224 177.5 196.5 Q189 169 209.5 149 Q230 129 257 117.5 Q284 106 315 106 Q346 106 373.5 117.5 Q401 129 421.5 149 Q442 169 453.5 196.5 Q465 224 465 256 Q465 288 453.5 315.5 Q442 343 421.5 363 Q401 383 373.5 394.5 Q346 406 315 406 Q284 406 257 394.5 Q230 383 209.5 363 Q189 343 177.5 315.5 Q166 288 166 256 Z " />
<glyph glyph-name="p" unicode="p" horiz-adv-x="642" d="M592 256 Q592 203 573.5 156 Q555 109 522 74.5 Q489 40 443.5 20 Q398 0 344 0 Q302 0 263.5 17 Q225 34 199 62 L199 -256 L81 -256 L81 512 L199 512 L199 449 Q225 478 263 495 Q301 512 344 512 Q398 512 443.5 492 Q489 472 522 437.5 Q555 403 573.5 356 Q592 309 592 256 Z M189 256 Q189 226 200 200 Q211 174 230.5 154.5 Q250 135 275.5 124 Q301 113 331 113 Q361 113 387 124 Q413 135 432.5 154.5 Q452 174 463 200 Q474 226 474 256 Q474 286 463 312 Q452 338 432.5 357.5 Q413 377 387 388 Q361 399 331 399 Q301 399 275.5 388 Q250 377 230.5 357.5 Q211 338 200 312 Q189 286 189 256 Z " />
<glyph glyph-name="q" unicode="q" horiz-adv-x="642" d="M50 256 Q50 309 68.5 356 Q87 403 120 437.5 Q153 472 198.5 492 Q244 512 298 512 Q341 512 379 495 Q417 478 443 449 L443 512 L561 512 L561 -256 L443 -256 L443 62 Q417 34 379 17 Q341 0 298 0 Q244 0 198.5 20 Q153 40 120 74.5 Q87 109 68.5 156 Q50 203 50 256 Z M453 256 Q453 286 442 312 Q431 338 412 357.5 Q393 377 367.5 388 Q342 399 312 399 Q282 399 256 388 Q230 377 210.5 357.5 Q191 338 180 312 Q169 286 169 256 Q169 226 180 200 Q191 174 210.5 154.5 Q230 135 256 124 Q282 113 312 113 Q342 113 367.5 124 Q393 135 412 154.5 Q431 174 442 200 Q453 226 453 256 Z " />
<glyph glyph-name="r" unicode="r" horiz-adv-x="382" d="M201 0 L81 0 L81 512 L184 512 L184 441 Q215 475 255.5 493.5 Q296 512 343 512 L372 512 L372 407 L343 407 Q311 407 285 396.5 Q259 386 240.5 367 Q222 348 211.5 321.5 Q201 295 201 264 L201 0 Z " />
<glyph glyph-name="s" unicode="s" horiz-adv-x="534" d="M170 370 Q170 352 184 340 Q198 328 221 322 L339 293 Q417 273 453 233 Q489 193 489 135 Q489 103 476.5 75 Q464 47 438 26.5 Q412 6 373 -5.5 Q334 -17 282 -17 Q242 -17 205.5 -8.5 Q169 0 139 14.5 Q109 29 86 48 Q63 67 50 88 L140 151 Q163 122 202.5 105 Q242 88 282 88 Q323 88 345.5 101.5 Q368 115 368 135 Q368 151 356 164 Q344 177 315 185 L208 212 Q125 233 88 273.5 Q51 314 51 370 Q51 402 65 430.5 Q79 459 105.5 480.5 Q132 502 171 514.5 Q210 527 260 527 Q304 527 343.5 514 Q383 501 412.5 478 Q442 455 459.5 423 Q477 391 477 353 L359 353 Q359 366 351.5 379 Q344 392 331 402.5 Q318 413 300 419.5 Q282 426 260 426 Q213 426 191.5 408 Q170 390 170 370 Z " />
<glyph glyph-name="t" unicode="t" horiz-adv-x="377" d="M128 0 L128 407 L10 407 L10 512 L128 512 L128 640 L248 640 L248 512 L366 512 L366 407 L248 407 L248 0 L128 0 Z " />
<glyph glyph-name="u" unicode="u" horiz-adv-x="652" d="M61 512 L180 512 L180 247 Q180 217 188.5 189.5 Q197 162 213.5 142 Q230 122 255.5 110 Q281 98 316 98 Q373 98 412 138 Q451 178 453 249 L453 512 L571 512 L571 0 L453 0 L453 66 Q441 51 423.5 37.5 Q406 24 384 13.5 Q362 3 337.5 -3.5 Q313 -10 287 -10 Q238 -10 196.5 8 Q155 26 125 60 Q95 94 78 142.5 Q61 191 61 251 L61 512 Z " />
<glyph glyph-name="v" unicode="v" horiz-adv-x="567" d="M286 109 L417 512 L550 512 L366 0 L201 0 L17 512 L151 512 L281 109 L286 109 Z " />
<glyph glyph-name="w" unicode="w" horiz-adv-x="786" d="M554 109 L560 109 L642 512 L769 512 L652 0 L475 0 L398 315 L388 315 L311 0 L134 0 L17 512 L144 512 L226 109 L232 109 L330 512 L456 512 L554 109 Z " />
<glyph glyph-name="x" unicode="x" horiz-adv-x="521" d="M504 0 L366 0 L260 153 L155 0 L17 0 L192 255 L17 512 L154 512 L260 357 L367 512 L504 512 L328 255 L504 0 Z " />
<glyph glyph-name="y" unicode="y" horiz-adv-x="572" d="M289 124 L422 512 L555 512 L346 -47 L346 -256 L228 -256 L228 -50 L17 512 L151 512 L284 124 L289 124 Z " />
<glyph glyph-name="z" unicode="z" horiz-adv-x="506" d="M456 105 L456 0 L60 0 L45 25 L279 407 L61 407 L61 512 L447 512 L461 487 L228 105 L456 105 Z " />
<glyph glyph-name="bar" unicode="&#x7c;" horiz-adv-x="308" d="M95 896 L213 896 L213 -128 L95 -128 L95 896 Z " />
<glyph glyph-name="cent" unicode="&#xa2;" horiz-adv-x="556" d="M173 256 Q173 227 184 202 Q195 177 213.5 158 Q232 139 257 128.5 Q282 118 311 118 Q345 118 372 132.5 Q399 147 419 170 L509 95 Q483 63 447 40 Q411 17 368 7 L370 7 L370 -128 L244 -128 L244 9 Q203 19 168 42.5 Q133 66 107.5 98 Q82 130 67.5 170.5 Q53 211 53 256 Q53 301 67.5 341 Q82 381 107.5 413.5 Q133 446 168 469 Q203 492 244 503 L244 640 L370 640 L370 505 L368 505 Q411 495 447 472 Q483 449 509 416 L419 342 Q399 365 372 379 Q345 393 311 393 Q282 393 257 382.5 Q232 372 213.5 353.5 Q195 335 184 310 Q173 285 173 256 Z " />
<glyph glyph-name="sterling" unicode="&#xa3;" horiz-adv-x="570" d="M46 433 L142 433 L142 576 Q142 616 157 651 Q172 686 198 712 Q224 738 259 753 Q294 768 334 768 Q374 768 409 753 Q444 738 470 712 Q496 686 511 651 Q526 616 526 576 L408 576 Q408 607 386.5 628.5 Q365 650 334 650 Q303 650 281.5 628.5 Q260 607 260 576 L260 433 L526 433 L526 324 L260 324 L260 108 L526 108 L526 0 L142 0 L142 324 L46 324 L46 433 Z " />
<glyph glyph-name="dieresis" unicode="&#xa8;" horiz-adv-x="477" d="M50 663 Q50 697 74 721 Q98 745 132 745 Q166 745 190 721 Q214 697 214 663 Q214 629 190 605 Q166 581 132 581 Q98 581 74 605 Q50 629 50 663 Z M263 663 Q263 697 287 721 Q311 745 345 745 Q379 745 403 721 Q427 697 427 663 Q427 629 403 605 Q379 581 345 581 Q311 581 287 605 Q263 629 263 663 Z " />
<glyph glyph-name="copyright" unicode="&#xa9;" horiz-adv-x="797" d="M30 358 Q30 434 59 501.5 Q88 569 138 619 Q188 669 255 698 Q322 727 398 727 Q474 727 541.5 698 Q609 669 659 619 Q709 569 738 501.5 Q767 434 767 358 Q767 282 738 215 Q709 148 659 98 Q609 48 541.5 19 Q474 -10 398 -10 Q322 -10 255 19 Q188 48 138 98 Q88 148 59 215 Q30 282 30 358 Z M112 358 Q112 299 134.5 247 Q157 195 196 156 Q235 117 287 94.5 Q339 72 398 72 Q458 72 510 94.5 Q562 117 601 156 Q640 195 662.5 247 Q685 299 685 358 Q685 418 662.5 470 Q640 522 601 561 Q562 600 510 622.5 Q458 645 398 645 Q339 645 287 622.5 Q235 600 196 561 Q157 522 134.5 470 Q112 418 112 358 Z M307 359 Q307 318 335.5 289.5 Q364 261 405 261 Q429 261 448.5 271 Q468 281 482 298 L545 245 Q520 215 483.5 196.5 Q447 178 404 178 Q366 178 333.5 192 Q301 206 276 231 Q251 256 237 288.5 Q223 321 223 359 Q223 399 237 432.5 Q251 466 276 489.5 Q301 513 333.5 526 Q366 539 404 539 Q447 539 483.5 521 Q520 503 545 472 L482 421 Q468 438 448.5 447.5 Q429 457 405 457 Q364 457 335.5 430 Q307 403 307 359 Z " />
<glyph glyph-name="macron" unicode="&#xaf;" horiz-adv-x="409" d="M359 581 L50 581 L50 654 L359 654 L359 581 Z " />
<glyph glyph-name="degree" unicode="&#xb0;" horiz-adv-x="364" d="M50 602 Q50 629 60.5 653 Q71 677 89 695 Q107 713 131 723.5 Q155 734 182 734 Q209 734 233 723.5 Q257 713 275 695 Q293 677 303.5 653 Q314 629 314 602 Q314 575 303.5 551 Q293 527 275 509 Q257 491 233 480.5 Q209 470 182 470 Q155 470 131 480.5 Q107 491 89 509 Q71 527 60.5 551 Q50 575 50 602 Z M134 602 Q134 582 148 568 Q162 554 182 554 Q202 554 215.5 568 Q229 582 229 602 Q229 622 215.5 635.5 Q202 649 182 649 Q162 649 148 635.5 Q134 622 134 602 Z " />
<glyph glyph-name="acute" unicode="&#xb4;" horiz-adv-x="292" d="M81 566 L50 597 L158 740 Q170 756 192 757 Q214 758 228 744 Q242 730 241.5 708 Q241 686 224 673 L81 566 Z " />
<glyph glyph-name="cedilla" unicode="&#xb8;" horiz-adv-x="264" d="M88 64 L148 64 L148 -5 Q177 -14 195.5 -39 Q214 -64 214 -96 Q214 -136 186 -164 Q158 -192 118 -192 Q98 -192 81 -184.5 Q64 -177 50 -164 L93 -123 Q98 -127 104 -129.5 Q110 -132 118 -132 Q133 -132 143.5 -121.5 Q154 -111 154 -96 Q154 -81 143.5 -70.5 Q133 -60 118 -60 Q104 -60 92 -70 L50 -28 Q58 -20 67.5 -13.5 Q77 -7 88 -5 L88 64 Z " />
<glyph glyph-name="multiply" unicode="&#xd7;" horiz-adv-x="538" d="M50 392 L133 475 L269 340 L405 475 L488 392 L353 256 L488 120 L405 37 L269 172 L133 37 L50 120 L185 256 L50 392 Z " />
<glyph glyph-name="germandbls" unicode="&#xdf;" horiz-adv-x="671" d="M539 375 Q581 355 606 312 Q631 269 631 216 Q631 177 618 138.5 Q605 100 576 69 Q547 38 501.5 19 Q456 0 390 0 L321 0 L321 109 L394 109 Q424 109 446 118 Q468 127 482.5 142 Q497 157 504 175.5 Q511 194 511 214 Q511 232 503.5 250.5 Q496 269 481.5 284 Q467 299 446.5 308.5 Q426 318 400 318 L321 318 L321 423 L395 423 Q416 423 434 431 Q452 439 465.5 453.5 Q479 468 486.5 487 Q494 506 494 527 Q494 552 486 575.5 Q478 599 461.5 617 Q445 635 418.5 646 Q392 657 356 657 Q322 657 295.5 645.5 Q269 634 251 614.5 Q233 595 223.5 567.5 Q214 540 214 509 L214 0 L89 0 L89 509 Q89 567 109 615 Q129 663 164.5 697 Q200 731 247.5 749.5 Q295 768 350 768 Q414 768 463 748.5 Q512 729 545.5 696.5 Q579 664 596 622 Q613 580 613 535 Q613 446 539 375 Z " />
<glyph glyph-name="divide" unicode="&#xf7;" horiz-adv-x="602" d="M50 197 L50 315 L552 315 L552 197 L50 197 Z M220 55 Q220 89 243.5 112.5 Q267 136 301 136 Q335 136 358.5 112.5 Q382 89 382 55 Q382 21 358.5 -2.5 Q335 -26 301 -26 Q267 -26 243.5 -2.5 Q220 21 220 55 Z M220 457 Q220 491 243.5 514.5 Q267 538 301 538 Q335 538 358.5 514.5 Q382 491 382 457 Q382 423 358.5 399 Q335 375 301 375 Q267 375 243.5 399 Q220 423 220 457 Z " />
<glyph glyph-name="circumflex" unicode="&#x2c6;" horiz-adv-x="372" d="M185 657 L92 564 L50 606 L186 742 L322 606 L279 564 L185 657 Z " />
<glyph glyph-name="caron" unicode="&#x2c7;" horiz-adv-x="372" d="M187 649 L279 742 L322 700 L186 564 L50 700 L92 742 L187 649 Z " />
<glyph glyph-name="breve" unicode="&#x2d8;" horiz-adv-x="334" d="M50 696 L123 696 L123 676 Q123 657 135.5 644 Q148 631 167 631 Q186 631 198.5 644 Q211 657 211 676 L211 696 L284 696 L284 681 Q284 657 275 635.5 Q266 614 250 598 Q234 582 212.5 573 Q191 564 167 564 Q143 564 121.5 573 Q100 582 84 598 Q68 614 59 635.5 Q50 657 50 681 L50 696 Z " />
<glyph glyph-name="dotaccent" unicode="&#x2d9;" horiz-adv-x="264" d="M50 663 Q50 697 74 721 Q98 745 132 745 Q166 745 190 721 Q214 697 214 663 Q214 629 190 605 Q166 581 132 581 Q98 581 74 605 Q50 629 50 663 Z " />
<glyph glyph-name="ring" unicode="&#x2da;" horiz-adv-x="292" d="M50 672 Q50 712 78 740 Q106 768 146 768 Q186 768 214 740 Q242 712 242 672 Q242 632 214 604 Q186 576 146 576 Q106 576 78 604 Q50 632 50 672 Z M110 672 Q110 657 120.5 646.5 Q131 636 146 636 Q161 636 171.5 646.5 Q182 657 182 672 Q182 687 171.5 697.5 Q161 708 146 708 Q131 708 120.5 697.5 Q110 687 110 672 Z " />
<glyph glyph-name="ogonek" unicode="&#x2db;" horiz-adv-x="351" d="M50 -66 Q50 -40 60 -17 Q70 6 87 23 Q104 40 127 50 Q150 60 176 60 L176 0 Q148 0 129 -19.5 Q110 -39 110 -66 Q110 -94 129 -113 Q148 -132 176 -132 Q202 -132 221.5 -113 Q241 -94 241 -66 L301 -66 Q301 -92 291 -115 Q281 -138 264 -155 Q247 -172 224.5 -182 Q202 -192 176 -192 Q150 -192 127 -182 Q104 -172 87 -155 Q70 -138 60 -115 Q50 -92 50 -66 Z " />
<glyph glyph-name="tilde" unicode="&#x2dc;" horiz-adv-x="421" d="M269 708 Q292 708 310.5 699.5 Q329 691 342.5 676.5 Q356 662 363 643 Q370 624 370 603 L305 603 Q305 623 295.5 635 Q286 647 269 647 Q255 647 244.5 638 Q234 629 221.5 618.5 Q209 608 193 599.5 Q177 591 152 591 Q129 591 110 599.5 Q91 608 77.5 622.5 Q64 637 57 655.5 Q50 674 50 695 L116 695 Q116 675 125.5 663 Q135 651 152 651 Q165 651 175.5 660 Q186 669 198.5 679.5 Q211 690 227.5 699 Q244 708 269 708 Z " />
<glyph glyph-name="endash" unicode="&#x2013;" horiz-adv-x="1124" d="M50 197 L50 315 L1074 315 L1074 197 L50 197 Z " />
<glyph glyph-name="emdash" unicode="&#x2014;" horiz-adv-x="1636" d="M50 315 L1586 315 L1586 197 L50 197 L50 315 Z " />
<glyph glyph-name="quotesinglbase" unicode="&#x201a;" horiz-adv-x="224" d="M52 26 L98 124 Q69 130 50 152.5 Q31 175 31 205 Q31 239 55 263 Q79 287 113 287 Q136 287 153.5 276 Q171 265 181 247 Q191 229 192 207 Q193 185 183 163 L106 0 L52 26 Z " />
<glyph glyph-name="quotedblleft" unicode="&#x201c;" horiz-adv-x="441" d="M389 709 L343 611 Q372 605 391 582.5 Q410 560 410 530 Q410 496 386 472 Q362 448 328 448 Q305 448 287.5 459 Q270 470 260 488 Q250 506 248.5 528 Q247 550 258 572 L335 735 L389 709 Z M172 709 L126 611 Q154 605 173.5 582.5 Q193 560 193 530 Q193 496 169 472 Q145 448 111 448 Q88 448 70 459 Q52 470 42 488 Q32 506 30.5 528 Q29 550 40 572 L117 735 L172 709 Z " />
<glyph glyph-name="quotedblbase" unicode="&#x201e;" horiz-adv-x="441" d="M52 26 L98 124 Q69 130 50 152.5 Q31 175 31 205 Q31 239 55 263 Q79 287 113 287 Q136 287 153.5 276 Q171 265 181 247 Q191 229 192 207 Q193 185 183 163 L106 0 L52 26 Z M269 26 L315 124 Q286 130 267 152.5 Q248 175 248 205 Q248 239 272 263 Q296 287 330 287 Q353 287 371 276 Q389 265 399 247 Q409 229 410 207 Q411 185 401 163 L323 0 L269 26 Z " />
<glyph glyph-name="bullet" unicode="&#x2022;" horiz-adv-x="264" d="M50 256 Q50 290 74 314 Q98 338 132 338 Q166 338 190 314 Q214 290 214 256 Q214 222 190 198 Q166 174 132 174 Q98 174 74 198 Q50 222 50 256 Z " />
<glyph glyph-name="minus" unicode="&#x2212;" horiz-adv-x="602" d="M50 197 L50 315 L552 315 L552 197 L50 197 Z " />
<glyph glyph-name="commaaccent" unicode="&#xf6c3;" horiz-adv-x="207" d="M63 -236 L94 -170 Q75 -166 63 -152 Q51 -138 51 -118 Q51 -95 66.5 -79.5 Q82 -64 104 -64 Q119 -64 130.5 -71 Q142 -78 148.5 -89.5 Q155 -101 156 -115.5 Q157 -130 150 -145 L99 -253 L63 -236 Z " />
<glyph glyph-name="longs" unicode="&#x17f;" horiz-adv-x="426" d="M388 619 Q388 648 367.5 669 Q347 690 318 690 Q289 690 268 669.5 Q247 649 247 619 L247 0 L129 0 L129 403 L32 403 L32 512 L129 512 L129 619 Q129 659 144 693.5 Q159 728 184.5 753.5 Q210 779 244.5 793.5 Q279 808 318 808 Q357 808 391 793 Q425 778 450.5 752.5 Q476 727 491 692.5 Q506 658 506 619 L388 619 Z " />
<glyph glyph-name="hungarumlaut" unicode="&#x2dd;" horiz-adv-x="483" d="M81 566 L50 597 L158 740 Q170 756 192 757 Q214 758 228 744 Q242 730 241.5 708 Q241 686 224 673 L81 566 Z M272 566 L241 597 L349 740 Q361 756 383 757 Q405 758 419 744 Q433 730 432.5 708 Q432 686 415 673 L272 566 Z " />
<glyph glyph-name="grave" unicode="&#x60;" horiz-adv-x="292" d="M68 673 Q51 686 50.5 708 Q50 730 64 744 Q78 758 100 757 Q122 756 134 740 L242 597 L211 566 L68 673 Z " />
<glyph glyph-name="AE" unicode="&#xc6;" horiz-adv-x="904" d="M854 626 L540 626 L540 424 L854 424 L854 315 L540 315 L540 109 L854 109 L854 0 L409 0 L409 142 L209 142 Q195 107 179.5 71 Q164 35 150 0 L17 0 L314 735 L854 735 L854 626 Z M409 250 L409 626 L395 626 L249 250 L409 250 Z " />
<glyph glyph-name="OE" unicode="&#x152;" horiz-adv-x="1013" d="M46 368 Q46 446 76 515 Q106 584 157.5 635.5 Q209 687 278 717 Q347 747 425 747 Q449 747 472 743.5 Q495 740 518 735 L964 735 L964 626 L648 626 L648 424 L964 424 L964 315 L648 315 L648 109 L964 109 L964 0 L518 0 Q471 -11 425 -11 Q347 -11 278 19 Q209 49 157.5 100.5 Q106 152 76 221 Q46 290 46 368 Z M425 619 Q373 619 327.5 599 Q282 579 248 545 Q214 511 194 465.5 Q174 420 174 368 Q174 316 194 270.5 Q214 225 248 191 Q282 157 327.5 137 Q373 117 425 117 Q474 117 517 134 L517 602 Q474 619 425 619 Z " />
<glyph glyph-name="eth" unicode="&#xf0;" horiz-adv-x="648" d="M577 242 Q577 189 557 142.5 Q537 96 502 61 Q467 26 420.5 6 Q374 -14 321 -14 Q268 -14 221.5 6 Q175 26 140 61 Q105 96 85 142.5 Q65 189 65 242 Q65 285 77.5 322 Q90 359 112 388.5 Q134 418 165 439.5 Q196 461 232 473 Q282 489 338 484 L283 580 L179 552 L160 621 L246 644 L181 757 L311 757 L360 674 L463 702 L482 633 L398 611 L526 395 Q547 360 562 322.5 Q577 285 577 242 Z M183 242 Q183 214 194 189 Q205 164 224 145.5 Q243 127 268 116 Q293 105 321 105 Q349 105 374.5 116 Q400 127 418.5 145.5 Q437 164 448 189 Q459 214 459 242 Q459 271 448 296 Q437 321 418 340 Q399 359 373.5 369.5 Q348 380 320 380 Q291 380 266.5 369 Q242 358 223 339.5 Q204 321 193.5 295.5 Q183 270 183 242 Z " />
<glyph glyph-name="quotedblright" unicode="&#x201d;" horiz-adv-x="441" d="M52 474 L98 572 Q69 578 50 600.5 Q31 623 31 653 Q31 687 55 711 Q79 735 113 735 Q136 735 153.5 724 Q171 713 181 695 Q191 677 192 655 Q193 633 183 611 L106 448 L52 474 Z M269 474 L315 572 Q286 578 267 600.5 Q248 623 248 653 Q248 687 272 711 Q296 735 330 735 Q353 735 371 724 Q389 713 399 695 Q409 677 410 655 Q411 633 401 611 L323 448 L269 474 Z " />
<glyph glyph-name="quoteright" unicode="&#x2019;" horiz-adv-x="224" d="M52 474 L98 572 Q69 578 50 600.5 Q31 623 31 653 Q31 687 55 711 Q79 735 113 735 Q136 735 153.5 724 Q171 713 181 695 Q191 677 192 655 Q193 633 183 611 L106 448 L52 474 Z " />
<glyph glyph-name="quoteleft" unicode="&#x2018;" horiz-adv-x="224" d="M172 709 L126 611 Q154 605 173.5 582.5 Q193 560 193 530 Q193 496 169 472 Q145 448 111 448 Q88 448 70 459 Q52 470 42 488 Q32 506 30.5 528 Q29 550 40 572 L117 735 L172 709 Z " />
<glyph glyph-name="questiondown" unicode="&#xbf;" horiz-adv-x="582" d="M348 399 L291 399 Q262 399 237 388.5 Q212 378 193 359 Q174 340 163.5 315 Q153 290 153 261 Q153 232 163.5 207 Q174 182 193 163 Q212 144 237 133.5 Q262 123 291 123 Q320 123 345 133.5 Q370 144 389 163 Q408 182 418.5 207 Q429 232 429 261 L552 261 Q552 207 531.5 159 Q511 111 476 76 Q441 41 393 20.5 Q345 0 291 0 Q237 0 189 20.5 Q141 41 106 76 Q71 111 50.5 159 Q30 207 30 261 Q30 315 50.5 363 Q71 411 106 446 Q141 481 189 501.5 Q237 522 291 522 L348 522 L348 399 Z M365 686 Q365 652 341.5 628 Q318 604 284 604 Q250 604 226 628 Q202 652 202 686 Q202 720 226 744 Q250 768 284 768 Q318 768 341.5 744 Q365 720 365 686 Z " />
<glyph glyph-name="exclamdown" unicode="&#xa1;" horiz-adv-x="344" d="M254 686 Q254 652 230 628 Q206 604 172 604 Q138 604 114 628 Q90 652 90 686 Q90 720 114 744 Q138 768 172 768 Q206 768 230 744 Q254 720 254 686 Z M233 523 L233 0 L111 0 L111 523 L233 523 Z " />
<glyph glyph-name="greater" unicode="&#x3e;" horiz-adv-x="504" d="M454 256 L198 0 L54 0 L50 11 L295 256 L50 501 L54 512 L198 512 L454 256 Z " />
<glyph glyph-name="guillemotleft" unicode="&#xab;" horiz-adv-x="846" d="M306 512 L450 512 L454 501 L209 256 L454 11 L450 0 L306 0 L50 256 L306 512 Z M648 512 L792 512 L796 501 L551 256 L796 11 L792 0 L648 0 L392 256 L648 512 Z " />
<glyph glyph-name="guilsinglleft" unicode="&#x2039;" horiz-adv-x="504" d="M306 512 L450 512 L454 501 L209 256 L454 11 L450 0 L306 0 L50 256 L306 512 Z " />
<glyph glyph-name="guilsinglright" unicode="&#x203a;" horiz-adv-x="504" d="M454 256 L198 0 L54 0 L50 11 L295 256 L50 501 L54 512 L198 512 L454 256 Z " />
<glyph glyph-name="estimated" unicode="&#x212e;" horiz-adv-x="602" d="M43 256 Q43 311 63.5 359.5 Q84 408 120 444 Q156 480 204.5 500.5 Q253 521 308 521 Q363 521 411.5 500.5 Q460 480 496 444 Q532 408 552.5 359.5 Q573 311 573 256 L207 256 L207 65 Q229 48 255 41 Q281 34 308 34 Q374 34 420 61.5 Q466 89 495 135 L544 135 Q512 69 449 30 Q386 -9 308 -9 Q253 -9 204.5 11.5 Q156 32 120 68 Q84 104 63.5 152.5 Q43 201 43 256 Z M207 295 L406 295 L406 447 Q384 463 359 470.5 Q334 478 308 478 Q281 478 255 470 Q229 462 207 445 L207 295 Z " />
<glyph glyph-name="backslash" unicode="&#x5c;" horiz-adv-x="265" d="M93 750 L285 -18 L162 -18 L-30 750 L93 750 Z " />
<glyph glyph-name="partialdiff" unicode="&#x2202;" horiz-adv-x="636" d="M585 242 Q585 189 565 142.5 Q545 96 510 61 Q475 26 428.5 6 Q382 -14 329 -14 Q276 -14 229.5 6 Q183 26 148 61 Q113 96 93 142.5 Q73 189 73 242 Q73 285 85.5 322 Q98 359 120 388.5 Q142 418 172.5 439 Q203 460 239 472 Q289 489 345 484 L189 754 L319 754 L534 395 Q555 360 570 322.5 Q585 285 585 242 Z M191 242 Q191 214 202 189 Q213 164 231.5 145 Q250 126 275 115 Q300 104 329 104 Q357 104 382 115 Q407 126 426 145 Q445 164 455.5 189 Q466 214 466 242 Q466 270 455 295 Q444 320 425 339 Q406 358 381 368.5 Q356 379 328 379 Q299 379 274 368 Q249 357 230.5 338.5 Q212 320 201.5 295 Q191 270 191 242 Z " />
<glyph glyph-name="braceleft" unicode="&#x7b;" horiz-adv-x="574" d="M459 -128 Q406 -128 360.5 -108 Q315 -88 281.5 -53.5 Q248 -19 229 27.5 Q210 74 210 127 L210 191 Q210 218 200.5 241.5 Q191 265 174 283 Q157 301 134.5 311.5 Q112 322 86 323 L81 323 L81 446 L86 446 Q112 447 135 457.5 Q158 468 174.5 485.5 Q191 503 200.5 526.5 Q210 550 210 577 L210 641 Q210 694 229 740.5 Q248 787 281.5 821.5 Q315 856 360.5 876 Q406 896 459 896 L459 774 Q432 774 408 763.5 Q384 753 366 735 Q348 717 338 693 Q328 669 328 642 L328 577 Q328 518 305 468.5 Q282 419 240 384 Q282 349 305 298.5 Q328 248 328 191 L328 126 Q328 99 338 75 Q348 51 366 33 Q384 15 408 4.5 Q432 -6 459 -6 L459 -128 Z " />
<glyph glyph-name="braceright" unicode="&#x7d;" horiz-adv-x="574" d="M81 -6 Q108 -6 132 4.5 Q156 15 174 33 Q192 51 202 75 Q212 99 212 126 L212 191 Q212 248 235 298.5 Q258 349 300 384 Q258 419 235 468.5 Q212 518 212 577 L212 642 Q212 669 202 693 Q192 717 174 735 Q156 753 132 763.5 Q108 774 81 774 L81 896 Q134 896 179.5 876 Q225 856 259 821.5 Q293 787 312 740.5 Q331 694 331 641 L331 577 Q331 550 340.5 526.5 Q350 503 366.5 485.5 Q383 468 405.5 457.5 Q428 447 454 446 L459 446 L459 323 L454 323 Q428 322 405.5 311.5 Q383 301 366.5 283 Q350 265 340.5 241.5 Q331 218 331 191 L331 127 Q331 74 312 27.5 Q293 -19 259 -53.5 Q225 -88 179.5 -108 Q134 -128 81 -128 L81 -6 Z " />
<glyph glyph-name="perthousand" unicode="&#x2030;" horiz-adv-x="804" d="M568 678 L178 90 L50 90 L440 678 L568 678 Z M390 172 Q390 206 414 230 Q438 254 472 254 Q506 254 529.5 230 Q553 206 553 172 Q553 138 529.5 114 Q506 90 472 90 Q438 90 414 114 Q390 138 390 172 Z M54 596 Q54 630 78 654 Q102 678 136 678 Q170 678 193.5 654 Q217 630 217 596 Q217 562 193.5 538 Q170 514 136 514 Q102 514 78 538 Q54 562 54 596 Z M610 172 Q610 206 634 230 Q658 254 692 254 Q726 254 749.5 230 Q773 206 773 172 Q773 138 749.5 114 Q726 90 692 90 Q658 90 634 114 Q610 138 610 172 Z " />
<glyph glyph-name="registered" unicode="&#xae;" horiz-adv-x="797" d="M30 358 Q30 434 59 501.5 Q88 569 138 619 Q188 669 255 698 Q322 727 398 727 Q474 727 541.5 698 Q609 669 659 619 Q709 569 738 501.5 Q767 434 767 358 Q767 282 738 215 Q709 148 659 98 Q609 48 541.5 19 Q474 -10 398 -10 Q322 -10 255 19 Q188 48 138 98 Q88 148 59 215 Q30 282 30 358 Z M112 358 Q112 299 134.5 247 Q157 195 196 156 Q235 117 287 94.5 Q339 72 398 72 Q458 72 510 94.5 Q562 117 601 156 Q640 195 662.5 247 Q685 299 685 358 Q685 418 662.5 470 Q640 522 601 561 Q562 600 510 622.5 Q458 645 398 645 Q339 645 287 622.5 Q235 600 196 561 Q157 522 134.5 470 Q112 418 112 358 Z M347 188 L275 188 L275 548 L429 548 Q453 548 473.5 539 Q494 530 509 515 Q524 500 533 479.5 Q542 459 542 435 Q542 402 525.5 375 Q509 348 482 334 L538 188 L464 188 L411 322 L347 322 L347 188 Z M422 384 Q444 384 459 398.5 Q474 413 474 435 Q474 456 459 470.5 Q444 485 423 485 L347 485 L347 384 L422 384 Z " />
<glyph glyph-name="exclam" unicode="&#x21;" horiz-adv-x="344" d="M90 82 Q90 116 114 140 Q138 164 172 164 Q206 164 230 140 Q254 116 254 82 Q254 48 230 24 Q206 0 172 0 Q138 0 114 24 Q90 48 90 82 Z M111 245 L111 768 L233 768 L233 245 L111 245 Z " />
<glyph glyph-name="asciitilde" unicode="&#x7e;" horiz-adv-x="571" d="M370 337 Q403 337 430.5 324.5 Q458 312 477.5 290.5 Q497 269 508 241.5 Q519 214 519 184 L424 184 Q424 213 409.5 231 Q395 249 370 249 Q350 249 334.5 236 Q319 223 301 207 Q283 191 259.5 178 Q236 165 200 165 Q166 165 138 177.5 Q110 190 90.5 211 Q71 232 60.5 260 Q50 288 50 318 L145 318 Q145 289 159.5 271 Q174 253 200 253 Q219 253 234.5 266 Q250 279 268 295 Q286 311 310 324 Q334 337 370 337 Z " />
<glyph glyph-name="dagger" unicode="&#x2020;" horiz-adv-x="601" d="M50 517 L50 635 L238 635 L238 832 L364 832 L364 635 L551 635 L551 517 L364 517 L364 -128 L238 -128 L238 517 L50 517 Z " />
<glyph glyph-name="brokenbar" unicode="&#xa6;" horiz-adv-x="308" d="M95 320 L213 320 L213 -128 L95 -128 L95 320 Z M213 448 L95 448 L95 896 L213 896 L213 448 Z " />
<glyph glyph-name="trademark" unicode="&#x2122;" horiz-adv-x="536" d="M164 768 L201 768 L239 717 L278 768 L314 768 L314 652 L278 652 L278 718 L239 665 L201 718 L201 652 L164 652 L164 768 Z M34 768 L143 768 L143 735 L107 735 L107 652 L71 652 L71 735 L34 735 L34 768 Z " />
<glyph glyph-name="Euro" unicode="&#x20ac;" horiz-adv-x="730" d="M-31 407 L-31 525 L87 525 Q109 574 143.5 614.5 Q178 655 222 684.5 Q266 714 319.5 730 Q373 746 432 746 Q513 746 581 716.5 Q649 687 699 636 L616 549 Q581 583 535.5 603.5 Q490 624 438 624 Q372 624 319.5 597.5 Q267 571 233 525 L446 525 L446 407 L182 407 Q180 396 180 387 Q180 378 180 367 Q180 356 180 347.5 Q180 339 182 329 L446 329 L446 211 L233 211 Q266 163 319.5 136.5 Q373 110 438 110 Q490 110 535.5 131 Q581 152 617 186 L699 99 Q650 48 581.5 18.5 Q513 -11 432 -11 Q374 -11 321 5 Q268 21 223.5 50.5 Q179 80 144 120.5 Q109 161 87 211 L-31 211 L-31 329 L56 329 Q55 339 54.5 348 Q54 357 54 367 Q54 378 54.5 387 Q55 396 56 407 L-31 407 Z " />
<glyph glyph-name="kgreenlandic" unicode="&#x138;" horiz-adv-x="594" d="M199 310 L310 310 Q355 310 385.5 340.5 Q416 371 416 416 L416 512 L534 512 L534 416 Q534 351 500 297.5 Q466 244 411 217 L545 0 L413 0 L291 193 L199 193 L199 0 L81 0 L81 512 L199 512 L199 310 Z " />
<glyph glyph-name="threequartersemdash" unicode="&#xf6de;" horiz-adv-x="1636" d="M50 315 L1586 315 L1586 197 L50 197 L50 315 Z " />
<glyph glyph-name="lira" unicode="&#x20a4;" horiz-adv-x="570" d="M46 311 L142 311 L142 396 L46 396 L46 505 L142 505 L142 576 Q142 616 157 651 Q172 686 198 712 Q224 738 259 753 Q294 768 334 768 Q374 768 409 753 Q444 738 470 712 Q496 686 511 651 Q526 616 526 576 L408 576 Q408 607 386.5 628.5 Q365 650 334 650 Q303 650 281.5 628.5 Q260 607 260 576 L260 505 L526 505 L526 396 L260 396 L260 311 L526 311 L526 203 L260 203 L260 108 L526 108 L526 0 L142 0 L142 203 L46 203 L46 311 Z " />
<glyph glyph-name="yen" unicode="&#xa5;" horiz-adv-x="593" d="M45 261 L45 379 L169 379 L20 735 L153 735 L297 385 L440 735 L573 735 L424 379 L549 379 L549 261 L356 261 L356 204 L549 204 L549 86 L356 86 L356 0 L238 0 L238 86 L45 86 L45 204 L238 204 L238 261 L45 261 Z " />
<glyph glyph-name="ae" unicode="&#xe6;" horiz-adv-x="941" d="M904 251 Q904 241 902 228.5 Q900 216 898 208 L508 208 Q508 187 519 167.5 Q530 148 549.5 133 Q569 118 594.5 109 Q620 100 650 100 Q688 100 720 115 Q752 130 775 154 L862 85 Q824 40 769.5 15 Q715 -10 649 -10 Q589 -10 533.5 14.5 Q478 39 441 90 Q397 33 344 11 Q291 -11 242 -11 Q197 -11 161 2 Q125 15 99 37 Q73 59 59 88.5 Q45 118 45 151 Q45 182 57.5 210 Q70 238 95.5 259 Q121 280 160 292 Q199 304 253 304 L391 304 L391 311 Q391 354 365.5 382.5 Q340 411 287 411 Q251 411 225 395 Q199 379 176 350 L96 419 Q110 439 131 457.5 Q152 476 177 490 Q202 504 230 512.5 Q258 521 287 521 Q347 521 390 500 Q433 479 461 444 Q492 479 538 500.5 Q584 522 641 522 Q699 522 747.5 501.5 Q796 481 831 444.5 Q866 408 885 358.5 Q904 309 904 251 Z M643 416 Q610 416 585 406 Q560 396 543 379.5 Q526 363 517 343 Q508 323 508 304 L779 304 Q779 322 769.5 341.5 Q760 361 742.5 377.5 Q725 394 699.5 405 Q674 416 643 416 Z M166 151 Q166 124 190.5 106.5 Q215 89 253 89 Q277 89 302 97.5 Q327 106 346.5 122 Q366 138 378.5 160 Q391 182 391 209 L253 209 Q207 209 186.5 193 Q166 177 166 151 Z " />
<glyph glyph-name="oe" unicode="&#x153;" horiz-adv-x="1031" d="M50 256 Q50 311 70.5 359.5 Q91 408 127 444 Q163 480 211.5 500.5 Q260 521 316 521 Q379 521 432 493.5 Q485 466 520 412 Q554 466 605.5 494 Q657 522 723 522 Q781 522 829.5 501.5 Q878 481 913 444.5 Q948 408 967 358.5 Q986 309 986 251 Q986 241 984 228.5 Q982 216 980 208 L590 208 Q590 188 601 168.5 Q612 149 631 134 Q650 119 676 109.5 Q702 100 732 100 Q770 100 802 115 Q834 130 857 154 L944 85 Q906 40 851.5 15 Q797 -10 731 -10 Q671 -10 615 16 Q559 42 521 99 Q485 46 432 18 Q379 -10 316 -10 Q260 -10 211.5 10.5 Q163 31 127 67 Q91 103 70.5 151.5 Q50 200 50 256 Z M167 256 Q167 226 179 198.5 Q191 171 211 151 Q231 131 258.5 119 Q286 107 316 107 Q346 107 373.5 119 Q401 131 421 151 Q441 171 453 198.5 Q465 226 465 256 Q465 286 453 313.5 Q441 341 421 361 Q401 381 373.5 393 Q346 405 316 405 Q286 405 258.5 393 Q231 381 211 361 Q191 341 179 313.5 Q167 286 167 256 Z M725 416 Q692 416 667 405.5 Q642 395 625 379 Q608 363 599 343 Q590 323 590 304 L861 304 Q861 322 851.5 341.5 Q842 361 824.5 377.5 Q807 394 781.5 405 Q756 416 725 416 Z " />
<glyph glyph-name="Oslash" unicode="&#xd8;" horiz-adv-x="849" d="M45 368 Q45 446 75 515 Q105 584 156.5 635.5 Q208 687 277.5 717 Q347 747 425 747 Q487 747 543 728 Q599 709 647 674 L714 741 L797 658 L730 591 Q765 543 784.5 487 Q804 431 804 368 Q804 290 774 221 Q744 152 692.5 100.5 Q641 49 572 19 Q503 -11 425 -11 Q362 -11 305 8 Q248 27 201 62 L135 -4 L52 80 L118 145 Q83 193 64 249 Q45 305 45 368 Z M425 117 Q477 117 522.5 137 Q568 157 602 191 Q636 225 656 270.5 Q676 316 676 368 Q676 404 665.5 437 Q655 470 637 499 L294 155 Q350 117 425 117 Z M174 368 Q174 297 211 238 L553 581 Q525 599 492.5 609 Q460 619 425 619 Q373 619 327.5 599 Q282 579 248 545 Q214 511 194 465.5 Q174 420 174 368 Z " />
<glyph glyph-name="oslash" unicode="&#xf8;" horiz-adv-x="631" d="M50 256 Q50 311 70.5 359.5 Q91 408 127 444 Q163 480 211.5 500.5 Q260 521 315 521 Q358 521 396.5 509 Q435 497 467 474 L511 518 L577 451 L534 408 Q556 375 568.5 336.5 Q581 298 581 256 Q581 200 560 151.5 Q539 103 503 67 Q467 31 418.5 10.5 Q370 -10 315 -10 Q229 -10 164 38 L120 -6 L54 61 L97 104 Q74 136 62 174.5 Q50 213 50 256 Z M315 106 Q346 106 373.5 117.5 Q401 129 421.5 149 Q442 169 453.5 196.5 Q465 224 465 256 Q465 274 460.5 290.5 Q456 307 448 322 L248 122 Q280 106 315 106 Z M166 256 Q166 221 182 189 L382 389 Q353 406 315 406 Q284 406 257 394.5 Q230 383 209.5 363 Q189 343 177.5 315.5 Q166 288 166 256 Z " />
<glyph glyph-name="ellipsis" unicode="&#x2026;" horiz-adv-x="822" d="M55 82 Q55 116 79 140 Q103 164 137 164 Q171 164 195 140 Q219 116 219 82 Q219 48 195 24 Q171 0 137 0 Q103 0 79 24 Q55 48 55 82 Z M329 82 Q329 116 353 140 Q377 164 411 164 Q445 164 469 140 Q493 116 493 82 Q493 48 469 24 Q445 0 411 0 Q377 0 353 24 Q329 48 329 82 Z M603 82 Q603 116 627 140 Q651 164 685 164 Q719 164 743 140 Q767 116 767 82 Q767 48 743 24 Q719 0 685 0 Q651 0 627 24 Q603 48 603 82 Z " />
<glyph glyph-name="guillemotright" unicode="&#xbb;" horiz-adv-x="846" d="M796 256 L540 0 L396 0 L392 11 L637 256 L392 501 L396 512 L540 512 L796 256 Z M454 256 L198 0 L54 0 L50 11 L295 256 L50 501 L54 512 L198 512 L454 256 Z " />
<glyph glyph-name="paragraph" unicode="&#xb6;" horiz-adv-x="875" d="M275 226 Q222 226 175.5 246 Q129 266 94.5 300.5 Q60 335 40 381 Q20 427 20 480 Q20 533 40 579.5 Q60 626 94.5 660.5 Q129 695 175.5 715 Q222 735 275 735 L795 735 L795 0 L664 0 L664 626 L534 626 L534 0 L409 0 L409 226 L275 226 Z M409 334 L409 626 L284 626 Q254 626 227 614.5 Q200 603 180.5 583.5 Q161 564 149.5 537 Q138 510 138 480 Q138 450 149.5 423 Q161 396 180.5 376.5 Q200 357 227 345.5 Q254 334 284 334 L409 334 Z " />
<glyph glyph-name="Aacute" unicode="&#xc1;" horiz-adv-x="737" d="M586 0 L529 142 L208 142 L150 0 L17 0 L308 735 L427 735 L720 0 L586 0 Z M368 560 L248 250 L490 250 L368 560 Z M381 789 L350 820 L458 963 Q470 979 492 980 Q514 981 528 967 Q542 953 541.5 931 Q541 909 524 896 L381 789 Z " />
<glyph glyph-name="Abreve" unicode="&#x102;" horiz-adv-x="737" d="M586 0 L529 142 L208 142 L150 0 L17 0 L308 735 L427 735 L720 0 L586 0 Z M368 560 L248 250 L490 250 L368 560 Z M251 919 L324 919 L324 899 Q324 880 336.5 867 Q349 854 368 854 Q387 854 399.5 867 Q412 880 412 899 L412 919 L485 919 L485 904 Q485 880 476 858.5 Q467 837 451 821 Q435 805 413.5 796 Q392 787 368 787 Q344 787 322.5 796 Q301 805 285 821 Q269 837 260 858.5 Q251 880 251 904 L251 919 Z " />
<glyph glyph-name="Acircumflex" unicode="&#xc2;" horiz-adv-x="737" d="M586 0 L529 142 L208 142 L150 0 L17 0 L308 735 L427 735 L720 0 L586 0 Z M368 560 L248 250 L490 250 L368 560 Z M367 880 L275 787 L232 829 L368 965 L504 829 L462 787 L367 880 Z " />
<glyph glyph-name="Agrave" unicode="&#xc0;" horiz-adv-x="737" d="M586 0 L529 142 L208 142 L150 0 L17 0 L308 735 L427 735 L720 0 L586 0 Z M368 560 L248 250 L490 250 L368 560 Z M213 896 Q196 909 195.5 931 Q195 953 209 967 Q223 981 245 980 Q267 979 279 963 L387 820 L355 789 L213 896 Z " />
<glyph glyph-name="Adieresis" unicode="&#xc4;" horiz-adv-x="737" d="M586 0 L529 142 L208 142 L150 0 L17 0 L308 735 L427 735 L720 0 L586 0 Z M368 560 L248 250 L490 250 L368 560 Z M180 886 Q180 920 204 944 Q228 968 262 968 Q296 968 320 944 Q344 920 344 886 Q344 852 320 828 Q296 804 262 804 Q228 804 204 828 Q180 852 180 886 Z M393 886 Q393 920 417 944 Q441 968 475 968 Q509 968 533 944 Q557 920 557 886 Q557 852 533 828 Q509 804 475 804 Q441 804 417 828 Q393 852 393 886 Z " />
<glyph glyph-name="Amacron" unicode="&#x100;" horiz-adv-x="737" d="M586 0 L529 142 L208 142 L150 0 L17 0 L308 735 L427 735 L720 0 L586 0 Z M368 560 L248 250 L490 250 L368 560 Z M523 804 L214 804 L214 877 L523 877 L523 804 Z " />
<glyph glyph-name="Aogonek" unicode="&#x104;" horiz-adv-x="737" d="M460 -66 Q460 -18 489 15.5 Q518 49 562 57 L529 142 L208 142 L150 0 L17 0 L308 735 L427 735 L720 0 L586 0 Q558 0 539.5 -19.5 Q521 -39 521 -66 Q521 -94 539.5 -113 Q558 -132 586 -132 Q613 -132 632 -113 Q651 -94 651 -66 L712 -66 Q712 -92 702 -115 Q692 -138 675 -155 Q658 -172 635 -182 Q612 -192 586 -192 Q560 -192 537 -182 Q514 -172 497 -155 Q480 -138 470 -115 Q460 -92 460 -66 Z M368 560 L248 250 L490 250 L368 560 Z " />
<glyph glyph-name="Aring" unicode="&#xc5;" horiz-adv-x="737" d="M586 0 L529 142 L208 142 L150 0 L17 0 L308 735 L427 735 L720 0 L586 0 Z M368 560 L248 250 L490 250 L368 560 Z M272 895 Q272 935 300 963 Q328 991 368 991 Q408 991 436 963 Q464 935 464 895 Q464 855 436 827 Q408 799 368 799 Q328 799 300 827 Q272 855 272 895 Z M332 895 Q332 880 342.5 869.5 Q353 859 368 859 Q383 859 393.5 869.5 Q404 880 404 895 Q404 910 393.5 920.5 Q383 931 368 931 Q353 931 342.5 920.5 Q332 910 332 895 Z " />
<glyph glyph-name="Atilde" unicode="&#xc3;" horiz-adv-x="737" d="M586 0 L529 142 L208 142 L150 0 L17 0 L308 735 L427 735 L720 0 L586 0 Z M368 560 L248 250 L490 250 L368 560 Z M426 931 Q449 931 468 922.5 Q487 914 500.5 899.5 Q514 885 521 866 Q528 847 528 826 L463 826 Q463 846 453 858 Q443 870 426 870 Q413 870 402.5 861 Q392 852 379.5 841.5 Q367 831 351 822.5 Q335 814 310 814 Q287 814 268 822.5 Q249 831 235.5 845.5 Q222 860 215 878.5 Q208 897 208 918 L273 918 Q273 898 283 886 Q293 874 310 874 Q323 874 333.5 883 Q344 892 356.5 902.5 Q369 913 385 922 Q401 931 426 931 Z " />
<glyph glyph-name="AEacute" unicode="&#x1fc;" horiz-adv-x="904" d="M854 626 L540 626 L540 424 L854 424 L854 315 L540 315 L540 109 L854 109 L854 0 L409 0 L409 142 L209 142 Q195 107 179.5 71 Q164 35 150 0 L17 0 L314 735 L854 735 L854 626 Z M409 250 L409 626 L395 626 L249 250 L409 250 Z M465 789 L434 820 L541 963 Q553 979 575 980 Q597 981 611 967 Q625 953 624.5 931 Q624 909 607 896 L465 789 Z " />
<glyph glyph-name="Cacute" unicode="&#x106;" horiz-adv-x="721" d="M171 367 Q171 312 191 265 Q211 218 245.5 183.5 Q280 149 327.5 129.5 Q375 110 429 110 Q481 110 526.5 131 Q572 152 608 186 L690 99 Q641 48 572.5 18.5 Q504 -11 423 -11 Q344 -11 275 18.5 Q206 48 155 99 Q104 150 74.5 219 Q45 288 45 367 Q45 447 74 516.5 Q103 586 154 637 Q205 688 274 717 Q343 746 423 746 Q504 746 572 716.5 Q640 687 690 636 L608 549 Q573 583 527 603.5 Q481 624 429 624 Q373 624 326 604.5 Q279 585 244.5 550.5 Q210 516 190.5 469 Q171 422 171 367 Z M373 789 L342 820 L450 963 Q462 979 484 980 Q506 981 520 967 Q534 953 533.5 931 Q533 909 516 896 L373 789 Z " />
<glyph glyph-name="Ccaron" unicode="&#x10c;" horiz-adv-x="721" d="M171 367 Q171 312 191 265 Q211 218 245.5 183.5 Q280 149 327.5 129.5 Q375 110 429 110 Q481 110 526.5 131 Q572 152 608 186 L690 99 Q641 48 572.5 18.5 Q504 -11 423 -11 Q344 -11 275 18.5 Q206 48 155 99 Q104 150 74.5 219 Q45 288 45 367 Q45 447 74 516.5 Q103 586 154 637 Q205 688 274 717 Q343 746 423 746 Q504 746 572 716.5 Q640 687 690 636 L608 549 Q573 583 527 603.5 Q481 624 429 624 Q373 624 326 604.5 Q279 585 244.5 550.5 Q210 516 190.5 469 Q171 422 171 367 Z M413 872 L505 965 L548 923 L412 787 L276 923 L318 965 L413 872 Z " />
<glyph glyph-name="Ccedilla" unicode="&#xc7;" horiz-adv-x="721" d="M171 367 Q171 312 191 265 Q211 218 245.5 183.5 Q280 149 327.5 129.5 Q375 110 429 110 Q481 110 526.5 131 Q572 152 608 186 L690 99 Q645 51 582.5 23 Q520 -5 447 -10 L447 -49 Q476 -58 494.5 -83 Q513 -108 513 -140 Q513 -180 485 -208 Q457 -236 417 -236 Q397 -236 380 -228.5 Q363 -221 349 -208 L392 -167 Q397 -171 403 -173.5 Q409 -176 417 -176 Q432 -176 442.5 -165.5 Q453 -155 453 -140 Q453 -125 442.5 -114.5 Q432 -104 417 -104 Q403 -104 391 -114 L349 -72 Q357 -64 366.5 -57.5 Q376 -51 387 -49 L387 -9 Q314 -2 251.5 29.5 Q189 61 143 111 Q97 161 71 226.5 Q45 292 45 367 Q45 447 74 516.5 Q103 586 154 637 Q205 688 274 717 Q343 746 423 746 Q504 746 572 716.5 Q640 687 690 636 L608 549 Q573 583 527 603.5 Q481 624 429 624 Q373 624 326 604.5 Q279 585 244.5 550.5 Q210 516 190.5 469 Q171 422 171 367 Z " />
<glyph glyph-name="Ccircumflex" unicode="&#x108;" horiz-adv-x="721" d="M171 367 Q171 312 191 265 Q211 218 245.5 183.5 Q280 149 327.5 129.5 Q375 110 429 110 Q481 110 526.5 131 Q572 152 608 186 L690 99 Q641 48 572.5 18.5 Q504 -11 423 -11 Q344 -11 275 18.5 Q206 48 155 99 Q104 150 74.5 219 Q45 288 45 367 Q45 447 74 516.5 Q103 586 154 637 Q205 688 274 717 Q343 746 423 746 Q504 746 572 716.5 Q640 687 690 636 L608 549 Q573 583 527 603.5 Q481 624 429 624 Q373 624 326 604.5 Q279 585 244.5 550.5 Q210 516 190.5 469 Q171 422 171 367 Z M420 880 L327 787 L285 829 L421 965 L557 829 L514 787 L420 880 Z " />
<glyph glyph-name="Cdotaccent" unicode="&#x10a;" horiz-adv-x="721" d="M171 367 Q171 312 191 265 Q211 218 245.5 183.5 Q280 149 327.5 129.5 Q375 110 429 110 Q481 110 526.5 131 Q572 152 608 186 L690 99 Q641 48 572.5 18.5 Q504 -11 423 -11 Q344 -11 275 18.5 Q206 48 155 99 Q104 150 74.5 219 Q45 288 45 367 Q45 447 74 516.5 Q103 586 154 637 Q205 688 274 717 Q343 746 423 746 Q504 746 572 716.5 Q640 687 690 636 L608 549 Q573 583 527 603.5 Q481 624 429 624 Q373 624 326 604.5 Q279 585 244.5 550.5 Q210 516 190.5 469 Q171 422 171 367 Z M339 886 Q339 920 363 944 Q387 968 421 968 Q455 968 478.5 944 Q502 920 502 886 Q502 852 478.5 828 Q455 804 421 804 Q387 804 363 828 Q339 852 339 886 Z " />
<glyph glyph-name="Dcaron" unicode="&#x10e;" horiz-adv-x="699" d="M90 0 L90 735 L300 735 Q376 735 442.5 706 Q509 677 559 627 Q609 577 638 510.5 Q667 444 667 368 Q667 292 638 225 Q609 158 559 108 Q509 58 442.5 29 Q376 0 300 0 L90 0 Z M217 617 L217 118 L293 118 Q346 118 391.5 137.5 Q437 157 470.5 190.5 Q504 224 523 269.5 Q542 315 542 368 Q542 421 522.5 466.5 Q503 512 469.5 545.5 Q436 579 390.5 598 Q345 617 293 617 L217 617 Z M290 872 L383 965 L425 923 L289 787 L153 923 L196 965 L290 872 Z " />
<glyph glyph-name="Eacute" unicode="&#xc9;" horiz-adv-x="589" d="M90 735 L540 735 L540 626 L221 626 L221 425 L502 425 L502 318 L221 318 L221 109 L540 109 L540 0 L90 0 L90 735 Z M288 789 L257 820 L364 963 Q377 979 398.5 980 Q420 981 434 967 Q448 953 447.5 931 Q447 909 431 896 L288 789 Z " />
<glyph glyph-name="Ebreve" unicode="&#x114;" horiz-adv-x="589" d="M90 735 L540 735 L540 626 L221 626 L221 425 L502 425 L502 318 L221 318 L221 109 L540 109 L540 0 L90 0 L90 735 Z M198 919 L271 919 L271 899 Q271 880 283.5 867 Q296 854 315 854 Q334 854 346.5 867 Q359 880 359 899 L359 919 L432 919 L432 904 Q432 880 423 858.5 Q414 837 398 821 Q382 805 360.5 796 Q339 787 315 787 Q291 787 269.5 796 Q248 805 232 821 Q216 837 207 858.5 Q198 880 198 904 L198 919 Z " />
<glyph glyph-name="Ecaron" unicode="&#x11a;" horiz-adv-x="589" d="M90 735 L540 735 L540 626 L221 626 L221 425 L502 425 L502 318 L221 318 L221 109 L540 109 L540 0 L90 0 L90 735 Z M315 872 L408 965 L450 923 L314 787 L178 923 L221 965 L315 872 Z " />
<glyph glyph-name="Ecircumflex" unicode="&#xca;" horiz-adv-x="589" d="M90 735 L540 735 L540 626 L221 626 L221 425 L502 425 L502 318 L221 318 L221 109 L540 109 L540 0 L90 0 L90 735 Z M313 880 L221 787 L178 829 L314 965 L450 829 L408 787 L313 880 Z " />
<glyph glyph-name="Edieresis" unicode="&#xcb;" horiz-adv-x="589" d="M90 735 L540 735 L540 626 L221 626 L221 425 L502 425 L502 318 L221 318 L221 109 L540 109 L540 0 L90 0 L90 735 Z M126 886 Q126 920 149.5 944 Q173 968 208 968 Q242 968 265.5 944 Q289 920 289 886 Q289 852 265.5 828 Q242 804 208 804 Q173 804 149.5 828 Q126 852 126 886 Z M339 886 Q339 920 362.5 944 Q386 968 421 968 Q455 968 478.5 944 Q502 920 502 886 Q502 852 478.5 828 Q455 804 421 804 Q386 804 362.5 828 Q339 852 339 886 Z " />
<glyph glyph-name="Edotaccent" unicode="&#x116;" horiz-adv-x="589" d="M90 735 L540 735 L540 626 L221 626 L221 425 L502 425 L502 318 L221 318 L221 109 L540 109 L540 0 L90 0 L90 735 Z M232 886 Q232 920 256 944 Q280 968 314 968 Q348 968 372 944 Q396 920 396 886 Q396 852 372 828 Q348 804 314 804 Q280 804 256 828 Q232 852 232 886 Z " />
<glyph glyph-name="Egrave" unicode="&#xc8;" horiz-adv-x="589" d="M90 735 L540 735 L540 626 L221 626 L221 425 L502 425 L502 318 L221 318 L221 109 L540 109 L540 0 L90 0 L90 735 Z M169 896 Q152 909 151.5 931 Q151 953 165 967 Q179 981 201 980 Q223 979 235 963 L342 820 L311 789 L169 896 Z " />
<glyph glyph-name="Emacron" unicode="&#x112;" horiz-adv-x="589" d="M90 735 L540 735 L540 626 L221 626 L221 425 L502 425 L502 318 L221 318 L221 109 L540 109 L540 0 L90 0 L90 735 Z M460 804 L151 804 L151 877 L460 877 L460 804 Z " />
<glyph glyph-name="Eogonek" unicode="&#x118;" horiz-adv-x="589" d="M288 -66 Q288 -30 307 0 L90 0 L90 735 L540 735 L540 626 L221 626 L221 425 L502 425 L502 318 L221 318 L221 109 L417 109 L418 109 L540 109 L540 0 L414 0 Q386 0 367.5 -19.5 Q349 -39 349 -66 Q349 -94 367.5 -113 Q386 -132 414 -132 Q441 -132 460 -113 Q479 -94 479 -66 L540 -66 Q540 -92 530 -115 Q520 -138 503 -155 Q486 -172 463 -182 Q440 -192 414 -192 Q388 -192 365 -182 Q342 -172 325 -155 Q308 -138 298 -115 Q288 -92 288 -66 Z " />
<glyph glyph-name="Gbreve" unicode="&#x11e;" horiz-adv-x="840" d="M166 368 Q166 314 186.5 267 Q207 220 242 185 Q277 150 324 130 Q371 110 424 110 Q473 110 515 123 Q557 136 589.5 161.5 Q622 187 642 224.5 Q662 262 667 310 L433 310 L433 425 L789 425 Q792 411 793 396.5 Q794 382 794 367 Q794 280 765 210 Q736 140 686 91 Q636 42 569 15.5 Q502 -11 425 -11 Q345 -11 275.5 18.5 Q206 48 155 99.5 Q104 151 74.5 220 Q45 289 45 368 Q45 449 73.5 516.5 Q102 584 152.5 632.5 Q203 681 272.5 708.5 Q342 736 424 736 Q502 736 570 708 Q638 680 690 629 L604 549 Q570 583 524 602.5 Q478 622 424 622 Q367 622 320 603 Q273 584 238.5 550.5 Q204 517 185 470 Q166 423 166 368 Z M303 919 L376 919 L376 899 Q376 880 388.5 867 Q401 854 420 854 Q439 854 451.5 867 Q464 880 464 899 L464 919 L537 919 L537 904 Q537 880 528 858.5 Q519 837 503 821 Q487 805 465.5 796 Q444 787 420 787 Q396 787 374.5 796 Q353 805 337 821 Q321 837 312 858.5 Q303 880 303 904 L303 919 Z " />
<glyph glyph-name="Gcircumflex" unicode="&#x11c;" horiz-adv-x="840" d="M166 368 Q166 314 186.5 267 Q207 220 242 185 Q277 150 324 130 Q371 110 424 110 Q473 110 515 123 Q557 136 589.5 161.5 Q622 187 642 224.5 Q662 262 667 310 L433 310 L433 425 L789 425 Q792 411 793 396.5 Q794 382 794 367 Q794 280 765 210 Q736 140 686 91 Q636 42 569 15.5 Q502 -11 425 -11 Q345 -11 275.5 18.5 Q206 48 155 99.5 Q104 151 74.5 220 Q45 289 45 368 Q45 449 73.5 516.5 Q102 584 152.5 632.5 Q203 681 272.5 708.5 Q342 736 424 736 Q502 736 570 708 Q638 680 690 629 L604 549 Q570 583 524 602.5 Q478 622 424 622 Q367 622 320 603 Q273 584 238.5 550.5 Q204 517 185 470 Q166 423 166 368 Z M419 880 L326 787 L284 829 L420 965 L556 829 L513 787 L419 880 Z " />
<glyph glyph-name="Gdotaccent" unicode="&#x120;" horiz-adv-x="840" d="M166 368 Q166 314 186.5 267 Q207 220 242 185 Q277 150 324 130 Q371 110 424 110 Q473 110 515 123 Q557 136 589.5 161.5 Q622 187 642 224.5 Q662 262 667 310 L433 310 L433 425 L789 425 Q792 411 793 396.5 Q794 382 794 367 Q794 280 765 210 Q736 140 686 91 Q636 42 569 15.5 Q502 -11 425 -11 Q345 -11 275.5 18.5 Q206 48 155 99.5 Q104 151 74.5 220 Q45 289 45 368 Q45 449 73.5 516.5 Q102 584 152.5 632.5 Q203 681 272.5 708.5 Q342 736 424 736 Q502 736 570 708 Q638 680 690 629 L604 549 Q570 583 524 602.5 Q478 622 424 622 Q367 622 320 603 Q273 584 238.5 550.5 Q204 517 185 470 Q166 423 166 368 Z M338 886 Q338 920 362 944 Q386 968 420 968 Q454 968 478 944 Q502 920 502 886 Q502 852 478 828 Q454 804 420 804 Q386 804 362 828 Q338 852 338 886 Z " />
<glyph glyph-name="Gcommaaccent" unicode="&#x122;" horiz-adv-x="840" d="M166 368 Q166 314 186.5 267 Q207 220 242 185 Q277 150 324 130 Q371 110 424 110 Q473 110 515 123 Q557 136 589.5 161.5 Q622 187 642 224.5 Q662 262 667 310 L433 310 L433 425 L789 425 Q792 411 793 396.5 Q794 382 794 367 Q794 280 765 210 Q736 140 686 91 Q636 42 569 15.5 Q502 -11 425 -11 Q345 -11 275.5 18.5 Q206 48 155 99.5 Q104 151 74.5 220 Q45 289 45 368 Q45 449 73.5 516.5 Q102 584 152.5 632.5 Q203 681 272.5 708.5 Q342 736 424 736 Q502 736 570 708 Q638 680 690 629 L604 549 Q570 583 524 602.5 Q478 622 424 622 Q367 622 320 603 Q273 584 238.5 550.5 Q204 517 185 470 Q166 423 166 368 Z M374 -236 L405 -170 Q386 -166 374 -152 Q362 -138 362 -118 Q362 -95 377.5 -79.5 Q393 -64 414 -64 Q429 -64 440.5 -71 Q452 -78 459 -89.5 Q466 -101 467 -115.5 Q468 -130 461 -145 L410 -253 L374 -236 Z " />
<glyph glyph-name="Hbar" unicode="&#x126;" horiz-adv-x="780" d="M765 515 L699 515 L699 0 L568 0 L568 318 L212 318 L212 0 L81 0 L81 515 L16 515 L16 588 L81 588 L81 734 L212 734 L212 588 L568 588 L568 735 L699 735 L699 588 L765 588 L765 515 Z M568 425 L568 515 L212 515 L212 425 L568 425 Z " />
<glyph glyph-name="Hcircumflex" unicode="&#x124;" horiz-adv-x="780" d="M81 0 L81 734 L212 734 L212 425 L568 425 L568 735 L699 735 L699 0 L568 0 L568 318 L212 318 L212 0 L81 0 Z M389 880 L296 787 L254 829 L390 965 L526 829 L483 787 L389 880 Z " />
<glyph glyph-name="Iacute" unicode="&#xcd;" horiz-adv-x="504" d="M57 626 L57 735 L447 735 L447 626 L317 626 L317 109 L447 109 L447 0 L57 0 L57 109 L186 109 L186 626 L57 626 Z M255 789 L223 820 L331 963 Q343 979 365 980 Q387 981 401 967 Q415 953 414.5 931 Q414 909 397 896 L255 789 Z " />
<glyph glyph-name="Ibreve" unicode="&#x12c;" horiz-adv-x="504" d="M57 626 L57 735 L447 735 L447 626 L317 626 L317 109 L447 109 L447 0 L57 0 L57 109 L186 109 L186 626 L57 626 Z M135 919 L208 919 L208 899 Q208 880 220.5 867 Q233 854 252 854 Q271 854 283.5 867 Q296 880 296 899 L296 919 L369 919 L369 904 Q369 880 360 858.5 Q351 837 335 821 Q319 805 297.5 796 Q276 787 252 787 Q228 787 206.5 796 Q185 805 169 821 Q153 837 144 858.5 Q135 880 135 904 L135 919 Z " />
<glyph glyph-name="Icircumflex" unicode="&#xce;" horiz-adv-x="504" d="M57 626 L57 735 L447 735 L447 626 L317 626 L317 109 L447 109 L447 0 L57 0 L57 109 L186 109 L186 626 L57 626 Z M251 880 L158 787 L116 829 L252 965 L388 829 L345 787 L251 880 Z " />
<glyph glyph-name="Idieresis" unicode="&#xcf;" horiz-adv-x="504" d="M57 626 L57 735 L447 735 L447 626 L317 626 L317 109 L447 109 L447 0 L57 0 L57 109 L186 109 L186 626 L57 626 Z M63 886 Q63 920 87 944 Q111 968 145 968 Q179 968 203 944 Q227 920 227 886 Q227 852 203 828 Q179 804 145 804 Q111 804 87 828 Q63 852 63 886 Z M276 886 Q276 920 300 944 Q324 968 358 968 Q392 968 416 944 Q440 920 440 886 Q440 852 416 828 Q392 804 358 804 Q324 804 300 828 Q276 852 276 886 Z " />
<glyph glyph-name="Idotaccent" unicode="&#x130;" horiz-adv-x="504" d="M57 626 L57 735 L447 735 L447 626 L317 626 L317 109 L447 109 L447 0 L57 0 L57 109 L186 109 L186 626 L57 626 Z M170 886 Q170 920 194 944 Q218 968 252 968 Q286 968 310 944 Q334 920 334 886 Q334 852 310 828 Q286 804 252 804 Q218 804 194 828 Q170 852 170 886 Z " />
<glyph glyph-name="Igrave" unicode="&#xcc;" horiz-adv-x="504" d="M57 626 L57 735 L447 735 L447 626 L317 626 L317 109 L447 109 L447 0 L57 0 L57 109 L186 109 L186 626 L57 626 Z M106 896 Q89 909 88.5 931 Q88 953 102 967 Q116 981 138 980 Q160 979 173 963 L280 820 L249 789 L106 896 Z " />
<glyph glyph-name="Imacron" unicode="&#x12a;" horiz-adv-x="504" d="M57 626 L57 735 L447 735 L447 626 L317 626 L317 109 L447 109 L447 0 L57 0 L57 109 L186 109 L186 626 L57 626 Z M406 804 L97 804 L97 877 L406 877 L406 804 Z " />
<glyph glyph-name="Iogonek" unicode="&#x12e;" horiz-adv-x="504" d="M195 -66 Q195 -30 214 0 L57 0 L57 109 L186 109 L186 626 L57 626 L57 735 L447 735 L447 626 L317 626 L317 109 L447 109 L447 0 L316 0 Q290 -2 273 -21 Q256 -40 256 -66 Q256 -94 274.5 -113 Q293 -132 321 -132 Q348 -132 367 -113 Q386 -94 386 -66 L447 -66 Q447 -92 437 -115 Q427 -138 410 -155 Q393 -172 370 -182 Q347 -192 321 -192 Q295 -192 272 -182 Q249 -172 232 -155 Q215 -138 205 -115 Q195 -92 195 -66 Z " />
<glyph glyph-name="Itilde" unicode="&#x128;" horiz-adv-x="504" d="M57 626 L57 735 L447 735 L447 626 L317 626 L317 109 L447 109 L447 0 L57 0 L57 109 L186 109 L186 626 L57 626 Z M310 931 Q333 931 351.5 922.5 Q370 914 383.5 899.5 Q397 885 404.5 866 Q412 847 412 826 L347 826 Q347 846 337 858 Q327 870 310 870 Q297 870 286.5 861 Q276 852 263.5 841.5 Q251 831 235 822.5 Q219 814 194 814 Q170 814 151 822.5 Q132 831 119 845.5 Q106 860 99 878.5 Q92 897 92 918 L157 918 Q157 898 166.5 886 Q176 874 194 874 Q207 874 217.5 883 Q228 892 240 902.5 Q252 913 268.5 922 Q285 931 310 931 Z " />
<glyph glyph-name="Jcircumflex" unicode="&#x134;" horiz-adv-x="497" d="M150 188 Q150 156 172.5 134 Q195 112 227 112 Q258 112 280.5 134 Q303 156 303 188 L303 735 L425 735 L425 188 Q425 147 409.5 111 Q394 75 367 48 Q340 21 304 5.5 Q268 -10 227 -10 Q186 -10 150 5.5 Q114 21 87 48 Q60 75 44.5 111 Q29 147 29 188 L150 188 Z M361 880 L268 787 L226 829 L362 965 L498 829 L455 787 L361 880 Z " />
<glyph glyph-name="Kcommaaccent" unicode="&#x136;" horiz-adv-x="724" d="M205 318 L205 0 L81 0 L81 735 L205 735 L205 425 L360 425 L539 735 L678 735 L469 374 L684 0 L545 0 L364 318 L205 318 Z M316 -236 L347 -170 Q328 -166 316 -152 Q304 -138 304 -118 Q304 -95 319.5 -79.5 Q335 -64 357 -64 Q372 -64 383.5 -71 Q395 -78 401.5 -89.5 Q408 -101 409 -115.5 Q410 -130 403 -145 L352 -253 L316 -236 Z " />
<glyph glyph-name="Lacute" unicode="&#x139;" horiz-adv-x="481" d="M461 0 L81 0 L81 735 L207 735 L207 109 L461 109 L461 0 Z M173 789 L142 820 L250 963 Q262 979 284 980 Q306 981 320 967 Q334 953 333.5 931 Q333 909 316 896 L173 789 Z " />
<glyph glyph-name="Lcaron" unicode="&#x13d;" horiz-adv-x="481" d="M461 0 L81 0 L81 735 L207 735 L207 109 L461 109 L461 0 Z M328 551 L374 649 Q345 654 326 676.5 Q307 699 307 730 Q307 764 331 788 Q355 812 389 812 Q412 812 429.5 801 Q447 790 457 772 Q467 754 468 731.5 Q469 709 459 687 L382 524 L328 551 Z " />
<glyph glyph-name="Lcommaaccent" unicode="&#x13b;" horiz-adv-x="481" d="M461 0 L81 0 L81 735 L207 735 L207 109 L461 109 L461 0 Z M226 -236 L257 -170 Q238 -166 225.5 -152 Q213 -138 213 -118 Q213 -95 228.5 -79.5 Q244 -64 266 -64 Q281 -64 292.5 -71 Q304 -78 311 -89.5 Q318 -101 319 -115.5 Q320 -130 313 -145 L262 -253 L226 -236 Z " />
<glyph glyph-name="Ldot" unicode="&#x13f;" horiz-adv-x="481" d="M461 0 L81 0 L81 735 L207 735 L207 109 L461 109 L461 0 Z M287 366 Q287 400 311 424 Q335 448 369 448 Q403 448 427 424 Q451 400 451 366 Q451 332 427 308 Q403 284 369 284 Q335 284 311 308 Q287 332 287 366 Z " />
<glyph glyph-name="Lslash" unicode="&#x141;" horiz-adv-x="481" d="M461 0 L81 0 L81 292 L8 272 L-11 341 L81 365 L81 735 L207 735 L207 399 L292 422 L311 353 L207 325 L207 109 L461 109 L461 0 Z " />
<glyph glyph-name="Nacute" unicode="&#x143;" horiz-adv-x="802" d="M596 735 L721 735 L721 5 L709 -1 L206 464 L206 0 L81 0 L81 730 L92 735 L596 270 L596 735 Z M384 789 L353 820 L461 963 Q473 979 495 980 Q517 981 531 967 Q545 953 544.5 931 Q544 909 527 896 L384 789 Z " />
<glyph glyph-name="Ncaron" unicode="&#x147;" horiz-adv-x="802" d="M596 735 L721 735 L721 5 L709 -1 L206 464 L206 0 L81 0 L81 730 L92 735 L596 270 L596 735 Z M402 872 L494 965 L536 923 L400 787 L264 923 L307 965 L402 872 Z " />
<glyph glyph-name="Ncommaaccent" unicode="&#x145;" horiz-adv-x="802" d="M596 735 L721 735 L721 5 L709 -1 L206 464 L206 0 L81 0 L81 730 L92 735 L596 270 L596 735 Z M374 -236 L405 -170 Q386 -166 373.5 -152 Q361 -138 361 -118 Q361 -95 376.5 -79.5 Q392 -64 414 -64 Q429 -64 440.5 -71 Q452 -78 459 -89.5 Q466 -101 466.5 -115.5 Q467 -130 460 -145 L409 -253 L374 -236 Z " />
<glyph glyph-name="Ntilde" unicode="&#xd1;" horiz-adv-x="802" d="M596 735 L721 735 L721 5 L709 -1 L206 464 L206 0 L81 0 L81 730 L92 735 L596 270 L596 735 Z M459 931 Q482 931 500.5 922.5 Q519 914 532.5 899.5 Q546 885 553.5 866 Q561 847 561 826 L495 826 Q495 846 485.5 858 Q476 870 459 870 Q445 870 434.5 861 Q424 852 411.5 841.5 Q399 831 383 822.5 Q367 814 342 814 Q319 814 300 822.5 Q281 831 267.5 845.5 Q254 860 247 878.5 Q240 897 240 918 L306 918 Q306 898 315.5 886 Q325 874 342 874 Q355 874 365.5 883 Q376 892 388.5 902.5 Q401 913 417.5 922 Q434 931 459 931 Z " />
<glyph glyph-name="Oacute" unicode="&#xd3;" horiz-adv-x="850" d="M46 368 Q46 446 76 515 Q106 584 157.5 635.5 Q209 687 278 717 Q347 747 425 747 Q503 747 572 717 Q641 687 692.5 635.5 Q744 584 774 515 Q804 446 804 368 Q804 290 774 221 Q744 152 692.5 100.5 Q641 49 572 19 Q503 -11 425 -11 Q347 -11 278 19 Q209 49 157.5 100.5 Q106 152 76 221 Q46 290 46 368 Z M174 368 Q174 316 194 270.5 Q214 225 248 191 Q282 157 327.5 137 Q373 117 425 117 Q477 117 522.5 137 Q568 157 602 191 Q636 225 656 270.5 Q676 316 676 368 Q676 420 656 465.5 Q636 511 602 545 Q568 579 522.5 599 Q477 619 425 619 Q373 619 327.5 599 Q282 579 248 545 Q214 511 194 465.5 Q174 420 174 368 Z M428 789 L397 820 L504 963 Q517 979 538.5 980 Q560 981 574 967 Q588 953 587.5 931 Q587 909 571 896 L428 789 Z " />
<glyph glyph-name="Obreve" unicode="&#x14e;" horiz-adv-x="850" d="M46 368 Q46 446 76 515 Q106 584 157.5 635.5 Q209 687 278 717 Q347 747 425 747 Q503 747 572 717 Q641 687 692.5 635.5 Q744 584 774 515 Q804 446 804 368 Q804 290 774 221 Q744 152 692.5 100.5 Q641 49 572 19 Q503 -11 425 -11 Q347 -11 278 19 Q209 49 157.5 100.5 Q106 152 76 221 Q46 290 46 368 Z M174 368 Q174 316 194 270.5 Q214 225 248 191 Q282 157 327.5 137 Q373 117 425 117 Q477 117 522.5 137 Q568 157 602 191 Q636 225 656 270.5 Q676 316 676 368 Q676 420 656 465.5 Q636 511 602 545 Q568 579 522.5 599 Q477 619 425 619 Q373 619 327.5 599 Q282 579 248 545 Q214 511 194 465.5 Q174 420 174 368 Z M308 919 L381 919 L381 899 Q381 880 393.5 867 Q406 854 425 854 Q444 854 456.5 867 Q469 880 469 899 L469 919 L542 919 L542 904 Q542 880 533 858.5 Q524 837 508 821 Q492 805 470.5 796 Q449 787 425 787 Q401 787 379.5 796 Q358 805 342 821 Q326 837 317 858.5 Q308 880 308 904 L308 919 Z " />
<glyph glyph-name="Ocircumflex" unicode="&#xd4;" horiz-adv-x="850" d="M46 368 Q46 446 76 515 Q106 584 157.5 635.5 Q209 687 278 717 Q347 747 425 747 Q503 747 572 717 Q641 687 692.5 635.5 Q744 584 774 515 Q804 446 804 368 Q804 290 774 221 Q744 152 692.5 100.5 Q641 49 572 19 Q503 -11 425 -11 Q347 -11 278 19 Q209 49 157.5 100.5 Q106 152 76 221 Q46 290 46 368 Z M174 368 Q174 316 194 270.5 Q214 225 248 191 Q282 157 327.5 137 Q373 117 425 117 Q477 117 522.5 137 Q568 157 602 191 Q636 225 656 270.5 Q676 316 676 368 Q676 420 656 465.5 Q636 511 602 545 Q568 579 522.5 599 Q477 619 425 619 Q373 619 327.5 599 Q282 579 248 545 Q214 511 194 465.5 Q174 420 174 368 Z M424 880 L332 787 L289 829 L425 965 L561 829 L519 787 L424 880 Z " />
<glyph glyph-name="Odieresis" unicode="&#xd6;" horiz-adv-x="850" d="M46 368 Q46 446 76 515 Q106 584 157.5 635.5 Q209 687 278 717 Q347 747 425 747 Q503 747 572 717 Q641 687 692.5 635.5 Q744 584 774 515 Q804 446 804 368 Q804 290 774 221 Q744 152 692.5 100.5 Q641 49 572 19 Q503 -11 425 -11 Q347 -11 278 19 Q209 49 157.5 100.5 Q106 152 76 221 Q46 290 46 368 Z M174 368 Q174 316 194 270.5 Q214 225 248 191 Q282 157 327.5 137 Q373 117 425 117 Q477 117 522.5 137 Q568 157 602 191 Q636 225 656 270.5 Q676 316 676 368 Q676 420 656 465.5 Q636 511 602 545 Q568 579 522.5 599 Q477 619 425 619 Q373 619 327.5 599 Q282 579 248 545 Q214 511 194 465.5 Q174 420 174 368 Z M237 886 Q237 920 260.5 944 Q284 968 319 968 Q353 968 376.5 944 Q400 920 400 886 Q400 852 376.5 828 Q353 804 319 804 Q284 804 260.5 828 Q237 852 237 886 Z M450 886 Q450 920 473.5 944 Q497 968 532 968 Q566 968 589.5 944 Q613 920 613 886 Q613 852 589.5 828 Q566 804 532 804 Q497 804 473.5 828 Q450 852 450 886 Z " />
<glyph glyph-name="Ograve" unicode="&#xd2;" horiz-adv-x="850" d="M46 368 Q46 446 76 515 Q106 584 157.5 635.5 Q209 687 278 717 Q347 747 425 747 Q503 747 572 717 Q641 687 692.5 635.5 Q744 584 774 515 Q804 446 804 368 Q804 290 774 221 Q744 152 692.5 100.5 Q641 49 572 19 Q503 -11 425 -11 Q347 -11 278 19 Q209 49 157.5 100.5 Q106 152 76 221 Q46 290 46 368 Z M174 368 Q174 316 194 270.5 Q214 225 248 191 Q282 157 327.5 137 Q373 117 425 117 Q477 117 522.5 137 Q568 157 602 191 Q636 225 656 270.5 Q676 316 676 368 Q676 420 656 465.5 Q636 511 602 545 Q568 579 522.5 599 Q477 619 425 619 Q373 619 327.5 599 Q282 579 248 545 Q214 511 194 465.5 Q174 420 174 368 Z M280 896 Q263 909 262.5 931 Q262 953 276 967 Q290 981 312 980 Q334 979 346 963 L453 820 L422 789 L280 896 Z " />
<glyph glyph-name="Ohungarumlaut" unicode="&#x150;" horiz-adv-x="850" d="M46 368 Q46 446 76 515 Q106 584 157.5 635.5 Q209 687 278 717 Q347 747 425 747 Q503 747 572 717 Q641 687 692.5 635.5 Q744 584 774 515 Q804 446 804 368 Q804 290 774 221 Q744 152 692.5 100.5 Q641 49 572 19 Q503 -11 425 -11 Q347 -11 278 19 Q209 49 157.5 100.5 Q106 152 76 221 Q46 290 46 368 Z M174 368 Q174 316 194 270.5 Q214 225 248 191 Q282 157 327.5 137 Q373 117 425 117 Q477 117 522.5 137 Q568 157 602 191 Q636 225 656 270.5 Q676 316 676 368 Q676 420 656 465.5 Q636 511 602 545 Q568 579 522.5 599 Q477 619 425 619 Q373 619 327.5 599 Q282 579 248 545 Q214 511 194 465.5 Q174 420 174 368 Z M332 789 L301 820 L409 963 Q421 979 443 980 Q465 981 479 967 Q493 953 492.5 931 Q492 909 475 896 L332 789 Z M523 789 L492 820 L600 963 Q612 979 634 980 Q656 981 670 967 Q684 953 683.5 931 Q683 909 666 896 L523 789 Z " />
<glyph glyph-name="Omacron" unicode="&#x14c;" horiz-adv-x="850" d="M46 368 Q46 446 76 515 Q106 584 157.5 635.5 Q209 687 278 717 Q347 747 425 747 Q503 747 572 717 Q641 687 692.5 635.5 Q744 584 774 515 Q804 446 804 368 Q804 290 774 221 Q744 152 692.5 100.5 Q641 49 572 19 Q503 -11 425 -11 Q347 -11 278 19 Q209 49 157.5 100.5 Q106 152 76 221 Q46 290 46 368 Z M174 368 Q174 316 194 270.5 Q214 225 248 191 Q282 157 327.5 137 Q373 117 425 117 Q477 117 522.5 137 Q568 157 602 191 Q636 225 656 270.5 Q676 316 676 368 Q676 420 656 465.5 Q636 511 602 545 Q568 579 522.5 599 Q477 619 425 619 Q373 619 327.5 599 Q282 579 248 545 Q214 511 194 465.5 Q174 420 174 368 Z M580 804 L271 804 L271 877 L580 877 L580 804 Z " />
<glyph glyph-name="Oslashacute" unicode="&#x1fe;" horiz-adv-x="850" d="M45 368 Q45 446 75 515 Q105 584 156.5 635.5 Q208 687 277.5 717 Q347 747 425 747 Q487 747 543 728 Q599 709 647 674 L714 741 L797 658 L730 591 Q765 543 784.5 487 Q804 431 804 368 Q804 290 774 221 Q744 152 692.5 100.5 Q641 49 572 19 Q503 -11 425 -11 Q362 -11 305 8 Q248 27 201 62 L135 -4 L52 80 L118 145 Q83 193 64 249 Q45 305 45 368 Z M425 117 Q477 117 522.5 137 Q568 157 602 191 Q636 225 656 270.5 Q676 316 676 368 Q676 404 665.5 437 Q655 470 637 499 L294 155 Q350 117 425 117 Z M174 368 Q174 297 211 238 L553 581 Q525 599 492.5 609 Q460 619 425 619 Q373 619 327.5 599 Q282 579 248 545 Q214 511 194 465.5 Q174 420 174 368 Z M428 789 L397 820 L504 963 Q517 979 538.5 980 Q560 981 574 967 Q588 953 587.5 931 Q587 909 571 896 L428 789 Z " />
<glyph glyph-name="Otilde" unicode="&#xd5;" horiz-adv-x="850" d="M46 368 Q46 446 76 515 Q106 584 157.5 635.5 Q209 687 278 717 Q347 747 425 747 Q503 747 572 717 Q641 687 692.5 635.5 Q744 584 774 515 Q804 446 804 368 Q804 290 774 221 Q744 152 692.5 100.5 Q641 49 572 19 Q503 -11 425 -11 Q347 -11 278 19 Q209 49 157.5 100.5 Q106 152 76 221 Q46 290 46 368 Z M174 368 Q174 316 194 270.5 Q214 225 248 191 Q282 157 327.5 137 Q373 117 425 117 Q477 117 522.5 137 Q568 157 602 191 Q636 225 656 270.5 Q676 316 676 368 Q676 420 656 465.5 Q636 511 602 545 Q568 579 522.5 599 Q477 619 425 619 Q373 619 327.5 599 Q282 579 248 545 Q214 511 194 465.5 Q174 420 174 368 Z M483 931 Q506 931 525 922.5 Q544 914 557.5 899.5 Q571 885 578 866 Q585 847 585 826 L520 826 Q520 846 510 858 Q500 870 483 870 Q470 870 459.5 861 Q449 852 436.5 841.5 Q424 831 408 822.5 Q392 814 367 814 Q344 814 325 822.5 Q306 831 292.5 845.5 Q279 860 272 878.5 Q265 897 265 918 L330 918 Q330 898 340 886 Q350 874 367 874 Q380 874 390.5 883 Q401 892 413.5 902.5 Q426 913 442 922 Q458 931 483 931 Z " />
<glyph glyph-name="Racute" unicode="&#x154;" horiz-adv-x="671" d="M206 0 L81 0 L81 735 L394 735 Q442 735 484 717 Q526 699 557.5 667.5 Q589 636 607 594 Q625 552 625 504 Q625 436 591 382 Q557 328 501 299 L617 0 L485 0 L378 274 L206 274 L206 0 Z M381 382 Q406 382 428.5 391.5 Q451 401 467.5 417.5 Q484 434 493.5 456.5 Q503 479 503 504 Q503 529 493.5 551.5 Q484 574 467.5 590.5 Q451 607 428.5 616.5 Q406 626 381 626 L206 626 L206 382 L381 382 Z M268 789 L237 820 L344 963 Q356 979 378 980 Q400 981 414 967 Q428 953 427.5 931 Q427 909 410 896 L268 789 Z " />
<glyph glyph-name="Rcaron" unicode="&#x158;" horiz-adv-x="671" d="M206 0 L81 0 L81 735 L394 735 Q442 735 484 717 Q526 699 557.5 667.5 Q589 636 607 594 Q625 552 625 504 Q625 436 591 382 Q557 328 501 299 L617 0 L485 0 L378 274 L206 274 L206 0 Z M381 382 Q406 382 428.5 391.5 Q451 401 467.5 417.5 Q484 434 493.5 456.5 Q503 479 503 504 Q503 529 493.5 551.5 Q484 574 467.5 590.5 Q451 607 428.5 616.5 Q406 626 381 626 L206 626 L206 382 L381 382 Z M336 872 L428 965 L471 923 L335 787 L199 923 L241 965 L336 872 Z " />
<glyph glyph-name="Rcommaaccent" unicode="&#x156;" horiz-adv-x="671" d="M206 0 L81 0 L81 735 L394 735 Q442 735 484 717 Q526 699 557.5 667.5 Q589 636 607 594 Q625 552 625 504 Q625 436 591 382 Q557 328 501 299 L617 0 L485 0 L378 274 L206 274 L206 0 Z M381 382 Q406 382 428.5 391.5 Q451 401 467.5 417.5 Q484 434 493.5 456.5 Q503 479 503 504 Q503 529 493.5 551.5 Q484 574 467.5 590.5 Q451 607 428.5 616.5 Q406 626 381 626 L206 626 L206 382 L381 382 Z M289 -236 L320 -170 Q301 -166 289 -152 Q277 -138 277 -118 Q277 -95 292.5 -79.5 Q308 -64 330 -64 Q345 -64 356.5 -71 Q368 -78 374.5 -89.5 Q381 -101 382 -115.5 Q383 -130 376 -145 L325 -253 L289 -236 Z " />
<glyph glyph-name="Sacute" unicode="&#x15a;" horiz-adv-x="609" d="M317 -16 Q271 -16 230 -6.5 Q189 3 154.5 19.5 Q120 36 94 57.5 Q68 79 52 103 L145 179 Q172 148 217 126.5 Q262 105 318 105 Q378 105 408 127.5 Q438 150 438 184 Q438 215 419.5 237 Q401 259 356 278 L221 337 Q130 377 90 429 Q50 481 50 551 Q50 594 68 631 Q86 668 119 695 Q152 722 197.5 737 Q243 752 299 752 Q363 752 410.5 732 Q458 712 490 679.5 Q522 647 538 606.5 Q554 566 554 526 L431 526 Q431 535 425 553 Q419 571 404 589 Q389 607 363.5 620 Q338 633 299 633 Q244 633 212.5 609.5 Q181 586 181 551 Q181 519 202 498.5 Q223 478 260 461 L397 399 Q485 359 527 308.5 Q569 258 569 184 Q569 134 548.5 96.5 Q528 59 493.5 34 Q459 9 413.5 -3.5 Q368 -16 317 -16 Z M297 789 L266 820 L374 963 Q386 979 408 980 Q430 981 444 967 Q458 953 457.5 931 Q457 909 440 896 L297 789 Z " />
<glyph glyph-name="Scaron" unicode="&#x160;" horiz-adv-x="609" d="M317 -16 Q271 -16 230 -6.5 Q189 3 154.5 19.5 Q120 36 94 57.5 Q68 79 52 103 L145 179 Q172 148 217 126.5 Q262 105 318 105 Q378 105 408 127.5 Q438 150 438 184 Q438 215 419.5 237 Q401 259 356 278 L221 337 Q130 377 90 429 Q50 481 50 551 Q50 594 68 631 Q86 668 119 695 Q152 722 197.5 737 Q243 752 299 752 Q363 752 410.5 732 Q458 712 490 679.5 Q522 647 538 606.5 Q554 566 554 526 L431 526 Q431 535 425 553 Q419 571 404 589 Q389 607 363.5 620 Q338 633 299 633 Q244 633 212.5 609.5 Q181 586 181 551 Q181 519 202 498.5 Q223 478 260 461 L397 399 Q485 359 527 308.5 Q569 258 569 184 Q569 134 548.5 96.5 Q528 59 493.5 34 Q459 9 413.5 -3.5 Q368 -16 317 -16 Z M306 872 L398 965 L441 923 L305 787 L169 923 L211 965 L306 872 Z " />
<glyph glyph-name="Scedilla" unicode="&#x15e;" horiz-adv-x="609" d="M413 -127 Q413 -168 385 -195.5 Q357 -223 317 -223 Q297 -223 280 -215.5 Q263 -208 249 -195 L292 -154 Q302 -163 317 -163 Q332 -163 342.5 -153 Q353 -143 353 -127 Q353 -112 342.5 -102 Q332 -92 317 -92 Q301 -92 291 -102 L249 -59 Q264 -42 287 -36 L287 -14 Q205 -8 143 25 Q81 58 52 103 L145 179 Q172 148 217 126.5 Q262 105 318 105 Q378 105 408 127.5 Q438 150 438 184 Q438 215 419.5 237 Q401 259 356 278 L221 337 Q130 377 90 429 Q50 481 50 551 Q50 594 68 631 Q86 668 119 695 Q152 722 197.5 737 Q243 752 299 752 Q363 752 410.5 732 Q458 712 490 679.5 Q522 647 538 606.5 Q554 566 554 526 L431 526 Q431 535 425 553 Q419 571 404 589 Q389 607 363.5 620 Q338 633 299 633 Q244 633 212.5 609.5 Q181 586 181 551 Q181 519 202 498.5 Q223 478 260 461 L397 399 Q485 359 527 308.5 Q569 258 569 184 Q569 138 551.5 102.5 Q534 67 504 42 Q474 17 433.5 2.5 Q393 -12 347 -15 L347 -36 Q376 -45 394.5 -70 Q413 -95 413 -127 Z " />
<glyph glyph-name="Scircumflex" unicode="&#x15c;" horiz-adv-x="609" d="M317 -16 Q271 -16 230 -6.5 Q189 3 154.5 19.5 Q120 36 94 57.5 Q68 79 52 103 L145 179 Q172 148 217 126.5 Q262 105 318 105 Q378 105 408 127.5 Q438 150 438 184 Q438 215 419.5 237 Q401 259 356 278 L221 337 Q130 377 90 429 Q50 481 50 551 Q50 594 68 631 Q86 668 119 695 Q152 722 197.5 737 Q243 752 299 752 Q363 752 410.5 732 Q458 712 490 679.5 Q522 647 538 606.5 Q554 566 554 526 L431 526 Q431 535 425 553 Q419 571 404 589 Q389 607 363.5 620 Q338 633 299 633 Q244 633 212.5 609.5 Q181 586 181 551 Q181 519 202 498.5 Q223 478 260 461 L397 399 Q485 359 527 308.5 Q569 258 569 184 Q569 134 548.5 96.5 Q528 59 493.5 34 Q459 9 413.5 -3.5 Q368 -16 317 -16 Z M304 880 L211 787 L169 829 L305 965 L441 829 L398 787 L304 880 Z " />
<glyph glyph-name="Scommaaccent" unicode="&#x218;" horiz-adv-x="609" d="M317 -16 Q271 -16 230 -6.5 Q189 3 154.5 19.5 Q120 36 94 57.5 Q68 79 52 103 L145 179 Q172 148 217 126.5 Q262 105 318 105 Q378 105 408 127.5 Q438 150 438 184 Q438 215 419.5 237 Q401 259 356 278 L221 337 Q130 377 90 429 Q50 481 50 551 Q50 594 68 631 Q86 668 119 695 Q152 722 197.5 737 Q243 752 299 752 Q363 752 410.5 732 Q458 712 490 679.5 Q522 647 538 606.5 Q554 566 554 526 L431 526 Q431 535 425 553 Q419 571 404 589 Q389 607 363.5 620 Q338 633 299 633 Q244 633 212.5 609.5 Q181 586 181 551 Q181 519 202 498.5 Q223 478 260 461 L397 399 Q485 359 527 308.5 Q569 258 569 184 Q569 134 548.5 96.5 Q528 59 493.5 34 Q459 9 413.5 -3.5 Q368 -16 317 -16 Z M265 -236 L296 -170 Q277 -166 264.5 -152 Q252 -138 252 -118 Q252 -95 267.5 -79.5 Q283 -64 305 -64 Q320 -64 331.5 -71 Q343 -78 350 -89.5 Q357 -101 357.5 -115.5 Q358 -130 351 -145 L300 -253 L265 -236 Z " />
<glyph glyph-name="Tbar" unicode="&#x166;" horiz-adv-x="557" d="M539 734 L539 626 L341 626 L341 489 L422 511 L440 442 L341 415 L341 0 L216 0 L216 382 L137 361 L119 430 L216 455 L216 626 L17 626 L17 734 L539 734 Z " />
<glyph glyph-name="Tcaron" unicode="&#x164;" horiz-adv-x="557" d="M539 734 L539 626 L341 626 L341 0 L216 0 L216 626 L17 626 L17 734 L539 734 Z M279 872 L372 965 L414 923 L278 787 L142 923 L185 965 L279 872 Z " />
<glyph glyph-name="Tcommaaccent" unicode="&#x162;" horiz-adv-x="557" d="M539 734 L539 626 L341 626 L341 0 L216 0 L216 626 L17 626 L17 734 L539 734 Z M233 -236 L263 -170 Q244 -166 232 -152 Q220 -138 220 -118 Q220 -95 235.5 -79.5 Q251 -64 273 -64 Q288 -64 299.5 -71 Q311 -78 317.5 -89.5 Q324 -101 325 -115.5 Q326 -130 319 -145 L268 -253 L233 -236 Z " />
<glyph glyph-name="Uacute" unicode="&#xda;" horiz-adv-x="761" d="M180 317 Q180 271 195.5 233 Q211 195 238 167.5 Q265 140 301.5 125 Q338 110 380 110 Q422 110 458.5 125 Q495 140 522.5 167.5 Q550 195 565.5 233 Q581 271 581 317 L581 735 L708 735 L708 317 Q708 249 682.5 189 Q657 129 612.5 84.5 Q568 40 508 14.5 Q448 -11 380 -11 Q312 -11 252 14.5 Q192 40 147.5 84.5 Q103 129 77.5 189 Q52 249 52 317 L52 735 L180 735 L180 317 Z M373 789 L342 820 L450 963 Q462 979 484 980 Q506 981 520 967 Q534 953 533.5 931 Q533 909 516 896 L373 789 Z " />
<glyph glyph-name="Ubreve" unicode="&#x16c;" horiz-adv-x="761" d="M180 317 Q180 271 195.5 233 Q211 195 238 167.5 Q265 140 301.5 125 Q338 110 380 110 Q422 110 458.5 125 Q495 140 522.5 167.5 Q550 195 565.5 233 Q581 271 581 317 L581 735 L708 735 L708 317 Q708 249 682.5 189 Q657 129 612.5 84.5 Q568 40 508 14.5 Q448 -11 380 -11 Q312 -11 252 14.5 Q192 40 147.5 84.5 Q103 129 77.5 189 Q52 249 52 317 L52 735 L180 735 L180 317 Z M263 919 L336 919 L336 899 Q336 880 349 867 Q362 854 380 854 Q399 854 412 867 Q425 880 425 899 L425 919 L497 919 L497 904 Q497 880 488 858.5 Q479 837 463 821 Q447 805 425.5 796 Q404 787 380 787 Q356 787 334.5 796 Q313 805 297 821 Q281 837 272 858.5 Q263 880 263 904 L263 919 Z " />
<glyph glyph-name="Ucircumflex" unicode="&#xdb;" horiz-adv-x="761" d="M180 317 Q180 271 195.5 233 Q211 195 238 167.5 Q265 140 301.5 125 Q338 110 380 110 Q422 110 458.5 125 Q495 140 522.5 167.5 Q550 195 565.5 233 Q581 271 581 317 L581 735 L708 735 L708 317 Q708 249 682.5 189 Q657 129 612.5 84.5 Q568 40 508 14.5 Q448 -11 380 -11 Q312 -11 252 14.5 Q192 40 147.5 84.5 Q103 129 77.5 189 Q52 249 52 317 L52 735 L180 735 L180 317 Z M379 880 L287 787 L244 829 L380 965 L516 829 L474 787 L379 880 Z " />
<glyph glyph-name="Udieresis" unicode="&#xdc;" horiz-adv-x="761" d="M180 317 Q180 271 195.5 233 Q211 195 238 167.5 Q265 140 301.5 125 Q338 110 380 110 Q422 110 458.5 125 Q495 140 522.5 167.5 Q550 195 565.5 233 Q581 271 581 317 L581 735 L708 735 L708 317 Q708 249 682.5 189 Q657 129 612.5 84.5 Q568 40 508 14.5 Q448 -11 380 -11 Q312 -11 252 14.5 Q192 40 147.5 84.5 Q103 129 77.5 189 Q52 249 52 317 L52 735 L180 735 L180 317 Z M192 886 Q192 920 216 944 Q240 968 274 968 Q308 968 332 944 Q356 920 356 886 Q356 852 332 828 Q308 804 274 804 Q240 804 216 828 Q192 852 192 886 Z M405 886 Q405 920 429 944 Q453 968 487 968 Q521 968 545 944 Q569 920 569 886 Q569 852 545 828 Q521 804 487 804 Q453 804 429 828 Q405 852 405 886 Z " />
<glyph glyph-name="Ugrave" unicode="&#xd9;" horiz-adv-x="761" d="M180 317 Q180 271 195.5 233 Q211 195 238 167.5 Q265 140 301.5 125 Q338 110 380 110 Q422 110 458.5 125 Q495 140 522.5 167.5 Q550 195 565.5 233 Q581 271 581 317 L581 735 L708 735 L708 317 Q708 249 682.5 189 Q657 129 612.5 84.5 Q568 40 508 14.5 Q448 -11 380 -11 Q312 -11 252 14.5 Q192 40 147.5 84.5 Q103 129 77.5 189 Q52 249 52 317 L52 735 L180 735 L180 317 Z M245 896 Q228 909 227.5 931 Q227 953 241 967 Q255 981 277 980 Q299 979 311 963 L419 820 L388 789 L245 896 Z " />
<glyph glyph-name="Uhungarumlaut" unicode="&#x170;" horiz-adv-x="761" d="M180 317 Q180 271 195.5 233 Q211 195 238 167.5 Q265 140 301.5 125 Q338 110 380 110 Q422 110 458.5 125 Q495 140 522.5 167.5 Q550 195 565.5 233 Q581 271 581 317 L581 735 L708 735 L708 317 Q708 249 682.5 189 Q657 129 612.5 84.5 Q568 40 508 14.5 Q448 -11 380 -11 Q312 -11 252 14.5 Q192 40 147.5 84.5 Q103 129 77.5 189 Q52 249 52 317 L52 735 L180 735 L180 317 Z M278 789 L247 820 L354 963 Q366 979 388 980 Q410 981 424 967 Q438 953 437.5 931 Q437 909 420 896 L278 789 Z M469 789 L438 820 L545 963 Q557 979 579 980 Q601 981 615 967 Q629 953 628.5 931 Q628 909 611 896 L469 789 Z " />
<glyph glyph-name="Umacron" unicode="&#x16a;" horiz-adv-x="761" d="M180 317 Q180 271 195.5 233 Q211 195 238 167.5 Q265 140 301.5 125 Q338 110 380 110 Q422 110 458.5 125 Q495 140 522.5 167.5 Q550 195 565.5 233 Q581 271 581 317 L581 735 L708 735 L708 317 Q708 249 682.5 189 Q657 129 612.5 84.5 Q568 40 508 14.5 Q448 -11 380 -11 Q312 -11 252 14.5 Q192 40 147.5 84.5 Q103 129 77.5 189 Q52 249 52 317 L52 735 L180 735 L180 317 Z M535 804 L226 804 L226 877 L535 877 L535 804 Z " />
<glyph glyph-name="Uogonek" unicode="&#x172;" horiz-adv-x="761" d="M255 -77 Q255 -54 262.5 -33.5 Q270 -13 283 3 Q233 18 190.5 48.5 Q148 79 117 120 Q86 161 69 211 Q52 261 52 317 L52 735 L180 735 L180 317 Q180 271 195.5 233 Q211 195 238 167.5 Q265 140 301.5 125 Q338 110 380 110 Q422 110 458.5 125 Q495 140 522.5 167.5 Q550 195 565.5 233 Q581 271 581 317 L581 735 L708 735 L708 317 Q708 249 682.5 189 Q657 129 612.5 84.5 Q568 40 508 14.5 Q448 -11 380 -11 Q353 -11 334 -30.5 Q315 -50 315 -77 Q315 -105 334 -124 Q353 -143 380 -143 Q407 -143 426.5 -124 Q446 -105 446 -77 L506 -77 Q506 -103 496 -126 Q486 -149 469 -166 Q452 -183 429 -193 Q406 -203 380 -203 Q354 -203 331.5 -193 Q309 -183 292 -166 Q275 -149 265 -126 Q255 -103 255 -77 Z " />
<glyph glyph-name="Uring" unicode="&#x16e;" horiz-adv-x="761" d="M180 317 Q180 271 195.5 233 Q211 195 238 167.5 Q265 140 301.5 125 Q338 110 380 110 Q422 110 458.5 125 Q495 140 522.5 167.5 Q550 195 565.5 233 Q581 271 581 317 L581 735 L708 735 L708 317 Q708 249 682.5 189 Q657 129 612.5 84.5 Q568 40 508 14.5 Q448 -11 380 -11 Q312 -11 252 14.5 Q192 40 147.5 84.5 Q103 129 77.5 189 Q52 249 52 317 L52 735 L180 735 L180 317 Z M284 895 Q284 935 312 963 Q340 991 380 991 Q420 991 448 963 Q476 935 476 895 Q476 855 448 827 Q420 799 380 799 Q340 799 312 827 Q284 855 284 895 Z M345 895 Q345 880 355 869.5 Q365 859 380 859 Q396 859 406 869.5 Q416 880 416 895 Q416 910 406 920.5 Q396 931 380 931 Q365 931 355 920.5 Q345 910 345 895 Z " />
<glyph glyph-name="Utilde" unicode="&#x168;" horiz-adv-x="761" d="M180 317 Q180 271 195.5 233 Q211 195 238 167.5 Q265 140 301.5 125 Q338 110 380 110 Q422 110 458.5 125 Q495 140 522.5 167.5 Q550 195 565.5 233 Q581 271 581 317 L581 735 L708 735 L708 317 Q708 249 682.5 189 Q657 129 612.5 84.5 Q568 40 508 14.5 Q448 -11 380 -11 Q312 -11 252 14.5 Q192 40 147.5 84.5 Q103 129 77.5 189 Q52 249 52 317 L52 735 L180 735 L180 317 Z M439 931 Q462 931 480.5 922.5 Q499 914 512.5 899.5 Q526 885 533.5 866 Q541 847 541 826 L475 826 Q475 846 465.5 858 Q456 870 439 870 Q425 870 414.5 861 Q404 852 391.5 841.5 Q379 831 363 822.5 Q347 814 322 814 Q299 814 280 822.5 Q261 831 247.5 845.5 Q234 860 227 878.5 Q220 897 220 918 L286 918 Q286 898 295.5 886 Q305 874 322 874 Q335 874 345.5 883 Q356 892 368.5 902.5 Q381 913 397.5 922 Q414 931 439 931 Z " />
<glyph glyph-name="Yacute" unicode="&#xdd;" horiz-adv-x="574" d="M229 0 L229 212 L11 735 L144 735 L288 385 L431 735 L564 735 L347 212 L347 0 L229 0 Z M289 789 L258 820 L366 963 Q378 979 400 980 Q422 981 436 967 Q450 953 449.5 931 Q449 909 432 896 L289 789 Z " />
<glyph glyph-name="Ycircumflex" unicode="&#x176;" horiz-adv-x="574" d="M229 0 L229 212 L11 735 L144 735 L288 385 L431 735 L564 735 L347 212 L347 0 L229 0 Z M286 880 L193 787 L151 829 L287 965 L423 829 L380 787 L286 880 Z " />
<glyph glyph-name="Ydieresis" unicode="&#x178;" horiz-adv-x="574" d="M229 0 L229 212 L11 735 L144 735 L288 385 L431 735 L564 735 L347 212 L347 0 L229 0 Z M98 886 Q98 920 122 944 Q146 968 180 968 Q214 968 238 944 Q262 920 262 886 Q262 852 238 828 Q214 804 180 804 Q146 804 122 828 Q98 852 98 886 Z M311 886 Q311 920 335 944 Q359 968 393 968 Q427 968 451 944 Q475 920 475 886 Q475 852 451 828 Q427 804 393 804 Q359 804 335 828 Q311 852 311 886 Z " />
<glyph glyph-name="Ygrave" unicode="&#x1ef2;" horiz-adv-x="574" d="M229 0 L229 212 L11 735 L144 735 L288 385 L431 735 L564 735 L347 212 L347 0 L229 0 Z M141 896 Q124 909 123.5 931 Q123 953 137 967 Q151 981 173 980 Q195 979 207 963 L315 820 L284 789 L141 896 Z " />
<glyph glyph-name="Zacute" unicode="&#x179;" horiz-adv-x="616" d="M74 318 L74 425 L275 425 L392 626 L52 626 L52 735 L555 735 L571 709 L410 425 L542 425 L542 318 L349 318 L229 109 L564 109 L564 0 L61 0 L45 26 L214 318 L74 318 Z M310 789 L279 820 L387 963 Q399 979 421 980 Q443 981 457 967 Q471 953 470.5 931 Q470 909 453 896 L310 789 Z " />
<glyph glyph-name="Zcaron" unicode="&#x17d;" horiz-adv-x="616" d="M74 318 L74 425 L275 425 L392 626 L52 626 L52 735 L555 735 L571 709 L410 425 L542 425 L542 318 L349 318 L229 109 L564 109 L564 0 L61 0 L45 26 L214 318 L74 318 Z M309 872 L401 965 L443 923 L307 787 L171 923 L214 965 L309 872 Z " />
<glyph glyph-name="Zdotaccent" unicode="&#x17b;" horiz-adv-x="616" d="M74 318 L74 425 L275 425 L392 626 L52 626 L52 735 L555 735 L571 709 L410 425 L542 425 L542 318 L349 318 L229 109 L564 109 L564 0 L61 0 L45 26 L214 318 L74 318 Z M226 886 Q226 920 249.5 944 Q273 968 307 968 Q342 968 365.5 944 Q389 920 389 886 Q389 852 365.5 828 Q342 804 307 804 Q273 804 249.5 828 Q226 852 226 886 Z " />
<glyph glyph-name="aacute" unicode="&#xe1;" horiz-adv-x="579" d="M391 72 Q368 36 325.5 12.5 Q283 -11 228 -11 Q184 -11 150 2 Q116 15 93 37 Q70 59 57.5 88.5 Q45 118 45 151 Q45 182 57 210 Q69 238 94.5 259 Q120 280 159.5 292 Q199 304 253 304 L391 304 L391 311 Q391 354 365.5 382.5 Q340 411 287 411 Q254 411 225.5 397.5 Q197 384 176 359 L96 428 Q128 466 177.5 493 Q227 520 287 521 Q341 521 382.5 504 Q424 487 451.5 458.5 Q479 430 493.5 392 Q508 354 508 311 L508 0 L391 0 L391 72 Z M166 151 Q166 124 190.5 106.5 Q215 89 253 89 Q277 89 302 97.5 Q327 106 346.5 122 Q366 138 378.5 160 Q391 182 391 209 L253 209 Q207 209 186.5 193 Q166 177 166 151 Z M292 566 L261 597 L369 740 Q381 756 403 757 Q425 758 439 744 Q453 730 452.5 708 Q452 686 435 673 L292 566 Z " />
<glyph glyph-name="abreve" unicode="&#x103;" horiz-adv-x="579" d="M391 72 Q368 36 325.5 12.5 Q283 -11 228 -11 Q184 -11 150 2 Q116 15 93 37 Q70 59 57.5 88.5 Q45 118 45 151 Q45 182 57 210 Q69 238 94.5 259 Q120 280 159.5 292 Q199 304 253 304 L391 304 L391 311 Q391 354 365.5 382.5 Q340 411 287 411 Q254 411 225.5 397.5 Q197 384 176 359 L96 428 Q128 466 177.5 493 Q227 520 287 521 Q341 521 382.5 504 Q424 487 451.5 458.5 Q479 430 493.5 392 Q508 354 508 311 L508 0 L391 0 L391 72 Z M166 151 Q166 124 190.5 106.5 Q215 89 253 89 Q277 89 302 97.5 Q327 106 346.5 122 Q366 138 378.5 160 Q391 182 391 209 L253 209 Q207 209 186.5 193 Q166 177 166 151 Z M172 696 L245 696 L245 676 Q245 657 257.5 644 Q270 631 289 631 Q308 631 320.5 644 Q333 657 333 676 L333 696 L406 696 L406 681 Q406 657 397 635.5 Q388 614 372 598 Q356 582 334.5 573 Q313 564 289 564 Q265 564 243.5 573 Q222 582 206 598 Q190 614 181 635.5 Q172 657 172 681 L172 696 Z " />
<glyph glyph-name="acircumflex" unicode="&#xe2;" horiz-adv-x="579" d="M391 72 Q368 36 325.5 12.5 Q283 -11 228 -11 Q184 -11 150 2 Q116 15 93 37 Q70 59 57.5 88.5 Q45 118 45 151 Q45 182 57 210 Q69 238 94.5 259 Q120 280 159.5 292 Q199 304 253 304 L391 304 L391 311 Q391 354 365.5 382.5 Q340 411 287 411 Q254 411 225.5 397.5 Q197 384 176 359 L96 428 Q128 466 177.5 493 Q227 520 287 521 Q341 521 382.5 504 Q424 487 451.5 458.5 Q479 430 493.5 392 Q508 354 508 311 L508 0 L391 0 L391 72 Z M166 151 Q166 124 190.5 106.5 Q215 89 253 89 Q277 89 302 97.5 Q327 106 346.5 122 Q366 138 378.5 160 Q391 182 391 209 L253 209 Q207 209 186.5 193 Q166 177 166 151 Z M288 657 L196 564 L153 606 L289 742 L425 606 L383 564 L288 657 Z " />
<glyph glyph-name="adieresis" unicode="&#xe4;" horiz-adv-x="579" d="M391 72 Q368 36 325.5 12.5 Q283 -11 228 -11 Q184 -11 150 2 Q116 15 93 37 Q70 59 57.5 88.5 Q45 118 45 151 Q45 182 57 210 Q69 238 94.5 259 Q120 280 159.5 292 Q199 304 253 304 L391 304 L391 311 Q391 354 365.5 382.5 Q340 411 287 411 Q254 411 225.5 397.5 Q197 384 176 359 L96 428 Q128 466 177.5 493 Q227 520 287 521 Q341 521 382.5 504 Q424 487 451.5 458.5 Q479 430 493.5 392 Q508 354 508 311 L508 0 L391 0 L391 72 Z M166 151 Q166 124 190.5 106.5 Q215 89 253 89 Q277 89 302 97.5 Q327 106 346.5 122 Q366 138 378.5 160 Q391 182 391 209 L253 209 Q207 209 186.5 193 Q166 177 166 151 Z M101 663 Q101 697 125 721 Q149 745 183 745 Q217 745 241 721 Q265 697 265 663 Q265 629 241 605 Q217 581 183 581 Q149 581 125 605 Q101 629 101 663 Z M314 663 Q314 697 338 721 Q362 745 396 745 Q430 745 454 721 Q478 697 478 663 Q478 629 454 605 Q430 581 396 581 Q362 581 338 605 Q314 629 314 663 Z " />
<glyph glyph-name="agrave" unicode="&#xe0;" horiz-adv-x="579" d="M391 72 Q368 36 325.5 12.5 Q283 -11 228 -11 Q184 -11 150 2 Q116 15 93 37 Q70 59 57.5 88.5 Q45 118 45 151 Q45 182 57 210 Q69 238 94.5 259 Q120 280 159.5 292 Q199 304 253 304 L391 304 L391 311 Q391 354 365.5 382.5 Q340 411 287 411 Q254 411 225.5 397.5 Q197 384 176 359 L96 428 Q128 466 177.5 493 Q227 520 287 521 Q341 521 382.5 504 Q424 487 451.5 458.5 Q479 430 493.5 392 Q508 354 508 311 L508 0 L391 0 L391 72 Z M166 151 Q166 124 190.5 106.5 Q215 89 253 89 Q277 89 302 97.5 Q327 106 346.5 122 Q366 138 378.5 160 Q391 182 391 209 L253 209 Q207 209 186.5 193 Q166 177 166 151 Z M153 673 Q136 686 135.5 708 Q135 730 149 744 Q163 758 185 757 Q207 756 219 740 L327 597 L295 566 L153 673 Z " />
<glyph glyph-name="amacron" unicode="&#x101;" horiz-adv-x="579" d="M391 72 Q368 36 325.5 12.5 Q283 -11 228 -11 Q184 -11 150 2 Q116 15 93 37 Q70 59 57.5 88.5 Q45 118 45 151 Q45 182 57 210 Q69 238 94.5 259 Q120 280 159.5 292 Q199 304 253 304 L391 304 L391 311 Q391 354 365.5 382.5 Q340 411 287 411 Q254 411 225.5 397.5 Q197 384 176 359 L96 428 Q128 466 177.5 493 Q227 520 287 521 Q341 521 382.5 504 Q424 487 451.5 458.5 Q479 430 493.5 392 Q508 354 508 311 L508 0 L391 0 L391 72 Z M166 151 Q166 124 190.5 106.5 Q215 89 253 89 Q277 89 302 97.5 Q327 106 346.5 122 Q366 138 378.5 160 Q391 182 391 209 L253 209 Q207 209 186.5 193 Q166 177 166 151 Z M444 581 L135 581 L135 654 L444 654 L444 581 Z " />
<glyph glyph-name="aogonek" unicode="&#x105;" horiz-adv-x="579" d="M391 72 Q368 36 325.5 12.5 Q283 -11 228 -11 L223 -11 Q195 -11 176.5 -30.5 Q158 -50 158 -77 Q158 -105 176.5 -123.5 Q195 -142 223 -142 Q250 -142 269 -123.5 Q288 -105 288 -77 L349 -77 Q349 -103 339 -126 Q329 -149 312 -166 Q295 -183 272 -193 Q249 -203 223 -203 Q197 -203 174 -193 Q151 -183 134 -166 Q117 -149 107 -126 Q97 -103 97 -77 Q97 -51 106.5 -28.5 Q116 -6 132 11 Q90 32 67.5 69 Q45 106 45 151 Q45 182 57 210 Q69 238 94.5 259 Q120 280 159.5 292 Q199 304 253 304 L391 304 L391 310 Q391 353 366 382 Q341 411 287 411 Q254 411 225.5 397.5 Q197 384 176 359 L96 428 Q127 466 177 493.5 Q227 521 287 521 Q341 521 382.5 504 Q424 487 451.5 458.5 Q479 430 493.5 392 Q508 354 508 311 L508 0 L391 0 L391 72 Z M166 151 Q166 124 190.5 106.5 Q215 89 253 89 Q277 89 302 97.5 Q327 106 346.5 122 Q366 138 378.5 160 Q391 182 391 209 L253 209 Q207 209 186.5 193 Q166 177 166 151 Z " />
<glyph glyph-name="aring" unicode="&#xe5;" horiz-adv-x="579" d="M391 72 Q368 36 325.5 12.5 Q283 -11 228 -11 Q184 -11 150 2 Q116 15 93 37 Q70 59 57.5 88.5 Q45 118 45 151 Q45 182 57 210 Q69 238 94.5 259 Q120 280 159.5 292 Q199 304 253 304 L391 304 L391 311 Q391 354 365.5 382.5 Q340 411 287 411 Q254 411 225.5 397.5 Q197 384 176 359 L96 428 Q128 466 177.5 493 Q227 520 287 521 Q341 521 382.5 504 Q424 487 451.5 458.5 Q479 430 493.5 392 Q508 354 508 311 L508 0 L391 0 L391 72 Z M166 151 Q166 124 190.5 106.5 Q215 89 253 89 Q277 89 302 97.5 Q327 106 346.5 122 Q366 138 378.5 160 Q391 182 391 209 L253 209 Q207 209 186.5 193 Q166 177 166 151 Z M193 672 Q193 712 221 740 Q249 768 289 768 Q329 768 357 740 Q385 712 385 672 Q385 632 357 604 Q329 576 289 576 Q249 576 221 604 Q193 632 193 672 Z M253 672 Q253 657 263.5 646.5 Q274 636 289 636 Q304 636 314.5 646.5 Q325 657 325 672 Q325 687 314.5 697.5 Q304 708 289 708 Q274 708 263.5 697.5 Q253 687 253 672 Z " />
<glyph glyph-name="atilde" unicode="&#xe3;" horiz-adv-x="579" d="M391 72 Q368 36 325.5 12.5 Q283 -11 228 -11 Q184 -11 150 2 Q116 15 93 37 Q70 59 57.5 88.5 Q45 118 45 151 Q45 182 57 210 Q69 238 94.5 259 Q120 280 159.5 292 Q199 304 253 304 L391 304 L391 311 Q391 354 365.5 382.5 Q340 411 287 411 Q254 411 225.5 397.5 Q197 384 176 359 L96 428 Q128 466 177.5 493 Q227 520 287 521 Q341 521 382.5 504 Q424 487 451.5 458.5 Q479 430 493.5 392 Q508 354 508 311 L508 0 L391 0 L391 72 Z M166 151 Q166 124 190.5 106.5 Q215 89 253 89 Q277 89 302 97.5 Q327 106 346.5 122 Q366 138 378.5 160 Q391 182 391 209 L253 209 Q207 209 186.5 193 Q166 177 166 151 Z M347 708 Q370 708 389 699.5 Q408 691 421.5 676.5 Q435 662 442 643 Q449 624 449 603 L384 603 Q384 623 374 635 Q364 647 347 647 Q334 647 323.5 638 Q313 629 300.5 618.5 Q288 608 272 599.5 Q256 591 231 591 Q208 591 189 599.5 Q170 608 156.5 622.5 Q143 637 136 655.5 Q129 674 129 695 L194 695 Q194 675 204 663 Q214 651 231 651 Q244 651 254.5 660 Q265 669 277.5 679.5 Q290 690 306 699 Q322 708 347 708 Z " />
<glyph glyph-name="aeacute" unicode="&#x1fd;" horiz-adv-x="941" d="M904 251 Q904 241 902 228.5 Q900 216 898 208 L508 208 Q508 187 519 167.5 Q530 148 549.5 133 Q569 118 594.5 109 Q620 100 650 100 Q688 100 720 115 Q752 130 775 154 L862 85 Q824 40 769.5 15 Q715 -10 649 -10 Q589 -10 533.5 14.5 Q478 39 441 90 Q397 33 344 11 Q291 -11 242 -11 Q197 -11 161 2 Q125 15 99 37 Q73 59 59 88.5 Q45 118 45 151 Q45 182 57.5 210 Q70 238 95.5 259 Q121 280 160 292 Q199 304 253 304 L391 304 L391 311 Q391 354 365.5 382.5 Q340 411 287 411 Q251 411 225 395 Q199 379 176 350 L96 419 Q110 439 131 457.5 Q152 476 177 490 Q202 504 230 512.5 Q258 521 287 521 Q347 521 390 500 Q433 479 461 444 Q492 479 538 500.5 Q584 522 641 522 Q699 522 747.5 501.5 Q796 481 831 444.5 Q866 408 885 358.5 Q904 309 904 251 Z M643 416 Q610 416 585 406 Q560 396 543 379.5 Q526 363 517 343 Q508 323 508 304 L779 304 Q779 322 769.5 341.5 Q760 361 742.5 377.5 Q725 394 699.5 405 Q674 416 643 416 Z M166 151 Q166 124 190.5 106.5 Q215 89 253 89 Q277 89 302 97.5 Q327 106 346.5 122 Q366 138 378.5 160 Q391 182 391 209 L253 209 Q207 209 186.5 193 Q166 177 166 151 Z M403 566 L372 597 L477 737 Q490 754 512 756.5 Q534 759 550 744 Q564 730 563 708 Q562 686 546 673 L403 566 Z " />
<glyph glyph-name="cacute" unicode="&#x107;" horiz-adv-x="533" d="M503 67 Q467 32 421 11 Q375 -10 316 -10 Q261 -10 212.5 11 Q164 32 128 68 Q92 104 71 152.5 Q50 201 50 256 Q50 311 71 359.5 Q92 408 128 444 Q164 480 212.5 501 Q261 522 316 522 Q377 522 425.5 499 Q474 476 508 440 L426 359 Q406 380 377 392 Q348 404 316 404 Q285 404 258 392.5 Q231 381 211 360.5 Q191 340 179.5 313 Q168 286 168 256 Q168 225 179.5 198 Q191 171 211 151 Q231 131 258 119.5 Q285 108 316 108 Q347 108 375.5 119.5 Q404 131 424 151 L503 67 Z M299 566 L268 597 L376 740 Q388 756 410 757 Q432 758 446 744 Q460 730 459.5 708 Q459 686 442 673 L299 566 Z " />
<glyph glyph-name="ccaron" unicode="&#x10d;" horiz-adv-x="533" d="M503 67 Q467 32 421 11 Q375 -10 316 -10 Q261 -10 212.5 11 Q164 32 128 68 Q92 104 71 152.5 Q50 201 50 256 Q50 311 71 359.5 Q92 408 128 444 Q164 480 212.5 501 Q261 522 316 522 Q377 522 425.5 499 Q474 476 508 440 L426 359 Q406 380 377 392 Q348 404 316 404 Q285 404 258 392.5 Q231 381 211 360.5 Q191 340 179.5 313 Q168 286 168 256 Q168 225 179.5 198 Q191 171 211 151 Q231 131 258 119.5 Q285 108 316 108 Q347 108 375.5 119.5 Q404 131 424 151 L503 67 Z M267 649 L360 742 L402 700 L266 564 L130 700 L173 742 L267 649 Z " />
<glyph glyph-name="ccedilla" unicode="&#xe7;" horiz-adv-x="533" d="M503 67 Q471 35 431.5 15.5 Q392 -4 343 -8 L343 -36 Q372 -45 390.5 -70 Q409 -95 409 -127 Q409 -168 381 -195.5 Q353 -223 313 -223 Q293 -223 276 -215.5 Q259 -208 245 -195 L288 -154 Q298 -163 313 -163 Q328 -163 338.5 -153 Q349 -143 349 -127 Q349 -112 338.5 -102 Q328 -92 313 -92 Q297 -92 287 -102 L245 -59 Q260 -42 283 -36 L283 -7 Q233 -1 190.5 21.5 Q148 44 117 79 Q86 114 68 159.5 Q50 205 50 256 Q50 311 71 359.5 Q92 408 128 444 Q164 480 212.5 501 Q261 522 316 522 Q377 522 425.5 499 Q474 476 508 440 L426 359 Q406 380 377 392 Q348 404 316 404 Q285 404 258 392.5 Q231 381 211 360.5 Q191 340 179.5 313 Q168 286 168 256 Q168 226 179.5 199 Q191 172 211 152 Q231 132 258 120 Q285 108 315 108 L317 108 Q348 108 376 119.5 Q404 131 424 151 L503 67 Z " />
<glyph glyph-name="ccircumflex" unicode="&#x109;" horiz-adv-x="533" d="M503 67 Q467 32 421 11 Q375 -10 316 -10 Q261 -10 212.5 11 Q164 32 128 68 Q92 104 71 152.5 Q50 201 50 256 Q50 311 71 359.5 Q92 408 128 444 Q164 480 212.5 501 Q261 522 316 522 Q377 522 425.5 499 Q474 476 508 440 L426 359 Q406 380 377 392 Q348 404 316 404 Q285 404 258 392.5 Q231 381 211 360.5 Q191 340 179.5 313 Q168 286 168 256 Q168 225 179.5 198 Q191 171 211 151 Q231 131 258 119.5 Q285 108 316 108 Q347 108 375.5 119.5 Q404 131 424 151 L503 67 Z M305 657 L213 564 L170 606 L306 742 L442 606 L400 564 L305 657 Z " />
<glyph glyph-name="cdotaccent" unicode="&#x10b;" horiz-adv-x="533" d="M503 67 Q467 32 421 11 Q375 -10 316 -10 Q261 -10 212.5 11 Q164 32 128 68 Q92 104 71 152.5 Q50 201 50 256 Q50 311 71 359.5 Q92 408 128 444 Q164 480 212.5 501 Q261 522 316 522 Q377 522 425.5 499 Q474 476 508 440 L426 359 Q406 380 377 392 Q348 404 316 404 Q285 404 258 392.5 Q231 381 211 360.5 Q191 340 179.5 313 Q168 286 168 256 Q168 225 179.5 198 Q191 171 211 151 Q231 131 258 119.5 Q285 108 316 108 Q347 108 375.5 119.5 Q404 131 424 151 L503 67 Z M224 663 Q224 697 248 721 Q272 745 306 745 Q340 745 364 721 Q388 697 388 663 Q388 629 364 605 Q340 581 306 581 Q272 581 248 605 Q224 629 224 663 Z " />
<glyph glyph-name="eacute" unicode="&#xe9;" horiz-adv-x="611" d="M570 251 Q570 241 568.5 228.5 Q567 216 565 208 L174 208 Q174 187 185 167.5 Q196 148 215.5 133 Q235 118 260.5 109 Q286 100 316 100 Q354 100 386.5 115 Q419 130 442 154 L529 85 Q491 40 436 15 Q381 -10 315 -10 Q267 -10 219.5 6.5 Q172 23 134.5 56 Q97 89 73.5 139 Q50 189 50 256 Q50 311 68.5 359.5 Q87 408 121 444 Q155 480 202.5 501 Q250 522 308 522 Q366 522 414.5 501.5 Q463 481 497.5 444.5 Q532 408 551 358.5 Q570 309 570 251 Z M309 416 Q277 416 251.5 405.5 Q226 395 209 379 Q192 363 183 343 Q174 323 174 304 L446 304 Q446 322 436.5 341.5 Q427 361 409 377.5 Q391 394 365.5 405 Q340 416 309 416 Z M308 566 L277 597 L382 737 Q395 754 417 756.5 Q439 759 455 744 Q469 730 468.5 708 Q468 686 451 673 L308 566 Z " />
<glyph glyph-name="ebreve" unicode="&#x115;" horiz-adv-x="611" d="M570 251 Q570 241 568.5 228.5 Q567 216 565 208 L174 208 Q174 187 185 167.5 Q196 148 215.5 133 Q235 118 260.5 109 Q286 100 316 100 Q354 100 386.5 115 Q419 130 442 154 L529 85 Q491 40 436 15 Q381 -10 315 -10 Q267 -10 219.5 6.5 Q172 23 134.5 56 Q97 89 73.5 139 Q50 189 50 256 Q50 311 68.5 359.5 Q87 408 121 444 Q155 480 202.5 501 Q250 522 308 522 Q366 522 414.5 501.5 Q463 481 497.5 444.5 Q532 408 551 358.5 Q570 309 570 251 Z M188 696 L261 696 L261 676 Q261 657 273.5 644 Q286 631 305 631 Q324 631 336.5 643.5 Q349 656 349 676 L349 696 L422 696 L422 681 Q422 657 413 635.5 Q404 614 388 598 Q372 582 350.5 573 Q329 564 305 564 Q281 564 259.5 573 Q238 582 222 598 Q206 614 197 635.5 Q188 657 188 681 L188 696 Z M309 416 Q277 416 251.5 405.5 Q226 395 209 379 Q192 363 183 343 Q174 323 174 304 L446 304 Q446 322 436.5 341.5 Q427 361 409 377.5 Q391 394 365.5 405 Q340 416 309 416 Z " />
<glyph glyph-name="ecaron" unicode="&#x11b;" horiz-adv-x="611" d="M570 251 Q570 241 568.5 228.5 Q567 216 565 208 L174 208 Q174 187 185 167.5 Q196 148 215.5 133 Q235 118 260.5 109 Q286 100 316 100 Q354 100 386.5 115 Q419 130 442 154 L529 85 Q491 40 436 15 Q381 -10 315 -10 Q267 -10 219.5 6.5 Q172 23 134.5 56 Q97 89 73.5 139 Q50 189 50 256 Q50 311 68.5 359.5 Q87 408 121 444 Q155 480 202.5 501 Q250 522 308 522 Q366 522 414.5 501.5 Q463 481 497.5 444.5 Q532 408 551 358.5 Q570 309 570 251 Z M306 649 L399 742 L441 700 L305 564 L169 700 L212 742 L306 649 Z M309 416 Q277 416 251.5 405.5 Q226 395 209 379 Q192 363 183 343 Q174 323 174 304 L446 304 Q446 322 436.5 341.5 Q427 361 409 377.5 Q391 394 365.5 405 Q340 416 309 416 Z " />
<glyph glyph-name="ecircumflex" unicode="&#xea;" horiz-adv-x="611" d="M570 251 Q570 241 568.5 228.5 Q567 216 565 208 L174 208 Q174 187 185 167.5 Q196 148 215.5 133 Q235 118 260.5 109 Q286 100 316 100 Q354 100 386.5 115 Q419 130 442 154 L529 85 Q491 40 436 15 Q381 -10 315 -10 Q267 -10 219.5 6.5 Q172 23 134.5 56 Q97 89 73.5 139 Q50 189 50 256 Q50 311 68.5 359.5 Q87 408 121 444 Q155 480 202.5 501 Q250 522 308 522 Q366 522 414.5 501.5 Q463 481 497.5 444.5 Q532 408 551 358.5 Q570 309 570 251 Z M304 657 L212 564 L169 606 L305 742 L441 606 L399 564 L304 657 Z M309 416 Q277 416 251.5 405.5 Q226 395 209 379 Q192 363 183 343 Q174 323 174 304 L446 304 Q446 322 436.5 341.5 Q427 361 409 377.5 Q391 394 365.5 405 Q340 416 309 416 Z " />
<glyph glyph-name="edieresis" unicode="&#xeb;" horiz-adv-x="611" d="M570 251 Q570 241 568.5 228.5 Q567 216 565 208 L174 208 Q174 187 185 167.5 Q196 148 215.5 133 Q235 118 260.5 109 Q286 100 316 100 Q354 100 386.5 115 Q419 130 442 154 L529 85 Q491 40 436 15 Q381 -10 315 -10 Q267 -10 219.5 6.5 Q172 23 134.5 56 Q97 89 73.5 139 Q50 189 50 256 Q50 311 68.5 359.5 Q87 408 121 444 Q155 480 202.5 501 Q250 522 308 522 Q366 522 414.5 501.5 Q463 481 497.5 444.5 Q532 408 551 358.5 Q570 309 570 251 Z M330 663 Q330 697 354 721 Q378 745 412 745 Q446 745 470 721 Q494 697 494 663 Q494 629 470 605 Q446 581 412 581 Q378 581 354 605 Q330 629 330 663 Z M117 663 Q117 697 141 721 Q165 745 199 745 Q233 745 257 721 Q281 697 281 663 Q281 629 257 605 Q233 581 199 581 Q165 581 141 605 Q117 629 117 663 Z M309 416 Q277 416 251.5 405.5 Q226 395 209 379 Q192 363 183 343 Q174 323 174 304 L446 304 Q446 322 436.5 341.5 Q427 361 409 377.5 Q391 394 365.5 405 Q340 416 309 416 Z " />
<glyph glyph-name="edotaccent" unicode="&#x117;" horiz-adv-x="611" d="M570 251 Q570 241 568.5 228.5 Q567 216 565 208 L174 208 Q174 187 185 167.5 Q196 148 215.5 133 Q235 118 260.5 109 Q286 100 316 100 Q354 100 386.5 115 Q419 130 442 154 L529 85 Q491 40 436 15 Q381 -10 315 -10 Q267 -10 219.5 6.5 Q172 23 134.5 56 Q97 89 73.5 139 Q50 189 50 256 Q50 311 68.5 359.5 Q87 408 121 444 Q155 480 202.5 501 Q250 522 308 522 Q366 522 414.5 501.5 Q463 481 497.5 444.5 Q532 408 551 358.5 Q570 309 570 251 Z M223 663 Q223 697 247 721 Q271 745 305 745 Q339 745 363 721 Q387 697 387 663 Q387 629 363 605 Q339 581 305 581 Q271 581 247 605 Q223 629 223 663 Z M309 416 Q277 416 251.5 405.5 Q226 395 209 379 Q192 363 183 343 Q174 323 174 304 L446 304 Q446 322 436.5 341.5 Q427 361 409 377.5 Q391 394 365.5 405 Q340 416 309 416 Z " />
<glyph glyph-name="egrave" unicode="&#xe8;" horiz-adv-x="611" d="M570 251 Q570 241 568.5 228.5 Q567 216 565 208 L174 208 Q174 187 185 167.5 Q196 148 215.5 133 Q235 118 260.5 109 Q286 100 316 100 Q354 100 386.5 115 Q419 130 442 154 L529 85 Q491 40 436 15 Q381 -10 315 -10 Q267 -10 219.5 6.5 Q172 23 134.5 56 Q97 89 73.5 139 Q50 189 50 256 Q50 311 68.5 359.5 Q87 408 121 444 Q155 480 202.5 501 Q250 522 308 522 Q366 522 414.5 501.5 Q463 481 497.5 444.5 Q532 408 551 358.5 Q570 309 570 251 Z M309 416 Q277 416 251.5 405.5 Q226 395 209 379 Q192 363 183 343 Q174 323 174 304 L446 304 Q446 322 436.5 341.5 Q427 361 409 377.5 Q391 394 365.5 405 Q340 416 309 416 Z M160 673 Q143 686 142.5 708 Q142 730 156 744 Q166 753 180 756 Q194 759 206 754 Q218 750 228 737 L334 597 L302 566 L160 673 Z " />
<glyph glyph-name="emacron" unicode="&#x113;" horiz-adv-x="611" d="M570 251 Q570 241 568.5 228.5 Q567 216 565 208 L174 208 Q174 187 185 167.5 Q196 148 215.5 133 Q235 118 260.5 109 Q286 100 316 100 Q354 100 386.5 115 Q419 130 442 154 L529 85 Q491 40 436 15 Q381 -10 315 -10 Q267 -10 219.5 6.5 Q172 23 134.5 56 Q97 89 73.5 139 Q50 189 50 256 Q50 311 68.5 359.5 Q87 408 121 444 Q155 480 202.5 501 Q250 522 308 522 Q366 522 414.5 501.5 Q463 481 497.5 444.5 Q532 408 551 358.5 Q570 309 570 251 Z M460 581 L151 581 L151 654 L460 654 L460 581 Z M309 416 Q277 416 251.5 405.5 Q226 395 209 379 Q192 363 183 343 Q174 323 174 304 L446 304 Q446 322 436.5 341.5 Q427 361 409 377.5 Q391 394 365.5 405 Q340 416 309 416 Z " />
<glyph glyph-name="eogonek" unicode="&#x119;" horiz-adv-x="611" d="M189 -76 Q189 -52 197.5 -31 Q206 -10 220 6 Q185 18 154 40 Q123 62 100 93 Q77 124 63.5 164.5 Q50 205 50 256 Q50 311 68.5 359.5 Q87 408 121 444 Q155 480 202.5 501 Q250 522 308 522 Q366 522 414.5 501.5 Q463 481 497.5 444.5 Q532 408 551 358.5 Q570 309 570 251 Q570 241 568.5 228.5 Q567 216 565 208 L174 208 Q174 187 185 167.5 Q196 148 215.5 133 Q235 118 260.5 109 Q286 100 316 100 Q354 100 386.5 115 Q419 130 442 154 L529 85 Q491 40 436 15 Q381 -10 315 -10 L309 -10 Q283 -12 266.5 -31 Q250 -50 250 -76 Q250 -104 268.5 -123 Q287 -142 315 -142 Q342 -142 361 -123 Q380 -104 380 -76 L441 -76 Q441 -102 431 -125 Q421 -148 404 -165 Q387 -182 364 -192 Q341 -202 315 -202 Q289 -202 266 -192 Q243 -182 226 -165 Q209 -148 199 -125 Q189 -102 189 -76 Z M309 416 Q277 416 251.5 405.5 Q226 395 209 379 Q192 363 183 343 Q174 323 174 304 L446 304 Q446 322 436.5 341.5 Q427 361 409 377.5 Q391 394 365.5 405 Q340 416 309 416 Z " />
<glyph glyph-name="fi" unicode="&#xfb01;" horiz-adv-x="695" d="M482 564 Q482 622 451.5 659 Q421 696 358 696 Q304 696 269.5 661 Q235 626 235 564 L235 512 L395 512 L395 407 L235 407 L235 0 L117 0 L117 407 L20 407 L20 512 L117 512 L117 564 Q117 616 135 660.5 Q153 705 185 738 Q217 771 261.5 789.5 Q306 808 360 808 Q415 808 460 789.5 Q505 771 536.5 738 Q568 705 585 660.5 Q602 616 602 564 L482 564 Z M602 512 L602 0 L482 0 L482 512 L602 512 Z " />
<glyph glyph-name="dotlessi" unicode="&#x131;" horiz-adv-x="305" d="M212 512 L212 0 L92 0 L92 512 L212 512 Z " />
<glyph glyph-name="iacute" unicode="&#xed;" horiz-adv-x="305" d="M212 512 L212 0 L92 0 L92 512 L212 512 Z M155 566 L124 597 L232 740 Q244 756 266 757 Q288 758 302 744 Q316 730 315.5 708 Q315 686 298 673 L155 566 Z " />
<glyph glyph-name="ibreve" unicode="&#x12d;" horiz-adv-x="305" d="M212 512 L212 0 L92 0 L92 512 L212 512 Z M35 696 L108 696 L108 676 Q108 657 120.5 644 Q133 631 152 631 Q171 631 183.5 644 Q196 657 196 676 L196 696 L269 696 L269 681 Q269 657 260 635.5 Q251 614 235 598 Q219 582 197.5 573 Q176 564 152 564 Q128 564 106.5 573 Q85 582 69 598 Q53 614 44 635.5 Q35 657 35 681 L35 696 Z " />
<glyph glyph-name="icircumflex" unicode="&#xee;" horiz-adv-x="305" d="M212 512 L212 0 L92 0 L92 512 L212 512 Z M151 657 L59 564 L16 606 L152 742 L288 606 L246 564 L151 657 Z " />
<glyph glyph-name="idieresis" unicode="&#xef;" horiz-adv-x="305" d="M212 512 L212 0 L92 0 L92 512 L212 512 Z M-36 663 Q-36 697 -12 721 Q12 745 46 745 Q80 745 104 721 Q128 697 128 663 Q128 629 104 605 Q80 581 46 581 Q12 581 -12 605 Q-36 629 -36 663 Z M177 663 Q177 697 201 721 Q225 745 259 745 Q293 745 317 721 Q341 697 341 663 Q341 629 317 605 Q293 581 259 581 Q225 581 201 605 Q177 629 177 663 Z " />
<glyph glyph-name="igrave" unicode="&#xec;" horiz-adv-x="305" d="M212 512 L212 0 L92 0 L92 512 L212 512 Z M7 673 Q-10 686 -10.5 708 Q-11 730 3 744 Q17 758 39 757 Q61 756 73 740 L181 597 L149 566 L7 673 Z " />
<glyph glyph-name="imacron" unicode="&#x12b;" horiz-adv-x="305" d="M212 512 L212 0 L92 0 L92 512 L212 512 Z M307 581 L-2 581 L-2 654 L307 654 L307 581 Z " />
<glyph glyph-name="iogonek" unicode="&#x12f;" horiz-adv-x="305" d="M27 -66 Q27 -30 45 -1 Q63 28 92 44 L92 512 L212 512 L212 0 L147 0 Q121 -2 104 -21 Q87 -40 87 -66 Q87 -94 106 -113 Q125 -132 152 -132 Q179 -132 198.5 -113 Q218 -94 218 -66 L278 -66 Q278 -92 268 -115 Q258 -138 241 -155 Q224 -172 201 -182 Q178 -192 152 -192 Q126 -192 103.5 -182 Q81 -172 64 -155 Q47 -138 37 -115 Q27 -92 27 -66 Z M71 705 Q71 739 94.5 762.5 Q118 786 152 786 Q186 786 210 762.5 Q234 739 234 705 Q234 671 210 647 Q186 623 152 623 Q118 623 94.5 647 Q71 671 71 705 Z " />
<glyph glyph-name="itilde" unicode="&#x129;" horiz-adv-x="305" d="M212 512 L212 0 L92 0 L92 512 L212 512 Z M211 708 Q234 708 252.5 699.5 Q271 691 284.5 676.5 Q298 662 305 643 Q312 624 312 603 L247 603 Q247 623 237.5 635 Q228 647 211 647 Q197 647 186.5 638 Q176 629 163.5 618.5 Q151 608 135 599.5 Q119 591 94 591 Q71 591 52 599.5 Q33 608 19.5 622.5 Q6 637 -1 655.5 Q-8 674 -8 695 L58 695 Q58 675 67.5 663 Q77 651 94 651 Q107 651 117.5 660 Q128 669 140.5 679.5 Q153 690 169.5 699 Q186 708 211 708 Z " />
<glyph glyph-name="ij" unicode="&#x133;" horiz-adv-x="627" d="M212 512 L212 0 L92 0 L92 512 L212 512 Z M71 705 Q71 739 94.5 762.5 Q118 786 152 786 Q186 786 210 762.5 Q234 739 234 705 Q234 671 210 647 Q186 623 152 623 Q118 623 94.5 647 Q71 671 71 705 Z M407 -255 L407 512 L525 512 L525 -255 L407 -255 Z M385 705 Q385 739 408.5 762.5 Q432 786 466 786 Q500 786 523.5 762.5 Q547 739 547 705 Q547 671 523.5 647 Q500 623 466 623 Q432 623 408.5 647 Q385 671 385 705 Z " />
<glyph glyph-name="lacute" unicode="&#x13a;" horiz-adv-x="284" d="M81 0 L81 768 L203 768 L203 0 L81 0 Z M150 789 L119 820 L227 963 Q239 979 261 980 Q283 981 297 967 Q311 953 310.5 931 Q310 909 293 896 L150 789 Z " />
<glyph glyph-name="lcaron" unicode="&#x13e;" horiz-adv-x="507" d="M81 0 L81 768 L203 768 L203 0 L81 0 Z M335 474 L381 572 Q353 578 334 600.5 Q315 623 315 653 Q315 687 338.5 711 Q362 735 396 735 Q419 735 437 724 Q455 713 465 695 Q475 677 476 655 Q477 633 467 611 L390 448 L335 474 Z " />
<glyph glyph-name="lcommaaccent" unicode="&#x13c;" horiz-adv-x="284" d="M81 0 L81 768 L203 768 L203 0 L81 0 Z M96 -236 L127 -170 Q108 -166 96 -152 Q84 -138 84 -118 Q84 -95 99.5 -79.5 Q115 -64 136 -64 Q151 -64 162.5 -71 Q174 -78 181 -89.5 Q188 -101 189 -115.5 Q190 -130 183 -145 L132 -253 L96 -236 Z " />
<glyph glyph-name="ldot" unicode="&#x140;" horiz-adv-x="472" d="M287 366 Q287 400 311 424 Q335 448 369 448 Q403 448 427 424 Q451 400 451 366 Q451 332 427 308 Q403 284 369 284 Q335 284 311 308 Q287 332 287 366 Z M81 0 L81 768 L203 768 L203 0 L81 0 Z " />
<glyph glyph-name="lslash" unicode="&#x142;" horiz-adv-x="284" d="M81 0 L81 293 L2 272 L-17 341 L81 367 L81 768 L203 768 L203 399 L286 422 L305 353 L203 326 L203 0 L81 0 Z " />
<glyph glyph-name="kcommaaccent" unicode="&#x137;" horiz-adv-x="565" d="M199 768 L199 315 L291 315 L411 512 L543 512 L389 256 L543 0 L411 0 L291 197 L199 197 L199 0 L81 0 L81 768 L199 768 Z M236 -236 L267 -170 Q248 -166 236 -152 Q224 -138 224 -118 Q224 -95 239.5 -79.5 Q255 -64 277 -64 Q292 -64 303.5 -71 Q315 -78 321.5 -89.5 Q328 -101 329 -115.5 Q330 -130 323 -145 L272 -253 L236 -236 Z " />
<glyph glyph-name="hbar" unicode="&#x127;" horiz-adv-x="655" d="M594 0 L475 0 L475 266 Q475 294 464.5 319 Q454 344 435 363 Q416 382 391 392.5 Q366 403 338 403 Q310 403 285 392.5 Q260 382 241.5 363.5 Q223 345 212 320 Q201 295 201 267 L201 0 L81 0 L81 568 L1 546 L-17 615 L81 641 L81 768 L201 768 L201 673 L286 696 L304 627 L201 599 L201 448 Q230 481 270 501 Q310 521 357 521 Q406 521 449 501 Q492 481 524 446.5 Q556 412 575 365 Q594 318 594 265 L594 0 Z " />
<glyph glyph-name="hcircumflex" unicode="&#x125;" horiz-adv-x="655" d="M594 0 L475 0 L475 266 Q475 294 464.5 319 Q454 344 435 363 Q416 382 391 392.5 Q366 403 338 403 Q310 403 285 392.5 Q260 382 241.5 363.5 Q223 345 212 320 Q201 295 201 267 L201 0 L81 0 L81 768 L201 768 L201 448 Q230 481 270 501 Q310 521 357 521 Q406 521 449 501 Q492 481 524 446.5 Q556 412 575 365 Q594 318 594 265 L594 0 Z M373 657 L281 564 L239 606 L375 742 L511 606 L468 564 L373 657 Z " />
<glyph glyph-name="dcaron" unicode="&#x10f;" horiz-adv-x="866" d="M50 256 Q50 309 68.5 356 Q87 403 120 437.5 Q153 472 198.5 492 Q244 512 298 512 Q341 512 379 495 Q417 478 443 450 L443 768 L561 768 L561 0 L443 0 L443 62 Q417 34 379 17 Q341 0 298 0 Q244 0 198.5 20 Q153 40 120 74.5 Q87 109 68.5 156 Q50 203 50 256 Z M462 256 Q462 287 450.5 313.5 Q439 340 419.5 360 Q400 380 373.5 391.5 Q347 403 316 403 Q285 403 258.5 391.5 Q232 380 212 360 Q192 340 180.5 313.5 Q169 287 169 256 Q169 225 180.5 198.5 Q192 172 212 152 Q232 132 258.5 120.5 Q285 109 316 109 Q347 109 373.5 120.5 Q400 132 419.5 152 Q439 172 450.5 198.5 Q462 225 462 256 Z M694 474 L740 572 Q711 578 692 600.5 Q673 623 673 653 Q673 687 697 711 Q721 735 755 735 Q778 735 796 724 Q814 713 824 695 Q834 677 835 655 Q836 633 825 611 L748 448 L694 474 Z " />
<glyph glyph-name="nacute" unicode="&#x144;" horiz-adv-x="652" d="M590 0 L472 0 L472 265 Q472 295 463.5 322.5 Q455 350 438.5 370 Q422 390 396 402 Q370 414 336 414 Q278 414 239.5 374 Q201 334 199 263 L199 0 L81 0 L81 512 L199 512 L199 446 Q211 461 228.5 474.5 Q246 488 267.5 498.5 Q289 509 314 515.5 Q339 522 365 522 Q414 522 455.5 504 Q497 486 527 452 Q557 418 573.5 369.5 Q590 321 590 261 L590 0 Z M333 566 L302 597 L410 740 Q422 756 444 757 Q466 758 480 744 Q494 730 493.5 708 Q493 686 476 673 L333 566 Z " />
<glyph glyph-name="napostrophe" unicode="&#x149;" horiz-adv-x="652" d="M590 0 L472 0 L472 265 Q472 295 463.5 322.5 Q455 350 438.5 370 Q422 390 396 402 Q370 414 336 414 Q278 414 239.5 374 Q201 334 199 263 L199 0 L81 0 L81 512 L199 512 L199 446 Q211 461 228.5 474.5 Q246 488 267.5 498.5 Q289 509 314 515.5 Q339 522 365 522 Q414 522 455.5 504 Q497 486 527 452 Q557 418 573.5 369.5 Q590 321 590 261 L590 0 Z M72 595 L118 693 Q89 699 70 721.5 Q51 744 51 774 Q51 808 75 832 Q99 856 133 856 Q156 856 173.5 845 Q191 834 201 816 Q211 798 212 776 Q213 754 203 732 L126 569 L72 595 Z " />
<glyph glyph-name="ncaron" unicode="&#x148;" horiz-adv-x="652" d="M590 0 L472 0 L472 265 Q472 295 463.5 322.5 Q455 350 438.5 370 Q422 390 396 402 Q370 414 336 414 Q278 414 239.5 374 Q201 334 199 263 L199 0 L81 0 L81 512 L199 512 L199 446 Q211 461 228.5 474.5 Q246 488 267.5 498.5 Q289 509 314 515.5 Q339 522 365 522 Q414 522 455.5 504 Q497 486 527 452 Q557 418 573.5 369.5 Q590 321 590 261 L590 0 Z M352 649 L444 742 L486 700 L350 564 L214 700 L257 742 L352 649 Z " />
<glyph glyph-name="ncommaaccent" unicode="&#x146;" horiz-adv-x="652" d="M590 0 L472 0 L472 265 Q472 295 463.5 322.5 Q455 350 438.5 370 Q422 390 396 402 Q370 414 336 414 Q278 414 239.5 374 Q201 334 199 263 L199 0 L81 0 L81 512 L199 512 L199 446 Q211 461 228.5 474.5 Q246 488 267.5 498.5 Q289 509 314 515.5 Q339 522 365 522 Q414 522 455.5 504 Q497 486 527 452 Q557 418 573.5 369.5 Q590 321 590 261 L590 0 Z M285 -236 L316 -170 Q297 -166 284.5 -152 Q272 -138 272 -118 Q272 -95 287.5 -79.5 Q303 -64 325 -64 Q340 -64 351.5 -71 Q363 -78 370 -89.5 Q377 -101 377.5 -115.5 Q378 -130 371 -145 L320 -253 L285 -236 Z " />
<glyph glyph-name="ntilde" unicode="&#xf1;" horiz-adv-x="652" d="M590 0 L472 0 L472 265 Q472 295 463.5 322.5 Q455 350 438.5 370 Q422 390 396 402 Q370 414 336 414 Q278 414 239.5 374 Q201 334 199 263 L199 0 L81 0 L81 512 L199 512 L199 446 Q211 461 228.5 474.5 Q246 488 267.5 498.5 Q289 509 314 515.5 Q339 522 365 522 Q414 522 455.5 504 Q497 486 527 452 Q557 418 573.5 369.5 Q590 321 590 261 L590 0 Z M389 708 Q412 708 430.5 699.5 Q449 691 462.5 676.5 Q476 662 483.5 643 Q491 624 491 603 L425 603 Q425 623 415.5 635 Q406 647 389 647 Q375 647 364.5 638 Q354 629 341.5 618.5 Q329 608 313 599.5 Q297 591 272 591 Q249 591 230 599.5 Q211 608 197.5 622.5 Q184 637 177 655.5 Q170 674 170 695 L236 695 Q236 675 245.5 663 Q255 651 272 651 Q285 651 295.5 660 Q306 669 318.5 679.5 Q331 690 347.5 699 Q364 708 389 708 Z " />
<glyph glyph-name="oacute" unicode="&#xf3;" horiz-adv-x="631" d="M50 256 Q50 311 70.5 359.5 Q91 408 127 444 Q163 480 211.5 500.5 Q260 521 315 521 Q370 521 418.5 500.5 Q467 480 503 444 Q539 408 560 359.5 Q581 311 581 256 Q581 200 560 151.5 Q539 103 503 67 Q467 31 418.5 10.5 Q370 -10 315 -10 Q260 -10 211.5 10.5 Q163 31 127 67 Q91 103 70.5 151.5 Q50 200 50 256 Z M166 256 Q166 224 177.5 196.5 Q189 169 209.5 149 Q230 129 257 117.5 Q284 106 315 106 Q346 106 373.5 117.5 Q401 129 421.5 149 Q442 169 453.5 196.5 Q465 224 465 256 Q465 288 453.5 315.5 Q442 343 421.5 363 Q401 383 373.5 394.5 Q346 406 315 406 Q284 406 257 394.5 Q230 383 209.5 363 Q189 343 177.5 315.5 Q166 288 166 256 Z M318 566 L287 597 L395 740 Q407 756 429 757 Q451 758 465 744 Q479 730 478.5 708 Q478 686 461 673 L318 566 Z " />
<glyph glyph-name="obreve" unicode="&#x14f;" horiz-adv-x="631" d="M50 256 Q50 311 70.5 359.5 Q91 408 127 444 Q163 480 211.5 500.5 Q260 521 315 521 Q370 521 418.5 500.5 Q467 480 503 444 Q539 408 560 359.5 Q581 311 581 256 Q581 200 560 151.5 Q539 103 503 67 Q467 31 418.5 10.5 Q370 -10 315 -10 Q260 -10 211.5 10.5 Q163 31 127 67 Q91 103 70.5 151.5 Q50 200 50 256 Z M166 256 Q166 224 177.5 196.5 Q189 169 209.5 149 Q230 129 257 117.5 Q284 106 315 106 Q346 106 373.5 117.5 Q401 129 421.5 149 Q442 169 453.5 196.5 Q465 224 465 256 Q465 288 453.5 315.5 Q442 343 421.5 363 Q401 383 373.5 394.5 Q346 406 315 406 Q284 406 257 394.5 Q230 383 209.5 363 Q189 343 177.5 315.5 Q166 288 166 256 Z M198 696 L271 696 L271 676 Q271 657 284 644 Q297 631 315 631 Q334 631 347 644 Q360 657 360 676 L360 696 L432 696 L432 681 Q432 657 423 635.5 Q414 614 398 598 Q382 582 360.5 573 Q339 564 315 564 Q291 564 269.5 573 Q248 582 232 598 Q216 614 207 635.5 Q198 657 198 681 L198 696 Z " />
<glyph glyph-name="ocircumflex" unicode="&#xf4;" horiz-adv-x="631" d="M50 256 Q50 311 70.5 359.5 Q91 408 127 444 Q163 480 211.5 500.5 Q260 521 315 521 Q370 521 418.5 500.5 Q467 480 503 444 Q539 408 560 359.5 Q581 311 581 256 Q581 200 560 151.5 Q539 103 503 67 Q467 31 418.5 10.5 Q370 -10 315 -10 Q260 -10 211.5 10.5 Q163 31 127 67 Q91 103 70.5 151.5 Q50 200 50 256 Z M166 256 Q166 224 177.5 196.5 Q189 169 209.5 149 Q230 129 257 117.5 Q284 106 315 106 Q346 106 373.5 117.5 Q401 129 421.5 149 Q442 169 453.5 196.5 Q465 224 465 256 Q465 288 453.5 315.5 Q442 343 421.5 363 Q401 383 373.5 394.5 Q346 406 315 406 Q284 406 257 394.5 Q230 383 209.5 363 Q189 343 177.5 315.5 Q166 288 166 256 Z M314 657 L222 564 L179 606 L315 742 L451 606 L409 564 L314 657 Z " />
<glyph glyph-name="odieresis" unicode="&#xf6;" horiz-adv-x="631" d="M50 256 Q50 311 70.5 359.5 Q91 408 127 444 Q163 480 211.5 500.5 Q260 521 315 521 Q370 521 418.5 500.5 Q467 480 503 444 Q539 408 560 359.5 Q581 311 581 256 Q581 200 560 151.5 Q539 103 503 67 Q467 31 418.5 10.5 Q370 -10 315 -10 Q260 -10 211.5 10.5 Q163 31 127 67 Q91 103 70.5 151.5 Q50 200 50 256 Z M166 256 Q166 224 177.5 196.5 Q189 169 209.5 149 Q230 129 257 117.5 Q284 106 315 106 Q346 106 373.5 117.5 Q401 129 421.5 149 Q442 169 453.5 196.5 Q465 224 465 256 Q465 288 453.5 315.5 Q442 343 421.5 363 Q401 383 373.5 394.5 Q346 406 315 406 Q284 406 257 394.5 Q230 383 209.5 363 Q189 343 177.5 315.5 Q166 288 166 256 Z M127 663 Q127 697 151 721 Q175 745 209 745 Q243 745 267 721 Q291 697 291 663 Q291 629 267 605 Q243 581 209 581 Q175 581 151 605 Q127 629 127 663 Z M340 663 Q340 697 364 721 Q388 745 422 745 Q456 745 480 721 Q504 697 504 663 Q504 629 480 605 Q456 581 422 581 Q388 581 364 605 Q340 629 340 663 Z " />
<glyph glyph-name="ograve" unicode="&#xf2;" horiz-adv-x="631" d="M50 256 Q50 311 70.5 359.5 Q91 408 127 444 Q163 480 211.5 500.5 Q260 521 315 521 Q370 521 418.5 500.5 Q467 480 503 444 Q539 408 560 359.5 Q581 311 581 256 Q581 200 560 151.5 Q539 103 503 67 Q467 31 418.5 10.5 Q370 -10 315 -10 Q260 -10 211.5 10.5 Q163 31 127 67 Q91 103 70.5 151.5 Q50 200 50 256 Z M166 256 Q166 224 177.5 196.5 Q189 169 209.5 149 Q230 129 257 117.5 Q284 106 315 106 Q346 106 373.5 117.5 Q401 129 421.5 149 Q442 169 453.5 196.5 Q465 224 465 256 Q465 288 453.5 315.5 Q442 343 421.5 363 Q401 383 373.5 394.5 Q346 406 315 406 Q284 406 257 394.5 Q230 383 209.5 363 Q189 343 177.5 315.5 Q166 288 166 256 Z M170 673 Q153 686 152.5 708 Q152 730 166 744 Q180 758 202 757 Q224 756 236 740 L344 597 L313 566 L170 673 Z " />
<glyph glyph-name="ohungarumlaut" unicode="&#x151;" horiz-adv-x="631" d="M50 256 Q50 311 70.5 359.5 Q91 408 127 444 Q163 480 211.5 500.5 Q260 521 315 521 Q370 521 418.5 500.5 Q467 480 503 444 Q539 408 560 359.5 Q581 311 581 256 Q581 200 560 151.5 Q539 103 503 67 Q467 31 418.5 10.5 Q370 -10 315 -10 Q260 -10 211.5 10.5 Q163 31 127 67 Q91 103 70.5 151.5 Q50 200 50 256 Z M166 256 Q166 224 177.5 196.5 Q189 169 209.5 149 Q230 129 257 117.5 Q284 106 315 106 Q346 106 373.5 117.5 Q401 129 421.5 149 Q442 169 453.5 196.5 Q465 224 465 256 Q465 288 453.5 315.5 Q442 343 421.5 363 Q401 383 373.5 394.5 Q346 406 315 406 Q284 406 257 394.5 Q230 383 209.5 363 Q189 343 177.5 315.5 Q166 288 166 256 Z M223 566 L192 597 L299 740 Q311 756 333 757 Q355 758 369 744 Q383 730 382.5 708 Q382 686 365 673 L223 566 Z M414 566 L383 597 L490 740 Q502 756 524 757 Q546 758 560 744 Q574 730 573.5 708 Q573 686 556 673 L414 566 Z " />
<glyph glyph-name="omacron" unicode="&#x14d;" horiz-adv-x="631" d="M50 256 Q50 311 70.5 359.5 Q91 408 127 444 Q163 480 211.5 500.5 Q260 521 315 521 Q370 521 418.5 500.5 Q467 480 503 444 Q539 408 560 359.5 Q581 311 581 256 Q581 200 560 151.5 Q539 103 503 67 Q467 31 418.5 10.5 Q370 -10 315 -10 Q260 -10 211.5 10.5 Q163 31 127 67 Q91 103 70.5 151.5 Q50 200 50 256 Z M166 256 Q166 224 177.5 196.5 Q189 169 209.5 149 Q230 129 257 117.5 Q284 106 315 106 Q346 106 373.5 117.5 Q401 129 421.5 149 Q442 169 453.5 196.5 Q465 224 465 256 Q465 288 453.5 315.5 Q442 343 421.5 363 Q401 383 373.5 394.5 Q346 406 315 406 Q284 406 257 394.5 Q230 383 209.5 363 Q189 343 177.5 315.5 Q166 288 166 256 Z M470 581 L161 581 L161 654 L470 654 L470 581 Z " />
<glyph glyph-name="gbreve" unicode="&#x11f;" horiz-adv-x="570" d="M77 334 Q77 376 93 413.5 Q109 451 136.5 478.5 Q164 506 201 522 Q238 538 280 538 Q324 538 361.5 521 Q399 504 427 474 Q456 494 486 503 Q516 512 551 512 L559 512 L559 407 L467 407 Q475 393 479.5 373 Q484 353 484 334 Q484 292 468 255 Q452 218 424.5 190.5 Q397 163 359.5 147 Q322 131 280 131 Q254 131 229 139.5 Q204 148 183 160 Q160 158 144 146 Q128 134 128 111 Q128 87 146 75.5 Q164 64 191 64 L336 64 Q430 64 482 21.5 Q534 -21 534 -99 Q534 -177 475 -221.5 Q416 -266 313 -266 Q259 -266 213.5 -252.5 Q168 -239 135.5 -215 Q103 -191 85 -159 Q67 -127 67 -90 L115 -48 Q67 -36 41 0 Q15 36 17 83 Q19 130 47.5 165.5 Q76 201 118 212 Q99 238 88 268.5 Q77 299 77 334 Z M189 334 Q189 296 215.5 269.5 Q242 243 280 243 Q299 243 315.5 250 Q332 257 344.5 269.5 Q357 282 364 298.5 Q371 315 371 334 Q371 372 344.5 398.5 Q318 425 280 425 Q261 425 244.5 418 Q228 411 215.5 398.5 Q203 386 196 369.5 Q189 353 189 334 Z M313 -156 Q362 -156 387 -142.5 Q412 -129 412 -99 Q412 -76 393 -62 Q374 -48 336 -48 L165 -48 Q165 -70 176.5 -89.5 Q188 -109 208 -124 Q228 -139 255 -147.5 Q282 -156 313 -156 Z M168 696 L241 696 L241 676 Q241 657 253.5 644 Q266 631 285 631 Q304 631 316.5 644 Q329 657 329 676 L329 696 L402 696 L402 681 Q402 657 393 635.5 Q384 614 368 598 Q352 582 330.5 573 Q309 564 285 564 Q261 564 239.5 573 Q218 582 202 598 Q186 614 177 635.5 Q168 657 168 681 L168 696 Z " />
<glyph glyph-name="gcircumflex" unicode="&#x11d;" horiz-adv-x="570" d="M77 334 Q77 376 93 413.5 Q109 451 136.5 478.5 Q164 506 201 522 Q238 538 280 538 Q324 538 361.5 521 Q399 504 427 474 Q456 494 486 503 Q516 512 551 512 L559 512 L559 407 L467 407 Q475 393 479.5 373 Q484 353 484 334 Q484 292 468 255 Q452 218 424.5 190.5 Q397 163 359.5 147 Q322 131 280 131 Q254 131 229 139.5 Q204 148 183 160 Q160 158 144 146 Q128 134 128 111 Q128 87 146 75.5 Q164 64 191 64 L336 64 Q430 64 482 21.5 Q534 -21 534 -99 Q534 -177 475 -221.5 Q416 -266 313 -266 Q259 -266 213.5 -252.5 Q168 -239 135.5 -215 Q103 -191 85 -159 Q67 -127 67 -90 L115 -48 Q67 -36 41 0 Q15 36 17 83 Q19 130 47.5 165.5 Q76 201 118 212 Q99 238 88 268.5 Q77 299 77 334 Z M189 334 Q189 296 215.5 269.5 Q242 243 280 243 Q299 243 315.5 250 Q332 257 344.5 269.5 Q357 282 364 298.5 Q371 315 371 334 Q371 372 344.5 398.5 Q318 425 280 425 Q261 425 244.5 418 Q228 411 215.5 398.5 Q203 386 196 369.5 Q189 353 189 334 Z M313 -156 Q362 -156 387 -142.5 Q412 -129 412 -99 Q412 -76 393 -62 Q374 -48 336 -48 L165 -48 Q165 -70 176.5 -89.5 Q188 -109 208 -124 Q228 -139 255 -147.5 Q282 -156 313 -156 Z M284 657 L191 564 L149 606 L285 742 L421 606 L378 564 L284 657 Z " />
<glyph glyph-name="gcommaaccent" unicode="&#x123;" horiz-adv-x="570" d="M77 334 Q77 376 93 413.5 Q109 451 136.5 478.5 Q164 506 201 522 Q238 538 280 538 Q324 538 361.5 521 Q399 504 427 474 Q456 494 486 503 Q516 512 551 512 L559 512 L559 407 L467 407 Q475 393 479.5 373 Q484 353 484 334 Q484 292 468 255 Q452 218 424.5 190.5 Q397 163 359.5 147 Q322 131 280 131 Q254 131 229 139.5 Q204 148 183 160 Q160 158 144 146 Q128 134 128 111 Q128 87 146 75.5 Q164 64 191 64 L336 64 Q430 64 482 21.5 Q534 -21 534 -99 Q534 -177 475 -221.5 Q416 -266 313 -266 Q259 -266 213.5 -252.5 Q168 -239 135.5 -215 Q103 -191 85 -159 Q67 -127 67 -90 L115 -48 Q67 -36 41 0 Q15 36 17 83 Q19 130 47.5 165.5 Q76 201 118 212 Q99 238 88 268.5 Q77 299 77 334 Z M189 334 Q189 296 215.5 269.5 Q242 243 280 243 Q299 243 315.5 250 Q332 257 344.5 269.5 Q357 282 364 298.5 Q371 315 371 334 Q371 372 344.5 398.5 Q318 425 280 425 Q261 425 244.5 418 Q228 411 215.5 398.5 Q203 386 196 369.5 Q189 353 189 334 Z M313 -156 Q362 -156 387 -142.5 Q412 -129 412 -99 Q412 -76 393 -62 Q374 -48 336 -48 L165 -48 Q165 -70 176.5 -89.5 Q188 -109 208 -124 Q228 -139 255 -147.5 Q282 -156 313 -156 Z M355 851 L309 753 Q338 747 357 724.5 Q376 702 376 672 Q376 638 352 614 Q328 590 294 590 Q271 590 253 601 Q235 612 225 630 Q215 648 213.5 670 Q212 692 223 714 L301 877 L355 851 Z " />
<glyph glyph-name="gdotaccent" unicode="&#x121;" horiz-adv-x="570" d="M77 334 Q77 376 93 413.5 Q109 451 136.5 478.5 Q164 506 201 522 Q238 538 280 538 Q324 538 361.5 521 Q399 504 427 474 Q456 494 486 503 Q516 512 551 512 L559 512 L559 407 L467 407 Q475 393 479.5 373 Q484 353 484 334 Q484 292 468 255 Q452 218 424.5 190.5 Q397 163 359.5 147 Q322 131 280 131 Q254 131 229 139.5 Q204 148 183 160 Q160 158 144 146 Q128 134 128 111 Q128 87 146 75.5 Q164 64 191 64 L336 64 Q430 64 482 21.5 Q534 -21 534 -99 Q534 -177 475 -221.5 Q416 -266 313 -266 Q259 -266 213.5 -252.5 Q168 -239 135.5 -215 Q103 -191 85 -159 Q67 -127 67 -90 L115 -48 Q67 -36 41 0 Q15 36 17 83 Q19 130 47.5 165.5 Q76 201 118 212 Q99 238 88 268.5 Q77 299 77 334 Z M189 334 Q189 296 215.5 269.5 Q242 243 280 243 Q299 243 315.5 250 Q332 257 344.5 269.5 Q357 282 364 298.5 Q371 315 371 334 Q371 372 344.5 398.5 Q318 425 280 425 Q261 425 244.5 418 Q228 411 215.5 398.5 Q203 386 196 369.5 Q189 353 189 334 Z M313 -156 Q362 -156 387 -142.5 Q412 -129 412 -99 Q412 -76 393 -62 Q374 -48 336 -48 L165 -48 Q165 -70 176.5 -89.5 Q188 -109 208 -124 Q228 -139 255 -147.5 Q282 -156 313 -156 Z M203 663 Q203 697 227 721 Q251 745 285 745 Q319 745 343 721 Q367 697 367 663 Q367 629 343 605 Q319 581 285 581 Q251 581 227 605 Q203 629 203 663 Z " />
<glyph glyph-name="racute" unicode="&#x155;" horiz-adv-x="382" d="M201 0 L81 0 L81 512 L184 512 L184 441 Q215 475 255.5 493.5 Q296 512 343 512 L372 512 L372 407 L343 407 Q311 407 285 396.5 Q259 386 240.5 367 Q222 348 211.5 321.5 Q201 295 201 264 L201 0 Z M154 566 L122 597 L230 740 Q242 756 264 757 Q286 758 300 744 Q314 730 313.5 708 Q313 686 296 673 L154 566 Z " />
<glyph glyph-name="rcaron" unicode="&#x159;" horiz-adv-x="382" d="M201 0 L81 0 L81 512 L184 512 L184 441 Q215 475 255.5 493.5 Q296 512 343 512 L372 512 L372 407 L343 407 Q311 407 285 396.5 Q259 386 240.5 367 Q222 348 211.5 321.5 Q201 295 201 264 L201 0 Z M201 649 L293 742 L336 700 L200 564 L64 700 L106 742 L201 649 Z " />
<glyph glyph-name="rcommaaccent" unicode="&#x157;" horiz-adv-x="382" d="M201 0 L81 0 L81 512 L184 512 L184 441 Q215 475 255.5 493.5 Q296 512 343 512 L372 512 L372 407 L343 407 Q311 407 285 396.5 Q259 386 240.5 367 Q222 348 211.5 321.5 Q201 295 201 264 L201 0 Z M99 -236 L129 -170 Q110 -166 98 -152 Q86 -138 86 -118 Q86 -95 101.5 -79.5 Q117 -64 139 -64 Q154 -64 165.5 -71 Q177 -78 184 -89.5 Q191 -101 191.5 -115.5 Q192 -130 185 -145 L134 -253 L99 -236 Z " />
<glyph glyph-name="sacute" unicode="&#x15b;" horiz-adv-x="534" d="M170 370 Q170 352 184 340 Q198 328 221 322 L339 293 Q417 273 453 233 Q489 193 489 135 Q489 103 476.5 75 Q464 47 438 26.5 Q412 6 373 -5.5 Q334 -17 282 -17 Q242 -17 205.5 -8.5 Q169 0 139 14.5 Q109 29 86 48 Q63 67 50 88 L140 151 Q163 122 202.5 105 Q242 88 282 88 Q323 88 345.5 101.5 Q368 115 368 135 Q368 151 356 164 Q344 177 315 185 L208 212 Q125 233 88 273.5 Q51 314 51 370 Q51 402 65 430.5 Q79 459 105.5 480.5 Q132 502 171 514.5 Q210 527 260 527 Q304 527 343.5 514 Q383 501 412.5 478 Q442 455 459.5 423 Q477 391 477 353 L359 353 Q359 366 351.5 379 Q344 392 331 402.5 Q318 413 300 419.5 Q282 426 260 426 Q213 426 191.5 408 Q170 390 170 370 Z M272 566 L241 597 L349 740 Q361 756 383 757 Q405 758 419 744 Q433 730 432.5 708 Q432 686 415 673 L272 566 Z " />
<glyph glyph-name="scaron" unicode="&#x161;" horiz-adv-x="534" d="M170 370 Q170 352 184 340 Q198 328 221 322 L339 293 Q417 273 453 233 Q489 193 489 135 Q489 103 476.5 75 Q464 47 438 26.5 Q412 6 373 -5.5 Q334 -17 282 -17 Q242 -17 205.5 -8.5 Q169 0 139 14.5 Q109 29 86 48 Q63 67 50 88 L140 151 Q163 122 202.5 105 Q242 88 282 88 Q323 88 345.5 101.5 Q368 115 368 135 Q368 151 356 164 Q344 177 315 185 L208 212 Q125 233 88 273.5 Q51 314 51 370 Q51 402 65 430.5 Q79 459 105.5 480.5 Q132 502 171 514.5 Q210 527 260 527 Q304 527 343.5 514 Q383 501 412.5 478 Q442 455 459.5 423 Q477 391 477 353 L359 353 Q359 366 351.5 379 Q344 392 331 402.5 Q318 413 300 419.5 Q282 426 260 426 Q213 426 191.5 408 Q170 390 170 370 Z M270 649 L363 742 L405 700 L269 564 L133 700 L176 742 L270 649 Z " />
<glyph glyph-name="scedilla" unicode="&#x15f;" horiz-adv-x="534" d="M170 370 Q170 352 184 340 Q198 328 221 322 L339 293 Q417 273 453 233 Q489 193 489 135 Q489 74 444 32 Q399 -10 306 -16 L306 -45 Q335 -54 353.5 -79 Q372 -104 372 -136 Q372 -176 344 -204 Q316 -232 276 -232 Q256 -232 239 -224.5 Q222 -217 208 -204 L251 -163 Q256 -167 262 -169.5 Q268 -172 276 -172 Q291 -172 301.5 -161.5 Q312 -151 312 -136 Q312 -121 301.5 -110.5 Q291 -100 276 -100 Q262 -100 250 -110 L208 -68 Q216 -60 225.5 -53.5 Q235 -47 246 -45 L246 -15 Q177 -7 125 21.5 Q73 50 50 88 L140 151 Q163 122 202.5 105 Q242 88 282 88 Q323 88 345.5 101.5 Q368 115 368 135 Q368 151 356 164 Q344 177 315 185 L208 212 Q125 233 88 273.5 Q51 314 51 370 Q51 402 65 430.5 Q79 459 105.5 480.5 Q132 502 171 514.5 Q210 527 260 527 Q304 527 343.5 514 Q383 501 412.5 478 Q442 455 459.5 423 Q477 391 477 353 L359 353 Q359 366 351.5 379 Q344 392 331 402.5 Q318 413 300 419.5 Q282 426 260 426 Q213 426 191.5 408 Q170 390 170 370 Z " />
<glyph glyph-name="scircumflex" unicode="&#x15d;" horiz-adv-x="534" d="M170 370 Q170 352 184 340 Q198 328 221 322 L339 293 Q417 273 453 233 Q489 193 489 135 Q489 103 476.5 75 Q464 47 438 26.5 Q412 6 373 -5.5 Q334 -17 282 -17 Q242 -17 205.5 -8.5 Q169 0 139 14.5 Q109 29 86 48 Q63 67 50 88 L140 151 Q163 122 202.5 105 Q242 88 282 88 Q323 88 345.5 101.5 Q368 115 368 135 Q368 151 356 164 Q344 177 315 185 L208 212 Q125 233 88 273.5 Q51 314 51 370 Q51 402 65 430.5 Q79 459 105.5 480.5 Q132 502 171 514.5 Q210 527 260 527 Q304 527 343.5 514 Q383 501 412.5 478 Q442 455 459.5 423 Q477 391 477 353 L359 353 Q359 366 351.5 379 Q344 392 331 402.5 Q318 413 300 419.5 Q282 426 260 426 Q213 426 191.5 408 Q170 390 170 370 Z M268 657 L176 564 L133 606 L269 742 L405 606 L363 564 L268 657 Z " />
<glyph glyph-name="scommaaccent" unicode="&#x219;" horiz-adv-x="534" d="M170 370 Q170 352 184 340 Q198 328 221 322 L339 293 Q417 273 453 233 Q489 193 489 135 Q489 103 476.5 75 Q464 47 438 26.5 Q412 6 373 -5.5 Q334 -17 282 -17 Q242 -17 205.5 -8.5 Q169 0 139 14.5 Q109 29 86 48 Q63 67 50 88 L140 151 Q163 122 202.5 105 Q242 88 282 88 Q323 88 345.5 101.5 Q368 115 368 135 Q368 151 356 164 Q344 177 315 185 L208 212 Q125 233 88 273.5 Q51 314 51 370 Q51 402 65 430.5 Q79 459 105.5 480.5 Q132 502 171 514.5 Q210 527 260 527 Q304 527 343.5 514 Q383 501 412.5 478 Q442 455 459.5 423 Q477 391 477 353 L359 353 Q359 366 351.5 379 Q344 392 331 402.5 Q318 413 300 419.5 Q282 426 260 426 Q213 426 191.5 408 Q170 390 170 370 Z M224 -236 L254 -170 Q235 -166 223 -152 Q211 -138 211 -118 Q211 -95 226.5 -79.5 Q242 -64 264 -64 Q279 -64 290.5 -71 Q302 -78 309 -89.5 Q316 -101 316.5 -115.5 Q317 -130 310 -145 L259 -253 L224 -236 Z " />
<glyph glyph-name="tbar" unicode="&#x167;" horiz-adv-x="377" d="M128 0 L128 211 L45 188 L26 257 L128 284 L128 407 L10 407 L10 512 L128 512 L128 640 L248 640 L248 512 L366 512 L366 407 L248 407 L248 316 L329 338 L348 269 L248 242 L248 0 L128 0 Z " />
<glyph glyph-name="tcaron" unicode="&#x165;" horiz-adv-x="601" d="M128 0 L128 407 L10 407 L10 512 L128 512 L128 640 L248 640 L248 512 L366 512 L366 407 L248 407 L248 0 L128 0 Z M429 474 L475 572 Q446 578 427 600.5 Q408 623 408 653 Q408 687 432 711 Q456 735 490 735 Q513 735 530.5 724 Q548 713 558 695 Q568 677 569 655 Q570 633 560 611 L483 448 L429 474 Z " />
<glyph glyph-name="tcommaaccent" unicode="&#x163;" horiz-adv-x="377" d="M128 0 L128 407 L10 407 L10 512 L128 512 L128 640 L248 640 L248 512 L366 512 L366 407 L248 407 L248 0 L128 0 Z M143 -236 L174 -170 Q155 -166 142.5 -152 Q130 -138 130 -118 Q130 -95 145.5 -79.5 Q161 -64 183 -64 Q206 -64 220.5 -80 Q235 -96 235 -118 Q234 -126 233 -132.5 Q232 -139 228 -147 L178 -253 L143 -236 Z " />
<glyph glyph-name="uacute" unicode="&#xfa;" horiz-adv-x="652" d="M61 512 L180 512 L180 247 Q180 217 188.5 189.5 Q197 162 213.5 142 Q230 122 255.5 110 Q281 98 316 98 Q373 98 412 138 Q451 178 453 249 L453 512 L571 512 L571 0 L453 0 L453 66 Q441 51 423.5 37.5 Q406 24 384 13.5 Q362 3 337.5 -3.5 Q313 -10 287 -10 Q238 -10 196.5 8 Q155 26 125 60 Q95 94 78 142.5 Q61 191 61 251 L61 512 Z M304 566 L273 597 L381 740 Q393 756 415 757 Q437 758 451 744 Q465 730 464.5 708 Q464 686 447 673 L304 566 Z " />
<glyph glyph-name="ubreve" unicode="&#x16d;" horiz-adv-x="652" d="M61 512 L180 512 L180 247 Q180 217 188.5 189.5 Q197 162 213.5 142 Q230 122 255.5 110 Q281 98 316 98 Q373 98 412 138 Q451 178 453 249 L453 512 L571 512 L571 0 L453 0 L453 66 Q441 51 423.5 37.5 Q406 24 384 13.5 Q362 3 337.5 -3.5 Q313 -10 287 -10 Q238 -10 196.5 8 Q155 26 125 60 Q95 94 78 142.5 Q61 191 61 251 L61 512 Z M204 696 L277 696 L277 676 Q277 657 290 644 Q303 631 321 631 Q340 631 353 644 Q366 657 366 676 L366 696 L438 696 L438 681 Q438 657 429 635.5 Q420 614 404 598 Q388 582 366.5 573 Q345 564 321 564 Q297 564 275.5 573 Q254 582 238 598 Q222 614 213 635.5 Q204 657 204 681 L204 696 Z " />
<glyph glyph-name="ucircumflex" unicode="&#xfb;" horiz-adv-x="652" d="M61 512 L180 512 L180 247 Q180 217 188.5 189.5 Q197 162 213.5 142 Q230 122 255.5 110 Q281 98 316 98 Q373 98 412 138 Q451 178 453 249 L453 512 L571 512 L571 0 L453 0 L453 66 Q441 51 423.5 37.5 Q406 24 384 13.5 Q362 3 337.5 -3.5 Q313 -10 287 -10 Q238 -10 196.5 8 Q155 26 125 60 Q95 94 78 142.5 Q61 191 61 251 L61 512 Z M320 657 L228 564 L185 606 L321 742 L457 606 L415 564 L320 657 Z " />
<glyph glyph-name="udieresis" unicode="&#xfc;" horiz-adv-x="652" d="M61 512 L180 512 L180 247 Q180 217 188.5 189.5 Q197 162 213.5 142 Q230 122 255.5 110 Q281 98 316 98 Q373 98 412 138 Q451 178 453 249 L453 512 L571 512 L571 0 L453 0 L453 66 Q441 51 423.5 37.5 Q406 24 384 13.5 Q362 3 337.5 -3.5 Q313 -10 287 -10 Q238 -10 196.5 8 Q155 26 125 60 Q95 94 78 142.5 Q61 191 61 251 L61 512 Z M133 663 Q133 697 157 721 Q181 745 215 745 Q249 745 273 721 Q297 697 297 663 Q297 629 273 605 Q249 581 215 581 Q181 581 157 605 Q133 629 133 663 Z M346 663 Q346 697 370 721 Q394 745 428 745 Q462 745 486 721 Q510 697 510 663 Q510 629 486 605 Q462 581 428 581 Q394 581 370 605 Q346 629 346 663 Z " />
<glyph glyph-name="uhungarumlaut" unicode="&#x171;" horiz-adv-x="652" d="M61 512 L180 512 L180 247 Q180 217 188.5 189.5 Q197 162 213.5 142 Q230 122 255.5 110 Q281 98 316 98 Q373 98 412 138 Q451 178 453 249 L453 512 L571 512 L571 0 L453 0 L453 66 Q441 51 423.5 37.5 Q406 24 384 13.5 Q362 3 337.5 -3.5 Q313 -10 287 -10 Q238 -10 196.5 8 Q155 26 125 60 Q95 94 78 142.5 Q61 191 61 251 L61 512 Z M209 566 L178 597 L285 740 Q297 756 319 757 Q341 758 355 744 Q369 730 368.5 708 Q368 686 351 673 L209 566 Z M400 566 L369 597 L476 740 Q488 756 510 757 Q532 758 546 744 Q560 730 559.5 708 Q559 686 542 673 L400 566 Z " />
<glyph glyph-name="ugrave" unicode="&#xf9;" horiz-adv-x="652" d="M61 512 L180 512 L180 247 Q180 217 188.5 189.5 Q197 162 213.5 142 Q230 122 255.5 110 Q281 98 316 98 Q373 98 412 138 Q451 178 453 249 L453 512 L571 512 L571 0 L453 0 L453 66 Q441 51 423.5 37.5 Q406 24 384 13.5 Q362 3 337.5 -3.5 Q313 -10 287 -10 Q238 -10 196.5 8 Q155 26 125 60 Q95 94 78 142.5 Q61 191 61 251 L61 512 Z M196 673 Q179 686 178.5 708 Q178 730 192 744 Q206 758 228 757 Q250 756 262 740 L370 597 L339 566 L196 673 Z " />
<glyph glyph-name="umacron" unicode="&#x16b;" horiz-adv-x="652" d="M61 512 L180 512 L180 247 Q180 217 188.5 189.5 Q197 162 213.5 142 Q230 122 255.5 110 Q281 98 316 98 Q373 98 412 138 Q451 178 453 249 L453 512 L571 512 L571 0 L453 0 L453 66 Q441 51 423.5 37.5 Q406 24 384 13.5 Q362 3 337.5 -3.5 Q313 -10 287 -10 Q238 -10 196.5 8 Q155 26 125 60 Q95 94 78 142.5 Q61 191 61 251 L61 512 Z M476 581 L167 581 L167 654 L476 654 L476 581 Z " />
<glyph glyph-name="uogonek" unicode="&#x173;" horiz-adv-x="652" d="M161 -76 Q161 -51 170 -29.5 Q179 -8 194 9 Q134 36 97.5 98.5 Q61 161 61 251 L61 512 L180 512 L180 247 Q180 217 188.5 189.5 Q197 162 213.5 142 Q230 122 255.5 110 Q281 98 316 98 Q374 98 412.5 138 Q451 178 453 249 L453 512 L571 512 L571 0 L453 0 L453 66 Q428 36 384 13 Q340 -10 287 -10 L281 -10 Q255 -12 238.5 -31 Q222 -50 222 -76 Q222 -104 240.5 -123 Q259 -142 287 -142 Q314 -142 333 -123 Q352 -104 352 -76 L413 -76 Q413 -102 403 -125 Q393 -148 376 -165 Q359 -182 336 -192 Q313 -202 287 -202 Q261 -202 238 -192 Q215 -182 198 -165 Q181 -148 171 -125 Q161 -102 161 -76 Z " />
<glyph glyph-name="uring" unicode="&#x16f;" horiz-adv-x="652" d="M61 512 L180 512 L180 247 Q180 217 188.5 189.5 Q197 162 213.5 142 Q230 122 255.5 110 Q281 98 316 98 Q373 98 412 138 Q451 178 453 249 L453 512 L571 512 L571 0 L453 0 L453 66 Q441 51 423.5 37.5 Q406 24 384 13.5 Q362 3 337.5 -3.5 Q313 -10 287 -10 Q238 -10 196.5 8 Q155 26 125 60 Q95 94 78 142.5 Q61 191 61 251 L61 512 Z M225 672 Q225 712 253 740 Q281 768 321 768 Q361 768 389 740 Q417 712 417 672 Q417 632 389 604 Q361 576 321 576 Q281 576 253 604 Q225 632 225 672 Z M286 672 Q286 657 296 646.5 Q306 636 321 636 Q337 636 347 646.5 Q357 657 357 672 Q357 687 347 697.5 Q337 708 321 708 Q306 708 296 697.5 Q286 687 286 672 Z " />
<glyph glyph-name="utilde" unicode="&#x169;" horiz-adv-x="652" d="M61 512 L180 512 L180 247 Q180 217 188.5 189.5 Q197 162 213.5 142 Q230 122 255.5 110 Q281 98 316 98 Q373 98 412 138 Q451 178 453 249 L453 512 L571 512 L571 0 L453 0 L453 66 Q441 51 423.5 37.5 Q406 24 384 13.5 Q362 3 337.5 -3.5 Q313 -10 287 -10 Q238 -10 196.5 8 Q155 26 125 60 Q95 94 78 142.5 Q61 191 61 251 L61 512 Z M380 708 Q403 708 421.5 699.5 Q440 691 453.5 676.5 Q467 662 474.5 643 Q482 624 482 603 L416 603 Q416 623 406.5 635 Q397 647 380 647 Q366 647 355.5 638 Q345 629 332.5 618.5 Q320 608 304 599.5 Q288 591 263 591 Q240 591 221 599.5 Q202 608 188.5 622.5 Q175 637 168 655.5 Q161 674 161 695 L227 695 Q227 675 236.5 663 Q246 651 263 651 Q276 651 286.5 660 Q297 669 309.5 679.5 Q322 690 338.5 699 Q355 708 380 708 Z " />
<glyph glyph-name="wacute" unicode="&#x1e83;" horiz-adv-x="786" d="M554 109 L560 109 L642 512 L769 512 L652 0 L475 0 L398 315 L388 315 L311 0 L134 0 L17 512 L144 512 L226 109 L232 109 L330 512 L456 512 L554 109 Z M396 566 L365 597 L472 740 Q485 756 506.5 757 Q528 758 542 744 Q556 730 555.5 708 Q555 686 539 673 L396 566 Z " />
<glyph glyph-name="wcircumflex" unicode="&#x175;" horiz-adv-x="786" d="M554 109 L560 109 L642 512 L769 512 L652 0 L475 0 L398 315 L388 315 L311 0 L134 0 L17 512 L144 512 L226 109 L232 109 L330 512 L456 512 L554 109 Z M392 657 L300 564 L257 606 L393 742 L529 606 L487 564 L392 657 Z " />
<glyph glyph-name="wdieresis" unicode="&#x1e85;" horiz-adv-x="786" d="M554 109 L560 109 L642 512 L769 512 L652 0 L475 0 L398 315 L388 315 L311 0 L134 0 L17 512 L144 512 L226 109 L232 109 L330 512 L456 512 L554 109 Z M205 663 Q205 697 228.5 721 Q252 745 287 745 Q321 745 344.5 721 Q368 697 368 663 Q368 629 344.5 605 Q321 581 287 581 Q252 581 228.5 605 Q205 629 205 663 Z M418 663 Q418 697 441.5 721 Q465 745 500 745 Q534 745 557.5 721 Q581 697 581 663 Q581 629 557.5 605 Q534 581 500 581 Q465 581 441.5 605 Q418 629 418 663 Z " />
<glyph glyph-name="wgrave" unicode="&#x1e81;" horiz-adv-x="786" d="M554 109 L560 109 L642 512 L769 512 L652 0 L475 0 L398 315 L388 315 L311 0 L134 0 L17 512 L144 512 L226 109 L232 109 L330 512 L456 512 L554 109 Z M248 673 Q231 686 230.5 708 Q230 730 244 744 Q258 758 280 757 Q302 756 314 740 L421 597 L390 566 L248 673 Z " />
<glyph glyph-name="yacute" unicode="&#xfd;" horiz-adv-x="572" d="M289 124 L422 512 L555 512 L346 -47 L346 -256 L228 -256 L228 -50 L17 512 L151 512 L284 124 L289 124 Z M278 566 L247 597 L355 740 Q367 756 389 757 Q411 758 425 744 Q439 730 438.5 708 Q438 686 421 673 L278 566 Z " />
<glyph glyph-name="ycircumflex" unicode="&#x177;" horiz-adv-x="572" d="M289 124 L422 512 L555 512 L346 -47 L346 -256 L228 -256 L228 -50 L17 512 L151 512 L284 124 L289 124 Z M285 657 L192 564 L150 606 L286 742 L422 606 L379 564 L285 657 Z " />
<glyph glyph-name="ydieresis" unicode="&#xff;" horiz-adv-x="572" d="M289 124 L422 512 L555 512 L346 -47 L346 -256 L228 -256 L228 -50 L17 512 L151 512 L284 124 L289 124 Z M97 663 Q97 697 121 721 Q145 745 179 745 Q213 745 237 721 Q261 697 261 663 Q261 629 237 605 Q213 581 179 581 Q145 581 121 605 Q97 629 97 663 Z M310 663 Q310 697 334 721 Q358 745 392 745 Q426 745 450 721 Q474 697 474 663 Q474 629 450 605 Q426 581 392 581 Q358 581 334 605 Q310 629 310 663 Z " />
<glyph glyph-name="ygrave" unicode="&#x1ef3;" horiz-adv-x="572" d="M289 124 L422 512 L555 512 L346 -47 L346 -256 L228 -256 L228 -50 L17 512 L151 512 L284 124 L289 124 Z M150 673 Q133 686 132.5 708 Q132 730 146 744 Q160 758 182 757 Q204 756 216 740 L324 597 L293 566 L150 673 Z " />
<glyph glyph-name="oslashacute" unicode="&#x1ff;" horiz-adv-x="631" d="M50 256 Q50 311 70.5 359.5 Q91 408 127 444 Q163 480 211.5 500.5 Q260 521 315 521 Q358 521 396.5 509 Q435 497 467 474 L511 518 L577 451 L534 408 Q556 375 568.5 336.5 Q581 298 581 256 Q581 200 560 151.5 Q539 103 503 67 Q467 31 418.5 10.5 Q370 -10 315 -10 Q229 -10 164 38 L120 -6 L54 61 L97 104 Q74 136 62 174.5 Q50 213 50 256 Z M315 106 Q346 106 373.5 117.5 Q401 129 421.5 149 Q442 169 453.5 196.5 Q465 224 465 256 Q465 274 460.5 290.5 Q456 307 448 322 L248 122 Q280 106 315 106 Z M166 256 Q166 221 182 189 L382 389 Q353 406 315 406 Q284 406 257 394.5 Q230 383 209.5 363 Q189 343 177.5 315.5 Q166 288 166 256 Z M318 566 L287 597 L395 740 Q407 756 429 757 Q451 758 465 744 Q479 730 478.5 708 Q478 686 461 673 L318 566 Z " />
<glyph glyph-name="otilde" unicode="&#xf5;" horiz-adv-x="631" d="M50 256 Q50 311 70.5 359.5 Q91 408 127 444 Q163 480 211.5 500.5 Q260 521 315 521 Q370 521 418.5 500.5 Q467 480 503 444 Q539 408 560 359.5 Q581 311 581 256 Q581 200 560 151.5 Q539 103 503 67 Q467 31 418.5 10.5 Q370 -10 315 -10 Q260 -10 211.5 10.5 Q163 31 127 67 Q91 103 70.5 151.5 Q50 200 50 256 Z M166 256 Q166 224 177.5 196.5 Q189 169 209.5 149 Q230 129 257 117.5 Q284 106 315 106 Q346 106 373.5 117.5 Q401 129 421.5 149 Q442 169 453.5 196.5 Q465 224 465 256 Q465 288 453.5 315.5 Q442 343 421.5 363 Q401 383 373.5 394.5 Q346 406 315 406 Q284 406 257 394.5 Q230 383 209.5 363 Q189 343 177.5 315.5 Q166 288 166 256 Z M374 708 Q397 708 415.5 699.5 Q434 691 447.5 676.5 Q461 662 468.5 643 Q476 624 476 603 L410 603 Q410 623 400.5 635 Q391 647 374 647 Q360 647 349.5 638 Q339 629 326.5 618.5 Q314 608 298 599.5 Q282 591 257 591 Q234 591 215 599.5 Q196 608 182.5 622.5 Q169 637 162 655.5 Q155 674 155 695 L221 695 Q221 675 230.5 663 Q240 651 257 651 Q270 651 280.5 660 Q291 669 303.5 679.5 Q316 690 332.5 699 Q349 708 374 708 Z " />
<glyph glyph-name="approxequal" unicode="&#x2248;" horiz-adv-x="571" d="M370 447 Q403 447 430.5 434.5 Q458 422 477.5 400.5 Q497 379 508 351.5 Q519 324 519 294 L424 294 Q424 323 409.5 341 Q395 359 370 359 Q350 359 334.5 346 Q319 333 301 317 Q283 301 259.5 288 Q236 275 200 275 Q166 275 138 287.5 Q110 300 90.5 321 Q71 342 60.5 370 Q50 398 50 428 L145 428 Q145 399 159.5 381 Q174 363 200 363 Q219 363 234.5 376 Q250 389 268 405 Q286 421 310 434 Q334 447 370 447 Z M371 227 Q404 227 431.5 214.5 Q459 202 478.5 180.5 Q498 159 509 131.5 Q520 104 520 74 L425 74 Q425 103 410.5 121 Q396 139 371 139 Q351 139 335.5 126 Q320 113 302 97 Q284 81 260.5 68 Q237 55 201 55 Q167 55 139 67.5 Q111 80 91.5 101 Q72 122 61.5 150 Q51 178 51 208 L146 208 Q146 179 160.5 161 Q175 143 201 143 Q220 143 235.5 156 Q251 169 269 185 Q287 201 311 214 Q335 227 371 227 Z " />
<glyph glyph-name="fraction" unicode="&#x2044;" horiz-adv-x="845" d="M712 741 L795 658 L133 -4 L50 80 L712 741 Z " />
<glyph glyph-name="section" unicode="&#xa7;" horiz-adv-x="551" d="M177 612 Q177 593 191.5 581 Q206 569 230 562 L353 531 Q434 511 472.5 468.5 Q511 426 511 366 Q511 333 497.5 304 Q484 275 456 254 Q511 212 511 139 Q511 106 497.5 77 Q484 48 457 26.5 Q430 5 389.5 -7.5 Q349 -20 294 -20 Q252 -20 213.5 -11 Q175 -2 143.5 13 Q112 28 88 48 Q64 68 50 90 L145 157 Q168 125 210 107.5 Q252 90 294 90 Q336 90 359.5 104.5 Q383 119 383 139 Q383 156 371 170 Q359 184 328 192 L217 221 Q129 243 90 285.5 Q51 328 51 386 Q51 418 65 447 Q79 476 108 498 Q79 520 65 548.5 Q51 577 51 612 Q51 645 65.5 675 Q80 705 108 727.5 Q136 750 176.5 763.5 Q217 777 270 777 Q316 777 357.5 763.5 Q399 750 430.5 725.5 Q462 701 480.5 667.5 Q499 634 499 594 L375 594 Q375 608 367 621.5 Q359 635 345 646 Q331 657 312 664 Q293 671 270 671 Q221 671 199 652.5 Q177 634 177 612 Z M177 386 Q177 368 191.5 355.5 Q206 343 230 336 L307 316 Q344 318 363.5 332 Q383 346 383 366 Q383 383 371 396.5 Q359 410 328 418 L238 441 Q208 435 192.5 419.5 Q177 404 177 386 Z " />
<glyph glyph-name="Eng" unicode="&#x14a;" horiz-adv-x="802" d="M447 0 Q447 -32 469 -54 Q491 -76 523 -76 Q555 -76 577 -54 Q599 -32 599 0 L599 97 L206 464 L206 0 L81 0 L81 730 L92 735 L596 270 L596 735 L721 735 L721 0 Q721 -41 705.5 -77 Q690 -113 663 -140 Q636 -167 600 -182.5 Q564 -198 523 -198 Q482 -198 446 -182.5 Q410 -167 383 -140 Q356 -113 340.5 -77 Q325 -41 325 0 L447 0 Z " />
<glyph glyph-name="eng" unicode="&#x14b;" horiz-adv-x="661" d="M332 -77 Q332 -106 352.5 -127 Q373 -148 402 -148 Q431 -148 451.5 -127.5 Q472 -107 472 -77 L472 265 Q472 295 463.5 322.5 Q455 350 438.5 370 Q422 390 396 402 Q370 414 336 414 Q278 414 239.5 374 Q201 334 199 263 L199 0 L81 0 L81 512 L199 512 L199 446 Q211 461 228.5 474.5 Q246 488 267.5 498.5 Q289 509 314 515.5 Q339 522 365 522 Q414 522 455.5 504 Q497 486 527 452 Q557 418 573.5 369.5 Q590 321 590 261 L590 -77 Q590 -117 575 -151.5 Q560 -186 534.5 -211.5 Q509 -237 475 -251.5 Q441 -266 402 -266 Q363 -266 328.5 -251 Q294 -236 268.5 -210.5 Q243 -185 228.5 -150.5 Q214 -116 214 -77 L332 -77 Z " />
<glyph glyph-name="Eth" unicode="&#xd0;" horiz-adv-x="699" d="M90 0 L90 294 L8 272 L-11 341 L90 368 L90 735 L300 735 Q376 735 442.5 706 Q509 677 559 627 Q609 577 638 510.5 Q667 444 667 368 Q667 292 638 225 Q609 158 559 108 Q509 58 442.5 29 Q376 0 300 0 L90 0 Z M292 422 L311 353 L217 328 L217 118 L293 118 Q346 118 391.5 137.5 Q437 157 470.5 190.5 Q504 224 523 269.5 Q542 315 542 368 Q542 421 522.5 466.5 Q503 512 469.5 545.5 Q436 579 390.5 598 Q345 617 293 617 L217 617 L217 402 L292 422 Z " />
<glyph glyph-name="Dcroat" unicode="&#x110;" horiz-adv-x="699" d="M90 0 L90 294 L8 272 L-11 341 L90 368 L90 735 L300 735 Q376 735 442.5 706 Q509 677 559 627 Q609 577 638 510.5 Q667 444 667 368 Q667 292 638 225 Q609 158 559 108 Q509 58 442.5 29 Q376 0 300 0 L90 0 Z M292 422 L311 353 L217 328 L217 118 L293 118 Q346 118 391.5 137.5 Q437 157 470.5 190.5 Q504 224 523 269.5 Q542 315 542 368 Q542 421 522.5 466.5 Q503 512 469.5 545.5 Q436 579 390.5 598 Q345 617 293 617 L217 617 L217 402 L292 422 Z " />
<glyph glyph-name="dcroat" unicode="&#x111;" horiz-adv-x="642" d="M50 256 Q50 309 68.5 356 Q87 403 120 437.5 Q153 472 198.5 492 Q244 512 298 512 Q341 512 379 495 Q417 478 443 450 L443 568 L360 546 L341 615 L443 642 L443 768 L561 768 L561 674 L644 696 L663 627 L561 600 L561 0 L443 0 L443 62 Q417 34 379 17 Q341 0 298 0 Q244 0 198.5 20 Q153 40 120 74.5 Q87 109 68.5 156 Q50 203 50 256 Z M462 256 Q462 287 450.5 313.5 Q439 340 419.5 360 Q400 380 373.5 391.5 Q347 403 316 403 Q285 403 258.5 391.5 Q232 380 212 360 Q192 340 180.5 313.5 Q169 287 169 256 Q169 225 180.5 198.5 Q192 172 212 152 Q232 132 258.5 120.5 Q285 109 316 109 Q347 109 373.5 120.5 Q400 132 419.5 152 Q439 172 450.5 198.5 Q462 225 462 256 Z " />
<glyph glyph-name="zacute" unicode="&#x17a;" horiz-adv-x="506" d="M456 105 L456 0 L60 0 L45 25 L279 407 L61 407 L61 512 L447 512 L461 487 L228 105 L456 105 Z M256 566 L225 597 L332 740 Q345 756 366.5 757 Q388 758 402 744 Q416 730 415.5 708 Q415 686 399 673 L256 566 Z " />
<glyph glyph-name="zcaron" unicode="&#x17e;" horiz-adv-x="506" d="M456 105 L456 0 L60 0 L45 25 L279 407 L61 407 L61 512 L447 512 L461 487 L228 105 L456 105 Z M254 649 L347 742 L389 700 L253 564 L117 700 L160 742 L254 649 Z " />
<glyph glyph-name="zdotaccent" unicode="&#x17c;" horiz-adv-x="506" d="M456 105 L456 0 L60 0 L45 25 L279 407 L61 407 L61 512 L447 512 L461 487 L228 105 L456 105 Z M171 663 Q171 697 195 721 Q219 745 253 745 Q287 745 311 721 Q335 697 335 663 Q335 629 311 605 Q287 581 253 581 Q219 581 195 605 Q171 629 171 663 Z " />
<glyph glyph-name="Thorn" unicode="&#xde;" horiz-adv-x="613" d="M206 111 L206 0 L81 0 L81 735 L206 735 L206 620 L340 620 Q393 620 439.5 600 Q486 580 520.5 545.5 Q555 511 575 465 Q595 419 595 366 Q595 313 575 266.5 Q555 220 520.5 185.5 Q486 151 439.5 131 Q393 111 340 111 L206 111 Z M331 220 Q361 220 388 231.5 Q415 243 434.5 262.5 Q454 282 465.5 309 Q477 336 477 366 Q477 396 465.5 422.5 Q454 449 434.5 468.5 Q415 488 388 499.5 Q361 511 331 511 L206 511 L206 220 L331 220 Z " />
<glyph glyph-name="dotlessj" unicode="&#x237;" horiz-adv-x="305" d="M93 -255 L93 512 L211 512 L211 -255 L93 -255 Z " />
<glyph glyph-name="jcircumflex" unicode="&#x135;" horiz-adv-x="305" d="M93 -255 L93 512 L211 512 L211 -255 L93 -255 Z M151 657 L59 564 L16 606 L152 742 L288 606 L246 564 L151 657 Z " />
<glyph glyph-name="Wacute" unicode="&#x1e82;" horiz-adv-x="926" d="M657 136 L669 136 L777 735 L906 735 L763 0 L572 0 L469 520 L456 520 L354 0 L163 0 L20 735 L150 735 L257 136 L268 136 L391 735 L535 735 L657 136 Z M466 789 L434 820 L542 963 Q554 979 576 980 Q598 981 612 967 Q626 953 625.5 931 Q625 909 608 896 L466 789 Z " />
<glyph glyph-name="Wcircumflex" unicode="&#x174;" horiz-adv-x="926" d="M657 136 L669 136 L777 735 L906 735 L763 0 L572 0 L469 520 L456 520 L354 0 L163 0 L20 735 L150 735 L257 136 L268 136 L391 735 L535 735 L657 136 Z M462 880 L369 787 L327 829 L463 965 L599 829 L556 787 L462 880 Z " />
<glyph glyph-name="Wdieresis" unicode="&#x1e84;" horiz-adv-x="926" d="M657 136 L669 136 L777 735 L906 735 L763 0 L572 0 L469 520 L456 520 L354 0 L163 0 L20 735 L150 735 L257 136 L268 136 L391 735 L535 735 L657 136 Z M274 886 Q274 920 298 944 Q322 968 356 968 Q390 968 414 944 Q438 920 438 886 Q438 852 414 828 Q390 804 356 804 Q322 804 298 828 Q274 852 274 886 Z M487 886 Q487 920 511 944 Q535 968 569 968 Q603 968 627 944 Q651 920 651 886 Q651 852 627 828 Q603 804 569 804 Q535 804 511 828 Q487 852 487 886 Z " />
<glyph glyph-name="Wgrave" unicode="&#x1e80;" horiz-adv-x="926" d="M657 136 L669 136 L777 735 L906 735 L763 0 L572 0 L469 520 L456 520 L354 0 L163 0 L20 735 L150 735 L257 136 L268 136 L391 735 L535 735 L657 136 Z M317 896 Q300 909 299.5 931 Q299 953 313 967 Q327 981 349 980 Q371 979 383 963 L491 820 L460 789 L317 896 Z " />
</font>
</svg>
