<?xml version="1.0" encoding="UTF-8"?>
<svg xmlns="http://www.w3.org/2000/svg" xmlns:xlink="http://www.w3.org/1999/xlink" version="1.2" >
<font id="Liber Grotesque Family Bold">
<font-face  font-family="Liber Grotesque Family" units-per-em="1000" ascent="768" descent="-256" font-style="normal" font-weight="700" font-stretch="normal" cap-height="735" x-height="512" underline-position="-106" underline-thickness="73" />
<missing-glyph  horiz-adv-x="830" d="M94 768 L734 768 L734 0 L94 0 L94 768 Z M677 57 L677 711 L151 711 L151 57 L677 57 Z M366 367 L404 367 Q446 367 474.5 395.5 Q503 424 503 466 Q503 508 474.5 536.5 Q446 565 404 565 Q362 565 333.5 536.5 Q305 508 305 466 L230 466 Q230 502 243.5 534 Q257 566 280.5 589.5 Q304 613 336 626.5 Q368 640 404 640 Q440 640 472 626.5 Q504 613 527.5 589.5 Q551 566 564.5 534 Q578 502 578 466 Q578 430 564.5 398 Q551 366 527.5 342.5 Q504 319 472 305.5 Q440 292 404 292 L366 292 L366 367 Z M357 179 Q357 200 372 215 Q387 230 408 230 Q429 230 444 215 Q459 200 459 179 Q459 158 444 143 Q429 128 408 128 Q387 128 372 143 Q357 158 357 179 Z " />
<glyph glyph-name="null" d="" />
<glyph glyph-name="nonmarkingreturn" unicode="&#xd;" horiz-adv-x="342" d="" />
<glyph glyph-name="space" unicode="&#x20;" horiz-adv-x="300" d="" />
<glyph glyph-name="quotedbl" unicode="&#x22;" horiz-adv-x="348" d="M117 548 L75 548 L51 719 Q48 738 59.5 754.5 Q71 771 96 771 Q121 771 132 754.5 Q143 738 140 718 L117 548 Z M274 548 L232 548 L208 719 Q205 738 216.5 754.5 Q228 771 253 771 Q278 771 289 754.5 Q300 738 297 718 L274 548 Z " />
<glyph glyph-name="numbersign" unicode="&#x23;" horiz-adv-x="729" d="M447 436 L316 436 L276 293 L406 293 L447 436 Z M239 514 L299 732 L398 732 L337 514 L467 514 L529 732 L627 732 L566 514 L707 514 L686 437 L545 437 L506 296 L655 296 L633 218 L484 218 L422 0 L324 0 L385 218 L256 218 L193 0 L95 0 L156 218 L23 218 L44 296 L177 296 L218 437 L76 437 L97 514 L239 514 Z " />
<glyph glyph-name="dollar" unicode="&#x24;" horiz-adv-x="610" d="M253 876 L369 876 L369 744 Q414 734 448 711.5 Q482 689 505.5 660 Q529 631 540.5 596.5 Q552 562 552 528 L440 528 Q440 540 433 559.5 Q426 579 409.5 597.5 Q393 616 365.5 629.5 Q338 643 298 643 Q239 643 205 617.5 Q171 592 171 553 Q171 518 192.5 495.5 Q214 473 256 455 L396 393 Q484 355 525.5 304 Q567 253 567 181 Q567 139 551.5 105.5 Q536 72 509.5 48 Q483 24 447 9 Q411 -6 369 -12 L369 -128 L253 -128 L253 -10 Q184 0 133 31 Q82 62 53 101 L138 171 Q168 137 213.5 116 Q259 95 316 95 Q379 95 413 119.5 Q447 144 447 181 Q447 215 426 239 Q405 263 357 283 L220 343 Q131 381 91 432.5 Q51 484 51 553 Q51 591 65.5 624.5 Q80 658 106 683.5 Q132 709 169.5 725.5 Q207 742 253 748 L253 876 Z " />
<glyph glyph-name="percent" unicode="&#x25;" horiz-adv-x="606" d="M556 678 L168 90 L50 90 L438 678 L556 678 Z M387 167 Q387 199 409 221 Q431 243 463 243 Q495 243 517.5 221 Q540 199 540 167 Q540 135 517.5 112.5 Q495 90 463 90 Q431 90 409 112.5 Q387 135 387 167 Z M54 601 Q54 633 76 655.5 Q98 678 130 678 Q162 678 184.5 655.5 Q207 633 207 601 Q207 569 184.5 547 Q162 525 130 525 Q98 525 76 547 Q54 569 54 601 Z " />
<glyph glyph-name="ampersand" unicode="&#x26;" horiz-adv-x="732" d="M683 404 L683 381 Q683 316 665.5 251 Q648 186 610 131 L716 11 L716 0 L594 0 L541 57 Q500 25 445.5 6 Q391 -13 321 -13 Q255 -13 202.5 6 Q150 25 113 58 Q76 91 56 135 Q36 179 36 229 Q36 269 50.5 302 Q65 335 88.5 360.5 Q112 386 142 403.5 Q172 421 204 429 L193 442 Q164 474 148.5 512.5 Q133 551 135 592 Q136 628 149.5 662 Q163 696 189.5 722.5 Q216 749 255 764.5 Q294 780 345 780 Q400 780 441.5 761 Q483 742 510.5 712 Q538 682 551.5 645.5 Q565 609 565 573 L454 573 Q454 592 448 610.5 Q442 629 428.5 643.5 Q415 658 394.5 667 Q374 676 345 676 Q300 676 274.5 651 Q249 626 247 591 Q245 544 284 504 L537 217 Q575 285 575 381 L575 404 L683 404 Z M321 90 Q408 90 471 136 L271 354 Q218 345 184.5 314 Q151 283 151 232 Q151 201 164 175 Q177 149 199.5 130 Q222 111 253.5 100.5 Q285 90 321 90 Z " />
<glyph glyph-name="quotesingle" unicode="&#x27;" horiz-adv-x="233" d="M59 510 L104 606 Q78 611 60 632 Q42 653 42 682 Q42 714 64 736 Q86 758 118 758 Q139 758 156 747.5 Q173 737 182.5 720.5 Q192 704 193 683.5 Q194 663 184 642 L110 485 L59 510 Z " />
<glyph glyph-name="parenleft" unicode="&#x28;" horiz-adv-x="351" d="M207 351 Q207 260 228.5 177 Q250 94 291 20 L291 -186 Q198 -77 146.5 59.5 Q95 196 95 351 Q95 505 146.5 642 Q198 779 291 888 L291 682 Q250 608 228.5 524.5 Q207 441 207 351 Z " />
<glyph glyph-name="parenright" unicode="&#x29;" horiz-adv-x="351" d="M144 351 Q144 442 122.5 525 Q101 608 60 682 L60 888 Q153 779 204.5 642.5 Q256 506 256 351 Q256 197 204.5 60 Q153 -77 60 -186 L60 20 Q101 94 122.5 177.5 Q144 261 144 351 Z " />
<glyph glyph-name="asterisk" unicode="&#x2a;" horiz-adv-x="404" d="M207 558 L137 466 L82 513 L148 601 L40 642 L68 711 L169 672 L169 780 L244 780 L244 672 L345 711 L373 642 L266 601 L331 513 L276 466 L207 558 Z " />
<glyph glyph-name="plus" unicode="&#x2b;" horiz-adv-x="612" d="M64 202 L64 310 L256 310 L256 502 L364 502 L364 310 L556 310 L556 202 L364 202 L364 10 L256 10 L256 202 L64 202 Z " />
<glyph glyph-name="comma" unicode="&#x2c;" horiz-adv-x="254" d="M69 -93 L114 4 Q88 9 70 30 Q52 51 52 79 Q52 111 74 133.5 Q96 156 128 156 Q150 156 166.5 145.5 Q183 135 192.5 118.5 Q202 102 203 81.5 Q204 61 194 40 L120 -117 L69 -93 Z " />
<glyph glyph-name="hyphen" unicode="&#x2d;" horiz-adv-x="612" d="M50 202 L50 310 L562 310 L562 202 L50 202 Z " />
<glyph glyph-name="period" unicode="&#x2e;" horiz-adv-x="253" d="M50 77 Q50 109 72.5 131 Q95 153 127 153 Q159 153 181 131 Q203 109 203 77 Q203 45 181 22.5 Q159 0 127 0 Q95 0 72.5 22.5 Q50 45 50 77 Z " />
<glyph glyph-name="slash" unicode="&#x2f;" horiz-adv-x="265" d="M274 748 L82 -20 L-30 -20 L162 748 L274 748 Z " />
<glyph glyph-name="zero" unicode="0" horiz-adv-x="693" d="M55 378 Q55 457 72.5 528.5 Q90 600 126 654 Q162 708 217 740 Q272 772 346 772 Q420 772 475 740 Q530 708 566 654 Q602 600 620 528.5 Q638 457 638 378 Q638 298 620 226.5 Q602 155 566 101 Q530 47 475 15 Q420 -17 346 -17 Q272 -17 217 15 Q162 47 126 101 Q90 155 72.5 226.5 Q55 298 55 378 Z M347 93 Q385 93 416 114 Q447 135 469 173 Q491 211 503 263.5 Q515 316 515 378 Q515 441 503 493 Q491 545 469 583 Q447 621 416 642 Q385 663 346 663 Q308 663 277 642 Q246 621 224 583 Q202 545 190 493 Q178 441 178 378 Q178 315 190 263 Q202 211 224 173 Q246 135 277 114 Q308 93 347 93 Z " />
<glyph glyph-name="one" unicode="1" horiz-adv-x="481" d="M55 534 L55 628 L149 628 Q165 628 175 640 Q185 652 185 672 L185 757 L296 757 L296 100 L426 100 L426 0 L56 0 L56 100 L185 100 L185 534 L55 534 Z " />
<glyph glyph-name="two" unicode="2" horiz-adv-x="635" d="M575 0 L64 0 L64 79 L382 369 Q416 399 441 433.5 Q466 468 466 512 Q466 544 455.5 571 Q445 598 426 618 Q407 638 380 649 Q353 660 320 660 Q287 660 259.5 648.5 Q232 637 212.5 617 Q193 597 182.5 570 Q172 543 172 512 L64 512 Q64 564 83 611 Q102 658 136 692.5 Q170 727 217 747.5 Q264 768 320 768 Q377 768 424.5 748 Q472 728 505.5 693 Q539 658 557.5 611.5 Q576 565 576 512 Q576 442 541.5 389.5 Q507 337 446 283 L236 99 L575 99 L575 0 Z " />
<glyph glyph-name="three" unicode="3" horiz-adv-x="661" d="M87 559 Q87 604 105 643.5 Q123 683 154.5 712.5 Q186 742 230 759 Q274 776 326 776 Q381 776 425 759.5 Q469 743 500 714 Q531 685 547.5 646 Q564 607 564 561 Q564 507 543 466 Q522 425 486 403 Q511 392 532 374.5 Q553 357 568.5 334 Q584 311 592.5 284 Q601 257 601 229 Q601 174 582 128.5 Q563 83 527 50 Q491 17 440 -1.5 Q389 -20 326 -20 Q269 -20 217.5 -1 Q166 18 128 51.5 Q90 85 67.5 131.5 Q45 178 45 233 L162 233 Q162 204 174.5 177.5 Q187 151 209 131 Q231 111 261 99 Q291 87 326 87 Q400 87 441 124.5 Q482 162 483 222 Q484 278 445.5 310.5 Q407 343 339 343 L245 343 L245 442 L323 442 Q382 442 417 474 Q452 506 452 555 Q452 603 418.5 636 Q385 669 327 669 Q298 669 275.5 660 Q253 651 236.5 636 Q220 621 211.5 601 Q203 581 203 559 L87 559 Z " />
<glyph glyph-name="four" unicode="4" horiz-adv-x="600" d="M580 137 L452 137 L452 0 L344 0 L344 137 L26 137 L10 163 L344 757 L452 757 L452 237 L580 237 L580 137 Z M168 237 L344 237 L344 547 L168 237 Z " />
<glyph glyph-name="five" unicode="5" horiz-adv-x="636" d="M320 104 Q350 104 377.5 116 Q405 128 425 148 Q445 168 457 195.5 Q469 223 469 254 Q469 285 458 313 Q447 341 427.5 362 Q408 383 381 395 Q354 407 321 407 Q272 407 236.5 384 Q201 361 181 327 L73 327 L111 757 L512 757 L512 658 L204 658 L185 452 Q209 477 244.5 494.5 Q280 512 329 512 Q384 512 429.5 492 Q475 472 507.5 437 Q540 402 558 355 Q576 308 576 254 Q576 202 555.5 155.5 Q535 109 500.5 74 Q466 39 419 18.5 Q372 -2 320 -2 Q275 -2 235 12.5 Q195 27 162.5 52.5 Q130 78 107 113 Q84 148 73 190 L187 190 Q204 150 239.5 127 Q275 104 320 104 Z " />
<glyph glyph-name="six" unicode="6" horiz-adv-x="638" d="M66 243 Q66 286 81 323.5 Q96 361 117 396 L332 758 L451 758 L291 481 Q349 490 401 475 Q439 465 471.5 444 Q504 423 527.5 393.5 Q551 364 564.5 326 Q578 288 578 243 Q578 190 558 143.5 Q538 97 503 62 Q468 27 421.5 7 Q375 -13 322 -13 Q269 -13 222.5 7 Q176 27 141 62 Q106 97 86 143.5 Q66 190 66 243 Z M470 243 Q470 273 458.5 300 Q447 327 427 347 Q407 367 380.5 378.5 Q354 390 323 390 Q293 390 266 378.5 Q239 367 218.5 347.5 Q198 328 186 301 Q174 274 174 243 Q174 213 185.5 186 Q197 159 217 138.5 Q237 118 264 106.5 Q291 95 322 95 Q352 95 379 106.5 Q406 118 426.5 138.5 Q447 159 458.5 186 Q470 213 470 243 Z " />
<glyph glyph-name="seven" unicode="7" horiz-adv-x="560" d="M138 0 L382 659 L30 659 L30 757 L515 757 L525 743 L255 0 L138 0 Z " />
<glyph glyph-name="eight" unicode="8" horiz-adv-x="627" d="M538 555 Q538 511 519 472.5 Q500 434 466 407 Q491 392 511.5 371 Q532 350 546.5 325 Q561 300 568.5 272 Q576 244 576 216 Q576 163 556 118 Q536 73 500 39.5 Q464 6 415 -13 Q366 -32 309 -32 Q251 -32 201.5 -13 Q152 6 116 39.5 Q80 73 60 118 Q40 163 40 216 Q40 244 48 272 Q56 300 70 325 Q84 350 104.5 371 Q125 392 151 407 Q116 434 97 472.5 Q78 511 78 555 Q78 599 96 638 Q114 677 145.5 706 Q177 735 219 751.5 Q261 768 309 768 Q357 768 398.5 751.5 Q440 735 471 706 Q502 677 520 638 Q538 599 538 555 Z M309 69 Q339 69 366.5 78.5 Q394 88 415 106.5 Q436 125 449 151.5 Q462 178 462 212 Q462 242 451 268 Q440 294 420 313.5 Q400 333 372 344.5 Q344 356 309 356 Q274 356 245.5 344.5 Q217 333 197 313.5 Q177 294 166 268 Q155 242 155 212 Q155 179 168 152.5 Q181 126 202.5 107.5 Q224 89 251.5 79 Q279 69 309 69 Z M309 448 Q332 448 353 457 Q374 466 389.5 481 Q405 496 414.5 516 Q424 536 424 558 Q424 580 414.5 600 Q405 620 389.5 635 Q374 650 353 658.5 Q332 667 309 667 Q283 667 262 658.5 Q241 650 226 635 Q211 620 202.5 600 Q194 580 194 558 Q194 537 202.5 517 Q211 497 226 481.5 Q241 466 262 457 Q283 448 309 448 Z " />
<glyph glyph-name="nine" unicode="9" horiz-adv-x="620" d="M576 512 Q576 469 561 431.5 Q546 394 525 359 L310 0 L191 0 L351 274 Q293 265 241 280 Q203 290 170.5 311 Q138 332 114.5 361.5 Q91 391 77.5 429 Q64 467 64 512 Q64 565 84 611.5 Q104 658 139 693 Q174 728 220.5 748 Q267 768 320 768 Q373 768 419.5 748 Q466 728 501 693 Q536 658 556 611.5 Q576 565 576 512 Z M172 512 Q172 482 183.5 455 Q195 428 215 408 Q235 388 261.5 376.5 Q288 365 319 365 Q349 365 376 376.5 Q403 388 423.5 407.5 Q444 427 456 454 Q468 481 468 512 Q468 542 456.5 569 Q445 596 425 616 Q405 636 378 647.5 Q351 659 320 659 Q290 659 263 647.5 Q236 636 215.5 616 Q195 596 183.5 569 Q172 542 172 512 Z " />
<glyph glyph-name="colon" unicode="&#x3a;" horiz-adv-x="253" d="M50 77 Q50 109 72.5 131 Q95 153 127 153 Q159 153 181 131 Q203 109 203 77 Q203 45 181 22.5 Q159 0 127 0 Q95 0 72.5 22.5 Q50 45 50 77 Z M50 367 Q50 399 72.5 421 Q95 443 127 443 Q159 443 181 421 Q203 399 203 367 Q203 335 181 312.5 Q159 290 127 290 Q95 290 72.5 312.5 Q50 335 50 367 Z " />
<glyph glyph-name="semicolon" unicode="&#x3b;" horiz-adv-x="255" d="M69 -93 L114 4 Q88 9 70 30 Q52 51 52 79 Q52 111 74 133.5 Q96 156 128 156 Q150 156 166.5 145.5 Q183 135 192.5 118.5 Q202 102 203 81.5 Q204 61 194 40 L120 -117 L69 -93 Z M51 367 Q51 399 73 421 Q95 443 127 443 Q159 443 181.5 421 Q204 399 204 367 Q204 335 181.5 312.5 Q159 290 127 290 Q95 290 73 312.5 Q51 335 51 367 Z " />
<glyph glyph-name="less" unicode="&#x3c;" horiz-adv-x="490" d="M306 512 L436 512 L440 501 L195 256 L440 11 L436 0 L306 0 L50 256 L306 512 Z " />
<glyph glyph-name="equal" unicode="&#x3d;" horiz-adv-x="612" d="M58 75 L58 182 L554 182 L554 75 L58 75 Z M58 330 L58 437 L554 437 L554 330 L58 330 Z " />
<glyph glyph-name="question" unicode="&#x3f;" horiz-adv-x="592" d="M210 358 L267 358 Q298 358 325 369.5 Q352 381 372 401.5 Q392 422 404 449 Q416 476 416 507 Q416 538 404 565 Q392 592 372 612 Q352 632 325 644 Q298 656 267 656 Q236 656 209 644 Q182 632 161.5 612 Q141 592 129.5 565 Q118 538 118 507 L6 507 Q6 561 26.5 609 Q47 657 82 692 Q117 727 165 747.5 Q213 768 267 768 Q321 768 369 747.5 Q417 727 452 692 Q487 657 507.5 609 Q528 561 528 507 Q528 453 507.5 405 Q487 357 452 322 Q417 287 369 266.5 Q321 246 267 246 L210 246 L210 358 Z M197 77 Q197 109 219.5 131 Q242 153 274 153 Q306 153 328 131 Q350 109 350 77 Q350 45 328 22.5 Q306 0 274 0 Q242 0 219.5 22.5 Q197 45 197 77 Z " />
<glyph glyph-name="at" unicode="&#x40;" horiz-adv-x="1142" d="M323 335 Q323 382 341 423.5 Q359 465 389.5 495.5 Q420 526 461.5 543.5 Q503 561 550 561 Q594 561 633 542.5 Q672 524 701 489 L710 549 L818 549 L793 329 Q785 255 811 223 Q837 191 877 191 Q920 191 947.5 242 Q975 293 973 405 Q972 477 944.5 536 Q917 595 866 637.5 Q815 680 743 703.5 Q671 727 581 727 Q486 727 409.5 697.5 Q333 668 279 615 Q225 562 196 486.5 Q167 411 169 320 Q170 250 197 184 Q224 118 278.5 67.5 Q333 17 416 -13 Q499 -43 612 -41 Q644 -41 677.5 -37.5 Q711 -34 746 -28 Q746 -54 746.5 -79 Q747 -104 747 -130 Q710 -136 675.5 -140 Q641 -144 606 -145 Q489 -149 388 -119 Q287 -89 213 -28.5 Q139 32 96 122 Q53 212 51 327 Q49 444 88 538.5 Q127 633 197.5 699.5 Q268 766 365.5 802 Q463 838 579 838 Q700 838 795 803.5 Q890 769 955.5 710.5 Q1021 652 1055.5 573.5 Q1090 495 1091 408 Q1092 321 1075.5 259 Q1059 197 1029.5 157 Q1000 117 960.5 98.5 Q921 80 877 80 Q843 80 816.5 89.5 Q790 99 769.5 114 Q749 129 734.5 148.5 Q720 168 711 188 Q683 149 639.5 129.5 Q596 110 549 110 Q502 110 461 127.5 Q420 145 389 175 Q358 205 340.5 246 Q323 287 323 335 Z M437 335 Q437 278 471 245.5 Q505 213 560 213 Q615 213 649.5 246.5 Q684 280 684 335 Q684 359 675 381 Q666 403 649.5 420 Q633 437 610.5 447.5 Q588 458 560 458 Q533 458 510 447.5 Q487 437 471 419.5 Q455 402 446 380 Q437 358 437 335 Z " />
<glyph glyph-name="A" unicode="A" horiz-adv-x="729" d="M590 0 L531 145 L198 145 L139 0 L17 0 L309 735 L419 735 L712 0 L590 0 Z M365 578 L235 245 L495 245 L365 578 Z " />
<glyph glyph-name="B" unicode="B" horiz-adv-x="644" d="M82 0 L82 735 L354 735 Q399 735 437 718.5 Q475 702 503.5 673.5 Q532 645 548 607.5 Q564 570 564 527 Q564 485 545.5 447.5 Q527 410 496 385 Q545 359 574.5 312 Q604 265 604 210 Q604 166 587.5 128 Q571 90 542.5 61.5 Q514 33 475.5 16.5 Q437 0 393 0 L82 0 Z M190 103 L385 103 Q407 103 427 111.5 Q447 120 461 134.5 Q475 149 483.5 168.5 Q492 188 492 210 Q492 233 483.5 253 Q475 273 460 288 Q445 303 424.5 311.5 Q404 320 381 320 L190 320 L190 103 Z M190 422 L346 422 Q391 422 422 451 Q453 480 453 527 Q453 548 445 567.5 Q437 587 422.5 601 Q408 615 388.5 623.5 Q369 632 346 632 L190 632 L190 422 Z " />
<glyph glyph-name="C" unicode="C" horiz-adv-x="723" d="M161 367 Q161 310 182 261 Q203 212 239 176 Q275 140 324 119.5 Q373 99 429 99 Q483 99 530.5 121 Q578 143 616 179 L691 99 Q641 48 573 18.5 Q505 -11 424 -11 Q344 -11 275 18.5 Q206 48 155 99 Q104 150 75 219 Q46 288 46 367 Q46 447 75 516.5 Q104 586 154.5 637 Q205 688 274 717 Q343 746 424 746 Q505 746 572.5 716.5 Q640 687 691 636 L615 556 Q579 591 531 613 Q483 635 429 635 Q371 635 322 614.5 Q273 594 237 558 Q201 522 181 473 Q161 424 161 367 Z " />
<glyph glyph-name="D" unicode="D" horiz-adv-x="699" d="M90 0 L90 735 L298 735 Q374 735 440.5 706 Q507 677 557 627 Q607 577 636 510.5 Q665 444 665 368 Q665 292 636 225 Q607 158 557 108 Q507 58 440.5 29 Q374 0 298 0 L90 0 Z M206 627 L206 108 L292 108 Q347 108 394.5 128 Q442 148 476.5 183 Q511 218 531 265.5 Q551 313 551 368 Q551 423 531 470.5 Q511 518 476 552.5 Q441 587 393.5 607 Q346 627 292 627 L206 627 Z " />
<glyph glyph-name="E" unicode="E" horiz-adv-x="585" d="M90 735 L536 735 L536 635 L210 635 L210 421 L500 421 L500 322 L210 322 L210 100 L536 100 L536 0 L90 0 L90 735 Z " />
<glyph glyph-name="F" unicode="F" horiz-adv-x="563" d="M90 735 L527 735 L527 635 L206 635 L206 421 L491 421 L491 322 L206 322 L206 0 L90 0 L90 735 Z " />
<glyph glyph-name="G" unicode="G" horiz-adv-x="841" d="M157 368 Q157 312 178 263 Q199 214 235.5 178 Q272 142 321 121 Q370 100 425 100 Q477 100 521.5 114.5 Q566 129 599.5 156.5 Q633 184 654 224 Q675 264 679 315 L438 315 L438 421 L790 421 Q792 407 793 394 Q794 381 794 367 Q794 278 765 208 Q736 138 686 89.5 Q636 41 569 15 Q502 -11 425 -11 Q345 -11 276 18.5 Q207 48 156 99.5 Q105 151 75.5 220 Q46 289 46 368 Q46 448 74.5 516 Q103 584 153.5 633.5 Q204 683 273.5 710.5 Q343 738 425 738 Q502 738 569 710.5 Q636 683 687 634 L610 560 Q574 594 527.5 613.5 Q481 633 425 633 Q366 633 317 613 Q268 593 232.5 558 Q197 523 177 474.5 Q157 426 157 368 Z " />
<glyph glyph-name="H" unicode="H" horiz-adv-x="774" d="M82 0 L82 734 L202 734 L202 421 L572 421 L572 735 L692 735 L692 0 L572 0 L572 322 L202 322 L202 0 L82 0 Z " />
<glyph glyph-name="I" unicode="I" horiz-adv-x="489" d="M54 635 L54 735 L435 735 L435 635 L305 635 L305 100 L435 100 L435 0 L54 0 L54 100 L185 100 L185 635 L54 635 Z " />
<glyph glyph-name="J" unicode="J" horiz-adv-x="497" d="M139 188 Q139 170 146 154.5 Q153 139 164.5 127.5 Q176 116 191.5 109 Q207 102 225 102 Q243 102 259 109 Q275 116 286.5 127.5 Q298 139 305 154.5 Q312 170 312 188 L312 735 L423 735 L423 188 Q423 147 407.5 111 Q392 75 365 48 Q338 21 302 5.5 Q266 -10 225 -10 Q184 -10 148 5.5 Q112 21 85 48 Q58 75 42.5 111 Q27 147 27 188 L139 188 Z " />
<glyph glyph-name="K" unicode="K" horiz-adv-x="713" d="M196 322 L196 0 L82 0 L82 735 L196 735 L196 421 L358 421 L540 735 L667 735 L458 374 L673 0 L546 0 L362 322 L196 322 Z " />
<glyph glyph-name="L" unicode="L" horiz-adv-x="477" d="M457 0 L82 0 L82 735 L198 735 L198 100 L457 100 L457 0 Z " />
<glyph glyph-name="M" unicode="M" horiz-adv-x="878" d="M681 0 L681 482 L439 250 L197 482 L197 0 L82 0 L82 735 L92 739 L439 406 L785 739 L796 735 L796 0 L681 0 Z " />
<glyph glyph-name="N" unicode="N" horiz-adv-x="801" d="M604 735 L719 735 L719 5 L707 -1 L197 487 L197 0 L82 0 L82 730 L93 735 L604 248 L604 735 Z " />
<glyph glyph-name="O" unicode="O" horiz-adv-x="853" d="M47 368 Q47 446 77 515 Q107 584 158.5 635.5 Q210 687 279 717 Q348 747 426 747 Q504 747 573.5 717 Q643 687 694.5 635.5 Q746 584 776 515 Q806 446 806 368 Q806 290 776 221 Q746 152 694.5 100.5 Q643 49 573.5 19 Q504 -11 426 -11 Q348 -11 279 19 Q210 49 158.5 100.5 Q107 152 77 221 Q47 290 47 368 Z M164 368 Q164 314 184.5 266.5 Q205 219 241 183 Q277 147 324.5 126.5 Q372 106 426 106 Q480 106 527.5 126.5 Q575 147 611 183 Q647 219 667.5 266.5 Q688 314 688 368 Q688 422 667.5 469.5 Q647 517 611 553 Q575 589 527.5 609.5 Q480 630 426 630 Q372 630 324.5 609.5 Q277 589 241 553 Q205 517 184.5 469.5 Q164 422 164 368 Z " />
<glyph glyph-name="P" unicode="P" horiz-adv-x="610" d="M197 228 L197 0 L82 0 L82 735 L339 735 Q392 735 438.5 715 Q485 695 519.5 661 Q554 627 573.5 580.5 Q593 534 593 482 Q593 429 573.5 383 Q554 337 519.5 302.5 Q485 268 438.5 248 Q392 228 339 228 L197 228 Z M331 328 Q363 328 391 340 Q419 352 439.5 372.5 Q460 393 472 421 Q484 449 484 482 Q484 514 472 542 Q460 570 439.5 590.5 Q419 611 391 623 Q363 635 331 635 L197 635 L197 328 L331 328 Z " />
<glyph glyph-name="Q" unicode="Q" horiz-adv-x="851" d="M46 368 Q46 446 76 515 Q106 584 157.5 635.5 Q209 687 278 717 Q347 747 425 747 Q503 747 572.5 717 Q642 687 693.5 635.5 Q745 584 775 515 Q805 446 805 368 Q805 299 781.5 237 Q758 175 716.5 125.5 Q675 76 619 42.5 Q563 9 498 -3 L498 -17 Q498 -58 523 -85.5 Q548 -113 591 -113 Q636 -113 661.5 -87 Q687 -61 687 -17 L796 -17 Q796 -61 780 -98 Q764 -135 736 -162.5 Q708 -190 670.5 -205.5 Q633 -221 591 -221 Q549 -221 512.5 -205 Q476 -189 448.5 -161.5 Q421 -134 405.5 -97 Q390 -60 390 -17 L390 -9 Q318 -3 255 29 Q192 61 145.5 112 Q99 163 72.5 228.5 Q46 294 46 368 Z M163 368 Q163 314 183.5 266.5 Q204 219 240 183 Q276 147 323.5 126.5 Q371 106 425 106 Q479 106 526.5 126.5 Q574 147 610 183 Q646 219 666.5 266.5 Q687 314 687 368 Q687 422 666.5 469.5 Q646 517 610 553 Q574 589 526.5 609.5 Q479 630 425 630 Q371 630 323.5 609.5 Q276 589 240 553 Q204 517 183.5 469.5 Q163 422 163 368 Z " />
<glyph glyph-name="R" unicode="R" horiz-adv-x="671" d="M197 0 L82 0 L82 735 L394 735 Q442 735 484 717 Q526 699 557.5 667.5 Q589 636 607 594 Q625 552 625 504 Q625 435 589.5 380.5 Q554 326 495 297 L617 0 L495 0 L382 274 L197 274 L197 0 Z M382 373 Q410 373 434 383.5 Q458 394 475.5 411.5 Q493 429 503 453 Q513 477 513 504 Q513 531 503 555 Q493 579 475 597 Q457 615 433 625 Q409 635 382 635 L197 635 L197 373 L382 373 Z " />
<glyph glyph-name="S" unicode="S" horiz-adv-x="607" d="M317 -16 Q272 -16 231.5 -6.5 Q191 3 157 19 Q123 35 96.5 56 Q70 77 53 101 L138 171 Q168 138 214.5 116.5 Q261 95 318 95 Q381 95 414 119.5 Q447 144 447 181 Q447 215 426 239 Q405 263 357 283 L220 343 Q131 381 91 432.5 Q51 484 51 553 Q51 596 69 632.5 Q87 669 119 695.5 Q151 722 196.5 737 Q242 752 298 752 Q361 752 408.5 732 Q456 712 488 680.5 Q520 649 536 608.5 Q552 568 552 528 L440 528 Q440 540 433 559.5 Q426 579 409.5 597.5 Q393 616 365.5 629.5 Q338 643 298 643 Q239 643 205 617.5 Q171 592 171 553 Q171 518 192.5 495.5 Q214 473 256 455 L396 393 Q484 355 525.5 304 Q567 253 567 181 Q567 132 547 95 Q527 58 492.5 33.5 Q458 9 413 -3.5 Q368 -16 317 -16 Z " />
<glyph glyph-name="T" unicode="T" horiz-adv-x="551" d="M534 734 L534 635 L333 635 L333 0 L218 0 L218 635 L18 635 L18 734 L534 734 Z " />
<glyph glyph-name="U" unicode="U" horiz-adv-x="762" d="M171 315 Q171 268 187.5 228.5 Q204 189 232.5 160.5 Q261 132 299 116 Q337 100 381 100 Q425 100 463 116 Q501 132 529.5 160.5 Q558 189 574.5 228.5 Q591 268 591 315 L591 735 L707 735 L707 315 Q707 247 681.5 187.5 Q656 128 612 84 Q568 40 508.5 14.5 Q449 -11 381 -11 Q313 -11 253.5 14.5 Q194 40 150 84 Q106 128 80.5 187.5 Q55 247 55 315 L55 735 L171 735 L171 315 Z " />
<glyph glyph-name="V" unicode="V" horiz-adv-x="709" d="M443 0 L266 0 L11 735 L132 735 L354 96 L576 735 L697 735 L443 0 Z " />
<glyph glyph-name="W" unicode="W" horiz-adv-x="921" d="M657 124 L667 124 L784 735 L902 735 L753 0 L578 0 L467 540 L455 540 L343 0 L168 0 L19 735 L138 735 L254 124 L264 124 L394 735 L527 735 L657 124 Z " />
<glyph glyph-name="X" unicode="X" horiz-adv-x="677" d="M151 0 L19 0 L271 386 L41 735 L173 735 L338 484 L502 735 L634 735 L406 386 L658 0 L525 0 L338 287 L151 0 Z " />
<glyph glyph-name="Y" unicode="Y" horiz-adv-x="576" d="M234 0 L234 212 L11 735 L134 735 L288 369 L443 735 L564 735 L343 212 L343 0 L234 0 Z " />
<glyph glyph-name="Z" unicode="Z" horiz-adv-x="615" d="M75 322 L75 421 L277 421 L407 635 L51 635 L51 735 L555 735 L570 709 L401 421 L540 421 L540 322 L346 322 L213 100 L564 100 L564 0 L60 0 L45 26 L221 322 L75 322 Z " />
<glyph glyph-name="bracketleft" unicode="&#x5b;" horiz-adv-x="411" d="M94 896 L350 896 L350 788 L202 788 L202 -20 L350 -20 L350 -128 L94 -128 L94 896 Z " />
<glyph glyph-name="bracketright" unicode="&#x5d;" horiz-adv-x="411" d="M350 -128 L94 -128 L94 -20 L242 -20 L242 788 L94 788 L94 896 L350 896 L350 -128 Z " />
<glyph glyph-name="asciicircum" unicode="&#x5e;" horiz-adv-x="372" d="M185 655 L95 564 L50 609 L186 745 L322 609 L277 564 L185 655 Z " />
<glyph glyph-name="underscore" unicode="&#x5f;" horiz-adv-x="612" d="M50 0 L50 108 L554 108 L554 0 L50 0 Z " />
<glyph glyph-name="a" unicode="a" horiz-adv-x="575" d="M397 80 Q374 41 330 15.5 Q286 -10 228 -10 Q184 -10 150 2.5 Q116 15 93 37 Q70 59 57.5 88 Q45 117 45 150 Q45 180 57 207.5 Q69 235 94 255 Q119 275 158 287 Q197 299 250 299 L396 299 L396 309 Q396 355 368.5 387.5 Q341 420 284 420 Q250 420 221 406 Q192 392 170 367 L97 431 Q129 468 177 493.5 Q225 519 284 520 Q338 520 379 503 Q420 486 447.5 457.5 Q475 429 489 390.5 Q503 352 503 310 L503 0 L397 0 L397 80 Z M156 150 Q156 120 182 100.5 Q208 81 249 81 Q276 81 302 90 Q328 99 349 116.5 Q370 134 383 158.5 Q396 183 396 213 L250 213 Q200 213 178 195 Q156 177 156 150 Z " />
<glyph glyph-name="b" unicode="b" horiz-adv-x="643" d="M592 256 Q592 203 573 156 Q554 109 521 74.5 Q488 40 442 20 Q396 0 342 0 Q295 0 255.5 19.5 Q216 39 190 70 L190 0 L82 0 L82 768 L190 768 L190 442 Q216 472 256 492 Q296 512 342 512 Q396 512 442 492 Q488 472 521 437.5 Q554 403 573 356 Q592 309 592 256 Z M172 256 Q172 223 184 194.5 Q196 166 217 145 Q238 124 266 112 Q294 100 326 100 Q359 100 387.5 112 Q416 124 437.5 145 Q459 166 471 194.5 Q483 223 483 256 Q483 289 471 317.5 Q459 346 437.5 367 Q416 388 387.5 400 Q359 412 326 412 Q294 412 266 400 Q238 388 217 367 Q196 346 184 317.5 Q172 289 172 256 Z " />
<glyph glyph-name="c" unicode="c" horiz-adv-x="534" d="M503 67 Q467 31 421 10.5 Q375 -10 316 -10 Q261 -10 212.5 11 Q164 32 128 68 Q92 104 71 152.5 Q50 201 50 256 Q50 311 71 359.5 Q92 408 128 444 Q164 480 212.5 501 Q261 522 316 522 Q377 522 425 499.5 Q473 477 508 440 L433 366 Q411 389 380.5 401.5 Q350 414 316 414 Q283 414 254.5 401.5 Q226 389 204.5 367.5 Q183 346 170.5 317.5 Q158 289 158 256 Q158 223 170.5 194.5 Q183 166 204.5 144.5 Q226 123 254.5 110.5 Q283 98 316 98 Q350 98 379.5 110.5 Q409 123 430 144 L503 67 Z " />
<glyph glyph-name="d" unicode="d" horiz-adv-x="643" d="M51 256 Q51 309 70 356 Q89 403 122 437.5 Q155 472 200.5 492 Q246 512 300 512 Q346 512 386.5 492 Q427 472 452 442 L452 768 L561 768 L561 0 L452 0 L452 70 Q427 39 387 19.5 Q347 0 300 0 Q246 0 200.5 20 Q155 40 122 74.5 Q89 109 70 156 Q51 203 51 256 Z M470 256 Q470 289 458 317.5 Q446 346 425.5 367 Q405 388 377 400 Q349 412 316 412 Q283 412 254.5 400 Q226 388 205 367 Q184 346 171.5 317.5 Q159 289 159 256 Q159 223 171.5 194.5 Q184 166 205 145 Q226 124 254.5 112 Q283 100 316 100 Q349 100 377 112 Q405 124 425.5 145 Q446 166 458 194.5 Q470 223 470 256 Z " />
<glyph glyph-name="e" unicode="e" horiz-adv-x="609" d="M568 252 Q568 243 566.5 231 Q565 219 563 212 L164 212 Q164 188 176 166 Q188 144 208.5 127.5 Q229 111 256.5 101 Q284 91 315 91 Q355 91 388 105.5 Q421 120 445 145 L524 81 Q486 38 432.5 14 Q379 -10 314 -10 Q266 -10 219 6.5 Q172 23 134.5 56 Q97 89 74 139 Q51 189 51 256 Q51 311 69.5 359.5 Q88 408 121.5 444 Q155 480 202 501 Q249 522 307 522 Q365 522 413.5 501 Q462 480 496 444 Q530 408 549 358.5 Q568 309 568 252 Z M309 424 Q275 424 248 413 Q221 402 202.5 384 Q184 366 174 343.5 Q164 321 164 299 L454 299 Q454 320 444 342.5 Q434 365 415 383 Q396 401 369 412.5 Q342 424 309 424 Z " />
<glyph glyph-name="f" unicode="f" horiz-adv-x="370" d="M298 666 Q266 666 245.5 644.5 Q225 623 225 586 L225 512 L352 512 L352 416 L225 416 L225 0 L117 0 L117 416 L36 416 L36 512 L117 512 L117 585 Q117 623 130 656.5 Q143 690 167 714.5 Q191 739 224.5 753.5 Q258 768 298 768 Q335 768 358 763 L358 666 L298 666 Z " />
<glyph glyph-name="g" unicode="g" horiz-adv-x="568" d="M76 333 Q76 375 92 412.5 Q108 450 135.5 478 Q163 506 200 522 Q237 538 279 538 Q322 538 359 522 Q396 506 424 477 Q479 512 549 512 L557 512 L557 416 L460 416 Q471 399 477.5 377.5 Q484 356 484 333 Q484 291 468 254 Q452 217 424 189.5 Q396 162 358.5 146 Q321 130 279 130 Q252 130 225.5 138.5 Q199 147 178 161 Q152 157 135.5 144 Q119 131 119 106 Q119 81 137.5 68.5 Q156 56 185 56 L339 56 Q431 56 481.5 14 Q532 -28 532 -103 Q532 -179 475 -222.5 Q418 -266 318 -266 Q264 -266 218.5 -252 Q173 -238 140.5 -213.5 Q108 -189 90 -156.5 Q72 -124 73 -86 L117 -47 Q69 -36 42.5 -1 Q16 34 18 82 Q19 127 47.5 162 Q76 197 118 210 Q98 236 87 267 Q76 298 76 333 Z M178 333 Q178 312 186 293.5 Q194 275 207.5 261.5 Q221 248 239.5 240 Q258 232 279 232 Q300 232 319 240 Q338 248 351.5 261.5 Q365 275 373 293.5 Q381 312 381 333 Q381 376 351.5 405.5 Q322 435 279 435 Q258 435 239.5 427 Q221 419 207.5 405.5 Q194 392 186 373 Q178 354 178 333 Z M318 -165 Q421 -165 421 -103 Q421 -78 400.5 -62.5 Q380 -47 339 -47 L163 -47 Q162 -71 173.5 -92.5 Q185 -114 206 -130 Q227 -146 256 -155.5 Q285 -165 318 -165 Z " />
<glyph glyph-name="h" unicode="h" horiz-adv-x="656" d="M593 0 L485 0 L485 266 Q485 296 473.5 323 Q462 350 442.5 369.5 Q423 389 396 400.5 Q369 412 339 412 Q309 412 282.5 400.5 Q256 389 236 368.5 Q216 348 204 321 Q192 294 192 263 L192 0 L82 0 L82 768 L192 768 L192 436 Q221 474 263.5 497.5 Q306 521 357 520 Q406 520 449 500 Q492 480 524 445.5 Q556 411 574.5 364.5 Q593 318 593 264 L593 0 Z " />
<glyph glyph-name="i" unicode="i" horiz-adv-x="295" d="M203 512 L203 0 L93 0 L93 512 L203 512 Z M72 707 Q72 738 94 760 Q116 782 148 782 Q179 782 201 760 Q223 738 223 707 Q223 675 201 653 Q179 631 148 631 Q116 631 94 653 Q72 675 72 707 Z " />
<glyph glyph-name="j" unicode="j" horiz-adv-x="295" d="M93 -253 L93 512 L202 512 L202 -253 L93 -253 Z M72 707 Q72 738 94 760 Q116 782 148 782 Q179 782 201 760 Q223 738 223 707 Q223 675 201 653 Q179 631 148 631 Q116 631 94 653 Q72 675 72 707 Z " />
<glyph glyph-name="k" unicode="k" horiz-adv-x="559" d="M190 768 L190 310 L291 310 L414 512 L535 512 L381 256 L535 0 L414 0 L291 202 L190 202 L190 0 L82 0 L82 768 L190 768 Z " />
<glyph glyph-name="l" unicode="l" horiz-adv-x="275" d="M82 0 L82 768 L193 768 L193 0 L82 0 Z " />
<glyph glyph-name="m" unicode="m" horiz-adv-x="953" d="M890 0 L777 0 L777 285 Q777 311 769.5 334.5 Q762 358 747.5 376 Q733 394 711 404.5 Q689 415 661 415 Q635 415 613.5 405 Q592 395 576.5 377 Q561 359 552.5 335.5 Q544 312 544 285 L544 0 L431 0 L431 285 Q431 310 422.5 333.5 Q414 357 398.5 375 Q383 393 361 404 Q339 415 311 415 Q283 415 260.5 404.5 Q238 394 222.5 375.5 Q207 357 198.5 332 Q190 307 190 279 L190 0 L82 0 L82 512 L190 512 L190 441 Q200 456 215 471 Q230 486 249.5 497.5 Q269 509 292 516 Q315 523 341 523 Q390 523 431 498.5 Q472 474 496 436 Q528 476 572.5 499.5 Q617 523 669 523 Q718 523 758.5 504.5 Q799 486 828 454 Q857 422 873.5 378.5 Q890 335 890 285 L890 0 Z " />
<glyph glyph-name="n" unicode="n" horiz-adv-x="652" d="M589 0 L481 0 L481 267 Q481 299 472 327.5 Q463 356 444.5 377 Q426 398 399 410.5 Q372 423 336 423 Q306 423 279.5 412 Q253 401 233.5 380 Q214 359 202.5 329.5 Q191 300 190 263 L190 0 L82 0 L82 512 L190 512 L190 436 Q202 452 219.5 467.5 Q237 483 259.5 495 Q282 507 308 514.5 Q334 522 362 522 Q411 522 453 503.5 Q495 485 525 451.5 Q555 418 572 370 Q589 322 589 262 L589 0 Z " />
<glyph glyph-name="o" unicode="o" horiz-adv-x="630" d="M50 256 Q50 311 70.5 359.5 Q91 408 127 444 Q163 480 211.5 500.5 Q260 521 315 521 Q370 521 418.5 500.5 Q467 480 503 444 Q539 408 559.5 359.5 Q580 311 580 256 Q580 201 559.5 152.5 Q539 104 503 68 Q467 32 418.5 11.5 Q370 -9 315 -9 Q260 -9 211.5 11.5 Q163 32 127 68 Q91 104 70.5 152.5 Q50 201 50 256 Z M157 256 Q157 222 169.5 193 Q182 164 203 142.5 Q224 121 253 109 Q282 97 315 97 Q348 97 377 109 Q406 121 427 142.5 Q448 164 460.5 193 Q473 222 473 256 Q473 290 460.5 319 Q448 348 427 369.5 Q406 391 377 403 Q348 415 315 415 Q282 415 253 403 Q224 391 203 369.5 Q182 348 169.5 319 Q157 290 157 256 Z " />
<glyph glyph-name="p" unicode="p" horiz-adv-x="642" d="M592 256 Q592 203 573 156 Q554 109 521 74.5 Q488 40 442 20 Q396 0 342 0 Q296 0 256 20 Q216 40 190 70 L190 -256 L82 -256 L82 512 L190 512 L190 442 Q216 473 255.5 492.5 Q295 512 342 512 Q396 512 442 492 Q488 472 521 437.5 Q554 403 573 356 Q592 309 592 256 Z M180 256 Q180 224 191.5 196.5 Q203 169 223.5 148.5 Q244 128 271 116 Q298 104 330 104 Q362 104 390 116 Q418 128 438.5 148.5 Q459 169 471 196.5 Q483 224 483 256 Q483 288 471 315.5 Q459 343 438.5 363.5 Q418 384 390 396 Q362 408 330 408 Q298 408 271 396 Q244 384 223.5 363.5 Q203 343 191.5 315.5 Q180 288 180 256 Z " />
<glyph glyph-name="q" unicode="q" horiz-adv-x="643" d="M51 256 Q51 309 70 356 Q89 403 122 437.5 Q155 472 200.5 492 Q246 512 300 512 Q347 512 387 492.5 Q427 473 452 442 L452 512 L561 512 L561 -256 L452 -256 L452 70 Q427 40 386.5 20 Q346 0 300 0 Q246 0 200.5 20 Q155 40 122 74.5 Q89 109 70 156 Q51 203 51 256 Z M462 256 Q462 288 450.5 315.5 Q439 343 418.5 363.5 Q398 384 370.5 396 Q343 408 312 408 Q280 408 252 396 Q224 384 203.5 363.5 Q183 343 171 315.5 Q159 288 159 256 Q159 224 171 196.5 Q183 169 203.5 148.5 Q224 128 252 116 Q280 104 312 104 Q343 104 370.5 116 Q398 128 418.5 148.5 Q439 169 450.5 196.5 Q462 224 462 256 Z " />
<glyph glyph-name="r" unicode="r" horiz-adv-x="376" d="M192 0 L82 0 L82 512 L177 512 L177 436 Q206 472 247.5 492 Q289 512 338 512 L366 512 L366 416 L338 416 Q306 416 279 405 Q252 394 232.5 374.5 Q213 355 202.5 328 Q192 301 192 270 L192 0 Z " />
<glyph glyph-name="s" unicode="s" horiz-adv-x="532" d="M162 373 Q162 353 177 340 Q192 327 219 319 L337 288 Q415 268 451 228.5 Q487 189 487 133 Q487 101 474.5 74 Q462 47 436.5 27 Q411 7 372.5 -4.5 Q334 -16 282 -16 Q242 -16 206 -8 Q170 0 140 14 Q110 28 87 46.5 Q64 65 51 86 L133 145 Q156 114 198 97 Q240 80 282 80 Q327 80 351 95 Q375 110 375 133 Q375 151 362 165.5 Q349 180 316 189 L207 218 Q126 239 89 278.5 Q52 318 52 373 Q52 404 65.5 432 Q79 460 105.5 481 Q132 502 171 514.5 Q210 527 260 527 Q305 527 344 513.5 Q383 500 412 477 Q441 454 458 422 Q475 390 475 354 L367 354 Q366 369 358 383.5 Q350 398 335.5 409.5 Q321 421 302 427.5 Q283 434 260 434 Q208 434 185 415 Q162 396 162 373 Z " />
<glyph glyph-name="t" unicode="t" horiz-adv-x="368" d="M128 0 L128 416 L10 416 L10 512 L128 512 L128 640 L238 640 L238 512 L356 512 L356 416 L238 416 L238 0 L128 0 Z " />
<glyph glyph-name="u" unicode="u" horiz-adv-x="652" d="M63 512 L171 512 L171 245 Q171 213 180 184.5 Q189 156 207.5 135 Q226 114 253 101.5 Q280 89 316 89 Q346 89 372.5 100 Q399 111 418.5 132 Q438 153 449.5 182.5 Q461 212 462 249 L462 512 L570 512 L570 0 L462 0 L462 76 Q450 60 432.5 44.5 Q415 29 392.5 17 Q370 5 344 -2.5 Q318 -10 290 -10 Q240 -10 198.5 8.5 Q157 27 127 60.5 Q97 94 80 142 Q63 190 63 250 L63 512 Z " />
<glyph glyph-name="v" unicode="v" horiz-adv-x="561" d="M283 100 L422 512 L544 512 L357 0 L204 0 L17 512 L139 512 L278 100 L283 100 Z " />
<glyph glyph-name="w" unicode="w" horiz-adv-x="784" d="M555 100 L561 100 L651 512 L767 512 L645 0 L482 0 L396 334 L388 334 L302 0 L139 0 L17 512 L133 512 L223 100 L229 100 L334 512 L450 512 L555 100 Z " />
<glyph glyph-name="x" unicode="x" horiz-adv-x="513" d="M496 0 L370 0 L256 161 L143 0 L17 0 L194 255 L17 512 L143 512 L256 349 L371 512 L496 512 L318 255 L496 0 Z " />
<glyph glyph-name="y" unicode="y" horiz-adv-x="572" d="M288 110 L433 512 L555 512 L340 -47 L340 -256 L232 -256 L232 -49 L17 512 L139 512 L283 110 L288 110 Z " />
<glyph glyph-name="z" unicode="z" horiz-adv-x="507" d="M457 97 L457 0 L60 0 L45 25 L296 416 L61 416 L61 512 L448 512 L462 487 L212 97 L457 97 Z " />
<glyph glyph-name="bar" unicode="&#x7c;" horiz-adv-x="298" d="M95 896 L203 896 L203 -128 L95 -128 L95 896 Z " />
<glyph glyph-name="cent" unicode="&#xa2;" horiz-adv-x="556" d="M162 256 Q162 225 173.5 198 Q185 171 205 151 Q225 131 252 119.5 Q279 108 310 108 Q346 108 375.5 123.5 Q405 139 426 164 L508 95 Q481 61 444 38 Q407 15 362 6 L364 6 L364 -128 L248 -128 L248 8 Q206 18 170 40.5 Q134 63 107.5 96 Q81 129 66.5 169.5 Q52 210 52 256 Q52 301 66.5 342 Q81 383 107.5 415.5 Q134 448 170 471 Q206 494 248 504 L248 640 L364 640 L364 505 L362 505 Q407 496 444 473 Q481 450 508 416 L426 349 Q405 374 375.5 389 Q346 404 310 404 Q279 404 252 392.5 Q225 381 205 361 Q185 341 173.5 314 Q162 287 162 256 Z " />
<glyph glyph-name="sterling" unicode="&#xa3;" horiz-adv-x="570" d="M47 428 L143 428 L143 576 Q143 616 158 651 Q173 686 199 712 Q225 738 260 753 Q295 768 335 768 Q375 768 410 753 Q445 738 471 712 Q497 686 512 651 Q527 616 527 576 L419 576 Q419 611 394.5 635.5 Q370 660 335 660 Q300 660 275.5 636 Q251 612 251 577 L251 428 L527 428 L527 328 L251 328 L251 99 L527 99 L527 0 L143 0 L143 328 L47 328 L47 428 Z " />
<glyph glyph-name="dieresis" unicode="&#xa8;" horiz-adv-x="461" d="M50 663 Q50 695 72.5 717.5 Q95 740 127 740 Q159 740 181 717.5 Q203 695 203 663 Q203 631 181 608.5 Q159 586 127 586 Q95 586 72.5 608.5 Q50 631 50 663 Z M258 663 Q258 695 280.5 717.5 Q303 740 335 740 Q367 740 389 717.5 Q411 695 411 663 Q411 631 389 608.5 Q367 586 335 586 Q303 586 280.5 608.5 Q258 631 258 663 Z " />
<glyph glyph-name="copyright" unicode="&#xa9;" horiz-adv-x="799" d="M30 358 Q30 435 59 502.5 Q88 570 138 620.5 Q188 671 255 700 Q322 729 398 729 Q475 729 542.5 700 Q610 671 660.5 620.5 Q711 570 740 502.5 Q769 435 769 358 Q769 282 740 215 Q711 148 660.5 98 Q610 48 542.5 19 Q475 -10 398 -10 Q322 -10 255 19 Q188 48 138 98 Q88 148 59 215 Q30 282 30 358 Z M106 358 Q106 298 129 244.5 Q152 191 191.5 151.5 Q231 112 284.5 89 Q338 66 398 66 Q459 66 513 89 Q567 112 607 151.5 Q647 191 670 244.5 Q693 298 693 358 Q693 419 670 473 Q647 527 607 567 Q567 607 513 630 Q459 653 398 653 Q338 653 284.5 630 Q231 607 191.5 567 Q152 527 129 473 Q106 419 106 358 Z M300 360 Q300 315 330 284.5 Q360 254 405 254 Q432 254 452.5 265.5 Q473 277 489 294 L546 245 Q522 214 485 196 Q448 178 405 178 Q367 178 333.5 192 Q300 206 275 231 Q250 256 236 289 Q222 322 222 360 Q222 400 236 433.5 Q250 467 275 491 Q300 515 333.5 528.5 Q367 542 405 542 Q448 542 485 523.5 Q522 505 546 474 L489 427 Q473 445 452.5 455.5 Q432 466 405 466 Q360 466 330 436.5 Q300 407 300 360 Z " />
<glyph glyph-name="macron" unicode="&#xaf;" horiz-adv-x="406" d="M356 587 L50 587 L50 654 L356 654 L356 587 Z " />
<glyph glyph-name="degree" unicode="&#xb0;" horiz-adv-x="356" d="M50 606 Q50 633 60 656 Q70 679 87.5 696.5 Q105 714 128 724 Q151 734 178 734 Q205 734 228 724 Q251 714 268.5 696.5 Q286 679 296 656 Q306 633 306 606 Q306 579 296 556 Q286 533 268.5 515.5 Q251 498 228 488 Q205 478 178 478 Q151 478 128 488 Q105 498 87.5 515.5 Q70 533 60 556 Q50 579 50 606 Z M128 606 Q128 584 142 570 Q156 556 178 556 Q200 556 214 570 Q228 584 228 606 Q228 628 214 642 Q200 656 178 656 Q156 656 142 642 Q128 628 128 606 Z " />
<glyph glyph-name="acute" unicode="&#xb4;" horiz-adv-x="289" d="M79 567 L50 596 L159 738 Q171 754 191 755 Q211 756 225 742 Q239 728 238 707.5 Q237 687 222 676 L79 567 Z " />
<glyph glyph-name="cedilla" unicode="&#xb8;" horiz-adv-x="264" d="M90 64 L146 64 L146 -4 Q175 -12 194.5 -37.5 Q214 -63 214 -96 Q214 -137 186 -164.5 Q158 -192 118 -192 Q98 -192 81 -184.5 Q64 -177 50 -164 L90 -125 Q103 -136 118 -136 Q135 -136 146.5 -124.5 Q158 -113 158 -96 Q158 -79 146.5 -67.5 Q135 -56 118 -56 Q100 -56 89 -67 L50 -28 Q66 -10 90 -4 L90 64 Z " />
<glyph glyph-name="multiply" unicode="&#xd7;" horiz-adv-x="525" d="M50 392 L126 469 L262 333 L398 469 L475 392 L340 256 L475 120 L399 44 L263 179 L127 44 L50 120 L185 256 L50 392 Z " />
<glyph glyph-name="germandbls" unicode="&#xdf;" horiz-adv-x="670" d="M531 375 Q576 355 603 311.5 Q630 268 630 214 Q630 175 617 136.5 Q604 98 575 68 Q546 38 500 19 Q454 0 388 0 L320 0 L320 100 L392 100 Q425 100 449 109.5 Q473 119 489 134.5 Q505 150 512.5 170.5 Q520 191 520 212 Q520 232 512 251.5 Q504 271 488.5 287 Q473 303 450 312.5 Q427 322 398 322 L320 322 L320 419 L394 419 Q417 419 436.5 428 Q456 437 470.5 452 Q485 467 493.5 487 Q502 507 502 530 Q502 556 493.5 580.5 Q485 605 467 624 Q449 643 421 654.5 Q393 666 354 666 Q282 666 242.5 621 Q203 576 203 507 L203 0 L88 0 L88 507 Q88 566 108 614 Q128 662 163.5 696.5 Q199 731 246.5 749.5 Q294 768 350 768 Q414 768 462.5 748.5 Q511 729 544 696.5 Q577 664 594 622.5 Q611 581 611 537 Q611 489 590 448 Q569 407 531 375 Z " />
<glyph glyph-name="divide" unicode="&#xf7;" horiz-adv-x="592" d="M50 202 L50 310 L542 310 L542 202 L50 202 Z M220 55 Q220 87 242 109 Q264 131 296 131 Q328 131 350 109 Q372 87 372 55 Q372 23 350 1 Q328 -21 296 -21 Q264 -21 242 1 Q220 23 220 55 Z M220 457 Q220 489 242 511 Q264 533 296 533 Q328 533 350 511 Q372 489 372 457 Q372 425 350 403 Q328 381 296 381 Q264 381 242 403 Q220 425 220 457 Z " />
<glyph glyph-name="circumflex" unicode="&#x2c6;" horiz-adv-x="372" d="M185 660 L90 564 L50 604 L186 740 L322 604 L282 564 L185 660 Z " />
<glyph glyph-name="caron" unicode="&#x2c7;" horiz-adv-x="372" d="M187 644 L282 740 L322 700 L186 564 L50 700 L90 740 L187 644 Z " />
<glyph glyph-name="breve" unicode="&#x2d8;" horiz-adv-x="334" d="M50 696 L118 696 L118 676 Q118 655 132 641 Q146 627 167 627 Q188 627 202 641 Q216 655 216 676 L216 696 L284 696 L284 681 Q284 657 275 635.5 Q266 614 250 598 Q234 582 212.5 573 Q191 564 167 564 Q143 564 121.5 573 Q100 582 84 598 Q68 614 59 635.5 Q50 657 50 681 L50 696 Z " />
<glyph glyph-name="dotaccent" unicode="&#x2d9;" horiz-adv-x="253" d="M50 663 Q50 695 72.5 717.5 Q95 740 127 740 Q159 740 181 717.5 Q203 695 203 663 Q203 631 181 608.5 Q159 586 127 586 Q95 586 72.5 608.5 Q50 631 50 663 Z " />
<glyph glyph-name="ring" unicode="&#x2da;" horiz-adv-x="292" d="M50 672 Q50 712 78 740 Q106 768 146 768 Q186 768 214 740 Q242 712 242 672 Q242 632 214 604 Q186 576 146 576 Q106 576 78 604 Q50 632 50 672 Z M106 672 Q106 655 117.5 643.5 Q129 632 146 632 Q163 632 174.5 643.5 Q186 655 186 672 Q186 689 174.5 700.5 Q163 712 146 712 Q129 712 117.5 700.5 Q106 689 106 672 Z " />
<glyph glyph-name="ogonek" unicode="&#x2db;" horiz-adv-x="346" d="M50 -68 Q50 -42 59.5 -19.5 Q69 3 86 20 Q103 37 125 47 Q147 57 173 57 L173 0 Q145 0 125.5 -20 Q106 -40 106 -68 Q106 -97 125.5 -116 Q145 -135 173 -135 Q201 -135 220.5 -116 Q240 -97 240 -68 L296 -68 Q296 -94 286.5 -116.5 Q277 -139 260 -156 Q243 -173 220.5 -182.5 Q198 -192 173 -192 Q147 -192 125 -182.5 Q103 -173 86 -156 Q69 -139 59.5 -116.5 Q50 -94 50 -68 Z " />
<glyph glyph-name="tilde" unicode="&#x2dc;" horiz-adv-x="417" d="M268 708 Q290 708 308.5 699.5 Q327 691 340 677 Q353 663 360 644.5 Q367 626 367 605 L306 605 Q306 626 295.5 638.5 Q285 651 268 651 Q254 651 243 642 Q232 633 219.5 621.5 Q207 610 190.5 601 Q174 592 149 592 Q126 592 108 600 Q90 608 77 622 Q64 636 57 654.5 Q50 673 50 694 L111 694 Q111 673 121 660.5 Q131 648 149 648 Q163 648 174 657.5 Q185 667 197.5 678 Q210 689 226.5 698.5 Q243 708 268 708 Z " />
<glyph glyph-name="endash" unicode="&#x2013;" horiz-adv-x="1124" d="M50 202 L50 310 L1074 310 L1074 202 L50 202 Z " />
<glyph glyph-name="emdash" unicode="&#x2014;" horiz-adv-x="1636" d="M50 310 L1586 310 L1586 202 L50 202 L50 310 Z " />
<glyph glyph-name="quotesinglbase" unicode="&#x201a;" horiz-adv-x="214" d="M49 25 L94 121 Q68 126 50 147 Q32 168 32 197 Q32 229 54 251 Q76 273 108 273 Q130 273 146.5 262.5 Q163 252 172.5 235.5 Q182 219 183 198.5 Q184 178 174 157 L100 0 L49 25 Z " />
<glyph glyph-name="quotedblleft" unicode="&#x201c;" horiz-adv-x="423" d="M374 711 L329 614 Q355 609 373 588 Q391 567 391 539 Q391 507 369 484.5 Q347 462 315 462 Q293 462 276.5 472.5 Q260 483 250.5 499.5 Q241 516 240 536.5 Q239 557 249 578 L323 735 L374 711 Z M165 711 L120 614 Q146 609 164 588 Q182 567 182 539 Q182 507 160 484.5 Q138 462 106 462 Q85 462 68 472.5 Q51 483 41.5 499.5 Q32 516 31 536.5 Q30 557 40 578 L114 735 L165 711 Z " />
<glyph glyph-name="quotedblbase" unicode="&#x201e;" horiz-adv-x="423" d="M49 25 L94 121 Q68 126 50 147 Q32 168 32 197 Q32 229 54 251 Q76 273 108 273 Q130 273 146.5 262.5 Q163 252 172.5 235.5 Q182 219 183 198.5 Q184 178 174 157 L100 0 L49 25 Z M258 25 L303 121 Q277 126 259 147 Q241 168 241 197 Q241 229 263 251 Q285 273 317 273 Q338 273 355 262.5 Q372 252 381.5 235.5 Q391 219 392 198.5 Q393 178 383 157 L309 0 L258 25 Z " />
<glyph glyph-name="bullet" unicode="&#x2022;" horiz-adv-x="253" d="M50 256 Q50 288 72.5 310.5 Q95 333 127 333 Q159 333 181 310.5 Q203 288 203 256 Q203 224 181 201.5 Q159 179 127 179 Q95 179 72.5 201.5 Q50 224 50 256 Z " />
<glyph glyph-name="minus" unicode="&#x2212;" horiz-adv-x="592" d="M50 202 L50 310 L542 310 L542 202 L50 202 Z " />
<glyph glyph-name="commaaccent" unicode="&#xf6c3;" horiz-adv-x="204" d="M62 -233 L94 -166 Q76 -162 64 -148.5 Q52 -135 52 -116 Q52 -94 67 -79 Q82 -64 103 -64 Q117 -64 128.5 -71 Q140 -78 146 -89 Q152 -100 153 -114 Q154 -128 147 -142 L96 -250 L62 -233 Z " />
<glyph glyph-name="longs" unicode="&#x17f;" horiz-adv-x="426" d="M393 622 Q393 654 371 677 Q349 700 316 700 Q284 700 262 678 Q240 656 240 622 L240 0 L132 0 L132 412 L35 412 L35 512 L132 512 L132 622 Q132 662 146.5 696 Q161 730 186 755 Q211 780 244.5 794 Q278 808 316 808 Q355 808 389 793 Q423 778 447.5 752.5 Q472 727 486.5 693.5 Q501 660 501 622 L393 622 Z " />
<glyph glyph-name="hungarumlaut" unicode="&#x2dd;" horiz-adv-x="477" d="M79 567 L50 596 L159 738 Q171 754 191 755 Q211 756 225 742 Q239 728 238 707.5 Q237 687 222 676 L79 567 Z M267 567 L238 596 L347 738 Q359 754 379 755 Q399 756 413 742 Q427 728 426 707.5 Q425 687 410 676 L267 567 Z " />
<glyph glyph-name="grave" unicode="&#x60;" horiz-adv-x="289" d="M67 676 Q52 687 51 707.5 Q50 728 63 742 Q77 756 97.5 755 Q118 754 130 738 L239 596 L210 567 L67 676 Z " />
<glyph glyph-name="AE" unicode="&#xc6;" horiz-adv-x="888" d="M839 635 L520 635 L520 420 L839 420 L839 320 L520 320 L520 100 L839 100 L839 0 L401 0 L401 145 L199 145 Q184 110 168.5 72.5 Q153 35 138 0 L17 0 L314 735 L839 735 L839 635 Z M401 245 L401 635 L388 635 L236 245 L401 245 Z " />
<glyph glyph-name="OE" unicode="&#x152;" horiz-adv-x="1009" d="M47 368 Q47 447 77 516 Q107 585 158.5 636.5 Q210 688 279 717.5 Q348 747 426 747 Q450 747 473.5 743.5 Q497 740 520 735 L960 735 L960 635 L639 635 L639 420 L960 420 L960 320 L639 320 L639 100 L960 100 L960 0 L520 0 Q473 -11 426 -11 Q348 -11 279 19 Q210 49 158.5 100.5 Q107 152 77 221 Q47 290 47 368 Z M426 631 Q372 631 324.5 610.5 Q277 590 241 554 Q205 518 184.5 470 Q164 422 164 368 Q164 314 184.5 266 Q205 218 241 182 Q277 146 324.5 125.5 Q372 105 426 105 Q474 105 519 122 L519 614 Q474 631 426 631 Z " />
<glyph glyph-name="eth" unicode="&#xf0;" horiz-adv-x="648" d="M578 243 Q578 190 558 143.5 Q538 97 503 62 Q468 27 421.5 7 Q375 -13 322 -13 Q269 -13 222.5 7 Q176 27 141 62 Q106 97 86 143.5 Q66 190 66 243 Q66 288 79.5 326 Q93 364 116.5 393.5 Q140 423 172.5 444 Q205 465 243 475 Q295 490 353 481 L293 584 L184 556 L167 619 L258 643 L193 758 L312 758 L363 671 L470 700 L487 637 L398 613 L527 396 Q548 361 563 323.5 Q578 286 578 243 Z M174 243 Q174 213 185.5 186 Q197 159 217.5 138.5 Q238 118 265 106.5 Q292 95 322 95 Q353 95 380 106.5 Q407 118 427 138.5 Q447 159 458.5 186 Q470 213 470 243 Q470 274 458 301 Q446 328 425.5 347.5 Q405 367 378 378.5 Q351 390 321 390 Q290 390 263.5 378.5 Q237 367 217 347 Q197 327 185.5 300 Q174 273 174 243 Z " />
<glyph glyph-name="quotedblright" unicode="&#x201d;" horiz-adv-x="423" d="M49 487 L94 583 Q68 588 50 609 Q32 630 32 659 Q32 691 54 713 Q76 735 108 735 Q130 735 146.5 724.5 Q163 714 172.5 697.5 Q182 681 183 660.5 Q184 640 174 619 L100 462 L49 487 Z M258 487 L303 583 Q277 588 259 609 Q241 630 241 659 Q241 691 263 713 Q285 735 317 735 Q338 735 355 724.5 Q372 714 381.5 697.5 Q391 681 392 660.5 Q393 640 383 619 L309 462 L258 487 Z " />
<glyph glyph-name="quoteright" unicode="&#x2019;" horiz-adv-x="214" d="M49 487 L94 583 Q68 588 50 609 Q32 630 32 659 Q32 691 54 713 Q76 735 108 735 Q130 735 146.5 724.5 Q163 714 172.5 697.5 Q182 681 183 660.5 Q184 640 174 619 L100 462 L49 487 Z " />
<glyph glyph-name="quoteleft" unicode="&#x2018;" horiz-adv-x="214" d="M165 711 L120 614 Q146 609 164 588 Q182 567 182 539 Q182 507 160 484.5 Q138 462 106 462 Q85 462 68 472.5 Q51 483 41.5 499.5 Q32 516 31 536.5 Q30 557 40 578 L114 735 L165 711 Z " />
<glyph glyph-name="questiondown" unicode="&#xbf;" horiz-adv-x="582" d="M348 410 L291 410 Q260 410 233 398 Q206 386 185.5 366 Q165 346 153.5 319 Q142 292 142 261 Q142 230 153.5 203 Q165 176 185.5 155.5 Q206 135 233 123.5 Q260 112 291 112 Q322 112 349 123.5 Q376 135 396 155.5 Q416 176 428 203 Q440 230 440 261 L552 261 Q552 207 531.5 159 Q511 111 476 76 Q441 41 393 20.5 Q345 0 291 0 Q237 0 189 20.5 Q141 41 106 76 Q71 111 50.5 159 Q30 207 30 261 Q30 315 50.5 363 Q71 411 106 446 Q141 481 189 501.5 Q237 522 291 522 L348 522 L348 410 Z M361 691 Q361 659 338.5 637 Q316 615 284 615 Q252 615 230 637 Q208 659 208 691 Q208 723 230 745.5 Q252 768 284 768 Q316 768 338.5 745.5 Q361 723 361 691 Z " />
<glyph glyph-name="exclamdown" unicode="&#xa1;" horiz-adv-x="344" d="M249 691 Q249 659 226.5 637 Q204 615 172 615 Q140 615 117.5 637 Q95 659 95 691 Q95 723 117.5 745.5 Q140 768 172 768 Q204 768 226.5 745.5 Q249 723 249 691 Z M228 524 L228 0 L116 0 L116 524 L228 524 Z " />
<glyph glyph-name="greater" unicode="&#x3e;" horiz-adv-x="490" d="M440 256 L184 0 L54 0 L50 11 L295 256 L50 501 L54 512 L184 512 L440 256 Z " />
<glyph glyph-name="guillemotleft" unicode="&#xab;" horiz-adv-x="820" d="M306 512 L436 512 L440 501 L195 256 L440 11 L436 0 L306 0 L50 256 L306 512 Z M636 512 L766 512 L770 501 L525 256 L770 11 L766 0 L636 0 L380 256 L636 512 Z " />
<glyph glyph-name="guilsinglleft" unicode="&#x2039;" horiz-adv-x="490" d="M306 512 L436 512 L440 501 L195 256 L440 11 L436 0 L306 0 L50 256 L306 512 Z " />
<glyph glyph-name="guilsinglright" unicode="&#x203a;" horiz-adv-x="490" d="M440 256 L184 0 L54 0 L50 11 L295 256 L50 501 L54 512 L184 512 L440 256 Z " />
<glyph glyph-name="estimated" unicode="&#x212e;" horiz-adv-x="602" d="M43 256 Q43 311 63.5 359.5 Q84 408 120 444 Q156 480 204.5 500.5 Q253 521 308 521 Q363 521 411.5 500.5 Q460 480 496 444 Q532 408 552.5 359.5 Q573 311 573 256 L207 256 L207 65 Q229 48 255 41 Q281 34 308 34 Q374 34 420 61.5 Q466 89 495 135 L544 135 Q512 69 449 30 Q386 -9 308 -9 Q253 -9 204.5 11.5 Q156 32 120 68 Q84 104 63.5 152.5 Q43 201 43 256 Z M207 295 L406 295 L406 447 Q384 463 359 470.5 Q334 478 308 478 Q281 478 255 470 Q229 462 207 445 L207 295 Z " />
<glyph glyph-name="backslash" unicode="&#x5c;" horiz-adv-x="265" d="M82 748 L274 -20 L162 -20 L-30 748 L82 748 Z " />
<glyph glyph-name="partialdiff" unicode="&#x2202;" horiz-adv-x="636" d="M593 242 Q593 189 573 142.5 Q553 96 518 61 Q483 26 436.5 6 Q390 -14 337 -14 Q284 -14 237.5 6 Q191 26 156 61 Q121 96 101 142.5 Q81 189 81 242 Q81 287 94.5 325 Q108 363 131.5 392.5 Q155 422 187.5 443 Q220 464 258 474 Q310 489 368 480 L208 754 L327 754 L542 395 Q563 360 578 322.5 Q593 285 593 242 Z M190 242 Q190 212 201.5 185 Q213 158 233 137.5 Q253 117 280 105.5 Q307 94 337 94 Q368 94 395 105.5 Q422 117 442 137.5 Q462 158 473.5 185 Q485 212 485 242 Q485 273 473 300 Q461 327 440.5 346.5 Q420 366 393 377.5 Q366 389 336 389 Q305 389 278.5 377.5 Q252 366 232.5 346 Q213 326 201.5 299 Q190 272 190 242 Z " />
<glyph glyph-name="braceleft" unicode="&#x7b;" horiz-adv-x="574" d="M440 -128 Q388 -128 343.5 -108.5 Q299 -89 266 -55.5 Q233 -22 214.5 23 Q196 68 196 120 L196 191 Q196 219 186.5 243.5 Q177 268 160 287 Q143 306 120 317 Q97 328 71 329 L66 329 L66 440 L71 440 Q98 441 120.5 452 Q143 463 160 481 Q177 499 186.5 523 Q196 547 196 576 L196 648 Q196 700 214.5 745 Q233 790 266 823.5 Q299 857 343.5 876.5 Q388 896 440 896 L440 784 Q412 784 387.5 773.5 Q363 763 344.5 744.5 Q326 726 315.5 701.5 Q305 677 305 649 L305 576 Q305 516 282 466 Q259 416 214 384 Q259 351 282 299.5 Q305 248 305 191 L305 119 Q305 91 315.5 66.5 Q326 42 344.5 23.5 Q363 5 387.5 -5.5 Q412 -16 440 -16 L440 -128 Z " />
<glyph glyph-name="braceright" unicode="&#x7d;" horiz-adv-x="574" d="M66 -16 Q94 -16 119 -5.5 Q144 5 162.5 23.5 Q181 42 191.5 66.5 Q202 91 202 119 L202 191 Q202 248 224.5 299.5 Q247 351 292 384 Q248 416 225 466 Q202 516 202 576 L202 649 Q202 677 191.5 701.5 Q181 726 162.5 744.5 Q144 763 119 773.5 Q94 784 66 784 L66 896 Q118 896 162.5 876.5 Q207 857 240 823.5 Q273 790 291.5 745 Q310 700 310 648 L310 576 Q310 547 319.5 523 Q329 499 346 481 Q363 463 385.5 452 Q408 441 435 440 L440 440 L440 329 L435 329 Q409 328 386 317 Q363 306 346 287 Q329 268 319.5 243.5 Q310 219 310 191 L310 120 Q310 68 291.5 23 Q273 -22 240 -55.5 Q207 -89 162.5 -108.5 Q118 -128 66 -128 L66 -16 Z " />
<glyph glyph-name="perthousand" unicode="&#x2030;" horiz-adv-x="804" d="M556 678 L168 90 L50 90 L438 678 L556 678 Z M387 167 Q387 199 409 221 Q431 243 463 243 Q495 243 517.5 221 Q540 199 540 167 Q540 135 517.5 112.5 Q495 90 463 90 Q431 90 409 112.5 Q387 135 387 167 Z M54 601 Q54 633 76 655.5 Q98 678 130 678 Q162 678 184.5 655.5 Q207 633 207 601 Q207 569 184.5 547 Q162 525 130 525 Q98 525 76 547 Q54 569 54 601 Z M597 167 Q597 199 619 221 Q641 243 673 243 Q705 243 727.5 221 Q750 199 750 167 Q750 135 727.5 112.5 Q705 90 673 90 Q641 90 619 112.5 Q597 135 597 167 Z " />
<glyph glyph-name="registered" unicode="&#xae;" horiz-adv-x="799" d="M30 358 Q30 435 59 502.5 Q88 570 138 620.5 Q188 671 255 700 Q322 729 398 729 Q475 729 542.5 700 Q610 671 660.5 620.5 Q711 570 740 502.5 Q769 435 769 358 Q769 282 740 215 Q711 148 660.5 98 Q610 48 542.5 19 Q475 -10 398 -10 Q322 -10 255 19 Q188 48 138 98 Q88 148 59 215 Q30 282 30 358 Z M106 358 Q106 298 129 244.5 Q152 191 191.5 151.5 Q231 112 284.5 89 Q338 66 398 66 Q459 66 513 89 Q567 112 607 151.5 Q647 191 670 244.5 Q693 298 693 358 Q693 419 670 473 Q647 527 607 567 Q567 607 513 630 Q459 653 398 653 Q338 653 284.5 630 Q231 607 191.5 567 Q152 527 129 473 Q106 419 106 358 Z M342 188 L276 188 L276 548 L429 548 Q453 548 473.5 539 Q494 530 509 515 Q524 500 533 479.5 Q542 459 542 435 Q542 401 524.5 374 Q507 347 478 333 L538 188 L468 188 L413 322 L342 322 L342 188 Z M422 379 Q446 379 462.5 395 Q479 411 479 435 Q479 458 462.5 474 Q446 490 423 490 L342 490 L342 379 L422 379 Z " />
<glyph glyph-name="exclam" unicode="&#x21;" horiz-adv-x="344" d="M95 77 Q95 109 117.5 131 Q140 153 172 153 Q204 153 226.5 131 Q249 109 249 77 Q249 45 226.5 22.5 Q204 0 172 0 Q140 0 117.5 22.5 Q95 45 95 77 Z M116 244 L116 768 L228 768 L228 244 L116 244 Z " />
<glyph glyph-name="asciitilde" unicode="&#x7e;" horiz-adv-x="571" d="M372 337 Q405 337 431.5 324.5 Q458 312 477 291.5 Q496 271 506 243.5 Q516 216 516 186 L429 186 Q429 218 413.5 237 Q398 256 372 256 Q351 256 334.5 242 Q318 228 299 210.5 Q280 193 256 179 Q232 165 196 165 Q163 165 136 177 Q109 189 90 210 Q71 231 61 258.5 Q51 286 51 316 L138 316 Q138 284 153 265 Q168 246 196 246 Q216 246 232.5 260 Q249 274 268 291.5 Q287 309 311.5 323 Q336 337 372 337 Z " />
<glyph glyph-name="dagger" unicode="&#x2020;" horiz-adv-x="591" d="M50 522 L50 630 L238 630 L238 832 L354 832 L354 630 L541 630 L541 522 L354 522 L354 -128 L238 -128 L238 522 L50 522 Z " />
<glyph glyph-name="brokenbar" unicode="&#xa6;" horiz-adv-x="298" d="M95 320 L203 320 L203 -128 L95 -128 L95 320 Z M203 448 L95 448 L95 896 L203 896 L203 448 Z " />
<glyph glyph-name="trademark" unicode="&#x2122;" horiz-adv-x="536" d="M164 768 L199 768 L239 716 L278 768 L313 768 L313 652 L278 652 L278 720 L239 666 L199 720 L199 652 L164 652 L164 768 Z M36 768 L143 768 L143 737 L107 737 L107 652 L72 652 L72 737 L36 737 L36 768 Z " />
<glyph glyph-name="Euro" unicode="&#x20ac;" horiz-adv-x="730" d="M-32 412 L-32 519 L85 519 Q106 570 140 611.5 Q174 653 219 683 Q264 713 318 729.5 Q372 746 432 746 Q513 746 580.5 716.5 Q648 687 699 636 L623 556 Q586 591 538 613 Q490 635 436 635 Q365 635 308 603.5 Q251 572 217 519 L440 519 L440 412 L172 412 Q168 392 168 367 Q168 343 172 324 L440 324 L440 217 L217 217 Q251 163 308.5 131 Q366 99 436 99 Q491 99 538.5 121 Q586 143 624 179 L699 99 Q649 48 581 18.5 Q513 -11 432 -11 Q373 -11 319.5 5.5 Q266 22 221 52 Q176 82 141 124 Q106 166 85 217 L-32 217 L-32 324 L56 324 Q54 335 54 345.5 Q54 356 54 367 Q54 378 54 389.5 Q54 401 56 412 L-32 412 Z " />
<glyph glyph-name="kgreenlandic" unicode="&#x138;" horiz-adv-x="587" d="M190 301 L305 301 Q329 301 350 310 Q371 319 386.5 334.5 Q402 350 411 371 Q420 392 420 416 L420 512 L528 512 L528 416 Q528 383 519 353 Q510 323 493 296.5 Q476 270 452.5 249.5 Q429 229 401 216 L539 0 L418 0 L292 193 L190 193 L190 0 L82 0 L82 512 L190 512 L190 301 Z " />
<glyph glyph-name="threequartersemdash" unicode="&#xf6de;" horiz-adv-x="1636" d="M50 310 L1586 310 L1586 202 L50 202 L50 310 Z " />
<glyph glyph-name="lira" unicode="&#x20a4;" horiz-adv-x="570" d="M47 306 L143 306 L143 400 L47 400 L47 499 L143 499 L143 576 Q143 616 158 651 Q173 686 199 712 Q225 738 260 753 Q295 768 335 768 Q375 768 410 753 Q445 738 471 712 Q497 686 512 651 Q527 616 527 576 L419 576 Q419 611 394.5 635.5 Q370 660 335 660 Q300 660 275.5 636 Q251 612 251 577 L251 499 L527 499 L527 400 L251 400 L251 306 L527 306 L527 206 L251 206 L251 99 L527 99 L527 0 L143 0 L143 206 L47 206 L47 306 Z " />
<glyph glyph-name="yen" unicode="&#xa5;" horiz-adv-x="593" d="M49 257 L49 364 L180 364 L19 735 L142 735 L296 369 L451 735 L572 735 L413 364 L545 364 L545 257 L351 257 L351 196 L545 196 L545 88 L351 88 L351 0 L242 0 L242 88 L49 88 L49 196 L242 196 L242 257 L49 257 Z " />
<glyph glyph-name="ae" unicode="&#xe6;" horiz-adv-x="946" d="M907 252 Q907 243 905.5 231 Q904 219 902 212 L503 212 Q503 188 515 166 Q527 144 547.5 127.5 Q568 111 595.5 101 Q623 91 654 91 Q694 91 727 105.5 Q760 120 784 145 L863 81 Q825 38 771.5 14 Q718 -10 653 -10 Q623 -10 593 -3 Q563 4 535 17.5 Q507 31 483.5 51.5 Q460 72 442 99 Q401 39 347 14.5 Q293 -10 240 -10 Q196 -10 160 2.5 Q124 15 98.5 36.5 Q73 58 59 87 Q45 116 45 149 Q45 180 57 207 Q69 234 94.5 254.5 Q120 275 158.5 287 Q197 299 250 299 L396 299 L396 309 Q396 355 368.5 387.5 Q341 420 284 420 Q247 420 220.5 404 Q194 388 170 359 L97 423 Q111 442 131.5 460 Q152 478 177 491 Q202 504 229 512 Q256 520 284 520 Q346 520 390 496.5 Q434 473 460 435 Q491 473 538.5 497.5 Q586 522 646 522 Q704 522 752.5 501 Q801 480 835 444 Q869 408 888 358.5 Q907 309 907 252 Z M648 424 Q614 424 587 413 Q560 402 541.5 384.5 Q523 367 513 344.5 Q503 322 503 299 L793 299 Q793 320 783 342.5 Q773 365 754 383 Q735 401 708 412.5 Q681 424 648 424 Z M156 150 Q156 120 182 100.5 Q208 81 249 81 Q276 81 302 90 Q328 99 349 116.5 Q370 134 383 158.5 Q396 183 396 213 L250 213 Q200 213 178 195 Q156 177 156 150 Z " />
<glyph glyph-name="oe" unicode="&#x153;" horiz-adv-x="1037" d="M51 256 Q51 311 71.5 359.5 Q92 408 128 444 Q164 480 212.5 500.5 Q261 521 316 521 Q381 521 436 490.5 Q491 460 525 404 Q557 461 609.5 491.5 Q662 522 731 522 Q790 522 838 501 Q886 480 920.5 444 Q955 408 973.5 358.5 Q992 309 992 252 Q992 243 991 231 Q990 219 988 212 L588 212 Q588 189 600 167.5 Q612 146 632 129 Q652 112 679.5 101.5 Q707 91 739 91 Q779 91 812 105.5 Q845 120 869 145 L948 81 Q910 38 856.5 14 Q803 -10 738 -10 Q677 -10 619.5 18 Q562 46 525 108 Q490 51 435.5 21 Q381 -9 316 -9 Q261 -9 212.5 11.5 Q164 32 128 68 Q92 104 71.5 152.5 Q51 201 51 256 Z M158 256 Q158 224 170.5 195 Q183 166 204.5 144.5 Q226 123 255 110.5 Q284 98 316 98 Q348 98 377 110.5 Q406 123 427.5 144.5 Q449 166 461.5 195 Q474 224 474 256 Q474 288 461.5 317 Q449 346 427.5 367.5 Q406 389 377 401.5 Q348 414 316 414 Q284 414 255 401.5 Q226 389 204.5 367.5 Q183 346 170.5 317 Q158 288 158 256 Z M733 424 Q699 424 672 413 Q645 402 626.5 384 Q608 366 598 343.5 Q588 321 588 299 L879 299 Q879 320 868.5 342.5 Q858 365 839 383 Q820 401 793 412.5 Q766 424 733 424 Z " />
<glyph glyph-name="Oslash" unicode="&#xd8;" horiz-adv-x="851" d="M46 368 Q46 446 76 515 Q106 584 157.5 635.5 Q209 687 278 717 Q347 747 425 747 Q489 747 546 727 Q603 707 651 671 L718 738 L794 662 L727 595 Q764 547 784.5 489.5 Q805 432 805 368 Q805 290 775 221 Q745 152 693.5 100.5 Q642 49 572.5 19 Q503 -11 425 -11 Q361 -11 303 9 Q245 29 197 65 L132 0 L56 76 L121 141 Q86 189 66 246.5 Q46 304 46 368 Z M425 106 Q479 106 526.5 126.5 Q574 147 610 183 Q646 219 666.5 266.5 Q687 314 687 368 Q687 408 675 444 Q663 480 643 511 L283 150 Q313 129 349 117.5 Q385 106 425 106 Z M163 368 Q163 328 174.5 292.5 Q186 257 206 226 L566 586 Q535 606 499.5 618 Q464 630 425 630 Q371 630 323.5 609.5 Q276 589 240 553 Q204 517 183.5 469.5 Q163 422 163 368 Z " />
<glyph glyph-name="oslash" unicode="&#xf8;" horiz-adv-x="630" d="M50 256 Q50 311 70.5 359.5 Q91 408 127 444 Q163 480 211.5 500.5 Q260 521 315 521 Q358 521 397.5 508 Q437 495 469 472 L512 515 L574 453 L531 410 Q554 378 567 338.5 Q580 299 580 256 Q580 201 559.5 152.5 Q539 104 503 68 Q467 32 418.5 11.5 Q370 -9 315 -9 Q271 -9 232 4 Q193 17 161 40 L118 -3 L56 59 L99 102 Q76 134 63 173 Q50 212 50 256 Z M315 97 Q348 97 377 109 Q406 121 427 142.5 Q448 164 460.5 193 Q473 222 473 256 Q473 277 467.5 296 Q462 315 452 331 L238 118 Q255 108 274 102.5 Q293 97 315 97 Z M157 256 Q157 214 177 180 L391 394 Q374 404 355 409.5 Q336 415 315 415 Q282 415 253 403 Q224 391 203 369.5 Q182 348 169.5 319 Q157 290 157 256 Z " />
<glyph glyph-name="ellipsis" unicode="&#x2026;" horiz-adv-x="822" d="M60 77 Q60 109 82.5 131 Q105 153 137 153 Q169 153 191.5 131 Q214 109 214 77 Q214 45 191.5 22.5 Q169 0 137 0 Q105 0 82.5 22.5 Q60 45 60 77 Z M334 77 Q334 109 356.5 131 Q379 153 411 153 Q443 153 465.5 131 Q488 109 488 77 Q488 45 465.5 22.5 Q443 0 411 0 Q379 0 356.5 22.5 Q334 45 334 77 Z M608 77 Q608 109 630.5 131 Q653 153 685 153 Q717 153 739.5 131 Q762 109 762 77 Q762 45 739.5 22.5 Q717 0 685 0 Q653 0 630.5 22.5 Q608 45 608 77 Z " />
<glyph glyph-name="guillemotright" unicode="&#xbb;" horiz-adv-x="820" d="M770 256 L514 0 L384 0 L380 11 L625 256 L380 501 L384 512 L514 512 L770 256 Z M440 256 L184 0 L54 0 L50 11 L295 256 L50 501 L54 512 L184 512 L440 256 Z " />
<glyph glyph-name="paragraph" unicode="&#xb6;" horiz-adv-x="861" d="M274 228 Q221 228 174.5 248 Q128 268 93.5 302.5 Q59 337 39.5 383 Q20 429 20 482 Q20 534 39.5 580.5 Q59 627 93.5 661 Q128 695 174.5 715 Q221 735 274 735 L781 735 L781 0 L662 0 L662 635 L531 635 L531 0 L416 0 L416 228 L274 228 Z M416 328 L416 635 L282 635 Q250 635 222 623 Q194 611 173 590.5 Q152 570 140 542 Q128 514 128 482 Q128 449 140 421 Q152 393 173 372.5 Q194 352 222 340 Q250 328 282 328 L416 328 Z " />
<glyph glyph-name="Aacute" unicode="&#xc1;" horiz-adv-x="729" d="M590 0 L531 145 L198 145 L139 0 L17 0 L309 735 L419 735 L712 0 L590 0 Z M365 578 L235 245 L495 245 L365 578 Z M377 790 L348 819 L457 961 Q469 977 489 978 Q509 979 523 965 Q537 951 536 930.5 Q535 910 520 899 L377 790 Z " />
<glyph glyph-name="Abreve" unicode="&#x102;" horiz-adv-x="729" d="M590 0 L531 145 L198 145 L139 0 L17 0 L309 735 L419 735 L712 0 L590 0 Z M365 578 L235 245 L495 245 L365 578 Z M248 919 L315 919 L315 899 Q315 878 329.5 864 Q344 850 365 850 Q385 850 399.5 864 Q414 878 414 899 L414 919 L482 919 L482 904 Q482 880 473 858.5 Q464 837 448 821 Q432 805 410.5 796 Q389 787 365 787 Q341 787 319.5 796 Q298 805 282 821 Q266 837 257 858.5 Q248 880 248 904 L248 919 Z " />
<glyph glyph-name="Acircumflex" unicode="&#xc2;" horiz-adv-x="729" d="M590 0 L531 145 L198 145 L139 0 L17 0 L309 735 L419 735 L712 0 L590 0 Z M365 578 L235 245 L495 245 L365 578 Z M363 883 L269 787 L229 827 L365 963 L501 827 L461 787 L363 883 Z " />
<glyph glyph-name="Agrave" unicode="&#xc0;" horiz-adv-x="729" d="M590 0 L531 145 L198 145 L139 0 L17 0 L309 735 L419 735 L712 0 L590 0 Z M365 578 L235 245 L495 245 L365 578 Z M210 899 Q194 910 193 930.5 Q192 951 206 965 Q220 979 240.5 978 Q261 977 272 961 L381 819 L352 790 L210 899 Z " />
<glyph glyph-name="Adieresis" unicode="&#xc4;" horiz-adv-x="729" d="M590 0 L531 145 L198 145 L139 0 L17 0 L309 735 L419 735 L712 0 L590 0 Z M365 578 L235 245 L495 245 L365 578 Z M184 886 Q184 918 206.5 940.5 Q229 963 261 963 Q293 963 315 940.5 Q337 918 337 886 Q337 854 315 831.5 Q293 809 261 809 Q229 809 206.5 831.5 Q184 854 184 886 Z M392 886 Q392 918 414.5 940.5 Q437 963 469 963 Q501 963 523 940.5 Q545 918 545 886 Q545 854 523 831.5 Q501 809 469 809 Q437 809 414.5 831.5 Q392 854 392 886 Z " />
<glyph glyph-name="Amacron" unicode="&#x100;" horiz-adv-x="729" d="M590 0 L531 145 L198 145 L139 0 L17 0 L309 735 L419 735 L712 0 L590 0 Z M365 578 L235 245 L495 245 L365 578 Z M518 810 L212 810 L212 877 L518 877 L518 810 Z " />
<glyph glyph-name="Aogonek" unicode="&#x104;" horiz-adv-x="729" d="M467 -68 Q467 -21 495.5 12.5 Q524 46 568 54 L531 145 L198 145 L139 0 L17 0 L309 735 L419 735 L712 0 L590 0 Q562 0 542.5 -20 Q523 -40 523 -68 Q523 -97 542.5 -116 Q562 -135 590 -135 Q618 -135 637.5 -116 Q657 -97 657 -68 L713 -68 Q713 -94 703.5 -116.5 Q694 -139 677 -156 Q660 -173 637.5 -182.5 Q615 -192 590 -192 Q564 -192 542 -182.5 Q520 -173 503 -156 Q486 -139 476.5 -116.5 Q467 -94 467 -68 Z M365 578 L235 245 L495 245 L365 578 Z " />
<glyph glyph-name="Aring" unicode="&#xc5;" horiz-adv-x="729" d="M590 0 L531 145 L198 145 L139 0 L17 0 L309 735 L419 735 L712 0 L590 0 Z M365 578 L235 245 L495 245 L365 578 Z M269 895 Q269 935 297 963 Q325 991 365 991 Q405 991 433 963 Q461 935 461 895 Q461 855 433 827 Q405 799 365 799 Q325 799 297 827 Q269 855 269 895 Z M325 895 Q325 878 336.5 866.5 Q348 855 365 855 Q382 855 393 866.5 Q404 878 404 895 Q404 912 393 923.5 Q382 935 365 935 Q348 935 336.5 923.5 Q325 912 325 895 Z " />
<glyph glyph-name="Atilde" unicode="&#xc3;" horiz-adv-x="729" d="M590 0 L531 145 L198 145 L139 0 L17 0 L309 735 L419 735 L712 0 L590 0 Z M365 578 L235 245 L495 245 L365 578 Z M424 931 Q446 931 464.5 922.5 Q483 914 496 900 Q509 886 516 867.5 Q523 849 523 828 L462 828 Q462 849 451.5 861.5 Q441 874 424 874 Q410 874 399 865 Q388 856 375 844.5 Q362 833 346 824 Q330 815 305 815 Q282 815 263.5 823 Q245 831 232.5 845 Q220 859 213 877.5 Q206 896 206 917 L267 917 Q267 896 277 883.5 Q287 871 305 871 Q318 871 329 880.5 Q340 890 353 901 Q366 912 382.5 921.5 Q399 931 424 931 Z " />
<glyph glyph-name="AEacute" unicode="&#x1fc;" horiz-adv-x="888" d="M839 635 L520 635 L520 420 L839 420 L839 320 L520 320 L520 100 L839 100 L839 0 L401 0 L401 145 L199 145 Q184 110 168.5 72.5 Q153 35 138 0 L17 0 L314 735 L839 735 L839 635 Z M401 245 L401 635 L388 635 L236 245 L401 245 Z M456 790 L427 819 L536 961 Q548 977 568.5 978 Q589 979 603 965 Q616 951 615 930.5 Q614 910 599 899 L456 790 Z " />
<glyph glyph-name="Cacute" unicode="&#x106;" horiz-adv-x="723" d="M161 367 Q161 310 182 261 Q203 212 239 176 Q275 140 324 119.5 Q373 99 429 99 Q483 99 530.5 121 Q578 143 616 179 L691 99 Q641 48 573 18.5 Q505 -11 424 -11 Q344 -11 275 18.5 Q206 48 155 99 Q104 150 75 219 Q46 288 46 367 Q46 447 75 516.5 Q104 586 154.5 637 Q205 688 274 717 Q343 746 424 746 Q505 746 572.5 716.5 Q640 687 691 636 L615 556 Q579 591 531 613 Q483 635 429 635 Q371 635 322 614.5 Q273 594 237 558 Q201 522 181 473 Q161 424 161 367 Z M374 790 L345 819 L454 961 Q465 977 485.5 978 Q506 979 520 965 Q534 951 533 930.5 Q532 910 516 899 L374 790 Z " />
<glyph glyph-name="Ccaron" unicode="&#x10c;" horiz-adv-x="723" d="M161 367 Q161 310 182 261 Q203 212 239 176 Q275 140 324 119.5 Q373 99 429 99 Q483 99 530.5 121 Q578 143 616 179 L691 99 Q641 48 573 18.5 Q505 -11 424 -11 Q344 -11 275 18.5 Q206 48 155 99 Q104 150 75 219 Q46 288 46 367 Q46 447 75 516.5 Q104 586 154.5 637 Q205 688 274 717 Q343 746 424 746 Q505 746 572.5 716.5 Q640 687 691 636 L615 556 Q579 591 531 613 Q483 635 429 635 Q371 635 322 614.5 Q273 594 237 558 Q201 522 181 473 Q161 424 161 367 Z M415 867 L509 963 L549 923 L413 787 L277 923 L317 963 L415 867 Z " />
<glyph glyph-name="Ccedilla" unicode="&#xc7;" horiz-adv-x="723" d="M161 367 Q161 310 182 261 Q203 212 239 176 Q275 140 324 119.5 Q373 99 429 99 Q483 99 530.5 121 Q578 143 616 179 L691 99 Q645 51 582.5 22.5 Q520 -6 446 -10 L446 -48 Q475 -56 495 -81.5 Q515 -107 515 -140 Q515 -181 486.5 -208.5 Q458 -236 418 -236 Q398 -236 381 -228.5 Q364 -221 350 -208 L391 -169 Q402 -180 418 -180 Q435 -180 446.5 -168.5 Q458 -157 458 -140 Q458 -123 446.5 -111.5 Q435 -100 418 -100 Q401 -100 390 -111 L350 -72 Q358 -64 368 -57.5 Q378 -51 390 -48 L390 -9 Q316 -3 253.5 28.5 Q191 60 144.5 110 Q98 160 72 226 Q46 292 46 367 Q46 447 75 516.5 Q104 586 154.5 637 Q205 688 274 717 Q343 746 424 746 Q505 746 572.5 716.5 Q640 687 691 636 L615 556 Q579 591 531 613 Q483 635 429 635 Q371 635 322 614.5 Q273 594 237 558 Q201 522 181 473 Q161 424 161 367 Z " />
<glyph glyph-name="Ccircumflex" unicode="&#x108;" horiz-adv-x="723" d="M161 367 Q161 310 182 261 Q203 212 239 176 Q275 140 324 119.5 Q373 99 429 99 Q483 99 530.5 121 Q578 143 616 179 L691 99 Q641 48 573 18.5 Q505 -11 424 -11 Q344 -11 275 18.5 Q206 48 155 99 Q104 150 75 219 Q46 288 46 367 Q46 447 75 516.5 Q104 586 154.5 637 Q205 688 274 717 Q343 746 424 746 Q505 746 572.5 716.5 Q640 687 691 636 L615 556 Q579 591 531 613 Q483 635 429 635 Q371 635 322 614.5 Q273 594 237 558 Q201 522 181 473 Q161 424 161 367 Z M420 883 L325 787 L285 827 L421 963 L557 827 L517 787 L420 883 Z " />
<glyph glyph-name="Cdotaccent" unicode="&#x10a;" horiz-adv-x="723" d="M161 367 Q161 310 182 261 Q203 212 239 176 Q275 140 324 119.5 Q373 99 429 99 Q483 99 530.5 121 Q578 143 616 179 L691 99 Q641 48 573 18.5 Q505 -11 424 -11 Q344 -11 275 18.5 Q206 48 155 99 Q104 150 75 219 Q46 288 46 367 Q46 447 75 516.5 Q104 586 154.5 637 Q205 688 274 717 Q343 746 424 746 Q505 746 572.5 716.5 Q640 687 691 636 L615 556 Q579 591 531 613 Q483 635 429 635 Q371 635 322 614.5 Q273 594 237 558 Q201 522 181 473 Q161 424 161 367 Z M345 886 Q345 918 367 940.5 Q389 963 421 963 Q453 963 475.5 940.5 Q498 918 498 886 Q498 854 475.5 831.5 Q453 809 421 809 Q389 809 367 831.5 Q345 854 345 886 Z " />
<glyph glyph-name="Dcaron" unicode="&#x10e;" horiz-adv-x="699" d="M90 0 L90 735 L298 735 Q374 735 440.5 706 Q507 677 557 627 Q607 577 636 510.5 Q665 444 665 368 Q665 292 636 225 Q607 158 557 108 Q507 58 440.5 29 Q374 0 298 0 L90 0 Z M206 627 L206 108 L292 108 Q347 108 394.5 128 Q442 148 476.5 183 Q511 218 531 265.5 Q551 313 551 368 Q551 423 531 470.5 Q511 518 476 552.5 Q441 587 393.5 607 Q346 627 292 627 L206 627 Z M290 867 L385 963 L425 923 L289 787 L153 923 L193 963 L290 867 Z " />
<glyph glyph-name="Eacute" unicode="&#xc9;" horiz-adv-x="585" d="M90 735 L536 735 L536 635 L210 635 L210 421 L500 421 L500 322 L210 322 L210 100 L536 100 L536 0 L90 0 L90 735 Z M287 790 L258 819 L367 961 Q378 977 398.5 978 Q419 979 433 965 Q447 951 446 930.5 Q445 910 429 899 L287 790 Z " />
<glyph glyph-name="Ebreve" unicode="&#x114;" horiz-adv-x="585" d="M90 735 L536 735 L536 635 L210 635 L210 421 L500 421 L500 322 L210 322 L210 100 L536 100 L536 0 L90 0 L90 735 Z M197 919 L265 919 L265 899 Q265 878 279 864 Q293 850 314 850 Q335 850 349.5 864 Q364 878 364 899 L364 919 L431 919 L431 904 Q431 880 422 858.5 Q413 837 397 821 Q381 805 359.5 796 Q338 787 314 787 Q290 787 268.5 796 Q247 805 231 821 Q215 837 206 858.5 Q197 880 197 904 L197 919 Z " />
<glyph glyph-name="Ecaron" unicode="&#x11a;" horiz-adv-x="585" d="M90 735 L536 735 L536 635 L210 635 L210 421 L500 421 L500 322 L210 322 L210 100 L536 100 L536 0 L90 0 L90 735 Z M313 867 L408 963 L448 923 L312 787 L176 923 L216 963 L313 867 Z " />
<glyph glyph-name="Ecircumflex" unicode="&#xca;" horiz-adv-x="585" d="M90 735 L536 735 L536 635 L210 635 L210 421 L500 421 L500 322 L210 322 L210 100 L536 100 L536 0 L90 0 L90 735 Z M311 883 L216 787 L176 827 L312 963 L448 827 L408 787 L311 883 Z " />
<glyph glyph-name="Edieresis" unicode="&#xcb;" horiz-adv-x="585" d="M90 735 L536 735 L536 635 L210 635 L210 421 L500 421 L500 322 L210 322 L210 100 L536 100 L536 0 L90 0 L90 735 Z M132 886 Q132 918 154 940.5 Q176 963 208 963 Q240 963 262.5 940.5 Q285 918 285 886 Q285 854 262.5 831.5 Q240 809 208 809 Q176 809 154 831.5 Q132 854 132 886 Z M340 886 Q340 918 362 940.5 Q384 963 416 963 Q448 963 470.5 940.5 Q493 918 493 886 Q493 854 470.5 831.5 Q448 809 416 809 Q384 809 362 831.5 Q340 854 340 886 Z " />
<glyph glyph-name="Edotaccent" unicode="&#x116;" horiz-adv-x="585" d="M90 735 L536 735 L536 635 L210 635 L210 421 L500 421 L500 322 L210 322 L210 100 L536 100 L536 0 L90 0 L90 735 Z M236 886 Q236 918 258 940.5 Q280 963 312 963 Q344 963 366.5 940.5 Q389 918 389 886 Q389 854 366.5 831.5 Q344 809 312 809 Q280 809 258 831.5 Q236 854 236 886 Z " />
<glyph glyph-name="Egrave" unicode="&#xc8;" horiz-adv-x="585" d="M90 735 L536 735 L536 635 L210 635 L210 421 L500 421 L500 322 L210 322 L210 100 L536 100 L536 0 L90 0 L90 735 Z M167 899 Q152 910 151 930.5 Q150 951 163 965 Q177 979 197.5 978 Q218 977 230 961 L339 819 L310 790 L167 899 Z " />
<glyph glyph-name="Emacron" unicode="&#x112;" horiz-adv-x="585" d="M90 735 L536 735 L536 635 L210 635 L210 421 L500 421 L500 322 L210 322 L210 100 L536 100 L536 0 L90 0 L90 735 Z M457 810 L151 810 L151 877 L457 877 L457 810 Z " />
<glyph glyph-name="Eogonek" unicode="&#x118;" horiz-adv-x="585" d="M290 -68 Q290 -29 310 0 L90 0 L90 735 L536 735 L536 635 L210 635 L210 421 L500 421 L500 322 L210 322 L210 100 L415 100 L416 100 L536 100 L536 0 L413 0 Q385 0 365.5 -20 Q346 -40 346 -68 Q346 -97 365.5 -116 Q385 -135 413 -135 Q440 -135 460 -116 Q480 -97 480 -68 L536 -68 Q536 -94 526.5 -116.5 Q517 -139 500 -156 Q483 -173 460.5 -182.5 Q438 -192 413 -192 Q387 -192 365 -182.5 Q343 -173 326 -156 Q309 -139 299.5 -116.5 Q290 -94 290 -68 Z " />
<glyph glyph-name="Gbreve" unicode="&#x11e;" horiz-adv-x="841" d="M157 368 Q157 312 178 263 Q199 214 235.5 178 Q272 142 321 121 Q370 100 425 100 Q477 100 521.5 114.5 Q566 129 599.5 156.5 Q633 184 654 224 Q675 264 679 315 L438 315 L438 421 L790 421 Q792 407 793 394 Q794 381 794 367 Q794 278 765 208 Q736 138 686 89.5 Q636 41 569 15 Q502 -11 425 -11 Q345 -11 276 18.5 Q207 48 156 99.5 Q105 151 75.5 220 Q46 289 46 368 Q46 448 74.5 516 Q103 584 153.5 633.5 Q204 683 273.5 710.5 Q343 738 425 738 Q502 738 569 710.5 Q636 683 687 634 L610 560 Q574 594 527.5 613.5 Q481 633 425 633 Q366 633 317 613 Q268 593 232.5 558 Q197 523 177 474.5 Q157 426 157 368 Z M304 919 L371 919 L371 899 Q371 878 385.5 864 Q400 850 421 850 Q441 850 455.5 864 Q470 878 470 899 L470 919 L538 919 L538 904 Q538 880 529 858.5 Q520 837 504 821 Q488 805 466.5 796 Q445 787 421 787 Q397 787 375.5 796 Q354 805 338 821 Q322 837 313 858.5 Q304 880 304 904 L304 919 Z " />
<glyph glyph-name="Gcircumflex" unicode="&#x11c;" horiz-adv-x="841" d="M157 368 Q157 312 178 263 Q199 214 235.5 178 Q272 142 321 121 Q370 100 425 100 Q477 100 521.5 114.5 Q566 129 599.5 156.5 Q633 184 654 224 Q675 264 679 315 L438 315 L438 421 L790 421 Q792 407 793 394 Q794 381 794 367 Q794 278 765 208 Q736 138 686 89.5 Q636 41 569 15 Q502 -11 425 -11 Q345 -11 276 18.5 Q207 48 156 99.5 Q105 151 75.5 220 Q46 289 46 368 Q46 448 74.5 516 Q103 584 153.5 633.5 Q204 683 273.5 710.5 Q343 738 425 738 Q502 738 569 710.5 Q636 683 687 634 L610 560 Q574 594 527.5 613.5 Q481 633 425 633 Q366 633 317 613 Q268 593 232.5 558 Q197 523 177 474.5 Q157 426 157 368 Z M419 883 L325 787 L285 827 L421 963 L557 827 L517 787 L419 883 Z " />
<glyph glyph-name="Gdotaccent" unicode="&#x120;" horiz-adv-x="841" d="M157 368 Q157 312 178 263 Q199 214 235.5 178 Q272 142 321 121 Q370 100 425 100 Q477 100 521.5 114.5 Q566 129 599.5 156.5 Q633 184 654 224 Q675 264 679 315 L438 315 L438 421 L790 421 Q792 407 793 394 Q794 381 794 367 Q794 278 765 208 Q736 138 686 89.5 Q636 41 569 15 Q502 -11 425 -11 Q345 -11 276 18.5 Q207 48 156 99.5 Q105 151 75.5 220 Q46 289 46 368 Q46 448 74.5 516 Q103 584 153.5 633.5 Q204 683 273.5 710.5 Q343 738 425 738 Q502 738 569 710.5 Q636 683 687 634 L610 560 Q574 594 527.5 613.5 Q481 633 425 633 Q366 633 317 613 Q268 593 232.5 558 Q197 523 177 474.5 Q157 426 157 368 Z M344 886 Q344 918 366.5 940.5 Q389 963 421 963 Q453 963 475 940.5 Q497 918 497 886 Q497 854 475 831.5 Q453 809 421 809 Q389 809 366.5 831.5 Q344 854 344 886 Z " />
<glyph glyph-name="Gcommaaccent" unicode="&#x122;" horiz-adv-x="841" d="M157 368 Q157 312 178 263 Q199 214 235.5 178 Q272 142 321 121 Q370 100 425 100 Q477 100 521.5 114.5 Q566 129 599.5 156.5 Q633 184 654 224 Q675 264 679 315 L438 315 L438 421 L790 421 Q792 407 793 394 Q794 381 794 367 Q794 278 765 208 Q736 138 686 89.5 Q636 41 569 15 Q502 -11 425 -11 Q345 -11 276 18.5 Q207 48 156 99.5 Q105 151 75.5 220 Q46 289 46 368 Q46 448 74.5 516 Q103 584 153.5 633.5 Q204 683 273.5 710.5 Q343 738 425 738 Q502 738 569 710.5 Q636 683 687 634 L610 560 Q574 594 527.5 613.5 Q481 633 425 633 Q366 633 317 613 Q268 593 232.5 558 Q197 523 177 474.5 Q157 426 157 368 Z M375 -233 L407 -166 Q389 -162 377 -148.5 Q365 -135 365 -116 Q365 -94 380 -79 Q395 -64 416 -64 Q430 -64 441.5 -71 Q453 -78 459 -89 Q465 -100 466 -114 Q467 -128 460 -142 L409 -250 L375 -233 Z " />
<glyph glyph-name="Hbar" unicode="&#x126;" horiz-adv-x="774" d="M761 518 L692 518 L692 0 L572 0 L572 322 L202 322 L202 0 L82 0 L82 518 L14 518 L14 585 L82 585 L82 734 L202 734 L202 585 L572 585 L572 735 L692 735 L692 585 L761 585 L761 518 Z M572 421 L572 518 L202 518 L202 421 L572 421 Z " />
<glyph glyph-name="Hcircumflex" unicode="&#x124;" horiz-adv-x="774" d="M82 0 L82 734 L202 734 L202 421 L572 421 L572 735 L692 735 L692 0 L572 0 L572 322 L202 322 L202 0 L82 0 Z M385 883 L290 787 L250 827 L386 963 L522 827 L482 787 L385 883 Z " />
<glyph glyph-name="Iacute" unicode="&#xcd;" horiz-adv-x="489" d="M54 635 L54 735 L435 735 L435 635 L305 635 L305 100 L435 100 L435 0 L54 0 L54 100 L185 100 L185 635 L54 635 Z M247 790 L218 819 L327 961 Q339 977 359 978 Q379 979 393 965 Q407 951 406 930.5 Q405 910 390 899 L247 790 Z " />
<glyph glyph-name="Ibreve" unicode="&#x12c;" horiz-adv-x="489" d="M54 635 L54 735 L435 735 L435 635 L305 635 L305 100 L435 100 L435 0 L54 0 L54 100 L185 100 L185 635 L54 635 Z M128 919 L195 919 L195 899 Q195 878 209.5 864 Q224 850 245 850 Q265 850 279.5 864 Q294 878 294 899 L294 919 L362 919 L362 904 Q362 880 353 858.5 Q344 837 328 821 Q312 805 290.5 796 Q269 787 245 787 Q221 787 199.5 796 Q178 805 162 821 Q146 837 137 858.5 Q128 880 128 904 L128 919 Z " />
<glyph glyph-name="Icircumflex" unicode="&#xce;" horiz-adv-x="489" d="M54 635 L54 735 L435 735 L435 635 L305 635 L305 100 L435 100 L435 0 L54 0 L54 100 L185 100 L185 635 L54 635 Z M243 883 L149 787 L109 827 L245 963 L381 827 L341 787 L243 883 Z " />
<glyph glyph-name="Idieresis" unicode="&#xcf;" horiz-adv-x="489" d="M54 635 L54 735 L435 735 L435 635 L305 635 L305 100 L435 100 L435 0 L54 0 L54 100 L185 100 L185 635 L54 635 Z M64 886 Q64 918 86.5 940.5 Q109 963 141 963 Q173 963 195 940.5 Q217 918 217 886 Q217 854 195 831.5 Q173 809 141 809 Q109 809 86.5 831.5 Q64 854 64 886 Z M272 886 Q272 918 294.5 940.5 Q317 963 349 963 Q381 963 403 940.5 Q425 918 425 886 Q425 854 403 831.5 Q381 809 349 809 Q317 809 294.5 831.5 Q272 854 272 886 Z " />
<glyph glyph-name="Idotaccent" unicode="&#x130;" horiz-adv-x="489" d="M54 635 L54 735 L435 735 L435 635 L305 635 L305 100 L435 100 L435 0 L54 0 L54 100 L185 100 L185 635 L54 635 Z M168 886 Q168 918 190.5 940.5 Q213 963 245 963 Q277 963 299 940.5 Q321 918 321 886 Q321 854 299 831.5 Q277 809 245 809 Q213 809 190.5 831.5 Q168 854 168 886 Z " />
<glyph glyph-name="Igrave" unicode="&#xcc;" horiz-adv-x="489" d="M54 635 L54 735 L435 735 L435 635 L305 635 L305 100 L435 100 L435 0 L54 0 L54 100 L185 100 L185 635 L54 635 Z M100 899 Q84 910 83 930.5 Q82 951 96 965 Q110 979 130.5 978 Q151 977 162 961 L271 819 L242 790 L100 899 Z " />
<glyph glyph-name="Imacron" unicode="&#x12a;" horiz-adv-x="489" d="M54 635 L54 735 L435 735 L435 635 L305 635 L305 100 L435 100 L435 0 L54 0 L54 100 L185 100 L185 635 L54 635 Z M398 810 L92 810 L92 877 L398 877 L398 810 Z " />
<glyph glyph-name="Iogonek" unicode="&#x12e;" horiz-adv-x="489" d="M189 -68 Q189 -48 194.5 -31 Q200 -14 210 0 L54 0 L54 100 L185 100 L185 635 L54 635 L54 735 L435 735 L435 635 L305 635 L305 100 L435 100 L435 0 L307 0 Q281 -2 263 -21.5 Q245 -41 245 -68 Q245 -97 264.5 -116 Q284 -135 312 -135 Q340 -135 359.5 -116 Q379 -97 379 -68 L435 -68 Q435 -94 425.5 -116.5 Q416 -139 399 -156 Q382 -173 359.5 -182.5 Q337 -192 312 -192 Q286 -192 264 -182.5 Q242 -173 225 -156 Q208 -139 198.5 -116.5 Q189 -94 189 -68 Z " />
<glyph glyph-name="Itilde" unicode="&#x128;" horiz-adv-x="489" d="M54 635 L54 735 L435 735 L435 635 L305 635 L305 100 L435 100 L435 0 L54 0 L54 100 L185 100 L185 635 L54 635 Z M304 931 Q326 931 344.5 922.5 Q363 914 376 900 Q389 886 396 867.5 Q403 849 403 828 L342 828 Q342 849 331.5 861.5 Q321 874 304 874 Q290 874 279 865 Q268 856 255.5 844.5 Q243 833 226.5 824 Q210 815 185 815 Q162 815 144 823 Q126 831 113 845 Q100 859 93 877.5 Q86 896 86 917 L147 917 Q147 896 157 883.5 Q167 871 185 871 Q199 871 210 880.5 Q221 890 233.5 901 Q246 912 262.5 921.5 Q279 931 304 931 Z " />
<glyph glyph-name="Jcircumflex" unicode="&#x134;" horiz-adv-x="497" d="M139 188 Q139 170 146 154.5 Q153 139 164.5 127.5 Q176 116 191.5 109 Q207 102 225 102 Q243 102 259 109 Q275 116 286.5 127.5 Q298 139 305 154.5 Q312 170 312 188 L312 735 L423 735 L423 188 Q423 147 407.5 111 Q392 75 365 48 Q338 21 302 5.5 Q266 -10 225 -10 Q184 -10 148 5.5 Q112 21 85 48 Q58 75 42.5 111 Q27 147 27 188 L139 188 Z M365 883 L270 787 L230 827 L366 963 L502 827 L462 787 L365 883 Z " />
<glyph glyph-name="Kcommaaccent" unicode="&#x136;" horiz-adv-x="713" d="M196 322 L196 0 L82 0 L82 735 L196 735 L196 421 L358 421 L540 735 L667 735 L458 374 L673 0 L546 0 L362 322 L196 322 Z M311 -233 L343 -166 Q325 -162 313 -148.5 Q301 -135 301 -116 Q301 -94 316 -79 Q331 -64 352 -64 Q366 -64 377.5 -71 Q389 -78 395 -89 Q401 -100 402 -114 Q403 -128 396 -142 L345 -250 L311 -233 Z " />
<glyph glyph-name="Lacute" unicode="&#x139;" horiz-adv-x="477" d="M457 0 L82 0 L82 735 L198 735 L198 100 L457 100 L457 0 Z M171 790 L142 819 L251 961 Q262 977 282.5 978 Q303 979 317 965 Q331 951 330 930.5 Q329 910 313 899 L171 790 Z " />
<glyph glyph-name="Lcaron" unicode="&#x13d;" horiz-adv-x="477" d="M457 1 L82 1 L82 736 L198 736 L198 101 L457 101 L457 1 Z M324 557 L369 653 Q343 658 325 679 Q307 700 307 729 Q307 761 329 783 Q351 805 383 805 Q405 805 421.5 794.5 Q438 784 447.5 767.5 Q457 751 458 730.5 Q459 710 449 689 L375 532 L324 557 Z " />
<glyph glyph-name="Lcommaaccent" unicode="&#x13b;" horiz-adv-x="477" d="M457 0 L82 0 L82 735 L198 735 L198 100 L457 100 L457 0 Z M225 -233 L257 -166 Q239 -162 227 -148.5 Q215 -135 215 -116 Q215 -94 230 -79 Q245 -64 266 -64 Q280 -64 291.5 -71 Q303 -78 309 -89 Q315 -100 316 -114 Q317 -128 310 -142 L259 -250 L225 -233 Z " />
<glyph glyph-name="Ldot" unicode="&#x13f;" horiz-adv-x="477" d="M457 0 L82 0 L82 735 L198 735 L198 100 L457 100 L457 0 Z M284 367 Q284 399 306.5 421 Q329 443 361 443 Q393 443 415 421 Q437 399 437 367 Q437 335 415 312.5 Q393 290 361 290 Q329 290 306.5 312.5 Q284 335 284 367 Z " />
<glyph glyph-name="Lslash" unicode="&#x141;" horiz-adv-x="477" d="M457 0 L82 0 L82 295 L3 274 L-14 338 L82 363 L82 735 L198 735 L198 394 L289 419 L306 355 L198 326 L198 100 L457 100 L457 0 Z " />
<glyph glyph-name="Nacute" unicode="&#x143;" horiz-adv-x="801" d="M604 735 L719 735 L719 5 L707 -1 L197 487 L197 0 L82 0 L82 730 L93 735 L604 248 L604 735 Z M385 790 L355 819 L465 961 Q476 977 496.5 978 Q517 979 531 965 Q545 951 544 930.5 Q543 910 527 899 L385 790 Z " />
<glyph glyph-name="Ncaron" unicode="&#x147;" horiz-adv-x="801" d="M604 735 L719 735 L719 5 L707 -1 L197 487 L197 0 L82 0 L82 730 L93 735 L604 248 L604 735 Z M401 867 L496 963 L536 923 L400 787 L264 923 L304 963 L401 867 Z " />
<glyph glyph-name="Ncommaaccent" unicode="&#x145;" horiz-adv-x="801" d="M604 735 L719 735 L719 5 L707 -1 L197 487 L197 0 L82 0 L82 730 L93 735 L604 248 L604 735 Z M373 -233 L404 -166 Q386 -162 374.5 -148.5 Q363 -135 363 -116 Q363 -94 378 -79 Q393 -64 413 -64 Q427 -64 438.5 -71 Q450 -78 456.5 -89 Q463 -100 463.5 -114 Q464 -128 458 -142 L407 -250 L373 -233 Z " />
<glyph glyph-name="Ntilde" unicode="&#xd1;" horiz-adv-x="801" d="M604 735 L719 735 L719 5 L707 -1 L197 487 L197 0 L82 0 L82 730 L93 735 L604 248 L604 735 Z M460 931 Q482 931 500.5 922.5 Q519 914 531.5 900 Q544 886 551 867.5 Q558 849 558 828 L498 828 Q498 849 487.5 861.5 Q477 874 460 874 Q446 874 435 865 Q424 856 411 844.5 Q398 833 382 824 Q366 815 341 815 Q318 815 299.5 823 Q281 831 268 845 Q255 859 248.5 877.5 Q242 896 242 917 L303 917 Q303 896 312.5 883.5 Q322 871 341 871 Q354 871 365 880.5 Q376 890 389 901 Q402 912 418.5 921.5 Q435 931 460 931 Z " />
<glyph glyph-name="Oacute" unicode="&#xd3;" horiz-adv-x="853" d="M47 368 Q47 446 77 515 Q107 584 158.5 635.5 Q210 687 279 717 Q348 747 426 747 Q504 747 573.5 717 Q643 687 694.5 635.5 Q746 584 776 515 Q806 446 806 368 Q806 290 776 221 Q746 152 694.5 100.5 Q643 49 573.5 19 Q504 -11 426 -11 Q348 -11 279 19 Q210 49 158.5 100.5 Q107 152 77 221 Q47 290 47 368 Z M164 368 Q164 314 184.5 266.5 Q205 219 241 183 Q277 147 324.5 126.5 Q372 106 426 106 Q480 106 527.5 126.5 Q575 147 611 183 Q647 219 667.5 266.5 Q688 314 688 368 Q688 422 667.5 469.5 Q647 517 611 553 Q575 589 527.5 609.5 Q480 630 426 630 Q372 630 324.5 609.5 Q277 589 241 553 Q205 517 184.5 469.5 Q164 422 164 368 Z M429 790 L400 819 L509 961 Q520 977 540.5 978 Q561 979 575 965 Q589 951 588 930.5 Q587 910 571 899 L429 790 Z " />
<glyph glyph-name="Obreve" unicode="&#x14e;" horiz-adv-x="853" d="M47 368 Q47 446 77 515 Q107 584 158.5 635.5 Q210 687 279 717 Q348 747 426 747 Q504 747 573.5 717 Q643 687 694.5 635.5 Q746 584 776 515 Q806 446 806 368 Q806 290 776 221 Q746 152 694.5 100.5 Q643 49 573.5 19 Q504 -11 426 -11 Q348 -11 279 19 Q210 49 158.5 100.5 Q107 152 77 221 Q47 290 47 368 Z M164 368 Q164 314 184.5 266.5 Q205 219 241 183 Q277 147 324.5 126.5 Q372 106 426 106 Q480 106 527.5 126.5 Q575 147 611 183 Q647 219 667.5 266.5 Q688 314 688 368 Q688 422 667.5 469.5 Q647 517 611 553 Q575 589 527.5 609.5 Q480 630 426 630 Q372 630 324.5 609.5 Q277 589 241 553 Q205 517 184.5 469.5 Q164 422 164 368 Z M309 919 L377 919 L377 899 Q377 878 391 864 Q405 850 426 850 Q447 850 461.5 864 Q476 878 476 899 L476 919 L543 919 L543 904 Q543 880 534 858.5 Q525 837 509 821 Q493 805 471.5 796 Q450 787 426 787 Q402 787 380.5 796 Q359 805 343 821 Q327 837 318 858.5 Q309 880 309 904 L309 919 Z " />
<glyph glyph-name="Ocircumflex" unicode="&#xd4;" horiz-adv-x="853" d="M47 368 Q47 446 77 515 Q107 584 158.5 635.5 Q210 687 279 717 Q348 747 426 747 Q504 747 573.5 717 Q643 687 694.5 635.5 Q746 584 776 515 Q806 446 806 368 Q806 290 776 221 Q746 152 694.5 100.5 Q643 49 573.5 19 Q504 -11 426 -11 Q348 -11 279 19 Q210 49 158.5 100.5 Q107 152 77 221 Q47 290 47 368 Z M164 368 Q164 314 184.5 266.5 Q205 219 241 183 Q277 147 324.5 126.5 Q372 106 426 106 Q480 106 527.5 126.5 Q575 147 611 183 Q647 219 667.5 266.5 Q688 314 688 368 Q688 422 667.5 469.5 Q647 517 611 553 Q575 589 527.5 609.5 Q480 630 426 630 Q372 630 324.5 609.5 Q277 589 241 553 Q205 517 184.5 469.5 Q164 422 164 368 Z M425 883 L330 787 L290 827 L426 963 L562 827 L522 787 L425 883 Z " />
<glyph glyph-name="Odieresis" unicode="&#xd6;" horiz-adv-x="853" d="M47 368 Q47 446 77 515 Q107 584 158.5 635.5 Q210 687 279 717 Q348 747 426 747 Q504 747 573.5 717 Q643 687 694.5 635.5 Q746 584 776 515 Q806 446 806 368 Q806 290 776 221 Q746 152 694.5 100.5 Q643 49 573.5 19 Q504 -11 426 -11 Q348 -11 279 19 Q210 49 158.5 100.5 Q107 152 77 221 Q47 290 47 368 Z M164 368 Q164 314 184.5 266.5 Q205 219 241 183 Q277 147 324.5 126.5 Q372 106 426 106 Q480 106 527.5 126.5 Q575 147 611 183 Q647 219 667.5 266.5 Q688 314 688 368 Q688 422 667.5 469.5 Q647 517 611 553 Q575 589 527.5 609.5 Q480 630 426 630 Q372 630 324.5 609.5 Q277 589 241 553 Q205 517 184.5 469.5 Q164 422 164 368 Z M246 886 Q246 918 268 940.5 Q290 963 322 963 Q354 963 376.5 940.5 Q399 918 399 886 Q399 854 376.5 831.5 Q354 809 322 809 Q290 809 268 831.5 Q246 854 246 886 Z M454 886 Q454 918 476 940.5 Q498 963 530 963 Q562 963 584.5 940.5 Q607 918 607 886 Q607 854 584.5 831.5 Q562 809 530 809 Q498 809 476 831.5 Q454 854 454 886 Z " />
<glyph glyph-name="Ograve" unicode="&#xd2;" horiz-adv-x="853" d="M47 368 Q47 446 77 515 Q107 584 158.5 635.5 Q210 687 279 717 Q348 747 426 747 Q504 747 573.5 717 Q643 687 694.5 635.5 Q746 584 776 515 Q806 446 806 368 Q806 290 776 221 Q746 152 694.5 100.5 Q643 49 573.5 19 Q504 -11 426 -11 Q348 -11 279 19 Q210 49 158.5 100.5 Q107 152 77 221 Q47 290 47 368 Z M164 368 Q164 314 184.5 266.5 Q205 219 241 183 Q277 147 324.5 126.5 Q372 106 426 106 Q480 106 527.5 126.5 Q575 147 611 183 Q647 219 667.5 266.5 Q688 314 688 368 Q688 422 667.5 469.5 Q647 517 611 553 Q575 589 527.5 609.5 Q480 630 426 630 Q372 630 324.5 609.5 Q277 589 241 553 Q205 517 184.5 469.5 Q164 422 164 368 Z M281 899 Q266 910 265 930.5 Q264 951 277 965 Q291 979 311.5 978 Q332 977 344 961 L453 819 L424 790 L281 899 Z " />
<glyph glyph-name="Ohungarumlaut" unicode="&#x150;" horiz-adv-x="853" d="M47 368 Q47 446 77 515 Q107 584 158.5 635.5 Q210 687 279 717 Q348 747 426 747 Q504 747 573.5 717 Q643 687 694.5 635.5 Q746 584 776 515 Q806 446 806 368 Q806 290 776 221 Q746 152 694.5 100.5 Q643 49 573.5 19 Q504 -11 426 -11 Q348 -11 279 19 Q210 49 158.5 100.5 Q107 152 77 221 Q47 290 47 368 Z M164 368 Q164 314 184.5 266.5 Q205 219 241 183 Q277 147 324.5 126.5 Q372 106 426 106 Q480 106 527.5 126.5 Q575 147 611 183 Q647 219 667.5 266.5 Q688 314 688 368 Q688 422 667.5 469.5 Q647 517 611 553 Q575 589 527.5 609.5 Q480 630 426 630 Q372 630 324.5 609.5 Q277 589 241 553 Q205 517 184.5 469.5 Q164 422 164 368 Z M335 790 L306 819 L415 961 Q426 977 446.5 978 Q467 979 481 965 Q495 951 494 930.5 Q493 910 477 899 L335 790 Z M523 790 L494 819 L603 961 Q614 977 634.5 978 Q655 979 669 965 Q683 951 682 930.5 Q681 910 665 899 L523 790 Z " />
<glyph glyph-name="Omacron" unicode="&#x14c;" horiz-adv-x="853" d="M47 368 Q47 446 77 515 Q107 584 158.5 635.5 Q210 687 279 717 Q348 747 426 747 Q504 747 573.5 717 Q643 687 694.5 635.5 Q746 584 776 515 Q806 446 806 368 Q806 290 776 221 Q746 152 694.5 100.5 Q643 49 573.5 19 Q504 -11 426 -11 Q348 -11 279 19 Q210 49 158.5 100.5 Q107 152 77 221 Q47 290 47 368 Z M164 368 Q164 314 184.5 266.5 Q205 219 241 183 Q277 147 324.5 126.5 Q372 106 426 106 Q480 106 527.5 126.5 Q575 147 611 183 Q647 219 667.5 266.5 Q688 314 688 368 Q688 422 667.5 469.5 Q647 517 611 553 Q575 589 527.5 609.5 Q480 630 426 630 Q372 630 324.5 609.5 Q277 589 241 553 Q205 517 184.5 469.5 Q164 422 164 368 Z M579 810 L273 810 L273 877 L579 877 L579 810 Z " />
<glyph glyph-name="Oslashacute" unicode="&#x1fe;" horiz-adv-x="853" d="M46 368 Q46 446 76 515 Q106 584 157.5 635.5 Q209 687 278 717 Q347 747 425 747 Q489 747 546 727 Q603 707 651 671 L718 738 L794 662 L727 595 Q764 547 784.5 489.5 Q805 432 805 368 Q805 290 775 221 Q745 152 693.5 100.5 Q642 49 572.5 19 Q503 -11 425 -11 Q361 -11 303 9 Q245 29 197 65 L132 0 L56 76 L121 141 Q86 189 66 246.5 Q46 304 46 368 Z M425 106 Q479 106 526.5 126.5 Q574 147 610 183 Q646 219 666.5 266.5 Q687 314 687 368 Q687 408 675 444 Q663 480 643 511 L283 150 Q313 129 349 117.5 Q385 106 425 106 Z M163 368 Q163 328 174.5 292.5 Q186 257 206 226 L566 586 Q535 606 499.5 618 Q464 630 425 630 Q371 630 323.5 609.5 Q276 589 240 553 Q204 517 183.5 469.5 Q163 422 163 368 Z M429 790 L400 819 L509 961 Q520 977 540.5 978 Q561 979 575 965 Q589 951 588 930.5 Q587 910 571 899 L429 790 Z " />
<glyph glyph-name="Otilde" unicode="&#xd5;" horiz-adv-x="853" d="M47 368 Q47 446 77 515 Q107 584 158.5 635.5 Q210 687 279 717 Q348 747 426 747 Q504 747 573.5 717 Q643 687 694.5 635.5 Q746 584 776 515 Q806 446 806 368 Q806 290 776 221 Q746 152 694.5 100.5 Q643 49 573.5 19 Q504 -11 426 -11 Q348 -11 279 19 Q210 49 158.5 100.5 Q107 152 77 221 Q47 290 47 368 Z M164 368 Q164 314 184.5 266.5 Q205 219 241 183 Q277 147 324.5 126.5 Q372 106 426 106 Q480 106 527.5 126.5 Q575 147 611 183 Q647 219 667.5 266.5 Q688 314 688 368 Q688 422 667.5 469.5 Q647 517 611 553 Q575 589 527.5 609.5 Q480 630 426 630 Q372 630 324.5 609.5 Q277 589 241 553 Q205 517 184.5 469.5 Q164 422 164 368 Z M486 931 Q508 931 526.5 922.5 Q545 914 558 900 Q571 886 578 867.5 Q585 849 585 828 L524 828 Q524 849 513.5 861.5 Q503 874 486 874 Q472 874 461 865 Q450 856 437 844.5 Q424 833 408 824 Q392 815 367 815 Q344 815 325.5 823 Q307 831 294.5 845 Q282 859 275 877.5 Q268 896 268 917 L329 917 Q329 896 339 883.5 Q349 871 367 871 Q380 871 391 880.5 Q402 890 415 901 Q428 912 444.5 921.5 Q461 931 486 931 Z " />
<glyph glyph-name="Racute" unicode="&#x154;" horiz-adv-x="671" d="M197 0 L82 0 L82 735 L394 735 Q442 735 484 717 Q526 699 557.5 667.5 Q589 636 607 594 Q625 552 625 504 Q625 435 589.5 380.5 Q554 326 495 297 L617 0 L495 0 L382 274 L197 274 L197 0 Z M382 373 Q410 373 434 383.5 Q458 394 475.5 411.5 Q493 429 503 453 Q513 477 513 504 Q513 531 503 555 Q493 579 475 597 Q457 615 433 625 Q409 635 382 635 L197 635 L197 373 L382 373 Z M268 790 L238 819 L348 961 Q359 977 379.5 978 Q400 979 414 965 Q428 951 427 930.5 Q426 910 410 899 L268 790 Z " />
<glyph glyph-name="Rcaron" unicode="&#x158;" horiz-adv-x="671" d="M197 0 L82 0 L82 735 L394 735 Q442 735 484 717 Q526 699 557.5 667.5 Q589 636 607 594 Q625 552 625 504 Q625 435 589.5 380.5 Q554 326 495 297 L617 0 L495 0 L382 274 L197 274 L197 0 Z M382 373 Q410 373 434 383.5 Q458 394 475.5 411.5 Q493 429 503 453 Q513 477 513 504 Q513 531 503 555 Q493 579 475 597 Q457 615 433 625 Q409 635 382 635 L197 635 L197 373 L382 373 Z M336 867 L431 963 L471 923 L335 787 L199 923 L239 963 L336 867 Z " />
<glyph glyph-name="Rcommaaccent" unicode="&#x156;" horiz-adv-x="671" d="M197 0 L82 0 L82 735 L394 735 Q442 735 484 717 Q526 699 557.5 667.5 Q589 636 607 594 Q625 552 625 504 Q625 435 589.5 380.5 Q554 326 495 297 L617 0 L495 0 L382 274 L197 274 L197 0 Z M382 373 Q410 373 434 383.5 Q458 394 475.5 411.5 Q493 429 503 453 Q513 477 513 504 Q513 531 503 555 Q493 579 475 597 Q457 615 433 625 Q409 635 382 635 L197 635 L197 373 L382 373 Z M290 -233 L321 -166 Q303 -162 291.5 -148.5 Q280 -135 280 -116 Q280 -94 295 -79 Q310 -64 330 -64 Q344 -64 355.5 -71 Q367 -78 373.5 -89 Q380 -100 380.5 -114 Q381 -128 375 -142 L324 -250 L290 -233 Z " />
<glyph glyph-name="Sacute" unicode="&#x15a;" horiz-adv-x="607" d="M317 -16 Q272 -16 231.5 -6.5 Q191 3 157 19 Q123 35 96.5 56 Q70 77 53 101 L138 171 Q168 138 214.5 116.5 Q261 95 318 95 Q381 95 414 119.5 Q447 144 447 181 Q447 215 426 239 Q405 263 357 283 L220 343 Q131 381 91 432.5 Q51 484 51 553 Q51 596 69 632.5 Q87 669 119 695.5 Q151 722 196.5 737 Q242 752 298 752 Q361 752 408.5 732 Q456 712 488 680.5 Q520 649 536 608.5 Q552 568 552 528 L440 528 Q440 540 433 559.5 Q426 579 409.5 597.5 Q393 616 365.5 629.5 Q338 643 298 643 Q239 643 205 617.5 Q171 592 171 553 Q171 518 192.5 495.5 Q214 473 256 455 L396 393 Q484 355 525.5 304 Q567 253 567 181 Q567 132 547 95 Q527 58 492.5 33.5 Q458 9 413 -3.5 Q368 -16 317 -16 Z M296 790 L267 819 L376 961 Q387 977 407.5 978 Q428 979 442 965 Q456 951 455 930.5 Q454 910 438 899 L296 790 Z " />
<glyph glyph-name="Scaron" unicode="&#x160;" horiz-adv-x="607" d="M317 -16 Q272 -16 231.5 -6.5 Q191 3 157 19 Q123 35 96.5 56 Q70 77 53 101 L138 171 Q168 138 214.5 116.5 Q261 95 318 95 Q381 95 414 119.5 Q447 144 447 181 Q447 215 426 239 Q405 263 357 283 L220 343 Q131 381 91 432.5 Q51 484 51 553 Q51 596 69 632.5 Q87 669 119 695.5 Q151 722 196.5 737 Q242 752 298 752 Q361 752 408.5 732 Q456 712 488 680.5 Q520 649 536 608.5 Q552 568 552 528 L440 528 Q440 540 433 559.5 Q426 579 409.5 597.5 Q393 616 365.5 629.5 Q338 643 298 643 Q239 643 205 617.5 Q171 592 171 553 Q171 518 192.5 495.5 Q214 473 256 455 L396 393 Q484 355 525.5 304 Q567 253 567 181 Q567 132 547 95 Q527 58 492.5 33.5 Q458 9 413 -3.5 Q368 -16 317 -16 Z M305 867 L399 963 L439 923 L303 787 L167 923 L207 963 L305 867 Z " />
<glyph glyph-name="Scedilla" unicode="&#x15e;" horiz-adv-x="607" d="M413 -129 Q413 -169 385 -197 Q357 -225 317 -225 Q297 -225 280 -217.5 Q263 -210 249 -197 L289 -158 Q295 -163 302 -166 Q309 -169 317 -169 Q334 -169 345.5 -157.5 Q357 -146 357 -129 Q357 -112 345.5 -100.5 Q334 -89 317 -89 Q299 -89 288 -100 L249 -61 Q264 -43 289 -37 L289 -14 Q249 -11 213 -1 Q177 9 146.5 24 Q116 39 92.5 59 Q69 79 53 101 L138 171 Q168 138 214.5 116.5 Q261 95 318 95 Q381 95 414 119.5 Q447 144 447 181 Q447 215 426 239 Q405 263 357 283 L220 343 Q131 381 91 432.5 Q51 484 51 553 Q51 596 69 632.5 Q87 669 119 695.5 Q151 722 196.5 737 Q242 752 298 752 Q361 752 408.5 732 Q456 712 488 680.5 Q520 649 536 608.5 Q552 568 552 528 L440 528 Q440 540 433 559.5 Q426 579 409.5 597.5 Q393 616 365.5 629.5 Q338 643 298 643 Q239 643 205 617.5 Q171 592 171 553 Q171 518 192.5 495.5 Q214 473 256 455 L396 393 Q484 355 525.5 304 Q567 253 567 181 Q567 135 549.5 100 Q532 65 502 40.5 Q472 16 431.5 2 Q391 -12 345 -15 L345 -37 Q374 -45 393.5 -70 Q413 -95 413 -129 Z " />
<glyph glyph-name="Scircumflex" unicode="&#x15c;" horiz-adv-x="607" d="M317 -16 Q272 -16 231.5 -6.5 Q191 3 157 19 Q123 35 96.5 56 Q70 77 53 101 L138 171 Q168 138 214.5 116.5 Q261 95 318 95 Q381 95 414 119.5 Q447 144 447 181 Q447 215 426 239 Q405 263 357 283 L220 343 Q131 381 91 432.5 Q51 484 51 553 Q51 596 69 632.5 Q87 669 119 695.5 Q151 722 196.5 737 Q242 752 298 752 Q361 752 408.5 732 Q456 712 488 680.5 Q520 649 536 608.5 Q552 568 552 528 L440 528 Q440 540 433 559.5 Q426 579 409.5 597.5 Q393 616 365.5 629.5 Q338 643 298 643 Q239 643 205 617.5 Q171 592 171 553 Q171 518 192.5 495.5 Q214 473 256 455 L396 393 Q484 355 525.5 304 Q567 253 567 181 Q567 132 547 95 Q527 58 492.5 33.5 Q458 9 413 -3.5 Q368 -16 317 -16 Z M302 883 L207 787 L167 827 L303 963 L439 827 L399 787 L302 883 Z " />
<glyph glyph-name="Scommaaccent" unicode="&#x218;" horiz-adv-x="607" d="M317 -16 Q272 -16 231.5 -6.5 Q191 3 157 19 Q123 35 96.5 56 Q70 77 53 101 L138 171 Q168 138 214.5 116.5 Q261 95 318 95 Q381 95 414 119.5 Q447 144 447 181 Q447 215 426 239 Q405 263 357 283 L220 343 Q131 381 91 432.5 Q51 484 51 553 Q51 596 69 632.5 Q87 669 119 695.5 Q151 722 196.5 737 Q242 752 298 752 Q361 752 408.5 732 Q456 712 488 680.5 Q520 649 536 608.5 Q552 568 552 528 L440 528 Q440 540 433 559.5 Q426 579 409.5 597.5 Q393 616 365.5 629.5 Q338 643 298 643 Q239 643 205 617.5 Q171 592 171 553 Q171 518 192.5 495.5 Q214 473 256 455 L396 393 Q484 355 525.5 304 Q567 253 567 181 Q567 132 547 95 Q527 58 492.5 33.5 Q458 9 413 -3.5 Q368 -16 317 -16 Z M264 -233 L295 -166 Q277 -162 265.5 -148.5 Q254 -135 254 -116 Q254 -94 269 -79 Q284 -64 304 -64 Q318 -64 329.5 -71 Q341 -78 347.5 -89 Q354 -100 354.5 -114 Q355 -128 349 -142 L298 -250 L264 -233 Z " />
<glyph glyph-name="Tbar" unicode="&#x166;" horiz-adv-x="551" d="M534 734 L534 635 L333 635 L333 488 L420 511 L437 448 L333 420 L333 0 L218 0 L218 389 L134 367 L117 430 L218 457 L218 635 L18 635 L18 734 L534 734 Z " />
<glyph glyph-name="Tcaron" unicode="&#x164;" horiz-adv-x="551" d="M534 734 L534 635 L333 635 L333 0 L218 0 L218 635 L18 635 L18 734 L534 734 Z M277 867 L372 963 L412 923 L276 787 L140 923 L180 963 L277 867 Z " />
<glyph glyph-name="Tcommaaccent" unicode="&#x162;" horiz-adv-x="551" d="M534 734 L534 635 L333 635 L333 0 L218 0 L218 635 L18 635 L18 734 L534 734 Z M230 -233 L262 -166 Q244 -162 232 -148.5 Q220 -135 220 -116 Q220 -94 235 -79 Q250 -64 271 -64 Q285 -64 296.5 -71 Q308 -78 314 -89 Q320 -100 321 -114 Q322 -128 315 -142 L264 -250 L230 -233 Z " />
<glyph glyph-name="Uacute" unicode="&#xda;" horiz-adv-x="762" d="M171 315 Q171 268 187.5 228.5 Q204 189 232.5 160.5 Q261 132 299 116 Q337 100 381 100 Q425 100 463 116 Q501 132 529.5 160.5 Q558 189 574.5 228.5 Q591 268 591 315 L591 735 L707 735 L707 315 Q707 247 681.5 187.5 Q656 128 612 84 Q568 40 508.5 14.5 Q449 -11 381 -11 Q313 -11 253.5 14.5 Q194 40 150 84 Q106 128 80.5 187.5 Q55 247 55 315 L55 735 L171 735 L171 315 Z M374 790 L344 819 L454 961 Q465 977 485.5 978 Q506 979 520 965 Q534 951 533 930.5 Q532 910 516 899 L374 790 Z " />
<glyph glyph-name="Ubreve" unicode="&#x16c;" horiz-adv-x="762" d="M171 315 Q171 268 187.5 228.5 Q204 189 232.5 160.5 Q261 132 299 116 Q337 100 381 100 Q425 100 463 116 Q501 132 529.5 160.5 Q558 189 574.5 228.5 Q591 268 591 315 L591 735 L707 735 L707 315 Q707 247 681.5 187.5 Q656 128 612 84 Q568 40 508.5 14.5 Q449 -11 381 -11 Q313 -11 253.5 14.5 Q194 40 150 84 Q106 128 80.5 187.5 Q55 247 55 315 L55 735 L171 735 L171 315 Z M264 919 L332 919 L332 899 Q332 878 346 864 Q360 850 381 850 Q402 850 416 864 Q430 878 430 899 L430 919 L498 919 L498 904 Q498 880 489 858.5 Q480 837 464 821 Q448 805 426.5 796 Q405 787 381 787 Q357 787 335.5 796 Q314 805 298 821 Q282 837 273 858.5 Q264 880 264 904 L264 919 Z " />
<glyph glyph-name="Ucircumflex" unicode="&#xdb;" horiz-adv-x="762" d="M171 315 Q171 268 187.5 228.5 Q204 189 232.5 160.5 Q261 132 299 116 Q337 100 381 100 Q425 100 463 116 Q501 132 529.5 160.5 Q558 189 574.5 228.5 Q591 268 591 315 L591 735 L707 735 L707 315 Q707 247 681.5 187.5 Q656 128 612 84 Q568 40 508.5 14.5 Q449 -11 381 -11 Q313 -11 253.5 14.5 Q194 40 150 84 Q106 128 80.5 187.5 Q55 247 55 315 L55 735 L171 735 L171 315 Z M380 883 L285 787 L245 827 L381 963 L517 827 L477 787 L380 883 Z " />
<glyph glyph-name="Udieresis" unicode="&#xdc;" horiz-adv-x="762" d="M171 315 Q171 268 187.5 228.5 Q204 189 232.5 160.5 Q261 132 299 116 Q337 100 381 100 Q425 100 463 116 Q501 132 529.5 160.5 Q558 189 574.5 228.5 Q591 268 591 315 L591 735 L707 735 L707 315 Q707 247 681.5 187.5 Q656 128 612 84 Q568 40 508.5 14.5 Q449 -11 381 -11 Q313 -11 253.5 14.5 Q194 40 150 84 Q106 128 80.5 187.5 Q55 247 55 315 L55 735 L171 735 L171 315 Z M200 886 Q200 918 222.5 940.5 Q245 963 277 963 Q309 963 331.5 940.5 Q354 918 354 886 Q354 854 331.5 831.5 Q309 809 277 809 Q245 809 222.5 831.5 Q200 854 200 886 Z M408 886 Q408 918 430.5 940.5 Q453 963 485 963 Q517 963 539.5 940.5 Q562 918 562 886 Q562 854 539.5 831.5 Q517 809 485 809 Q453 809 430.5 831.5 Q408 854 408 886 Z " />
<glyph glyph-name="Ugrave" unicode="&#xd9;" horiz-adv-x="762" d="M171 315 Q171 268 187.5 228.5 Q204 189 232.5 160.5 Q261 132 299 116 Q337 100 381 100 Q425 100 463 116 Q501 132 529.5 160.5 Q558 189 574.5 228.5 Q591 268 591 315 L591 735 L707 735 L707 315 Q707 247 681.5 187.5 Q656 128 612 84 Q568 40 508.5 14.5 Q449 -11 381 -11 Q313 -11 253.5 14.5 Q194 40 150 84 Q106 128 80.5 187.5 Q55 247 55 315 L55 735 L171 735 L171 315 Z M246 899 Q230 910 229 930.5 Q228 951 242 965 Q256 979 276.5 978 Q297 977 308 961 L418 819 L388 790 L246 899 Z " />
<glyph glyph-name="Uhungarumlaut" unicode="&#x170;" horiz-adv-x="762" d="M171 315 Q171 268 187.5 228.5 Q204 189 232.5 160.5 Q261 132 299 116 Q337 100 381 100 Q425 100 463 116 Q501 132 529.5 160.5 Q558 189 574.5 228.5 Q591 268 591 315 L591 735 L707 735 L707 315 Q707 247 681.5 187.5 Q656 128 612 84 Q568 40 508.5 14.5 Q449 -11 381 -11 Q313 -11 253.5 14.5 Q194 40 150 84 Q106 128 80.5 187.5 Q55 247 55 315 L55 735 L171 735 L171 315 Z M280 790 L250 819 L360 961 Q371 977 391.5 978 Q412 979 426 965 Q440 951 439 930.5 Q438 910 422 899 L280 790 Z M468 790 L438 819 L548 961 Q559 977 579.5 978 Q600 979 614 965 Q628 951 627 930.5 Q626 910 610 899 L468 790 Z " />
<glyph glyph-name="Umacron" unicode="&#x16a;" horiz-adv-x="762" d="M171 315 Q171 268 187.5 228.5 Q204 189 232.5 160.5 Q261 132 299 116 Q337 100 381 100 Q425 100 463 116 Q501 132 529.5 160.5 Q558 189 574.5 228.5 Q591 268 591 315 L591 735 L707 735 L707 315 Q707 247 681.5 187.5 Q656 128 612 84 Q568 40 508.5 14.5 Q449 -11 381 -11 Q313 -11 253.5 14.5 Q194 40 150 84 Q106 128 80.5 187.5 Q55 247 55 315 L55 735 L171 735 L171 315 Z M534 810 L228 810 L228 877 L534 877 L534 810 Z " />
<glyph glyph-name="Uogonek" unicode="&#x172;" horiz-adv-x="762" d="M258 -79 Q258 -31 288 2 Q237 17 194 47 Q151 77 120.5 118 Q90 159 72.5 209 Q55 259 55 315 L55 735 L171 735 L171 315 Q171 268 187.5 228.5 Q204 189 232.5 160.5 Q261 132 299 116 Q337 100 381 100 Q425 100 463 116 Q501 132 529.5 160.5 Q558 189 574.5 228.5 Q591 268 591 315 L591 735 L707 735 L707 315 Q707 247 681.5 187.5 Q656 128 612 84 Q568 40 508.5 14.5 Q449 -11 381 -11 Q353 -11 333.5 -31 Q314 -51 314 -79 Q314 -108 333.5 -127 Q353 -146 381 -146 Q408 -146 428 -127 Q448 -108 448 -79 L504 -79 Q504 -105 494.5 -127.5 Q485 -150 468 -167 Q451 -184 428.5 -193.5 Q406 -203 381 -203 Q355 -203 333 -193.5 Q311 -184 294 -167 Q277 -150 267.5 -127.5 Q258 -105 258 -79 Z " />
<glyph glyph-name="Uring" unicode="&#x16e;" horiz-adv-x="762" d="M171 315 Q171 268 187.5 228.5 Q204 189 232.5 160.5 Q261 132 299 116 Q337 100 381 100 Q425 100 463 116 Q501 132 529.5 160.5 Q558 189 574.5 228.5 Q591 268 591 315 L591 735 L707 735 L707 315 Q707 247 681.5 187.5 Q656 128 612 84 Q568 40 508.5 14.5 Q449 -11 381 -11 Q313 -11 253.5 14.5 Q194 40 150 84 Q106 128 80.5 187.5 Q55 247 55 315 L55 735 L171 735 L171 315 Z M285 895 Q285 935 313 963 Q341 991 381 991 Q421 991 449 963 Q477 935 477 895 Q477 855 449 827 Q421 799 381 799 Q341 799 313 827 Q285 855 285 895 Z M341 895 Q341 878 352.5 866.5 Q364 855 381 855 Q398 855 409.5 866.5 Q421 878 421 895 Q421 912 409.5 923.5 Q398 935 381 935 Q364 935 352.5 923.5 Q341 912 341 895 Z " />
<glyph glyph-name="Utilde" unicode="&#x168;" horiz-adv-x="762" d="M171 315 Q171 268 187.5 228.5 Q204 189 232.5 160.5 Q261 132 299 116 Q337 100 381 100 Q425 100 463 116 Q501 132 529.5 160.5 Q558 189 574.5 228.5 Q591 268 591 315 L591 735 L707 735 L707 315 Q707 247 681.5 187.5 Q656 128 612 84 Q568 40 508.5 14.5 Q449 -11 381 -11 Q313 -11 253.5 14.5 Q194 40 150 84 Q106 128 80.5 187.5 Q55 247 55 315 L55 735 L171 735 L171 315 Z M440 931 Q462 931 480.5 922.5 Q499 914 512 900 Q525 886 532 867.5 Q539 849 539 828 L478 828 Q478 849 468 861.5 Q458 874 440 874 Q426 874 415 865 Q404 856 391.5 844.5 Q379 833 362.5 824 Q346 815 321 815 Q298 815 280 823 Q262 831 249 845 Q236 859 229 877.5 Q222 896 222 917 L283 917 Q283 896 293 883.5 Q303 871 321 871 Q335 871 346 880.5 Q357 890 369.5 901 Q382 912 398.5 921.5 Q415 931 440 931 Z " />
<glyph glyph-name="Yacute" unicode="&#xdd;" horiz-adv-x="576" d="M234 0 L234 212 L11 735 L134 735 L288 369 L443 735 L564 735 L343 212 L343 0 L234 0 Z M290 790 L261 819 L370 961 Q381 977 401.5 978 Q422 979 436 965 Q450 951 449 930.5 Q448 910 432 899 L290 790 Z " />
<glyph glyph-name="Ycircumflex" unicode="&#x176;" horiz-adv-x="576" d="M234 0 L234 212 L11 735 L134 735 L288 369 L443 735 L564 735 L343 212 L343 0 L234 0 Z M286 883 L191 787 L151 827 L287 963 L423 827 L383 787 L286 883 Z " />
<glyph glyph-name="Ydieresis" unicode="&#x178;" horiz-adv-x="576" d="M234 0 L234 212 L11 735 L134 735 L288 369 L443 735 L564 735 L343 212 L343 0 L234 0 Z M107 886 Q107 918 129 940.5 Q151 963 183 963 Q215 963 237.5 940.5 Q260 918 260 886 Q260 854 237.5 831.5 Q215 809 183 809 Q151 809 129 831.5 Q107 854 107 886 Z M315 886 Q315 918 337 940.5 Q359 963 391 963 Q423 963 445.5 940.5 Q468 918 468 886 Q468 854 445.5 831.5 Q423 809 391 809 Q359 809 337 831.5 Q315 854 315 886 Z " />
<glyph glyph-name="Ygrave" unicode="&#x1ef2;" horiz-adv-x="576" d="M234 0 L234 212 L11 735 L134 735 L288 369 L443 735 L564 735 L343 212 L343 0 L234 0 Z M142 899 Q127 910 126 930.5 Q125 951 139 965 Q153 979 173 978 Q193 977 205 961 L314 819 L285 790 L142 899 Z " />
<glyph glyph-name="Zacute" unicode="&#x179;" horiz-adv-x="615" d="M75 322 L75 421 L277 421 L407 635 L51 635 L51 735 L555 735 L570 709 L401 421 L540 421 L540 322 L346 322 L213 100 L564 100 L564 0 L60 0 L45 26 L221 322 L75 322 Z M310 790 L280 819 L390 961 Q401 977 421.5 978 Q442 979 456 965 Q470 951 469 930.5 Q468 910 452 899 L310 790 Z " />
<glyph glyph-name="Zcaron" unicode="&#x17d;" horiz-adv-x="615" d="M75 322 L75 421 L277 421 L407 635 L51 635 L51 735 L555 735 L570 709 L401 421 L540 421 L540 322 L346 322 L213 100 L564 100 L564 0 L60 0 L45 26 L221 322 L75 322 Z M308 867 L403 963 L443 923 L307 787 L171 923 L211 963 L308 867 Z " />
<glyph glyph-name="Zdotaccent" unicode="&#x17b;" horiz-adv-x="615" d="M75 322 L75 421 L277 421 L407 635 L51 635 L51 735 L555 735 L570 709 L401 421 L540 421 L540 322 L346 322 L213 100 L564 100 L564 0 L60 0 L45 26 L221 322 L75 322 Z M230 886 Q230 918 252.5 940.5 Q275 963 307 963 Q339 963 361.5 940.5 Q384 918 384 886 Q384 854 361.5 831.5 Q339 809 307 809 Q275 809 252.5 831.5 Q230 854 230 886 Z " />
<glyph glyph-name="aacute" unicode="&#xe1;" horiz-adv-x="575" d="M397 80 Q374 41 330 15.5 Q286 -10 228 -10 Q184 -10 150 2.5 Q116 15 93 37 Q70 59 57.5 88 Q45 117 45 150 Q45 180 57 207.5 Q69 235 94 255 Q119 275 158 287 Q197 299 250 299 L396 299 L396 309 Q396 355 368.5 387.5 Q341 420 284 420 Q250 420 221 406 Q192 392 170 367 L97 431 Q129 468 177 493.5 Q225 519 284 520 Q338 520 379 503 Q420 486 447.5 457.5 Q475 429 489 390.5 Q503 352 503 310 L503 0 L397 0 L397 80 Z M156 150 Q156 120 182 100.5 Q208 81 249 81 Q276 81 302 90 Q328 99 349 116.5 Q370 134 383 158.5 Q396 183 396 213 L250 213 Q200 213 178 195 Q156 177 156 150 Z M290 567 L261 596 L370 738 Q382 754 402 755 Q422 756 436 742 Q450 728 449 707.5 Q448 687 433 676 L290 567 Z " />
<glyph glyph-name="abreve" unicode="&#x103;" horiz-adv-x="575" d="M397 80 Q374 41 330 15.5 Q286 -10 228 -10 Q184 -10 150 2.5 Q116 15 93 37 Q70 59 57.5 88 Q45 117 45 150 Q45 180 57 207.5 Q69 235 94 255 Q119 275 158 287 Q197 299 250 299 L396 299 L396 309 Q396 355 368.5 387.5 Q341 420 284 420 Q250 420 221 406 Q192 392 170 367 L97 431 Q129 468 177 493.5 Q225 519 284 520 Q338 520 379 503 Q420 486 447.5 457.5 Q475 429 489 390.5 Q503 352 503 310 L503 0 L397 0 L397 80 Z M156 150 Q156 120 182 100.5 Q208 81 249 81 Q276 81 302 90 Q328 99 349 116.5 Q370 134 383 158.5 Q396 183 396 213 L250 213 Q200 213 178 195 Q156 177 156 150 Z M171 696 L238 696 L238 676 Q238 655 252.5 641 Q267 627 288 627 Q308 627 322.5 641 Q337 655 337 676 L337 696 L405 696 L405 681 Q405 657 396 635.5 Q387 614 371 598 Q355 582 333.5 573 Q312 564 288 564 Q264 564 242.5 573 Q221 582 205 598 Q189 614 180 635.5 Q171 657 171 681 L171 696 Z " />
<glyph glyph-name="acircumflex" unicode="&#xe2;" horiz-adv-x="575" d="M397 80 Q374 41 330 15.5 Q286 -10 228 -10 Q184 -10 150 2.5 Q116 15 93 37 Q70 59 57.5 88 Q45 117 45 150 Q45 180 57 207.5 Q69 235 94 255 Q119 275 158 287 Q197 299 250 299 L396 299 L396 309 Q396 355 368.5 387.5 Q341 420 284 420 Q250 420 221 406 Q192 392 170 367 L97 431 Q129 468 177 493.5 Q225 519 284 520 Q338 520 379 503 Q420 486 447.5 457.5 Q475 429 489 390.5 Q503 352 503 310 L503 0 L397 0 L397 80 Z M156 150 Q156 120 182 100.5 Q208 81 249 81 Q276 81 302 90 Q328 99 349 116.5 Q370 134 383 158.5 Q396 183 396 213 L250 213 Q200 213 178 195 Q156 177 156 150 Z M286 660 L192 564 L152 604 L288 740 L424 604 L384 564 L286 660 Z " />
<glyph glyph-name="adieresis" unicode="&#xe4;" horiz-adv-x="575" d="M397 80 Q374 41 330 15.5 Q286 -10 228 -10 Q184 -10 150 2.5 Q116 15 93 37 Q70 59 57.5 88 Q45 117 45 150 Q45 180 57 207.5 Q69 235 94 255 Q119 275 158 287 Q197 299 250 299 L396 299 L396 309 Q396 355 368.5 387.5 Q341 420 284 420 Q250 420 221 406 Q192 392 170 367 L97 431 Q129 468 177 493.5 Q225 519 284 520 Q338 520 379 503 Q420 486 447.5 457.5 Q475 429 489 390.5 Q503 352 503 310 L503 0 L397 0 L397 80 Z M156 150 Q156 120 182 100.5 Q208 81 249 81 Q276 81 302 90 Q328 99 349 116.5 Q370 134 383 158.5 Q396 183 396 213 L250 213 Q200 213 178 195 Q156 177 156 150 Z M107 663 Q107 695 129.5 717.5 Q152 740 184 740 Q216 740 238 717.5 Q260 695 260 663 Q260 631 238 608.5 Q216 586 184 586 Q152 586 129.5 608.5 Q107 631 107 663 Z M315 663 Q315 695 337.5 717.5 Q360 740 392 740 Q424 740 446 717.5 Q468 695 468 663 Q468 631 446 608.5 Q424 586 392 586 Q360 586 337.5 608.5 Q315 631 315 663 Z " />
<glyph glyph-name="agrave" unicode="&#xe0;" horiz-adv-x="575" d="M397 80 Q374 41 330 15.5 Q286 -10 228 -10 Q184 -10 150 2.5 Q116 15 93 37 Q70 59 57.5 88 Q45 117 45 150 Q45 180 57 207.5 Q69 235 94 255 Q119 275 158 287 Q197 299 250 299 L396 299 L396 309 Q396 355 368.5 387.5 Q341 420 284 420 Q250 420 221 406 Q192 392 170 367 L97 431 Q129 468 177 493.5 Q225 519 284 520 Q338 520 379 503 Q420 486 447.5 457.5 Q475 429 489 390.5 Q503 352 503 310 L503 0 L397 0 L397 80 Z M156 150 Q156 120 182 100.5 Q208 81 249 81 Q276 81 302 90 Q328 99 349 116.5 Q370 134 383 158.5 Q396 183 396 213 L250 213 Q200 213 178 195 Q156 177 156 150 Z M151 676 Q135 687 134 707.5 Q133 728 147 742 Q161 756 181.5 755 Q202 754 213 738 L322 596 L293 567 L151 676 Z " />
<glyph glyph-name="amacron" unicode="&#x101;" horiz-adv-x="575" d="M397 80 Q374 41 330 15.5 Q286 -10 228 -10 Q184 -10 150 2.5 Q116 15 93 37 Q70 59 57.5 88 Q45 117 45 150 Q45 180 57 207.5 Q69 235 94 255 Q119 275 158 287 Q197 299 250 299 L396 299 L396 309 Q396 355 368.5 387.5 Q341 420 284 420 Q250 420 221 406 Q192 392 170 367 L97 431 Q129 468 177 493.5 Q225 519 284 520 Q338 520 379 503 Q420 486 447.5 457.5 Q475 429 489 390.5 Q503 352 503 310 L503 0 L397 0 L397 80 Z M156 150 Q156 120 182 100.5 Q208 81 249 81 Q276 81 302 90 Q328 99 349 116.5 Q370 134 383 158.5 Q396 183 396 213 L250 213 Q200 213 178 195 Q156 177 156 150 Z M441 587 L135 587 L135 654 L441 654 L441 587 Z " />
<glyph glyph-name="aogonek" unicode="&#x105;" horiz-adv-x="575" d="M397 80 Q374 41 330 15.5 Q286 -10 228 -10 L222 -10 Q194 -11 175 -30.5 Q156 -50 156 -78 Q156 -107 175.5 -126.5 Q195 -146 223 -146 Q250 -146 270 -126.5 Q290 -107 290 -78 L346 -78 Q346 -104 336.5 -126.5 Q327 -149 310 -166 Q293 -183 270.5 -192.5 Q248 -202 223 -202 Q197 -202 175 -192.5 Q153 -183 136 -166 Q119 -149 109.5 -126.5 Q100 -104 100 -78 Q100 -52 109.5 -30 Q119 -8 136 9 Q92 29 68.5 66.5 Q45 104 45 150 Q45 180 57 207.5 Q69 235 94 255 Q119 275 158 287 Q197 299 250 299 L396 299 L396 306 Q396 329 389.5 350 Q383 371 369.5 386.5 Q356 402 334.5 411 Q313 420 284 420 Q250 420 221 406 Q192 392 170 367 L97 431 Q129 467 177 493.5 Q225 520 284 520 Q338 520 379 503 Q420 486 447.5 457.5 Q475 429 489 390.5 Q503 352 503 310 L503 0 L397 0 L397 80 Z M156 150 Q156 119 182 100 Q208 81 249 81 Q276 81 302 90 Q328 99 349 116.5 Q370 134 383 158.5 Q396 183 396 213 L250 213 Q200 213 178 195 Q156 177 156 150 Z " />
<glyph glyph-name="aring" unicode="&#xe5;" horiz-adv-x="575" d="M397 80 Q374 41 330 15.5 Q286 -10 228 -10 Q184 -10 150 2.5 Q116 15 93 37 Q70 59 57.5 88 Q45 117 45 150 Q45 180 57 207.5 Q69 235 94 255 Q119 275 158 287 Q197 299 250 299 L396 299 L396 309 Q396 355 368.5 387.5 Q341 420 284 420 Q250 420 221 406 Q192 392 170 367 L97 431 Q129 468 177 493.5 Q225 519 284 520 Q338 520 379 503 Q420 486 447.5 457.5 Q475 429 489 390.5 Q503 352 503 310 L503 0 L397 0 L397 80 Z M156 150 Q156 120 182 100.5 Q208 81 249 81 Q276 81 302 90 Q328 99 349 116.5 Q370 134 383 158.5 Q396 183 396 213 L250 213 Q200 213 178 195 Q156 177 156 150 Z M192 672 Q192 712 220 740 Q248 768 288 768 Q328 768 356 740 Q384 712 384 672 Q384 632 356 604 Q328 576 288 576 Q248 576 220 604 Q192 632 192 672 Z M248 672 Q248 655 259.5 643.5 Q271 632 288 632 Q305 632 316 643.5 Q327 655 327 672 Q327 689 316 700.5 Q305 712 288 712 Q271 712 259.5 700.5 Q248 689 248 672 Z " />
<glyph glyph-name="atilde" unicode="&#xe3;" horiz-adv-x="575" d="M397 80 Q374 41 330 15.5 Q286 -10 228 -10 Q184 -10 150 2.5 Q116 15 93 37 Q70 59 57.5 88 Q45 117 45 150 Q45 180 57 207.5 Q69 235 94 255 Q119 275 158 287 Q197 299 250 299 L396 299 L396 309 Q396 355 368.5 387.5 Q341 420 284 420 Q250 420 221 406 Q192 392 170 367 L97 431 Q129 468 177 493.5 Q225 519 284 520 Q338 520 379 503 Q420 486 447.5 457.5 Q475 429 489 390.5 Q503 352 503 310 L503 0 L397 0 L397 80 Z M156 150 Q156 120 182 100.5 Q208 81 249 81 Q276 81 302 90 Q328 99 349 116.5 Q370 134 383 158.5 Q396 183 396 213 L250 213 Q200 213 178 195 Q156 177 156 150 Z M347 708 Q369 708 387.5 699.5 Q406 691 419 677 Q432 663 439 644.5 Q446 626 446 605 L385 605 Q385 626 374.5 638.5 Q364 651 347 651 Q333 651 322 642 Q311 633 298 621.5 Q285 610 269 601 Q253 592 228 592 Q205 592 186.5 600 Q168 608 155.5 622 Q143 636 136 654.5 Q129 673 129 694 L190 694 Q190 673 200 660.5 Q210 648 228 648 Q241 648 252 657.5 Q263 667 276 678 Q289 689 305.5 698.5 Q322 708 347 708 Z " />
<glyph glyph-name="aeacute" unicode="&#x1fd;" horiz-adv-x="946" d="M907 252 Q907 243 905.5 231 Q904 219 902 212 L503 212 Q503 188 515 166 Q527 144 547.5 127.5 Q568 111 595.5 101 Q623 91 654 91 Q694 91 727 105.5 Q760 120 784 145 L863 81 Q825 38 771.5 14 Q718 -10 653 -10 Q623 -10 593 -3 Q563 4 535 17.5 Q507 31 483.5 51.5 Q460 72 442 99 Q401 39 347 14.5 Q293 -10 240 -10 Q196 -10 160 2.5 Q124 15 98.5 36.5 Q73 58 59 87 Q45 116 45 149 Q45 180 57 207 Q69 234 94.5 254.5 Q120 275 158.5 287 Q197 299 250 299 L396 299 L396 309 Q396 355 368.5 387.5 Q341 420 284 420 Q247 420 220.5 404 Q194 388 170 359 L97 423 Q111 442 131.5 460 Q152 478 177 491 Q202 504 229 512 Q256 520 284 520 Q346 520 390 496.5 Q434 473 460 435 Q491 473 538.5 497.5 Q586 522 646 522 Q704 522 752.5 501 Q801 480 835 444 Q869 408 888 358.5 Q907 309 907 252 Z M648 424 Q614 424 587 413 Q560 402 541.5 384.5 Q523 367 513 344.5 Q503 322 503 299 L793 299 Q793 320 783 342.5 Q773 365 754 383 Q735 401 708 412.5 Q681 424 648 424 Z M156 150 Q156 120 182 100.5 Q208 81 249 81 Q276 81 302 90 Q328 99 349 116.5 Q370 134 383 158.5 Q396 183 396 213 L250 213 Q200 213 178 195 Q156 177 156 150 Z M405 567 L376 596 L480 733 Q493 750 514.5 753.5 Q536 757 551 742 Q565 728 564 707.5 Q563 687 547 676 L405 567 Z " />
<glyph glyph-name="cacute" unicode="&#x107;" horiz-adv-x="534" d="M503 67 Q467 31 421 10.5 Q375 -10 316 -10 Q261 -10 212.5 11 Q164 32 128 68 Q92 104 71 152.5 Q50 201 50 256 Q50 311 71 359.5 Q92 408 128 444 Q164 480 212.5 501 Q261 522 316 522 Q377 522 425 499.5 Q473 477 508 440 L433 366 Q411 389 380.5 401.5 Q350 414 316 414 Q283 414 254.5 401.5 Q226 389 204.5 367.5 Q183 346 170.5 317.5 Q158 289 158 256 Q158 223 170.5 194.5 Q183 166 204.5 144.5 Q226 123 254.5 110.5 Q283 98 316 98 Q350 98 379.5 110.5 Q409 123 430 144 L503 67 Z M299 567 L270 596 L379 738 Q391 754 411 755 Q431 756 445 742 Q459 728 458 707.5 Q457 687 442 676 L299 567 Z " />
<glyph glyph-name="ccaron" unicode="&#x10d;" horiz-adv-x="534" d="M503 67 Q467 31 421 10.5 Q375 -10 316 -10 Q261 -10 212.5 11 Q164 32 128 68 Q92 104 71 152.5 Q50 201 50 256 Q50 311 71 359.5 Q92 408 128 444 Q164 480 212.5 501 Q261 522 316 522 Q377 522 425 499.5 Q473 477 508 440 L433 366 Q411 389 380.5 401.5 Q350 414 316 414 Q283 414 254.5 401.5 Q226 389 204.5 367.5 Q183 346 170.5 317.5 Q158 289 158 256 Q158 223 170.5 194.5 Q183 166 204.5 144.5 Q226 123 254.5 110.5 Q283 98 316 98 Q350 98 379.5 110.5 Q409 123 430 144 L503 67 Z M268 644 L363 740 L403 700 L267 564 L131 700 L171 740 L268 644 Z " />
<glyph glyph-name="ccedilla" unicode="&#xe7;" horiz-adv-x="534" d="M503 67 Q471 35 431 15.5 Q391 -4 341 -8 L341 -37 Q370 -45 390 -70 Q410 -95 410 -129 Q410 -149 402.5 -166.5 Q395 -184 381.5 -197 Q368 -210 350.5 -217.5 Q333 -225 313 -225 Q293 -225 276 -217.5 Q259 -210 245 -197 L286 -158 Q291 -163 298 -166 Q305 -169 313 -169 Q330 -169 341.5 -157.5 Q353 -146 353 -129 Q353 -112 341.5 -100.5 Q330 -89 313 -89 Q296 -89 285 -100 L245 -61 Q262 -43 285 -37 L285 -8 Q235 -2 192 20.5 Q149 43 117.5 78 Q86 113 68 159 Q50 205 50 256 Q50 311 71 359.5 Q92 408 128 444 Q164 480 212.5 501 Q261 522 316 522 Q377 522 425 499.5 Q473 477 508 440 L433 366 Q411 389 380.5 401.5 Q350 414 316 414 Q283 414 254.5 401.5 Q226 389 204.5 367.5 Q183 346 170.5 317.5 Q158 289 158 256 Q158 224 170.5 195.5 Q183 167 204 145.5 Q225 124 253 111.5 Q281 99 313 98 L318 98 Q351 99 380 111 Q409 123 430 144 L503 67 Z " />
<glyph glyph-name="ccircumflex" unicode="&#x109;" horiz-adv-x="534" d="M503 67 Q467 31 421 10.5 Q375 -10 316 -10 Q261 -10 212.5 11 Q164 32 128 68 Q92 104 71 152.5 Q50 201 50 256 Q50 311 71 359.5 Q92 408 128 444 Q164 480 212.5 501 Q261 522 316 522 Q377 522 425 499.5 Q473 477 508 440 L433 366 Q411 389 380.5 401.5 Q350 414 316 414 Q283 414 254.5 401.5 Q226 389 204.5 367.5 Q183 346 170.5 317.5 Q158 289 158 256 Q158 223 170.5 194.5 Q183 166 204.5 144.5 Q226 123 254.5 110.5 Q283 98 316 98 Q350 98 379.5 110.5 Q409 123 430 144 L503 67 Z M305 660 L211 564 L171 604 L307 740 L443 604 L403 564 L305 660 Z " />
<glyph glyph-name="cdotaccent" unicode="&#x10b;" horiz-adv-x="534" d="M503 67 Q467 31 421 10.5 Q375 -10 316 -10 Q261 -10 212.5 11 Q164 32 128 68 Q92 104 71 152.5 Q50 201 50 256 Q50 311 71 359.5 Q92 408 128 444 Q164 480 212.5 501 Q261 522 316 522 Q377 522 425 499.5 Q473 477 508 440 L433 366 Q411 389 380.5 401.5 Q350 414 316 414 Q283 414 254.5 401.5 Q226 389 204.5 367.5 Q183 346 170.5 317.5 Q158 289 158 256 Q158 223 170.5 194.5 Q183 166 204.5 144.5 Q226 123 254.5 110.5 Q283 98 316 98 Q350 98 379.5 110.5 Q409 123 430 144 L503 67 Z M230 663 Q230 695 252.5 717.5 Q275 740 307 740 Q339 740 361 717.5 Q383 695 383 663 Q383 631 361 608.5 Q339 586 307 586 Q275 586 252.5 608.5 Q230 631 230 663 Z " />
<glyph glyph-name="eacute" unicode="&#xe9;" horiz-adv-x="609" d="M568 252 Q568 243 566.5 231 Q565 219 563 212 L164 212 Q164 188 176 166 Q188 144 208.5 127.5 Q229 111 256.5 101 Q284 91 315 91 Q355 91 388 105.5 Q421 120 445 145 L524 81 Q486 38 432.5 14 Q379 -10 314 -10 Q266 -10 219 6.5 Q172 23 134.5 56 Q97 89 74 139 Q51 189 51 256 Q51 311 69.5 359.5 Q88 408 121.5 444 Q155 480 202 501 Q249 522 307 522 Q365 522 413.5 501 Q462 480 496 444 Q530 408 549 358.5 Q568 309 568 252 Z M309 424 Q275 424 248 413 Q221 402 202.5 384 Q184 366 174 343.5 Q164 321 164 299 L454 299 Q454 320 444 342.5 Q434 365 415 383 Q396 401 369 412.5 Q342 424 309 424 Z M307 567 L278 596 L382 733 Q395 750 416.5 753.5 Q438 757 453 742 Q467 728 466 707.5 Q465 687 450 676 L307 567 Z " />
<glyph glyph-name="ebreve" unicode="&#x115;" horiz-adv-x="609" d="M568 252 Q568 243 566.5 231 Q565 219 563 212 L164 212 Q164 188 176 166 Q188 144 208.5 127.5 Q229 111 256.5 101 Q284 91 315 91 Q355 91 388 105.5 Q421 120 445 145 L524 81 Q486 38 432.5 14 Q379 -10 314 -10 Q266 -10 219 6.5 Q172 23 134.5 56 Q97 89 74 139 Q51 189 51 256 Q51 311 69.5 359.5 Q88 408 121.5 444 Q155 480 202 501 Q249 522 307 522 Q365 522 413.5 501 Q462 480 496 444 Q530 408 549 358.5 Q568 309 568 252 Z M188 696 L255 696 L255 676 Q255 655 269.5 641 Q284 627 305 627 Q325 627 339.5 641 Q354 655 354 676 L354 696 L422 696 L422 681 Q422 657 413 635.5 Q404 614 388 598 Q372 582 350.5 573 Q329 564 305 564 Q280 564 258.5 573 Q237 582 221.5 598 Q206 614 197 635.5 Q188 657 188 681 L188 696 Z M309 424 Q275 424 248 413 Q221 402 202.5 384 Q184 366 174 343.5 Q164 321 164 299 L454 299 Q454 320 444 342.5 Q434 365 415 383 Q396 401 369 412.5 Q342 424 309 424 Z " />
<glyph glyph-name="ecaron" unicode="&#x11b;" horiz-adv-x="609" d="M568 252 Q568 243 566.5 231 Q565 219 563 212 L164 212 Q164 188 176 166 Q188 144 208.5 127.5 Q229 111 256.5 101 Q284 91 315 91 Q355 91 388 105.5 Q421 120 445 145 L524 81 Q486 38 432.5 14 Q379 -10 314 -10 Q266 -10 219 6.5 Q172 23 134.5 56 Q97 89 74 139 Q51 189 51 256 Q51 311 69.5 359.5 Q88 408 121.5 444 Q155 480 202 501 Q249 522 307 522 Q365 522 413.5 501 Q462 480 496 444 Q530 408 549 358.5 Q568 309 568 252 Z M306 644 L401 740 L441 700 L305 564 L169 700 L209 740 L306 644 Z M309 424 Q275 424 248 413 Q221 402 202.5 384 Q184 366 174 343.5 Q164 321 164 299 L454 299 Q454 320 444 342.5 Q434 365 415 383 Q396 401 369 412.5 Q342 424 309 424 Z " />
<glyph glyph-name="ecircumflex" unicode="&#xea;" horiz-adv-x="609" d="M568 252 Q568 243 566.5 231 Q565 219 563 212 L164 212 Q164 188 176 166 Q188 144 208.5 127.5 Q229 111 256.5 101 Q284 91 315 91 Q355 91 388 105.5 Q421 120 445 145 L524 81 Q486 38 432.5 14 Q379 -10 314 -10 Q266 -10 219 6.5 Q172 23 134.5 56 Q97 89 74 139 Q51 189 51 256 Q51 311 69.5 359.5 Q88 408 121.5 444 Q155 480 202 501 Q249 522 307 522 Q365 522 413.5 501 Q462 480 496 444 Q530 408 549 358.5 Q568 309 568 252 Z M303 660 L209 564 L169 604 L305 740 L441 604 L401 564 L303 660 Z M309 424 Q275 424 248 413 Q221 402 202.5 384 Q184 366 174 343.5 Q164 321 164 299 L454 299 Q454 320 444 342.5 Q434 365 415 383 Q396 401 369 412.5 Q342 424 309 424 Z " />
<glyph glyph-name="edieresis" unicode="&#xeb;" horiz-adv-x="609" d="M568 252 Q568 243 566.5 231 Q565 219 563 212 L164 212 Q164 188 176 166 Q188 144 208.5 127.5 Q229 111 256.5 101 Q284 91 315 91 Q355 91 388 105.5 Q421 120 445 145 L524 81 Q486 38 432.5 14 Q379 -10 314 -10 Q266 -10 219 6.5 Q172 23 134.5 56 Q97 89 74 139 Q51 189 51 256 Q51 311 69.5 359.5 Q88 408 121.5 444 Q155 480 202 501 Q249 522 307 522 Q365 522 413.5 501 Q462 480 496 444 Q530 408 549 358.5 Q568 309 568 252 Z M332 663 Q332 695 354.5 717.5 Q377 740 409 740 Q441 740 463 717.5 Q485 695 485 663 Q485 631 463 608.5 Q441 586 409 586 Q377 586 354.5 608.5 Q332 631 332 663 Z M124 663 Q124 695 146.5 717.5 Q169 740 201 740 Q233 740 255 717.5 Q277 695 277 663 Q277 631 255 608.5 Q233 586 201 586 Q169 586 146.5 608.5 Q124 631 124 663 Z M309 424 Q275 424 248 413 Q221 402 202.5 384 Q184 366 174 343.5 Q164 321 164 299 L454 299 Q454 320 444 342.5 Q434 365 415 383 Q396 401 369 412.5 Q342 424 309 424 Z " />
<glyph glyph-name="edotaccent" unicode="&#x117;" horiz-adv-x="609" d="M568 252 Q568 243 566.5 231 Q565 219 563 212 L164 212 Q164 188 176 166 Q188 144 208.5 127.5 Q229 111 256.5 101 Q284 91 315 91 Q355 91 388 105.5 Q421 120 445 145 L524 81 Q486 38 432.5 14 Q379 -10 314 -10 Q266 -10 219 6.5 Q172 23 134.5 56 Q97 89 74 139 Q51 189 51 256 Q51 311 69.5 359.5 Q88 408 121.5 444 Q155 480 202 501 Q249 522 307 522 Q365 522 413.5 501 Q462 480 496 444 Q530 408 549 358.5 Q568 309 568 252 Z M228 663 Q228 695 250.5 717.5 Q273 740 305 740 Q337 740 359 717.5 Q381 695 381 663 Q381 631 359 608.5 Q337 586 305 586 Q273 586 250.5 608.5 Q228 631 228 663 Z M309 424 Q275 424 248 413 Q221 402 202.5 384 Q184 366 174 343.5 Q164 321 164 299 L454 299 Q454 320 444 342.5 Q434 365 415 383 Q396 401 369 412.5 Q342 424 309 424 Z " />
<glyph glyph-name="egrave" unicode="&#xe8;" horiz-adv-x="609" d="M568 252 Q568 243 566.5 231 Q565 219 563 212 L164 212 Q164 188 176 166 Q188 144 208.5 127.5 Q229 111 256.5 101 Q284 91 315 91 Q355 91 388 105.5 Q421 120 445 145 L524 81 Q486 38 432.5 14 Q379 -10 314 -10 Q266 -10 219 6.5 Q172 23 134.5 56 Q97 89 74 139 Q51 189 51 256 Q51 311 69.5 359.5 Q88 408 121.5 444 Q155 480 202 501 Q249 522 307 522 Q365 522 413.5 501 Q462 480 496 444 Q530 408 549 358.5 Q568 309 568 252 Z M309 424 Q275 424 248 413 Q221 402 202.5 384 Q184 366 174 343.5 Q164 321 164 299 L454 299 Q454 320 444 342.5 Q434 365 415 383 Q396 401 369 412.5 Q342 424 309 424 Z M160 676 Q144 687 143 707.5 Q142 728 156 742 Q165 751 179 753.5 Q193 756 204 751 Q218 745 226 734 L331 596 L302 567 L160 676 Z " />
<glyph glyph-name="emacron" unicode="&#x113;" horiz-adv-x="609" d="M568 252 Q568 243 566.5 231 Q565 219 563 212 L164 212 Q164 188 176 166 Q188 144 208.5 127.5 Q229 111 256.5 101 Q284 91 315 91 Q355 91 388 105.5 Q421 120 445 145 L524 81 Q486 38 432.5 14 Q379 -10 314 -10 Q266 -10 219 6.5 Q172 23 134.5 56 Q97 89 74 139 Q51 189 51 256 Q51 311 69.5 359.5 Q88 408 121.5 444 Q155 480 202 501 Q249 522 307 522 Q365 522 413.5 501 Q462 480 496 444 Q530 408 549 358.5 Q568 309 568 252 Z M458 587 L152 587 L152 654 L458 654 L458 587 Z M309 424 Q275 424 248 413 Q221 402 202.5 384 Q184 366 174 343.5 Q164 321 164 299 L454 299 Q454 320 444 342.5 Q434 365 415 383 Q396 401 369 412.5 Q342 424 309 424 Z " />
<glyph glyph-name="eogonek" unicode="&#x119;" horiz-adv-x="609" d="M191 -78 Q191 -53 199.5 -32 Q208 -11 223 5 Q188 17 156.5 38.5 Q125 60 101.5 91.5 Q78 123 64.5 164 Q51 205 51 256 Q51 311 69.5 359.5 Q88 408 121.5 444 Q155 480 202 501 Q249 522 307 522 Q365 522 413.5 501 Q462 480 496 444 Q530 408 549 358.5 Q568 309 568 252 Q568 243 566.5 231 Q565 219 563 212 L164 212 Q164 188 176 166 Q188 144 208.5 127.5 Q229 111 256.5 101 Q284 91 315 91 Q355 91 388 105.5 Q421 120 445 145 L524 81 Q486 38 432.5 14 Q379 -10 314 -10 L309 -10 Q283 -12 265 -32 Q247 -52 247 -78 Q247 -107 266.5 -126 Q286 -145 314 -145 Q342 -145 361.5 -126 Q381 -107 381 -78 L437 -78 Q437 -104 427.5 -126.5 Q418 -149 401 -166 Q384 -183 361.5 -192.5 Q339 -202 314 -202 Q288 -202 266 -192.5 Q244 -183 227 -166 Q210 -149 200.5 -126.5 Q191 -104 191 -78 Z M309 424 Q275 424 248 413 Q221 402 202.5 384 Q184 366 174 343.5 Q164 321 164 299 L454 299 Q454 320 444 342.5 Q434 365 415 383 Q396 401 369 412.5 Q342 424 309 424 Z " />
<glyph glyph-name="fi" unicode="&#xfb01;" horiz-adv-x="676" d="M473 572 Q473 629 443 667.5 Q413 706 349 706 Q295 706 260 670.5 Q225 635 225 572 L225 512 L386 512 L386 416 L225 416 L225 0 L117 0 L117 416 L20 416 L20 512 L117 512 L117 572 Q117 621 134 664.5 Q151 708 181.5 739.5 Q212 771 255 789.5 Q298 808 350 808 Q404 808 447 790 Q490 772 520 740 Q550 708 566.5 665 Q583 622 583 572 L473 572 Z M583 512 L583 0 L473 0 L473 512 L583 512 Z " />
<glyph glyph-name="dotlessi" unicode="&#x131;" horiz-adv-x="295" d="M203 512 L203 0 L93 0 L93 512 L203 512 Z " />
<glyph glyph-name="iacute" unicode="&#xed;" horiz-adv-x="295" d="M203 512 L203 0 L93 0 L93 512 L203 512 Z M150 567 L121 596 L230 738 Q242 754 262 755 Q282 756 296 742 Q310 728 309 707.5 Q308 687 293 676 L150 567 Z " />
<glyph glyph-name="ibreve" unicode="&#x12d;" horiz-adv-x="295" d="M203 512 L203 0 L93 0 L93 512 L203 512 Z M31 696 L98 696 L98 676 Q98 655 112.5 641 Q127 627 148 627 Q168 627 182.5 641 Q197 655 197 676 L197 696 L265 696 L265 681 Q265 657 256 635.5 Q247 614 231 598 Q215 582 193.5 573 Q172 564 148 564 Q124 564 102.5 573 Q81 582 65 598 Q49 614 40 635.5 Q31 657 31 681 L31 696 Z " />
<glyph glyph-name="icircumflex" unicode="&#xee;" horiz-adv-x="295" d="M203 512 L203 0 L93 0 L93 512 L203 512 Z M146 660 L52 564 L12 604 L148 740 L284 604 L244 564 L146 660 Z " />
<glyph glyph-name="idieresis" unicode="&#xef;" horiz-adv-x="295" d="M203 512 L203 0 L93 0 L93 512 L203 512 Z M-33 663 Q-33 695 -10.5 717.5 Q12 740 44 740 Q76 740 98 717.5 Q120 695 120 663 Q120 631 98 608.5 Q76 586 44 586 Q12 586 -10.5 608.5 Q-33 631 -33 663 Z M175 663 Q175 695 197.5 717.5 Q220 740 252 740 Q284 740 306 717.5 Q328 695 328 663 Q328 631 306 608.5 Q284 586 252 586 Q220 586 197.5 608.5 Q175 631 175 663 Z " />
<glyph glyph-name="igrave" unicode="&#xec;" horiz-adv-x="295" d="M203 512 L203 0 L93 0 L93 512 L203 512 Z M3 676 Q-13 687 -14 707.5 Q-15 728 -1 742 Q13 756 33.5 755 Q54 754 65 738 L174 596 L145 567 L3 676 Z " />
<glyph glyph-name="imacron" unicode="&#x12b;" horiz-adv-x="295" d="M203 512 L203 0 L93 0 L93 512 L203 512 Z M301 587 L-5 587 L-5 654 L301 654 L301 587 Z " />
<glyph glyph-name="iogonek" unicode="&#x12f;" horiz-adv-x="295" d="M24 -68 Q24 -31 43 -1.5 Q62 28 93 42 L93 512 L203 512 L203 0 L142 0 Q116 -2 98.5 -22 Q81 -42 81 -68 Q81 -97 100 -116 Q119 -135 148 -135 Q175 -135 194.5 -116 Q214 -97 214 -68 L271 -68 Q271 -94 261.5 -116.5 Q252 -139 235 -156 Q218 -173 195.5 -182.5 Q173 -192 148 -192 Q122 -192 99.5 -182.5 Q77 -173 60 -156 Q43 -139 33.5 -116.5 Q24 -94 24 -68 Z M72 707 Q72 738 94 760 Q116 782 148 782 Q179 782 201 760 Q223 738 223 707 Q223 675 201 653 Q179 631 148 631 Q116 631 94 653 Q72 675 72 707 Z " />
<glyph glyph-name="itilde" unicode="&#x129;" horiz-adv-x="295" d="M203 512 L203 0 L93 0 L93 512 L203 512 Z M207 708 Q229 708 247.5 699.5 Q266 691 279 677 Q292 663 299 644.5 Q306 626 306 605 L245 605 Q245 626 234.5 638.5 Q224 651 207 651 Q193 651 182 642 Q171 633 158.5 621.5 Q146 610 129.5 601 Q113 592 88 592 Q65 592 47 600 Q29 608 16 622 Q3 636 -4 654.5 Q-11 673 -11 694 L50 694 Q50 673 60 660.5 Q70 648 88 648 Q102 648 113 657.5 Q124 667 136.5 678 Q149 689 165.5 698.5 Q182 708 207 708 Z " />
<glyph glyph-name="ij" unicode="&#x133;" horiz-adv-x="606" d="M203 512 L203 0 L93 0 L93 512 L203 512 Z M72 707 Q72 738 94 760 Q116 782 148 782 Q179 782 201 760 Q223 738 223 707 Q223 675 201 653 Q179 631 148 631 Q116 631 94 653 Q72 675 72 707 Z M397 -253 L397 512 L505 512 L505 -253 L397 -253 Z M375 707 Q375 738 397 760 Q419 782 451 782 Q483 782 504.5 760 Q526 738 526 707 Q526 675 504.5 653 Q483 631 451 631 Q419 631 397 653 Q375 675 375 707 Z " />
<glyph glyph-name="lacute" unicode="&#x13a;" horiz-adv-x="275" d="M82 0 L82 768 L193 768 L193 0 L82 0 Z M145 790 L116 819 L225 961 Q236 977 256.5 978 Q277 979 291 965 Q305 951 304 930.5 Q303 910 287 899 L145 790 Z " />
<glyph glyph-name="lcaron" unicode="&#x13e;" horiz-adv-x="490" d="M82 0 L82 768 L193 768 L193 0 L82 0 Z M325 487 L370 583 Q344 588 325.5 609 Q307 630 307 659 Q307 691 329.5 713 Q352 735 384 735 Q405 735 422 724.5 Q439 714 448.5 697.5 Q458 681 459 660.5 Q460 640 450 619 L376 462 L325 487 Z " />
<glyph glyph-name="lcommaaccent" unicode="&#x13c;" horiz-adv-x="275" d="M82 0 L82 768 L193 768 L193 0 L82 0 Z M92 -233 L124 -166 Q106 -162 94 -148.5 Q82 -135 82 -116 Q82 -94 97 -79 Q112 -64 133 -64 Q147 -64 158.5 -71 Q170 -78 176 -89 Q182 -100 183 -114 Q184 -128 177 -142 L126 -250 L92 -233 Z " />
<glyph glyph-name="ldot" unicode="&#x140;" horiz-adv-x="459" d="M284 367 Q284 399 306.5 421 Q329 443 361 443 Q393 443 415 421 Q437 399 437 367 Q437 335 415 312.5 Q393 290 361 290 Q329 290 306.5 312.5 Q284 335 284 367 Z M82 0 L82 768 L193 768 L193 0 L82 0 Z " />
<glyph glyph-name="lslash" unicode="&#x142;" horiz-adv-x="275" d="M82 0 L82 297 L-4 274 L-21 338 L82 365 L82 768 L193 768 L193 395 L282 419 L299 355 L193 327 L193 0 L82 0 Z " />
<glyph glyph-name="kcommaaccent" unicode="&#x137;" horiz-adv-x="559" d="M190 768 L190 310 L291 310 L414 512 L535 512 L381 256 L535 0 L414 0 L291 202 L190 202 L190 0 L82 0 L82 768 L190 768 Z M234 -233 L265 -166 Q247 -162 235.5 -148.5 Q224 -135 224 -116 Q224 -94 239 -79 Q254 -64 274 -64 Q288 -64 299.5 -71 Q311 -78 317.5 -89 Q324 -100 324.5 -114 Q325 -128 319 -142 L268 -250 L234 -233 Z " />
<glyph glyph-name="hbar" unicode="&#x127;" horiz-adv-x="656" d="M593 0 L485 0 L485 266 Q485 296 473.5 323 Q462 350 442.5 369.5 Q423 389 396 400.5 Q369 412 339 412 Q309 412 282.5 400.5 Q256 389 236 368.5 Q216 348 204 321 Q192 294 192 263 L192 0 L82 0 L82 570 L-3 547 L-21 611 L82 638 L82 768 L192 768 L192 668 L282 692 L300 628 L192 599 L192 436 Q221 474 263.5 497.5 Q306 521 357 520 Q406 520 449 500 Q492 480 524 445.5 Q556 411 574.5 364.5 Q593 318 593 264 L593 0 Z " />
<glyph glyph-name="hcircumflex" unicode="&#x125;" horiz-adv-x="656" d="M593 0 L485 0 L485 266 Q485 296 473.5 323 Q462 350 442.5 369.5 Q423 389 396 400.5 Q369 412 339 412 Q309 412 282.5 400.5 Q256 389 236 368.5 Q216 348 204 321 Q192 294 192 263 L192 0 L82 0 L82 768 L192 768 L192 436 Q221 474 263.5 497.5 Q306 521 357 520 Q406 520 449 500 Q492 480 524 445.5 Q556 411 574.5 364.5 Q593 318 593 264 L593 0 Z M371 660 L276 564 L236 604 L372 740 L508 604 L468 564 L371 660 Z " />
<glyph glyph-name="dcaron" unicode="&#x10f;" horiz-adv-x="857" d="M51 256 Q51 309 70 356 Q89 403 122 437.5 Q155 472 200.5 492 Q246 512 300 512 Q346 512 386.5 492 Q427 472 452 442 L452 768 L561 768 L561 0 L452 0 L452 70 Q427 39 387 19.5 Q347 0 300 0 Q246 0 200.5 20 Q155 40 122 74.5 Q89 109 70 156 Q51 203 51 256 Z M470 256 Q470 289 458 317.5 Q446 346 425.5 367 Q405 388 377 400 Q349 412 316 412 Q283 412 254.5 400 Q226 388 205 367 Q184 346 171.5 317.5 Q159 289 159 256 Q159 223 171.5 194.5 Q184 166 205 145 Q226 124 254.5 112 Q283 100 316 100 Q349 100 377 112 Q405 124 425.5 145 Q446 166 458 194.5 Q470 223 470 256 Z M692 487 L737 583 Q711 588 693 609 Q675 630 675 659 Q675 691 697 713 Q719 735 751 735 Q772 735 789 724.5 Q806 714 815.5 697.5 Q825 681 826 660.5 Q827 640 817 619 L743 462 L692 487 Z " />
<glyph glyph-name="nacute" unicode="&#x144;" horiz-adv-x="652" d="M589 0 L481 0 L481 267 Q481 299 472 327.5 Q463 356 444.5 377 Q426 398 399 410.5 Q372 423 336 423 Q306 423 279.5 412 Q253 401 233.5 380 Q214 359 202.5 329.5 Q191 300 190 263 L190 0 L82 0 L82 512 L190 512 L190 436 Q202 452 219.5 467.5 Q237 483 259.5 495 Q282 507 308 514.5 Q334 522 362 522 Q411 522 453 503.5 Q495 485 525 451.5 Q555 418 572 370 Q589 322 589 262 L589 0 Z M333 567 L303 596 L413 738 Q424 754 444.5 755 Q465 756 479 742 Q493 728 492 707.5 Q491 687 475 676 L333 567 Z " />
<glyph glyph-name="napostrophe" unicode="&#x149;" horiz-adv-x="652" d="M589 0 L481 0 L481 267 Q481 299 472 327.5 Q463 356 444.5 377 Q426 398 399 410.5 Q372 423 336 423 Q306 423 279.5 412 Q253 401 233.5 380 Q214 359 202.5 329.5 Q191 300 190 263 L190 0 L82 0 L82 512 L190 512 L190 436 Q202 452 219.5 467.5 Q237 483 259.5 495 Q282 507 308 514.5 Q334 522 362 522 Q411 522 453 503.5 Q495 485 525 451.5 Q555 418 572 370 Q589 322 589 262 L589 0 Z M74 599 L119 695 Q93 700 75 721 Q57 742 57 771 Q57 803 79 825 Q101 847 133 847 Q155 847 171.5 836.5 Q188 826 197.5 809.5 Q207 793 208 772.5 Q209 752 199 731 L125 574 L74 599 Z " />
<glyph glyph-name="ncaron" unicode="&#x148;" horiz-adv-x="652" d="M589 0 L481 0 L481 267 Q481 299 472 327.5 Q463 356 444.5 377 Q426 398 399 410.5 Q372 423 336 423 Q306 423 279.5 412 Q253 401 233.5 380 Q214 359 202.5 329.5 Q191 300 190 263 L190 0 L82 0 L82 512 L190 512 L190 436 Q202 452 219.5 467.5 Q237 483 259.5 495 Q282 507 308 514.5 Q334 522 362 522 Q411 522 453 503.5 Q495 485 525 451.5 Q555 418 572 370 Q589 322 589 262 L589 0 Z M351 644 L446 740 L486 700 L350 564 L214 700 L254 740 L351 644 Z " />
<glyph glyph-name="ncommaaccent" unicode="&#x146;" horiz-adv-x="652" d="M589 0 L481 0 L481 267 Q481 299 472 327.5 Q463 356 444.5 377 Q426 398 399 410.5 Q372 423 336 423 Q306 423 279.5 412 Q253 401 233.5 380 Q214 359 202.5 329.5 Q191 300 190 263 L190 0 L82 0 L82 512 L190 512 L190 436 Q202 452 219.5 467.5 Q237 483 259.5 495 Q282 507 308 514.5 Q334 522 362 522 Q411 522 453 503.5 Q495 485 525 451.5 Q555 418 572 370 Q589 322 589 262 L589 0 Z M285 -233 L316 -166 Q298 -162 286.5 -148.5 Q275 -135 275 -116 Q275 -94 290 -79 Q305 -64 325 -64 Q339 -64 350.5 -71 Q362 -78 368.5 -89 Q375 -100 375.5 -114 Q376 -128 370 -142 L319 -250 L285 -233 Z " />
<glyph glyph-name="ntilde" unicode="&#xf1;" horiz-adv-x="652" d="M589 0 L481 0 L481 267 Q481 299 472 327.5 Q463 356 444.5 377 Q426 398 399 410.5 Q372 423 336 423 Q306 423 279.5 412 Q253 401 233.5 380 Q214 359 202.5 329.5 Q191 300 190 263 L190 0 L82 0 L82 512 L190 512 L190 436 Q202 452 219.5 467.5 Q237 483 259.5 495 Q282 507 308 514.5 Q334 522 362 522 Q411 522 453 503.5 Q495 485 525 451.5 Q555 418 572 370 Q589 322 589 262 L589 0 Z M389 708 Q411 708 429.5 699.5 Q448 691 461 677 Q474 663 481 644.5 Q488 626 488 605 L427 605 Q427 626 417 638.5 Q407 651 389 651 Q375 651 364 642 Q353 633 340.5 621.5 Q328 610 311.5 601 Q295 592 270 592 Q247 592 229 600 Q211 608 198 622 Q185 636 178 654.5 Q171 673 171 694 L232 694 Q232 673 242 660.5 Q252 648 270 648 Q284 648 295 657.5 Q306 667 318.5 678 Q331 689 347.5 698.5 Q364 708 389 708 Z " />
<glyph glyph-name="oacute" unicode="&#xf3;" horiz-adv-x="630" d="M50 256 Q50 311 70.5 359.5 Q91 408 127 444 Q163 480 211.5 500.5 Q260 521 315 521 Q370 521 418.5 500.5 Q467 480 503 444 Q539 408 559.5 359.5 Q580 311 580 256 Q580 201 559.5 152.5 Q539 104 503 68 Q467 32 418.5 11.5 Q370 -9 315 -9 Q260 -9 211.5 11.5 Q163 32 127 68 Q91 104 70.5 152.5 Q50 201 50 256 Z M157 256 Q157 222 169.5 193 Q182 164 203 142.5 Q224 121 253 109 Q282 97 315 97 Q348 97 377 109 Q406 121 427 142.5 Q448 164 460.5 193 Q473 222 473 256 Q473 290 460.5 319 Q448 348 427 369.5 Q406 391 377 403 Q348 415 315 415 Q282 415 253 403 Q224 391 203 369.5 Q182 348 169.5 319 Q157 290 157 256 Z M318 567 L288 596 L398 738 Q409 754 429.5 755 Q450 756 464 742 Q478 728 477 707.5 Q476 687 460 676 L318 567 Z " />
<glyph glyph-name="obreve" unicode="&#x14f;" horiz-adv-x="630" d="M50 256 Q50 311 70.5 359.5 Q91 408 127 444 Q163 480 211.5 500.5 Q260 521 315 521 Q370 521 418.5 500.5 Q467 480 503 444 Q539 408 559.5 359.5 Q580 311 580 256 Q580 201 559.5 152.5 Q539 104 503 68 Q467 32 418.5 11.5 Q370 -9 315 -9 Q260 -9 211.5 11.5 Q163 32 127 68 Q91 104 70.5 152.5 Q50 201 50 256 Z M157 256 Q157 222 169.5 193 Q182 164 203 142.5 Q224 121 253 109 Q282 97 315 97 Q348 97 377 109 Q406 121 427 142.5 Q448 164 460.5 193 Q473 222 473 256 Q473 290 460.5 319 Q448 348 427 369.5 Q406 391 377 403 Q348 415 315 415 Q282 415 253 403 Q224 391 203 369.5 Q182 348 169.5 319 Q157 290 157 256 Z M198 696 L266 696 L266 676 Q266 655 280 641 Q294 627 315 627 Q336 627 350 641 Q364 655 364 676 L364 696 L432 696 L432 681 Q432 657 423 635.5 Q414 614 398 598 Q382 582 360.5 573 Q339 564 315 564 Q291 564 269.5 573 Q248 582 232 598 Q216 614 207 635.5 Q198 657 198 681 L198 696 Z " />
<glyph glyph-name="ocircumflex" unicode="&#xf4;" horiz-adv-x="630" d="M50 256 Q50 311 70.5 359.5 Q91 408 127 444 Q163 480 211.5 500.5 Q260 521 315 521 Q370 521 418.5 500.5 Q467 480 503 444 Q539 408 559.5 359.5 Q580 311 580 256 Q580 201 559.5 152.5 Q539 104 503 68 Q467 32 418.5 11.5 Q370 -9 315 -9 Q260 -9 211.5 11.5 Q163 32 127 68 Q91 104 70.5 152.5 Q50 201 50 256 Z M157 256 Q157 222 169.5 193 Q182 164 203 142.5 Q224 121 253 109 Q282 97 315 97 Q348 97 377 109 Q406 121 427 142.5 Q448 164 460.5 193 Q473 222 473 256 Q473 290 460.5 319 Q448 348 427 369.5 Q406 391 377 403 Q348 415 315 415 Q282 415 253 403 Q224 391 203 369.5 Q182 348 169.5 319 Q157 290 157 256 Z M314 660 L219 564 L179 604 L315 740 L451 604 L411 564 L314 660 Z " />
<glyph glyph-name="odieresis" unicode="&#xf6;" horiz-adv-x="630" d="M50 256 Q50 311 70.5 359.5 Q91 408 127 444 Q163 480 211.5 500.5 Q260 521 315 521 Q370 521 418.5 500.5 Q467 480 503 444 Q539 408 559.5 359.5 Q580 311 580 256 Q580 201 559.5 152.5 Q539 104 503 68 Q467 32 418.5 11.5 Q370 -9 315 -9 Q260 -9 211.5 11.5 Q163 32 127 68 Q91 104 70.5 152.5 Q50 201 50 256 Z M157 256 Q157 222 169.5 193 Q182 164 203 142.5 Q224 121 253 109 Q282 97 315 97 Q348 97 377 109 Q406 121 427 142.5 Q448 164 460.5 193 Q473 222 473 256 Q473 290 460.5 319 Q448 348 427 369.5 Q406 391 377 403 Q348 415 315 415 Q282 415 253 403 Q224 391 203 369.5 Q182 348 169.5 319 Q157 290 157 256 Z M134 663 Q134 695 156.5 717.5 Q179 740 211 740 Q243 740 265.5 717.5 Q288 695 288 663 Q288 631 265.5 608.5 Q243 586 211 586 Q179 586 156.5 608.5 Q134 631 134 663 Z M342 663 Q342 695 364.5 717.5 Q387 740 419 740 Q451 740 473.5 717.5 Q496 695 496 663 Q496 631 473.5 608.5 Q451 586 419 586 Q387 586 364.5 608.5 Q342 631 342 663 Z " />
<glyph glyph-name="ograve" unicode="&#xf2;" horiz-adv-x="630" d="M50 256 Q50 311 70.5 359.5 Q91 408 127 444 Q163 480 211.5 500.5 Q260 521 315 521 Q370 521 418.5 500.5 Q467 480 503 444 Q539 408 559.5 359.5 Q580 311 580 256 Q580 201 559.5 152.5 Q539 104 503 68 Q467 32 418.5 11.5 Q370 -9 315 -9 Q260 -9 211.5 11.5 Q163 32 127 68 Q91 104 70.5 152.5 Q50 201 50 256 Z M157 256 Q157 222 169.5 193 Q182 164 203 142.5 Q224 121 253 109 Q282 97 315 97 Q348 97 377 109 Q406 121 427 142.5 Q448 164 460.5 193 Q473 222 473 256 Q473 290 460.5 319 Q448 348 427 369.5 Q406 391 377 403 Q348 415 315 415 Q282 415 253 403 Q224 391 203 369.5 Q182 348 169.5 319 Q157 290 157 256 Z M170 676 Q154 687 153 707.5 Q152 728 166 742 Q180 756 200.5 755 Q221 754 232 738 L342 596 L312 567 L170 676 Z " />
<glyph glyph-name="ohungarumlaut" unicode="&#x151;" horiz-adv-x="630" d="M50 256 Q50 311 70.5 359.5 Q91 408 127 444 Q163 480 211.5 500.5 Q260 521 315 521 Q370 521 418.5 500.5 Q467 480 503 444 Q539 408 559.5 359.5 Q580 311 580 256 Q580 201 559.5 152.5 Q539 104 503 68 Q467 32 418.5 11.5 Q370 -9 315 -9 Q260 -9 211.5 11.5 Q163 32 127 68 Q91 104 70.5 152.5 Q50 201 50 256 Z M157 256 Q157 222 169.5 193 Q182 164 203 142.5 Q224 121 253 109 Q282 97 315 97 Q348 97 377 109 Q406 121 427 142.5 Q448 164 460.5 193 Q473 222 473 256 Q473 290 460.5 319 Q448 348 427 369.5 Q406 391 377 403 Q348 415 315 415 Q282 415 253 403 Q224 391 203 369.5 Q182 348 169.5 319 Q157 290 157 256 Z M224 567 L194 596 L304 738 Q315 754 335.5 755 Q356 756 370 742 Q384 728 383 707.5 Q382 687 366 676 L224 567 Z M412 567 L382 596 L492 738 Q503 754 523.5 755 Q544 756 558 742 Q572 728 571 707.5 Q570 687 554 676 L412 567 Z " />
<glyph glyph-name="omacron" unicode="&#x14d;" horiz-adv-x="630" d="M50 256 Q50 311 70.5 359.5 Q91 408 127 444 Q163 480 211.5 500.5 Q260 521 315 521 Q370 521 418.5 500.5 Q467 480 503 444 Q539 408 559.5 359.5 Q580 311 580 256 Q580 201 559.5 152.5 Q539 104 503 68 Q467 32 418.5 11.5 Q370 -9 315 -9 Q260 -9 211.5 11.5 Q163 32 127 68 Q91 104 70.5 152.5 Q50 201 50 256 Z M157 256 Q157 222 169.5 193 Q182 164 203 142.5 Q224 121 253 109 Q282 97 315 97 Q348 97 377 109 Q406 121 427 142.5 Q448 164 460.5 193 Q473 222 473 256 Q473 290 460.5 319 Q448 348 427 369.5 Q406 391 377 403 Q348 415 315 415 Q282 415 253 403 Q224 391 203 369.5 Q182 348 169.5 319 Q157 290 157 256 Z M468 587 L162 587 L162 654 L468 654 L468 587 Z " />
<glyph glyph-name="gbreve" unicode="&#x11f;" horiz-adv-x="568" d="M76 333 Q76 375 92 412.5 Q108 450 135.5 478 Q163 506 200 522 Q237 538 279 538 Q322 538 359 522 Q396 506 424 477 Q479 512 549 512 L557 512 L557 416 L460 416 Q471 399 477.5 377.5 Q484 356 484 333 Q484 291 468 254 Q452 217 424 189.5 Q396 162 358.5 146 Q321 130 279 130 Q252 130 225.5 138.5 Q199 147 178 161 Q152 157 135.5 144 Q119 131 119 106 Q119 81 137.5 68.5 Q156 56 185 56 L339 56 Q431 56 481.5 14 Q532 -28 532 -103 Q532 -179 475 -222.5 Q418 -266 318 -266 Q264 -266 218.5 -252 Q173 -238 140.5 -213.5 Q108 -189 90 -156.5 Q72 -124 73 -86 L117 -47 Q69 -36 42.5 -1 Q16 34 18 82 Q19 127 47.5 162 Q76 197 118 210 Q98 236 87 267 Q76 298 76 333 Z M178 333 Q178 312 186 293.5 Q194 275 207.5 261.5 Q221 248 239.5 240 Q258 232 279 232 Q300 232 319 240 Q338 248 351.5 261.5 Q365 275 373 293.5 Q381 312 381 333 Q381 376 351.5 405.5 Q322 435 279 435 Q258 435 239.5 427 Q221 419 207.5 405.5 Q194 392 186 373 Q178 354 178 333 Z M318 -165 Q421 -165 421 -103 Q421 -78 400.5 -62.5 Q380 -47 339 -47 L163 -47 Q162 -71 173.5 -92.5 Q185 -114 206 -130 Q227 -146 256 -155.5 Q285 -165 318 -165 Z M167 696 L235 696 L235 676 Q235 655 249 641 Q263 627 284 627 Q305 627 319 641 Q333 655 333 676 L333 696 L401 696 L401 681 Q401 657 392 635.5 Q383 614 367 598 Q351 582 329.5 573 Q308 564 284 564 Q260 564 238.5 573 Q217 582 201 598 Q185 614 176 635.5 Q167 657 167 681 L167 696 Z " />
<glyph glyph-name="gcircumflex" unicode="&#x11d;" horiz-adv-x="568" d="M76 333 Q76 375 92 412.5 Q108 450 135.5 478 Q163 506 200 522 Q237 538 279 538 Q322 538 359 522 Q396 506 424 477 Q479 512 549 512 L557 512 L557 416 L460 416 Q471 399 477.5 377.5 Q484 356 484 333 Q484 291 468 254 Q452 217 424 189.5 Q396 162 358.5 146 Q321 130 279 130 Q252 130 225.5 138.5 Q199 147 178 161 Q152 157 135.5 144 Q119 131 119 106 Q119 81 137.5 68.5 Q156 56 185 56 L339 56 Q431 56 481.5 14 Q532 -28 532 -103 Q532 -179 475 -222.5 Q418 -266 318 -266 Q264 -266 218.5 -252 Q173 -238 140.5 -213.5 Q108 -189 90 -156.5 Q72 -124 73 -86 L117 -47 Q69 -36 42.5 -1 Q16 34 18 82 Q19 127 47.5 162 Q76 197 118 210 Q98 236 87 267 Q76 298 76 333 Z M178 333 Q178 312 186 293.5 Q194 275 207.5 261.5 Q221 248 239.5 240 Q258 232 279 232 Q300 232 319 240 Q338 248 351.5 261.5 Q365 275 373 293.5 Q381 312 381 333 Q381 376 351.5 405.5 Q322 435 279 435 Q258 435 239.5 427 Q221 419 207.5 405.5 Q194 392 186 373 Q178 354 178 333 Z M318 -165 Q421 -165 421 -103 Q421 -78 400.5 -62.5 Q380 -47 339 -47 L163 -47 Q162 -71 173.5 -92.5 Q185 -114 206 -130 Q227 -146 256 -155.5 Q285 -165 318 -165 Z M283 660 L188 564 L148 604 L284 740 L420 604 L380 564 L283 660 Z " />
<glyph glyph-name="gcommaaccent" unicode="&#x123;" horiz-adv-x="568" d="M76 333 Q76 375 92 412.5 Q108 450 135.5 478 Q163 506 200 522 Q237 538 279 538 Q322 538 359 522 Q396 506 424 477 Q479 512 549 512 L557 512 L557 416 L460 416 Q471 399 477.5 377.5 Q484 356 484 333 Q484 291 468 254 Q452 217 424 189.5 Q396 162 358.5 146 Q321 130 279 130 Q252 130 225.5 138.5 Q199 147 178 161 Q152 157 135.5 144 Q119 131 119 106 Q119 81 137.5 68.5 Q156 56 185 56 L339 56 Q431 56 481.5 14 Q532 -28 532 -103 Q532 -179 475 -222.5 Q418 -266 318 -266 Q264 -266 218.5 -252 Q173 -238 140.5 -213.5 Q108 -189 90 -156.5 Q72 -124 73 -86 L117 -47 Q69 -36 42.5 -1 Q16 34 18 82 Q19 127 47.5 162 Q76 197 118 210 Q98 236 87 267 Q76 298 76 333 Z M178 333 Q178 312 186 293.5 Q194 275 207.5 261.5 Q221 248 239.5 240 Q258 232 279 232 Q300 232 319 240 Q338 248 351.5 261.5 Q365 275 373 293.5 Q381 312 381 333 Q381 376 351.5 405.5 Q322 435 279 435 Q258 435 239.5 427 Q221 419 207.5 405.5 Q194 392 186 373 Q178 354 178 333 Z M318 -165 Q421 -165 421 -103 Q421 -78 400.5 -62.5 Q380 -47 339 -47 L163 -47 Q162 -71 173.5 -92.5 Q185 -114 206 -130 Q227 -146 256 -155.5 Q285 -165 318 -165 Z M352 842 L307 745 Q333 740 351 719 Q369 698 369 670 Q369 638 347 615.5 Q325 593 293 593 Q272 593 255 603.5 Q238 614 228.5 630.5 Q219 647 218 667.5 Q217 688 227 709 L301 866 L352 842 Z " />
<glyph glyph-name="gdotaccent" unicode="&#x121;" horiz-adv-x="568" d="M76 333 Q76 375 92 412.5 Q108 450 135.5 478 Q163 506 200 522 Q237 538 279 538 Q322 538 359 522 Q396 506 424 477 Q479 512 549 512 L557 512 L557 416 L460 416 Q471 399 477.5 377.5 Q484 356 484 333 Q484 291 468 254 Q452 217 424 189.5 Q396 162 358.5 146 Q321 130 279 130 Q252 130 225.5 138.5 Q199 147 178 161 Q152 157 135.5 144 Q119 131 119 106 Q119 81 137.5 68.5 Q156 56 185 56 L339 56 Q431 56 481.5 14 Q532 -28 532 -103 Q532 -179 475 -222.5 Q418 -266 318 -266 Q264 -266 218.5 -252 Q173 -238 140.5 -213.5 Q108 -189 90 -156.5 Q72 -124 73 -86 L117 -47 Q69 -36 42.5 -1 Q16 34 18 82 Q19 127 47.5 162 Q76 197 118 210 Q98 236 87 267 Q76 298 76 333 Z M178 333 Q178 312 186 293.5 Q194 275 207.5 261.5 Q221 248 239.5 240 Q258 232 279 232 Q300 232 319 240 Q338 248 351.5 261.5 Q365 275 373 293.5 Q381 312 381 333 Q381 376 351.5 405.5 Q322 435 279 435 Q258 435 239.5 427 Q221 419 207.5 405.5 Q194 392 186 373 Q178 354 178 333 Z M318 -165 Q421 -165 421 -103 Q421 -78 400.5 -62.5 Q380 -47 339 -47 L163 -47 Q162 -71 173.5 -92.5 Q185 -114 206 -130 Q227 -146 256 -155.5 Q285 -165 318 -165 Z M207 663 Q207 695 229.5 717.5 Q252 740 284 740 Q316 740 338.5 717.5 Q361 695 361 663 Q361 631 338.5 608.5 Q316 586 284 586 Q252 586 229.5 608.5 Q207 631 207 663 Z " />
<glyph glyph-name="racute" unicode="&#x155;" horiz-adv-x="376" d="M192 0 L82 0 L82 512 L177 512 L177 436 Q206 472 247.5 492 Q289 512 338 512 L366 512 L366 416 L338 416 Q306 416 279 405 Q252 394 232.5 374.5 Q213 355 202.5 328 Q192 301 192 270 L192 0 Z M150 567 L121 596 L230 738 Q242 754 262 755 Q282 756 296 742 Q310 728 309 707.5 Q308 687 293 676 L150 567 Z " />
<glyph glyph-name="rcaron" unicode="&#x159;" horiz-adv-x="376" d="M192 0 L82 0 L82 512 L177 512 L177 436 Q206 472 247.5 492 Q289 512 338 512 L366 512 L366 416 L338 416 Q306 416 279 405 Q252 394 232.5 374.5 Q213 355 202.5 328 Q192 301 192 270 L192 0 Z M197 644 L292 740 L332 700 L196 564 L60 700 L100 740 L197 644 Z " />
<glyph glyph-name="rcommaaccent" unicode="&#x157;" horiz-adv-x="376" d="M192 0 L82 0 L82 512 L177 512 L177 436 Q206 472 247.5 492 Q289 512 338 512 L366 512 L366 416 L338 416 Q306 416 279 405 Q252 394 232.5 374.5 Q213 355 202.5 328 Q192 301 192 270 L192 0 Z M94 -233 L126 -166 Q108 -162 96 -148.5 Q84 -135 84 -116 Q84 -94 99 -79 Q114 -64 135 -64 Q149 -64 160.5 -71 Q172 -78 178.5 -89 Q185 -100 185.5 -114 Q186 -128 180 -142 L129 -250 L94 -233 Z " />
<glyph glyph-name="sacute" unicode="&#x15b;" horiz-adv-x="532" d="M162 373 Q162 353 177 340 Q192 327 219 319 L337 288 Q415 268 451 228.5 Q487 189 487 133 Q487 101 474.5 74 Q462 47 436.5 27 Q411 7 372.5 -4.5 Q334 -16 282 -16 Q242 -16 206 -8 Q170 0 140 14 Q110 28 87 46.5 Q64 65 51 86 L133 145 Q156 114 198 97 Q240 80 282 80 Q327 80 351 95 Q375 110 375 133 Q375 151 362 165.5 Q349 180 316 189 L207 218 Q126 239 89 278.5 Q52 318 52 373 Q52 404 65.5 432 Q79 460 105.5 481 Q132 502 171 514.5 Q210 527 260 527 Q305 527 344 513.5 Q383 500 412 477 Q441 454 458 422 Q475 390 475 354 L367 354 Q366 369 358 383.5 Q350 398 335.5 409.5 Q321 421 302 427.5 Q283 434 260 434 Q208 434 185 415 Q162 396 162 373 Z M270 567 L241 596 L350 738 Q362 754 382.5 755 Q403 756 417 742 Q430 728 429 707.5 Q428 687 413 676 L270 567 Z " />
<glyph glyph-name="scaron" unicode="&#x161;" horiz-adv-x="532" d="M162 373 Q162 353 177 340 Q192 327 219 319 L337 288 Q415 268 451 228.5 Q487 189 487 133 Q487 101 474.5 74 Q462 47 436.5 27 Q411 7 372.5 -4.5 Q334 -16 282 -16 Q242 -16 206 -8 Q170 0 140 14 Q110 28 87 46.5 Q64 65 51 86 L133 145 Q156 114 198 97 Q240 80 282 80 Q327 80 351 95 Q375 110 375 133 Q375 151 362 165.5 Q349 180 316 189 L207 218 Q126 239 89 278.5 Q52 318 52 373 Q52 404 65.5 432 Q79 460 105.5 481 Q132 502 171 514.5 Q210 527 260 527 Q305 527 344 513.5 Q383 500 412 477 Q441 454 458 422 Q475 390 475 354 L367 354 Q366 369 358 383.5 Q350 398 335.5 409.5 Q321 421 302 427.5 Q283 434 260 434 Q208 434 185 415 Q162 396 162 373 Z M269 644 L364 740 L404 700 L268 564 L132 700 L172 740 L269 644 Z " />
<glyph glyph-name="scedilla" unicode="&#x15f;" horiz-adv-x="532" d="M162 373 Q162 353 177 340 Q192 327 219 319 L337 288 Q415 268 451 228.5 Q487 189 487 133 Q487 73 442 31.5 Q397 -10 303 -15 L303 -44 Q332 -52 351.5 -77.5 Q371 -103 371 -136 Q371 -177 343 -204.5 Q315 -232 275 -232 Q255 -232 238 -224.5 Q221 -217 207 -204 L247 -165 Q260 -176 275 -176 Q292 -176 303.5 -164.5 Q315 -153 315 -136 Q315 -119 303.5 -107.5 Q292 -96 275 -96 Q257 -96 246 -107 L207 -68 Q223 -50 247 -44 L247 -14 Q179 -7 127 21 Q75 49 51 86 L133 145 Q156 114 198 97 Q240 80 282 80 Q327 80 351 95 Q375 110 375 133 Q375 151 362 165.5 Q349 180 316 189 L207 218 Q126 239 89 278.5 Q52 318 52 373 Q52 404 65.5 432 Q79 460 105.5 481 Q132 502 171 514.5 Q210 527 260 527 Q305 527 344 513.5 Q383 500 412 477 Q441 454 458 422 Q475 390 475 354 L367 354 Q366 369 358 383.5 Q350 398 335.5 409.5 Q321 421 302 427.5 Q283 434 260 434 Q208 434 185 415 Q162 396 162 373 Z " />
<glyph glyph-name="scircumflex" unicode="&#x15d;" horiz-adv-x="532" d="M162 373 Q162 353 177 340 Q192 327 219 319 L337 288 Q415 268 451 228.5 Q487 189 487 133 Q487 101 474.5 74 Q462 47 436.5 27 Q411 7 372.5 -4.5 Q334 -16 282 -16 Q242 -16 206 -8 Q170 0 140 14 Q110 28 87 46.5 Q64 65 51 86 L133 145 Q156 114 198 97 Q240 80 282 80 Q327 80 351 95 Q375 110 375 133 Q375 151 362 165.5 Q349 180 316 189 L207 218 Q126 239 89 278.5 Q52 318 52 373 Q52 404 65.5 432 Q79 460 105.5 481 Q132 502 171 514.5 Q210 527 260 527 Q305 527 344 513.5 Q383 500 412 477 Q441 454 458 422 Q475 390 475 354 L367 354 Q366 369 358 383.5 Q350 398 335.5 409.5 Q321 421 302 427.5 Q283 434 260 434 Q208 434 185 415 Q162 396 162 373 Z M267 660 L172 564 L132 604 L268 740 L404 604 L364 564 L267 660 Z " />
<glyph glyph-name="scommaaccent" unicode="&#x219;" horiz-adv-x="532" d="M162 373 Q162 353 177 340 Q192 327 219 319 L337 288 Q415 268 451 228.5 Q487 189 487 133 Q487 101 474.5 74 Q462 47 436.5 27 Q411 7 372.5 -4.5 Q334 -16 282 -16 Q242 -16 206 -8 Q170 0 140 14 Q110 28 87 46.5 Q64 65 51 86 L133 145 Q156 114 198 97 Q240 80 282 80 Q327 80 351 95 Q375 110 375 133 Q375 151 362 165.5 Q349 180 316 189 L207 218 Q126 239 89 278.5 Q52 318 52 373 Q52 404 65.5 432 Q79 460 105.5 481 Q132 502 171 514.5 Q210 527 260 527 Q305 527 344 513.5 Q383 500 412 477 Q441 454 458 422 Q475 390 475 354 L367 354 Q366 369 358 383.5 Q350 398 335.5 409.5 Q321 421 302 427.5 Q283 434 260 434 Q208 434 185 415 Q162 396 162 373 Z M222 -233 L254 -166 Q236 -162 224 -148.5 Q212 -135 212 -116 Q212 -94 227 -79 Q242 -64 263 -64 Q277 -64 288.5 -71 Q300 -78 306.5 -89 Q313 -100 313.5 -114 Q314 -128 308 -142 L257 -250 L222 -233 Z " />
<glyph glyph-name="tbar" unicode="&#x167;" horiz-adv-x="368" d="M128 0 L128 220 L40 196 L22 260 L128 288 L128 416 L10 416 L10 512 L128 512 L128 640 L238 640 L238 512 L356 512 L356 416 L238 416 L238 317 L325 341 L343 277 L238 249 L238 0 L128 0 Z " />
<glyph glyph-name="tcaron" unicode="&#x165;" horiz-adv-x="582" d="M128 0 L128 416 L10 416 L10 512 L128 512 L128 640 L238 640 L238 512 L356 512 L356 416 L238 416 L238 0 L128 0 Z M417 487 L462 583 Q436 588 418 609 Q400 630 400 659 Q400 691 422 713 Q444 735 476 735 Q498 735 514.5 724.5 Q531 714 540.5 697.5 Q550 681 551 660.5 Q552 640 542 619 L468 462 L417 487 Z " />
<glyph glyph-name="tcommaaccent" unicode="&#x163;" horiz-adv-x="368" d="M128 0 L128 416 L10 416 L10 512 L128 512 L128 640 L238 640 L238 512 L356 512 L356 416 L238 416 L238 0 L128 0 Z M139 -233 L170 -166 Q152 -162 140.5 -148.5 Q129 -135 129 -116 Q129 -94 144 -79 Q159 -64 179 -64 Q202 -64 216 -80.5 Q230 -97 229 -118 Q227 -134 222 -146 L173 -250 L139 -233 Z " />
<glyph glyph-name="uacute" unicode="&#xfa;" horiz-adv-x="652" d="M63 512 L171 512 L171 245 Q171 213 180 184.5 Q189 156 207.5 135 Q226 114 253 101.5 Q280 89 316 89 Q346 89 372.5 100 Q399 111 418.5 132 Q438 153 449.5 182.5 Q461 212 462 249 L462 512 L570 512 L570 0 L462 0 L462 76 Q450 60 432.5 44.5 Q415 29 392.5 17 Q370 5 344 -2.5 Q318 -10 290 -10 Q240 -10 198.5 8.5 Q157 27 127 60.5 Q97 94 80 142 Q63 190 63 250 L63 512 Z M305 567 L275 596 L385 738 Q396 754 416.5 755 Q437 756 451 742 Q465 728 464 707.5 Q463 687 447 676 L305 567 Z " />
<glyph glyph-name="ubreve" unicode="&#x16d;" horiz-adv-x="652" d="M63 512 L171 512 L171 245 Q171 213 180 184.5 Q189 156 207.5 135 Q226 114 253 101.5 Q280 89 316 89 Q346 89 372.5 100 Q399 111 418.5 132 Q438 153 449.5 182.5 Q461 212 462 249 L462 512 L570 512 L570 0 L462 0 L462 76 Q450 60 432.5 44.5 Q415 29 392.5 17 Q370 5 344 -2.5 Q318 -10 290 -10 Q240 -10 198.5 8.5 Q157 27 127 60.5 Q97 94 80 142 Q63 190 63 250 L63 512 Z M205 696 L273 696 L273 676 Q273 655 287 641 Q301 627 322 627 Q343 627 357 641 Q371 655 371 676 L371 696 L439 696 L439 681 Q439 657 430 635.5 Q421 614 405 598 Q389 582 367.5 573 Q346 564 322 564 Q298 564 276.5 573 Q255 582 239 598 Q223 614 214 635.5 Q205 657 205 681 L205 696 Z " />
<glyph glyph-name="ucircumflex" unicode="&#xfb;" horiz-adv-x="652" d="M63 512 L171 512 L171 245 Q171 213 180 184.5 Q189 156 207.5 135 Q226 114 253 101.5 Q280 89 316 89 Q346 89 372.5 100 Q399 111 418.5 132 Q438 153 449.5 182.5 Q461 212 462 249 L462 512 L570 512 L570 0 L462 0 L462 76 Q450 60 432.5 44.5 Q415 29 392.5 17 Q370 5 344 -2.5 Q318 -10 290 -10 Q240 -10 198.5 8.5 Q157 27 127 60.5 Q97 94 80 142 Q63 190 63 250 L63 512 Z M321 660 L226 564 L186 604 L322 740 L458 604 L418 564 L321 660 Z " />
<glyph glyph-name="udieresis" unicode="&#xfc;" horiz-adv-x="652" d="M63 512 L171 512 L171 245 Q171 213 180 184.5 Q189 156 207.5 135 Q226 114 253 101.5 Q280 89 316 89 Q346 89 372.5 100 Q399 111 418.5 132 Q438 153 449.5 182.5 Q461 212 462 249 L462 512 L570 512 L570 0 L462 0 L462 76 Q450 60 432.5 44.5 Q415 29 392.5 17 Q370 5 344 -2.5 Q318 -10 290 -10 Q240 -10 198.5 8.5 Q157 27 127 60.5 Q97 94 80 142 Q63 190 63 250 L63 512 Z M141 663 Q141 695 163.5 717.5 Q186 740 218 740 Q250 740 272.5 717.5 Q295 695 295 663 Q295 631 272.5 608.5 Q250 586 218 586 Q186 586 163.5 608.5 Q141 631 141 663 Z M349 663 Q349 695 371.5 717.5 Q394 740 426 740 Q458 740 480.5 717.5 Q503 695 503 663 Q503 631 480.5 608.5 Q458 586 426 586 Q394 586 371.5 608.5 Q349 631 349 663 Z " />
<glyph glyph-name="uhungarumlaut" unicode="&#x171;" horiz-adv-x="652" d="M63 512 L171 512 L171 245 Q171 213 180 184.5 Q189 156 207.5 135 Q226 114 253 101.5 Q280 89 316 89 Q346 89 372.5 100 Q399 111 418.5 132 Q438 153 449.5 182.5 Q461 212 462 249 L462 512 L570 512 L570 0 L462 0 L462 76 Q450 60 432.5 44.5 Q415 29 392.5 17 Q370 5 344 -2.5 Q318 -10 290 -10 Q240 -10 198.5 8.5 Q157 27 127 60.5 Q97 94 80 142 Q63 190 63 250 L63 512 Z M211 567 L181 596 L291 738 Q302 754 322.5 755 Q343 756 357 742 Q371 728 370 707.5 Q369 687 353 676 L211 567 Z M399 567 L369 596 L479 738 Q490 754 510.5 755 Q531 756 545 742 Q559 728 558 707.5 Q557 687 541 676 L399 567 Z " />
<glyph glyph-name="ugrave" unicode="&#xf9;" horiz-adv-x="652" d="M63 512 L171 512 L171 245 Q171 213 180 184.5 Q189 156 207.5 135 Q226 114 253 101.5 Q280 89 316 89 Q346 89 372.5 100 Q399 111 418.5 132 Q438 153 449.5 182.5 Q461 212 462 249 L462 512 L570 512 L570 0 L462 0 L462 76 Q450 60 432.5 44.5 Q415 29 392.5 17 Q370 5 344 -2.5 Q318 -10 290 -10 Q240 -10 198.5 8.5 Q157 27 127 60.5 Q97 94 80 142 Q63 190 63 250 L63 512 Z M197 676 Q181 687 180 707.5 Q179 728 193 742 Q207 756 227.5 755 Q248 754 259 738 L369 596 L339 567 L197 676 Z " />
<glyph glyph-name="umacron" unicode="&#x16b;" horiz-adv-x="652" d="M63 512 L171 512 L171 245 Q171 213 180 184.5 Q189 156 207.5 135 Q226 114 253 101.5 Q280 89 316 89 Q346 89 372.5 100 Q399 111 418.5 132 Q438 153 449.5 182.5 Q461 212 462 249 L462 512 L570 512 L570 0 L462 0 L462 76 Q450 60 432.5 44.5 Q415 29 392.5 17 Q370 5 344 -2.5 Q318 -10 290 -10 Q240 -10 198.5 8.5 Q157 27 127 60.5 Q97 94 80 142 Q63 190 63 250 L63 512 Z M475 587 L169 587 L169 654 L475 654 L475 587 Z " />
<glyph glyph-name="uogonek" unicode="&#x173;" horiz-adv-x="652" d="M167 -78 Q167 -52 176 -30.5 Q185 -9 201 7 Q138 33 100.5 96 Q63 159 63 250 L63 512 L171 512 L171 245 Q171 213 180 184.5 Q189 156 207.5 135 Q226 114 253 101.5 Q280 89 316 89 Q377 89 418 132 Q459 175 462 249 L462 512 L570 512 L570 0 L462 0 L462 76 Q438 43 392.5 16.5 Q347 -10 290 -10 L285 -10 Q259 -12 241 -32 Q223 -52 223 -78 Q223 -107 242.5 -126 Q262 -145 290 -145 Q318 -145 337.5 -126 Q357 -107 357 -78 L413 -78 Q413 -104 403.5 -126.5 Q394 -149 377 -166 Q360 -183 337.5 -192.5 Q315 -202 290 -202 Q264 -202 242 -192.5 Q220 -183 203 -166 Q186 -149 176.5 -126.5 Q167 -104 167 -78 Z " />
<glyph glyph-name="uring" unicode="&#x16f;" horiz-adv-x="652" d="M63 512 L171 512 L171 245 Q171 213 180 184.5 Q189 156 207.5 135 Q226 114 253 101.5 Q280 89 316 89 Q346 89 372.5 100 Q399 111 418.5 132 Q438 153 449.5 182.5 Q461 212 462 249 L462 512 L570 512 L570 0 L462 0 L462 76 Q450 60 432.5 44.5 Q415 29 392.5 17 Q370 5 344 -2.5 Q318 -10 290 -10 Q240 -10 198.5 8.5 Q157 27 127 60.5 Q97 94 80 142 Q63 190 63 250 L63 512 Z M226 672 Q226 712 254 740 Q282 768 322 768 Q362 768 390 740 Q418 712 418 672 Q418 632 390 604 Q362 576 322 576 Q282 576 254 604 Q226 632 226 672 Z M282 672 Q282 655 293.5 643.5 Q305 632 322 632 Q339 632 350.5 643.5 Q362 655 362 672 Q362 689 350.5 700.5 Q339 712 322 712 Q305 712 293.5 700.5 Q282 689 282 672 Z " />
<glyph glyph-name="utilde" unicode="&#x169;" horiz-adv-x="652" d="M63 512 L171 512 L171 245 Q171 213 180 184.5 Q189 156 207.5 135 Q226 114 253 101.5 Q280 89 316 89 Q346 89 372.5 100 Q399 111 418.5 132 Q438 153 449.5 182.5 Q461 212 462 249 L462 512 L570 512 L570 0 L462 0 L462 76 Q450 60 432.5 44.5 Q415 29 392.5 17 Q370 5 344 -2.5 Q318 -10 290 -10 Q240 -10 198.5 8.5 Q157 27 127 60.5 Q97 94 80 142 Q63 190 63 250 L63 512 Z M382 708 Q404 708 422.5 699.5 Q441 691 453.5 677 Q466 663 473 644.5 Q480 626 480 605 L420 605 Q420 626 409.5 638.5 Q399 651 382 651 Q368 651 357 642 Q346 633 333 621.5 Q320 610 304 601 Q288 592 263 592 Q240 592 221.5 600 Q203 608 190 622 Q177 636 170.5 654.5 Q164 673 164 694 L225 694 Q225 673 234.5 660.5 Q244 648 263 648 Q276 648 287 657.5 Q298 667 311 678 Q324 689 340.5 698.5 Q357 708 382 708 Z " />
<glyph glyph-name="wacute" unicode="&#x1e83;" horiz-adv-x="784" d="M555 100 L561 100 L651 512 L767 512 L645 0 L482 0 L396 334 L388 334 L302 0 L139 0 L17 512 L133 512 L223 100 L229 100 L334 512 L450 512 L555 100 Z M395 567 L366 596 L475 738 Q486 754 506.5 755 Q527 756 541 742 Q555 728 554 707.5 Q553 687 537 676 L395 567 Z " />
<glyph glyph-name="wcircumflex" unicode="&#x175;" horiz-adv-x="784" d="M555 100 L561 100 L651 512 L767 512 L645 0 L482 0 L396 334 L388 334 L302 0 L139 0 L17 512 L133 512 L223 100 L229 100 L334 512 L450 512 L555 100 Z M391 660 L296 564 L256 604 L392 740 L528 604 L488 564 L391 660 Z " />
<glyph glyph-name="wdieresis" unicode="&#x1e85;" horiz-adv-x="784" d="M555 100 L561 100 L651 512 L767 512 L645 0 L482 0 L396 334 L388 334 L302 0 L139 0 L17 512 L133 512 L223 100 L229 100 L334 512 L450 512 L555 100 Z M212 663 Q212 695 234 717.5 Q256 740 288 740 Q320 740 342.5 717.5 Q365 695 365 663 Q365 631 342.5 608.5 Q320 586 288 586 Q256 586 234 608.5 Q212 631 212 663 Z M420 663 Q420 695 442 717.5 Q464 740 496 740 Q528 740 550.5 717.5 Q573 695 573 663 Q573 631 550.5 608.5 Q528 586 496 586 Q464 586 442 608.5 Q420 631 420 663 Z " />
<glyph glyph-name="wgrave" unicode="&#x1e81;" horiz-adv-x="784" d="M555 100 L561 100 L651 512 L767 512 L645 0 L482 0 L396 334 L388 334 L302 0 L139 0 L17 512 L133 512 L223 100 L229 100 L334 512 L450 512 L555 100 Z M247 676 Q232 687 231 707.5 Q230 728 243 742 Q257 756 277.5 755 Q298 754 310 738 L419 596 L390 567 L247 676 Z " />
<glyph glyph-name="yacute" unicode="&#xfd;" horiz-adv-x="572" d="M288 110 L433 512 L555 512 L340 -47 L340 -256 L232 -256 L232 -49 L17 512 L139 512 L283 110 L288 110 Z M278 567 L249 596 L358 738 Q369 754 389.5 755 Q410 756 424 742 Q438 728 437 707.5 Q436 687 420 676 L278 567 Z " />
<glyph glyph-name="ycircumflex" unicode="&#x177;" horiz-adv-x="572" d="M288 110 L433 512 L555 512 L340 -47 L340 -256 L232 -256 L232 -49 L17 512 L139 512 L283 110 L288 110 Z M284 660 L189 564 L149 604 L285 740 L421 604 L381 564 L284 660 Z " />
<glyph glyph-name="ydieresis" unicode="&#xff;" horiz-adv-x="572" d="M288 110 L433 512 L555 512 L340 -47 L340 -256 L232 -256 L232 -49 L17 512 L139 512 L283 110 L288 110 Z M105 663 Q105 695 127 717.5 Q149 740 181 740 Q213 740 235.5 717.5 Q258 695 258 663 Q258 631 235.5 608.5 Q213 586 181 586 Q149 586 127 608.5 Q105 631 105 663 Z M313 663 Q313 695 335 717.5 Q357 740 389 740 Q421 740 443.5 717.5 Q466 695 466 663 Q466 631 443.5 608.5 Q421 586 389 586 Q357 586 335 608.5 Q313 631 313 663 Z " />
<glyph glyph-name="ygrave" unicode="&#x1ef3;" horiz-adv-x="572" d="M288 110 L433 512 L555 512 L340 -47 L340 -256 L232 -256 L232 -49 L17 512 L139 512 L283 110 L288 110 Z M150 676 Q135 687 134 707.5 Q133 728 147 742 Q161 756 181 755 Q201 754 213 738 L322 596 L293 567 L150 676 Z " />
<glyph glyph-name="oslashacute" unicode="&#x1ff;" horiz-adv-x="630" d="M50 256 Q50 311 70.5 359.5 Q91 408 127 444 Q163 480 211.5 500.5 Q260 521 315 521 Q358 521 397.5 508 Q437 495 469 472 L512 515 L574 453 L531 410 Q554 378 567 338.5 Q580 299 580 256 Q580 201 559.5 152.5 Q539 104 503 68 Q467 32 418.5 11.5 Q370 -9 315 -9 Q271 -9 232 4 Q193 17 161 40 L118 -3 L56 59 L99 102 Q76 134 63 173 Q50 212 50 256 Z M315 97 Q348 97 377 109 Q406 121 427 142.5 Q448 164 460.5 193 Q473 222 473 256 Q473 277 467.5 296 Q462 315 452 331 L238 118 Q255 108 274 102.5 Q293 97 315 97 Z M157 256 Q157 214 177 180 L391 394 Q374 404 355 409.5 Q336 415 315 415 Q282 415 253 403 Q224 391 203 369.5 Q182 348 169.5 319 Q157 290 157 256 Z M318 567 L288 596 L398 738 Q409 754 429.5 755 Q450 756 464 742 Q478 728 477 707.5 Q476 687 460 676 L318 567 Z " />
<glyph glyph-name="otilde" unicode="&#xf5;" horiz-adv-x="630" d="M50 256 Q50 311 70.5 359.5 Q91 408 127 444 Q163 480 211.5 500.5 Q260 521 315 521 Q370 521 418.5 500.5 Q467 480 503 444 Q539 408 559.5 359.5 Q580 311 580 256 Q580 201 559.5 152.5 Q539 104 503 68 Q467 32 418.5 11.5 Q370 -9 315 -9 Q260 -9 211.5 11.5 Q163 32 127 68 Q91 104 70.5 152.5 Q50 201 50 256 Z M157 256 Q157 222 169.5 193 Q182 164 203 142.5 Q224 121 253 109 Q282 97 315 97 Q348 97 377 109 Q406 121 427 142.5 Q448 164 460.5 193 Q473 222 473 256 Q473 290 460.5 319 Q448 348 427 369.5 Q406 391 377 403 Q348 415 315 415 Q282 415 253 403 Q224 391 203 369.5 Q182 348 169.5 319 Q157 290 157 256 Z M374 708 Q396 708 414.5 699.5 Q433 691 446 677 Q459 663 466 644.5 Q473 626 473 605 L412 605 Q412 626 402 638.5 Q392 651 374 651 Q360 651 349 642 Q338 633 325.5 621.5 Q313 610 296.5 601 Q280 592 255 592 Q232 592 214 600 Q196 608 183 622 Q170 636 163 654.5 Q156 673 156 694 L217 694 Q217 673 227 660.5 Q237 648 255 648 Q269 648 280 657.5 Q291 667 303.5 678 Q316 689 332.5 698.5 Q349 708 374 708 Z " />
<glyph glyph-name="approxequal" unicode="&#x2248;" horiz-adv-x="571" d="M372 447 Q405 447 431.5 434.5 Q458 422 477 401.5 Q496 381 506 353.5 Q516 326 516 296 L429 296 Q429 328 413.5 347 Q398 366 372 366 Q351 366 334.5 352 Q318 338 299 320.5 Q280 303 256 289 Q232 275 196 275 Q163 275 136 287 Q109 299 90 320 Q71 341 61 368.5 Q51 396 51 426 L138 426 Q138 394 153 375 Q168 356 196 356 Q216 356 232.5 370 Q249 384 268 401.5 Q287 419 311.5 433 Q336 447 372 447 Z M374 227 Q407 227 433.5 214.5 Q460 202 479 181.5 Q498 161 508 133.5 Q518 106 518 76 L431 76 Q431 108 415.5 127 Q400 146 374 146 Q353 146 336.5 132 Q320 118 301 100.5 Q282 83 258 69 Q234 55 198 55 Q165 55 138 67 Q111 79 92 100 Q73 121 63 148.5 Q53 176 53 206 L140 206 Q140 174 155 155 Q170 136 198 136 Q218 136 234.5 150 Q251 164 270 181.5 Q289 199 313.5 213 Q338 227 374 227 Z " />
<glyph glyph-name="fraction" unicode="&#x2044;" horiz-adv-x="838" d="M712 738 L788 662 L126 0 L50 76 L712 738 Z " />
<glyph glyph-name="section" unicode="&#xa7;" horiz-adv-x="547" d="M167 615 Q167 595 182.5 581 Q198 567 227 559 L351 527 Q432 507 469.5 465.5 Q507 424 507 365 Q507 331 491.5 302 Q476 273 445 253 Q477 230 492 201 Q507 172 507 136 Q507 103 494 74.5 Q481 46 454 25 Q427 4 387 -8 Q347 -20 293 -20 Q251 -20 213.5 -11.5 Q176 -3 144.5 12 Q113 27 89 46.5 Q65 66 51 88 L138 150 Q150 134 167.5 121 Q185 108 205.5 99 Q226 90 248.5 85.5 Q271 81 293 81 Q339 81 364.5 97 Q390 113 390 136 Q390 156 376 170.5 Q362 185 328 195 L214 226 Q129 248 90.5 289 Q52 330 52 387 Q52 420 68.5 449.5 Q85 479 117 499 Q52 543 52 615 Q52 648 66 677 Q80 706 108 728.5 Q136 751 176 764 Q216 777 269 777 Q316 777 357 763 Q398 749 429 724.5 Q460 700 477.5 667 Q495 634 495 596 L381 596 Q380 612 371.5 627 Q363 642 348 654 Q333 666 313 673 Q293 680 269 680 Q215 680 191 659.5 Q167 639 167 615 Z M167 387 Q167 367 182.5 352.5 Q198 338 227 330 L305 309 Q347 312 368.5 327.5 Q390 343 390 365 Q390 384 376 399 Q362 414 328 424 L238 447 Q204 442 185.5 424.5 Q167 407 167 387 Z " />
<glyph glyph-name="Eng" unicode="&#x14a;" horiz-adv-x="801" d="M435 0 Q435 -18 442 -33.5 Q449 -49 460.5 -60.5 Q472 -72 487.5 -79 Q503 -86 521 -86 Q539 -86 554.5 -79 Q570 -72 581.5 -60.5 Q593 -49 600 -33.5 Q607 -18 607 0 L607 89 L197 487 L197 0 L82 0 L82 730 L93 735 L604 248 L604 735 L719 735 L719 0 Q719 -41 703.5 -77 Q688 -113 661 -140 Q634 -167 598 -182.5 Q562 -198 521 -198 Q480 -198 444 -182.5 Q408 -167 381 -140 Q354 -113 338.5 -77 Q323 -41 323 0 L435 0 Z " />
<glyph glyph-name="eng" unicode="&#x14b;" horiz-adv-x="660" d="M328 -80 Q328 -112 349.5 -135 Q371 -158 404 -158 Q436 -158 458.5 -136 Q481 -114 481 -80 L481 267 Q481 299 472 327.5 Q463 356 444.5 377 Q426 398 399 410.5 Q372 423 336 423 Q306 423 279.5 412 Q253 401 233.5 380 Q214 359 202.5 329.5 Q191 300 190 263 L190 0 L82 0 L82 512 L190 512 L190 436 Q202 452 219.5 467.5 Q237 483 259.5 495 Q282 507 308 514.5 Q334 522 362 522 Q411 522 453 503.5 Q495 485 525 451.5 Q555 418 572 370 Q589 322 589 262 L589 -80 Q589 -120 574.5 -154 Q560 -188 535 -213 Q510 -238 476 -252 Q442 -266 404 -266 Q365 -266 331.5 -251 Q298 -236 273 -210.5 Q248 -185 233.5 -151.5 Q219 -118 219 -80 L328 -80 Z " />
<glyph glyph-name="Eth" unicode="&#xd0;" horiz-adv-x="699" d="M90 0 L90 298 L3 274 L-14 338 L90 365 L90 735 L298 735 Q374 735 440.5 706 Q507 677 557 627 Q607 577 636 510.5 Q665 444 665 368 Q665 292 636 225 Q607 158 557 108 Q507 58 440.5 29 Q374 0 298 0 L90 0 Z M289 419 L306 355 L206 329 L206 108 L292 108 Q347 108 394.5 128 Q442 148 476.5 183 Q511 218 531 265.5 Q551 313 551 368 Q551 423 531 470.5 Q511 518 476 552.5 Q441 587 393.5 607 Q346 627 292 627 L206 627 L206 397 L289 419 Z " />
<glyph glyph-name="Dcroat" unicode="&#x110;" horiz-adv-x="699" d="M90 0 L90 298 L3 274 L-14 338 L90 365 L90 735 L298 735 Q374 735 440.5 706 Q507 677 557 627 Q607 577 636 510.5 Q665 444 665 368 Q665 292 636 225 Q607 158 557 108 Q507 58 440.5 29 Q374 0 298 0 L90 0 Z M289 419 L306 355 L206 329 L206 108 L292 108 Q347 108 394.5 128 Q442 148 476.5 183 Q511 218 531 265.5 Q551 313 551 368 Q551 423 531 470.5 Q511 518 476 552.5 Q441 587 393.5 607 Q346 627 292 627 L206 627 L206 397 L289 419 Z " />
<glyph glyph-name="dcroat" unicode="&#x111;" horiz-adv-x="643" d="M51 256 Q51 309 70 356 Q89 403 122 437.5 Q155 472 200.5 492 Q246 512 300 512 Q346 512 386.5 492 Q427 472 452 442 L452 571 L362 547 L345 611 L452 639 L452 768 L561 768 L561 668 L648 692 L665 628 L561 600 L561 0 L452 0 L452 70 Q427 39 387 19.5 Q347 0 300 0 Q246 0 200.5 20 Q155 40 122 74.5 Q89 109 70 156 Q51 203 51 256 Z M470 256 Q470 289 458 317.5 Q446 346 425.5 367 Q405 388 377 400 Q349 412 316 412 Q283 412 254.5 400 Q226 388 205 367 Q184 346 171.5 317.5 Q159 289 159 256 Q159 223 171.5 194.5 Q184 166 205 145 Q226 124 254.5 112 Q283 100 316 100 Q349 100 377 112 Q405 124 425.5 145 Q446 166 458 194.5 Q470 223 470 256 Z " />
<glyph glyph-name="zacute" unicode="&#x17a;" horiz-adv-x="507" d="M457 97 L457 0 L60 0 L45 25 L296 416 L61 416 L61 512 L448 512 L462 487 L212 97 L457 97 Z M256 567 L227 596 L336 738 Q347 754 367.5 755 Q388 756 402 742 Q416 728 415 707.5 Q414 687 398 676 L256 567 Z " />
<glyph glyph-name="zcaron" unicode="&#x17e;" horiz-adv-x="507" d="M457 97 L457 0 L60 0 L45 25 L296 416 L61 416 L61 512 L448 512 L462 487 L212 97 L457 97 Z M254 644 L349 740 L389 700 L253 564 L117 700 L157 740 L254 644 Z " />
<glyph glyph-name="zdotaccent" unicode="&#x17c;" horiz-adv-x="507" d="M457 97 L457 0 L60 0 L45 25 L296 416 L61 416 L61 512 L448 512 L462 487 L212 97 L457 97 Z M177 663 Q177 695 199 717.5 Q221 740 253 740 Q285 740 307.5 717.5 Q330 695 330 663 Q330 631 307.5 608.5 Q285 586 253 586 Q221 586 199 608.5 Q177 631 177 663 Z " />
<glyph glyph-name="Thorn" unicode="&#xde;" horiz-adv-x="610" d="M197 113 L197 0 L82 0 L82 735 L197 735 L197 620 L339 620 Q392 620 438.5 600 Q485 580 519.5 545.5 Q554 511 573.5 465 Q593 419 593 366 Q593 313 573.5 267 Q554 221 519.5 187 Q485 153 438.5 133 Q392 113 339 113 L197 113 Z M331 213 Q363 213 391 225 Q419 237 439.5 257.5 Q460 278 472 306 Q484 334 484 366 Q484 399 472 427 Q460 455 439.5 475.5 Q419 496 391 508 Q363 520 331 520 L197 520 L197 213 L331 213 Z " />
<glyph glyph-name="dotlessj" unicode="&#x237;" horiz-adv-x="295" d="M93 -253 L93 512 L202 512 L202 -253 L93 -253 Z " />
<glyph glyph-name="jcircumflex" unicode="&#x135;" horiz-adv-x="295" d="M93 -253 L93 512 L202 512 L202 -253 L93 -253 Z M146 660 L52 564 L12 604 L148 740 L284 604 L244 564 L146 660 Z " />
<glyph glyph-name="Wacute" unicode="&#x1e82;" horiz-adv-x="921" d="M657 124 L667 124 L784 735 L902 735 L753 0 L578 0 L467 540 L455 540 L343 0 L168 0 L19 735 L138 735 L254 124 L264 124 L394 735 L527 735 L657 124 Z M463 790 L434 819 L543 961 Q555 977 575 978 Q595 979 609 965 Q623 951 622 930.5 Q621 910 606 899 L463 790 Z " />
<glyph glyph-name="Wcircumflex" unicode="&#x174;" horiz-adv-x="921" d="M657 124 L667 124 L784 735 L902 735 L753 0 L578 0 L467 540 L455 540 L343 0 L168 0 L19 735 L138 735 L254 124 L264 124 L394 735 L527 735 L657 124 Z M459 883 L365 787 L325 827 L461 963 L597 827 L557 787 L459 883 Z " />
<glyph glyph-name="Wdieresis" unicode="&#x1e84;" horiz-adv-x="921" d="M657 124 L667 124 L784 735 L902 735 L753 0 L578 0 L467 540 L455 540 L343 0 L168 0 L19 735 L138 735 L254 124 L264 124 L394 735 L527 735 L657 124 Z M280 886 Q280 918 302.5 940.5 Q325 963 357 963 Q389 963 411 940.5 Q433 918 433 886 Q433 854 411 831.5 Q389 809 357 809 Q325 809 302.5 831.5 Q280 854 280 886 Z M488 886 Q488 918 510.5 940.5 Q533 963 565 963 Q597 963 619 940.5 Q641 918 641 886 Q641 854 619 831.5 Q597 809 565 809 Q533 809 510.5 831.5 Q488 854 488 886 Z " />
<glyph glyph-name="Wgrave" unicode="&#x1e80;" horiz-adv-x="921" d="M657 124 L667 124 L784 735 L902 735 L753 0 L578 0 L467 540 L455 540 L343 0 L168 0 L19 735 L138 735 L254 124 L264 124 L394 735 L527 735 L657 124 Z M316 899 Q300 910 299 930.5 Q298 951 312 965 Q326 979 346.5 978 Q367 977 378 961 L487 819 L458 790 L316 899 Z " />
</font>
</svg>
