<?xml version="1.0" encoding="UTF-8"?>
<svg xmlns="http://www.w3.org/2000/svg" xmlns:xlink="http://www.w3.org/1999/xlink" version="1.2" >
<font id="Liber Grotesque Family Thin">
<font-face  font-family="Liber Grotesque Family" units-per-em="1000" ascent="768" descent="-256" font-style="normal" font-weight="100" font-stretch="normal" cap-height="735" x-height="512" underline-position="-106" underline-thickness="73" />
<missing-glyph  horiz-adv-x="830" d="M90 768 L730 768 L730 0 L90 0 L90 768 Z M700 27 L700 740 L120 740 L120 27 L700 27 Z M366 312 L404 312 Q436 312 464 324 Q492 336 513 357 Q534 378 546 406 Q558 434 558 466 Q558 498 546 526 Q534 554 513 575 Q492 596 464 608 Q436 620 404 620 Q372 620 344 608 Q316 596 295 575 Q274 554 262 526 Q250 498 250 466 L230 466 Q230 502 243.5 534 Q257 566 280.5 589.5 Q304 613 336 626.5 Q368 640 404 640 Q440 640 472 626.5 Q504 613 527.5 589.5 Q551 566 564.5 534 Q578 502 578 466 Q578 430 564.5 398 Q551 366 527.5 342.5 Q504 319 472 305.5 Q440 292 404 292 L366 292 L366 312 Z M381 151 Q381 161 388 168 Q395 175 405 175 Q414 175 421 168 Q428 161 428 151 Q428 142 421 135 Q414 128 405 128 Q395 128 388 135 Q381 142 381 151 Z " />
<glyph glyph-name="null" d="" />
<glyph glyph-name="nonmarkingreturn" unicode="&#xd;" horiz-adv-x="342" d="" />
<glyph glyph-name="space" unicode="&#x20;" horiz-adv-x="300" d="" />
<glyph glyph-name="quotedbl" unicode="&#x22;" horiz-adv-x="313" d="M88 548 L69 548 L51 729 Q49 740 56 750.5 Q63 761 78 761 Q93 761 100 750.5 Q107 740 105 728 L88 548 Z M245 548 L226 548 L208 729 Q206 740 213 750.5 Q220 761 235 761 Q250 761 257 750.5 Q264 740 262 728 L245 548 Z " />
<glyph glyph-name="numbersign" unicode="&#x23;" horiz-adv-x="729" d="M479 466 L252 466 L212 278 L438 278 L479 466 Z M227 492 L276 732 L307 732 L257 492 L483 492 L534 732 L564 732 L514 492 L655 492 L650 466 L509 466 L470 278 L611 278 L605 252 L464 252 L410 0 L380 0 L433 252 L208 252 L153 0 L123 0 L176 252 L43 252 L48 278 L181 278 L222 466 L88 466 L93 492 L227 492 Z " />
<glyph glyph-name="dollar" unicode="&#x24;" horiz-adv-x="602" d="M289 876 L319 876 L319 751 Q368 746 408 727.5 Q448 709 476 680.5 Q504 652 519 616.5 Q534 581 534 543 L506 543 Q506 580 491 613 Q476 646 448 671 Q420 696 380 710.5 Q340 725 291 725 Q244 725 206 714 Q168 703 141 683.5 Q114 664 99.5 636 Q85 608 85 574 Q85 547 92 524 Q99 501 115 481 Q131 461 157.5 444 Q184 427 223 412 L383 350 Q472 315 509.5 267 Q547 219 547 159 Q547 117 528.5 85 Q510 53 479 31 Q448 9 406.5 -3 Q365 -15 319 -16 L319 -128 L289 -128 L289 -15 Q220 -12 165.5 13.5 Q111 39 61 87 L82 107 Q136 56 189.5 34.5 Q243 13 308 13 Q354 13 392 23.5 Q430 34 458 53 Q486 72 501.5 99 Q517 126 517 159 Q517 216 480.5 256.5 Q444 297 371 325 L213 385 Q131 416 93 462 Q55 508 55 574 Q55 613 71.5 645.5 Q88 678 118.5 701.5 Q149 725 192.5 738.5 Q236 752 289 752 L289 876 Z " />
<glyph glyph-name="percent" unicode="&#x25;" horiz-adv-x="505" d="M455 678 L83 90 L50 90 L422 678 L455 678 Z M362 125 Q362 139 372.5 149.5 Q383 160 397 160 Q411 160 421.5 149.5 Q432 139 432 125 Q432 111 421.5 100.5 Q411 90 397 90 Q383 90 372.5 100.5 Q362 111 362 125 Z M53 643 Q53 657 63.5 667.5 Q74 678 88 678 Q102 678 112.5 667.5 Q123 657 123 643 Q123 629 112.5 618.5 Q102 608 88 608 Q74 608 63.5 618.5 Q53 629 53 643 Z " />
<glyph glyph-name="ampersand" unicode="&#x26;" horiz-adv-x="732" d="M687 404 L687 381 Q687 304 664.5 232.5 Q642 161 596 105 L700 5 L700 0 L667 0 L578 85 Q535 40 475 13.5 Q415 -13 337 -13 Q278 -13 229.5 5.5 Q181 24 145.5 55.5 Q110 87 90.5 129 Q71 171 71 218 Q71 259 85.5 292.5 Q100 326 124 350.5 Q148 375 178 390.5 Q208 406 239 411 L236 414 Q199 449 172 496.5 Q145 544 145 598 Q145 633 159 666 Q173 699 200.5 724.5 Q228 750 267.5 765 Q307 780 358 780 Q415 780 457.5 761 Q500 742 528 712 Q556 682 569.5 645.5 Q583 609 583 573 L554 573 Q554 603 543 635 Q532 667 508 693 Q484 719 447 736 Q410 753 358 753 Q318 753 284.5 741.5 Q251 730 226.5 709 Q202 688 188.5 659.5 Q175 631 175 597 Q175 552 197.5 510.5 Q220 469 255 435 L576 125 Q615 173 637.5 237 Q660 301 660 381 L660 404 L687 404 Z M337 15 Q402 15 458 38 Q514 61 558 105 L261 390 Q222 385 192.5 369 Q163 353 142.5 329.5 Q122 306 111.5 277.5 Q101 249 101 218 Q101 168 122.5 130 Q144 92 177.5 66.5 Q211 41 253 28 Q295 15 337 15 Z " />
<glyph glyph-name="quotesingle" unicode="&#x27;" horiz-adv-x="233" d="M78 568 L116 649 Q104 652 96 661.5 Q88 671 88 684 Q88 698 98 708.5 Q108 719 122 719 Q142 719 151.5 702 Q161 685 152 666 L101 557 L78 568 Z " />
<glyph glyph-name="parenleft" unicode="&#x28;" horiz-adv-x="351" d="M125 351 Q125 212 169 86 Q213 -40 291 -142 L291 -186 Q198 -77 146.5 59.5 Q95 196 95 351 Q95 505 146.5 642 Q198 779 291 888 L291 844 Q213 742 169 616 Q125 490 125 351 Z " />
<glyph glyph-name="parenright" unicode="&#x29;" horiz-adv-x="351" d="M226 351 Q226 490 182 616 Q138 742 60 844 L60 888 Q153 779 204.5 642.5 Q256 506 256 351 Q256 197 204.5 60 Q153 -77 60 -186 L60 -142 Q138 -40 182 86 Q226 212 226 351 Z " />
<glyph glyph-name="asterisk" unicode="&#x2a;" horiz-adv-x="404" d="M225 617 L146 512 L125 530 L202 631 L80 678 L90 702 L210 657 L210 783 L240 783 L240 657 L360 702 L370 678 L248 631 L325 530 L304 512 L225 617 Z " />
<glyph glyph-name="plus" unicode="&#x2b;" horiz-adv-x="612" d="M118 243 L118 269 L310 269 L310 461 L340 461 L340 269 L532 269 L532 243 L340 243 L340 51 L310 51 L310 243 L118 243 Z " />
<glyph glyph-name="comma" unicode="&#x2c;" horiz-adv-x="179" d="M50 -67 L88 14 Q76 17 68 26.5 Q60 36 60 49 Q60 63 70 73.5 Q80 84 94 84 Q114 84 123.5 67 Q133 50 124 31 L73 -78 L50 -67 Z " />
<glyph glyph-name="hyphen" unicode="&#x2d;" horiz-adv-x="612" d="M50 243 L50 269 L562 269 L562 243 L50 243 Z " />
<glyph glyph-name="period" unicode="&#x2e;" horiz-adv-x="170" d="M50 35 Q50 49 60.5 59.5 Q71 70 85 70 Q99 70 109.5 59.5 Q120 49 120 35 Q120 21 109.5 10.5 Q99 0 85 0 Q71 0 60.5 10.5 Q50 21 50 35 Z " />
<glyph glyph-name="slash" unicode="&#x2f;" horiz-adv-x="265" d="M191 738 L-1 -30 L-30 -30 L162 738 L191 738 Z " />
<glyph glyph-name="zero" unicode="0" horiz-adv-x="676" d="M55 380 Q55 451 71 520.5 Q87 590 121.5 645 Q156 700 209 734 Q262 768 337 768 Q411 768 465 734 Q519 700 553.5 645 Q588 590 604.5 520.5 Q621 451 621 380 Q621 309 604.5 239.5 Q588 170 553.5 114.5 Q519 59 465 25 Q411 -9 337 -9 Q262 -9 209 25 Q156 59 121.5 114.5 Q87 170 71 239.5 Q55 309 55 380 Z M338 18 Q399 18 446 45 Q493 72 525.5 120 Q558 168 574.5 234.5 Q591 301 591 380 Q591 459 574.5 525.5 Q558 592 525.5 640 Q493 688 445.5 714.5 Q398 741 337 741 Q276 741 229 714.5 Q182 688 150 640 Q118 592 101.5 525.5 Q85 459 85 380 Q85 301 101.5 234.5 Q118 168 150 120 Q182 72 229 45 Q276 18 338 18 Z " />
<glyph glyph-name="one" unicode="1" horiz-adv-x="428" d="M55 609 L55 636 L176 636 Q201 636 201 664 L201 757 L229 757 L229 27 L373 27 L373 0 L55 0 L55 27 L199 27 L199 609 L55 609 Z " />
<glyph glyph-name="two" unicode="2" horiz-adv-x="635" d="M575 0 L64 0 L64 10 L408 293 Q471 345 508.5 396 Q546 447 546 512 Q546 562 528.5 604 Q511 646 480.5 676 Q450 706 409 722.5 Q368 739 320 739 Q273 739 232 721 Q191 703 160.5 672 Q130 641 112 599.5 Q94 558 94 512 L64 512 Q64 564 84.5 611 Q105 658 139.5 692.5 Q174 727 220.5 747.5 Q267 768 320 768 Q375 768 421.5 748.5 Q468 729 502.5 694.5 Q537 660 556.5 613.5 Q576 567 576 512 Q576 475 564.5 442.5 Q553 410 533 381 Q513 352 485.5 324.5 Q458 297 427 271 L126 26 L575 26 L575 0 Z " />
<glyph glyph-name="three" unicode="3" horiz-adv-x="661" d="M82 561 Q82 606 100 645.5 Q118 685 150 714.5 Q182 744 226 761 Q270 778 322 778 Q376 778 421 762.5 Q466 747 497.5 719 Q529 691 546.5 653.5 Q564 616 564 571 Q564 547 554 519.5 Q544 492 525 468.5 Q506 445 478.5 427.5 Q451 410 417 406 Q467 398 502 378 Q537 358 559 331.5 Q581 305 591 274 Q601 243 601 215 Q601 160 581 117 Q561 74 524 44 Q487 14 436 -2 Q385 -18 322 -18 Q265 -18 214.5 1 Q164 20 126.5 53.5 Q89 87 67 133.5 Q45 180 45 235 L75 235 Q75 189 93 148 Q111 107 144 76 Q177 45 222 27 Q267 9 321 9 Q382 9 428 23.5 Q474 38 505.5 65 Q537 92 553.5 130 Q570 168 571 215 Q572 251 558.5 283 Q545 315 515 338.5 Q485 362 438 376 Q391 390 325 390 L252 390 L252 416 L325 416 Q375 416 414 428.5 Q453 441 479.5 462.5 Q506 484 520 512 Q534 540 534 571 Q534 610 519 643 Q504 676 477 700.5 Q450 725 411.5 738.5 Q373 752 325 752 Q272 752 232.5 736.5 Q193 721 166 694.5 Q139 668 125.5 633.5 Q112 599 112 561 L82 561 Z " />
<glyph glyph-name="four" unicode="4" horiz-adv-x="554" d="M534 174 L406 174 L406 0 L376 0 L376 174 L26 174 L10 200 L376 757 L406 757 L406 200 L534 200 L534 174 Z M45 200 L376 200 L376 713 L45 200 Z " />
<glyph glyph-name="five" unicode="5" horiz-adv-x="635" d="M318 18 Q364 18 405.5 35 Q447 52 478.5 83 Q510 114 528 155.5 Q546 197 546 247 Q546 295 531.5 338.5 Q517 382 488.5 415 Q460 448 418.5 467 Q377 486 323 486 Q252 486 198.5 450.5 Q145 415 118 357 L75 357 L128 757 L511 757 L511 732 L152 732 L104 382 Q118 408 140 431.5 Q162 455 189.5 473 Q217 491 251 501.5 Q285 512 323 512 Q381 512 428 491.5 Q475 471 507.5 435 Q540 399 557.5 350.5 Q575 302 575 247 Q575 196 555 149.5 Q535 103 500.5 67.5 Q466 32 419.5 11.5 Q373 -9 319 -9 Q274 -9 234.5 5 Q195 19 163.5 44.5 Q132 70 110 105 Q88 140 77 183 L107 183 Q116 144 137 113.5 Q158 83 186.5 61.5 Q215 40 249 29 Q283 18 318 18 Z " />
<glyph glyph-name="six" unicode="6" horiz-adv-x="646" d="M74 247 Q74 290 89 327.5 Q104 365 125 400 L340 762 L371 762 L189 453 Q224 474 259.5 484.5 Q295 495 330 496 Q381 497 427.5 479.5 Q474 462 509 429 Q544 396 565 349.5 Q586 303 586 247 Q586 194 566 147.5 Q546 101 511 66 Q476 31 429.5 11 Q383 -9 330 -9 Q277 -9 230.5 11 Q184 31 149 66 Q114 101 94 147.5 Q74 194 74 247 Z M556 247 Q556 293 539.5 333.5 Q523 374 493.5 404 Q464 434 424 451.5 Q384 469 337 469 Q292 469 249.5 453 Q207 437 175 408 Q143 379 123.5 338 Q104 297 104 247 Q104 200 121.5 159 Q139 118 170 87.5 Q201 57 242 39 Q283 21 330 21 Q376 21 417.5 39 Q459 57 489.5 87.5 Q520 118 538 159 Q556 200 556 247 Z " />
<glyph glyph-name="seven" unicode="7" horiz-adv-x="560" d="M167 0 L492 733 L30 733 L30 757 L515 757 L525 743 L197 0 L167 0 Z " />
<glyph glyph-name="eight" unicode="8" horiz-adv-x="611" d="M522 573 Q522 545 512 516.5 Q502 488 482.5 463.5 Q463 439 434 421 Q405 403 368 396 Q414 390 449.5 369 Q485 348 509.5 319.5 Q534 291 547 257 Q560 223 560 191 Q560 140 541 98.5 Q522 57 487.5 28 Q453 -1 405 -16.5 Q357 -32 299 -32 Q241 -32 193.5 -16.5 Q146 -1 112 28 Q78 57 59 98.5 Q40 140 40 191 Q40 223 53 257 Q66 291 90.5 319.5 Q115 348 150.5 369 Q186 390 231 396 Q194 403 165.5 421 Q137 439 117.5 463.5 Q98 488 88 516.5 Q78 545 78 573 Q78 615 94 650.5 Q110 686 139.5 712 Q169 738 209.5 752.5 Q250 767 299 767 Q349 767 390 752.5 Q431 738 460.5 712 Q490 686 506 650.5 Q522 615 522 573 Z M299 -6 Q346 -6 388.5 7 Q431 20 463 45 Q495 70 513.5 106.5 Q532 143 532 191 Q532 230 516.5 264.5 Q501 299 471 325 Q441 351 397.5 366.5 Q354 382 299 382 Q243 382 200 366.5 Q157 351 127.5 325 Q98 299 83 264.5 Q68 230 68 191 Q68 143 86 106.5 Q104 70 135.5 45 Q167 20 209 7 Q251 -6 299 -6 Z M299 406 Q341 406 376.5 419.5 Q412 433 438 456.5 Q464 480 479 510 Q494 540 494 573 Q494 611 479 642.5 Q464 674 438 696 Q412 718 376.5 730 Q341 742 299 742 Q254 742 218.5 729 Q183 716 158 693.5 Q133 671 119.5 640 Q106 609 106 573 Q106 541 120.5 511 Q135 481 160.5 457.5 Q186 434 221.5 420 Q257 406 299 406 Z " />
<glyph glyph-name="nine" unicode="9" horiz-adv-x="620" d="M576 511 Q576 468 561 430.5 Q546 393 525 358 L310 -1 L279 -1 L461 305 Q426 284 390.5 273.5 Q355 263 320 262 Q269 260 222.5 278 Q176 296 141 329 Q106 362 85 408.5 Q64 455 64 511 Q64 564 84 610.5 Q104 657 139 692 Q174 727 220.5 747 Q267 767 320 767 Q373 767 419.5 747 Q466 727 501 692 Q536 657 556 610.5 Q576 564 576 511 Z M94 511 Q94 464 110.5 423.5 Q127 383 156.5 353 Q186 323 226 306 Q266 289 313 289 Q358 289 400.5 305 Q443 321 475 350 Q507 379 526.5 420 Q546 461 546 511 Q546 557 528.5 598.5 Q511 640 480 670.5 Q449 701 408 719 Q367 737 320 737 Q273 737 232 719 Q191 701 160.5 670.5 Q130 640 112 598.5 Q94 557 94 511 Z " />
<glyph glyph-name="colon" unicode="&#x3a;" horiz-adv-x="170" d="M50 35 Q50 49 60.5 59.5 Q71 70 85 70 Q99 70 109.5 59.5 Q120 49 120 35 Q120 21 109.5 10.5 Q99 0 85 0 Q71 0 60.5 10.5 Q50 21 50 35 Z M50 373 Q50 387 60.5 397.5 Q71 408 85 408 Q99 408 109.5 397.5 Q120 387 120 373 Q120 359 109.5 348.5 Q99 338 85 338 Q71 338 60.5 348.5 Q50 359 50 373 Z " />
<glyph glyph-name="semicolon" unicode="&#x3b;" horiz-adv-x="179" d="M50 -67 L88 14 Q76 17 68 26.5 Q60 36 60 49 Q60 63 70 73.5 Q80 84 94 84 Q114 84 123.5 67 Q133 50 124 31 L73 -78 L50 -67 Z M54 373 Q54 387 64.5 397.5 Q75 408 89 408 Q103 408 113.5 397.5 Q124 387 124 373 Q124 359 113.5 348.5 Q103 338 89 338 Q75 338 64.5 348.5 Q54 359 54 373 Z " />
<glyph glyph-name="less" unicode="&#x3c;" horiz-adv-x="384" d="M306 512 L330 512 L334 501 L89 256 L334 11 L330 0 L306 0 L50 256 L306 512 Z " />
<glyph glyph-name="equal" unicode="&#x3d;" horiz-adv-x="612" d="M90 118 L90 144 L522 144 L522 118 L90 118 Z M90 369 L90 395 L522 395 L522 369 L90 369 Z " />
<glyph glyph-name="question" unicode="&#x3f;" horiz-adv-x="592" d="M234 276 L291 276 Q339 276 381 294 Q423 312 454.5 343.5 Q486 375 504 417 Q522 459 522 507 Q522 555 504 597 Q486 639 454.5 670.5 Q423 702 381 720 Q339 738 291 738 Q243 738 201 720 Q159 702 127.5 670.5 Q96 639 78 597 Q60 555 60 507 L30 507 Q30 561 50.5 609 Q71 657 106 692 Q141 727 189 747.5 Q237 768 291 768 Q345 768 393 747.5 Q441 727 476 692 Q511 657 531.5 609 Q552 561 552 507 Q552 453 531.5 405 Q511 357 476 322 Q441 287 393 266.5 Q345 246 291 246 L234 246 L234 276 Z M257 35 Q257 49 267.5 59.5 Q278 70 292 70 Q306 70 316.5 59.5 Q327 49 327 35 Q327 21 316.5 10.5 Q306 0 292 0 Q278 0 267.5 10.5 Q257 21 257 35 Z " />
<glyph glyph-name="at" unicode="&#x40;" horiz-adv-x="1067" d="M324 350 Q324 389 339.5 423.5 Q355 458 382 483.5 Q409 509 444.5 524 Q480 539 520 539 Q573 539 622 510 Q671 481 699 415 L713 527 L739 527 L718 349 Q714 295 721 257 Q728 219 744.5 195 Q761 171 785.5 160 Q810 149 841 149 Q869 149 896 164 Q923 179 943.5 211 Q964 243 976 293.5 Q988 344 987 415 Q985 496 951 562.5 Q917 629 857.5 676.5 Q798 724 717 750.5 Q636 777 541 777 Q436 777 350.5 745.5 Q265 714 204.5 656.5 Q144 599 111.5 519 Q79 439 80 342 Q81 259 113.5 185 Q146 111 207 56 Q268 1 357 -31 Q446 -63 560 -63 Q587 -63 614.5 -61 Q642 -59 670 -55 Q670 -61 670.5 -68 Q671 -75 671 -81 Q638 -86 613.5 -88 Q589 -90 560 -90 Q442 -90 347.5 -56 Q253 -22 187 36.5 Q121 95 85.5 173.5 Q50 252 50 342 Q50 451 87 536.5 Q124 622 189 681 Q254 740 344 771.5 Q434 803 541 803 Q658 803 747 768.5 Q836 734 896 678.5 Q956 623 986.5 553.5 Q1017 484 1017 415 Q1017 334 1001.5 278 Q986 222 961 187.5 Q936 153 904.5 137.5 Q873 122 841 122 Q802 122 774.5 136 Q747 150 729.5 172 Q712 194 704 221 Q696 248 696 274 Q683 246 663 225 Q643 204 619.5 189.5 Q596 175 569.5 168 Q543 161 518 161 Q477 161 441.5 174 Q406 187 380 211.5 Q354 236 339 271 Q324 306 324 350 Z M354 350 Q354 271 400 229 Q446 187 518 187 Q554 187 585.5 199 Q617 211 639.5 232.5 Q662 254 675 284 Q688 314 688 350 Q688 384 675.5 413.5 Q663 443 640.5 465 Q618 487 587 500 Q556 513 520 513 Q484 513 453.5 499 Q423 485 401 462 Q379 439 366.5 409.5 Q354 380 354 350 Z " />
<glyph glyph-name="A" unicode="A" horiz-adv-x="670" d="M623 0 L552 174 L118 174 L47 0 L17 0 L313 735 L357 735 L653 0 L623 0 Z M335 717 L129 200 L541 200 L335 717 Z " />
<glyph glyph-name="B" unicode="B" horiz-adv-x="608" d="M90 0 L90 735 L330 735 Q374 735 410 720.5 Q446 706 471.5 680.5 Q497 655 511 621 Q525 587 525 549 Q525 522 517 495 Q509 468 493.5 445.5 Q478 423 456 406 Q434 389 406 383 Q445 376 475 357.5 Q505 339 525.5 313.5 Q546 288 557 257.5 Q568 227 568 196 Q568 155 553.5 119.5 Q539 84 513 57.5 Q487 31 451 15.5 Q415 0 372 0 L90 0 Z M120 27 L372 27 Q408 27 439 39.5 Q470 52 492 74.5 Q514 97 526.5 127.5 Q539 158 539 193 Q539 231 525 263 Q511 295 486 318.5 Q461 342 426.5 355 Q392 368 352 368 L120 368 L120 27 Z M119 394 L329 394 Q407 394 453 435 Q499 476 499 550 Q499 583 487 612 Q475 641 453 663 Q431 685 399.5 698 Q368 711 329 711 L119 711 L119 394 Z " />
<glyph glyph-name="C" unicode="C" horiz-adv-x="735" d="M80 367 Q80 292 107.5 228 Q135 164 182.5 117 Q230 70 293.5 43 Q357 16 428 16 Q503 16 564 43.5 Q625 71 676 118 L695 99 Q644 48 575.5 18.5 Q507 -11 428 -11 Q348 -11 279 18.5 Q210 48 159 99 Q108 150 79 219 Q50 288 50 367 Q50 445 78.5 514 Q107 583 157.5 634.5 Q208 686 277.5 716 Q347 746 428 746 Q509 746 576 716.5 Q643 687 695 636 L676 617 Q628 665 564 692 Q500 719 428 719 Q354 719 290.5 691.5 Q227 664 180.5 616.5 Q134 569 107 505 Q80 441 80 367 Z " />
<glyph glyph-name="D" unicode="D" horiz-adv-x="701" d="M90 0 L90 735 L284 735 Q360 735 426.5 706 Q493 677 543 627 Q593 577 622 510.5 Q651 444 651 368 Q651 292 622 225 Q593 158 543 108 Q493 58 426.5 29 Q360 0 284 0 L90 0 Z M120 708 L120 27 L284 27 Q354 27 415.5 54 Q477 81 523 127 Q569 173 595 235 Q621 297 621 368 Q621 438 595 500 Q569 562 523 608 Q477 654 415.5 681 Q354 708 284 708 L120 708 Z " />
<glyph glyph-name="E" unicode="E" horiz-adv-x="554" d="M90 735 L509 735 L509 708 L120 708 L120 385 L489 385 L489 360 L120 360 L120 27 L509 27 L509 0 L90 0 L90 735 Z " />
<glyph glyph-name="F" unicode="F" horiz-adv-x="504" d="M90 735 L484 735 L484 708 L120 708 L120 385 L464 385 L464 360 L120 360 L120 0 L90 0 L90 735 Z " />
<glyph glyph-name="G" unicode="G" horiz-adv-x="854" d="M79 368 Q79 291 107.5 226.5 Q136 162 184 115.5 Q232 69 296 42.5 Q360 16 431 16 Q507 16 570 40 Q633 64 677 108.5 Q721 153 745.5 216.5 Q770 280 770 360 L477 360 L477 385 L799 385 L799 367 Q799 272 769.5 200.5 Q740 129 690 82 Q640 35 573 11.5 Q506 -12 431 -12 Q348 -12 278 18.5 Q208 49 157.5 101 Q107 153 78.5 222 Q50 291 50 368 Q50 447 78.5 516.5 Q107 586 157.5 638 Q208 690 277.5 719.5 Q347 749 429 749 Q570 749 668 668 L652 649 Q606 686 553.5 704.5 Q501 723 428 723 Q354 723 290 696 Q226 669 179 621 Q132 573 105.5 508 Q79 443 79 368 Z " />
<glyph glyph-name="H" unicode="H" horiz-adv-x="720" d="M90 0 L90 734 L120 734 L120 385 L600 385 L600 735 L630 735 L630 0 L600 0 L600 360 L120 360 L120 0 L90 0 Z " />
<glyph glyph-name="I" unicode="I" horiz-adv-x="375" d="M30 708 L30 735 L345 735 L345 708 L203 708 L203 27 L345 27 L345 0 L30 0 L30 27 L173 27 L173 708 L30 708 Z " />
<glyph glyph-name="J" unicode="J" horiz-adv-x="503" d="M47 188 Q47 153 60.5 122.5 Q74 92 96.5 69.5 Q119 47 149.5 33.5 Q180 20 215 20 Q249 20 280 33.5 Q311 47 333.5 69.5 Q356 92 369.5 122.5 Q383 153 383 188 L383 735 L413 735 L413 188 Q413 147 397.5 111 Q382 75 355 48 Q328 21 292 5.5 Q256 -10 215 -10 Q174 -10 138 5.5 Q102 21 75 48 Q48 75 32.5 111 Q17 147 17 188 L47 188 Z " />
<glyph glyph-name="K" unicode="K" horiz-adv-x="621" d="M120 360 L120 0 L90 0 L90 735 L120 735 L120 385 L340 385 L548 735 L581 735 L366 374 L581 0 L548 0 L340 360 L120 360 Z " />
<glyph glyph-name="L" unicode="L" horiz-adv-x="440" d="M420 0 L90 0 L90 735 L120 735 L120 27 L420 27 L420 0 Z " />
<glyph glyph-name="M" unicode="M" horiz-adv-x="846" d="M727 0 L727 679 L423 367 L119 679 L119 0 L90 0 L90 735 L100 739 L423 406 L745 739 L756 735 L756 0 L727 0 Z " />
<glyph glyph-name="N" unicode="N" horiz-adv-x="793" d="M673 735 L703 735 L703 5 L691 -1 L120 669 L120 0 L90 0 L90 730 L101 735 L673 66 L673 735 Z " />
<glyph glyph-name="O" unicode="O" horiz-adv-x="871" d="M55 368 Q55 446 85 515.5 Q115 585 166.5 637 Q218 689 287.5 719 Q357 749 435 749 Q514 749 583 719 Q652 689 704 637 Q756 585 786 515.5 Q816 446 816 368 Q816 290 786 220.5 Q756 151 704 99 Q652 47 583 17 Q514 -13 435 -13 Q357 -13 287.5 17 Q218 47 166.5 99 Q115 151 85 220.5 Q55 290 55 368 Z M85 368 Q85 296 112.5 232.5 Q140 169 188 121 Q236 73 299.5 45.5 Q363 18 435 18 Q507 18 571 45.5 Q635 73 682.5 121 Q730 169 757.5 232.5 Q785 296 785 368 Q785 440 757.5 503.5 Q730 567 682.5 615 Q635 663 571 690.5 Q507 718 435 718 Q363 718 299.5 690.5 Q236 663 188 615 Q140 567 112.5 503.5 Q85 440 85 368 Z " />
<glyph glyph-name="P" unicode="P" horiz-adv-x="592" d="M120 250 L120 0 L90 0 L90 735 L327 735 Q379 735 424 716 Q469 697 502 664 Q535 631 553.5 587 Q572 543 572 492 Q572 441 553.5 397 Q535 353 502 320.5 Q469 288 424 269 Q379 250 327 250 L120 250 Z M327 276 Q373 276 412.5 292 Q452 308 481 336.5 Q510 365 526 404.5 Q542 444 542 492 Q542 540 526 579.5 Q510 619 481 647.5 Q452 676 412.5 692 Q373 708 327 708 L120 708 L120 276 L327 276 Z " />
<glyph glyph-name="Q" unicode="Q" horiz-adv-x="861" d="M50 368 Q50 446 80 515.5 Q110 585 161.5 637 Q213 689 282.5 719 Q352 749 430 749 Q509 749 578 719 Q647 689 699 637 Q751 585 781 515.5 Q811 446 811 368 Q811 292 782.5 224.5 Q754 157 705.5 106 Q657 55 591 23.5 Q525 -8 450 -12 L450 -30 Q450 -97 489.5 -137 Q529 -177 592 -177 Q655 -177 694 -140 Q733 -103 733 -30 L762 -30 Q762 -115 714 -160.5 Q666 -206 591 -206 Q554 -206 523 -193 Q492 -180 469 -156.5 Q446 -133 433 -101 Q420 -69 420 -30 L420 -12 Q343 -10 275.5 20.5 Q208 51 158 102.5 Q108 154 79 222.5 Q50 291 50 368 Z M80 368 Q80 296 107.5 232.5 Q135 169 183 121 Q231 73 294.5 45.5 Q358 18 430 18 Q502 18 566 45.5 Q630 73 677.5 121 Q725 169 752.5 232.5 Q780 296 780 368 Q780 440 752.5 503.5 Q725 567 677.5 615 Q630 663 566 690.5 Q502 718 430 718 Q358 718 294.5 690.5 Q231 663 183 615 Q135 567 107.5 503.5 Q80 440 80 368 Z " />
<glyph glyph-name="R" unicode="R" horiz-adv-x="671" d="M120 0 L90 0 L90 735 L390 735 Q438 735 480 717 Q522 699 553.5 667.5 Q585 636 603 594 Q621 552 621 504 Q621 419 573 361 Q525 303 446 280 L613 0 L580 0 L416 274 L120 274 L120 0 Z M388 300 Q433 300 470.5 316 Q508 332 535 360 Q562 388 577 425 Q592 462 592 504 Q592 546 576 583.5 Q560 621 532.5 648.5 Q505 676 468 692 Q431 708 388 708 L120 708 L120 300 L388 300 Z " />
<glyph glyph-name="S" unicode="S" horiz-adv-x="587" d="M317 -16 Q242 -16 178.5 10 Q115 36 61 87 L82 107 Q136 59 194.5 36 Q253 13 318 13 Q364 13 400.5 23.5 Q437 34 463 53 Q489 72 503 99 Q517 126 517 159 Q517 216 480.5 256.5 Q444 297 371 325 L213 385 Q131 416 93 462 Q55 508 55 574 Q55 613 72 646 Q89 679 119.5 702.5 Q150 726 193.5 739 Q237 752 291 752 Q346 752 391 734.5 Q436 717 467.5 688 Q499 659 516.5 621.5 Q534 584 534 543 L506 543 Q506 580 491 613 Q476 646 448 671 Q420 696 380 710.5 Q340 725 291 725 Q244 725 206 714 Q168 703 141 683.5 Q114 664 99.5 636 Q85 608 85 574 Q85 547 92 524 Q99 501 115 481 Q131 461 157.5 444 Q184 427 223 412 L383 350 Q472 315 509.5 267 Q547 219 547 159 Q547 116 529 83.5 Q511 51 480 29 Q449 7 407 -4.5 Q365 -16 317 -16 Z " />
<glyph glyph-name="T" unicode="T" horiz-adv-x="509" d="M489 735 L489 708 L270 708 L270 0 L240 0 L240 708 L20 708 L20 735 L489 735 Z " />
<glyph glyph-name="U" unicode="U" horiz-adv-x="770" d="M105 299 Q105 240 126 189 Q147 138 184 100 Q221 62 272.5 40 Q324 18 385 18 Q446 18 497.5 40 Q549 62 586 100 Q623 138 644 189 Q665 240 665 299 L665 735 L695 735 L695 299 Q695 235 672 178.5 Q649 122 608 80 Q567 38 510 13.5 Q453 -11 385 -11 Q316 -11 259 13.5 Q202 38 161 80 Q120 122 97.5 178.5 Q75 235 75 299 L75 735 L105 735 L105 299 Z " />
<glyph glyph-name="V" unicode="V" horiz-adv-x="664" d="M355 0 L309 0 L17 735 L46 735 L332 16 L618 735 L647 735 L355 0 Z " />
<glyph glyph-name="W" unicode="W" horiz-adv-x="887" d="M653 27 L657 27 L840 735 L870 735 L678 0 L631 0 L445 706 L442 706 L256 0 L209 0 L17 735 L47 735 L230 27 L234 27 L423 735 L464 735 L653 27 Z " />
<glyph glyph-name="X" unicode="X" horiz-adv-x="576" d="M49 0 L16 0 L269 388 L42 735 L75 735 L287 410 L501 735 L534 735 L306 388 L560 0 L527 0 L287 365 L49 0 Z " />
<glyph glyph-name="Y" unicode="Y" horiz-adv-x="587" d="M279 0 L279 212 L17 735 L48 735 L294 246 L540 735 L570 735 L309 212 L309 0 L279 0 Z " />
<glyph glyph-name="Z" unicode="Z" horiz-adv-x="607" d="M88 360 L88 385 L299 385 L529 708 L48 708 L48 735 L550 735 L562 709 L334 385 L519 385 L519 360 L316 360 L81 27 L559 27 L559 0 L57 0 L45 26 L282 360 L88 360 Z " />
<glyph glyph-name="bracketleft" unicode="&#x5b;" horiz-adv-x="411" d="M90 896 L346 896 L346 869 L120 869 L120 -101 L346 -101 L346 -128 L90 -128 L90 896 Z " />
<glyph glyph-name="bracketright" unicode="&#x5d;" horiz-adv-x="411" d="M346 -128 L90 -128 L90 -101 L316 -101 L316 869 L90 869 L90 896 L346 896 L346 -128 Z " />
<glyph glyph-name="asciicircum" unicode="&#x5e;" horiz-adv-x="372" d="M185 655 L95 564 L50 609 L186 745 L322 609 L277 564 L185 655 Z " />
<glyph glyph-name="underscore" unicode="&#x5f;" horiz-adv-x="612" d="M50 0 L50 27 L522 27 L522 0 L50 0 Z " />
<glyph glyph-name="a" unicode="a" horiz-adv-x="548" d="M440 145 Q431 114 411.5 86 Q392 58 364 37 Q336 16 300 4 Q264 -8 223 -8 Q181 -8 148 3 Q115 14 92 33.5 Q69 53 57 79.5 Q45 106 45 138 Q45 163 55.5 186 Q66 209 88.5 226.5 Q111 244 144.5 254.5 Q178 265 225 265 L438 265 L438 295 Q438 329 428 363 Q418 397 396 424.5 Q374 452 340.5 469 Q307 486 261 486 Q219 486 184 472 Q149 458 120 433 L103 453 Q173 512 261 512 Q313 512 352 493 Q391 474 416.5 443.5 Q442 413 455 374.5 Q468 336 468 296 L468 0 L440 0 L440 145 Z M74 138 Q74 85 115 52 Q156 19 223 19 Q263 19 302 33 Q341 47 371 74.5 Q401 102 419.5 143.5 Q438 185 438 240 L225 240 Q147 240 110.5 210 Q74 180 74 138 Z " />
<glyph glyph-name="b" unicode="b" horiz-adv-x="645" d="M590 256 Q590 203 570 156 Q550 109 514.5 74.5 Q479 40 431 20 Q383 0 328 0 Q289 0 255.5 11.5 Q222 23 195.5 41.5 Q169 60 149.5 83 Q130 106 120 130 L120 0 L90 0 L90 768 L120 768 L120 384 Q130 408 150 431 Q170 454 197.5 472 Q225 490 258.5 501 Q292 512 328 512 Q383 512 431 492 Q479 472 514.5 437.5 Q550 403 570 356 Q590 309 590 256 Z M109 256 Q109 207 126 165 Q143 123 172 92.5 Q201 62 241 44.5 Q281 27 328 27 Q376 27 418.5 44.5 Q461 62 492.5 92.5 Q524 123 542 165 Q560 207 560 256 Q560 305 542 347 Q524 389 492.5 420 Q461 451 418.5 468.5 Q376 486 328 486 Q281 486 241 468.5 Q201 451 172 420 Q143 389 126 347 Q109 305 109 256 Z " />
<glyph glyph-name="c" unicode="c" horiz-adv-x="538" d="M503 67 Q467 29 419 9.5 Q371 -10 316 -10 Q261 -10 212.5 11 Q164 32 128 68 Q92 104 71 152.5 Q50 201 50 256 Q50 311 71 359.5 Q92 408 128 444 Q164 480 212.5 501 Q261 522 316 522 Q373 522 422.5 500 Q472 478 508 440 L488 421 Q456 455 412.5 474 Q369 493 316 493 Q267 493 224 474.5 Q181 456 148.5 423.5 Q116 391 97.5 348 Q79 305 79 256 Q79 207 97.5 164 Q116 121 148.5 88.5 Q181 56 224 37.5 Q267 19 316 19 Q370 19 411 36.5 Q452 54 484 86 L503 67 Z " />
<glyph glyph-name="d" unicode="d" horiz-adv-x="645" d="M55 256 Q55 309 75 356 Q95 403 130.5 437.5 Q166 472 213.5 492 Q261 512 317 512 Q353 512 386.5 501 Q420 490 447.5 472 Q475 454 495 431 Q515 408 525 384 L525 768 L555 768 L555 0 L525 0 L525 130 Q515 106 495.5 83 Q476 60 449.5 41.5 Q423 23 389.5 11.5 Q356 0 317 0 Q261 0 213.5 20 Q166 40 130.5 74.5 Q95 109 75 156 Q55 203 55 256 Z M536 256 Q536 305 519 347 Q502 389 473 420 Q444 451 403.5 468.5 Q363 486 317 486 Q269 486 226.5 468.5 Q184 451 152.5 420 Q121 389 103 347 Q85 305 85 256 Q85 207 103 165 Q121 123 152.5 92.5 Q184 62 226.5 44.5 Q269 27 317 27 Q363 27 403.5 44.5 Q444 62 473 92.5 Q502 123 519 165 Q536 207 536 256 Z " />
<glyph glyph-name="e" unicode="e" horiz-adv-x="598" d="M553 256 L553 240 L85 240 Q85 188 105 147 Q125 106 156.5 77 Q188 48 228 32.5 Q268 17 308 17 Q359 17 397.5 31.5 Q436 46 467 69 L483 48 Q447 20 404 5 Q361 -10 307 -10 Q260 -10 215 7.5 Q170 25 134.5 59 Q99 93 77 142.5 Q55 192 55 256 Q55 311 73 359 Q91 407 123.5 443 Q156 479 202 500 Q248 521 304 521 Q363 521 409 498.5 Q455 476 487 439 Q519 402 536 354 Q553 306 553 256 Z M304 494 Q256 494 216 477 Q176 460 147 429 Q118 398 101.5 356 Q85 314 85 265 L524 265 Q524 312 508 353.5 Q492 395 463 426.5 Q434 458 393.5 476 Q353 494 304 494 Z " />
<glyph glyph-name="f" unicode="f" horiz-adv-x="314" d="M252 741 Q231 741 212 732.5 Q193 724 178.5 709 Q164 694 155.5 672.5 Q147 651 147 624 L147 512 L304 512 L304 486 L147 486 L147 0 L117 0 L117 486 L20 486 L20 512 L117 512 L117 621 Q117 649 126 675.5 Q135 702 152.5 722.5 Q170 743 195.5 755.5 Q221 768 253 768 Q279 768 296 765 L296 741 L252 741 Z " />
<glyph glyph-name="g" unicode="g" horiz-adv-x="550" d="M63 327 Q63 370 79.5 408.5 Q96 447 124.5 476 Q153 505 191 521.5 Q229 538 273 538 Q308 538 340 527 Q372 516 398 496 Q427 506 458 509 Q489 512 527 512 L535 512 L535 486 L410 486 Q444 457 464 416 Q484 375 484 327 Q484 283 467.5 245 Q451 207 422 178.5 Q393 150 354.5 133.5 Q316 117 273 117 Q235 117 196.5 133 Q158 149 133 175 Q48 142 48 71 Q48 33 71 11.5 Q94 -10 139 -10 L361 -10 Q443 -10 482.5 -46 Q522 -82 522 -136 Q522 -166 509.5 -190.5 Q497 -215 474.5 -231.5 Q452 -248 421.5 -257 Q391 -266 354 -266 Q302 -266 257.5 -249.5 Q213 -233 181 -204 Q149 -175 132.5 -135 Q116 -95 119 -48 L139 -38 Q86 -38 53 -11 Q20 16 20 68 Q20 106 47 139 Q74 172 117 189 Q92 217 77.5 251.5 Q63 286 63 327 Z M90 327 Q90 289 104.5 255.5 Q119 222 143.5 197.5 Q168 173 201.5 158.5 Q235 144 273 144 Q311 144 344.5 158.5 Q378 173 403 197.5 Q428 222 442.5 255.5 Q457 289 457 327 Q457 365 442.5 398.5 Q428 432 403 457 Q378 482 344.5 496.5 Q311 511 273 511 Q235 511 201.5 496.5 Q168 482 143.5 457 Q119 432 104.5 398.5 Q90 365 90 327 Z M354 -238 Q415 -238 454.5 -212.5 Q494 -187 494 -136 Q494 -91 460.5 -64.5 Q427 -38 361 -38 L143 -38 Q140 -82 154.5 -118.5 Q169 -155 197.5 -181.5 Q226 -208 266 -223 Q306 -238 354 -238 Z " />
<glyph glyph-name="h" unicode="h" horiz-adv-x="666" d="M591 0 L561 0 L561 266 Q561 312 544 352 Q527 392 497 422 Q467 452 427 469 Q387 486 341 486 Q296 486 256 465.5 Q216 445 186 410.5 Q156 376 138 330 Q120 284 120 233 L120 0 L90 0 L90 768 L120 768 L120 339 Q132 377 154.5 409.5 Q177 442 207 465 Q237 488 273.5 500.5 Q310 513 351 512 Q400 512 443.5 492.5 Q487 473 520 438.5 Q553 404 572 357 Q591 310 591 256 L591 0 Z " />
<glyph glyph-name="i" unicode="i" horiz-adv-x="220" d="M125 512 L125 0 L95 0 L95 512 L125 512 Z M80 721 Q80 734 88.5 742.5 Q97 751 110 751 Q123 751 131.5 742.5 Q140 734 140 721 Q140 708 131.5 699.5 Q123 691 110 691 Q97 691 88.5 699.5 Q80 708 80 721 Z " />
<glyph glyph-name="j" unicode="j" horiz-adv-x="220" d="M95 -236 L95 512 L125 512 L125 -236 L95 -236 Z M80 721 Q80 734 88.5 742.5 Q97 751 110 751 Q123 751 131.5 742.5 Q140 734 140 721 Q140 708 131.5 699.5 Q123 691 110 691 Q97 691 88.5 699.5 Q80 708 80 721 Z " />
<glyph glyph-name="k" unicode="k" horiz-adv-x="510" d="M120 768 L120 269 L292 269 L440 512 L470 512 L316 256 L470 0 L440 0 L292 243 L120 243 L120 0 L90 0 L90 768 L120 768 Z " />
<glyph glyph-name="l" unicode="l" horiz-adv-x="209" d="M90 0 L90 768 L119 768 L119 0 L90 0 Z " />
<glyph glyph-name="m" unicode="m" horiz-adv-x="964" d="M889 0 L859 0 L859 311 Q859 350 846.5 384.5 Q834 419 811 444.5 Q788 470 756 485 Q724 500 684 500 Q646 500 613.5 484 Q581 468 557 442 Q533 416 519 381.5 Q505 347 505 311 L505 0 L475 0 L475 311 Q475 342 463.5 375.5 Q452 409 430 437 Q408 465 375.5 482.5 Q343 500 300 500 Q259 500 225.5 482 Q192 464 168.5 433.5 Q145 403 132 363.5 Q119 324 119 281 L119 0 L90 0 L90 512 L119 512 L119 387 Q125 412 141 437.5 Q157 463 180.5 483 Q204 503 234.5 515.5 Q265 528 300 528 Q336 528 367 516.5 Q398 505 422.5 485 Q447 465 464.5 438 Q482 411 491 380 Q501 411 520 438 Q539 465 564.5 485 Q590 505 621 516.5 Q652 528 686 528 Q731 528 768 511.5 Q805 495 832 466 Q859 437 874 397.5 Q889 358 889 311 L889 0 Z " />
<glyph glyph-name="n" unicode="n" horiz-adv-x="652" d="M577 0 L547 0 L547 282 Q547 327 531 365.5 Q515 404 487 433 Q459 462 420.5 478.5 Q382 495 337 495 Q293 495 253.5 477 Q214 459 184.5 428 Q155 397 137.5 355 Q120 313 119 264 L119 0 L90 0 L90 512 L119 512 L119 362 Q125 387 143.5 415.5 Q162 444 190 467.5 Q218 491 255.5 506.5 Q293 522 337 522 Q389 522 433 503 Q477 484 509 450.5 Q541 417 559 371 Q577 325 577 272 L577 0 Z " />
<glyph glyph-name="o" unicode="o" horiz-adv-x="622" d="M50 256 Q50 310 70.5 358 Q91 406 126 441 Q161 476 209 496.5 Q257 517 311 517 Q365 517 413 496.5 Q461 476 496 441 Q531 406 551.5 358 Q572 310 572 256 Q572 202 551.5 154 Q531 106 496 71 Q461 36 413 15.5 Q365 -5 311 -5 Q257 -5 209 15.5 Q161 36 126 71 Q91 106 70.5 154 Q50 202 50 256 Z M80 256 Q80 209 98.5 167 Q117 125 148.5 93.5 Q180 62 222 43.5 Q264 25 311 25 Q358 25 400 43.5 Q442 62 473.5 93.5 Q505 125 523.5 167 Q542 209 542 256 Q542 303 523.5 345 Q505 387 473.5 418.5 Q442 450 400 468.5 Q358 487 311 487 Q264 487 222 468.5 Q180 450 148.5 418.5 Q117 387 98.5 345 Q80 303 80 256 Z " />
<glyph glyph-name="p" unicode="p" horiz-adv-x="640" d="M590 256 Q590 203 570 156 Q550 109 514.5 74.5 Q479 40 431 20 Q383 0 328 0 Q292 0 258.5 11 Q225 22 197.5 40 Q170 58 150 81 Q130 104 120 128 L120 -256 L90 -256 L90 512 L120 512 L120 382 Q130 406 149.5 429 Q169 452 195.5 470.5 Q222 489 255.5 500.5 Q289 512 328 512 Q383 512 431 492 Q479 472 514.5 437.5 Q550 403 570 356 Q590 309 590 256 Z M109 256 Q109 207 126 165 Q143 123 172 92 Q201 61 241 43.5 Q281 26 328 26 Q376 26 418.5 43.5 Q461 61 492.5 92 Q524 123 542 165 Q560 207 560 256 Q560 305 542 346.5 Q524 388 492.5 419 Q461 450 418.5 467.5 Q376 485 328 485 Q281 485 241 467.5 Q201 450 172 419 Q143 388 126 346.5 Q109 305 109 256 Z " />
<glyph glyph-name="q" unicode="q" horiz-adv-x="645" d="M55 256 Q55 309 75 356 Q95 403 130.5 437.5 Q166 472 213.5 492 Q261 512 317 512 Q356 512 389.5 500.5 Q423 489 449.5 470.5 Q476 452 495.5 429 Q515 406 525 382 L525 512 L555 512 L555 -256 L525 -256 L525 128 Q515 104 495 81 Q475 58 447.5 40 Q420 22 386.5 11 Q353 0 317 0 Q261 0 213.5 20 Q166 40 130.5 74.5 Q95 109 75 156 Q55 203 55 256 Z M536 256 Q536 305 519 346.5 Q502 388 473 419 Q444 450 403.5 467.5 Q363 485 317 485 Q269 485 226.5 467.5 Q184 450 152.5 419 Q121 388 103 346.5 Q85 305 85 256 Q85 207 103 165 Q121 123 152.5 92 Q184 61 226.5 43.5 Q269 26 317 26 Q363 26 403.5 43.5 Q444 61 473 92 Q502 123 519 165 Q536 207 536 256 Z " />
<glyph glyph-name="r" unicode="r" horiz-adv-x="324" d="M120 0 L90 0 L90 512 L116 512 L116 397 Q138 454 186 483 Q234 512 294 512 L314 512 L314 486 L294 486 Q257 486 225.5 473.5 Q194 461 170.5 438 Q147 415 133.5 383.5 Q120 352 120 314 L120 0 Z " />
<glyph glyph-name="s" unicode="s" horiz-adv-x="511" d="M92 392 Q92 361 116.5 335 Q141 309 201 289 L326 249 Q403 224 434.5 190.5 Q466 157 466 112 Q466 86 454.5 63.5 Q443 41 419.5 24.5 Q396 8 360 -2 Q324 -12 276 -12 Q211 -12 150.5 12 Q90 36 55 72 L77 92 Q93 75 116.5 61 Q140 47 167 37 Q194 27 222 21.5 Q250 16 276 16 Q360 16 398 44.5 Q436 73 436 112 Q436 147 410.5 173.5 Q385 200 319 221 L194 261 Q131 281 96.5 314 Q62 347 62 392 Q62 418 73.5 442.5 Q85 467 108.5 486 Q132 505 168.5 516.5 Q205 528 255 528 Q310 528 348.5 511 Q387 494 411 469 Q435 444 446 416.5 Q457 389 457 368 L430 368 Q423 427 375 463.5 Q327 500 255 500 Q212 500 181.5 491 Q151 482 131 467 Q111 452 101.5 432.5 Q92 413 92 392 Z " />
<glyph glyph-name="t" unicode="t" horiz-adv-x="296" d="M128 0 L128 486 L10 486 L10 512 L128 512 L128 640 L158 640 L158 512 L276 512 L276 486 L158 486 L158 0 L128 0 Z " />
<glyph glyph-name="u" unicode="u" horiz-adv-x="653" d="M75 512 L105 512 L105 230 Q105 185 121 146.5 Q137 108 165 79 Q193 50 231.5 33.5 Q270 17 315 17 Q359 17 398.5 35 Q438 53 467.5 84 Q497 115 514.5 157 Q532 199 533 248 L533 512 L563 512 L563 0 L533 0 L533 150 Q527 124 508.5 96 Q490 68 462 44.5 Q434 21 396.5 5.5 Q359 -10 315 -10 Q263 -10 219 9 Q175 28 143 61.5 Q111 95 93 141 Q75 187 75 240 L75 512 Z " />
<glyph glyph-name="v" unicode="v" horiz-adv-x="515" d="M261 27 L467 512 L498 512 L281 0 L234 0 L17 512 L48 512 L254 27 L261 27 Z " />
<glyph glyph-name="w" unicode="w" horiz-adv-x="770" d="M564 27 L567 27 L721 512 L750 512 L587 0 L543 0 L385 486 L382 486 L224 0 L180 0 L17 512 L46 512 L200 27 L203 27 L364 512 L403 512 L564 27 Z " />
<glyph glyph-name="x" unicode="x" horiz-adv-x="450" d="M433 0 L398 0 L225 231 L52 0 L17 0 L206 255 L18 512 L53 512 L225 279 L397 512 L432 512 L244 255 L433 0 Z " />
<glyph glyph-name="y" unicode="y" horiz-adv-x="567" d="M286 -3 L519 512 L550 512 L298 -47 L298 -256 L269 -256 L269 -47 L17 512 L48 512 L281 -3 L286 -3 Z " />
<glyph glyph-name="z" unicode="z" horiz-adv-x="509" d="M459 27 L459 0 L60 0 L45 25 L427 486 L61 486 L61 512 L450 512 L464 487 L83 27 L459 27 Z " />
<glyph glyph-name="bar" unicode="&#x7c;" horiz-adv-x="220" d="M95 896 L125 896 L125 -128 L95 -128 L95 896 Z " />
<glyph glyph-name="cent" unicode="&#xa2;" horiz-adv-x="556" d="M70 257 Q70 209 87.5 167.5 Q105 126 135.5 94.5 Q166 63 207 45 Q248 27 296 27 Q359 27 401.5 52 Q444 77 478 114 L496 95 Q462 53 414.5 28 Q367 3 310 0 L310 -128 L280 -128 L280 0 Q229 3 185.5 24 Q142 45 109.5 79.5 Q77 114 58.5 159.5 Q40 205 40 256 Q40 307 58.5 352 Q77 397 109.5 431.5 Q142 466 185.5 487 Q229 508 280 511 L280 640 L310 640 L310 511 Q367 508 414.5 483 Q462 458 496 416 L478 400 Q444 436 401.5 461 Q359 486 296 486 Q248 486 207 468 Q166 450 135.5 419 Q105 388 87.5 346.5 Q70 305 70 257 Z " />
<glyph glyph-name="sterling" unicode="&#xa3;" horiz-adv-x="570" d="M54 386 L150 386 L150 576 Q150 616 165 651 Q180 686 206 712 Q232 738 267 753 Q302 768 342 768 Q384 768 419 753 Q454 738 479.5 712 Q505 686 519.5 651 Q534 616 534 576 L508 576 Q508 612 495.5 642 Q483 672 460.5 694.5 Q438 717 408 729.5 Q378 742 342 742 Q309 742 279.5 729 Q250 716 228 694 Q206 672 193 642.5 Q180 613 180 580 L180 386 L534 386 L534 360 L180 360 L180 27 L534 27 L534 0 L150 0 L150 360 L54 360 L54 386 Z " />
<glyph glyph-name="dieresis" unicode="&#xa8;" horiz-adv-x="338" d="M50 663 Q50 677 60.5 687.5 Q71 698 85 698 Q99 698 109.5 687.5 Q120 677 120 663 Q120 649 109.5 638.5 Q99 628 85 628 Q71 628 60.5 638.5 Q50 649 50 663 Z M218 663 Q218 677 228.5 687.5 Q239 698 253 698 Q267 698 277.5 687.5 Q288 677 288 663 Q288 649 277.5 638.5 Q267 628 253 628 Q239 628 228.5 638.5 Q218 649 218 663 Z " />
<glyph glyph-name="copyright" unicode="&#xa9;" horiz-adv-x="811" d="M30 364 Q30 442 59.5 511 Q89 580 140 631 Q191 682 259 711.5 Q327 741 404 741 Q482 741 551 711.5 Q620 682 671 631 Q722 580 751.5 511 Q781 442 781 364 Q781 287 751.5 219 Q722 151 671 100 Q620 49 551 19.5 Q482 -10 404 -10 Q327 -10 259 19.5 Q191 49 140 100 Q89 151 59.5 219 Q30 287 30 364 Z M58 364 Q58 293 85.5 230 Q113 167 160 120 Q207 73 270 45.5 Q333 18 404 18 Q476 18 540 45.5 Q604 73 651 120 Q698 167 725.5 230 Q753 293 753 364 Q753 436 725.5 500 Q698 564 651 611 Q604 658 540 685.5 Q476 713 404 713 Q333 713 270 685.5 Q207 658 160 611 Q113 564 85.5 500 Q58 436 58 364 Z M238 366 Q238 331 251 300.5 Q264 270 287 247 Q310 224 340.5 210.5 Q371 197 407 197 Q456 197 487 216 Q518 235 544 262 L560 245 Q533 212 494 192.5 Q455 173 408 173 Q367 173 331.5 188 Q296 203 269.5 229.5 Q243 256 227.5 291 Q212 326 212 366 Q212 407 227.5 442.5 Q243 478 269.5 504.5 Q296 531 331.5 546 Q367 561 408 561 Q455 561 494 541.5 Q533 522 560 489 L544 473 Q518 500 487 519 Q456 538 407 538 Q371 538 340.5 524.5 Q310 511 287 487.5 Q264 464 251 433 Q238 402 238 366 Z " />
<glyph glyph-name="macron" unicode="&#xaf;" horiz-adv-x="382" d="M332 629 L50 629 L50 654 L332 654 L332 629 Z " />
<glyph glyph-name="degree" unicode="&#xb0;" horiz-adv-x="292" d="M50 638 Q50 678 78 706 Q106 734 146 734 Q186 734 214 706 Q242 678 242 638 Q242 598 214 570 Q186 542 146 542 Q106 542 78 570 Q50 598 50 638 Z M76 638 Q76 609 96.5 588.5 Q117 568 146 568 Q175 568 195 588.5 Q215 609 215 638 Q215 667 195 687 Q175 707 146 707 Q117 707 96.5 687 Q76 667 76 638 Z " />
<glyph glyph-name="acute" unicode="&#xb4;" horiz-adv-x="264" d="M64 574 L50 588 L172 728 Q179 736 189 737 Q199 738 207 731 Q214 723 213 713 Q212 703 204 696 L64 574 Z " />
<glyph glyph-name="cedilla" unicode="&#xb8;" horiz-adv-x="265" d="M106 64 L130 64 L130 -1 Q146 -3 161.5 -10 Q177 -17 189 -29.5 Q201 -42 208 -59 Q215 -76 215 -96 Q215 -138 186.5 -165 Q158 -192 118 -192 Q98 -192 81 -184.5 Q64 -177 50 -164 L68 -147 Q78 -155 91 -161 Q104 -167 118 -167 Q147 -167 167.5 -147 Q188 -127 188 -96 Q188 -65 168 -45 Q148 -25 117 -25 Q100 -25 87.5 -31 Q75 -37 67 -45 L50 -28 Q59 -18 73.5 -10.5 Q88 -3 106 -1 L106 64 Z " />
<glyph glyph-name="multiply" unicode="&#xd7;" horiz-adv-x="416" d="M50 393 L71 415 L207 279 L343 415 L366 391 L230 255 L366 120 L345 98 L209 234 L73 98 L50 122 L186 258 L50 393 Z " />
<glyph glyph-name="germandbls" unicode="&#xdf;" horiz-adv-x="662" d="M467 375 Q502 366 530.5 349 Q559 332 579.5 308.5 Q600 285 611 256.5 Q622 228 622 197 Q622 158 607 122.5 Q592 87 561.5 59.5 Q531 32 483.5 16 Q436 0 370 0 L313 0 L313 27 L370 27 Q427 27 469 40.5 Q511 54 538 77.5 Q565 101 578.5 131.5 Q592 162 592 196 Q592 226 579 255 Q566 284 540 307.5 Q514 331 474.5 345.5 Q435 360 381 360 L312 360 L312 386 L381 386 Q423 386 457 399 Q491 412 514.5 434.5 Q538 457 551 487.5 Q564 518 564 553 Q564 586 551.5 619 Q539 652 512.5 679 Q486 706 444.5 723 Q403 740 344 740 Q291 740 247.5 722.5 Q204 705 173.5 672 Q143 639 126.5 592 Q110 545 110 486 L110 0 L80 0 L80 486 Q80 552 99.5 604.5 Q119 657 154 693 Q189 729 237.5 748.5 Q286 768 344 768 Q409 768 456 748.5 Q503 729 534 698 Q565 667 579.5 628.5 Q594 590 594 553 Q594 487 558 440 Q522 393 467 375 Z " />
<glyph glyph-name="divide" unicode="&#xf7;" horiz-adv-x="512" d="M50 243 L50 269 L462 269 L462 243 L50 243 Z M225 55 Q225 68 234 77 Q243 86 256 86 Q269 86 278 77 Q287 68 287 55 Q287 42 278 33 Q269 24 256 24 Q243 24 234 33 Q225 42 225 55 Z M225 456 Q225 469 234 478 Q243 487 256 487 Q269 487 278 478 Q287 469 287 456 Q287 443 278 434 Q269 425 256 425 Q243 425 234 434 Q225 443 225 456 Z " />
<glyph glyph-name="circumflex" unicode="&#x2c6;" horiz-adv-x="372" d="M184 680 L70 564 L50 583 L186 719 L322 583 L302 564 L184 680 Z " />
<glyph glyph-name="caron" unicode="&#x2c7;" horiz-adv-x="372" d="M188 603 L302 719 L322 700 L186 564 L50 700 L70 719 L188 603 Z " />
<glyph glyph-name="breve" unicode="&#x2d8;" horiz-adv-x="334" d="M50 696 L76 696 L76 681 Q76 642 102.5 616 Q129 590 167 590 Q205 590 231.5 616 Q258 642 258 681 L258 696 L284 696 L284 681 Q284 657 275 635.5 Q266 614 250 598 Q234 582 212.5 573 Q191 564 167 564 Q143 564 121.5 573 Q100 582 84 598 Q68 614 59 635.5 Q50 657 50 681 L50 696 Z " />
<glyph glyph-name="dotaccent" unicode="&#x2d9;" horiz-adv-x="170" d="M50 663 Q50 677 60.5 687.5 Q71 698 85 698 Q99 698 109.5 687.5 Q120 677 120 663 Q120 649 109.5 638.5 Q99 628 85 628 Q71 628 60.5 638.5 Q50 649 50 663 Z " />
<glyph glyph-name="ring" unicode="&#x2da;" horiz-adv-x="292" d="M50 672 Q50 712 78 740 Q106 768 146 768 Q186 768 214 740 Q242 712 242 672 Q242 632 214 604 Q186 576 146 576 Q106 576 78 604 Q50 632 50 672 Z M75 672 Q75 642 95.5 621.5 Q116 601 146 601 Q176 601 196.5 621.5 Q217 642 217 672 Q217 702 196.5 722.5 Q176 743 146 743 Q116 743 95.5 722.5 Q75 702 75 672 Z " />
<glyph glyph-name="ogonek" unicode="&#x2db;" horiz-adv-x="308" d="M50 -83 Q50 -60 58 -40 Q66 -20 80.5 -5 Q95 10 114 18.5 Q133 27 154 27 L154 0 Q138 0 123.5 -6.5 Q109 -13 98.5 -24.5 Q88 -36 82 -51 Q76 -66 76 -83 Q76 -100 82 -115 Q88 -130 98.5 -141 Q109 -152 123.5 -158.5 Q138 -165 154 -165 Q186 -165 209 -141 Q232 -117 232 -83 L258 -83 Q258 -106 250 -125.5 Q242 -145 227.5 -160 Q213 -175 194 -183.5 Q175 -192 154 -192 Q133 -192 114 -183.5 Q95 -175 80.5 -160 Q66 -145 58 -125.5 Q50 -106 50 -83 Z " />
<glyph glyph-name="tilde" unicode="&#x2dc;" horiz-adv-x="390" d="M265 708 Q300 708 320.5 684.5 Q341 661 339 622 L315 622 Q315 653 300.5 668 Q286 683 265 683 Q244 683 229 670 Q214 657 199.5 641 Q185 625 168 612 Q151 599 126 599 Q91 599 70.5 622.5 Q50 646 51 685 L76 685 Q76 653 88.5 638.5 Q101 624 126 624 Q145 624 159.5 637 Q174 650 189 666 Q204 682 222 695 Q240 708 265 708 Z " />
<glyph glyph-name="endash" unicode="&#x2013;" horiz-adv-x="1124" d="M50 243 L50 269 L1074 269 L1074 243 L50 243 Z " />
<glyph glyph-name="emdash" unicode="&#x2014;" horiz-adv-x="1636" d="M50 269 L1586 269 L1586 243 L50 243 L50 269 Z " />
<glyph glyph-name="quotesinglbase" unicode="&#x201a;" horiz-adv-x="139" d="M30 11 L68 92 Q56 95 48 104.5 Q40 114 40 127 Q40 141 50 151.5 Q60 162 74 162 Q94 162 103.5 145 Q113 128 104 109 L53 0 L30 11 Z " />
<glyph glyph-name="quotedblleft" unicode="&#x201c;" horiz-adv-x="279" d="M249 725 L211 644 Q223 641 231 631.5 Q239 622 239 609 Q239 595 229 584.5 Q219 574 205 574 Q185 574 175.5 591 Q166 608 175 627 L226 736 L249 725 Z M109 725 L71 644 Q83 641 91 631.5 Q99 622 99 609 Q99 595 89 584.5 Q79 574 65 574 Q45 574 35.5 591 Q26 608 35 627 L86 736 L109 725 Z " />
<glyph glyph-name="quotedblbase" unicode="&#x201e;" horiz-adv-x="279" d="M30 11 L68 92 Q56 95 48 104.5 Q40 114 40 127 Q40 141 50 151.5 Q60 162 74 162 Q94 162 103.5 145 Q113 128 104 109 L53 0 L30 11 Z M170 11 L208 92 Q196 95 188 104.5 Q180 114 180 127 Q180 141 190 151.5 Q200 162 214 162 Q234 162 243.5 145 Q253 128 244 109 L193 0 L170 11 Z " />
<glyph glyph-name="bullet" unicode="&#x2022;" horiz-adv-x="170" d="M50 256 Q50 270 60.5 280.5 Q71 291 85 291 Q99 291 109.5 280.5 Q120 270 120 256 Q120 242 109.5 231.5 Q99 221 85 221 Q71 221 60.5 231.5 Q50 242 50 256 Z " />
<glyph glyph-name="minus" unicode="&#x2212;" horiz-adv-x="514" d="M50 243 L50 269 L464 269 L464 243 L50 243 Z " />
<glyph glyph-name="commaaccent" unicode="&#xf6c3;" horiz-adv-x="179" d="M50 -215 L88 -134 Q76 -131 68 -121.5 Q60 -112 60 -99 Q60 -85 70 -74.5 Q80 -64 94 -64 Q114 -64 123.5 -81 Q133 -98 124 -117 L73 -226 L50 -215 Z " />
<glyph glyph-name="longs" unicode="&#x17f;" horiz-adv-x="426" d="M432 646 Q432 672 423.5 696 Q415 720 398.5 738 Q382 756 359 767 Q336 778 306 778 Q251 778 215.5 744.5 Q180 711 180 646 L180 0 L150 0 L150 486 L53 486 L53 512 L150 512 L150 646 Q150 687 162.5 717.5 Q175 748 196.5 768 Q218 788 246.5 798 Q275 808 306 808 Q340 808 369 794.5 Q398 781 418.5 758.5 Q439 736 450.5 706.5 Q462 677 462 646 L432 646 Z " />
<glyph glyph-name="hungarumlaut" unicode="&#x2dd;" horiz-adv-x="428" d="M64 574 L50 588 L172 728 Q179 736 189 737 Q199 738 207 731 Q214 723 213 713 Q212 703 204 696 L64 574 Z M228 574 L214 588 L336 728 Q343 736 353 737 Q363 738 371 731 Q378 723 377 713 Q376 703 368 696 L228 574 Z " />
<glyph glyph-name="grave" unicode="&#x60;" horiz-adv-x="264" d="M60 696 Q52 703 51 713 Q50 723 57 731 Q65 738 75 737 Q85 736 92 728 L214 588 L200 574 L60 696 Z " />
<glyph glyph-name="AE" unicode="&#xc6;" horiz-adv-x="759" d="M714 708 L366 708 L366 386 L714 386 L714 360 L366 360 L366 27 L714 27 L714 0 L336 0 L336 174 L117 174 Q109 156 100 134 Q91 112 82 88.5 Q73 65 64.5 42 Q56 19 48 0 L17 1 L313 736 L714 735 L714 708 Z M336 200 L336 708 L330 708 L128 200 L336 200 Z " />
<glyph glyph-name="OE" unicode="&#x152;" horiz-adv-x="971" d="M55 368 Q55 448 84.5 517.5 Q114 587 165.5 638.5 Q217 690 286.5 719.5 Q356 749 436 749 Q489 749 542 735 L926 735 L926 708 L568 708 L568 386 L926 386 L926 360 L568 360 L568 27 L926 27 L926 0 L542 0 Q516 -5 487 -9 Q458 -13 436 -13 Q356 -13 286.5 17 Q217 47 165.5 98.5 Q114 150 84.5 219.5 Q55 289 55 368 Z M436 722 Q362 722 298 694 Q234 666 187 618 Q140 570 112.5 505.5 Q85 441 85 368 Q85 294 112.5 229.5 Q140 165 187 117 Q234 69 298 41.5 Q362 14 436 14 Q455 14 483.5 17.5 Q512 21 535 27 L535 708 Q511 716 485.5 719 Q460 722 436 722 Z " />
<glyph glyph-name="eth" unicode="&#xf0;" horiz-adv-x="648" d="M586 247 Q586 194 566 147.5 Q546 101 511 66 Q476 31 429.5 11 Q383 -9 330 -9 Q277 -9 230.5 11 Q184 31 149 66 Q114 101 94 147.5 Q74 194 74 247 Q74 303 95 349.5 Q116 396 151 429 Q186 462 232.5 479.5 Q279 497 330 496 Q365 495 400.5 484.5 Q436 474 471 453 L371 621 L223 582 L217 603 L360 641 L289 762 L320 762 L387 648 L520 684 L526 663 L399 629 L535 400 Q556 365 571 327.5 Q586 290 586 247 Z M104 247 Q104 200 122 159 Q140 118 170.5 87.5 Q201 57 242 39 Q283 21 330 21 Q377 21 418 39 Q459 57 490 87.5 Q521 118 538.5 159 Q556 200 556 247 Q556 297 536.5 338 Q517 379 485 408 Q453 437 410.5 453 Q368 469 323 469 Q276 469 236 451.5 Q196 434 166.5 404 Q137 374 120.5 333.5 Q104 293 104 247 Z " />
<glyph glyph-name="quotedblright" unicode="&#x201d;" horiz-adv-x="279" d="M30 585 L68 666 Q56 669 48 678.5 Q40 688 40 701 Q40 715 50 725.5 Q60 736 74 736 Q94 736 103.5 719 Q113 702 104 683 L53 574 L30 585 Z M170 585 L208 666 Q196 669 188 678.5 Q180 688 180 701 Q180 715 190 725.5 Q200 736 214 736 Q234 736 243.5 719 Q253 702 244 683 L193 574 L170 585 Z " />
<glyph glyph-name="quoteright" unicode="&#x2019;" horiz-adv-x="139" d="M30 585 L68 666 Q56 669 48 678.5 Q40 688 40 701 Q40 715 50 725.5 Q60 736 74 736 Q94 736 103.5 719 Q113 702 104 683 L53 574 L30 585 Z " />
<glyph glyph-name="quoteleft" unicode="&#x2018;" horiz-adv-x="139" d="M109 725 L71 644 Q83 641 91 631.5 Q99 622 99 609 Q99 595 89 584.5 Q79 574 65 574 Q45 574 35.5 591 Q26 608 35 627 L86 736 L109 725 Z " />
<glyph glyph-name="questiondown" unicode="&#xbf;" horiz-adv-x="582" d="M348 492 L291 492 Q243 492 201 474 Q159 456 127.5 424.5 Q96 393 78 351 Q60 309 60 261 Q60 213 78 171 Q96 129 127.5 97.5 Q159 66 201 48 Q243 30 291 30 Q339 30 381 48 Q423 66 454.5 97.5 Q486 129 504 171 Q522 213 522 261 L552 261 Q552 207 531.5 159 Q511 111 476 76 Q441 41 393 20.5 Q345 0 291 0 Q237 0 189 20.5 Q141 41 106 76 Q71 111 50.5 159 Q30 207 30 261 Q30 315 50.5 363 Q71 411 106 446 Q141 481 189 501.5 Q237 522 291 522 L348 522 L348 492 Z M325 733 Q325 719 314.5 708.5 Q304 698 290 698 Q276 698 265.5 708.5 Q255 719 255 733 Q255 747 265.5 757.5 Q276 768 290 768 Q304 768 314.5 757.5 Q325 747 325 733 Z " />
<glyph glyph-name="exclamdown" unicode="&#xa1;" horiz-adv-x="344" d="M207 733 Q207 719 196.5 708.5 Q186 698 172 698 Q158 698 147.5 708.5 Q137 719 137 733 Q137 747 147.5 757.5 Q158 768 172 768 Q186 768 196.5 757.5 Q207 747 207 733 Z M187 532 L187 0 L158 0 L158 532 L187 532 Z " />
<glyph glyph-name="greater" unicode="&#x3e;" horiz-adv-x="384" d="M334 256 L78 0 L54 0 L50 11 L295 256 L50 501 L54 512 L78 512 L334 256 Z " />
<glyph glyph-name="guillemotleft" unicode="&#xab;" horiz-adv-x="618" d="M306 512 L330 512 L334 501 L89 256 L334 11 L330 0 L306 0 L50 256 L306 512 Z M540 512 L564 512 L568 501 L323 256 L568 11 L564 0 L540 0 L284 256 L540 512 Z " />
<glyph glyph-name="guilsinglleft" unicode="&#x2039;" horiz-adv-x="384" d="M306 512 L330 512 L334 501 L89 256 L334 11 L330 0 L306 0 L50 256 L306 512 Z " />
<glyph glyph-name="guilsinglright" unicode="&#x203a;" horiz-adv-x="384" d="M334 256 L78 0 L54 0 L50 11 L295 256 L50 501 L54 512 L78 512 L334 256 Z " />
<glyph glyph-name="estimated" unicode="&#x212e;" horiz-adv-x="602" d="M43 256 Q43 311 63.5 359.5 Q84 408 120 444 Q156 480 204.5 500.5 Q253 521 308 521 Q363 521 411.5 500.5 Q460 480 496 444 Q532 408 552.5 359.5 Q573 311 573 256 L207 256 L207 65 Q229 48 255 41 Q281 34 308 34 Q374 34 420 61.5 Q466 89 495 135 L544 135 Q512 69 449 30 Q386 -9 308 -9 Q253 -9 204.5 11.5 Q156 32 120 68 Q84 104 63.5 152.5 Q43 201 43 256 Z M207 295 L406 295 L406 447 Q384 463 359 470.5 Q334 478 308 478 Q281 478 255 470 Q229 462 207 445 L207 295 Z " />
<glyph glyph-name="backslash" unicode="&#x5c;" horiz-adv-x="265" d="M-1 738 L191 -30 L162 -30 L-30 738 L-1 738 Z " />
<glyph glyph-name="partialdiff" unicode="&#x2202;" horiz-adv-x="636" d="M662 242 Q662 189 642 142.5 Q622 96 587 61 Q552 26 505.5 6 Q459 -14 406 -14 Q353 -14 306.5 6 Q260 26 225 61 Q190 96 170 142.5 Q150 189 150 242 Q150 298 171 344.5 Q192 391 227 424 Q262 457 308.5 474.5 Q355 492 406 491 Q441 490 476.5 479.5 Q512 469 547 448 L365 754 L396 754 L611 395 Q632 360 647 322.5 Q662 285 662 242 Z M180 242 Q180 195 198 154 Q216 113 246.5 82.5 Q277 52 318 34 Q359 16 406 16 Q453 16 494 34 Q535 52 566 82.5 Q597 113 614.5 154 Q632 195 632 242 Q632 292 612.5 333 Q593 374 561 403 Q529 432 486.5 448 Q444 464 399 464 Q352 464 312 446.5 Q272 429 242.5 399 Q213 369 196.5 328.5 Q180 288 180 242 Z " />
<glyph glyph-name="braceleft" unicode="&#x7b;" horiz-adv-x="574" d="M284 -128 Q243 -128 207.5 -112.5 Q172 -97 146 -70 Q120 -43 105 -7 Q90 29 90 70 L90 196 Q90 233 79.5 265 Q69 297 50.5 320.5 Q32 344 7 357.5 Q-18 371 -47 371 L-48 371 L-48 397 L-47 397 Q16 402 53 442 Q90 482 90 563 L90 698 Q90 739 105 775 Q120 811 146 838 Q172 865 207.5 880.5 Q243 896 284 896 L284 869 Q250 869 220 856 Q190 843 168 821 Q146 799 133 769 Q120 739 120 705 L120 563 Q120 533 113.5 504.5 Q107 476 93 452.5 Q79 429 56.5 411 Q34 393 2 384 Q35 372 57.5 350 Q80 328 94 302 Q108 276 114 248 Q120 220 120 196 L120 63 Q120 29 133 -1 Q146 -31 168 -53 Q190 -75 220 -88 Q250 -101 284 -101 L284 -128 Z " />
<glyph glyph-name="braceright" unicode="&#x7d;" horiz-adv-x="574" d="M-48 -101 Q-14 -101 16 -88 Q46 -75 68 -53 Q90 -31 103 -1 Q116 29 116 63 L116 196 Q116 220 122 248 Q128 276 142 302 Q156 328 178.5 350 Q201 372 234 384 Q202 393 179.5 411 Q157 429 143 452.5 Q129 476 122.5 504.5 Q116 533 116 563 L116 705 Q116 739 103 769 Q90 799 68 821 Q46 843 16 856 Q-14 869 -48 869 L-48 896 Q-7 896 28.5 880.5 Q64 865 90 838 Q116 811 131 775 Q146 739 146 698 L146 563 Q146 482 183 442 Q220 402 283 397 L284 397 L284 371 L283 371 Q254 371 229 357.5 Q204 344 185.5 320.5 Q167 297 156.5 265 Q146 233 146 196 L146 70 Q146 29 131 -7 Q116 -43 90 -70 Q64 -97 28.5 -112.5 Q-7 -128 -48 -128 L-48 -101 Z " />
<glyph glyph-name="perthousand" unicode="&#x2030;" horiz-adv-x="804" d="M455 678 L83 90 L50 90 L422 678 L455 678 Z M362 125 Q362 139 372.5 149.5 Q383 160 397 160 Q411 160 421.5 149.5 Q432 139 432 125 Q432 111 421.5 100.5 Q411 90 397 90 Q383 90 372.5 100.5 Q362 111 362 125 Z M53 643 Q53 657 63.5 667.5 Q74 678 88 678 Q102 678 112.5 667.5 Q123 657 123 643 Q123 629 112.5 618.5 Q102 608 88 608 Q74 608 63.5 618.5 Q53 629 53 643 Z M492 125 Q492 139 502.5 149.5 Q513 160 527 160 Q541 160 551.5 149.5 Q562 139 562 125 Q562 111 551.5 100.5 Q541 90 527 90 Q513 90 502.5 100.5 Q492 111 492 125 Z " />
<glyph glyph-name="registered" unicode="&#xae;" horiz-adv-x="811" d="M30 364 Q30 442 59.5 511 Q89 580 140 631 Q191 682 259 711.5 Q327 741 404 741 Q482 741 551 711.5 Q620 682 671 631 Q722 580 751.5 511 Q781 442 781 364 Q781 287 751.5 219 Q722 151 671 100 Q620 49 551 19.5 Q482 -10 404 -10 Q327 -10 259 19.5 Q191 49 140 100 Q89 151 59.5 219 Q30 287 30 364 Z M58 364 Q58 293 85.5 230 Q113 167 160 120 Q207 73 270 45.5 Q333 18 404 18 Q476 18 540 45.5 Q604 73 651 120 Q698 167 725.5 230 Q753 293 753 364 Q753 436 725.5 500 Q698 564 651 611 Q604 658 540 685.5 Q476 713 404 713 Q333 713 270 685.5 Q207 658 160 611 Q113 564 85.5 500 Q58 436 58 364 Z M303 188 L278 188 L278 548 L425 548 Q449 548 469.5 539 Q490 530 505 515 Q520 500 529 479.5 Q538 459 538 435 Q538 393 514.5 364.5 Q491 336 452 325 L534 188 L505 188 L425 322 L303 322 L303 188 Z M417 344 Q459 344 486.5 370.5 Q514 397 514 435 Q514 454 507 470.5 Q500 487 487.5 499.5 Q475 512 458.5 519 Q442 526 423 526 L303 526 L303 344 L417 344 Z " />
<glyph glyph-name="exclam" unicode="&#x21;" horiz-adv-x="344" d="M137 35 Q137 49 147.5 59.5 Q158 70 172 70 Q186 70 196.5 59.5 Q207 49 207 35 Q207 21 196.5 10.5 Q186 0 172 0 Q158 0 147.5 10.5 Q137 21 137 35 Z M158 236 L158 768 L187 768 L187 236 L158 236 Z " />
<glyph glyph-name="asciitilde" unicode="&#x7e;" horiz-adv-x="571" d="M383 335 Q409 335 430.5 325.5 Q452 316 467 298.5 Q482 281 490 256.5 Q498 232 497 202 L469 202 Q469 253 445.5 279.5 Q422 306 383 306 Q350 306 326.5 284.5 Q303 263 280.5 236.5 Q258 210 232.5 188.5 Q207 167 169 167 Q115 167 83.5 203 Q52 239 54 300 L82 300 Q82 246 104.5 221 Q127 196 169 196 Q198 196 221 217.5 Q244 239 267 265.5 Q290 292 317.5 313.5 Q345 335 383 335 Z " />
<glyph glyph-name="dagger" unicode="&#x2020;" horiz-adv-x="505" d="M50 563 L50 589 L238 589 L238 832 L268 832 L268 589 L455 589 L455 563 L268 563 L268 -128 L238 -128 L238 563 L50 563 Z " />
<glyph glyph-name="brokenbar" unicode="&#xa6;" horiz-adv-x="220" d="M95 320 L125 320 L125 -128 L95 -128 L95 320 Z M125 448 L95 448 L95 896 L125 896 L125 448 Z " />
<glyph glyph-name="trademark" unicode="&#x2122;" horiz-adv-x="536" d="M162 768 L182 768 L233 703 L284 768 L303 768 L303 652 L284 652 L284 737 L233 673 L182 737 L182 652 L162 652 L162 768 Z M47 768 L145 768 L145 749 L105 749 L105 652 L86 652 L86 749 L47 749 L47 768 Z " />
<glyph glyph-name="Euro" unicode="&#x20ac;" horiz-adv-x="730" d="M-38 451 L-38 477 L63 477 Q80 535 114 584.5 Q148 634 195 670 Q242 706 300.5 726 Q359 746 426 746 Q507 746 574 716.5 Q641 687 693 636 L674 617 Q626 665 562 692 Q498 719 426 719 Q367 719 314 701 Q261 683 218 651 Q175 619 143 574.5 Q111 530 95 477 L394 477 L394 451 L87 451 Q78 410 78 367 Q78 325 87 286 L394 286 L394 260 L94 260 Q110 206 142.5 161 Q175 116 218.5 84 Q262 52 315 34 Q368 16 426 16 Q501 16 562 43.5 Q623 71 674 118 L693 99 Q642 48 573.5 18.5 Q505 -11 426 -11 Q360 -11 301.5 9 Q243 29 195.5 65 Q148 101 114 151 Q80 201 63 260 L-38 260 L-38 286 L56 286 Q52 306 50 326 Q48 346 48 367 Q48 410 57 451 L-38 451 Z " />
<glyph glyph-name="kgreenlandic" unicode="&#x138;" horiz-adv-x="533" d="M120 225 L260 225 Q300 225 335 239.5 Q370 254 396 279.5 Q422 305 437 340 Q452 375 452 416 L452 512 L482 512 L482 416 Q482 382 471 349 Q460 316 439.5 287.5 Q419 259 390.5 238 Q362 217 326 208 L493 0 L456 0 L296 199 L120 199 L120 0 L90 0 L90 512 L120 512 L120 225 Z " />
<glyph glyph-name="threequartersemdash" unicode="&#xf6de;" horiz-adv-x="1636" d="M50 269 L1586 269 L1586 243 L50 243 L50 269 Z " />
<glyph glyph-name="lira" unicode="&#x20a4;" horiz-adv-x="570" d="M54 262 L150 262 L150 426 L54 426 L54 452 L150 452 L150 576 Q150 616 165 651 Q180 686 206 712 Q232 738 267 753 Q302 768 342 768 Q384 768 419 753 Q454 738 479.5 712 Q505 686 519.5 651 Q534 616 534 576 L508 576 Q508 612 495.5 642 Q483 672 460.5 694.5 Q438 717 408 729.5 Q378 742 342 742 Q309 742 279.5 729 Q250 716 228 694 Q206 672 193 642.5 Q180 613 180 580 L180 452 L534 452 L534 426 L180 426 L180 262 L534 262 L534 236 L180 236 L180 27 L534 27 L534 0 L150 0 L150 236 L54 236 L54 262 Z " />
<glyph glyph-name="yen" unicode="&#xa5;" horiz-adv-x="593" d="M81 220 L81 246 L262 246 L17 735 L48 735 L294 246 L540 735 L570 735 L326 246 L513 246 L513 220 L309 220 L309 132 L513 132 L513 106 L309 106 L309 0 L279 0 L279 106 L81 106 L81 132 L279 132 L279 220 L81 220 Z " />
<glyph glyph-name="ae" unicode="&#xe6;" horiz-adv-x="981" d="M936 256 L936 240 L468 240 Q468 188 488 147 Q508 106 540 77 Q572 48 611.5 32.5 Q651 17 691 17 Q742 17 780.5 31.5 Q819 46 850 69 L866 48 Q830 20 787 5 Q744 -10 690 -10 Q653 -10 616.5 1.5 Q580 13 547.5 35.5 Q515 58 490 91 Q465 124 452 167 Q443 127 422.5 94.5 Q402 62 372 39.5 Q342 17 304 4.5 Q266 -8 223 -8 Q181 -8 148 3 Q115 14 92 33.5 Q69 53 57 79.5 Q45 106 45 138 Q45 163 55.5 186 Q66 209 88.5 226.5 Q111 244 144.5 254.5 Q178 265 225 265 L438 265 L438 295 Q438 329 428 363 Q418 397 396 424.5 Q374 452 340.5 469 Q307 486 261 486 Q219 486 184 472 Q149 458 120 433 L103 453 Q173 512 261 512 Q301 512 333.5 500 Q366 488 390.5 467 Q415 446 432 417.5 Q449 389 457 357 Q469 391 490.5 420.5 Q512 450 541.5 472.5 Q571 495 608 508 Q645 521 687 521 Q746 521 792 498.5 Q838 476 870 439 Q902 402 919 354 Q936 306 936 256 Z M687 494 Q639 494 599 477 Q559 460 529.5 429 Q500 398 484 356 Q468 314 468 265 L907 265 Q907 312 891 353.5 Q875 395 846 426.5 Q817 458 776.5 476 Q736 494 687 494 Z M74 138 Q74 85 115 52 Q156 19 223 19 Q263 19 302 33 Q341 47 371 74.5 Q401 102 419.5 143.5 Q438 185 438 240 L225 240 Q147 240 110.5 210 Q74 180 74 138 Z " />
<glyph glyph-name="oe" unicode="&#x153;" horiz-adv-x="1091" d="M55 256 Q55 310 75.5 358 Q96 406 131 441 Q166 476 214 496.5 Q262 517 316 517 Q358 517 396.5 504 Q435 491 467.5 467 Q500 443 524 409.5 Q548 376 561 336 Q585 421 646.5 471 Q708 521 797 521 Q856 521 902 498.5 Q948 476 980 439 Q1012 402 1029 354 Q1046 306 1046 256 L1046 240 L578 240 Q578 194 596 153.5 Q614 113 645 82.5 Q676 52 716.5 34.5 Q757 17 801 17 Q852 17 890.5 31.5 Q929 46 960 69 L976 48 Q940 20 897 5 Q854 -10 800 -10 Q762 -10 724.5 1.5 Q687 13 655 36.5 Q623 60 597.5 94.5 Q572 129 559 175 Q545 134 521 100.5 Q497 67 465 43.5 Q433 20 395 7.5 Q357 -5 316 -5 Q262 -5 214 15.5 Q166 36 131 71 Q96 106 75.5 154 Q55 202 55 256 Z M85 256 Q85 209 103.5 167 Q122 125 153.5 93.5 Q185 62 227 43.5 Q269 25 316 25 Q363 25 405 43.5 Q447 62 478.5 93.5 Q510 125 528.5 167 Q547 209 547 256 Q547 303 528.5 345 Q510 387 478.5 418.5 Q447 450 405 468.5 Q363 487 316 487 Q269 487 227 468.5 Q185 450 153.5 418.5 Q122 387 103.5 345 Q85 303 85 256 Z M797 494 Q749 494 709 477 Q669 460 640 429 Q611 398 594.5 356 Q578 314 578 265 L1017 265 Q1017 312 1001 353.5 Q985 395 956 426.5 Q927 458 886.5 476 Q846 494 797 494 Z " />
<glyph glyph-name="Oslash" unicode="&#xd8;" horiz-adv-x="861" d="M50 368 Q50 446 80 515.5 Q110 585 161.5 637 Q213 689 282.5 719 Q352 749 430 749 Q505 749 571 722 Q637 695 688 648 L750 710 L771 689 L709 627 Q757 576 784 509.5 Q811 443 811 368 Q811 290 781 220.5 Q751 151 699 99 Q647 47 578 17 Q509 -13 430 -13 Q355 -13 288.5 14 Q222 41 171 89 L110 28 L89 49 L150 110 Q103 161 76.5 227 Q50 293 50 368 Z M430 18 Q502 18 566 45.5 Q630 73 677.5 121 Q725 169 752.5 232.5 Q780 296 780 368 Q780 437 755 497 Q730 557 687 605 L193 111 Q240 67 300.5 42.5 Q361 18 430 18 Z M80 368 Q80 299 104.5 239 Q129 179 172 132 L666 626 Q618 669 558.5 693.5 Q499 718 430 718 Q358 718 294.5 690.5 Q231 663 183 615 Q135 567 107.5 503.5 Q80 440 80 368 Z " />
<glyph glyph-name="oslash" unicode="&#xf8;" horiz-adv-x="622" d="M50 256 Q50 310 70.5 358 Q91 406 126 441 Q161 476 209 496.5 Q257 517 311 517 Q362 517 406.5 499 Q451 481 486 450 L525 489 L544 470 L505 431 Q536 396 554 351.5 Q572 307 572 256 Q572 202 551.5 154 Q531 106 496 71 Q461 36 413 15.5 Q365 -5 311 -5 Q260 -5 215.5 12.5 Q171 30 136 62 L97 23 L78 42 L117 81 Q85 116 67.5 160.5 Q50 205 50 256 Z M311 25 Q358 25 400 43.5 Q442 62 473.5 93.5 Q505 125 523.5 167 Q542 209 542 256 Q542 300 526 339 Q510 378 483 409 L158 84 Q189 56 227.5 40.5 Q266 25 311 25 Z M80 256 Q80 211 95.5 172.5 Q111 134 139 103 L464 428 Q433 455 394 471 Q355 487 311 487 Q264 487 222 468.5 Q180 450 148.5 418.5 Q117 387 98.5 345 Q80 303 80 256 Z " />
<glyph glyph-name="ellipsis" unicode="&#x2026;" horiz-adv-x="822" d="M102 35 Q102 49 112.5 59.5 Q123 70 137 70 Q151 70 161.5 59.5 Q172 49 172 35 Q172 21 161.5 10.5 Q151 0 137 0 Q123 0 112.5 10.5 Q102 21 102 35 Z M376 35 Q376 49 386.5 59.5 Q397 70 411 70 Q425 70 435.5 59.5 Q446 49 446 35 Q446 21 435.5 10.5 Q425 0 411 0 Q397 0 386.5 10.5 Q376 21 376 35 Z M650 35 Q650 49 660.5 59.5 Q671 70 685 70 Q699 70 709.5 59.5 Q720 49 720 35 Q720 21 709.5 10.5 Q699 0 685 0 Q671 0 660.5 10.5 Q650 21 650 35 Z " />
<glyph glyph-name="guillemotright" unicode="&#xbb;" horiz-adv-x="618" d="M568 256 L312 0 L288 0 L284 11 L529 256 L284 501 L288 512 L312 512 L568 256 Z M334 256 L78 0 L54 0 L50 11 L295 256 L50 501 L54 512 L78 512 L334 256 Z " />
<glyph glyph-name="paragraph" unicode="&#xb6;" horiz-adv-x="755" d="M265 250 Q212 250 167.5 269 Q123 288 90 320.5 Q57 353 38.5 397 Q20 441 20 492 Q20 543 38.5 587 Q57 631 90 664 Q123 697 167.5 716 Q212 735 265 735 L675 735 L675 0 L645 0 L645 708 L502 708 L502 0 L472 0 L472 250 L265 250 Z M472 276 L472 708 L265 708 Q218 708 179 692 Q140 676 111 647.5 Q82 619 66 579.5 Q50 540 50 492 Q50 444 66 404.5 Q82 365 111 336.5 Q140 308 179 292 Q218 276 265 276 L472 276 Z " />
<glyph glyph-name="Aacute" unicode="&#xc1;" horiz-adv-x="670" d="M623 0 L552 174 L118 174 L47 0 L17 0 L313 735 L357 735 L653 0 L623 0 Z M335 717 L129 200 L541 200 L335 717 Z M346 797 L332 811 L454 951 Q461 959 471 960 Q481 961 489 954 Q496 946 495 936 Q494 926 486 919 L346 797 Z " />
<glyph glyph-name="Abreve" unicode="&#x102;" horiz-adv-x="670" d="M623 0 L552 174 L118 174 L47 0 L17 0 L313 735 L357 735 L653 0 L623 0 Z M335 717 L129 200 L541 200 L335 717 Z M218 919 L244 919 L244 904 Q244 865 270.5 839 Q297 813 335 813 Q373 813 399.5 839 Q426 865 426 904 L426 919 L452 919 L452 904 Q452 880 443 858.5 Q434 837 418 821 Q402 805 380.5 796 Q359 787 335 787 Q311 787 289.5 796 Q268 805 252 821 Q236 837 227 858.5 Q218 880 218 904 L218 919 Z " />
<glyph glyph-name="Acircumflex" unicode="&#xc2;" horiz-adv-x="670" d="M623 0 L552 174 L118 174 L47 0 L17 0 L313 735 L357 735 L653 0 L623 0 Z M335 717 L129 200 L541 200 L335 717 Z M333 903 L219 787 L199 806 L335 942 L471 806 L451 787 L333 903 Z " />
<glyph glyph-name="Agrave" unicode="&#xc0;" horiz-adv-x="670" d="M623 0 L552 174 L118 174 L47 0 L17 0 L313 735 L357 735 L653 0 L623 0 Z M335 717 L129 200 L541 200 L335 717 Z M184 919 Q176 926 175 936 Q174 946 181 954 Q189 961 199 960 Q209 959 216 951 L338 811 L324 797 L184 919 Z " />
<glyph glyph-name="Adieresis" unicode="&#xc4;" horiz-adv-x="670" d="M623 0 L552 174 L118 174 L47 0 L17 0 L313 735 L357 735 L653 0 L623 0 Z M335 717 L129 200 L541 200 L335 717 Z M216 886 Q216 900 226.5 910.5 Q237 921 251 921 Q265 921 275.5 910.5 Q286 900 286 886 Q286 872 275.5 861.5 Q265 851 251 851 Q237 851 226.5 861.5 Q216 872 216 886 Z M384 886 Q384 900 394.5 910.5 Q405 921 419 921 Q433 921 443.5 910.5 Q454 900 454 886 Q454 872 443.5 861.5 Q433 851 419 851 Q405 851 394.5 861.5 Q384 872 384 886 Z " />
<glyph glyph-name="Amacron" unicode="&#x100;" horiz-adv-x="670" d="M623 0 L552 174 L118 174 L47 0 L17 0 L313 735 L357 735 L653 0 L623 0 Z M335 717 L129 200 L541 200 L335 717 Z M476 852 L194 852 L194 877 L476 877 L476 852 Z " />
<glyph glyph-name="Aogonek" unicode="&#x104;" horiz-adv-x="670" d="M519 -83 Q519 -39 546 -8.5 Q573 22 612 26 L552 174 L118 174 L47 0 L17 0 L313 735 L357 735 L653 0 L623 0 Q607 0 592.5 -6.5 Q578 -13 567.5 -24.5 Q557 -36 551 -51 Q545 -66 545 -83 Q545 -100 551 -115 Q557 -130 567.5 -141 Q578 -152 592.5 -158.5 Q607 -165 623 -165 Q655 -165 678 -141 Q701 -117 701 -83 L727 -83 Q727 -106 719 -125.5 Q711 -145 696.5 -160 Q682 -175 663 -183.5 Q644 -192 623 -192 Q602 -192 583 -183.5 Q564 -175 549.5 -160 Q535 -145 527 -125.5 Q519 -106 519 -83 Z M335 717 L129 200 L541 200 L335 717 Z " />
<glyph glyph-name="Aring" unicode="&#xc5;" horiz-adv-x="670" d="M623 0 L552 174 L118 174 L47 0 L17 0 L313 735 L357 735 L653 0 L623 0 Z M335 717 L129 200 L541 200 L335 717 Z M239 895 Q239 935 267 963 Q295 991 335 991 Q375 991 403 963 Q431 935 431 895 Q431 855 403 827 Q375 799 335 799 Q295 799 267 827 Q239 855 239 895 Z M264 895 Q264 865 284.5 844.5 Q305 824 335 824 Q365 824 385.5 844.5 Q406 865 406 895 Q406 925 385.5 945.5 Q365 966 335 966 Q305 966 284.5 945.5 Q264 925 264 895 Z " />
<glyph glyph-name="Atilde" unicode="&#xc3;" horiz-adv-x="670" d="M623 0 L552 174 L118 174 L47 0 L17 0 L313 735 L357 735 L653 0 L623 0 Z M335 717 L129 200 L541 200 L335 717 Z M404 931 Q439 931 459.5 907.5 Q480 884 478 845 L454 845 Q454 876 439.5 891 Q425 906 404 906 Q383 906 368 893 Q353 880 338.5 864 Q324 848 307 835 Q290 822 265 822 Q230 822 209.5 845.5 Q189 869 190 908 L215 908 Q215 876 227.5 861.5 Q240 847 265 847 Q284 847 298.5 860 Q313 873 328 889 Q343 905 361 918 Q379 931 404 931 Z " />
<glyph glyph-name="AEacute" unicode="&#x1fc;" horiz-adv-x="759" d="M714 708 L366 708 L366 386 L714 386 L714 360 L366 360 L366 27 L714 27 L714 0 L336 0 L336 174 L117 174 Q109 156 100 134 Q91 112 82 88.5 Q73 65 64.5 42 Q56 19 48 0 L17 1 L313 736 L714 735 L714 708 Z M336 200 L336 708 L330 708 L128 200 L336 200 Z M390 797 L376 811 L498 951 Q505 959 515 960 Q525 961 533 954 Q540 946 539 936 Q538 926 530 919 L390 797 Z " />
<glyph glyph-name="Cacute" unicode="&#x106;" horiz-adv-x="735" d="M80 367 Q80 292 107.5 228 Q135 164 182.5 117 Q230 70 293.5 43 Q357 16 428 16 Q503 16 564 43.5 Q625 71 676 118 L695 99 Q644 48 575.5 18.5 Q507 -11 428 -11 Q348 -11 279 18.5 Q210 48 159 99 Q108 150 79 219 Q50 288 50 367 Q50 445 78.5 514 Q107 583 157.5 634.5 Q208 686 277.5 716 Q347 746 428 746 Q509 746 576 716.5 Q643 687 695 636 L676 617 Q628 665 564 692 Q500 719 428 719 Q354 719 290.5 691.5 Q227 664 180.5 616.5 Q134 569 107 505 Q80 441 80 367 Z M378 797 L364 811 L486 951 Q493 959 503 960 Q513 961 521 954 Q528 946 527 936 Q526 926 518 919 L378 797 Z " />
<glyph glyph-name="Ccaron" unicode="&#x10c;" horiz-adv-x="735" d="M80 367 Q80 292 107.5 228 Q135 164 182.5 117 Q230 70 293.5 43 Q357 16 428 16 Q503 16 564 43.5 Q625 71 676 118 L695 99 Q644 48 575.5 18.5 Q507 -11 428 -11 Q348 -11 279 18.5 Q210 48 159 99 Q108 150 79 219 Q50 288 50 367 Q50 445 78.5 514 Q107 583 157.5 634.5 Q208 686 277.5 716 Q347 746 428 746 Q509 746 576 716.5 Q643 687 695 636 L676 617 Q628 665 564 692 Q500 719 428 719 Q354 719 290.5 691.5 Q227 664 180.5 616.5 Q134 569 107 505 Q80 441 80 367 Z M429 826 L543 942 L563 923 L427 787 L291 923 L311 942 L429 826 Z " />
<glyph glyph-name="Ccedilla" unicode="&#xc7;" horiz-adv-x="735" d="M80 367 Q80 292 107.5 228 Q135 164 182.5 117 Q230 70 293.5 43 Q357 16 428 16 Q503 16 564 43.5 Q625 71 676 118 L695 99 Q645 49 580 20 Q515 -9 440 -11 L440 -45 Q456 -47 471.5 -54 Q487 -61 499 -73.5 Q511 -86 518 -103 Q525 -120 525 -140 Q525 -182 496.5 -209 Q468 -236 428 -236 Q408 -236 391 -228.5 Q374 -221 360 -208 L378 -191 Q388 -199 401 -205 Q414 -211 428 -211 Q457 -211 477.5 -191 Q498 -171 498 -140 Q498 -109 478 -89 Q458 -69 427 -69 Q410 -69 397.5 -75 Q385 -81 377 -89 L360 -72 Q369 -62 383.5 -54.5 Q398 -47 416 -45 L416 -10 Q338 -8 271 22 Q204 52 155 103 Q106 154 78 221.5 Q50 289 50 367 Q50 445 78.5 514 Q107 583 157.5 634.5 Q208 686 277.5 716 Q347 746 428 746 Q509 746 576 716.5 Q643 687 695 636 L676 617 Q628 665 564 692 Q500 719 428 719 Q354 719 290.5 691.5 Q227 664 180.5 616.5 Q134 569 107 505 Q80 441 80 367 Z " />
<glyph glyph-name="Ccircumflex" unicode="&#x108;" horiz-adv-x="735" d="M80 367 Q80 292 107.5 228 Q135 164 182.5 117 Q230 70 293.5 43 Q357 16 428 16 Q503 16 564 43.5 Q625 71 676 118 L695 99 Q644 48 575.5 18.5 Q507 -11 428 -11 Q348 -11 279 18.5 Q210 48 159 99 Q108 150 79 219 Q50 288 50 367 Q50 445 78.5 514 Q107 583 157.5 634.5 Q208 686 277.5 716 Q347 746 428 746 Q509 746 576 716.5 Q643 687 695 636 L676 617 Q628 665 564 692 Q500 719 428 719 Q354 719 290.5 691.5 Q227 664 180.5 616.5 Q134 569 107 505 Q80 441 80 367 Z M425 903 L311 787 L291 806 L427 942 L563 806 L543 787 L425 903 Z " />
<glyph glyph-name="Cdotaccent" unicode="&#x10a;" horiz-adv-x="735" d="M80 367 Q80 292 107.5 228 Q135 164 182.5 117 Q230 70 293.5 43 Q357 16 428 16 Q503 16 564 43.5 Q625 71 676 118 L695 99 Q644 48 575.5 18.5 Q507 -11 428 -11 Q348 -11 279 18.5 Q210 48 159 99 Q108 150 79 219 Q50 288 50 367 Q50 445 78.5 514 Q107 583 157.5 634.5 Q208 686 277.5 716 Q347 746 428 746 Q509 746 576 716.5 Q643 687 695 636 L676 617 Q628 665 564 692 Q500 719 428 719 Q354 719 290.5 691.5 Q227 664 180.5 616.5 Q134 569 107 505 Q80 441 80 367 Z M392 886 Q392 900 402.5 910.5 Q413 921 427 921 Q441 921 451.5 910.5 Q462 900 462 886 Q462 872 451.5 861.5 Q441 851 427 851 Q413 851 402.5 861.5 Q392 872 392 886 Z " />
<glyph glyph-name="Dcaron" unicode="&#x10e;" horiz-adv-x="701" d="M90 0 L90 735 L284 735 Q360 735 426.5 706 Q493 677 543 627 Q593 577 622 510.5 Q651 444 651 368 Q651 292 622 225 Q593 158 543 108 Q493 58 426.5 29 Q360 0 284 0 L90 0 Z M120 708 L120 27 L284 27 Q354 27 415.5 54 Q477 81 523 127 Q569 173 595 235 Q621 297 621 368 Q621 438 595 500 Q569 562 523 608 Q477 654 415.5 681 Q354 708 284 708 L120 708 Z M292 826 L406 942 L426 923 L290 787 L154 923 L174 942 L292 826 Z " />
<glyph glyph-name="Eacute" unicode="&#xc9;" horiz-adv-x="554" d="M90 735 L509 735 L509 708 L120 708 L120 385 L489 385 L489 360 L120 360 L120 27 L509 27 L509 0 L90 0 L90 735 Z M278 797 L264 811 L386 951 Q393 959 403 960 Q413 961 421 954 Q428 946 427 936 Q426 926 418 919 L278 797 Z " />
<glyph glyph-name="Ebreve" unicode="&#x114;" horiz-adv-x="554" d="M90 735 L509 735 L509 708 L120 708 L120 385 L489 385 L489 360 L120 360 L120 27 L509 27 L509 0 L90 0 L90 735 Z M190 919 L216 919 L216 904 Q216 865 242.5 839 Q269 813 307 813 Q345 813 371.5 839 Q398 865 398 904 L398 919 L424 919 L424 904 Q424 880 415 858.5 Q406 837 390 821 Q374 805 352.5 796 Q331 787 307 787 Q283 787 261.5 796 Q240 805 224 821 Q208 837 199 858.5 Q190 880 190 904 L190 919 Z " />
<glyph glyph-name="Ecaron" unicode="&#x11a;" horiz-adv-x="554" d="M90 735 L509 735 L509 708 L120 708 L120 385 L489 385 L489 360 L120 360 L120 27 L509 27 L509 0 L90 0 L90 735 Z M299 826 L413 942 L433 923 L297 787 L161 923 L181 942 L299 826 Z " />
<glyph glyph-name="Ecircumflex" unicode="&#xca;" horiz-adv-x="554" d="M90 735 L509 735 L509 708 L120 708 L120 385 L489 385 L489 360 L120 360 L120 27 L509 27 L509 0 L90 0 L90 735 Z M295 903 L181 787 L161 806 L297 942 L433 806 L413 787 L295 903 Z " />
<glyph glyph-name="Edieresis" unicode="&#xcb;" horiz-adv-x="554" d="M90 735 L509 735 L509 708 L120 708 L120 385 L489 385 L489 360 L120 360 L120 27 L509 27 L509 0 L90 0 L90 735 Z M178 886 Q178 900 188.5 910.5 Q199 921 213 921 Q227 921 237.5 910.5 Q248 900 248 886 Q248 872 237.5 861.5 Q227 851 213 851 Q199 851 188.5 861.5 Q178 872 178 886 Z M346 886 Q346 900 356.5 910.5 Q367 921 381 921 Q395 921 405.5 910.5 Q416 900 416 886 Q416 872 405.5 861.5 Q395 851 381 851 Q367 851 356.5 861.5 Q346 872 346 886 Z " />
<glyph glyph-name="Edotaccent" unicode="&#x116;" horiz-adv-x="554" d="M90 735 L509 735 L509 708 L120 708 L120 385 L489 385 L489 360 L120 360 L120 27 L509 27 L509 0 L90 0 L90 735 Z M262 886 Q262 900 272.5 910.5 Q283 921 297 921 Q311 921 321.5 910.5 Q332 900 332 886 Q332 872 321.5 861.5 Q311 851 297 851 Q283 851 272.5 861.5 Q262 872 262 886 Z " />
<glyph glyph-name="Egrave" unicode="&#xc8;" horiz-adv-x="554" d="M90 735 L509 735 L509 708 L120 708 L120 385 L489 385 L489 360 L120 360 L120 27 L509 27 L509 0 L90 0 L90 735 Z M156 919 Q148 926 147 936 Q146 946 153 954 Q161 961 171 960 Q181 959 188 951 L310 811 L296 797 L156 919 Z " />
<glyph glyph-name="Emacron" unicode="&#x112;" horiz-adv-x="554" d="M90 735 L509 735 L509 708 L120 708 L120 385 L489 385 L489 360 L120 360 L120 27 L509 27 L509 0 L90 0 L90 735 Z M438 852 L156 852 L156 877 L438 877 L438 852 Z " />
<glyph glyph-name="Eogonek" unicode="&#x118;" horiz-adv-x="554" d="M301 -83 Q301 -58 310.5 -36.5 Q320 -15 336 0 L90 0 L90 735 L509 735 L509 708 L120 708 L120 385 L489 385 L489 360 L120 360 L120 27 L400 27 L405 27 L509 27 L509 0 L405 0 Q389 0 374.5 -6.5 Q360 -13 349.5 -24.5 Q339 -36 333 -51 Q327 -66 327 -83 Q327 -100 333 -115 Q339 -130 349.5 -141 Q360 -152 374.5 -158.5 Q389 -165 405 -165 Q437 -165 460 -141 Q483 -117 483 -83 L509 -83 Q509 -106 501 -125.5 Q493 -145 478.5 -160 Q464 -175 445 -183.5 Q426 -192 405 -192 Q384 -192 365 -183.5 Q346 -175 331.5 -160 Q317 -145 309 -125.5 Q301 -106 301 -83 Z " />
<glyph glyph-name="Gbreve" unicode="&#x11e;" horiz-adv-x="854" d="M79 368 Q79 291 107.5 226.5 Q136 162 184 115.5 Q232 69 296 42.5 Q360 16 431 16 Q507 16 570 40 Q633 64 677 108.5 Q721 153 745.5 216.5 Q770 280 770 360 L477 360 L477 385 L799 385 L799 367 Q799 272 769.5 200.5 Q740 129 690 82 Q640 35 573 11.5 Q506 -12 431 -12 Q348 -12 278 18.5 Q208 49 157.5 101 Q107 153 78.5 222 Q50 291 50 368 Q50 447 78.5 516.5 Q107 586 157.5 638 Q208 690 277.5 719.5 Q347 749 429 749 Q570 749 668 668 L652 649 Q606 686 553.5 704.5 Q501 723 428 723 Q354 723 290 696 Q226 669 179 621 Q132 573 105.5 508 Q79 443 79 368 Z M310 919 L336 919 L336 904 Q336 865 362.5 839 Q389 813 427 813 Q465 813 491.5 839 Q518 865 518 904 L518 919 L544 919 L544 904 Q544 880 535 858.5 Q526 837 510 821 Q494 805 472.5 796 Q451 787 427 787 Q403 787 381.5 796 Q360 805 344 821 Q328 837 319 858.5 Q310 880 310 904 L310 919 Z " />
<glyph glyph-name="Gcircumflex" unicode="&#x11c;" horiz-adv-x="854" d="M79 368 Q79 291 107.5 226.5 Q136 162 184 115.5 Q232 69 296 42.5 Q360 16 431 16 Q507 16 570 40 Q633 64 677 108.5 Q721 153 745.5 216.5 Q770 280 770 360 L477 360 L477 385 L799 385 L799 367 Q799 272 769.5 200.5 Q740 129 690 82 Q640 35 573 11.5 Q506 -12 431 -12 Q348 -12 278 18.5 Q208 49 157.5 101 Q107 153 78.5 222 Q50 291 50 368 Q50 447 78.5 516.5 Q107 586 157.5 638 Q208 690 277.5 719.5 Q347 749 429 749 Q570 749 668 668 L652 649 Q606 686 553.5 704.5 Q501 723 428 723 Q354 723 290 696 Q226 669 179 621 Q132 573 105.5 508 Q79 443 79 368 Z M425 903 L311 787 L291 806 L427 942 L563 806 L543 787 L425 903 Z " />
<glyph glyph-name="Gdotaccent" unicode="&#x120;" horiz-adv-x="854" d="M79 368 Q79 291 107.5 226.5 Q136 162 184 115.5 Q232 69 296 42.5 Q360 16 431 16 Q507 16 570 40 Q633 64 677 108.5 Q721 153 745.5 216.5 Q770 280 770 360 L477 360 L477 385 L799 385 L799 367 Q799 272 769.5 200.5 Q740 129 690 82 Q640 35 573 11.5 Q506 -12 431 -12 Q348 -12 278 18.5 Q208 49 157.5 101 Q107 153 78.5 222 Q50 291 50 368 Q50 447 78.5 516.5 Q107 586 157.5 638 Q208 690 277.5 719.5 Q347 749 429 749 Q570 749 668 668 L652 649 Q606 686 553.5 704.5 Q501 723 428 723 Q354 723 290 696 Q226 669 179 621 Q132 573 105.5 508 Q79 443 79 368 Z M392 886 Q392 900 402.5 910.5 Q413 921 427 921 Q441 921 451.5 910.5 Q462 900 462 886 Q462 872 451.5 861.5 Q441 851 427 851 Q413 851 402.5 861.5 Q392 872 392 886 Z " />
<glyph glyph-name="Gcommaaccent" unicode="&#x122;" horiz-adv-x="854" d="M79 368 Q79 291 107.5 226.5 Q136 162 184 115.5 Q232 69 296 42.5 Q360 16 431 16 Q507 16 570 40 Q633 64 677 108.5 Q721 153 745.5 216.5 Q770 280 770 360 L477 360 L477 385 L799 385 L799 367 Q799 272 769.5 200.5 Q740 129 690 82 Q640 35 573 11.5 Q506 -12 431 -12 Q348 -12 278 18.5 Q208 49 157.5 101 Q107 153 78.5 222 Q50 291 50 368 Q50 447 78.5 516.5 Q107 586 157.5 638 Q208 690 277.5 719.5 Q347 749 429 749 Q570 749 668 668 L652 649 Q606 686 553.5 704.5 Q501 723 428 723 Q354 723 290 696 Q226 669 179 621 Q132 573 105.5 508 Q79 443 79 368 Z M384 -215 L422 -134 Q410 -131 402 -121.5 Q394 -112 394 -99 Q394 -85 404 -74.5 Q414 -64 428 -64 Q448 -64 457.5 -81 Q467 -98 458 -117 L407 -226 L384 -215 Z " />
<glyph glyph-name="Hbar" unicode="&#x126;" horiz-adv-x="720" d="M724 542 L630 542 L630 0 L600 0 L600 360 L120 360 L120 0 L90 0 L90 542 L-4 542 L-4 567 L90 567 L90 734 L120 734 L120 567 L600 567 L600 735 L630 735 L630 567 L724 567 L724 542 Z M600 385 L600 542 L120 542 L120 385 L600 385 Z " />
<glyph glyph-name="Hcircumflex" unicode="&#x124;" horiz-adv-x="720" d="M90 0 L90 734 L120 734 L120 385 L600 385 L600 735 L630 735 L630 0 L600 0 L600 360 L120 360 L120 0 L90 0 Z M358 903 L244 787 L224 806 L360 942 L496 806 L476 787 L358 903 Z " />
<glyph glyph-name="Iacute" unicode="&#xcd;" horiz-adv-x="375" d="M30 708 L30 735 L345 735 L345 708 L203 708 L203 27 L345 27 L345 0 L30 0 L30 27 L173 27 L173 708 L30 708 Z M188 797 L174 811 L296 951 Q303 959 313 960 Q323 961 331 954 Q338 946 337 936 Q336 926 328 919 L188 797 Z " />
<glyph glyph-name="Ibreve" unicode="&#x12c;" horiz-adv-x="375" d="M30 708 L30 735 L345 735 L345 708 L203 708 L203 27 L345 27 L345 0 L30 0 L30 27 L173 27 L173 708 L30 708 Z M70 919 L96 919 L96 904 Q96 865 122.5 839 Q149 813 187 813 Q225 813 251.5 839 Q278 865 278 904 L278 919 L304 919 L304 904 Q304 880 295 858.5 Q286 837 270 821 Q254 805 232.5 796 Q211 787 187 787 Q163 787 141.5 796 Q120 805 104 821 Q88 837 79 858.5 Q70 880 70 904 L70 919 Z " />
<glyph glyph-name="Icircumflex" unicode="&#xce;" horiz-adv-x="375" d="M30 708 L30 735 L345 735 L345 708 L203 708 L203 27 L345 27 L345 0 L30 0 L30 27 L173 27 L173 708 L30 708 Z M185 903 L71 787 L51 806 L187 942 L323 806 L303 787 L185 903 Z " />
<glyph glyph-name="Idieresis" unicode="&#xcf;" horiz-adv-x="375" d="M30 708 L30 735 L345 735 L345 708 L203 708 L203 27 L345 27 L345 0 L30 0 L30 27 L173 27 L173 708 L30 708 Z M68 886 Q68 900 78.5 910.5 Q89 921 103 921 Q117 921 127.5 910.5 Q138 900 138 886 Q138 872 127.5 861.5 Q117 851 103 851 Q89 851 78.5 861.5 Q68 872 68 886 Z M236 886 Q236 900 246.5 910.5 Q257 921 271 921 Q285 921 295.5 910.5 Q306 900 306 886 Q306 872 295.5 861.5 Q285 851 271 851 Q257 851 246.5 861.5 Q236 872 236 886 Z " />
<glyph glyph-name="Idotaccent" unicode="&#x130;" horiz-adv-x="375" d="M30 708 L30 735 L345 735 L345 708 L203 708 L203 27 L345 27 L345 0 L30 0 L30 27 L173 27 L173 708 L30 708 Z M152 886 Q152 900 162.5 910.5 Q173 921 187 921 Q201 921 211.5 910.5 Q222 900 222 886 Q222 872 211.5 861.5 Q201 851 187 851 Q173 851 162.5 861.5 Q152 872 152 886 Z " />
<glyph glyph-name="Igrave" unicode="&#xcc;" horiz-adv-x="375" d="M30 708 L30 735 L345 735 L345 708 L203 708 L203 27 L345 27 L345 0 L30 0 L30 27 L173 27 L173 708 L30 708 Z M46 919 Q38 926 37 936 Q36 946 43 954 Q51 961 61 960 Q71 959 78 951 L200 811 L186 797 L46 919 Z " />
<glyph glyph-name="Imacron" unicode="&#x12a;" horiz-adv-x="375" d="M30 708 L30 735 L345 735 L345 708 L203 708 L203 27 L345 27 L345 0 L30 0 L30 27 L173 27 L173 708 L30 708 Z M329 852 L47 852 L47 877 L329 877 L329 852 Z " />
<glyph glyph-name="Iogonek" unicode="&#x12e;" horiz-adv-x="375" d="M137 -83 Q137 -58 146.5 -36.5 Q156 -15 172 0 L30 0 L30 27 L173 27 L173 708 L30 708 L30 735 L345 735 L345 708 L203 708 L203 27 L345 27 L345 0 L241 0 Q225 0 210.5 -6.5 Q196 -13 185.5 -24.5 Q175 -36 169 -51 Q163 -66 163 -83 Q163 -100 169 -115 Q175 -130 185.5 -141 Q196 -152 210.5 -158.5 Q225 -165 241 -165 Q273 -165 296 -141 Q319 -117 319 -83 L345 -83 Q345 -106 337 -125.5 Q329 -145 314.5 -160 Q300 -175 281 -183.5 Q262 -192 241 -192 Q220 -192 201 -183.5 Q182 -175 167.5 -160 Q153 -145 145 -125.5 Q137 -106 137 -83 Z " />
<glyph glyph-name="Itilde" unicode="&#x128;" horiz-adv-x="375" d="M30 708 L30 735 L345 735 L345 708 L203 708 L203 27 L345 27 L345 0 L30 0 L30 27 L173 27 L173 708 L30 708 Z M257 931 Q292 931 312.5 907.5 Q333 884 331 845 L307 845 Q307 876 292.5 891 Q278 906 257 906 Q236 906 221 893 Q206 880 191.5 864 Q177 848 160 835 Q143 822 118 822 Q83 822 62.5 845.5 Q42 869 43 908 L68 908 Q68 876 80.5 861.5 Q93 847 118 847 Q137 847 151.5 860 Q166 873 181 889 Q196 905 214 918 Q232 931 257 931 Z " />
<glyph glyph-name="Jcircumflex" unicode="&#x134;" horiz-adv-x="503" d="M47 188 Q47 153 60.5 122.5 Q74 92 96.5 69.5 Q119 47 149.5 33.5 Q180 20 215 20 Q249 20 280 33.5 Q311 47 333.5 69.5 Q356 92 369.5 122.5 Q383 153 383 188 L383 735 L413 735 L413 188 Q413 147 397.5 111 Q382 75 355 48 Q328 21 292 5.5 Q256 -10 215 -10 Q174 -10 138 5.5 Q102 21 75 48 Q48 75 32.5 111 Q17 147 17 188 L47 188 Z M396 903 L282 787 L262 806 L398 942 L534 806 L514 787 L396 903 Z " />
<glyph glyph-name="Kcommaaccent" unicode="&#x136;" horiz-adv-x="621" d="M120 360 L120 0 L90 0 L90 735 L120 735 L120 385 L340 385 L548 735 L581 735 L366 374 L581 0 L548 0 L340 360 L120 360 Z M267 -215 L305 -134 Q293 -131 285 -121.5 Q277 -112 277 -99 Q277 -85 287 -74.5 Q297 -64 311 -64 Q331 -64 340.5 -81 Q350 -98 341 -117 L290 -226 L267 -215 Z " />
<glyph glyph-name="Lacute" unicode="&#x139;" horiz-adv-x="440" d="M420 0 L90 0 L90 735 L120 735 L120 27 L420 27 L420 0 Z M151 797 L137 811 L259 951 Q266 959 276 960 Q286 961 294 954 Q301 946 300 936 Q299 926 291 919 L151 797 Z " />
<glyph glyph-name="Lcaron" unicode="&#x13d;" horiz-adv-x="440" d="M420 5 L90 5 L90 740 L120 740 L120 32 L420 32 L420 5 Z M297 603 L335 684 Q323 687 315 696.5 Q307 706 307 719 Q307 733 317 743.5 Q327 754 341 754 Q361 754 370.5 737 Q380 720 371 701 L320 592 L297 603 Z " />
<glyph glyph-name="Lcommaaccent" unicode="&#x13b;" horiz-adv-x="440" d="M420 0 L90 0 L90 735 L120 735 L120 27 L420 27 L420 0 Z M217 -215 L255 -134 Q243 -131 235 -121.5 Q227 -112 227 -99 Q227 -85 237 -74.5 Q247 -64 261 -64 Q281 -64 290.5 -81 Q300 -98 291 -117 L240 -226 L217 -215 Z " />
<glyph glyph-name="Ldot" unicode="&#x13f;" horiz-adv-x="440" d="M420 0 L90 0 L90 735 L120 735 L120 27 L420 27 L420 0 Z M260 373 Q260 387 270.5 397.5 Q281 408 295 408 Q309 408 319.5 397.5 Q330 387 330 373 Q330 359 319.5 348.5 Q309 338 295 338 Q281 338 270.5 348.5 Q260 359 260 373 Z " />
<glyph glyph-name="Lslash" unicode="&#x141;" horiz-adv-x="440" d="M420 0 L90 0 L90 324 L-32 292 L-38 313 L90 347 L90 735 L120 735 L120 355 L265 394 L271 373 L120 332 L120 27 L420 27 L420 0 Z " />
<glyph glyph-name="Nacute" unicode="&#x143;" horiz-adv-x="793" d="M673 735 L703 735 L703 5 L691 -1 L120 669 L120 0 L90 0 L90 730 L101 735 L673 66 L673 735 Z M387 797 L373 811 L495 951 Q502 959 512 960 Q522 961 530 954 Q537 946 536 936 Q535 926 527 919 L387 797 Z " />
<glyph glyph-name="Ncaron" unicode="&#x147;" horiz-adv-x="793" d="M673 735 L703 735 L703 5 L691 -1 L120 669 L120 0 L90 0 L90 730 L101 735 L673 66 L673 735 Z M398 826 L512 942 L532 923 L396 787 L260 923 L280 942 L398 826 Z " />
<glyph glyph-name="Ncommaaccent" unicode="&#x145;" horiz-adv-x="793" d="M673 735 L703 735 L703 5 L691 -1 L120 669 L120 0 L90 0 L90 730 L101 735 L673 66 L673 735 Z M363 -215 L401 -134 Q389 -131 381 -121.5 Q373 -112 373 -99 Q373 -85 383 -74.5 Q393 -64 407 -64 Q427 -64 436.5 -81 Q446 -98 437 -117 L386 -226 L363 -215 Z " />
<glyph glyph-name="Ntilde" unicode="&#xd1;" horiz-adv-x="793" d="M673 735 L703 735 L703 5 L691 -1 L120 669 L120 0 L90 0 L90 730 L101 735 L673 66 L673 735 Z M466 931 Q501 931 521.5 907.5 Q542 884 540 845 L516 845 Q516 876 501.5 891 Q487 906 466 906 Q445 906 430 893 Q415 880 400.5 864 Q386 848 369 835 Q352 822 327 822 Q292 822 271.5 845.5 Q251 869 252 908 L277 908 Q277 876 289.5 861.5 Q302 847 327 847 Q346 847 360.5 860 Q375 873 390 889 Q405 905 423 918 Q441 931 466 931 Z " />
<glyph glyph-name="Oacute" unicode="&#xd3;" horiz-adv-x="871" d="M55 368 Q55 446 85 515.5 Q115 585 166.5 637 Q218 689 287.5 719 Q357 749 435 749 Q514 749 583 719 Q652 689 704 637 Q756 585 786 515.5 Q816 446 816 368 Q816 290 786 220.5 Q756 151 704 99 Q652 47 583 17 Q514 -13 435 -13 Q357 -13 287.5 17 Q218 47 166.5 99 Q115 151 85 220.5 Q55 290 55 368 Z M85 368 Q85 296 112.5 232.5 Q140 169 188 121 Q236 73 299.5 45.5 Q363 18 435 18 Q507 18 571 45.5 Q635 73 682.5 121 Q730 169 757.5 232.5 Q785 296 785 368 Q785 440 757.5 503.5 Q730 567 682.5 615 Q635 663 571 690.5 Q507 718 435 718 Q363 718 299.5 690.5 Q236 663 188 615 Q140 567 112.5 503.5 Q85 440 85 368 Z M436 797 L422 811 L544 951 Q551 959 561 960 Q571 961 579 954 Q586 946 585 936 Q584 926 576 919 L436 797 Z " />
<glyph glyph-name="Obreve" unicode="&#x14e;" horiz-adv-x="871" d="M55 368 Q55 446 85 515.5 Q115 585 166.5 637 Q218 689 287.5 719 Q357 749 435 749 Q514 749 583 719 Q652 689 704 637 Q756 585 786 515.5 Q816 446 816 368 Q816 290 786 220.5 Q756 151 704 99 Q652 47 583 17 Q514 -13 435 -13 Q357 -13 287.5 17 Q218 47 166.5 99 Q115 151 85 220.5 Q55 290 55 368 Z M85 368 Q85 296 112.5 232.5 Q140 169 188 121 Q236 73 299.5 45.5 Q363 18 435 18 Q507 18 571 45.5 Q635 73 682.5 121 Q730 169 757.5 232.5 Q785 296 785 368 Q785 440 757.5 503.5 Q730 567 682.5 615 Q635 663 571 690.5 Q507 718 435 718 Q363 718 299.5 690.5 Q236 663 188 615 Q140 567 112.5 503.5 Q85 440 85 368 Z M318 919 L344 919 L344 904 Q344 865 370.5 839 Q397 813 435 813 Q473 813 499.5 839 Q526 865 526 904 L526 919 L552 919 L552 904 Q552 880 543 858.5 Q534 837 518 821 Q502 805 480.5 796 Q459 787 435 787 Q411 787 389.5 796 Q368 805 352 821 Q336 837 327 858.5 Q318 880 318 904 L318 919 Z " />
<glyph glyph-name="Ocircumflex" unicode="&#xd4;" horiz-adv-x="871" d="M55 368 Q55 446 85 515.5 Q115 585 166.5 637 Q218 689 287.5 719 Q357 749 435 749 Q514 749 583 719 Q652 689 704 637 Q756 585 786 515.5 Q816 446 816 368 Q816 290 786 220.5 Q756 151 704 99 Q652 47 583 17 Q514 -13 435 -13 Q357 -13 287.5 17 Q218 47 166.5 99 Q115 151 85 220.5 Q55 290 55 368 Z M85 368 Q85 296 112.5 232.5 Q140 169 188 121 Q236 73 299.5 45.5 Q363 18 435 18 Q507 18 571 45.5 Q635 73 682.5 121 Q730 169 757.5 232.5 Q785 296 785 368 Q785 440 757.5 503.5 Q730 567 682.5 615 Q635 663 571 690.5 Q507 718 435 718 Q363 718 299.5 690.5 Q236 663 188 615 Q140 567 112.5 503.5 Q85 440 85 368 Z M433 903 L319 787 L299 806 L435 942 L571 806 L551 787 L433 903 Z " />
<glyph glyph-name="Odieresis" unicode="&#xd6;" horiz-adv-x="871" d="M55 368 Q55 446 85 515.5 Q115 585 166.5 637 Q218 689 287.5 719 Q357 749 435 749 Q514 749 583 719 Q652 689 704 637 Q756 585 786 515.5 Q816 446 816 368 Q816 290 786 220.5 Q756 151 704 99 Q652 47 583 17 Q514 -13 435 -13 Q357 -13 287.5 17 Q218 47 166.5 99 Q115 151 85 220.5 Q55 290 55 368 Z M85 368 Q85 296 112.5 232.5 Q140 169 188 121 Q236 73 299.5 45.5 Q363 18 435 18 Q507 18 571 45.5 Q635 73 682.5 121 Q730 169 757.5 232.5 Q785 296 785 368 Q785 440 757.5 503.5 Q730 567 682.5 615 Q635 663 571 690.5 Q507 718 435 718 Q363 718 299.5 690.5 Q236 663 188 615 Q140 567 112.5 503.5 Q85 440 85 368 Z M316 886 Q316 900 326.5 910.5 Q337 921 351 921 Q365 921 375.5 910.5 Q386 900 386 886 Q386 872 375.5 861.5 Q365 851 351 851 Q337 851 326.5 861.5 Q316 872 316 886 Z M484 886 Q484 900 494.5 910.5 Q505 921 519 921 Q533 921 543.5 910.5 Q554 900 554 886 Q554 872 543.5 861.5 Q533 851 519 851 Q505 851 494.5 861.5 Q484 872 484 886 Z " />
<glyph glyph-name="Ograve" unicode="&#xd2;" horiz-adv-x="871" d="M55 368 Q55 446 85 515.5 Q115 585 166.5 637 Q218 689 287.5 719 Q357 749 435 749 Q514 749 583 719 Q652 689 704 637 Q756 585 786 515.5 Q816 446 816 368 Q816 290 786 220.5 Q756 151 704 99 Q652 47 583 17 Q514 -13 435 -13 Q357 -13 287.5 17 Q218 47 166.5 99 Q115 151 85 220.5 Q55 290 55 368 Z M85 368 Q85 296 112.5 232.5 Q140 169 188 121 Q236 73 299.5 45.5 Q363 18 435 18 Q507 18 571 45.5 Q635 73 682.5 121 Q730 169 757.5 232.5 Q785 296 785 368 Q785 440 757.5 503.5 Q730 567 682.5 615 Q635 663 571 690.5 Q507 718 435 718 Q363 718 299.5 690.5 Q236 663 188 615 Q140 567 112.5 503.5 Q85 440 85 368 Z M294 919 Q286 926 285 936 Q284 946 291 954 Q299 961 309 960 Q319 959 326 951 L448 811 L434 797 L294 919 Z " />
<glyph glyph-name="Ohungarumlaut" unicode="&#x150;" horiz-adv-x="871" d="M55 368 Q55 446 85 515.5 Q115 585 166.5 637 Q218 689 287.5 719 Q357 749 435 749 Q514 749 583 719 Q652 689 704 637 Q756 585 786 515.5 Q816 446 816 368 Q816 290 786 220.5 Q756 151 704 99 Q652 47 583 17 Q514 -13 435 -13 Q357 -13 287.5 17 Q218 47 166.5 99 Q115 151 85 220.5 Q55 290 55 368 Z M85 368 Q85 296 112.5 232.5 Q140 169 188 121 Q236 73 299.5 45.5 Q363 18 435 18 Q507 18 571 45.5 Q635 73 682.5 121 Q730 169 757.5 232.5 Q785 296 785 368 Q785 440 757.5 503.5 Q730 567 682.5 615 Q635 663 571 690.5 Q507 718 435 718 Q363 718 299.5 690.5 Q236 663 188 615 Q140 567 112.5 503.5 Q85 440 85 368 Z M354 797 L340 811 L462 951 Q469 959 479 960 Q489 961 497 954 Q504 946 503 936 Q502 926 494 919 L354 797 Z M518 797 L504 811 L626 951 Q633 959 643 960 Q653 961 661 954 Q668 946 667 936 Q666 926 658 919 L518 797 Z " />
<glyph glyph-name="Omacron" unicode="&#x14c;" horiz-adv-x="871" d="M55 368 Q55 446 85 515.5 Q115 585 166.5 637 Q218 689 287.5 719 Q357 749 435 749 Q514 749 583 719 Q652 689 704 637 Q756 585 786 515.5 Q816 446 816 368 Q816 290 786 220.5 Q756 151 704 99 Q652 47 583 17 Q514 -13 435 -13 Q357 -13 287.5 17 Q218 47 166.5 99 Q115 151 85 220.5 Q55 290 55 368 Z M85 368 Q85 296 112.5 232.5 Q140 169 188 121 Q236 73 299.5 45.5 Q363 18 435 18 Q507 18 571 45.5 Q635 73 682.5 121 Q730 169 757.5 232.5 Q785 296 785 368 Q785 440 757.5 503.5 Q730 567 682.5 615 Q635 663 571 690.5 Q507 718 435 718 Q363 718 299.5 690.5 Q236 663 188 615 Q140 567 112.5 503.5 Q85 440 85 368 Z M576 852 L294 852 L294 877 L576 877 L576 852 Z " />
<glyph glyph-name="Oslashacute" unicode="&#x1fe;" horiz-adv-x="871" d="M50 368 Q50 446 80 515.5 Q110 585 161.5 637 Q213 689 282.5 719 Q352 749 430 749 Q505 749 571 722 Q637 695 688 648 L750 710 L771 689 L709 627 Q757 576 784 509.5 Q811 443 811 368 Q811 290 781 220.5 Q751 151 699 99 Q647 47 578 17 Q509 -13 430 -13 Q355 -13 288.5 14 Q222 41 171 89 L110 28 L89 49 L150 110 Q103 161 76.5 227 Q50 293 50 368 Z M430 18 Q502 18 566 45.5 Q630 73 677.5 121 Q725 169 752.5 232.5 Q780 296 780 368 Q780 437 755 497 Q730 557 687 605 L193 111 Q240 67 300.5 42.5 Q361 18 430 18 Z M80 368 Q80 299 104.5 239 Q129 179 172 132 L666 626 Q618 669 558.5 693.5 Q499 718 430 718 Q358 718 294.5 690.5 Q231 663 183 615 Q135 567 107.5 503.5 Q80 440 80 368 Z M436 797 L422 811 L544 951 Q551 959 561 960 Q571 961 579 954 Q586 946 585 936 Q584 926 576 919 L436 797 Z " />
<glyph glyph-name="Otilde" unicode="&#xd5;" horiz-adv-x="871" d="M55 368 Q55 446 85 515.5 Q115 585 166.5 637 Q218 689 287.5 719 Q357 749 435 749 Q514 749 583 719 Q652 689 704 637 Q756 585 786 515.5 Q816 446 816 368 Q816 290 786 220.5 Q756 151 704 99 Q652 47 583 17 Q514 -13 435 -13 Q357 -13 287.5 17 Q218 47 166.5 99 Q115 151 85 220.5 Q55 290 55 368 Z M85 368 Q85 296 112.5 232.5 Q140 169 188 121 Q236 73 299.5 45.5 Q363 18 435 18 Q507 18 571 45.5 Q635 73 682.5 121 Q730 169 757.5 232.5 Q785 296 785 368 Q785 440 757.5 503.5 Q730 567 682.5 615 Q635 663 571 690.5 Q507 718 435 718 Q363 718 299.5 690.5 Q236 663 188 615 Q140 567 112.5 503.5 Q85 440 85 368 Z M505 931 Q540 931 560.5 907.5 Q581 884 579 845 L555 845 Q555 876 540.5 891 Q526 906 505 906 Q484 906 469 893 Q454 880 439.5 864 Q425 848 408 835 Q391 822 366 822 Q331 822 310.5 845.5 Q290 869 291 908 L316 908 Q316 876 328.5 861.5 Q341 847 366 847 Q385 847 399.5 860 Q414 873 429 889 Q444 905 462 918 Q480 931 505 931 Z " />
<glyph glyph-name="Racute" unicode="&#x154;" horiz-adv-x="671" d="M120 0 L90 0 L90 735 L390 735 Q438 735 480 717 Q522 699 553.5 667.5 Q585 636 603 594 Q621 552 621 504 Q621 419 573 361 Q525 303 446 280 L613 0 L580 0 L416 274 L120 274 L120 0 Z M388 300 Q433 300 470.5 316 Q508 332 535 360 Q562 388 577 425 Q592 462 592 504 Q592 546 576 583.5 Q560 621 532.5 648.5 Q505 676 468 692 Q431 708 388 708 L120 708 L120 300 L388 300 Z M266 797 L252 811 L374 951 Q381 959 391 960 Q401 961 409 954 Q416 946 415 936 Q414 926 406 919 L266 797 Z " />
<glyph glyph-name="Rcaron" unicode="&#x158;" horiz-adv-x="671" d="M120 0 L90 0 L90 735 L390 735 Q438 735 480 717 Q522 699 553.5 667.5 Q585 636 603 594 Q621 552 621 504 Q621 419 573 361 Q525 303 446 280 L613 0 L580 0 L416 274 L120 274 L120 0 Z M388 300 Q433 300 470.5 316 Q508 332 535 360 Q562 388 577 425 Q592 462 592 504 Q592 546 576 583.5 Q560 621 532.5 648.5 Q505 676 468 692 Q431 708 388 708 L120 708 L120 300 L388 300 Z M337 826 L451 942 L471 923 L335 787 L199 923 L219 942 L337 826 Z " />
<glyph glyph-name="Rcommaaccent" unicode="&#x156;" horiz-adv-x="671" d="M120 0 L90 0 L90 735 L390 735 Q438 735 480 717 Q522 699 553.5 667.5 Q585 636 603 594 Q621 552 621 504 Q621 419 573 361 Q525 303 446 280 L613 0 L580 0 L416 274 L120 274 L120 0 Z M388 300 Q433 300 470.5 316 Q508 332 535 360 Q562 388 577 425 Q592 462 592 504 Q592 546 576 583.5 Q560 621 532.5 648.5 Q505 676 468 692 Q431 708 388 708 L120 708 L120 300 L388 300 Z M292 -215 L330 -134 Q318 -131 310 -121.5 Q302 -112 302 -99 Q302 -85 312 -74.5 Q322 -64 336 -64 Q356 -64 365.5 -81 Q375 -98 366 -117 L315 -226 L292 -215 Z " />
<glyph glyph-name="Sacute" unicode="&#x15a;" horiz-adv-x="587" d="M317 -16 Q242 -16 178.5 10 Q115 36 61 87 L82 107 Q136 59 194.5 36 Q253 13 318 13 Q364 13 400.5 23.5 Q437 34 463 53 Q489 72 503 99 Q517 126 517 159 Q517 216 480.5 256.5 Q444 297 371 325 L213 385 Q131 416 93 462 Q55 508 55 574 Q55 613 72 646 Q89 679 119.5 702.5 Q150 726 193.5 739 Q237 752 291 752 Q346 752 391 734.5 Q436 717 467.5 688 Q499 659 516.5 621.5 Q534 584 534 543 L506 543 Q506 580 491 613 Q476 646 448 671 Q420 696 380 710.5 Q340 725 291 725 Q244 725 206 714 Q168 703 141 683.5 Q114 664 99.5 636 Q85 608 85 574 Q85 547 92 524 Q99 501 115 481 Q131 461 157.5 444 Q184 427 223 412 L383 350 Q472 315 509.5 267 Q547 219 547 159 Q547 116 529 83.5 Q511 51 480 29 Q449 7 407 -4.5 Q365 -16 317 -16 Z M284 797 L270 811 L392 951 Q399 959 409 960 Q419 961 427 954 Q434 946 433 936 Q432 926 424 919 L284 797 Z " />
<glyph glyph-name="Scaron" unicode="&#x160;" horiz-adv-x="587" d="M317 -16 Q242 -16 178.5 10 Q115 36 61 87 L82 107 Q136 59 194.5 36 Q253 13 318 13 Q364 13 400.5 23.5 Q437 34 463 53 Q489 72 503 99 Q517 126 517 159 Q517 216 480.5 256.5 Q444 297 371 325 L213 385 Q131 416 93 462 Q55 508 55 574 Q55 613 72 646 Q89 679 119.5 702.5 Q150 726 193.5 739 Q237 752 291 752 Q346 752 391 734.5 Q436 717 467.5 688 Q499 659 516.5 621.5 Q534 584 534 543 L506 543 Q506 580 491 613 Q476 646 448 671 Q420 696 380 710.5 Q340 725 291 725 Q244 725 206 714 Q168 703 141 683.5 Q114 664 99.5 636 Q85 608 85 574 Q85 547 92 524 Q99 501 115 481 Q131 461 157.5 444 Q184 427 223 412 L383 350 Q472 315 509.5 267 Q547 219 547 159 Q547 116 529 83.5 Q511 51 480 29 Q449 7 407 -4.5 Q365 -16 317 -16 Z M295 826 L409 942 L429 923 L293 787 L157 923 L177 942 L295 826 Z " />
<glyph glyph-name="Scedilla" unicode="&#x15e;" horiz-adv-x="587" d="M414 -140 Q414 -182 385.5 -209 Q357 -236 317 -236 Q297 -236 280 -228.5 Q263 -221 249 -208 L267 -191 Q277 -199 290 -205 Q303 -211 317 -211 Q346 -211 366.5 -191 Q387 -171 387 -140 Q387 -109 367 -89 Q347 -69 316 -69 Q299 -69 286.5 -75 Q274 -81 266 -89 L249 -72 Q258 -62 272.5 -54.5 Q287 -47 305 -45 L305 -16 Q164 -12 61 87 L82 107 Q136 59 194.5 36 Q253 13 318 13 Q364 13 400.5 23.5 Q437 34 463 53 Q489 72 503 99 Q517 126 517 159 Q517 216 480.5 256.5 Q444 297 371 325 L213 385 Q131 416 93 462 Q55 508 55 574 Q55 613 72 646 Q89 679 119.5 702.5 Q150 726 193.5 739 Q237 752 291 752 Q346 752 391 734.5 Q436 717 467.5 688 Q499 659 516.5 621.5 Q534 584 534 543 L506 543 Q506 580 491 613 Q476 646 448 671 Q420 696 380 710.5 Q340 725 291 725 Q244 725 206 714 Q168 703 141 683.5 Q114 664 99.5 636 Q85 608 85 574 Q85 547 92 524 Q99 501 115 481 Q131 461 157.5 444 Q184 427 223 412 L383 350 Q472 315 509.5 267 Q547 219 547 159 Q547 117 530 85 Q513 53 483.5 31 Q454 9 414.5 -3 Q375 -15 329 -16 L329 -45 Q345 -47 360.5 -54 Q376 -61 388 -73.5 Q400 -86 407 -103 Q414 -120 414 -140 Z " />
<glyph glyph-name="Scircumflex" unicode="&#x15c;" horiz-adv-x="587" d="M317 -16 Q242 -16 178.5 10 Q115 36 61 87 L82 107 Q136 59 194.5 36 Q253 13 318 13 Q364 13 400.5 23.5 Q437 34 463 53 Q489 72 503 99 Q517 126 517 159 Q517 216 480.5 256.5 Q444 297 371 325 L213 385 Q131 416 93 462 Q55 508 55 574 Q55 613 72 646 Q89 679 119.5 702.5 Q150 726 193.5 739 Q237 752 291 752 Q346 752 391 734.5 Q436 717 467.5 688 Q499 659 516.5 621.5 Q534 584 534 543 L506 543 Q506 580 491 613 Q476 646 448 671 Q420 696 380 710.5 Q340 725 291 725 Q244 725 206 714 Q168 703 141 683.5 Q114 664 99.5 636 Q85 608 85 574 Q85 547 92 524 Q99 501 115 481 Q131 461 157.5 444 Q184 427 223 412 L383 350 Q472 315 509.5 267 Q547 219 547 159 Q547 116 529 83.5 Q511 51 480 29 Q449 7 407 -4.5 Q365 -16 317 -16 Z M291 903 L177 787 L157 806 L293 942 L429 806 L409 787 L291 903 Z " />
<glyph glyph-name="Scommaaccent" unicode="&#x218;" horiz-adv-x="587" d="M317 -16 Q242 -16 178.5 10 Q115 36 61 87 L82 107 Q136 59 194.5 36 Q253 13 318 13 Q364 13 400.5 23.5 Q437 34 463 53 Q489 72 503 99 Q517 126 517 159 Q517 216 480.5 256.5 Q444 297 371 325 L213 385 Q131 416 93 462 Q55 508 55 574 Q55 613 72 646 Q89 679 119.5 702.5 Q150 726 193.5 739 Q237 752 291 752 Q346 752 391 734.5 Q436 717 467.5 688 Q499 659 516.5 621.5 Q534 584 534 543 L506 543 Q506 580 491 613 Q476 646 448 671 Q420 696 380 710.5 Q340 725 291 725 Q244 725 206 714 Q168 703 141 683.5 Q114 664 99.5 636 Q85 608 85 574 Q85 547 92 524 Q99 501 115 481 Q131 461 157.5 444 Q184 427 223 412 L383 350 Q472 315 509.5 267 Q547 219 547 159 Q547 116 529 83.5 Q511 51 480 29 Q449 7 407 -4.5 Q365 -16 317 -16 Z M254 -215 L292 -134 Q280 -131 272 -121.5 Q264 -112 264 -99 Q264 -85 274 -74.5 Q284 -64 298 -64 Q318 -64 327.5 -81 Q337 -98 328 -117 L277 -226 L254 -215 Z " />
<glyph glyph-name="Tbar" unicode="&#x166;" horiz-adv-x="509" d="M489 735 L489 708 L270 708 L270 480 L402 516 L408 495 L270 458 L270 0 L240 0 L240 450 L105 414 L99 435 L240 472 L240 708 L20 708 L20 735 L489 735 Z " />
<glyph glyph-name="Tcaron" unicode="&#x164;" horiz-adv-x="509" d="M489 735 L489 708 L270 708 L270 0 L240 0 L240 708 L20 708 L20 735 L489 735 Z M256 826 L370 942 L390 923 L254 787 L118 923 L138 942 L256 826 Z " />
<glyph glyph-name="Tcommaaccent" unicode="&#x162;" horiz-adv-x="509" d="M489 735 L489 708 L270 708 L270 0 L240 0 L240 708 L20 708 L20 735 L489 735 Z M211 -215 L249 -134 Q237 -131 229 -121.5 Q221 -112 221 -99 Q221 -85 231 -74.5 Q241 -64 255 -64 Q275 -64 284.5 -81 Q294 -98 285 -117 L234 -226 L211 -215 Z " />
<glyph glyph-name="Uacute" unicode="&#xda;" horiz-adv-x="770" d="M105 299 Q105 240 126 189 Q147 138 184 100 Q221 62 272.5 40 Q324 18 385 18 Q446 18 497.5 40 Q549 62 586 100 Q623 138 644 189 Q665 240 665 299 L665 735 L695 735 L695 299 Q695 235 672 178.5 Q649 122 608 80 Q567 38 510 13.5 Q453 -11 385 -11 Q316 -11 259 13.5 Q202 38 161 80 Q120 122 97.5 178.5 Q75 235 75 299 L75 735 L105 735 L105 299 Z M376 797 L362 811 L484 951 Q491 959 501 960 Q511 961 519 954 Q526 946 525 936 Q524 926 516 919 L376 797 Z " />
<glyph glyph-name="Ubreve" unicode="&#x16c;" horiz-adv-x="770" d="M105 299 Q105 240 126 189 Q147 138 184 100 Q221 62 272.5 40 Q324 18 385 18 Q446 18 497.5 40 Q549 62 586 100 Q623 138 644 189 Q665 240 665 299 L665 735 L695 735 L695 299 Q695 235 672 178.5 Q649 122 608 80 Q567 38 510 13.5 Q453 -11 385 -11 Q316 -11 259 13.5 Q202 38 161 80 Q120 122 97.5 178.5 Q75 235 75 299 L75 735 L105 735 L105 299 Z M268 919 L294 919 L294 904 Q294 865 320.5 839 Q347 813 385 813 Q423 813 449.5 839 Q476 865 476 904 L476 919 L502 919 L502 904 Q502 880 493 858.5 Q484 837 468 821 Q452 805 430.5 796 Q409 787 385 787 Q361 787 339.5 796 Q318 805 302 821 Q286 837 277 858.5 Q268 880 268 904 L268 919 Z " />
<glyph glyph-name="Ucircumflex" unicode="&#xdb;" horiz-adv-x="770" d="M105 299 Q105 240 126 189 Q147 138 184 100 Q221 62 272.5 40 Q324 18 385 18 Q446 18 497.5 40 Q549 62 586 100 Q623 138 644 189 Q665 240 665 299 L665 735 L695 735 L695 299 Q695 235 672 178.5 Q649 122 608 80 Q567 38 510 13.5 Q453 -11 385 -11 Q316 -11 259 13.5 Q202 38 161 80 Q120 122 97.5 178.5 Q75 235 75 299 L75 735 L105 735 L105 299 Z M383 903 L269 787 L249 806 L385 942 L521 806 L501 787 L383 903 Z " />
<glyph glyph-name="Udieresis" unicode="&#xdc;" horiz-adv-x="770" d="M105 299 Q105 240 126 189 Q147 138 184 100 Q221 62 272.5 40 Q324 18 385 18 Q446 18 497.5 40 Q549 62 586 100 Q623 138 644 189 Q665 240 665 299 L665 735 L695 735 L695 299 Q695 235 672 178.5 Q649 122 608 80 Q567 38 510 13.5 Q453 -11 385 -11 Q316 -11 259 13.5 Q202 38 161 80 Q120 122 97.5 178.5 Q75 235 75 299 L75 735 L105 735 L105 299 Z M266 886 Q266 900 276.5 910.5 Q287 921 301 921 Q315 921 325.5 910.5 Q336 900 336 886 Q336 872 325.5 861.5 Q315 851 301 851 Q287 851 276.5 861.5 Q266 872 266 886 Z M434 886 Q434 900 444.5 910.5 Q455 921 469 921 Q483 921 493.5 910.5 Q504 900 504 886 Q504 872 493.5 861.5 Q483 851 469 851 Q455 851 444.5 861.5 Q434 872 434 886 Z " />
<glyph glyph-name="Ugrave" unicode="&#xd9;" horiz-adv-x="770" d="M105 299 Q105 240 126 189 Q147 138 184 100 Q221 62 272.5 40 Q324 18 385 18 Q446 18 497.5 40 Q549 62 586 100 Q623 138 644 189 Q665 240 665 299 L665 735 L695 735 L695 299 Q695 235 672 178.5 Q649 122 608 80 Q567 38 510 13.5 Q453 -11 385 -11 Q316 -11 259 13.5 Q202 38 161 80 Q120 122 97.5 178.5 Q75 235 75 299 L75 735 L105 735 L105 299 Z M254 919 Q246 926 245 936 Q244 946 251 954 Q259 961 269 960 Q279 959 286 951 L408 811 L394 797 L254 919 Z " />
<glyph glyph-name="Uhungarumlaut" unicode="&#x170;" horiz-adv-x="770" d="M105 299 Q105 240 126 189 Q147 138 184 100 Q221 62 272.5 40 Q324 18 385 18 Q446 18 497.5 40 Q549 62 586 100 Q623 138 644 189 Q665 240 665 299 L665 735 L695 735 L695 299 Q695 235 672 178.5 Q649 122 608 80 Q567 38 510 13.5 Q453 -11 385 -11 Q316 -11 259 13.5 Q202 38 161 80 Q120 122 97.5 178.5 Q75 235 75 299 L75 735 L105 735 L105 299 Z M294 797 L280 811 L402 951 Q409 959 419 960 Q429 961 437 954 Q444 946 443 936 Q442 926 434 919 L294 797 Z M458 797 L444 811 L566 951 Q573 959 583 960 Q593 961 601 954 Q608 946 607 936 Q606 926 598 919 L458 797 Z " />
<glyph glyph-name="Umacron" unicode="&#x16a;" horiz-adv-x="770" d="M105 299 Q105 240 126 189 Q147 138 184 100 Q221 62 272.5 40 Q324 18 385 18 Q446 18 497.5 40 Q549 62 586 100 Q623 138 644 189 Q665 240 665 299 L665 735 L695 735 L695 299 Q695 235 672 178.5 Q649 122 608 80 Q567 38 510 13.5 Q453 -11 385 -11 Q316 -11 259 13.5 Q202 38 161 80 Q120 122 97.5 178.5 Q75 235 75 299 L75 735 L105 735 L105 299 Z M526 852 L244 852 L244 877 L526 877 L526 852 Z " />
<glyph glyph-name="Uogonek" unicode="&#x172;" horiz-adv-x="770" d="M281 -94 Q281 -66 292.5 -43 Q304 -20 323 -5 Q267 5 221.5 32.5 Q176 60 143.5 100.5 Q111 141 93 191.5 Q75 242 75 299 L75 735 L105 735 L105 299 Q105 240 126 189 Q147 138 184 100 Q221 62 272.5 40 Q324 18 385 18 Q446 18 497.5 40 Q549 62 586 100 Q623 138 644 189 Q665 240 665 299 L665 735 L695 735 L695 299 Q695 235 672 178.5 Q649 122 608 80 Q567 38 510 13.5 Q453 -11 385 -11 Q369 -11 354.5 -17.5 Q340 -24 329.5 -35.5 Q319 -47 313 -62 Q307 -77 307 -94 Q307 -111 313 -126 Q319 -141 329.5 -152 Q340 -163 354.5 -169.5 Q369 -176 385 -176 Q417 -176 440 -152 Q463 -128 463 -94 L489 -94 Q489 -117 481 -136.5 Q473 -156 458.5 -171 Q444 -186 425 -194.5 Q406 -203 385 -203 Q364 -203 345 -194.5 Q326 -186 311.5 -171 Q297 -156 289 -136.5 Q281 -117 281 -94 Z " />
<glyph glyph-name="Uring" unicode="&#x16e;" horiz-adv-x="770" d="M105 299 Q105 240 126 189 Q147 138 184 100 Q221 62 272.5 40 Q324 18 385 18 Q446 18 497.5 40 Q549 62 586 100 Q623 138 644 189 Q665 240 665 299 L665 735 L695 735 L695 299 Q695 235 672 178.5 Q649 122 608 80 Q567 38 510 13.5 Q453 -11 385 -11 Q316 -11 259 13.5 Q202 38 161 80 Q120 122 97.5 178.5 Q75 235 75 299 L75 735 L105 735 L105 299 Z M289 895 Q289 935 317 963 Q345 991 385 991 Q425 991 453 963 Q481 935 481 895 Q481 855 453 827 Q425 799 385 799 Q345 799 317 827 Q289 855 289 895 Z M314 895 Q314 865 334.5 844.5 Q355 824 385 824 Q415 824 435.5 844.5 Q456 865 456 895 Q456 925 435.5 945.5 Q415 966 385 966 Q355 966 334.5 945.5 Q314 925 314 895 Z " />
<glyph glyph-name="Utilde" unicode="&#x168;" horiz-adv-x="770" d="M105 299 Q105 240 126 189 Q147 138 184 100 Q221 62 272.5 40 Q324 18 385 18 Q446 18 497.5 40 Q549 62 586 100 Q623 138 644 189 Q665 240 665 299 L665 735 L695 735 L695 299 Q695 235 672 178.5 Q649 122 608 80 Q567 38 510 13.5 Q453 -11 385 -11 Q316 -11 259 13.5 Q202 38 161 80 Q120 122 97.5 178.5 Q75 235 75 299 L75 735 L105 735 L105 299 Z M454 931 Q489 931 509.5 907.5 Q530 884 528 845 L504 845 Q504 876 489.5 891 Q475 906 454 906 Q433 906 418 893 Q403 880 388.5 864 Q374 848 357 835 Q340 822 315 822 Q280 822 259.5 845.5 Q239 869 240 908 L265 908 Q265 876 277.5 861.5 Q290 847 315 847 Q334 847 348.5 860 Q363 873 378 889 Q393 905 411 918 Q429 931 454 931 Z " />
<glyph glyph-name="Yacute" unicode="&#xdd;" horiz-adv-x="587" d="M279 0 L279 212 L17 735 L48 735 L294 246 L540 735 L570 735 L309 212 L309 0 L279 0 Z M294 797 L280 811 L402 951 Q409 959 419 960 Q429 961 437 954 Q444 946 443 936 Q442 926 434 919 L294 797 Z " />
<glyph glyph-name="Ycircumflex" unicode="&#x176;" horiz-adv-x="587" d="M279 0 L279 212 L17 735 L48 735 L294 246 L540 735 L570 735 L309 212 L309 0 L279 0 Z M291 903 L177 787 L157 806 L293 942 L429 806 L409 787 L291 903 Z " />
<glyph glyph-name="Ydieresis" unicode="&#x178;" horiz-adv-x="587" d="M279 0 L279 212 L17 735 L48 735 L294 246 L540 735 L570 735 L309 212 L309 0 L279 0 Z M174 886 Q174 900 184.5 910.5 Q195 921 209 921 Q223 921 233.5 910.5 Q244 900 244 886 Q244 872 233.5 861.5 Q223 851 209 851 Q195 851 184.5 861.5 Q174 872 174 886 Z M342 886 Q342 900 352.5 910.5 Q363 921 377 921 Q391 921 401.5 910.5 Q412 900 412 886 Q412 872 401.5 861.5 Q391 851 377 851 Q363 851 352.5 861.5 Q342 872 342 886 Z " />
<glyph glyph-name="Ygrave" unicode="&#x1ef2;" horiz-adv-x="587" d="M279 0 L279 212 L17 735 L48 735 L294 246 L540 735 L570 735 L309 212 L309 0 L279 0 Z M152 919 Q144 926 143 936 Q142 946 149 954 Q157 961 167 960 Q177 959 184 951 L306 811 L292 797 L152 919 Z " />
<glyph glyph-name="Zacute" unicode="&#x179;" horiz-adv-x="607" d="M88 360 L88 385 L299 385 L529 708 L48 708 L48 735 L550 735 L562 709 L334 385 L519 385 L519 360 L316 360 L81 27 L559 27 L559 0 L57 0 L45 26 L282 360 L88 360 Z M304 797 L290 811 L412 951 Q419 959 429 960 Q439 961 447 954 Q454 946 453 936 Q452 926 444 919 L304 797 Z " />
<glyph glyph-name="Zcaron" unicode="&#x17d;" horiz-adv-x="607" d="M88 360 L88 385 L299 385 L529 708 L48 708 L48 735 L550 735 L562 709 L334 385 L519 385 L519 360 L316 360 L81 27 L559 27 L559 0 L57 0 L45 26 L282 360 L88 360 Z M305 826 L419 942 L439 923 L303 787 L167 923 L187 942 L305 826 Z " />
<glyph glyph-name="Zdotaccent" unicode="&#x17b;" horiz-adv-x="607" d="M88 360 L88 385 L299 385 L529 708 L48 708 L48 735 L550 735 L562 709 L334 385 L519 385 L519 360 L316 360 L81 27 L559 27 L559 0 L57 0 L45 26 L282 360 L88 360 Z M268 886 Q268 900 278.5 910.5 Q289 921 303 921 Q317 921 327.5 910.5 Q338 900 338 886 Q338 872 327.5 861.5 Q317 851 303 851 Q289 851 278.5 861.5 Q268 872 268 886 Z " />
<glyph glyph-name="aacute" unicode="&#xe1;" horiz-adv-x="548" d="M440 145 Q431 114 411.5 86 Q392 58 364 37 Q336 16 300 4 Q264 -8 223 -8 Q181 -8 148 3 Q115 14 92 33.5 Q69 53 57 79.5 Q45 106 45 138 Q45 163 55.5 186 Q66 209 88.5 226.5 Q111 244 144.5 254.5 Q178 265 225 265 L438 265 L438 295 Q438 329 428 363 Q418 397 396 424.5 Q374 452 340.5 469 Q307 486 261 486 Q219 486 184 472 Q149 458 120 433 L103 453 Q173 512 261 512 Q313 512 352 493 Q391 474 416.5 443.5 Q442 413 455 374.5 Q468 336 468 296 L468 0 L440 0 L440 145 Z M74 138 Q74 85 115 52 Q156 19 223 19 Q263 19 302 33 Q341 47 371 74.5 Q401 102 419.5 143.5 Q438 185 438 240 L225 240 Q147 240 110.5 210 Q74 180 74 138 Z M275 574 L261 588 L383 728 Q390 736 400 737 Q410 738 418 731 Q425 723 424 713 Q423 703 415 696 L275 574 Z " />
<glyph glyph-name="abreve" unicode="&#x103;" horiz-adv-x="548" d="M440 145 Q431 114 411.5 86 Q392 58 364 37 Q336 16 300 4 Q264 -8 223 -8 Q181 -8 148 3 Q115 14 92 33.5 Q69 53 57 79.5 Q45 106 45 138 Q45 163 55.5 186 Q66 209 88.5 226.5 Q111 244 144.5 254.5 Q178 265 225 265 L438 265 L438 295 Q438 329 428 363 Q418 397 396 424.5 Q374 452 340.5 469 Q307 486 261 486 Q219 486 184 472 Q149 458 120 433 L103 453 Q173 512 261 512 Q313 512 352 493 Q391 474 416.5 443.5 Q442 413 455 374.5 Q468 336 468 296 L468 0 L440 0 L440 145 Z M74 138 Q74 85 115 52 Q156 19 223 19 Q263 19 302 33 Q341 47 371 74.5 Q401 102 419.5 143.5 Q438 185 438 240 L225 240 Q147 240 110.5 210 Q74 180 74 138 Z M157 696 L183 696 L183 681 Q183 642 209.5 616 Q236 590 274 590 Q312 590 338.5 616 Q365 642 365 681 L365 696 L391 696 L391 681 Q391 657 382 635.5 Q373 614 357 598 Q341 582 319.5 573 Q298 564 274 564 Q250 564 228.5 573 Q207 582 191 598 Q175 614 166 635.5 Q157 657 157 681 L157 696 Z " />
<glyph glyph-name="acircumflex" unicode="&#xe2;" horiz-adv-x="548" d="M440 145 Q431 114 411.5 86 Q392 58 364 37 Q336 16 300 4 Q264 -8 223 -8 Q181 -8 148 3 Q115 14 92 33.5 Q69 53 57 79.5 Q45 106 45 138 Q45 163 55.5 186 Q66 209 88.5 226.5 Q111 244 144.5 254.5 Q178 265 225 265 L438 265 L438 295 Q438 329 428 363 Q418 397 396 424.5 Q374 452 340.5 469 Q307 486 261 486 Q219 486 184 472 Q149 458 120 433 L103 453 Q173 512 261 512 Q313 512 352 493 Q391 474 416.5 443.5 Q442 413 455 374.5 Q468 336 468 296 L468 0 L440 0 L440 145 Z M74 138 Q74 85 115 52 Q156 19 223 19 Q263 19 302 33 Q341 47 371 74.5 Q401 102 419.5 143.5 Q438 185 438 240 L225 240 Q147 240 110.5 210 Q74 180 74 138 Z M272 680 L158 564 L138 583 L274 719 L410 583 L390 564 L272 680 Z " />
<glyph glyph-name="adieresis" unicode="&#xe4;" horiz-adv-x="548" d="M440 145 Q431 114 411.5 86 Q392 58 364 37 Q336 16 300 4 Q264 -8 223 -8 Q181 -8 148 3 Q115 14 92 33.5 Q69 53 57 79.5 Q45 106 45 138 Q45 163 55.5 186 Q66 209 88.5 226.5 Q111 244 144.5 254.5 Q178 265 225 265 L438 265 L438 295 Q438 329 428 363 Q418 397 396 424.5 Q374 452 340.5 469 Q307 486 261 486 Q219 486 184 472 Q149 458 120 433 L103 453 Q173 512 261 512 Q313 512 352 493 Q391 474 416.5 443.5 Q442 413 455 374.5 Q468 336 468 296 L468 0 L440 0 L440 145 Z M74 138 Q74 85 115 52 Q156 19 223 19 Q263 19 302 33 Q341 47 371 74.5 Q401 102 419.5 143.5 Q438 185 438 240 L225 240 Q147 240 110.5 210 Q74 180 74 138 Z M155 663 Q155 677 165.5 687.5 Q176 698 190 698 Q204 698 214.5 687.5 Q225 677 225 663 Q225 649 214.5 638.5 Q204 628 190 628 Q176 628 165.5 638.5 Q155 649 155 663 Z M323 663 Q323 677 333.5 687.5 Q344 698 358 698 Q372 698 382.5 687.5 Q393 677 393 663 Q393 649 382.5 638.5 Q372 628 358 628 Q344 628 333.5 638.5 Q323 649 323 663 Z " />
<glyph glyph-name="agrave" unicode="&#xe0;" horiz-adv-x="548" d="M440 145 Q431 114 411.5 86 Q392 58 364 37 Q336 16 300 4 Q264 -8 223 -8 Q181 -8 148 3 Q115 14 92 33.5 Q69 53 57 79.5 Q45 106 45 138 Q45 163 55.5 186 Q66 209 88.5 226.5 Q111 244 144.5 254.5 Q178 265 225 265 L438 265 L438 295 Q438 329 428 363 Q418 397 396 424.5 Q374 452 340.5 469 Q307 486 261 486 Q219 486 184 472 Q149 458 120 433 L103 453 Q173 512 261 512 Q313 512 352 493 Q391 474 416.5 443.5 Q442 413 455 374.5 Q468 336 468 296 L468 0 L440 0 L440 145 Z M74 138 Q74 85 115 52 Q156 19 223 19 Q263 19 302 33 Q341 47 371 74.5 Q401 102 419.5 143.5 Q438 185 438 240 L225 240 Q147 240 110.5 210 Q74 180 74 138 Z M133 696 Q125 703 124 713 Q123 723 130 731 Q138 738 148 737 Q158 736 165 728 L287 588 L273 574 L133 696 Z " />
<glyph glyph-name="amacron" unicode="&#x101;" horiz-adv-x="548" d="M440 145 Q431 114 411.5 86 Q392 58 364 37 Q336 16 300 4 Q264 -8 223 -8 Q181 -8 148 3 Q115 14 92 33.5 Q69 53 57 79.5 Q45 106 45 138 Q45 163 55.5 186 Q66 209 88.5 226.5 Q111 244 144.5 254.5 Q178 265 225 265 L438 265 L438 295 Q438 329 428 363 Q418 397 396 424.5 Q374 452 340.5 469 Q307 486 261 486 Q219 486 184 472 Q149 458 120 433 L103 453 Q173 512 261 512 Q313 512 352 493 Q391 474 416.5 443.5 Q442 413 455 374.5 Q468 336 468 296 L468 0 L440 0 L440 145 Z M74 138 Q74 85 115 52 Q156 19 223 19 Q263 19 302 33 Q341 47 371 74.5 Q401 102 419.5 143.5 Q438 185 438 240 L225 240 Q147 240 110.5 210 Q74 180 74 138 Z M415 629 L133 629 L133 654 L415 654 L415 629 Z " />
<glyph glyph-name="aogonek" unicode="&#x105;" horiz-adv-x="548" d="M440 145 Q431 114 411.5 86 Q392 58 364 37 Q336 16 300 4 Q264 -8 223 -8 L220 -8 Q188 -10 166.5 -34 Q145 -58 145 -91 Q145 -108 151 -123 Q157 -138 167.5 -149 Q178 -160 192.5 -166.5 Q207 -173 223 -173 Q255 -173 278 -149 Q301 -125 301 -91 L327 -91 Q327 -114 319 -133.5 Q311 -153 296.5 -168 Q282 -183 263 -191.5 Q244 -200 223 -200 Q202 -200 183 -191.5 Q164 -183 149.5 -168 Q135 -153 127 -133.5 Q119 -114 119 -91 Q119 -63 131 -39.5 Q143 -16 163 -1 Q106 13 75.5 50 Q45 87 45 138 Q45 163 55.5 186 Q66 209 88.5 226.5 Q111 244 144.5 254.5 Q178 265 225 265 L438 265 L438 280 Q438 316 429.5 352.5 Q421 389 400.5 418.5 Q380 448 346 467 Q312 486 261 486 Q219 486 184 472 Q149 458 120 433 L103 453 Q173 512 261 512 Q313 512 352 493 Q391 474 416.5 443.5 Q442 413 455 374.5 Q468 336 468 296 L468 0 L440 0 L440 145 Z M74 138 Q74 84 115 51.5 Q156 19 223 19 Q263 19 302 33 Q341 47 371 74.5 Q401 102 419.5 143.5 Q438 185 438 240 L225 240 Q147 240 110.5 210 Q74 180 74 138 Z " />
<glyph glyph-name="aring" unicode="&#xe5;" horiz-adv-x="548" d="M440 145 Q431 114 411.5 86 Q392 58 364 37 Q336 16 300 4 Q264 -8 223 -8 Q181 -8 148 3 Q115 14 92 33.5 Q69 53 57 79.5 Q45 106 45 138 Q45 163 55.5 186 Q66 209 88.5 226.5 Q111 244 144.5 254.5 Q178 265 225 265 L438 265 L438 295 Q438 329 428 363 Q418 397 396 424.5 Q374 452 340.5 469 Q307 486 261 486 Q219 486 184 472 Q149 458 120 433 L103 453 Q173 512 261 512 Q313 512 352 493 Q391 474 416.5 443.5 Q442 413 455 374.5 Q468 336 468 296 L468 0 L440 0 L440 145 Z M74 138 Q74 85 115 52 Q156 19 223 19 Q263 19 302 33 Q341 47 371 74.5 Q401 102 419.5 143.5 Q438 185 438 240 L225 240 Q147 240 110.5 210 Q74 180 74 138 Z M178 672 Q178 712 206 740 Q234 768 274 768 Q314 768 342 740 Q370 712 370 672 Q370 632 342 604 Q314 576 274 576 Q234 576 206 604 Q178 632 178 672 Z M203 672 Q203 642 223.5 621.5 Q244 601 274 601 Q304 601 324.5 621.5 Q345 642 345 672 Q345 702 324.5 722.5 Q304 743 274 743 Q244 743 223.5 722.5 Q203 702 203 672 Z " />
<glyph glyph-name="atilde" unicode="&#xe3;" horiz-adv-x="548" d="M440 145 Q431 114 411.5 86 Q392 58 364 37 Q336 16 300 4 Q264 -8 223 -8 Q181 -8 148 3 Q115 14 92 33.5 Q69 53 57 79.5 Q45 106 45 138 Q45 163 55.5 186 Q66 209 88.5 226.5 Q111 244 144.5 254.5 Q178 265 225 265 L438 265 L438 295 Q438 329 428 363 Q418 397 396 424.5 Q374 452 340.5 469 Q307 486 261 486 Q219 486 184 472 Q149 458 120 433 L103 453 Q173 512 261 512 Q313 512 352 493 Q391 474 416.5 443.5 Q442 413 455 374.5 Q468 336 468 296 L468 0 L440 0 L440 145 Z M74 138 Q74 85 115 52 Q156 19 223 19 Q263 19 302 33 Q341 47 371 74.5 Q401 102 419.5 143.5 Q438 185 438 240 L225 240 Q147 240 110.5 210 Q74 180 74 138 Z M343 708 Q378 708 398.5 684.5 Q419 661 417 622 L393 622 Q393 653 378.5 668 Q364 683 343 683 Q322 683 307 670 Q292 657 277.5 641 Q263 625 246 612 Q229 599 204 599 Q169 599 148.5 622.5 Q128 646 129 685 L154 685 Q154 653 166.5 638.5 Q179 624 204 624 Q223 624 237.5 637 Q252 650 267 666 Q282 682 300 695 Q318 708 343 708 Z " />
<glyph glyph-name="aeacute" unicode="&#x1fd;" horiz-adv-x="981" d="M936 256 L936 240 L468 240 Q468 188 488 147 Q508 106 540 77 Q572 48 611.5 32.5 Q651 17 691 17 Q742 17 780.5 31.5 Q819 46 850 69 L866 48 Q830 20 787 5 Q744 -10 690 -10 Q653 -10 616.5 1.5 Q580 13 547.5 35.5 Q515 58 490 91 Q465 124 452 167 Q443 127 422.5 94.5 Q402 62 372 39.5 Q342 17 304 4.5 Q266 -8 223 -8 Q181 -8 148 3 Q115 14 92 33.5 Q69 53 57 79.5 Q45 106 45 138 Q45 163 55.5 186 Q66 209 88.5 226.5 Q111 244 144.5 254.5 Q178 265 225 265 L438 265 L438 295 Q438 329 428 363 Q418 397 396 424.5 Q374 452 340.5 469 Q307 486 261 486 Q219 486 184 472 Q149 458 120 433 L103 453 Q173 512 261 512 Q301 512 333.5 500 Q366 488 390.5 467 Q415 446 432 417.5 Q449 389 457 357 Q469 391 490.5 420.5 Q512 450 541.5 472.5 Q571 495 608 508 Q645 521 687 521 Q746 521 792 498.5 Q838 476 870 439 Q902 402 919 354 Q936 306 936 256 Z M687 494 Q639 494 599 477 Q559 460 529.5 429 Q500 398 484 356 Q468 314 468 265 L907 265 Q907 312 891 353.5 Q875 395 846 426.5 Q817 458 776.5 476 Q736 494 687 494 Z M74 138 Q74 85 115 52 Q156 19 223 19 Q263 19 302 33 Q341 47 371 74.5 Q401 102 419.5 143.5 Q438 185 438 240 L225 240 Q147 240 110.5 210 Q74 180 74 138 Z M421 574 L407 588 L505 700 Q511 707 517.5 715.5 Q524 724 531.5 730 Q539 736 547 737.5 Q555 739 564 731 Q571 723 570 713 Q569 703 561 696 L421 574 Z " />
<glyph glyph-name="cacute" unicode="&#x107;" horiz-adv-x="538" d="M503 67 Q467 29 419 9.5 Q371 -10 316 -10 Q261 -10 212.5 11 Q164 32 128 68 Q92 104 71 152.5 Q50 201 50 256 Q50 311 71 359.5 Q92 408 128 444 Q164 480 212.5 501 Q261 522 316 522 Q373 522 422.5 500 Q472 478 508 440 L488 421 Q456 455 412.5 474 Q369 493 316 493 Q267 493 224 474.5 Q181 456 148.5 423.5 Q116 391 97.5 348 Q79 305 79 256 Q79 207 97.5 164 Q116 121 148.5 88.5 Q181 56 224 37.5 Q267 19 316 19 Q370 19 411 36.5 Q452 54 484 86 L503 67 Z M300 574 L286 588 L408 728 Q415 736 425 737 Q435 738 443 731 Q450 723 449 713 Q448 703 440 696 L300 574 Z " />
<glyph glyph-name="ccaron" unicode="&#x10d;" horiz-adv-x="538" d="M503 67 Q467 29 419 9.5 Q371 -10 316 -10 Q261 -10 212.5 11 Q164 32 128 68 Q92 104 71 152.5 Q50 201 50 256 Q50 311 71 359.5 Q92 408 128 444 Q164 480 212.5 501 Q261 522 316 522 Q373 522 422.5 500 Q472 478 508 440 L488 421 Q456 455 412.5 474 Q369 493 316 493 Q267 493 224 474.5 Q181 456 148.5 423.5 Q116 391 97.5 348 Q79 305 79 256 Q79 207 97.5 164 Q116 121 148.5 88.5 Q181 56 224 37.5 Q267 19 316 19 Q370 19 411 36.5 Q452 54 484 86 L503 67 Z M271 603 L385 719 L405 700 L269 564 L133 700 L153 719 L271 603 Z " />
<glyph glyph-name="ccedilla" unicode="&#xe7;" horiz-adv-x="538" d="M503 67 Q468 31 423 11.5 Q378 -8 327 -10 L327 -45 Q343 -47 358.5 -54 Q374 -61 386 -73.5 Q398 -86 405 -103 Q412 -120 412 -140 Q412 -182 383.5 -209 Q355 -236 315 -236 Q295 -236 278 -228.5 Q261 -221 247 -208 L265 -191 Q275 -199 288 -205 Q301 -211 315 -211 Q344 -211 364.5 -191 Q385 -171 385 -140 Q385 -108 365 -88.5 Q345 -69 314 -69 Q297 -69 284.5 -75 Q272 -81 264 -89 L247 -72 Q256 -62 270.5 -54.5 Q285 -47 303 -45 L303 -10 Q250 -7 204 14.5 Q158 36 123.5 72 Q89 108 69.5 155 Q50 202 50 256 Q50 311 71 359.5 Q92 408 128 444 Q164 480 212.5 501 Q261 522 316 522 Q373 522 422.5 500 Q472 478 508 440 L488 421 Q456 455 412.5 474 Q369 493 316 493 Q267 493 224 474.5 Q181 456 148.5 423.5 Q116 391 97.5 348 Q79 305 79 256 Q79 208 96.5 166 Q114 124 144 92.5 Q174 61 215 41.5 Q256 22 303 19 L303 20 L327 20 L327 19 Q376 21 414.5 38.5 Q453 56 484 86 L503 67 Z " />
<glyph glyph-name="ccircumflex" unicode="&#x109;" horiz-adv-x="538" d="M503 67 Q467 29 419 9.5 Q371 -10 316 -10 Q261 -10 212.5 11 Q164 32 128 68 Q92 104 71 152.5 Q50 201 50 256 Q50 311 71 359.5 Q92 408 128 444 Q164 480 212.5 501 Q261 522 316 522 Q373 522 422.5 500 Q472 478 508 440 L488 421 Q456 455 412.5 474 Q369 493 316 493 Q267 493 224 474.5 Q181 456 148.5 423.5 Q116 391 97.5 348 Q79 305 79 256 Q79 207 97.5 164 Q116 121 148.5 88.5 Q181 56 224 37.5 Q267 19 316 19 Q370 19 411 36.5 Q452 54 484 86 L503 67 Z M307 680 L193 564 L173 583 L309 719 L445 583 L425 564 L307 680 Z " />
<glyph glyph-name="cdotaccent" unicode="&#x10b;" horiz-adv-x="538" d="M503 67 Q467 29 419 9.5 Q371 -10 316 -10 Q261 -10 212.5 11 Q164 32 128 68 Q92 104 71 152.5 Q50 201 50 256 Q50 311 71 359.5 Q92 408 128 444 Q164 480 212.5 501 Q261 522 316 522 Q373 522 422.5 500 Q472 478 508 440 L488 421 Q456 455 412.5 474 Q369 493 316 493 Q267 493 224 474.5 Q181 456 148.5 423.5 Q116 391 97.5 348 Q79 305 79 256 Q79 207 97.5 164 Q116 121 148.5 88.5 Q181 56 224 37.5 Q267 19 316 19 Q370 19 411 36.5 Q452 54 484 86 L503 67 Z M274 663 Q274 677 284.5 687.5 Q295 698 309 698 Q323 698 333.5 687.5 Q344 677 344 663 Q344 649 333.5 638.5 Q323 628 309 628 Q295 628 284.5 638.5 Q274 649 274 663 Z " />
<glyph glyph-name="eacute" unicode="&#xe9;" horiz-adv-x="598" d="M553 256 L553 240 L85 240 Q85 188 105 147 Q125 106 156.5 77 Q188 48 228 32.5 Q268 17 308 17 Q359 17 397.5 31.5 Q436 46 467 69 L483 48 Q447 20 404 5 Q361 -10 307 -10 Q260 -10 215 7.5 Q170 25 134.5 59 Q99 93 77 142.5 Q55 192 55 256 Q55 311 73 359 Q91 407 123.5 443 Q156 479 202 500 Q248 521 304 521 Q363 521 409 498.5 Q455 476 487 439 Q519 402 536 354 Q553 306 553 256 Z M304 494 Q256 494 216 477 Q176 460 147 429 Q118 398 101.5 356 Q85 314 85 265 L524 265 Q524 312 508 353.5 Q492 395 463 426.5 Q434 458 393.5 476 Q353 494 304 494 Z M300 574 L286 588 L384 700 Q390 707 396.5 715.5 Q403 724 410.5 730 Q418 736 426 737.5 Q434 739 443 731 Q450 723 449 713 Q448 703 440 696 L300 574 Z " />
<glyph glyph-name="ebreve" unicode="&#x115;" horiz-adv-x="598" d="M553 256 L553 240 L85 240 Q85 188 105 147 Q125 106 156.5 77 Q188 48 228 32.5 Q268 17 308 17 Q359 17 397.5 31.5 Q436 46 467 69 L483 48 Q447 20 404 5 Q361 -10 307 -10 Q260 -10 215 7.5 Q170 25 134.5 59 Q99 93 77 142.5 Q55 192 55 256 Q55 311 73 359 Q91 407 123.5 443 Q156 479 202 500 Q248 521 304 521 Q363 521 409 498.5 Q455 476 487 439 Q519 402 536 354 Q553 306 553 256 Z M182 696 L208 696 L208 681 Q208 642 234.5 616 Q261 590 299 590 Q337 590 363.5 615.5 Q390 641 390 681 L390 696 L416 696 L416 681 Q416 657 407 635.5 Q398 614 382 598 Q366 582 344.5 573 Q323 564 299 564 Q274 564 252.5 573.5 Q231 583 215.5 598.5 Q200 614 191 635.5 Q182 657 182 681 L182 696 Z M304 494 Q256 494 216 477 Q176 460 147 429 Q118 398 101.5 356 Q85 314 85 265 L524 265 Q524 312 508 353.5 Q492 395 463 426.5 Q434 458 393.5 476 Q353 494 304 494 Z " />
<glyph glyph-name="ecaron" unicode="&#x11b;" horiz-adv-x="598" d="M553 256 L553 240 L85 240 Q85 188 105 147 Q125 106 156.5 77 Q188 48 228 32.5 Q268 17 308 17 Q359 17 397.5 31.5 Q436 46 467 69 L483 48 Q447 20 404 5 Q361 -10 307 -10 Q260 -10 215 7.5 Q170 25 134.5 59 Q99 93 77 142.5 Q55 192 55 256 Q55 311 73 359 Q91 407 123.5 443 Q156 479 202 500 Q248 521 304 521 Q363 521 409 498.5 Q455 476 487 439 Q519 402 536 354 Q553 306 553 256 Z M301 603 L415 719 L435 700 L299 564 L163 700 L183 719 L301 603 Z M304 494 Q256 494 216 477 Q176 460 147 429 Q118 398 101.5 356 Q85 314 85 265 L524 265 Q524 312 508 353.5 Q492 395 463 426.5 Q434 458 393.5 476 Q353 494 304 494 Z " />
<glyph glyph-name="ecircumflex" unicode="&#xea;" horiz-adv-x="598" d="M553 256 L553 240 L85 240 Q85 188 105 147 Q125 106 156.5 77 Q188 48 228 32.5 Q268 17 308 17 Q359 17 397.5 31.5 Q436 46 467 69 L483 48 Q447 20 404 5 Q361 -10 307 -10 Q260 -10 215 7.5 Q170 25 134.5 59 Q99 93 77 142.5 Q55 192 55 256 Q55 311 73 359 Q91 407 123.5 443 Q156 479 202 500 Q248 521 304 521 Q363 521 409 498.5 Q455 476 487 439 Q519 402 536 354 Q553 306 553 256 Z M297 680 L183 564 L163 583 L299 719 L435 583 L415 564 L297 680 Z M304 494 Q256 494 216 477 Q176 460 147 429 Q118 398 101.5 356 Q85 314 85 265 L524 265 Q524 312 508 353.5 Q492 395 463 426.5 Q434 458 393.5 476 Q353 494 304 494 Z " />
<glyph glyph-name="edieresis" unicode="&#xeb;" horiz-adv-x="598" d="M553 256 L553 240 L85 240 Q85 188 105 147 Q125 106 156.5 77 Q188 48 228 32.5 Q268 17 308 17 Q359 17 397.5 31.5 Q436 46 467 69 L483 48 Q447 20 404 5 Q361 -10 307 -10 Q260 -10 215 7.5 Q170 25 134.5 59 Q99 93 77 142.5 Q55 192 55 256 Q55 311 73 359 Q91 407 123.5 443 Q156 479 202 500 Q248 521 304 521 Q363 521 409 498.5 Q455 476 487 439 Q519 402 536 354 Q553 306 553 256 Z M348 663 Q348 677 358.5 687.5 Q369 698 383 698 Q397 698 407.5 687.5 Q418 677 418 663 Q418 649 407.5 638.5 Q397 628 383 628 Q369 628 358.5 638.5 Q348 649 348 663 Z M180 663 Q180 677 190.5 687.5 Q201 698 215 698 Q229 698 239.5 687.5 Q250 677 250 663 Q250 649 239.5 638.5 Q229 628 215 628 Q201 628 190.5 638.5 Q180 649 180 663 Z M304 494 Q256 494 216 477 Q176 460 147 429 Q118 398 101.5 356 Q85 314 85 265 L524 265 Q524 312 508 353.5 Q492 395 463 426.5 Q434 458 393.5 476 Q353 494 304 494 Z " />
<glyph glyph-name="edotaccent" unicode="&#x117;" horiz-adv-x="598" d="M553 256 L553 240 L85 240 Q85 188 105 147 Q125 106 156.5 77 Q188 48 228 32.5 Q268 17 308 17 Q359 17 397.5 31.5 Q436 46 467 69 L483 48 Q447 20 404 5 Q361 -10 307 -10 Q260 -10 215 7.5 Q170 25 134.5 59 Q99 93 77 142.5 Q55 192 55 256 Q55 311 73 359 Q91 407 123.5 443 Q156 479 202 500 Q248 521 304 521 Q363 521 409 498.5 Q455 476 487 439 Q519 402 536 354 Q553 306 553 256 Z M264 663 Q264 677 274.5 687.5 Q285 698 299 698 Q313 698 323.5 687.5 Q334 677 334 663 Q334 649 323.5 638.5 Q313 628 299 628 Q285 628 274.5 638.5 Q264 649 264 663 Z M304 494 Q256 494 216 477 Q176 460 147 429 Q118 398 101.5 356 Q85 314 85 265 L524 265 Q524 312 508 353.5 Q492 395 463 426.5 Q434 458 393.5 476 Q353 494 304 494 Z " />
<glyph glyph-name="egrave" unicode="&#xe8;" horiz-adv-x="598" d="M553 256 L553 240 L85 240 Q85 188 105 147 Q125 106 156.5 77 Q188 48 228 32.5 Q268 17 308 17 Q359 17 397.5 31.5 Q436 46 467 69 L483 48 Q447 20 404 5 Q361 -10 307 -10 Q260 -10 215 7.5 Q170 25 134.5 59 Q99 93 77 142.5 Q55 192 55 256 Q55 311 73 359 Q91 407 123.5 443 Q156 479 202 500 Q248 521 304 521 Q363 521 409 498.5 Q455 476 487 439 Q519 402 536 354 Q553 306 553 256 Z M304 494 Q256 494 216 477 Q176 460 147 429 Q118 398 101.5 356 Q85 314 85 265 L524 265 Q524 312 508 353.5 Q492 395 463 426.5 Q434 458 393.5 476 Q353 494 304 494 Z M158 696 Q150 703 149 713 Q148 723 155 731 Q163 738 173 737 Q183 736 190 728 Q195 722 200 716.5 Q205 711 210 705 L312 588 L298 574 L158 696 Z " />
<glyph glyph-name="emacron" unicode="&#x113;" horiz-adv-x="598" d="M553 256 L553 240 L85 240 Q85 188 105 147 Q125 106 156.5 77 Q188 48 228 32.5 Q268 17 308 17 Q359 17 397.5 31.5 Q436 46 467 69 L483 48 Q447 20 404 5 Q361 -10 307 -10 Q260 -10 215 7.5 Q170 25 134.5 59 Q99 93 77 142.5 Q55 192 55 256 Q55 311 73 359 Q91 407 123.5 443 Q156 479 202 500 Q248 521 304 521 Q363 521 409 498.5 Q455 476 487 439 Q519 402 536 354 Q553 306 553 256 Z M440 629 L158 629 L158 654 L440 654 L440 629 Z M304 494 Q256 494 216 477 Q176 460 147 429 Q118 398 101.5 356 Q85 314 85 265 L524 265 Q524 312 508 353.5 Q492 395 463 426.5 Q434 458 393.5 476 Q353 494 304 494 Z " />
<glyph glyph-name="eogonek" unicode="&#x119;" horiz-adv-x="598" d="M203 -93 Q203 -64 215 -40.5 Q227 -17 247 -2 Q208 7 173.5 28.5 Q139 50 112.5 82.5 Q86 115 70.5 158.5 Q55 202 55 256 Q55 311 73 359 Q91 407 123.5 443 Q156 479 202 500 Q248 521 304 521 Q363 521 409 498.5 Q455 476 487 439 Q519 402 536 354 Q553 306 553 256 L553 240 L85 240 Q85 188 105 147 Q125 106 156.5 77 Q188 48 228 32.5 Q268 17 308 17 Q359 17 397.5 31.5 Q436 46 467 69 L483 48 Q447 20 404 5 Q361 -10 307 -10 L304 -10 Q272 -12 250.5 -36 Q229 -60 229 -93 Q229 -110 235 -125 Q241 -140 251.5 -151 Q262 -162 276.5 -168.5 Q291 -175 307 -175 Q339 -175 362 -151 Q385 -127 385 -93 L411 -93 Q411 -116 403 -135.5 Q395 -155 380.5 -170 Q366 -185 347 -193.5 Q328 -202 307 -202 Q286 -202 267 -193.5 Q248 -185 233.5 -170 Q219 -155 211 -135.5 Q203 -116 203 -93 Z M304 494 Q256 494 216 477 Q176 460 147 429 Q118 398 101.5 356 Q85 314 85 265 L524 265 Q524 312 508 353.5 Q492 395 463 426.5 Q434 458 393.5 476 Q353 494 304 494 Z " />
<glyph glyph-name="fi" unicode="&#xfb01;" horiz-adv-x="522" d="M397 642 Q397 665 391 689.5 Q385 714 371 734 Q357 754 332.5 767 Q308 780 271 780 Q246 780 223.5 770 Q201 760 184 742 Q167 724 157 698.5 Q147 673 147 642 L147 512 L314 512 L314 486 L147 486 L147 0 L117 0 L117 486 L20 486 L20 512 L117 512 L117 642 Q117 673 127.5 703 Q138 733 157.5 756.5 Q177 780 206 794 Q235 808 271 808 Q311 808 340 794 Q369 780 388.5 757 Q408 734 417.5 704 Q427 674 427 642 L397 642 Z M427 512 L427 0 L397 0 L397 512 L427 512 Z " />
<glyph glyph-name="dotlessi" unicode="&#x131;" horiz-adv-x="220" d="M125 512 L125 0 L95 0 L95 512 L125 512 Z " />
<glyph glyph-name="iacute" unicode="&#xed;" horiz-adv-x="220" d="M125 512 L125 0 L95 0 L95 512 L125 512 Z M111 574 L97 588 L219 728 Q226 736 236 737 Q246 738 254 731 Q261 723 260 713 Q259 703 251 696 L111 574 Z " />
<glyph glyph-name="ibreve" unicode="&#x12d;" horiz-adv-x="220" d="M125 512 L125 0 L95 0 L95 512 L125 512 Z M-7 696 L19 696 L19 681 Q19 642 45.5 616 Q72 590 110 590 Q148 590 174.5 616 Q201 642 201 681 L201 696 L227 696 L227 681 Q227 657 218 635.5 Q209 614 193 598 Q177 582 155.5 573 Q134 564 110 564 Q86 564 64.5 573 Q43 582 27 598 Q11 614 2 635.5 Q-7 657 -7 681 L-7 696 Z " />
<glyph glyph-name="icircumflex" unicode="&#xee;" horiz-adv-x="220" d="M125 512 L125 0 L95 0 L95 512 L125 512 Z M108 680 L-6 564 L-26 583 L110 719 L246 583 L226 564 L108 680 Z " />
<glyph glyph-name="idieresis" unicode="&#xef;" horiz-adv-x="220" d="M125 512 L125 0 L95 0 L95 512 L125 512 Z M-9 663 Q-9 677 1.5 687.5 Q12 698 26 698 Q40 698 50.5 687.5 Q61 677 61 663 Q61 649 50.5 638.5 Q40 628 26 628 Q12 628 1.5 638.5 Q-9 649 -9 663 Z M159 663 Q159 677 169.5 687.5 Q180 698 194 698 Q208 698 218.5 687.5 Q229 677 229 663 Q229 649 218.5 638.5 Q208 628 194 628 Q180 628 169.5 638.5 Q159 649 159 663 Z " />
<glyph glyph-name="igrave" unicode="&#xec;" horiz-adv-x="220" d="M125 512 L125 0 L95 0 L95 512 L125 512 Z M-31 696 Q-39 703 -40 713 Q-41 723 -34 731 Q-26 738 -16 737 Q-6 736 1 728 L123 588 L109 574 L-31 696 Z " />
<glyph glyph-name="imacron" unicode="&#x12b;" horiz-adv-x="220" d="M125 512 L125 0 L95 0 L95 512 L125 512 Z M251 629 L-31 629 L-31 654 L251 654 L251 629 Z " />
<glyph glyph-name="iogonek" unicode="&#x12f;" horiz-adv-x="220" d="M6 -83 Q6 -41 31.5 -10.5 Q57 20 95 25 L95 512 L125 512 L125 0 L107 0 Q75 -2 53.5 -26 Q32 -50 32 -83 Q32 -100 38 -115 Q44 -130 54.5 -141 Q65 -152 79.5 -158.5 Q94 -165 110 -165 Q142 -165 165 -141 Q188 -117 188 -83 L214 -83 Q214 -106 206 -125.5 Q198 -145 183.5 -160 Q169 -175 150 -183.5 Q131 -192 110 -192 Q89 -192 70 -183.5 Q51 -175 36.5 -160 Q22 -145 14 -125.5 Q6 -106 6 -83 Z M80 721 Q80 734 88.5 742.5 Q97 751 110 751 Q123 751 131.5 742.5 Q140 734 140 721 Q140 708 131.5 699.5 Q123 691 110 691 Q97 691 88.5 699.5 Q80 708 80 721 Z " />
<glyph glyph-name="itilde" unicode="&#x129;" horiz-adv-x="220" d="M125 512 L125 0 L95 0 L95 512 L125 512 Z M180 708 Q215 708 235.5 684.5 Q256 661 254 622 L230 622 Q230 653 215.5 668 Q201 683 180 683 Q159 683 144 670 Q129 657 114.5 641 Q100 625 83 612 Q66 599 41 599 Q6 599 -14.5 622.5 Q-35 646 -34 685 L-9 685 Q-9 653 3.5 638.5 Q16 624 41 624 Q60 624 74.5 637 Q89 650 104 666 Q119 682 137 695 Q155 708 180 708 Z " />
<glyph glyph-name="ij" unicode="&#x133;" horiz-adv-x="440" d="M125 512 L125 0 L95 0 L95 512 L125 512 Z M80 721 Q80 734 88.5 742.5 Q97 751 110 751 Q123 751 131.5 742.5 Q140 734 140 721 Q140 708 131.5 699.5 Q123 691 110 691 Q97 691 88.5 699.5 Q80 708 80 721 Z M315 -236 L315 512 L345 512 L345 -236 L315 -236 Z M300 721 Q300 734 308.5 742.5 Q317 751 330 751 Q343 751 351.5 742.5 Q360 734 360 721 Q360 708 351.5 699.5 Q343 691 330 691 Q317 691 308.5 699.5 Q300 708 300 721 Z " />
<glyph glyph-name="lacute" unicode="&#x13a;" horiz-adv-x="209" d="M90 0 L90 768 L119 768 L119 0 L90 0 Z M101 797 L87 811 L209 951 Q216 959 226 960 Q236 961 244 954 Q251 946 250 936 Q249 926 241 919 L101 797 Z " />
<glyph glyph-name="lcaron" unicode="&#x13e;" horiz-adv-x="348" d="M90 0 L90 768 L119 768 L119 0 L90 0 Z M239 585 L277 666 Q265 669 257 678.5 Q249 688 249 701 Q249 715 259 725.5 Q269 736 283 736 Q303 736 312.5 719 Q322 702 313 683 L262 574 L239 585 Z " />
<glyph glyph-name="lcommaaccent" unicode="&#x13c;" horiz-adv-x="209" d="M90 0 L90 768 L119 768 L119 0 L90 0 Z M61 -215 L99 -134 Q87 -131 79 -121.5 Q71 -112 71 -99 Q71 -85 81 -74.5 Q91 -64 105 -64 Q125 -64 134.5 -81 Q144 -98 135 -117 L84 -226 L61 -215 Z " />
<glyph glyph-name="ldot" unicode="&#x140;" horiz-adv-x="360" d="M260 373 Q260 387 270.5 397.5 Q281 408 295 408 Q309 408 319.5 397.5 Q330 387 330 373 Q330 359 319.5 348.5 Q309 338 295 338 Q281 338 270.5 348.5 Q260 359 260 373 Z M90 0 L90 768 L119 768 L119 0 L90 0 Z " />
<glyph glyph-name="lslash" unicode="&#x142;" horiz-adv-x="209" d="M90 0 L90 328 L-46 292 L-52 313 L90 351 L90 768 L119 768 L119 358 L251 394 L257 373 L119 336 L119 0 L90 0 Z " />
<glyph glyph-name="kcommaaccent" unicode="&#x137;" horiz-adv-x="510" d="M120 768 L120 269 L292 269 L440 512 L470 512 L316 256 L470 0 L440 0 L292 243 L120 243 L120 0 L90 0 L90 768 L120 768 Z M212 -215 L250 -134 Q238 -131 230 -121.5 Q222 -112 222 -99 Q222 -85 232 -74.5 Q242 -64 256 -64 Q276 -64 285.5 -81 Q295 -98 286 -117 L235 -226 L212 -215 Z " />
<glyph glyph-name="hbar" unicode="&#x127;" horiz-adv-x="666" d="M591 0 L561 0 L561 266 Q561 312 544 352 Q527 392 497 422 Q467 452 427 469 Q387 486 341 486 Q296 486 256 465.5 Q216 445 186 410.5 Q156 376 138 330 Q120 284 120 233 L120 0 L90 0 L90 592 L-41 557 L-47 578 L90 614 L90 768 L120 768 L120 622 L256 659 L262 638 L120 600 L120 339 Q132 377 154.5 409.5 Q177 442 207 465 Q237 488 273.5 500.5 Q310 513 351 512 Q400 512 443.5 492.5 Q487 473 520 438.5 Q553 404 572 357 Q591 310 591 256 L591 0 Z " />
<glyph glyph-name="hcircumflex" unicode="&#x125;" horiz-adv-x="666" d="M591 0 L561 0 L561 266 Q561 312 544 352 Q527 392 497 422 Q467 452 427 469 Q387 486 341 486 Q296 486 256 465.5 Q216 445 186 410.5 Q156 376 138 330 Q120 284 120 233 L120 0 L90 0 L90 768 L120 768 L120 339 Q132 377 154.5 409.5 Q177 442 207 465 Q237 488 273.5 500.5 Q310 513 351 512 Q400 512 443.5 492.5 Q487 473 520 438.5 Q553 404 572 357 Q591 310 591 256 L591 0 Z M351 680 L237 564 L217 583 L353 719 L489 583 L469 564 L351 680 Z " />
<glyph glyph-name="dcaron" unicode="&#x10f;" horiz-adv-x="784" d="M55 256 Q55 309 75 356 Q95 403 130.5 437.5 Q166 472 213.5 492 Q261 512 317 512 Q353 512 386.5 501 Q420 490 447.5 472 Q475 454 495 431 Q515 408 525 384 L525 768 L555 768 L555 0 L525 0 L525 130 Q515 106 495.5 83 Q476 60 449.5 41.5 Q423 23 389.5 11.5 Q356 0 317 0 Q261 0 213.5 20 Q166 40 130.5 74.5 Q95 109 75 156 Q55 203 55 256 Z M536 256 Q536 305 519 347 Q502 389 473 420 Q444 451 403.5 468.5 Q363 486 317 486 Q269 486 226.5 468.5 Q184 451 152.5 420 Q121 389 103 347 Q85 305 85 256 Q85 207 103 165 Q121 123 152.5 92.5 Q184 62 226.5 44.5 Q269 27 317 27 Q363 27 403.5 44.5 Q444 62 473 92.5 Q502 123 519 165 Q536 207 536 256 Z M675 585 L713 666 Q701 669 693 678.5 Q685 688 685 701 Q685 715 695 725.5 Q705 736 719 736 Q739 736 748.5 719 Q758 702 749 683 L698 574 L675 585 Z " />
<glyph glyph-name="nacute" unicode="&#x144;" horiz-adv-x="652" d="M577 0 L547 0 L547 282 Q547 327 531 365.5 Q515 404 487 433 Q459 462 420.5 478.5 Q382 495 337 495 Q293 495 253.5 477 Q214 459 184.5 428 Q155 397 137.5 355 Q120 313 119 264 L119 0 L90 0 L90 512 L119 512 L119 362 Q125 387 143.5 415.5 Q162 444 190 467.5 Q218 491 255.5 506.5 Q293 522 337 522 Q389 522 433 503 Q477 484 509 450.5 Q541 417 559 371 Q577 325 577 272 L577 0 Z M327 574 L313 588 L435 728 Q442 736 452 737 Q462 738 470 731 Q477 723 476 713 Q475 703 467 696 L327 574 Z " />
<glyph glyph-name="napostrophe" unicode="&#x149;" horiz-adv-x="652" d="M577 0 L547 0 L547 282 Q547 327 531 365.5 Q515 404 487 433 Q459 462 420.5 478.5 Q382 495 337 495 Q293 495 253.5 477 Q214 459 184.5 428 Q155 397 137.5 355 Q120 313 119 264 L119 0 L90 0 L90 512 L119 512 L119 362 Q125 387 143.5 415.5 Q162 444 190 467.5 Q218 491 255.5 506.5 Q293 522 337 522 Q389 522 433 503 Q477 484 509 450.5 Q541 417 559 371 Q577 325 577 272 L577 0 Z M95 625 L133 706 Q121 709 113 718.5 Q105 728 105 741 Q105 755 115 765.5 Q125 776 139 776 Q159 776 168.5 759 Q178 742 169 723 L118 614 L95 625 Z " />
<glyph glyph-name="ncaron" unicode="&#x148;" horiz-adv-x="652" d="M577 0 L547 0 L547 282 Q547 327 531 365.5 Q515 404 487 433 Q459 462 420.5 478.5 Q382 495 337 495 Q293 495 253.5 477 Q214 459 184.5 428 Q155 397 137.5 355 Q120 313 119 264 L119 0 L90 0 L90 512 L119 512 L119 362 Q125 387 143.5 415.5 Q162 444 190 467.5 Q218 491 255.5 506.5 Q293 522 337 522 Q389 522 433 503 Q477 484 509 450.5 Q541 417 559 371 Q577 325 577 272 L577 0 Z M348 603 L462 719 L482 700 L346 564 L210 700 L230 719 L348 603 Z " />
<glyph glyph-name="ncommaaccent" unicode="&#x146;" horiz-adv-x="652" d="M577 0 L547 0 L547 282 Q547 327 531 365.5 Q515 404 487 433 Q459 462 420.5 478.5 Q382 495 337 495 Q293 495 253.5 477 Q214 459 184.5 428 Q155 397 137.5 355 Q120 313 119 264 L119 0 L90 0 L90 512 L119 512 L119 362 Q125 387 143.5 415.5 Q162 444 190 467.5 Q218 491 255.5 506.5 Q293 522 337 522 Q389 522 433 503 Q477 484 509 450.5 Q541 417 559 371 Q577 325 577 272 L577 0 Z M283 -215 L321 -134 Q309 -131 301 -121.5 Q293 -112 293 -99 Q293 -85 303 -74.5 Q313 -64 327 -64 Q347 -64 356.5 -81 Q366 -98 357 -117 L306 -226 L283 -215 Z " />
<glyph glyph-name="ntilde" unicode="&#xf1;" horiz-adv-x="652" d="M577 0 L547 0 L547 282 Q547 327 531 365.5 Q515 404 487 433 Q459 462 420.5 478.5 Q382 495 337 495 Q293 495 253.5 477 Q214 459 184.5 428 Q155 397 137.5 355 Q120 313 119 264 L119 0 L90 0 L90 512 L119 512 L119 362 Q125 387 143.5 415.5 Q162 444 190 467.5 Q218 491 255.5 506.5 Q293 522 337 522 Q389 522 433 503 Q477 484 509 450.5 Q541 417 559 371 Q577 325 577 272 L577 0 Z M395 708 Q430 708 450.5 684.5 Q471 661 469 622 L445 622 Q445 653 430.5 668 Q416 683 395 683 Q374 683 359 670 Q344 657 329.5 641 Q315 625 298 612 Q281 599 256 599 Q221 599 200.5 622.5 Q180 646 181 685 L206 685 Q206 653 218.5 638.5 Q231 624 256 624 Q275 624 289.5 637 Q304 650 319 666 Q334 682 352 695 Q370 708 395 708 Z " />
<glyph glyph-name="oacute" unicode="&#xf3;" horiz-adv-x="622" d="M50 256 Q50 310 70.5 358 Q91 406 126 441 Q161 476 209 496.5 Q257 517 311 517 Q365 517 413 496.5 Q461 476 496 441 Q531 406 551.5 358 Q572 310 572 256 Q572 202 551.5 154 Q531 106 496 71 Q461 36 413 15.5 Q365 -5 311 -5 Q257 -5 209 15.5 Q161 36 126 71 Q91 106 70.5 154 Q50 202 50 256 Z M80 256 Q80 209 98.5 167 Q117 125 148.5 93.5 Q180 62 222 43.5 Q264 25 311 25 Q358 25 400 43.5 Q442 62 473.5 93.5 Q505 125 523.5 167 Q542 209 542 256 Q542 303 523.5 345 Q505 387 473.5 418.5 Q442 450 400 468.5 Q358 487 311 487 Q264 487 222 468.5 Q180 450 148.5 418.5 Q117 387 98.5 345 Q80 303 80 256 Z M312 574 L298 588 L420 728 Q427 736 437 737 Q447 738 455 731 Q462 723 461 713 Q460 703 452 696 L312 574 Z " />
<glyph glyph-name="obreve" unicode="&#x14f;" horiz-adv-x="622" d="M50 256 Q50 310 70.5 358 Q91 406 126 441 Q161 476 209 496.5 Q257 517 311 517 Q365 517 413 496.5 Q461 476 496 441 Q531 406 551.5 358 Q572 310 572 256 Q572 202 551.5 154 Q531 106 496 71 Q461 36 413 15.5 Q365 -5 311 -5 Q257 -5 209 15.5 Q161 36 126 71 Q91 106 70.5 154 Q50 202 50 256 Z M80 256 Q80 209 98.5 167 Q117 125 148.5 93.5 Q180 62 222 43.5 Q264 25 311 25 Q358 25 400 43.5 Q442 62 473.5 93.5 Q505 125 523.5 167 Q542 209 542 256 Q542 303 523.5 345 Q505 387 473.5 418.5 Q442 450 400 468.5 Q358 487 311 487 Q264 487 222 468.5 Q180 450 148.5 418.5 Q117 387 98.5 345 Q80 303 80 256 Z M194 696 L220 696 L220 681 Q220 642 246.5 616 Q273 590 311 590 Q349 590 375.5 616 Q402 642 402 681 L402 696 L428 696 L428 681 Q428 657 419 635.5 Q410 614 394 598 Q378 582 356.5 573 Q335 564 311 564 Q287 564 265.5 573 Q244 582 228 598 Q212 614 203 635.5 Q194 657 194 681 L194 696 Z " />
<glyph glyph-name="ocircumflex" unicode="&#xf4;" horiz-adv-x="622" d="M50 256 Q50 310 70.5 358 Q91 406 126 441 Q161 476 209 496.5 Q257 517 311 517 Q365 517 413 496.5 Q461 476 496 441 Q531 406 551.5 358 Q572 310 572 256 Q572 202 551.5 154 Q531 106 496 71 Q461 36 413 15.5 Q365 -5 311 -5 Q257 -5 209 15.5 Q161 36 126 71 Q91 106 70.5 154 Q50 202 50 256 Z M80 256 Q80 209 98.5 167 Q117 125 148.5 93.5 Q180 62 222 43.5 Q264 25 311 25 Q358 25 400 43.5 Q442 62 473.5 93.5 Q505 125 523.5 167 Q542 209 542 256 Q542 303 523.5 345 Q505 387 473.5 418.5 Q442 450 400 468.5 Q358 487 311 487 Q264 487 222 468.5 Q180 450 148.5 418.5 Q117 387 98.5 345 Q80 303 80 256 Z M309 680 L195 564 L175 583 L311 719 L447 583 L427 564 L309 680 Z " />
<glyph glyph-name="odieresis" unicode="&#xf6;" horiz-adv-x="622" d="M50 256 Q50 310 70.5 358 Q91 406 126 441 Q161 476 209 496.5 Q257 517 311 517 Q365 517 413 496.5 Q461 476 496 441 Q531 406 551.5 358 Q572 310 572 256 Q572 202 551.5 154 Q531 106 496 71 Q461 36 413 15.5 Q365 -5 311 -5 Q257 -5 209 15.5 Q161 36 126 71 Q91 106 70.5 154 Q50 202 50 256 Z M80 256 Q80 209 98.5 167 Q117 125 148.5 93.5 Q180 62 222 43.5 Q264 25 311 25 Q358 25 400 43.5 Q442 62 473.5 93.5 Q505 125 523.5 167 Q542 209 542 256 Q542 303 523.5 345 Q505 387 473.5 418.5 Q442 450 400 468.5 Q358 487 311 487 Q264 487 222 468.5 Q180 450 148.5 418.5 Q117 387 98.5 345 Q80 303 80 256 Z M192 663 Q192 677 202.5 687.5 Q213 698 227 698 Q241 698 251.5 687.5 Q262 677 262 663 Q262 649 251.5 638.5 Q241 628 227 628 Q213 628 202.5 638.5 Q192 649 192 663 Z M360 663 Q360 677 370.5 687.5 Q381 698 395 698 Q409 698 419.5 687.5 Q430 677 430 663 Q430 649 419.5 638.5 Q409 628 395 628 Q381 628 370.5 638.5 Q360 649 360 663 Z " />
<glyph glyph-name="ograve" unicode="&#xf2;" horiz-adv-x="622" d="M50 256 Q50 310 70.5 358 Q91 406 126 441 Q161 476 209 496.5 Q257 517 311 517 Q365 517 413 496.5 Q461 476 496 441 Q531 406 551.5 358 Q572 310 572 256 Q572 202 551.5 154 Q531 106 496 71 Q461 36 413 15.5 Q365 -5 311 -5 Q257 -5 209 15.5 Q161 36 126 71 Q91 106 70.5 154 Q50 202 50 256 Z M80 256 Q80 209 98.5 167 Q117 125 148.5 93.5 Q180 62 222 43.5 Q264 25 311 25 Q358 25 400 43.5 Q442 62 473.5 93.5 Q505 125 523.5 167 Q542 209 542 256 Q542 303 523.5 345 Q505 387 473.5 418.5 Q442 450 400 468.5 Q358 487 311 487 Q264 487 222 468.5 Q180 450 148.5 418.5 Q117 387 98.5 345 Q80 303 80 256 Z M170 696 Q162 703 161 713 Q160 723 167 731 Q175 738 185 737 Q195 736 202 728 L324 588 L310 574 L170 696 Z " />
<glyph glyph-name="ohungarumlaut" unicode="&#x151;" horiz-adv-x="622" d="M50 256 Q50 310 70.5 358 Q91 406 126 441 Q161 476 209 496.5 Q257 517 311 517 Q365 517 413 496.5 Q461 476 496 441 Q531 406 551.5 358 Q572 310 572 256 Q572 202 551.5 154 Q531 106 496 71 Q461 36 413 15.5 Q365 -5 311 -5 Q257 -5 209 15.5 Q161 36 126 71 Q91 106 70.5 154 Q50 202 50 256 Z M80 256 Q80 209 98.5 167 Q117 125 148.5 93.5 Q180 62 222 43.5 Q264 25 311 25 Q358 25 400 43.5 Q442 62 473.5 93.5 Q505 125 523.5 167 Q542 209 542 256 Q542 303 523.5 345 Q505 387 473.5 418.5 Q442 450 400 468.5 Q358 487 311 487 Q264 487 222 468.5 Q180 450 148.5 418.5 Q117 387 98.5 345 Q80 303 80 256 Z M230 574 L216 588 L338 728 Q345 736 355 737 Q365 738 373 731 Q380 723 379 713 Q378 703 370 696 L230 574 Z M394 574 L380 588 L502 728 Q509 736 519 737 Q529 738 537 731 Q544 723 543 713 Q542 703 534 696 L394 574 Z " />
<glyph glyph-name="omacron" unicode="&#x14d;" horiz-adv-x="622" d="M50 256 Q50 310 70.5 358 Q91 406 126 441 Q161 476 209 496.5 Q257 517 311 517 Q365 517 413 496.5 Q461 476 496 441 Q531 406 551.5 358 Q572 310 572 256 Q572 202 551.5 154 Q531 106 496 71 Q461 36 413 15.5 Q365 -5 311 -5 Q257 -5 209 15.5 Q161 36 126 71 Q91 106 70.5 154 Q50 202 50 256 Z M80 256 Q80 209 98.5 167 Q117 125 148.5 93.5 Q180 62 222 43.5 Q264 25 311 25 Q358 25 400 43.5 Q442 62 473.5 93.5 Q505 125 523.5 167 Q542 209 542 256 Q542 303 523.5 345 Q505 387 473.5 418.5 Q442 450 400 468.5 Q358 487 311 487 Q264 487 222 468.5 Q180 450 148.5 418.5 Q117 387 98.5 345 Q80 303 80 256 Z M452 629 L170 629 L170 654 L452 654 L452 629 Z " />
<glyph glyph-name="gbreve" unicode="&#x11f;" horiz-adv-x="550" d="M63 327 Q63 370 79.5 408.5 Q96 447 124.5 476 Q153 505 191 521.5 Q229 538 273 538 Q308 538 340 527 Q372 516 398 496 Q427 506 458 509 Q489 512 527 512 L535 512 L535 486 L410 486 Q444 457 464 416 Q484 375 484 327 Q484 283 467.5 245 Q451 207 422 178.5 Q393 150 354.5 133.5 Q316 117 273 117 Q235 117 196.5 133 Q158 149 133 175 Q48 142 48 71 Q48 33 71 11.5 Q94 -10 139 -10 L361 -10 Q443 -10 482.5 -46 Q522 -82 522 -136 Q522 -166 509.5 -190.5 Q497 -215 474.5 -231.5 Q452 -248 421.5 -257 Q391 -266 354 -266 Q302 -266 257.5 -249.5 Q213 -233 181 -204 Q149 -175 132.5 -135 Q116 -95 119 -48 L139 -38 Q86 -38 53 -11 Q20 16 20 68 Q20 106 47 139 Q74 172 117 189 Q92 217 77.5 251.5 Q63 286 63 327 Z M90 327 Q90 289 104.5 255.5 Q119 222 143.5 197.5 Q168 173 201.5 158.5 Q235 144 273 144 Q311 144 344.5 158.5 Q378 173 403 197.5 Q428 222 442.5 255.5 Q457 289 457 327 Q457 365 442.5 398.5 Q428 432 403 457 Q378 482 344.5 496.5 Q311 511 273 511 Q235 511 201.5 496.5 Q168 482 143.5 457 Q119 432 104.5 398.5 Q90 365 90 327 Z M354 -238 Q415 -238 454.5 -212.5 Q494 -187 494 -136 Q494 -91 460.5 -64.5 Q427 -38 361 -38 L143 -38 Q140 -82 154.5 -118.5 Q169 -155 197.5 -181.5 Q226 -208 266 -223 Q306 -238 354 -238 Z M159 696 L185 696 L185 681 Q185 642 211.5 616 Q238 590 276 590 Q314 590 340.5 616 Q367 642 367 681 L367 696 L393 696 L393 681 Q393 657 384 635.5 Q375 614 359 598 Q343 582 321.5 573 Q300 564 276 564 Q252 564 230.5 573 Q209 582 193 598 Q177 614 168 635.5 Q159 657 159 681 L159 696 Z " />
<glyph glyph-name="gcircumflex" unicode="&#x11d;" horiz-adv-x="550" d="M63 327 Q63 370 79.5 408.5 Q96 447 124.5 476 Q153 505 191 521.5 Q229 538 273 538 Q308 538 340 527 Q372 516 398 496 Q427 506 458 509 Q489 512 527 512 L535 512 L535 486 L410 486 Q444 457 464 416 Q484 375 484 327 Q484 283 467.5 245 Q451 207 422 178.5 Q393 150 354.5 133.5 Q316 117 273 117 Q235 117 196.5 133 Q158 149 133 175 Q48 142 48 71 Q48 33 71 11.5 Q94 -10 139 -10 L361 -10 Q443 -10 482.5 -46 Q522 -82 522 -136 Q522 -166 509.5 -190.5 Q497 -215 474.5 -231.5 Q452 -248 421.5 -257 Q391 -266 354 -266 Q302 -266 257.5 -249.5 Q213 -233 181 -204 Q149 -175 132.5 -135 Q116 -95 119 -48 L139 -38 Q86 -38 53 -11 Q20 16 20 68 Q20 106 47 139 Q74 172 117 189 Q92 217 77.5 251.5 Q63 286 63 327 Z M90 327 Q90 289 104.5 255.5 Q119 222 143.5 197.5 Q168 173 201.5 158.5 Q235 144 273 144 Q311 144 344.5 158.5 Q378 173 403 197.5 Q428 222 442.5 255.5 Q457 289 457 327 Q457 365 442.5 398.5 Q428 432 403 457 Q378 482 344.5 496.5 Q311 511 273 511 Q235 511 201.5 496.5 Q168 482 143.5 457 Q119 432 104.5 398.5 Q90 365 90 327 Z M354 -238 Q415 -238 454.5 -212.5 Q494 -187 494 -136 Q494 -91 460.5 -64.5 Q427 -38 361 -38 L143 -38 Q140 -82 154.5 -118.5 Q169 -155 197.5 -181.5 Q226 -208 266 -223 Q306 -238 354 -238 Z M274 680 L160 564 L140 583 L276 719 L412 583 L392 564 L274 680 Z " />
<glyph glyph-name="gcommaaccent" unicode="&#x123;" horiz-adv-x="550" d="M63 327 Q63 370 79.5 408.5 Q96 447 124.5 476 Q153 505 191 521.5 Q229 538 273 538 Q308 538 340 527 Q372 516 398 496 Q427 506 458 509 Q489 512 527 512 L535 512 L535 486 L410 486 Q444 457 464 416 Q484 375 484 327 Q484 283 467.5 245 Q451 207 422 178.5 Q393 150 354.5 133.5 Q316 117 273 117 Q235 117 196.5 133 Q158 149 133 175 Q48 142 48 71 Q48 33 71 11.5 Q94 -10 139 -10 L361 -10 Q443 -10 482.5 -46 Q522 -82 522 -136 Q522 -166 509.5 -190.5 Q497 -215 474.5 -231.5 Q452 -248 421.5 -257 Q391 -266 354 -266 Q302 -266 257.5 -249.5 Q213 -233 181 -204 Q149 -175 132.5 -135 Q116 -95 119 -48 L139 -38 Q86 -38 53 -11 Q20 16 20 68 Q20 106 47 139 Q74 172 117 189 Q92 217 77.5 251.5 Q63 286 63 327 Z M90 327 Q90 289 104.5 255.5 Q119 222 143.5 197.5 Q168 173 201.5 158.5 Q235 144 273 144 Q311 144 344.5 158.5 Q378 173 403 197.5 Q428 222 442.5 255.5 Q457 289 457 327 Q457 365 442.5 398.5 Q428 432 403 457 Q378 482 344.5 496.5 Q311 511 273 511 Q235 511 201.5 496.5 Q168 482 143.5 457 Q119 432 104.5 398.5 Q90 365 90 327 Z M354 -238 Q415 -238 454.5 -212.5 Q494 -187 494 -136 Q494 -91 460.5 -64.5 Q427 -38 361 -38 L143 -38 Q140 -82 154.5 -118.5 Q169 -155 197.5 -181.5 Q226 -208 266 -223 Q306 -238 354 -238 Z M329 768 L291 687 Q303 684 311 674.5 Q319 665 319 652 Q319 638 309 627.5 Q299 617 285 617 Q265 617 255.5 634 Q246 651 255 670 L306 779 L329 768 Z " />
<glyph glyph-name="gdotaccent" unicode="&#x121;" horiz-adv-x="550" d="M63 327 Q63 370 79.5 408.5 Q96 447 124.5 476 Q153 505 191 521.5 Q229 538 273 538 Q308 538 340 527 Q372 516 398 496 Q427 506 458 509 Q489 512 527 512 L535 512 L535 486 L410 486 Q444 457 464 416 Q484 375 484 327 Q484 283 467.5 245 Q451 207 422 178.5 Q393 150 354.5 133.5 Q316 117 273 117 Q235 117 196.5 133 Q158 149 133 175 Q48 142 48 71 Q48 33 71 11.5 Q94 -10 139 -10 L361 -10 Q443 -10 482.5 -46 Q522 -82 522 -136 Q522 -166 509.5 -190.5 Q497 -215 474.5 -231.5 Q452 -248 421.5 -257 Q391 -266 354 -266 Q302 -266 257.5 -249.5 Q213 -233 181 -204 Q149 -175 132.5 -135 Q116 -95 119 -48 L139 -38 Q86 -38 53 -11 Q20 16 20 68 Q20 106 47 139 Q74 172 117 189 Q92 217 77.5 251.5 Q63 286 63 327 Z M90 327 Q90 289 104.5 255.5 Q119 222 143.5 197.5 Q168 173 201.5 158.5 Q235 144 273 144 Q311 144 344.5 158.5 Q378 173 403 197.5 Q428 222 442.5 255.5 Q457 289 457 327 Q457 365 442.5 398.5 Q428 432 403 457 Q378 482 344.5 496.5 Q311 511 273 511 Q235 511 201.5 496.5 Q168 482 143.5 457 Q119 432 104.5 398.5 Q90 365 90 327 Z M354 -238 Q415 -238 454.5 -212.5 Q494 -187 494 -136 Q494 -91 460.5 -64.5 Q427 -38 361 -38 L143 -38 Q140 -82 154.5 -118.5 Q169 -155 197.5 -181.5 Q226 -208 266 -223 Q306 -238 354 -238 Z M241 663 Q241 677 251.5 687.5 Q262 698 276 698 Q290 698 300.5 687.5 Q311 677 311 663 Q311 649 300.5 638.5 Q290 628 276 628 Q262 628 251.5 638.5 Q241 649 241 663 Z " />
<glyph glyph-name="racute" unicode="&#x155;" horiz-adv-x="324" d="M120 0 L90 0 L90 512 L116 512 L116 397 Q138 454 186 483 Q234 512 294 512 L314 512 L314 486 L294 486 Q257 486 225.5 473.5 Q194 461 170.5 438 Q147 415 133.5 383.5 Q120 352 120 314 L120 0 Z M123 574 L109 588 L231 728 Q238 736 248 737 Q258 738 266 731 Q273 723 272 713 Q271 703 263 696 L123 574 Z " />
<glyph glyph-name="rcaron" unicode="&#x159;" horiz-adv-x="324" d="M120 0 L90 0 L90 512 L116 512 L116 397 Q138 454 186 483 Q234 512 294 512 L314 512 L314 486 L294 486 Q257 486 225.5 473.5 Q194 461 170.5 438 Q147 415 133.5 383.5 Q120 352 120 314 L120 0 Z M164 603 L278 719 L298 700 L162 564 L26 700 L46 719 L164 603 Z " />
<glyph glyph-name="rcommaaccent" unicode="&#x157;" horiz-adv-x="324" d="M120 0 L90 0 L90 512 L116 512 L116 397 Q138 454 186 483 Q234 512 294 512 L314 512 L314 486 L294 486 Q257 486 225.5 473.5 Q194 461 170.5 438 Q147 415 133.5 383.5 Q120 352 120 314 L120 0 Z M60 -215 L98 -134 Q86 -131 78 -121.5 Q70 -112 70 -99 Q70 -85 80 -74.5 Q90 -64 104 -64 Q124 -64 133.5 -81 Q143 -98 134 -117 L83 -226 L60 -215 Z " />
<glyph glyph-name="sacute" unicode="&#x15b;" horiz-adv-x="511" d="M92 392 Q92 361 116.5 335 Q141 309 201 289 L326 249 Q403 224 434.5 190.5 Q466 157 466 112 Q466 86 454.5 63.5 Q443 41 419.5 24.5 Q396 8 360 -2 Q324 -12 276 -12 Q211 -12 150.5 12 Q90 36 55 72 L77 92 Q93 75 116.5 61 Q140 47 167 37 Q194 27 222 21.5 Q250 16 276 16 Q360 16 398 44.5 Q436 73 436 112 Q436 147 410.5 173.5 Q385 200 319 221 L194 261 Q131 281 96.5 314 Q62 347 62 392 Q62 418 73.5 442.5 Q85 467 108.5 486 Q132 505 168.5 516.5 Q205 528 255 528 Q310 528 348.5 511 Q387 494 411 469 Q435 444 446 416.5 Q457 389 457 368 L430 368 Q423 427 375 463.5 Q327 500 255 500 Q212 500 181.5 491 Q151 482 131 467 Q111 452 101.5 432.5 Q92 413 92 392 Z M256 574 L242 588 L364 728 Q371 736 381 737 Q391 738 399 731 Q406 723 405 713 Q404 703 396 696 L256 574 Z " />
<glyph glyph-name="scaron" unicode="&#x161;" horiz-adv-x="511" d="M92 392 Q92 361 116.5 335 Q141 309 201 289 L326 249 Q403 224 434.5 190.5 Q466 157 466 112 Q466 86 454.5 63.5 Q443 41 419.5 24.5 Q396 8 360 -2 Q324 -12 276 -12 Q211 -12 150.5 12 Q90 36 55 72 L77 92 Q93 75 116.5 61 Q140 47 167 37 Q194 27 222 21.5 Q250 16 276 16 Q360 16 398 44.5 Q436 73 436 112 Q436 147 410.5 173.5 Q385 200 319 221 L194 261 Q131 281 96.5 314 Q62 347 62 392 Q62 418 73.5 442.5 Q85 467 108.5 486 Q132 505 168.5 516.5 Q205 528 255 528 Q310 528 348.5 511 Q387 494 411 469 Q435 444 446 416.5 Q457 389 457 368 L430 368 Q423 427 375 463.5 Q327 500 255 500 Q212 500 181.5 491 Q151 482 131 467 Q111 452 101.5 432.5 Q92 413 92 392 Z M257 603 L371 719 L391 700 L255 564 L119 700 L139 719 L257 603 Z " />
<glyph glyph-name="scedilla" unicode="&#x15f;" horiz-adv-x="511" d="M92 392 Q92 361 116.5 335 Q141 309 201 289 L326 249 Q403 224 434.5 190.5 Q466 157 466 112 Q466 61 420.5 25 Q375 -11 279 -12 L279 -41 Q295 -43 310.5 -50 Q326 -57 338 -69.5 Q350 -82 357 -99 Q364 -116 364 -136 Q364 -178 335.5 -205 Q307 -232 267 -232 Q247 -232 230 -224.5 Q213 -217 199 -204 L217 -187 Q227 -195 240 -201 Q253 -207 267 -207 Q296 -207 316.5 -187 Q337 -167 337 -136 Q337 -105 317 -85 Q297 -65 266 -65 Q249 -65 236.5 -71 Q224 -77 216 -85 L199 -68 Q208 -58 222.5 -50.5 Q237 -43 255 -41 L255 -11 Q195 -7 141 16 Q87 39 55 72 L77 92 Q93 75 116.5 61 Q140 47 167 37 Q194 27 222 21.5 Q250 16 276 16 Q360 16 398 44.5 Q436 73 436 112 Q436 147 410.5 173.5 Q385 200 319 221 L194 261 Q131 281 96.5 314 Q62 347 62 392 Q62 418 73.5 442.5 Q85 467 108.5 486 Q132 505 168.5 516.5 Q205 528 255 528 Q310 528 348.5 511 Q387 494 411 469 Q435 444 446 416.5 Q457 389 457 368 L430 368 Q423 427 375 463.5 Q327 500 255 500 Q212 500 181.5 491 Q151 482 131 467 Q111 452 101.5 432.5 Q92 413 92 392 Z " />
<glyph glyph-name="scircumflex" unicode="&#x15d;" horiz-adv-x="511" d="M92 392 Q92 361 116.5 335 Q141 309 201 289 L326 249 Q403 224 434.5 190.5 Q466 157 466 112 Q466 86 454.5 63.5 Q443 41 419.5 24.5 Q396 8 360 -2 Q324 -12 276 -12 Q211 -12 150.5 12 Q90 36 55 72 L77 92 Q93 75 116.5 61 Q140 47 167 37 Q194 27 222 21.5 Q250 16 276 16 Q360 16 398 44.5 Q436 73 436 112 Q436 147 410.5 173.5 Q385 200 319 221 L194 261 Q131 281 96.5 314 Q62 347 62 392 Q62 418 73.5 442.5 Q85 467 108.5 486 Q132 505 168.5 516.5 Q205 528 255 528 Q310 528 348.5 511 Q387 494 411 469 Q435 444 446 416.5 Q457 389 457 368 L430 368 Q423 427 375 463.5 Q327 500 255 500 Q212 500 181.5 491 Q151 482 131 467 Q111 452 101.5 432.5 Q92 413 92 392 Z M253 680 L139 564 L119 583 L255 719 L391 583 L371 564 L253 680 Z " />
<glyph glyph-name="scommaaccent" unicode="&#x219;" horiz-adv-x="511" d="M92 392 Q92 361 116.5 335 Q141 309 201 289 L326 249 Q403 224 434.5 190.5 Q466 157 466 112 Q466 86 454.5 63.5 Q443 41 419.5 24.5 Q396 8 360 -2 Q324 -12 276 -12 Q211 -12 150.5 12 Q90 36 55 72 L77 92 Q93 75 116.5 61 Q140 47 167 37 Q194 27 222 21.5 Q250 16 276 16 Q360 16 398 44.5 Q436 73 436 112 Q436 147 410.5 173.5 Q385 200 319 221 L194 261 Q131 281 96.5 314 Q62 347 62 392 Q62 418 73.5 442.5 Q85 467 108.5 486 Q132 505 168.5 516.5 Q205 528 255 528 Q310 528 348.5 511 Q387 494 411 469 Q435 444 446 416.5 Q457 389 457 368 L430 368 Q423 427 375 463.5 Q327 500 255 500 Q212 500 181.5 491 Q151 482 131 467 Q111 452 101.5 432.5 Q92 413 92 392 Z M212 -215 L250 -134 Q238 -131 230 -121.5 Q222 -112 222 -99 Q222 -85 232 -74.5 Q242 -64 256 -64 Q276 -64 285.5 -81 Q295 -98 286 -117 L235 -226 L212 -215 Z " />
<glyph glyph-name="tbar" unicode="&#x167;" horiz-adv-x="296" d="M128 0 L128 297 L-2 262 L-8 283 L128 319 L128 486 L10 486 L10 512 L128 512 L128 640 L158 640 L158 512 L276 512 L276 486 L158 486 L158 327 L295 364 L301 343 L158 305 L158 0 L128 0 Z " />
<glyph glyph-name="tcaron" unicode="&#x165;" horiz-adv-x="435" d="M128 0 L128 486 L10 486 L10 512 L128 512 L128 640 L158 640 L158 512 L276 512 L276 486 L158 486 L158 0 L128 0 Z M326 585 L364 666 Q352 669 344 678.5 Q336 688 336 701 Q336 715 346 725.5 Q356 736 370 736 Q390 736 399.5 719 Q409 702 400 683 L349 574 L326 585 Z " />
<glyph glyph-name="tcommaaccent" unicode="&#x163;" horiz-adv-x="296" d="M128 0 L128 486 L10 486 L10 512 L128 512 L128 640 L158 640 L158 512 L276 512 L276 486 L158 486 L158 0 L128 0 Z M105 -215 L143 -134 Q131 -131 123 -121.5 Q115 -112 115 -99 Q115 -85 125 -74.5 Q135 -64 149 -64 Q169 -64 178.5 -81 Q188 -98 179 -117 Q177 -122 174 -128 Q171 -134 169 -139 L128 -226 L105 -215 Z " />
<glyph glyph-name="uacute" unicode="&#xfa;" horiz-adv-x="653" d="M75 512 L105 512 L105 230 Q105 185 121 146.5 Q137 108 165 79 Q193 50 231.5 33.5 Q270 17 315 17 Q359 17 398.5 35 Q438 53 467.5 84 Q497 115 514.5 157 Q532 199 533 248 L533 512 L563 512 L563 0 L533 0 L533 150 Q527 124 508.5 96 Q490 68 462 44.5 Q434 21 396.5 5.5 Q359 -10 315 -10 Q263 -10 219 9 Q175 28 143 61.5 Q111 95 93 141 Q75 187 75 240 L75 512 Z M307 574 L293 588 L415 728 Q422 736 432 737 Q442 738 450 731 Q457 723 456 713 Q455 703 447 696 L307 574 Z " />
<glyph glyph-name="ubreve" unicode="&#x16d;" horiz-adv-x="653" d="M75 512 L105 512 L105 230 Q105 185 121 146.5 Q137 108 165 79 Q193 50 231.5 33.5 Q270 17 315 17 Q359 17 398.5 35 Q438 53 467.5 84 Q497 115 514.5 157 Q532 199 533 248 L533 512 L563 512 L563 0 L533 0 L533 150 Q527 124 508.5 96 Q490 68 462 44.5 Q434 21 396.5 5.5 Q359 -10 315 -10 Q263 -10 219 9 Q175 28 143 61.5 Q111 95 93 141 Q75 187 75 240 L75 512 Z M209 696 L235 696 L235 681 Q235 642 261.5 616 Q288 590 326 590 Q364 590 390.5 616 Q417 642 417 681 L417 696 L443 696 L443 681 Q443 657 434 635.5 Q425 614 409 598 Q393 582 371.5 573 Q350 564 326 564 Q302 564 280.5 573 Q259 582 243 598 Q227 614 218 635.5 Q209 657 209 681 L209 696 Z " />
<glyph glyph-name="ucircumflex" unicode="&#xfb;" horiz-adv-x="653" d="M75 512 L105 512 L105 230 Q105 185 121 146.5 Q137 108 165 79 Q193 50 231.5 33.5 Q270 17 315 17 Q359 17 398.5 35 Q438 53 467.5 84 Q497 115 514.5 157 Q532 199 533 248 L533 512 L563 512 L563 0 L533 0 L533 150 Q527 124 508.5 96 Q490 68 462 44.5 Q434 21 396.5 5.5 Q359 -10 315 -10 Q263 -10 219 9 Q175 28 143 61.5 Q111 95 93 141 Q75 187 75 240 L75 512 Z M324 680 L210 564 L190 583 L326 719 L462 583 L442 564 L324 680 Z " />
<glyph glyph-name="udieresis" unicode="&#xfc;" horiz-adv-x="653" d="M75 512 L105 512 L105 230 Q105 185 121 146.5 Q137 108 165 79 Q193 50 231.5 33.5 Q270 17 315 17 Q359 17 398.5 35 Q438 53 467.5 84 Q497 115 514.5 157 Q532 199 533 248 L533 512 L563 512 L563 0 L533 0 L533 150 Q527 124 508.5 96 Q490 68 462 44.5 Q434 21 396.5 5.5 Q359 -10 315 -10 Q263 -10 219 9 Q175 28 143 61.5 Q111 95 93 141 Q75 187 75 240 L75 512 Z M207 663 Q207 677 217.5 687.5 Q228 698 242 698 Q256 698 266.5 687.5 Q277 677 277 663 Q277 649 266.5 638.5 Q256 628 242 628 Q228 628 217.5 638.5 Q207 649 207 663 Z M375 663 Q375 677 385.5 687.5 Q396 698 410 698 Q424 698 434.5 687.5 Q445 677 445 663 Q445 649 434.5 638.5 Q424 628 410 628 Q396 628 385.5 638.5 Q375 649 375 663 Z " />
<glyph glyph-name="uhungarumlaut" unicode="&#x171;" horiz-adv-x="653" d="M75 512 L105 512 L105 230 Q105 185 121 146.5 Q137 108 165 79 Q193 50 231.5 33.5 Q270 17 315 17 Q359 17 398.5 35 Q438 53 467.5 84 Q497 115 514.5 157 Q532 199 533 248 L533 512 L563 512 L563 0 L533 0 L533 150 Q527 124 508.5 96 Q490 68 462 44.5 Q434 21 396.5 5.5 Q359 -10 315 -10 Q263 -10 219 9 Q175 28 143 61.5 Q111 95 93 141 Q75 187 75 240 L75 512 Z M225 574 L211 588 L333 728 Q340 736 350 737 Q360 738 368 731 Q375 723 374 713 Q373 703 365 696 L225 574 Z M389 574 L375 588 L497 728 Q504 736 514 737 Q524 738 532 731 Q539 723 538 713 Q537 703 529 696 L389 574 Z " />
<glyph glyph-name="ugrave" unicode="&#xf9;" horiz-adv-x="653" d="M75 512 L105 512 L105 230 Q105 185 121 146.5 Q137 108 165 79 Q193 50 231.5 33.5 Q270 17 315 17 Q359 17 398.5 35 Q438 53 467.5 84 Q497 115 514.5 157 Q532 199 533 248 L533 512 L563 512 L563 0 L533 0 L533 150 Q527 124 508.5 96 Q490 68 462 44.5 Q434 21 396.5 5.5 Q359 -10 315 -10 Q263 -10 219 9 Q175 28 143 61.5 Q111 95 93 141 Q75 187 75 240 L75 512 Z M205 696 Q197 703 196 713 Q195 723 202 731 Q210 738 220 737 Q230 736 237 728 L359 588 L345 574 L205 696 Z " />
<glyph glyph-name="umacron" unicode="&#x16b;" horiz-adv-x="653" d="M75 512 L105 512 L105 230 Q105 185 121 146.5 Q137 108 165 79 Q193 50 231.5 33.5 Q270 17 315 17 Q359 17 398.5 35 Q438 53 467.5 84 Q497 115 514.5 157 Q532 199 533 248 L533 512 L563 512 L563 0 L533 0 L533 150 Q527 124 508.5 96 Q490 68 462 44.5 Q434 21 396.5 5.5 Q359 -10 315 -10 Q263 -10 219 9 Q175 28 143 61.5 Q111 95 93 141 Q75 187 75 240 L75 512 Z M467 629 L185 629 L185 654 L467 654 L467 629 Z " />
<glyph glyph-name="uogonek" unicode="&#x173;" horiz-adv-x="653" d="M211 -93 Q211 -65 223 -41.5 Q235 -18 255 -3 Q214 7 181 29 Q148 51 124.5 83 Q101 115 88 155 Q75 195 75 240 L75 512 L105 512 L105 230 Q105 185 121 146 Q137 107 165 78.5 Q193 50 231.5 33.5 Q270 17 315 17 Q360 17 398.5 34.5 Q437 52 466.5 83 Q496 114 513.5 156.5 Q531 199 533 248 L533 512 L563 512 L563 0 L533 0 L533 150 Q527 124 508.5 96 Q490 68 462 44.5 Q434 21 396.5 5.5 Q359 -10 315 -10 L312 -10 Q280 -12 258.5 -36 Q237 -60 237 -93 Q237 -110 243 -125 Q249 -140 259.5 -151 Q270 -162 284.5 -168.5 Q299 -175 315 -175 Q347 -175 370 -151 Q393 -127 393 -93 L419 -93 Q419 -116 411 -135.5 Q403 -155 388.5 -170 Q374 -185 355 -193.5 Q336 -202 315 -202 Q294 -202 275 -193.5 Q256 -185 241.5 -170 Q227 -155 219 -135.5 Q211 -116 211 -93 Z " />
<glyph glyph-name="uring" unicode="&#x16f;" horiz-adv-x="653" d="M75 512 L105 512 L105 230 Q105 185 121 146.5 Q137 108 165 79 Q193 50 231.5 33.5 Q270 17 315 17 Q359 17 398.5 35 Q438 53 467.5 84 Q497 115 514.5 157 Q532 199 533 248 L533 512 L563 512 L563 0 L533 0 L533 150 Q527 124 508.5 96 Q490 68 462 44.5 Q434 21 396.5 5.5 Q359 -10 315 -10 Q263 -10 219 9 Q175 28 143 61.5 Q111 95 93 141 Q75 187 75 240 L75 512 Z M230 672 Q230 712 258 740 Q286 768 326 768 Q366 768 394 740 Q422 712 422 672 Q422 632 394 604 Q366 576 326 576 Q286 576 258 604 Q230 632 230 672 Z M255 672 Q255 642 275.5 621.5 Q296 601 326 601 Q356 601 376.5 621.5 Q397 642 397 672 Q397 702 376.5 722.5 Q356 743 326 743 Q296 743 275.5 722.5 Q255 702 255 672 Z " />
<glyph glyph-name="utilde" unicode="&#x169;" horiz-adv-x="653" d="M75 512 L105 512 L105 230 Q105 185 121 146.5 Q137 108 165 79 Q193 50 231.5 33.5 Q270 17 315 17 Q359 17 398.5 35 Q438 53 467.5 84 Q497 115 514.5 157 Q532 199 533 248 L533 512 L563 512 L563 0 L533 0 L533 150 Q527 124 508.5 96 Q490 68 462 44.5 Q434 21 396.5 5.5 Q359 -10 315 -10 Q263 -10 219 9 Q175 28 143 61.5 Q111 95 93 141 Q75 187 75 240 L75 512 Z M396 708 Q431 708 451.5 684.5 Q472 661 470 622 L446 622 Q446 653 431.5 668 Q417 683 396 683 Q375 683 360 670 Q345 657 330.5 641 Q316 625 299 612 Q282 599 257 599 Q222 599 201.5 622.5 Q181 646 182 685 L207 685 Q207 653 219.5 638.5 Q232 624 257 624 Q276 624 290.5 637 Q305 650 320 666 Q335 682 353 695 Q371 708 396 708 Z " />
<glyph glyph-name="wacute" unicode="&#x1e83;" horiz-adv-x="770" d="M564 27 L567 27 L721 512 L750 512 L587 0 L543 0 L385 486 L382 486 L224 0 L180 0 L17 512 L46 512 L200 27 L203 27 L364 512 L403 512 L564 27 Z M386 574 L372 588 L494 728 Q501 736 511 737 Q521 738 529 731 Q536 723 535 713 Q534 703 526 696 L386 574 Z " />
<glyph glyph-name="wcircumflex" unicode="&#x175;" horiz-adv-x="770" d="M564 27 L567 27 L721 512 L750 512 L587 0 L543 0 L385 486 L382 486 L224 0 L180 0 L17 512 L46 512 L200 27 L203 27 L364 512 L403 512 L564 27 Z M383 680 L269 564 L249 583 L385 719 L521 583 L501 564 L383 680 Z " />
<glyph glyph-name="wdieresis" unicode="&#x1e85;" horiz-adv-x="770" d="M564 27 L567 27 L721 512 L750 512 L587 0 L543 0 L385 486 L382 486 L224 0 L180 0 L17 512 L46 512 L200 27 L203 27 L364 512 L403 512 L564 27 Z M266 663 Q266 677 276.5 687.5 Q287 698 301 698 Q315 698 325.5 687.5 Q336 677 336 663 Q336 649 325.5 638.5 Q315 628 301 628 Q287 628 276.5 638.5 Q266 649 266 663 Z M434 663 Q434 677 444.5 687.5 Q455 698 469 698 Q483 698 493.5 687.5 Q504 677 504 663 Q504 649 493.5 638.5 Q483 628 469 628 Q455 628 444.5 638.5 Q434 649 434 663 Z " />
<glyph glyph-name="wgrave" unicode="&#x1e81;" horiz-adv-x="770" d="M564 27 L567 27 L721 512 L750 512 L587 0 L543 0 L385 486 L382 486 L224 0 L180 0 L17 512 L46 512 L200 27 L203 27 L364 512 L403 512 L564 27 Z M244 696 Q236 703 235 713 Q234 723 241 731 Q249 738 259 737 Q269 736 276 728 L398 588 L384 574 L244 696 Z " />
<glyph glyph-name="yacute" unicode="&#xfd;" horiz-adv-x="567" d="M286 -3 L519 512 L550 512 L298 -47 L298 -256 L269 -256 L269 -47 L17 512 L48 512 L281 -3 L286 -3 Z M274 574 L260 588 L382 728 Q389 736 399 737 Q409 738 417 731 Q424 723 423 713 Q422 703 414 696 L274 574 Z " />
<glyph glyph-name="ycircumflex" unicode="&#x177;" horiz-adv-x="567" d="M286 -3 L519 512 L550 512 L298 -47 L298 -256 L269 -256 L269 -47 L17 512 L48 512 L281 -3 L286 -3 Z M281 680 L167 564 L147 583 L283 719 L419 583 L399 564 L281 680 Z " />
<glyph glyph-name="ydieresis" unicode="&#xff;" horiz-adv-x="567" d="M286 -3 L519 512 L550 512 L298 -47 L298 -256 L269 -256 L269 -47 L17 512 L48 512 L281 -3 L286 -3 Z M164 663 Q164 677 174.5 687.5 Q185 698 199 698 Q213 698 223.5 687.5 Q234 677 234 663 Q234 649 223.5 638.5 Q213 628 199 628 Q185 628 174.5 638.5 Q164 649 164 663 Z M332 663 Q332 677 342.5 687.5 Q353 698 367 698 Q381 698 391.5 687.5 Q402 677 402 663 Q402 649 391.5 638.5 Q381 628 367 628 Q353 628 342.5 638.5 Q332 649 332 663 Z " />
<glyph glyph-name="ygrave" unicode="&#x1ef3;" horiz-adv-x="567" d="M286 -3 L519 512 L550 512 L298 -47 L298 -256 L269 -256 L269 -47 L17 512 L48 512 L281 -3 L286 -3 Z M152 696 Q144 703 143 713 Q142 723 149 731 Q157 738 167 737 Q177 736 184 728 L306 588 L292 574 L152 696 Z " />
<glyph glyph-name="oslashacute" unicode="&#x1ff;" horiz-adv-x="622" d="M50 256 Q50 310 70.5 358 Q91 406 126 441 Q161 476 209 496.5 Q257 517 311 517 Q362 517 406.5 499 Q451 481 486 450 L525 489 L544 470 L505 431 Q536 396 554 351.5 Q572 307 572 256 Q572 202 551.5 154 Q531 106 496 71 Q461 36 413 15.5 Q365 -5 311 -5 Q260 -5 215.5 12.5 Q171 30 136 62 L97 23 L78 42 L117 81 Q85 116 67.5 160.5 Q50 205 50 256 Z M311 25 Q358 25 400 43.5 Q442 62 473.5 93.5 Q505 125 523.5 167 Q542 209 542 256 Q542 300 526 339 Q510 378 483 409 L158 84 Q189 56 227.5 40.5 Q266 25 311 25 Z M80 256 Q80 211 95.5 172.5 Q111 134 139 103 L464 428 Q433 455 394 471 Q355 487 311 487 Q264 487 222 468.5 Q180 450 148.5 418.5 Q117 387 98.5 345 Q80 303 80 256 Z M312 574 L298 588 L420 728 Q427 736 437 737 Q447 738 455 731 Q462 723 461 713 Q460 703 452 696 L312 574 Z " />
<glyph glyph-name="otilde" unicode="&#xf5;" horiz-adv-x="622" d="M50 256 Q50 310 70.5 358 Q91 406 126 441 Q161 476 209 496.5 Q257 517 311 517 Q365 517 413 496.5 Q461 476 496 441 Q531 406 551.5 358 Q572 310 572 256 Q572 202 551.5 154 Q531 106 496 71 Q461 36 413 15.5 Q365 -5 311 -5 Q257 -5 209 15.5 Q161 36 126 71 Q91 106 70.5 154 Q50 202 50 256 Z M80 256 Q80 209 98.5 167 Q117 125 148.5 93.5 Q180 62 222 43.5 Q264 25 311 25 Q358 25 400 43.5 Q442 62 473.5 93.5 Q505 125 523.5 167 Q542 209 542 256 Q542 303 523.5 345 Q505 387 473.5 418.5 Q442 450 400 468.5 Q358 487 311 487 Q264 487 222 468.5 Q180 450 148.5 418.5 Q117 387 98.5 345 Q80 303 80 256 Z M380 708 Q415 708 435.5 684.5 Q456 661 454 622 L430 622 Q430 653 415.5 668 Q401 683 380 683 Q359 683 344 670 Q329 657 314.5 641 Q300 625 283 612 Q266 599 241 599 Q206 599 185.5 622.5 Q165 646 166 685 L191 685 Q191 653 203.5 638.5 Q216 624 241 624 Q260 624 274.5 637 Q289 650 304 666 Q319 682 337 695 Q355 708 380 708 Z " />
<glyph glyph-name="approxequal" unicode="&#x2248;" horiz-adv-x="571" d="M383 445 Q409 445 430.5 435.5 Q452 426 467 408.5 Q482 391 490 366.5 Q498 342 497 312 L469 312 Q469 363 445.5 389.5 Q422 416 383 416 Q350 416 326.5 394.5 Q303 373 280.5 346.5 Q258 320 232.5 298.5 Q207 277 169 277 Q115 277 83.5 313 Q52 349 54 410 L82 410 Q82 356 104.5 331 Q127 306 169 306 Q198 306 221 327.5 Q244 349 267 375.5 Q290 402 317.5 423.5 Q345 445 383 445 Z M393 225 Q419 225 440.5 215.5 Q462 206 477 188.5 Q492 171 500 146.5 Q508 122 507 92 L479 92 Q479 143 455.5 169.5 Q432 196 393 196 Q360 196 336.5 174.5 Q313 153 290.5 126.5 Q268 100 242.5 78.5 Q217 57 179 57 Q125 57 93.5 93 Q62 129 64 190 L92 190 Q92 136 114.5 111 Q137 86 179 86 Q208 86 231 107.5 Q254 129 277 155.5 Q300 182 327.5 203.5 Q355 225 393 225 Z " />
<glyph glyph-name="fraction" unicode="&#x2044;" horiz-adv-x="782" d="M711 710 L732 689 L71 28 L50 49 L711 710 Z " />
<glyph glyph-name="section" unicode="&#xa7;" horiz-adv-x="511" d="M92 641 Q92 610 117 583.5 Q142 557 203 537 L329 497 Q408 471 439.5 437.5 Q471 404 471 358 Q471 316 441.5 284.5 Q412 253 351 240 Q417 215 444 183 Q471 151 471 108 Q471 82 459.5 59 Q448 36 424 19 Q400 2 364 -8 Q328 -18 279 -18 Q246 -18 213.5 -11.5 Q181 -5 152 6.5 Q123 18 98 33.5 Q73 49 55 67 L77 88 Q94 70 118 56 Q142 42 169 32 Q196 22 224.5 16.5 Q253 11 279 11 Q364 11 402.5 39.5 Q441 68 441 108 Q441 144 415 169.5 Q389 195 322 218 L196 261 Q132 282 97 314 Q62 346 62 391 Q62 433 92 466 Q122 499 185 512 Q126 533 94 565.5 Q62 598 62 641 Q62 667 73.5 692 Q85 717 109 736.5 Q133 756 170 767.5 Q207 779 257 779 Q312 779 351 761.5 Q390 744 415 719 Q440 694 451 666 Q462 638 462 617 L435 617 Q427 676 378.5 713.5 Q330 751 257 751 Q214 751 183 741.5 Q152 732 131.5 717 Q111 702 101.5 682 Q92 662 92 641 Z M92 391 Q92 360 117 333.5 Q142 307 203 287 L289 258 Q330 258 359 266.5 Q388 275 406 289 Q424 303 432.5 320.5 Q441 338 441 358 Q441 394 415 420.5 Q389 447 322 468 L236 496 Q207 496 180.5 488 Q154 480 134.5 466 Q115 452 103.5 433 Q92 414 92 391 Z " />
<glyph glyph-name="Eng" unicode="&#x14a;" horiz-adv-x="793" d="M337 0 Q337 -35 350.5 -65.5 Q364 -96 386.5 -118.5 Q409 -141 439.5 -154.5 Q470 -168 505 -168 Q539 -168 570 -154.5 Q601 -141 623.5 -118.5 Q646 -96 659.5 -65.5 Q673 -35 673 0 L673 20 L120 669 L120 0 L90 0 L90 730 L101 735 L673 66 L673 735 L703 735 L703 0 Q703 -41 687.5 -77 Q672 -113 645 -140 Q618 -167 582 -182.5 Q546 -198 505 -198 Q464 -198 428 -182.5 Q392 -167 365 -140 Q338 -113 322.5 -77 Q307 -41 307 0 L337 0 Z " />
<glyph glyph-name="eng" unicode="&#x14b;" horiz-adv-x="652" d="M295 -104 Q295 -130 303.5 -154 Q312 -178 328.5 -196 Q345 -214 368 -225 Q391 -236 421 -236 Q476 -236 511.5 -202.5 Q547 -169 547 -104 L547 282 Q547 327 531 365.5 Q515 404 487 433 Q459 462 420.5 478.5 Q382 495 337 495 Q293 495 253.5 477 Q214 459 184.5 428 Q155 397 137.5 355 Q120 313 119 264 L119 0 L90 0 L90 512 L119 512 L119 362 Q125 387 143.5 415.5 Q162 444 190 467.5 Q218 491 255.5 506.5 Q293 522 337 522 Q389 522 433 503 Q477 484 509 450.5 Q541 417 559 371 Q577 325 577 272 L577 -104 Q577 -145 564.5 -175.5 Q552 -206 530.5 -226 Q509 -246 480.5 -256 Q452 -266 421 -266 Q386 -266 357.5 -252.5 Q329 -239 308.5 -216.5 Q288 -194 276.5 -164.5 Q265 -135 265 -104 L295 -104 Z " />
<glyph glyph-name="Eth" unicode="&#xd0;" horiz-adv-x="701" d="M90 0 L90 324 L-32 292 L-38 313 L90 347 L90 735 L284 735 Q360 735 426.5 706 Q493 677 543 627 Q593 577 622 510.5 Q651 444 651 368 Q651 292 622 225 Q593 158 543 108 Q493 58 426.5 29 Q360 0 284 0 L90 0 Z M265 394 L271 373 L120 332 L120 27 L284 27 Q354 27 415.5 54 Q477 81 523 127 Q569 173 595 235 Q621 297 621 368 Q621 438 595 500 Q569 562 523 608 Q477 654 415.5 681 Q354 708 284 708 L120 708 L120 355 L265 394 Z " />
<glyph glyph-name="Dcroat" unicode="&#x110;" horiz-adv-x="701" d="M90 0 L90 324 L-32 292 L-38 313 L90 347 L90 735 L284 735 Q360 735 426.5 706 Q493 677 543 627 Q593 577 622 510.5 Q651 444 651 368 Q651 292 622 225 Q593 158 543 108 Q493 58 426.5 29 Q360 0 284 0 L90 0 Z M265 394 L271 373 L120 332 L120 27 L284 27 Q354 27 415.5 54 Q477 81 523 127 Q569 173 595 235 Q621 297 621 368 Q621 438 595 500 Q569 562 523 608 Q477 654 415.5 681 Q354 708 284 708 L120 708 L120 355 L265 394 Z " />
<glyph glyph-name="dcroat" unicode="&#x111;" horiz-adv-x="645" d="M55 256 Q55 309 75 356 Q95 403 130.5 437.5 Q166 472 213.5 492 Q261 512 317 512 Q353 512 386.5 501 Q420 490 447.5 472 Q475 454 495 431 Q515 408 525 384 L525 594 L384 557 L378 578 L525 617 L525 768 L555 768 L555 625 L681 659 L687 638 L555 602 L555 0 L525 0 L525 130 Q515 106 495.5 83 Q476 60 449.5 41.5 Q423 23 389.5 11.5 Q356 0 317 0 Q261 0 213.5 20 Q166 40 130.5 74.5 Q95 109 75 156 Q55 203 55 256 Z M536 256 Q536 305 519 347 Q502 389 473 420 Q444 451 403.5 468.5 Q363 486 317 486 Q269 486 226.5 468.5 Q184 451 152.5 420 Q121 389 103 347 Q85 305 85 256 Q85 207 103 165 Q121 123 152.5 92.5 Q184 62 226.5 44.5 Q269 27 317 27 Q363 27 403.5 44.5 Q444 62 473 92.5 Q502 123 519 165 Q536 207 536 256 Z " />
<glyph glyph-name="zacute" unicode="&#x17a;" horiz-adv-x="509" d="M459 27 L459 0 L60 0 L45 25 L427 486 L61 486 L61 512 L450 512 L464 487 L83 27 L459 27 Z M255 574 L241 588 L363 728 Q370 736 380 737 Q390 738 398 731 Q405 723 404 713 Q403 703 395 696 L255 574 Z " />
<glyph glyph-name="zcaron" unicode="&#x17e;" horiz-adv-x="509" d="M459 27 L459 0 L60 0 L45 25 L427 486 L61 486 L61 512 L450 512 L464 487 L83 27 L459 27 Z M256 603 L370 719 L390 700 L254 564 L118 700 L138 719 L256 603 Z " />
<glyph glyph-name="zdotaccent" unicode="&#x17c;" horiz-adv-x="509" d="M459 27 L459 0 L60 0 L45 25 L427 486 L61 486 L61 512 L450 512 L464 487 L83 27 L459 27 Z M219 663 Q219 677 229.5 687.5 Q240 698 254 698 Q268 698 278.5 687.5 Q289 677 289 663 Q289 649 278.5 638.5 Q268 628 254 628 Q240 628 229.5 638.5 Q219 649 219 663 Z " />
<glyph glyph-name="Thorn" unicode="&#xde;" horiz-adv-x="592" d="M120 130 L120 0 L90 0 L90 735 L120 735 L120 615 L327 615 Q379 615 424 596 Q469 577 502 544 Q535 511 553.5 467 Q572 423 572 372 Q572 321 553.5 277 Q535 233 502 200.5 Q469 168 424 149 Q379 130 327 130 L120 130 Z M327 156 Q373 156 412.5 172 Q452 188 481 216.5 Q510 245 526 284.5 Q542 324 542 372 Q542 420 526 459.5 Q510 499 481 527.5 Q452 556 412.5 572 Q373 588 327 588 L120 588 L120 156 L327 156 Z " />
<glyph glyph-name="dotlessj" unicode="&#x237;" horiz-adv-x="220" d="M95 -236 L95 512 L125 512 L125 -236 L95 -236 Z " />
<glyph glyph-name="jcircumflex" unicode="&#x135;" horiz-adv-x="220" d="M95 -236 L95 512 L125 512 L125 -236 L95 -236 Z M108 680 L-6 564 L-26 583 L110 719 L246 583 L226 564 L108 680 Z " />
<glyph glyph-name="Wacute" unicode="&#x1e82;" horiz-adv-x="887" d="M653 27 L657 27 L840 735 L870 735 L678 0 L631 0 L445 706 L442 706 L256 0 L209 0 L17 735 L47 735 L230 27 L234 27 L423 735 L464 735 L653 27 Z M444 797 L430 811 L552 951 Q559 959 569 960 Q579 961 587 954 Q594 946 593 936 Q592 926 584 919 L444 797 Z " />
<glyph glyph-name="Wcircumflex" unicode="&#x174;" horiz-adv-x="887" d="M653 27 L657 27 L840 735 L870 735 L678 0 L631 0 L445 706 L442 706 L256 0 L209 0 L17 735 L47 735 L230 27 L234 27 L423 735 L464 735 L653 27 Z M441 903 L327 787 L307 806 L443 942 L579 806 L559 787 L441 903 Z " />
<glyph glyph-name="Wdieresis" unicode="&#x1e84;" horiz-adv-x="887" d="M653 27 L657 27 L840 735 L870 735 L678 0 L631 0 L445 706 L442 706 L256 0 L209 0 L17 735 L47 735 L230 27 L234 27 L423 735 L464 735 L653 27 Z M324 886 Q324 900 334.5 910.5 Q345 921 359 921 Q373 921 383.5 910.5 Q394 900 394 886 Q394 872 383.5 861.5 Q373 851 359 851 Q345 851 334.5 861.5 Q324 872 324 886 Z M492 886 Q492 900 502.5 910.5 Q513 921 527 921 Q541 921 551.5 910.5 Q562 900 562 886 Q562 872 551.5 861.5 Q541 851 527 851 Q513 851 502.5 861.5 Q492 872 492 886 Z " />
<glyph glyph-name="Wgrave" unicode="&#x1e80;" horiz-adv-x="887" d="M653 27 L657 27 L840 735 L870 735 L678 0 L631 0 L445 706 L442 706 L256 0 L209 0 L17 735 L47 735 L230 27 L234 27 L423 735 L464 735 L653 27 Z M302 919 Q294 926 293 936 Q292 946 299 954 Q307 961 317 960 Q327 959 334 951 L456 811 L442 797 L302 919 Z " />
</font>
</svg>
